<svg width="28" height="30" viewBox="0 0 28 30" fill="none" xmlns="http://www.w3.org/2000/svg">
<path d="M11.3601 12.585C10.5051 12.585 9.83008 13.335 9.83008 14.25C9.83008 15.165 10.5201 15.915 11.3601 15.915C12.2151 15.915 12.8901 15.165 12.8901 14.25C12.9051 13.335 12.2151 12.585 11.3601 12.585ZM16.8351 12.585C15.9801 12.585 15.3051 13.335 15.3051 14.25C15.3051 15.165 15.9951 15.915 16.8351 15.915C17.6901 15.915 18.3651 15.165 18.3651 14.25C18.3651 13.335 17.6901 12.585 16.8351 12.585Z" fill="#131313"/>
<path d="M24.1252 0H4.0252C2.3302 0 0.950195 1.38 0.950195 3.09V23.37C0.950195 25.08 2.3302 26.46 4.0252 26.46H21.0352L20.2402 23.685L22.1602 25.47L23.9752 27.15L27.2002 30V3.09C27.2002 1.38 25.8202 0 24.1252 0ZM18.3352 19.59C18.3352 19.59 17.7952 18.945 17.3452 18.375C19.3102 17.82 20.0602 16.59 20.0602 16.59C19.4452 16.995 18.8602 17.28 18.3352 17.475C17.5852 17.79 16.8652 18 16.1602 18.12C14.7202 18.39 13.4002 18.315 12.2752 18.105C11.4202 17.94 10.6852 17.7 10.0702 17.46C9.7252 17.325 9.3502 17.16 8.9752 16.95C8.9302 16.92 8.8852 16.905 8.8402 16.875C8.8102 16.86 8.7952 16.845 8.7802 16.83C8.5102 16.68 8.3602 16.575 8.3602 16.575C8.3602 16.575 9.0802 17.775 10.9852 18.345C10.5352 18.915 9.9802 19.59 9.9802 19.59C6.6652 19.485 5.4052 17.31 5.4052 17.31C5.4052 12.48 7.5652 8.565 7.5652 8.565C9.7252 6.945 11.7802 6.99 11.7802 6.99L11.9302 7.17C9.2302 7.95 7.9852 9.135 7.9852 9.135C7.9852 9.135 8.3152 8.955 8.8702 8.7C10.4752 7.995 11.7502 7.8 12.2752 7.755C12.3652 7.74 12.4402 7.725 12.5302 7.725C13.4452 7.605 14.4802 7.575 15.5602 7.695C16.9852 7.86 18.5152 8.28 20.0752 9.135C20.0752 9.135 18.8902 8.01 16.3402 7.23L16.5502 6.99C16.5502 6.99 18.6052 6.945 20.7652 8.565C20.7652 8.565 22.9252 12.48 22.9252 17.31C22.9252 17.31 21.6502 19.485 18.3352 19.59V19.59Z" fill="#131313"/>
</svg>
