<svg width="26" height="22" viewBox="0 0 26 22" fill="none" xmlns="http://www.w3.org/2000/svg">
<path d="M8.17934 21.5623C17.9882 21.5623 23.3548 13.4337 23.3548 6.38683C23.3548 6.15832 23.3497 5.92472 23.3396 5.69621C24.3835 4.94123 25.2845 4.00609 26 2.93472C25.0277 3.3673 23.9954 3.64981 22.9384 3.77261C24.0514 3.10547 24.8847 2.05741 25.284 0.822731C24.2369 1.44325 23.0919 1.88098 21.8979 2.11714C21.0934 1.26234 20.0297 0.69636 18.8713 0.506705C17.7129 0.317051 16.5243 0.514288 15.4892 1.06792C14.4541 1.62155 13.6303 2.50075 13.145 3.56957C12.6597 4.63839 12.54 5.83732 12.8045 6.98097C10.6844 6.87458 8.61026 6.32383 6.71665 5.36442C4.82303 4.40502 3.15217 3.05837 1.81238 1.41179C1.13143 2.58583 0.923061 3.9751 1.22962 5.29725C1.53617 6.6194 2.33465 7.77522 3.46277 8.5298C2.61585 8.50291 1.78747 8.27489 1.04609 7.86457V7.93058C1.04534 9.16265 1.47127 10.357 2.2515 11.3105C3.03173 12.264 4.1181 12.9179 5.32594 13.1611C4.54139 13.3757 3.71798 13.407 2.91941 13.2525C3.26024 14.312 3.92337 15.2388 4.81625 15.9033C5.70913 16.5679 6.78721 16.9371 7.90004 16.9595C6.01079 18.4435 3.67702 19.2485 1.27461 19.2446C0.848561 19.244 0.422932 19.2179 0 19.1664C2.44059 20.7322 5.27966 21.5638 8.17934 21.5623Z" fill="#131313"/>
</svg>
