<svg width="1358" height="21" viewBox="0 0 1358 21" fill="none" xmlns="http://www.w3.org/2000/svg">
<g>
<path d="M-24.19 4.05012C-24.19 4.53012 -23.86 4.86012 -23.38 4.86012H-22.57V0.00012064H-24.19V4.05012ZM-7.24 4.86012C-6.76 4.86012 -6.43 4.53012 -6.43 4.05012V0.00012064H-8.05V4.86012H-7.24ZM-20.98 5.67012C-20.98 5.19012 -21.31 4.86012 -21.79 4.86012H-22.57V7.26012C-22.57 7.74012 -22.24 8.07012 -21.76 8.07012H-20.98V5.67012ZM-8.86 4.86012C-9.34 4.86012 -9.67 5.19012 -9.67 5.67012V8.07012H-8.86C-8.38 8.07012 -8.05 7.74012 -8.05 7.26012V4.86012H-8.86ZM-19.36 8.88012C-19.36 8.40012 -19.69 8.07012 -20.17 8.07012H-20.98V12.1201C-20.98 12.6001 -20.65 12.9301 -20.17 12.9301H-19.36V8.88012ZM-11.29 12.9301H-10.48C-10 12.9301 -9.67 12.6001 -9.67 12.1201V8.07012H-10.48C-10.96 8.07012 -11.29 8.40012 -11.29 8.88012V12.9301ZM-17.74 13.7401C-17.74 13.2601 -18.07 12.9301 -18.55 12.9301H-19.36V15.3301C-19.36 15.8101 -19.03 16.1401 -18.55 16.1401H-17.74V13.7401ZM-12.1 16.1401C-11.62 16.1401 -11.29 15.8101 -11.29 15.3301V12.9301H-12.88V16.1401H-12.1ZM-16.12 16.9501C-16.12 16.4701 -16.45 16.1401 -16.93 16.1401H-17.74V18.5701C-17.74 19.0501 -17.41 19.3801 -16.93 19.3801H-16.12V16.9501ZM-13.69 19.3801C-13.21 19.3801 -12.88 19.0501 -12.88 18.5701V16.1401H-13.69C-14.17 16.1401 -14.5 16.4701 -14.5 16.9501V19.3801H-13.69ZM-16.12 21.0001H-14.5V19.3801H-16.12V21.0001ZM-4.79547 21.0001H-3.17547V0.00012064H-4.79547V21.0001ZM0.886484 0.00012064C0.406485 0.00012064 0.0764844 0.330122 0.0764844 0.810121V1.62012H13.0065V0.00012064H0.886484ZM-0.733516 1.62012C-1.21352 1.62012 -1.54352 1.95012 -1.54352 2.43012V8.88012C-1.54352 9.36012 -1.21352 9.69012 -0.733516 9.69012H0.0764844V1.62012H-0.733516ZM11.3865 9.69012H0.0764844V11.3101H11.3865V9.69012ZM-0.733516 11.3101C-1.21352 11.3101 -1.54352 11.6401 -1.54352 12.1201V18.5701C-1.54352 19.0501 -1.21352 19.3801 -0.733516 19.3801H0.0764844V11.3101H-0.733516ZM0.0764844 20.1901C0.0764844 20.6701 0.406485 21.0001 0.886484 21.0001H13.0065V19.3801H0.0764844V20.1901ZM14.6284 2.43012C14.6284 2.91012 14.9584 3.24012 15.4384 3.24012H16.2484V0.00012064H14.6284V2.43012ZM41.2684 3.24012C41.7484 3.24012 42.0784 2.91012 42.0784 2.43012V0.00012064H40.4884V3.24012H41.2684ZM27.5584 3.24012H29.1784V0.00012064H27.5584V3.24012ZM39.6784 3.24012C39.1984 3.24012 38.8684 3.57012 38.8684 4.05012V6.45012H39.6784C40.1584 6.45012 40.4884 6.12012 40.4884 5.64012V3.24012H39.6784ZM30.7684 4.05012C30.7684 3.57012 30.4384 3.24012 29.9584 3.24012H29.1784V5.64012C29.1784 6.12012 29.5084 6.45012 29.9884 6.45012H30.7684V4.05012ZM17.8684 4.05012C17.8684 3.57012 17.5384 3.24012 17.0584 3.24012H16.2484V5.64012C16.2484 6.12012 16.5784 6.45012 17.0584 6.45012H17.8684V4.05012ZM26.7484 3.24012C26.2684 3.24012 25.9384 3.57012 25.9384 4.05012V6.45012H26.7484C27.2284 6.45012 27.5584 6.12012 27.5584 5.64012V3.24012H26.7484ZM19.4884 7.26012C19.4884 6.78012 19.1584 6.45012 18.6784 6.45012H17.8684V10.5001C17.8684 10.9801 18.1984 11.3101 18.6784 11.3101H19.4884V7.26012ZM25.1284 6.45012C24.6484 6.45012 24.3184 6.78012 24.3184 7.26012V11.3101H25.1284C25.6084 11.3101 25.9384 10.9801 25.9384 10.5001V6.45012H25.1284ZM38.0584 6.45012C37.5784 6.45012 37.2484 6.78012 37.2484 7.26012V11.3101H38.0584C38.5384 11.3101 38.8684 10.9801 38.8684 10.5001V6.45012H38.0584ZM32.3884 7.26012C32.3884 6.78012 32.0584 6.45012 31.5784 6.45012H30.7684V10.5001C30.7684 10.9801 31.0984 11.3101 31.5784 11.3101H32.3884V7.26012ZM21.0784 12.1201C21.0784 11.6401 20.7484 11.3101 20.2684 11.3101H19.4884V15.3301C19.4884 15.8101 19.8184 16.1401 20.2984 16.1401H21.0784V12.1201ZM34.0084 12.1201C34.0084 11.6401 33.6784 11.3101 33.1984 11.3101H32.3884V15.3301C32.3884 15.8101 32.7184 16.1401 33.1984 16.1401H34.0084V12.1201ZM35.6284 16.1401H36.4384C36.9184 16.1401 37.2484 15.8101 37.2484 15.3301V11.3101H36.4384C35.9584 11.3101 35.6284 11.6401 35.6284 12.1201V16.1401ZM22.6984 16.1401H23.5084C23.9884 16.1401 24.3184 15.8101 24.3184 15.3301V11.3101H23.5084C23.0284 11.3101 22.6984 11.6401 22.6984 12.1201V16.1401ZM21.0784 21.0001H22.6984V16.1401H21.0784V21.0001ZM34.0084 21.0001H35.6284V16.1401H34.0084V21.0001ZM52.685 4.05012C52.685 4.53012 53.015 4.86012 53.495 4.86012H54.305V0.00012064H52.685V4.05012ZM69.635 4.86012C70.115 4.86012 70.445 4.53012 70.445 4.05012V0.00012064H68.825V4.86012H69.635ZM55.895 5.67012C55.895 5.19012 55.565 4.86012 55.085 4.86012H54.305V7.26012C54.305 7.74012 54.635 8.07012 55.115 8.07012H55.895V5.67012ZM68.015 4.86012C67.535 4.86012 67.205 5.19012 67.205 5.67012V8.07012H68.015C68.495 8.07012 68.825 7.74012 68.825 7.26012V4.86012H68.015ZM57.515 8.88012C57.515 8.40012 57.185 8.07012 56.705 8.07012H55.895V12.1201C55.895 12.6001 56.225 12.9301 56.705 12.9301H57.515V8.88012ZM65.585 12.9301H66.395C66.875 12.9301 67.205 12.6001 67.205 12.1201V8.07012H66.395C65.915 8.07012 65.585 8.40012 65.585 8.88012V12.9301ZM59.135 13.7401C59.135 13.2601 58.805 12.9301 58.325 12.9301H57.515V15.3301C57.515 15.8101 57.845 16.1401 58.325 16.1401H59.135V13.7401ZM64.775 16.1401C65.255 16.1401 65.585 15.8101 65.585 15.3301V12.9301H63.995V16.1401H64.775ZM60.755 16.9501C60.755 16.4701 60.425 16.1401 59.945 16.1401H59.135V18.5701C59.135 19.0501 59.465 19.3801 59.945 19.3801H60.755V16.9501ZM63.185 19.3801C63.665 19.3801 63.995 19.0501 63.995 18.5701V16.1401H63.185C62.705 16.1401 62.375 16.4701 62.375 16.9501V19.3801H63.185ZM60.755 21.0001H62.375V19.3801H60.755V21.0001ZM75.3155 1.62012H76.9355V0.810121C76.9355 0.330122 76.6355 0.00012064 76.1255 0.00012064C75.6455 0.00012064 75.3155 0.330122 75.3155 0.810121V1.62012ZM73.6955 4.86012H74.5055C74.9855 4.86012 75.3155 4.53012 75.3155 4.05012V1.62012H74.5055C74.0255 1.62012 73.6955 1.95012 73.6955 2.43012V4.86012ZM76.9355 1.62012V4.05012C76.9355 4.53012 77.2655 4.86012 77.7455 4.86012H78.5255V2.43012C78.5255 1.95012 78.1955 1.62012 77.7155 1.62012H76.9355ZM72.0755 9.69012H72.8855C73.3655 9.69012 73.6955 9.36012 73.6955 8.88012V4.86012H72.8855C72.4055 4.86012 72.0755 5.19012 72.0755 5.67012V9.69012ZM78.5255 4.86012V8.88012C78.5255 9.36012 78.8555 9.69012 79.3355 9.69012H80.1455V5.67012C80.1455 5.19012 79.8155 4.86012 79.3355 4.86012H78.5255ZM70.4555 12.9301H72.0755V9.69012H71.2655C70.7855 9.69012 70.4555 10.0201 70.4555 10.5001V12.9301ZM80.1455 9.69012V12.9301H81.7655V10.5001C81.7655 10.0201 81.4355 9.69012 80.9555 9.69012H80.1455ZM68.8355 17.7601H69.6455C70.1255 17.7601 70.4555 17.4301 70.4555 16.9501V12.9301H69.6455C69.1655 12.9301 68.8355 13.2601 68.8355 13.7401V17.7601ZM80.1455 12.9301H72.0755V13.7401C72.0755 14.2201 72.4055 14.5501 72.8855 14.5501H79.3355C79.8155 14.5501 80.1455 14.2201 80.1455 13.7401V12.9301ZM81.7655 12.9301V16.9501C81.7655 17.4301 82.0955 17.7601 82.5755 17.7601H83.3855V13.7401C83.3855 13.2601 83.0555 12.9301 82.5755 12.9301H81.7655ZM67.2455 21.0001H68.8355V17.7601H68.0555C67.5755 17.7601 67.2455 18.0901 67.2455 18.5701V21.0001ZM83.3855 17.7601V21.0001H85.0055V18.5701C85.0055 18.0901 84.6755 17.7601 84.1955 17.7601H83.3855ZM88.268 1.62012H97.958V0.810121C97.958 0.330122 97.628 0.00012064 97.148 0.00012064H89.078C88.598 0.00012064 88.268 0.330122 88.268 0.810121V1.62012ZM86.648 4.86012H87.458C87.938 4.86012 88.268 4.53012 88.268 4.05012V1.62012H87.458C86.978 1.62012 86.648 1.95012 86.648 2.43012V4.86012ZM97.958 1.62012V4.05012C97.958 4.53012 98.288 4.86012 98.768 4.86012H99.578V2.43012C99.578 1.95012 99.248 1.62012 98.768 1.62012H97.958ZM86.648 16.1401V4.86012H85.868C85.388 4.86012 85.058 5.19012 85.058 5.67012V15.3301C85.058 15.8101 85.388 16.1401 85.868 16.1401H86.648ZM99.578 4.86012V8.07012H101.198V5.67012C101.198 5.19012 100.868 4.86012 100.388 4.86012H99.578ZM99.578 16.1401H100.388C100.868 16.1401 101.198 15.8101 101.198 15.3301V12.9301H99.578V16.1401ZM86.648 16.1401V18.5701C86.648 19.0501 86.978 19.3801 87.458 19.3801H88.268V16.9501C88.268 16.4701 87.938 16.1401 87.458 16.1401H86.648ZM97.958 19.3801H98.768C99.248 19.3801 99.578 19.0501 99.578 18.5701V16.1401H98.768C98.288 16.1401 97.958 16.4701 97.958 16.9501V19.3801ZM88.268 19.3801V20.1901C88.268 20.6701 88.598 21.0001 89.078 21.0001H97.148C97.628 21.0001 97.958 20.6701 97.958 20.1901V19.3801H88.268ZM109.3 1.62012H110.92V0.810121C110.92 0.330122 110.62 0.00012064 110.11 0.00012064C109.63 0.00012064 109.3 0.330122 109.3 0.810121V1.62012ZM107.68 4.86012H108.49C108.97 4.86012 109.3 4.53012 109.3 4.05012V1.62012H108.49C108.01 1.62012 107.68 1.95012 107.68 2.43012V4.86012ZM110.92 1.62012V4.05012C110.92 4.53012 111.25 4.86012 111.73 4.86012H112.51V2.43012C112.51 1.95012 112.18 1.62012 111.7 1.62012H110.92ZM106.06 9.69012H106.87C107.35 9.69012 107.68 9.36012 107.68 8.88012V4.86012H106.87C106.39 4.86012 106.06 5.19012 106.06 5.67012V9.69012ZM112.51 4.86012V8.88012C112.51 9.36012 112.84 9.69012 113.32 9.69012H114.13V5.67012C114.13 5.19012 113.8 4.86012 113.32 4.86012H112.51ZM104.44 12.9301H106.06V9.69012H105.25C104.77 9.69012 104.44 10.0201 104.44 10.5001V12.9301ZM114.13 9.69012V12.9301H115.75V10.5001C115.75 10.0201 115.42 9.69012 114.94 9.69012H114.13ZM102.82 17.7601H103.63C104.11 17.7601 104.44 17.4301 104.44 16.9501V12.9301H103.63C103.15 12.9301 102.82 13.2601 102.82 13.7401V17.7601ZM114.13 12.9301H106.06V13.7401C106.06 14.2201 106.39 14.5501 106.87 14.5501H113.32C113.8 14.5501 114.13 14.2201 114.13 13.7401V12.9301ZM115.75 12.9301V16.9501C115.75 17.4301 116.08 17.7601 116.56 17.7601H117.37V13.7401C117.37 13.2601 117.04 12.9301 116.56 12.9301H115.75ZM101.23 21.0001H102.82V17.7601H102.04C101.56 17.7601 101.23 18.0901 101.23 18.5701V21.0001ZM117.37 17.7601V21.0001H118.99V18.5701C118.99 18.0901 118.66 17.7601 118.18 17.7601H117.37ZM120.624 0.810121C120.624 1.29012 120.954 1.62012 121.434 1.62012H122.244V0.00012064H120.624V0.810121ZM133.524 16.1401H134.334C134.814 16.1401 135.144 15.8101 135.144 15.3301V0.00012064H133.524V16.1401ZM123.834 2.43012C123.834 1.95012 123.504 1.62012 123.024 1.62012H122.244V4.86012H123.834V2.43012ZM121.434 4.86012C120.954 4.86012 120.624 5.19012 120.624 5.67012V21.0001H122.244V4.86012H121.434ZM125.454 5.67012C125.454 5.19012 125.124 4.86012 124.644 4.86012H123.834V5.64012C123.834 6.12012 124.164 6.45012 124.644 6.45012H125.454V5.67012ZM127.074 7.26012C127.074 6.78012 126.744 6.45012 126.264 6.45012H125.454V8.88012C125.454 9.36012 125.784 9.69012 126.264 9.69012H127.074V7.26012ZM128.694 10.5001C128.694 10.0201 128.364 9.69012 127.884 9.69012H127.074V10.5001C127.074 10.9801 127.404 11.3101 127.884 11.3101H128.694V10.5001ZM130.314 12.1201C130.314 11.6401 129.984 11.3101 129.504 11.3101H128.694V12.1201C128.694 12.6001 129.024 12.9301 129.504 12.9301H130.314V12.1201ZM131.934 13.7401C131.934 13.2601 131.604 12.9301 131.124 12.9301H130.314V15.3301C130.314 15.8101 130.644 16.1401 131.124 16.1401H131.934V13.7401ZM131.934 18.5701C131.934 19.0501 132.264 19.3801 132.744 19.3801H133.524V16.1401H131.934V18.5701ZM135.144 20.1901C135.144 19.7101 134.814 19.3801 134.334 19.3801H133.524V21.0001H135.144V20.1901ZM139.977 1.62012H149.667V0.810121C149.667 0.330122 149.337 0.00012064 148.857 0.00012064H140.787C140.307 0.00012064 139.977 0.330122 139.977 0.810121V1.62012ZM138.357 4.86012H139.167C139.647 4.86012 139.977 4.53012 139.977 4.05012V1.62012H139.167C138.687 1.62012 138.357 1.95012 138.357 2.43012V4.86012ZM149.667 1.62012V4.05012C149.667 4.53012 149.997 4.86012 150.477 4.86012H151.287V2.43012C151.287 1.95012 150.957 1.62012 150.477 1.62012H149.667ZM138.357 16.1401V4.86012H137.577C137.097 4.86012 136.767 5.19012 136.767 5.67012V15.3301C136.767 15.8101 137.097 16.1401 137.577 16.1401H138.357ZM151.287 4.86012V8.07012H152.907V5.67012C152.907 5.19012 152.577 4.86012 152.097 4.86012H151.287ZM151.287 16.1401H152.097C152.577 16.1401 152.907 15.8101 152.907 15.3301V12.9301H151.287V16.1401ZM138.357 16.1401V18.5701C138.357 19.0501 138.687 19.3801 139.167 19.3801H139.977V16.9501C139.977 16.4701 139.647 16.1401 139.167 16.1401H138.357ZM149.667 19.3801H150.477C150.957 19.3801 151.287 19.0501 151.287 18.5701V16.1401H150.477C149.997 16.1401 149.667 16.4701 149.667 16.9501V19.3801ZM139.977 19.3801V20.1901C139.977 20.6701 140.307 21.0001 140.787 21.0001H148.857C149.337 21.0001 149.667 20.6701 149.667 20.1901V19.3801H139.977ZM154.521 21.0001H156.141V0.00012064H154.521V21.0001ZM160.203 0.00012064C159.723 0.00012064 159.393 0.330122 159.393 0.810121V1.62012H172.323V0.00012064H160.203ZM158.583 1.62012C158.103 1.62012 157.773 1.95012 157.773 2.43012V8.88012C157.773 9.36012 158.103 9.69012 158.583 9.69012H159.393V1.62012H158.583ZM170.703 9.69012H159.393V11.3101H170.703V9.69012ZM158.583 11.3101C158.103 11.3101 157.773 11.6401 157.773 12.1201V18.5701C157.773 19.0501 158.103 19.3801 158.583 19.3801H159.393V11.3101H158.583ZM159.393 20.1901C159.393 20.6701 159.723 21.0001 160.203 21.0001H172.323V19.3801H159.393V20.1901ZM175.485 1.62012H183.585V0.810121C183.585 0.330122 183.255 0.00012064 182.775 0.00012064H176.295C175.815 0.00012064 175.485 0.330122 175.485 0.810121V1.62012ZM175.485 1.62012H174.705C174.225 1.62012 173.895 1.95012 173.895 2.43012V3.24012H174.675C175.155 3.24012 175.485 2.91012 175.485 2.43012V1.62012ZM185.175 3.24012V2.43012C185.175 1.95012 184.845 1.62012 184.365 1.62012H183.585V2.43012C183.585 2.91012 183.915 3.24012 184.395 3.24012H185.175ZM173.895 8.07012V3.24012H173.085C172.605 3.24012 172.275 3.57012 172.275 4.05012V7.26012C172.275 7.74012 172.605 8.07012 173.085 8.07012H173.895ZM185.175 3.24012V4.86012H186.795V4.05012C186.795 3.57012 186.465 3.24012 185.985 3.24012H185.175ZM175.485 9.69012V8.88012C175.485 8.40012 175.155 8.07012 174.675 8.07012H173.895V8.88012C173.895 9.36012 174.225 9.69012 174.705 9.69012H175.485ZM175.485 9.69012V10.5001C175.485 10.9801 175.815 11.3101 176.295 11.3101H183.585V10.5001C183.585 10.0201 183.255 9.69012 182.775 9.69012H175.485ZM185.175 12.9301V12.1201C185.175 11.6401 184.845 11.3101 184.365 11.3101H183.585V12.1201C183.585 12.6001 183.915 12.9301 184.395 12.9301H185.175ZM185.175 17.7601H185.985C186.465 17.7601 186.795 17.4301 186.795 16.9501V13.7401C186.795 13.2601 186.465 12.9301 185.985 12.9301H185.175V17.7601ZM173.895 14.5501H172.275V16.9501C172.275 17.4301 172.605 17.7601 173.085 17.7601H173.895V14.5501ZM173.895 17.7601V18.5701C173.895 19.0501 174.225 19.3801 174.705 19.3801H175.485V18.5701C175.485 18.0901 175.155 17.7601 174.675 17.7601H173.895ZM183.585 19.3801H184.365C184.845 19.3801 185.175 19.0501 185.175 18.5701V17.7601H184.395C183.915 17.7601 183.585 18.0901 183.585 18.5701V19.3801ZM175.485 19.3801V20.1901C175.485 20.6701 175.815 21.0001 176.295 21.0001H182.775C183.255 21.0001 183.585 20.6701 183.585 20.1901V19.3801H175.485ZM197.412 4.05012C197.412 4.53012 197.742 4.86012 198.222 4.86012H199.032V0.00012064H197.412V4.05012ZM214.362 4.86012C214.842 4.86012 215.172 4.53012 215.172 4.05012V0.00012064H213.552V4.86012H214.362ZM200.622 5.67012C200.622 5.19012 200.292 4.86012 199.812 4.86012H199.032V7.26012C199.032 7.74012 199.362 8.07012 199.842 8.07012H200.622V5.67012ZM212.742 4.86012C212.262 4.86012 211.932 5.19012 211.932 5.67012V8.07012H212.742C213.222 8.07012 213.552 7.74012 213.552 7.26012V4.86012H212.742ZM202.242 8.88012C202.242 8.40012 201.912 8.07012 201.432 8.07012H200.622V12.1201C200.622 12.6001 200.952 12.9301 201.432 12.9301H202.242V8.88012ZM210.312 12.9301H211.122C211.602 12.9301 211.932 12.6001 211.932 12.1201V8.07012H211.122C210.642 8.07012 210.312 8.40012 210.312 8.88012V12.9301ZM203.862 13.7401C203.862 13.2601 203.532 12.9301 203.052 12.9301H202.242V15.3301C202.242 15.8101 202.572 16.1401 203.052 16.1401H203.862V13.7401ZM209.502 16.1401C209.982 16.1401 210.312 15.8101 210.312 15.3301V12.9301H208.722V16.1401H209.502ZM205.482 16.9501C205.482 16.4701 205.152 16.1401 204.672 16.1401H203.862V18.5701C203.862 19.0501 204.192 19.3801 204.672 19.3801H205.482V16.9501ZM207.912 19.3801C208.392 19.3801 208.722 19.0501 208.722 18.5701V16.1401H207.912C207.432 16.1401 207.102 16.4701 207.102 16.9501V19.3801H207.912ZM205.482 21.0001H207.102V19.3801H205.482V21.0001ZM216.806 21.0001H218.426V0.00012064H216.806V21.0001ZM222.488 0.00012064C222.008 0.00012064 221.678 0.330122 221.678 0.810121V1.62012H234.608V0.00012064H222.488ZM220.868 1.62012C220.388 1.62012 220.058 1.95012 220.058 2.43012V8.88012C220.058 9.36012 220.388 9.69012 220.868 9.69012H221.678V1.62012H220.868ZM232.988 9.69012H221.678V11.3101H232.988V9.69012ZM220.868 11.3101C220.388 11.3101 220.058 11.6401 220.058 12.1201V18.5701C220.058 19.0501 220.388 19.3801 220.868 19.3801H221.678V11.3101H220.868ZM221.678 20.1901C221.678 20.6701 222.008 21.0001 222.488 21.0001H234.608V19.3801H221.678V20.1901ZM236.23 2.43012C236.23 2.91012 236.56 3.24012 237.04 3.24012H237.85V0.00012064H236.23V2.43012ZM262.87 3.24012C263.35 3.24012 263.68 2.91012 263.68 2.43012V0.00012064H262.09V3.24012H262.87ZM249.16 3.24012H250.78V0.00012064H249.16V3.24012ZM261.28 3.24012C260.8 3.24012 260.47 3.57012 260.47 4.05012V6.45012H261.28C261.76 6.45012 262.09 6.12012 262.09 5.64012V3.24012H261.28ZM252.37 4.05012C252.37 3.57012 252.04 3.24012 251.56 3.24012H250.78V5.64012C250.78 6.12012 251.11 6.45012 251.59 6.45012H252.37V4.05012ZM239.47 4.05012C239.47 3.57012 239.14 3.24012 238.66 3.24012H237.85V5.64012C237.85 6.12012 238.18 6.45012 238.66 6.45012H239.47V4.05012ZM248.35 3.24012C247.87 3.24012 247.54 3.57012 247.54 4.05012V6.45012H248.35C248.83 6.45012 249.16 6.12012 249.16 5.64012V3.24012H248.35ZM241.09 7.26012C241.09 6.78012 240.76 6.45012 240.28 6.45012H239.47V10.5001C239.47 10.9801 239.8 11.3101 240.28 11.3101H241.09V7.26012ZM246.73 6.45012C246.25 6.45012 245.92 6.78012 245.92 7.26012V11.3101H246.73C247.21 11.3101 247.54 10.9801 247.54 10.5001V6.45012H246.73ZM259.66 6.45012C259.18 6.45012 258.85 6.78012 258.85 7.26012V11.3101H259.66C260.14 11.3101 260.47 10.9801 260.47 10.5001V6.45012H259.66ZM253.99 7.26012C253.99 6.78012 253.66 6.45012 253.18 6.45012H252.37V10.5001C252.37 10.9801 252.7 11.3101 253.18 11.3101H253.99V7.26012ZM242.68 12.1201C242.68 11.6401 242.35 11.3101 241.87 11.3101H241.09V15.3301C241.09 15.8101 241.42 16.1401 241.9 16.1401H242.68V12.1201ZM255.61 12.1201C255.61 11.6401 255.28 11.3101 254.8 11.3101H253.99V15.3301C253.99 15.8101 254.32 16.1401 254.8 16.1401H255.61V12.1201ZM257.23 16.1401H258.04C258.52 16.1401 258.85 15.8101 258.85 15.3301V11.3101H258.04C257.56 11.3101 257.23 11.6401 257.23 12.1201V16.1401ZM244.3 16.1401H245.11C245.59 16.1401 245.92 15.8101 245.92 15.3301V11.3101H245.11C244.63 11.3101 244.3 11.6401 244.3 12.1201V16.1401ZM242.68 21.0001H244.3V16.1401H242.68V21.0001ZM255.61 21.0001H257.23V16.1401H255.61V21.0001ZM274.287 4.05012C274.287 4.53012 274.617 4.86012 275.097 4.86012H275.907V0.00012064H274.287V4.05012ZM291.237 4.86012C291.717 4.86012 292.047 4.53012 292.047 4.05012V0.00012064H290.427V4.86012H291.237ZM277.497 5.67012C277.497 5.19012 277.167 4.86012 276.687 4.86012H275.907V7.26012C275.907 7.74012 276.237 8.07012 276.717 8.07012H277.497V5.67012ZM289.617 4.86012C289.137 4.86012 288.807 5.19012 288.807 5.67012V8.07012H289.617C290.097 8.07012 290.427 7.74012 290.427 7.26012V4.86012H289.617ZM279.117 8.88012C279.117 8.40012 278.787 8.07012 278.307 8.07012H277.497V12.1201C277.497 12.6001 277.827 12.9301 278.307 12.9301H279.117V8.88012ZM287.187 12.9301H287.997C288.477 12.9301 288.807 12.6001 288.807 12.1201V8.07012H287.997C287.517 8.07012 287.187 8.40012 287.187 8.88012V12.9301ZM280.737 13.7401C280.737 13.2601 280.407 12.9301 279.927 12.9301H279.117V15.3301C279.117 15.8101 279.447 16.1401 279.927 16.1401H280.737V13.7401ZM286.377 16.1401C286.857 16.1401 287.187 15.8101 287.187 15.3301V12.9301H285.597V16.1401H286.377ZM282.357 16.9501C282.357 16.4701 282.027 16.1401 281.547 16.1401H280.737V18.5701C280.737 19.0501 281.067 19.3801 281.547 19.3801H282.357V16.9501ZM284.787 19.3801C285.267 19.3801 285.597 19.0501 285.597 18.5701V16.1401H284.787C284.307 16.1401 283.977 16.4701 283.977 16.9501V19.3801H284.787ZM282.357 21.0001H283.977V19.3801H282.357V21.0001ZM296.917 1.62012H298.537V0.810121C298.537 0.330122 298.237 0.00012064 297.727 0.00012064C297.247 0.00012064 296.917 0.330122 296.917 0.810121V1.62012ZM295.297 4.86012H296.107C296.587 4.86012 296.917 4.53012 296.917 4.05012V1.62012H296.107C295.627 1.62012 295.297 1.95012 295.297 2.43012V4.86012ZM298.537 1.62012V4.05012C298.537 4.53012 298.867 4.86012 299.347 4.86012H300.127V2.43012C300.127 1.95012 299.797 1.62012 299.317 1.62012H298.537ZM293.677 9.69012H294.487C294.967 9.69012 295.297 9.36012 295.297 8.88012V4.86012H294.487C294.007 4.86012 293.677 5.19012 293.677 5.67012V9.69012ZM300.127 4.86012V8.88012C300.127 9.36012 300.457 9.69012 300.937 9.69012H301.747V5.67012C301.747 5.19012 301.417 4.86012 300.937 4.86012H300.127ZM292.057 12.9301H293.677V9.69012H292.867C292.387 9.69012 292.057 10.0201 292.057 10.5001V12.9301ZM301.747 9.69012V12.9301H303.367V10.5001C303.367 10.0201 303.037 9.69012 302.557 9.69012H301.747ZM290.437 17.7601H291.247C291.727 17.7601 292.057 17.4301 292.057 16.9501V12.9301H291.247C290.767 12.9301 290.437 13.2601 290.437 13.7401V17.7601ZM301.747 12.9301H293.677V13.7401C293.677 14.2201 294.007 14.5501 294.487 14.5501H300.937C301.417 14.5501 301.747 14.2201 301.747 13.7401V12.9301ZM303.367 12.9301V16.9501C303.367 17.4301 303.697 17.7601 304.177 17.7601H304.987V13.7401C304.987 13.2601 304.657 12.9301 304.177 12.9301H303.367ZM288.847 21.0001H290.437V17.7601H289.657C289.177 17.7601 288.847 18.0901 288.847 18.5701V21.0001ZM304.987 17.7601V21.0001H306.607V18.5701C306.607 18.0901 306.277 17.7601 305.797 17.7601H304.987ZM309.87 1.62012H319.56V0.810121C319.56 0.330122 319.23 0.00012064 318.75 0.00012064H310.68C310.2 0.00012064 309.87 0.330122 309.87 0.810121V1.62012ZM308.25 4.86012H309.06C309.54 4.86012 309.87 4.53012 309.87 4.05012V1.62012H309.06C308.58 1.62012 308.25 1.95012 308.25 2.43012V4.86012ZM319.56 1.62012V4.05012C319.56 4.53012 319.89 4.86012 320.37 4.86012H321.18V2.43012C321.18 1.95012 320.85 1.62012 320.37 1.62012H319.56ZM308.25 16.1401V4.86012H307.47C306.99 4.86012 306.66 5.19012 306.66 5.67012V15.3301C306.66 15.8101 306.99 16.1401 307.47 16.1401H308.25ZM321.18 4.86012V8.07012H322.8V5.67012C322.8 5.19012 322.47 4.86012 321.99 4.86012H321.18ZM321.18 16.1401H321.99C322.47 16.1401 322.8 15.8101 322.8 15.3301V12.9301H321.18V16.1401ZM308.25 16.1401V18.5701C308.25 19.0501 308.58 19.3801 309.06 19.3801H309.87V16.9501C309.87 16.4701 309.54 16.1401 309.06 16.1401H308.25ZM319.56 19.3801H320.37C320.85 19.3801 321.18 19.0501 321.18 18.5701V16.1401H320.37C319.89 16.1401 319.56 16.4701 319.56 16.9501V19.3801ZM309.87 19.3801V20.1901C309.87 20.6701 310.2 21.0001 310.68 21.0001H318.75C319.23 21.0001 319.56 20.6701 319.56 20.1901V19.3801H309.87ZM330.901 1.62012H332.521V0.810121C332.521 0.330122 332.221 0.00012064 331.711 0.00012064C331.231 0.00012064 330.901 0.330122 330.901 0.810121V1.62012ZM329.281 4.86012H330.091C330.571 4.86012 330.901 4.53012 330.901 4.05012V1.62012H330.091C329.611 1.62012 329.281 1.95012 329.281 2.43012V4.86012ZM332.521 1.62012V4.05012C332.521 4.53012 332.851 4.86012 333.331 4.86012H334.111V2.43012C334.111 1.95012 333.781 1.62012 333.301 1.62012H332.521ZM327.661 9.69012H328.471C328.951 9.69012 329.281 9.36012 329.281 8.88012V4.86012H328.471C327.991 4.86012 327.661 5.19012 327.661 5.67012V9.69012ZM334.111 4.86012V8.88012C334.111 9.36012 334.441 9.69012 334.921 9.69012H335.731V5.67012C335.731 5.19012 335.401 4.86012 334.921 4.86012H334.111ZM326.041 12.9301H327.661V9.69012H326.851C326.371 9.69012 326.041 10.0201 326.041 10.5001V12.9301ZM335.731 9.69012V12.9301H337.351V10.5001C337.351 10.0201 337.021 9.69012 336.541 9.69012H335.731ZM324.421 17.7601H325.231C325.711 17.7601 326.041 17.4301 326.041 16.9501V12.9301H325.231C324.751 12.9301 324.421 13.2601 324.421 13.7401V17.7601ZM335.731 12.9301H327.661V13.7401C327.661 14.2201 327.991 14.5501 328.471 14.5501H334.921C335.401 14.5501 335.731 14.2201 335.731 13.7401V12.9301ZM337.351 12.9301V16.9501C337.351 17.4301 337.681 17.7601 338.161 17.7601H338.971V13.7401C338.971 13.2601 338.641 12.9301 338.161 12.9301H337.351ZM322.831 21.0001H324.421V17.7601H323.641C323.161 17.7601 322.831 18.0901 322.831 18.5701V21.0001ZM338.971 17.7601V21.0001H340.591V18.5701C340.591 18.0901 340.261 17.7601 339.781 17.7601H338.971ZM342.226 0.810121C342.226 1.29012 342.556 1.62012 343.036 1.62012H343.846V0.00012064H342.226V0.810121ZM355.126 16.1401H355.936C356.416 16.1401 356.746 15.8101 356.746 15.3301V0.00012064H355.126V16.1401ZM345.436 2.43012C345.436 1.95012 345.106 1.62012 344.626 1.62012H343.846V4.86012H345.436V2.43012ZM343.036 4.86012C342.556 4.86012 342.226 5.19012 342.226 5.67012V21.0001H343.846V4.86012H343.036ZM347.056 5.67012C347.056 5.19012 346.726 4.86012 346.246 4.86012H345.436V5.64012C345.436 6.12012 345.766 6.45012 346.246 6.45012H347.056V5.67012ZM348.676 7.26012C348.676 6.78012 348.346 6.45012 347.866 6.45012H347.056V8.88012C347.056 9.36012 347.386 9.69012 347.866 9.69012H348.676V7.26012ZM350.296 10.5001C350.296 10.0201 349.966 9.69012 349.486 9.69012H348.676V10.5001C348.676 10.9801 349.006 11.3101 349.486 11.3101H350.296V10.5001ZM351.916 12.1201C351.916 11.6401 351.586 11.3101 351.106 11.3101H350.296V12.1201C350.296 12.6001 350.626 12.9301 351.106 12.9301H351.916V12.1201ZM353.536 13.7401C353.536 13.2601 353.206 12.9301 352.726 12.9301H351.916V15.3301C351.916 15.8101 352.246 16.1401 352.726 16.1401H353.536V13.7401ZM353.536 18.5701C353.536 19.0501 353.866 19.3801 354.346 19.3801H355.126V16.1401H353.536V18.5701ZM356.746 20.1901C356.746 19.7101 356.416 19.3801 355.936 19.3801H355.126V21.0001H356.746V20.1901ZM361.579 1.62012H371.269V0.810121C371.269 0.330122 370.939 0.00012064 370.459 0.00012064H362.389C361.909 0.00012064 361.579 0.330122 361.579 0.810121V1.62012ZM359.959 4.86012H360.769C361.249 4.86012 361.579 4.53012 361.579 4.05012V1.62012H360.769C360.289 1.62012 359.959 1.95012 359.959 2.43012V4.86012ZM371.269 1.62012V4.05012C371.269 4.53012 371.599 4.86012 372.079 4.86012H372.889V2.43012C372.889 1.95012 372.559 1.62012 372.079 1.62012H371.269ZM359.959 16.1401V4.86012H359.179C358.699 4.86012 358.369 5.19012 358.369 5.67012V15.3301C358.369 15.8101 358.699 16.1401 359.179 16.1401H359.959ZM372.889 4.86012V8.07012H374.509V5.67012C374.509 5.19012 374.179 4.86012 373.699 4.86012H372.889ZM372.889 16.1401H373.699C374.179 16.1401 374.509 15.8101 374.509 15.3301V12.9301H372.889V16.1401ZM359.959 16.1401V18.5701C359.959 19.0501 360.289 19.3801 360.769 19.3801H361.579V16.9501C361.579 16.4701 361.249 16.1401 360.769 16.1401H359.959ZM371.269 19.3801H372.079C372.559 19.3801 372.889 19.0501 372.889 18.5701V16.1401H372.079C371.599 16.1401 371.269 16.4701 371.269 16.9501V19.3801ZM361.579 19.3801V20.1901C361.579 20.6701 361.909 21.0001 362.389 21.0001H370.459C370.939 21.0001 371.269 20.6701 371.269 20.1901V19.3801H361.579ZM376.123 21.0001H377.743V0.00012064H376.123V21.0001ZM381.804 0.00012064C381.324 0.00012064 380.994 0.330122 380.994 0.810121V1.62012H393.924V0.00012064H381.804ZM380.184 1.62012C379.704 1.62012 379.374 1.95012 379.374 2.43012V8.88012C379.374 9.36012 379.704 9.69012 380.184 9.69012H380.994V1.62012H380.184ZM392.304 9.69012H380.994V11.3101H392.304V9.69012ZM380.184 11.3101C379.704 11.3101 379.374 11.6401 379.374 12.1201V18.5701C379.374 19.0501 379.704 19.3801 380.184 19.3801H380.994V11.3101H380.184ZM380.994 20.1901C380.994 20.6701 381.324 21.0001 381.804 21.0001H393.924V19.3801H380.994V20.1901ZM397.086 1.62012H405.186V0.810121C405.186 0.330122 404.856 0.00012064 404.376 0.00012064H397.896C397.416 0.00012064 397.086 0.330122 397.086 0.810121V1.62012ZM397.086 1.62012H396.306C395.826 1.62012 395.496 1.95012 395.496 2.43012V3.24012H396.276C396.756 3.24012 397.086 2.91012 397.086 2.43012V1.62012ZM406.776 3.24012V2.43012C406.776 1.95012 406.446 1.62012 405.966 1.62012H405.186V2.43012C405.186 2.91012 405.516 3.24012 405.996 3.24012H406.776ZM395.496 8.07012V3.24012H394.686C394.206 3.24012 393.876 3.57012 393.876 4.05012V7.26012C393.876 7.74012 394.206 8.07012 394.686 8.07012H395.496ZM406.776 3.24012V4.86012H408.396V4.05012C408.396 3.57012 408.066 3.24012 407.586 3.24012H406.776ZM397.086 9.69012V8.88012C397.086 8.40012 396.756 8.07012 396.276 8.07012H395.496V8.88012C395.496 9.36012 395.826 9.69012 396.306 9.69012H397.086ZM397.086 9.69012V10.5001C397.086 10.9801 397.416 11.3101 397.896 11.3101H405.186V10.5001C405.186 10.0201 404.856 9.69012 404.376 9.69012H397.086ZM406.776 12.9301V12.1201C406.776 11.6401 406.446 11.3101 405.966 11.3101H405.186V12.1201C405.186 12.6001 405.516 12.9301 405.996 12.9301H406.776ZM406.776 17.7601H407.586C408.066 17.7601 408.396 17.4301 408.396 16.9501V13.7401C408.396 13.2601 408.066 12.9301 407.586 12.9301H406.776V17.7601ZM395.496 14.5501H393.876V16.9501C393.876 17.4301 394.206 17.7601 394.686 17.7601H395.496V14.5501ZM395.496 17.7601V18.5701C395.496 19.0501 395.826 19.3801 396.306 19.3801H397.086V18.5701C397.086 18.0901 396.756 17.7601 396.276 17.7601H395.496ZM405.186 19.3801H405.966C406.446 19.3801 406.776 19.0501 406.776 18.5701V17.7601H405.996C405.516 17.7601 405.186 18.0901 405.186 18.5701V19.3801ZM397.086 19.3801V20.1901C397.086 20.6701 397.416 21.0001 397.896 21.0001H404.376C404.856 21.0001 405.186 20.6701 405.186 20.1901V19.3801H397.086ZM428.007 4.05012C428.007 4.53012 428.337 4.86012 428.817 4.86012H429.627V0.00012064H428.007V4.05012ZM444.957 4.86012C445.437 4.86012 445.767 4.53012 445.767 4.05012V0.00012064H444.147V4.86012H444.957ZM431.217 5.67012C431.217 5.19012 430.887 4.86012 430.407 4.86012H429.627V7.26012C429.627 7.74012 429.957 8.07012 430.437 8.07012H431.217V5.67012ZM443.337 4.86012C442.857 4.86012 442.527 5.19012 442.527 5.67012V8.07012H443.337C443.817 8.07012 444.147 7.74012 444.147 7.26012V4.86012H443.337ZM432.837 8.88012C432.837 8.40012 432.507 8.07012 432.027 8.07012H431.217V12.1201C431.217 12.6001 431.547 12.9301 432.027 12.9301H432.837V8.88012ZM440.907 12.9301H441.717C442.197 12.9301 442.527 12.6001 442.527 12.1201V8.07012H441.717C441.237 8.07012 440.907 8.40012 440.907 8.88012V12.9301ZM434.457 13.7401C434.457 13.2601 434.127 12.9301 433.647 12.9301H432.837V15.3301C432.837 15.8101 433.167 16.1401 433.647 16.1401H434.457V13.7401ZM440.097 16.1401C440.577 16.1401 440.907 15.8101 440.907 15.3301V12.9301H439.317V16.1401H440.097ZM436.077 16.9501C436.077 16.4701 435.747 16.1401 435.267 16.1401H434.457V18.5701C434.457 19.0501 434.787 19.3801 435.267 19.3801H436.077V16.9501ZM438.507 19.3801C438.987 19.3801 439.317 19.0501 439.317 18.5701V16.1401H438.507C438.027 16.1401 437.697 16.4701 437.697 16.9501V19.3801H438.507ZM436.077 21.0001H437.697V19.3801H436.077V21.0001ZM447.402 21.0001H449.022V0.00012064H447.402V21.0001ZM453.084 0.00012064C452.604 0.00012064 452.274 0.330122 452.274 0.810121V1.62012H465.204V0.00012064H453.084ZM451.464 1.62012C450.984 1.62012 450.654 1.95012 450.654 2.43012V8.88012C450.654 9.36012 450.984 9.69012 451.464 9.69012H452.274V1.62012H451.464ZM463.584 9.69012H452.274V11.3101H463.584V9.69012ZM451.464 11.3101C450.984 11.3101 450.654 11.6401 450.654 12.1201V18.5701C450.654 19.0501 450.984 19.3801 451.464 19.3801H452.274V11.3101H451.464ZM452.274 20.1901C452.274 20.6701 452.604 21.0001 453.084 21.0001H465.204V19.3801H452.274V20.1901ZM466.826 2.43012C466.826 2.91012 467.156 3.24012 467.636 3.24012H468.446V0.00012064H466.826V2.43012ZM493.466 3.24012C493.946 3.24012 494.276 2.91012 494.276 2.43012V0.00012064H492.686V3.24012H493.466ZM479.756 3.24012H481.376V0.00012064H479.756V3.24012ZM491.876 3.24012C491.396 3.24012 491.066 3.57012 491.066 4.05012V6.45012H491.876C492.356 6.45012 492.686 6.12012 492.686 5.64012V3.24012H491.876ZM482.966 4.05012C482.966 3.57012 482.636 3.24012 482.156 3.24012H481.376V5.64012C481.376 6.12012 481.706 6.45012 482.186 6.45012H482.966V4.05012ZM470.066 4.05012C470.066 3.57012 469.736 3.24012 469.256 3.24012H468.446V5.64012C468.446 6.12012 468.776 6.45012 469.256 6.45012H470.066V4.05012ZM478.946 3.24012C478.466 3.24012 478.136 3.57012 478.136 4.05012V6.45012H478.946C479.426 6.45012 479.756 6.12012 479.756 5.64012V3.24012H478.946ZM471.686 7.26012C471.686 6.78012 471.356 6.45012 470.876 6.45012H470.066V10.5001C470.066 10.9801 470.396 11.3101 470.876 11.3101H471.686V7.26012ZM477.326 6.45012C476.846 6.45012 476.516 6.78012 476.516 7.26012V11.3101H477.326C477.806 11.3101 478.136 10.9801 478.136 10.5001V6.45012H477.326ZM490.256 6.45012C489.776 6.45012 489.446 6.78012 489.446 7.26012V11.3101H490.256C490.736 11.3101 491.066 10.9801 491.066 10.5001V6.45012H490.256ZM484.586 7.26012C484.586 6.78012 484.256 6.45012 483.776 6.45012H482.966V10.5001C482.966 10.9801 483.296 11.3101 483.776 11.3101H484.586V7.26012ZM473.276 12.1201C473.276 11.6401 472.946 11.3101 472.466 11.3101H471.686V15.3301C471.686 15.8101 472.016 16.1401 472.496 16.1401H473.276V12.1201ZM486.206 12.1201C486.206 11.6401 485.876 11.3101 485.396 11.3101H484.586V15.3301C484.586 15.8101 484.916 16.1401 485.396 16.1401H486.206V12.1201ZM487.826 16.1401H488.636C489.116 16.1401 489.446 15.8101 489.446 15.3301V11.3101H488.636C488.156 11.3101 487.826 11.6401 487.826 12.1201V16.1401ZM474.896 16.1401H475.706C476.186 16.1401 476.516 15.8101 476.516 15.3301V11.3101H475.706C475.226 11.3101 474.896 11.6401 474.896 12.1201V16.1401ZM473.276 21.0001H474.896V16.1401H473.276V21.0001ZM486.206 21.0001H487.826V16.1401H486.206V21.0001ZM504.882 4.05012C504.882 4.53012 505.212 4.86012 505.692 4.86012H506.502V0.00012064H504.882V4.05012ZM521.832 4.86012C522.312 4.86012 522.642 4.53012 522.642 4.05012V0.00012064H521.022V4.86012H521.832ZM508.092 5.67012C508.092 5.19012 507.762 4.86012 507.282 4.86012H506.502V7.26012C506.502 7.74012 506.832 8.07012 507.312 8.07012H508.092V5.67012ZM520.212 4.86012C519.732 4.86012 519.402 5.19012 519.402 5.67012V8.07012H520.212C520.692 8.07012 521.022 7.74012 521.022 7.26012V4.86012H520.212ZM509.712 8.88012C509.712 8.40012 509.382 8.07012 508.902 8.07012H508.092V12.1201C508.092 12.6001 508.422 12.9301 508.902 12.9301H509.712V8.88012ZM517.782 12.9301H518.592C519.072 12.9301 519.402 12.6001 519.402 12.1201V8.07012H518.592C518.112 8.07012 517.782 8.40012 517.782 8.88012V12.9301ZM511.332 13.7401C511.332 13.2601 511.002 12.9301 510.522 12.9301H509.712V15.3301C509.712 15.8101 510.042 16.1401 510.522 16.1401H511.332V13.7401ZM516.972 16.1401C517.452 16.1401 517.782 15.8101 517.782 15.3301V12.9301H516.192V16.1401H516.972ZM512.952 16.9501C512.952 16.4701 512.622 16.1401 512.142 16.1401H511.332V18.5701C511.332 19.0501 511.662 19.3801 512.142 19.3801H512.952V16.9501ZM515.382 19.3801C515.862 19.3801 516.192 19.0501 516.192 18.5701V16.1401H515.382C514.902 16.1401 514.572 16.4701 514.572 16.9501V19.3801H515.382ZM512.952 21.0001H514.572V19.3801H512.952V21.0001ZM527.513 1.62012H529.133V0.810121C529.133 0.330122 528.833 0.00012064 528.323 0.00012064C527.843 0.00012064 527.513 0.330122 527.513 0.810121V1.62012ZM525.893 4.86012H526.703C527.183 4.86012 527.513 4.53012 527.513 4.05012V1.62012H526.703C526.223 1.62012 525.893 1.95012 525.893 2.43012V4.86012ZM529.133 1.62012V4.05012C529.133 4.53012 529.463 4.86012 529.943 4.86012H530.723V2.43012C530.723 1.95012 530.393 1.62012 529.913 1.62012H529.133ZM524.273 9.69012H525.083C525.563 9.69012 525.893 9.36012 525.893 8.88012V4.86012H525.083C524.603 4.86012 524.273 5.19012 524.273 5.67012V9.69012ZM530.723 4.86012V8.88012C530.723 9.36012 531.053 9.69012 531.533 9.69012H532.343V5.67012C532.343 5.19012 532.013 4.86012 531.533 4.86012H530.723ZM522.653 12.9301H524.273V9.69012H523.463C522.983 9.69012 522.653 10.0201 522.653 10.5001V12.9301ZM532.343 9.69012V12.9301H533.963V10.5001C533.963 10.0201 533.633 9.69012 533.153 9.69012H532.343ZM521.033 17.7601H521.843C522.323 17.7601 522.653 17.4301 522.653 16.9501V12.9301H521.843C521.363 12.9301 521.033 13.2601 521.033 13.7401V17.7601ZM532.343 12.9301H524.273V13.7401C524.273 14.2201 524.603 14.5501 525.083 14.5501H531.533C532.013 14.5501 532.343 14.2201 532.343 13.7401V12.9301ZM533.963 12.9301V16.9501C533.963 17.4301 534.293 17.7601 534.773 17.7601H535.583V13.7401C535.583 13.2601 535.253 12.9301 534.773 12.9301H533.963ZM519.443 21.0001H521.033V17.7601H520.253C519.773 17.7601 519.443 18.0901 519.443 18.5701V21.0001ZM535.583 17.7601V21.0001H537.203V18.5701C537.203 18.0901 536.873 17.7601 536.393 17.7601H535.583ZM540.465 1.62012H550.155V0.810121C550.155 0.330122 549.825 0.00012064 549.345 0.00012064H541.275C540.795 0.00012064 540.465 0.330122 540.465 0.810121V1.62012ZM538.845 4.86012H539.655C540.135 4.86012 540.465 4.53012 540.465 4.05012V1.62012H539.655C539.175 1.62012 538.845 1.95012 538.845 2.43012V4.86012ZM550.155 1.62012V4.05012C550.155 4.53012 550.485 4.86012 550.965 4.86012H551.775V2.43012C551.775 1.95012 551.445 1.62012 550.965 1.62012H550.155ZM538.845 16.1401V4.86012H538.065C537.585 4.86012 537.255 5.19012 537.255 5.67012V15.3301C537.255 15.8101 537.585 16.1401 538.065 16.1401H538.845ZM551.775 4.86012V8.07012H553.395V5.67012C553.395 5.19012 553.065 4.86012 552.585 4.86012H551.775ZM551.775 16.1401H552.585C553.065 16.1401 553.395 15.8101 553.395 15.3301V12.9301H551.775V16.1401ZM538.845 16.1401V18.5701C538.845 19.0501 539.175 19.3801 539.655 19.3801H540.465V16.9501C540.465 16.4701 540.135 16.1401 539.655 16.1401H538.845ZM550.155 19.3801H550.965C551.445 19.3801 551.775 19.0501 551.775 18.5701V16.1401H550.965C550.485 16.1401 550.155 16.4701 550.155 16.9501V19.3801ZM540.465 19.3801V20.1901C540.465 20.6701 540.795 21.0001 541.275 21.0001H549.345C549.825 21.0001 550.155 20.6701 550.155 20.1901V19.3801H540.465ZM561.497 1.62012H563.117V0.810121C563.117 0.330122 562.817 0.00012064 562.307 0.00012064C561.827 0.00012064 561.497 0.330122 561.497 0.810121V1.62012ZM559.877 4.86012H560.687C561.167 4.86012 561.497 4.53012 561.497 4.05012V1.62012H560.687C560.207 1.62012 559.877 1.95012 559.877 2.43012V4.86012ZM563.117 1.62012V4.05012C563.117 4.53012 563.447 4.86012 563.927 4.86012H564.707V2.43012C564.707 1.95012 564.377 1.62012 563.897 1.62012H563.117ZM558.257 9.69012H559.067C559.547 9.69012 559.877 9.36012 559.877 8.88012V4.86012H559.067C558.587 4.86012 558.257 5.19012 558.257 5.67012V9.69012ZM564.707 4.86012V8.88012C564.707 9.36012 565.037 9.69012 565.517 9.69012H566.327V5.67012C566.327 5.19012 565.997 4.86012 565.517 4.86012H564.707ZM556.637 12.9301H558.257V9.69012H557.447C556.967 9.69012 556.637 10.0201 556.637 10.5001V12.9301ZM566.327 9.69012V12.9301H567.947V10.5001C567.947 10.0201 567.617 9.69012 567.137 9.69012H566.327ZM555.017 17.7601H555.827C556.307 17.7601 556.637 17.4301 556.637 16.9501V12.9301H555.827C555.347 12.9301 555.017 13.2601 555.017 13.7401V17.7601ZM566.327 12.9301H558.257V13.7401C558.257 14.2201 558.587 14.5501 559.067 14.5501H565.517C565.997 14.5501 566.327 14.2201 566.327 13.7401V12.9301ZM567.947 12.9301V16.9501C567.947 17.4301 568.277 17.7601 568.757 17.7601H569.567V13.7401C569.567 13.2601 569.237 12.9301 568.757 12.9301H567.947ZM553.427 21.0001H555.017V17.7601H554.237C553.757 17.7601 553.427 18.0901 553.427 18.5701V21.0001ZM569.567 17.7601V21.0001H571.187V18.5701C571.187 18.0901 570.857 17.7601 570.377 17.7601H569.567ZM572.822 0.810121C572.822 1.29012 573.152 1.62012 573.632 1.62012H574.442V0.00012064H572.822V0.810121ZM585.722 16.1401H586.532C587.012 16.1401 587.342 15.8101 587.342 15.3301V0.00012064H585.722V16.1401ZM576.032 2.43012C576.032 1.95012 575.702 1.62012 575.222 1.62012H574.442V4.86012H576.032V2.43012ZM573.632 4.86012C573.152 4.86012 572.822 5.19012 572.822 5.67012V21.0001H574.442V4.86012H573.632ZM577.652 5.67012C577.652 5.19012 577.322 4.86012 576.842 4.86012H576.032V5.64012C576.032 6.12012 576.362 6.45012 576.842 6.45012H577.652V5.67012ZM579.272 7.26012C579.272 6.78012 578.942 6.45012 578.462 6.45012H577.652V8.88012C577.652 9.36012 577.982 9.69012 578.462 9.69012H579.272V7.26012ZM580.892 10.5001C580.892 10.0201 580.562 9.69012 580.082 9.69012H579.272V10.5001C579.272 10.9801 579.602 11.3101 580.082 11.3101H580.892V10.5001ZM582.512 12.1201C582.512 11.6401 582.182 11.3101 581.702 11.3101H580.892V12.1201C580.892 12.6001 581.222 12.9301 581.702 12.9301H582.512V12.1201ZM584.132 13.7401C584.132 13.2601 583.802 12.9301 583.322 12.9301H582.512V15.3301C582.512 15.8101 582.842 16.1401 583.322 16.1401H584.132V13.7401ZM584.132 18.5701C584.132 19.0501 584.462 19.3801 584.942 19.3801H585.722V16.1401H584.132V18.5701ZM587.342 20.1901C587.342 19.7101 587.012 19.3801 586.532 19.3801H585.722V21.0001H587.342V20.1901ZM592.174 1.62012H601.864V0.810121C601.864 0.330122 601.534 0.00012064 601.054 0.00012064H592.984C592.504 0.00012064 592.174 0.330122 592.174 0.810121V1.62012ZM590.554 4.86012H591.364C591.844 4.86012 592.174 4.53012 592.174 4.05012V1.62012H591.364C590.884 1.62012 590.554 1.95012 590.554 2.43012V4.86012ZM601.864 1.62012V4.05012C601.864 4.53012 602.194 4.86012 602.674 4.86012H603.484V2.43012C603.484 1.95012 603.154 1.62012 602.674 1.62012H601.864ZM590.554 16.1401V4.86012H589.774C589.294 4.86012 588.964 5.19012 588.964 5.67012V15.3301C588.964 15.8101 589.294 16.1401 589.774 16.1401H590.554ZM603.484 4.86012V8.07012H605.104V5.67012C605.104 5.19012 604.774 4.86012 604.294 4.86012H603.484ZM603.484 16.1401H604.294C604.774 16.1401 605.104 15.8101 605.104 15.3301V12.9301H603.484V16.1401ZM590.554 16.1401V18.5701C590.554 19.0501 590.884 19.3801 591.364 19.3801H592.174V16.9501C592.174 16.4701 591.844 16.1401 591.364 16.1401H590.554ZM601.864 19.3801H602.674C603.154 19.3801 603.484 19.0501 603.484 18.5701V16.1401H602.674C602.194 16.1401 601.864 16.4701 601.864 16.9501V19.3801ZM592.174 19.3801V20.1901C592.174 20.6701 592.504 21.0001 592.984 21.0001H601.054C601.534 21.0001 601.864 20.6701 601.864 20.1901V19.3801H592.174ZM606.718 21.0001H608.338V0.00012064H606.718V21.0001ZM612.4 0.00012064C611.92 0.00012064 611.59 0.330122 611.59 0.810121V1.62012H624.52V0.00012064H612.4ZM610.78 1.62012C610.3 1.62012 609.97 1.95012 609.97 2.43012V8.88012C609.97 9.36012 610.3 9.69012 610.78 9.69012H611.59V1.62012H610.78ZM622.9 9.69012H611.59V11.3101H622.9V9.69012ZM610.78 11.3101C610.3 11.3101 609.97 11.6401 609.97 12.1201V18.5701C609.97 19.0501 610.3 19.3801 610.78 19.3801H611.59V11.3101H610.78ZM611.59 20.1901C611.59 20.6701 611.92 21.0001 612.4 21.0001H624.52V19.3801H611.59V20.1901ZM627.682 1.62012H635.782V0.810121C635.782 0.330122 635.452 0.00012064 634.972 0.00012064H628.492C628.012 0.00012064 627.682 0.330122 627.682 0.810121V1.62012ZM627.682 1.62012H626.902C626.422 1.62012 626.092 1.95012 626.092 2.43012V3.24012H626.872C627.352 3.24012 627.682 2.91012 627.682 2.43012V1.62012ZM637.372 3.24012V2.43012C637.372 1.95012 637.042 1.62012 636.562 1.62012H635.782V2.43012C635.782 2.91012 636.112 3.24012 636.592 3.24012H637.372ZM626.092 8.07012V3.24012H625.282C624.802 3.24012 624.472 3.57012 624.472 4.05012V7.26012C624.472 7.74012 624.802 8.07012 625.282 8.07012H626.092ZM637.372 3.24012V4.86012H638.992V4.05012C638.992 3.57012 638.662 3.24012 638.182 3.24012H637.372ZM627.682 9.69012V8.88012C627.682 8.40012 627.352 8.07012 626.872 8.07012H626.092V8.88012C626.092 9.36012 626.422 9.69012 626.902 9.69012H627.682ZM627.682 9.69012V10.5001C627.682 10.9801 628.012 11.3101 628.492 11.3101H635.782V10.5001C635.782 10.0201 635.452 9.69012 634.972 9.69012H627.682ZM637.372 12.9301V12.1201C637.372 11.6401 637.042 11.3101 636.562 11.3101H635.782V12.1201C635.782 12.6001 636.112 12.9301 636.592 12.9301H637.372ZM637.372 17.7601H638.182C638.662 17.7601 638.992 17.4301 638.992 16.9501V13.7401C638.992 13.2601 638.662 12.9301 638.182 12.9301H637.372V17.7601ZM626.092 14.5501H624.472V16.9501C624.472 17.4301 624.802 17.7601 625.282 17.7601H626.092V14.5501ZM626.092 17.7601V18.5701C626.092 19.0501 626.422 19.3801 626.902 19.3801H627.682V18.5701C627.682 18.0901 627.352 17.7601 626.872 17.7601H626.092ZM635.782 19.3801H636.562C637.042 19.3801 637.372 19.0501 637.372 18.5701V17.7601H636.592C636.112 17.7601 635.782 18.0901 635.782 18.5701V19.3801ZM627.682 19.3801V20.1901C627.682 20.6701 628.012 21.0001 628.492 21.0001H634.972C635.452 21.0001 635.782 20.6701 635.782 20.1901V19.3801H627.682ZM667.597 4.05012C667.597 4.53012 667.927 4.86012 668.407 4.86012H669.217V0.00012064H667.597V4.05012ZM684.547 4.86012C685.027 4.86012 685.357 4.53012 685.357 4.05012V0.00012064H683.737V4.86012H684.547ZM670.807 5.67012C670.807 5.19012 670.477 4.86012 669.997 4.86012H669.217V7.26012C669.217 7.74012 669.547 8.07012 670.027 8.07012H670.807V5.67012ZM682.927 4.86012C682.447 4.86012 682.117 5.19012 682.117 5.67012V8.07012H682.927C683.407 8.07012 683.737 7.74012 683.737 7.26012V4.86012H682.927ZM672.427 8.88012C672.427 8.40012 672.097 8.07012 671.617 8.07012H670.807V12.1201C670.807 12.6001 671.137 12.9301 671.617 12.9301H672.427V8.88012ZM680.497 12.9301H681.307C681.787 12.9301 682.117 12.6001 682.117 12.1201V8.07012H681.307C680.827 8.07012 680.497 8.40012 680.497 8.88012V12.9301ZM674.047 13.7401C674.047 13.2601 673.717 12.9301 673.237 12.9301H672.427V15.3301C672.427 15.8101 672.757 16.1401 673.237 16.1401H674.047V13.7401ZM679.687 16.1401C680.167 16.1401 680.497 15.8101 680.497 15.3301V12.9301H678.907V16.1401H679.687ZM675.667 16.9501C675.667 16.4701 675.337 16.1401 674.857 16.1401H674.047V18.5701C674.047 19.0501 674.377 19.3801 674.857 19.3801H675.667V16.9501ZM678.097 19.3801C678.577 19.3801 678.907 19.0501 678.907 18.5701V16.1401H678.097C677.617 16.1401 677.287 16.4701 677.287 16.9501V19.3801H678.097ZM675.667 21.0001H677.287V19.3801H675.667V21.0001ZM686.992 21.0001H688.612V0.00012064H686.992V21.0001ZM692.674 0.00012064C692.194 0.00012064 691.864 0.330122 691.864 0.810121V1.62012H704.794V0.00012064H692.674ZM691.054 1.62012C690.574 1.62012 690.244 1.95012 690.244 2.43012V8.88012C690.244 9.36012 690.574 9.69012 691.054 9.69012H691.864V1.62012H691.054ZM703.174 9.69012H691.864V11.3101H703.174V9.69012ZM691.054 11.3101C690.574 11.3101 690.244 11.6401 690.244 12.1201V18.5701C690.244 19.0501 690.574 19.3801 691.054 19.3801H691.864V11.3101H691.054ZM691.864 20.1901C691.864 20.6701 692.194 21.0001 692.674 21.0001H704.794V19.3801H691.864V20.1901ZM706.415 2.43012C706.415 2.91012 706.745 3.24012 707.225 3.24012H708.035V0.00012064H706.415V2.43012ZM733.055 3.24012C733.535 3.24012 733.865 2.91012 733.865 2.43012V0.00012064H732.275V3.24012H733.055ZM719.345 3.24012H720.965V0.00012064H719.345V3.24012ZM731.465 3.24012C730.985 3.24012 730.655 3.57012 730.655 4.05012V6.45012H731.465C731.945 6.45012 732.275 6.12012 732.275 5.64012V3.24012H731.465ZM722.555 4.05012C722.555 3.57012 722.225 3.24012 721.745 3.24012H720.965V5.64012C720.965 6.12012 721.295 6.45012 721.775 6.45012H722.555V4.05012ZM709.655 4.05012C709.655 3.57012 709.325 3.24012 708.845 3.24012H708.035V5.64012C708.035 6.12012 708.365 6.45012 708.845 6.45012H709.655V4.05012ZM718.535 3.24012C718.055 3.24012 717.725 3.57012 717.725 4.05012V6.45012H718.535C719.015 6.45012 719.345 6.12012 719.345 5.64012V3.24012H718.535ZM711.275 7.26012C711.275 6.78012 710.945 6.45012 710.465 6.45012H709.655V10.5001C709.655 10.9801 709.985 11.3101 710.465 11.3101H711.275V7.26012ZM716.915 6.45012C716.435 6.45012 716.105 6.78012 716.105 7.26012V11.3101H716.915C717.395 11.3101 717.725 10.9801 717.725 10.5001V6.45012H716.915ZM729.845 6.45012C729.365 6.45012 729.035 6.78012 729.035 7.26012V11.3101H729.845C730.325 11.3101 730.655 10.9801 730.655 10.5001V6.45012H729.845ZM724.175 7.26012C724.175 6.78012 723.845 6.45012 723.365 6.45012H722.555V10.5001C722.555 10.9801 722.885 11.3101 723.365 11.3101H724.175V7.26012ZM712.865 12.1201C712.865 11.6401 712.535 11.3101 712.055 11.3101H711.275V15.3301C711.275 15.8101 711.605 16.1401 712.085 16.1401H712.865V12.1201ZM725.795 12.1201C725.795 11.6401 725.465 11.3101 724.985 11.3101H724.175V15.3301C724.175 15.8101 724.505 16.1401 724.985 16.1401H725.795V12.1201ZM727.415 16.1401H728.225C728.705 16.1401 729.035 15.8101 729.035 15.3301V11.3101H728.225C727.745 11.3101 727.415 11.6401 727.415 12.1201V16.1401ZM714.485 16.1401H715.295C715.775 16.1401 716.105 15.8101 716.105 15.3301V11.3101H715.295C714.815 11.3101 714.485 11.6401 714.485 12.1201V16.1401ZM712.865 21.0001H714.485V16.1401H712.865V21.0001ZM725.795 21.0001H727.415V16.1401H725.795V21.0001ZM744.472 4.05012C744.472 4.53012 744.802 4.86012 745.282 4.86012H746.092V0.00012064H744.472V4.05012ZM761.422 4.86012C761.902 4.86012 762.232 4.53012 762.232 4.05012V0.00012064H760.612V4.86012H761.422ZM747.682 5.67012C747.682 5.19012 747.352 4.86012 746.872 4.86012H746.092V7.26012C746.092 7.74012 746.422 8.07012 746.902 8.07012H747.682V5.67012ZM759.802 4.86012C759.322 4.86012 758.992 5.19012 758.992 5.67012V8.07012H759.802C760.282 8.07012 760.612 7.74012 760.612 7.26012V4.86012H759.802ZM749.302 8.88012C749.302 8.40012 748.972 8.07012 748.492 8.07012H747.682V12.1201C747.682 12.6001 748.012 12.9301 748.492 12.9301H749.302V8.88012ZM757.372 12.9301H758.182C758.662 12.9301 758.992 12.6001 758.992 12.1201V8.07012H758.182C757.702 8.07012 757.372 8.40012 757.372 8.88012V12.9301ZM750.922 13.7401C750.922 13.2601 750.592 12.9301 750.112 12.9301H749.302V15.3301C749.302 15.8101 749.632 16.1401 750.112 16.1401H750.922V13.7401ZM756.562 16.1401C757.042 16.1401 757.372 15.8101 757.372 15.3301V12.9301H755.782V16.1401H756.562ZM752.542 16.9501C752.542 16.4701 752.212 16.1401 751.732 16.1401H750.922V18.5701C750.922 19.0501 751.252 19.3801 751.732 19.3801H752.542V16.9501ZM754.972 19.3801C755.452 19.3801 755.782 19.0501 755.782 18.5701V16.1401H754.972C754.492 16.1401 754.162 16.4701 754.162 16.9501V19.3801H754.972ZM752.542 21.0001H754.162V19.3801H752.542V21.0001ZM767.103 1.62012H768.723V0.810121C768.723 0.330122 768.423 0.00012064 767.913 0.00012064C767.433 0.00012064 767.103 0.330122 767.103 0.810121V1.62012ZM765.483 4.86012H766.293C766.773 4.86012 767.103 4.53012 767.103 4.05012V1.62012H766.293C765.813 1.62012 765.483 1.95012 765.483 2.43012V4.86012ZM768.723 1.62012V4.05012C768.723 4.53012 769.053 4.86012 769.533 4.86012H770.313V2.43012C770.313 1.95012 769.983 1.62012 769.503 1.62012H768.723ZM763.863 9.69012H764.673C765.153 9.69012 765.483 9.36012 765.483 8.88012V4.86012H764.673C764.193 4.86012 763.863 5.19012 763.863 5.67012V9.69012ZM770.313 4.86012V8.88012C770.313 9.36012 770.643 9.69012 771.123 9.69012H771.933V5.67012C771.933 5.19012 771.603 4.86012 771.123 4.86012H770.313ZM762.243 12.9301H763.863V9.69012H763.053C762.573 9.69012 762.243 10.0201 762.243 10.5001V12.9301ZM771.933 9.69012V12.9301H773.553V10.5001C773.553 10.0201 773.223 9.69012 772.743 9.69012H771.933ZM760.623 17.7601H761.433C761.913 17.7601 762.243 17.4301 762.243 16.9501V12.9301H761.433C760.953 12.9301 760.623 13.2601 760.623 13.7401V17.7601ZM771.933 12.9301H763.863V13.7401C763.863 14.2201 764.193 14.5501 764.673 14.5501H771.123C771.603 14.5501 771.933 14.2201 771.933 13.7401V12.9301ZM773.553 12.9301V16.9501C773.553 17.4301 773.883 17.7601 774.363 17.7601H775.173V13.7401C775.173 13.2601 774.843 12.9301 774.363 12.9301H773.553ZM759.033 21.0001H760.623V17.7601H759.843C759.363 17.7601 759.033 18.0901 759.033 18.5701V21.0001ZM775.173 17.7601V21.0001H776.793V18.5701C776.793 18.0901 776.463 17.7601 775.983 17.7601H775.173ZM780.055 1.62012H789.745V0.810121C789.745 0.330122 789.415 0.00012064 788.935 0.00012064H780.865C780.385 0.00012064 780.055 0.330122 780.055 0.810121V1.62012ZM778.435 4.86012H779.245C779.725 4.86012 780.055 4.53012 780.055 4.05012V1.62012H779.245C778.765 1.62012 778.435 1.95012 778.435 2.43012V4.86012ZM789.745 1.62012V4.05012C789.745 4.53012 790.075 4.86012 790.555 4.86012H791.365V2.43012C791.365 1.95012 791.035 1.62012 790.555 1.62012H789.745ZM778.435 16.1401V4.86012H777.655C777.175 4.86012 776.845 5.19012 776.845 5.67012V15.3301C776.845 15.8101 777.175 16.1401 777.655 16.1401H778.435ZM791.365 4.86012V8.07012H792.985V5.67012C792.985 5.19012 792.655 4.86012 792.175 4.86012H791.365ZM791.365 16.1401H792.175C792.655 16.1401 792.985 15.8101 792.985 15.3301V12.9301H791.365V16.1401ZM778.435 16.1401V18.5701C778.435 19.0501 778.765 19.3801 779.245 19.3801H780.055V16.9501C780.055 16.4701 779.725 16.1401 779.245 16.1401H778.435ZM789.745 19.3801H790.555C791.035 19.3801 791.365 19.0501 791.365 18.5701V16.1401H790.555C790.075 16.1401 789.745 16.4701 789.745 16.9501V19.3801ZM780.055 19.3801V20.1901C780.055 20.6701 780.385 21.0001 780.865 21.0001H788.935C789.415 21.0001 789.745 20.6701 789.745 20.1901V19.3801H780.055ZM801.087 1.62012H802.707V0.810121C802.707 0.330122 802.407 0.00012064 801.897 0.00012064C801.417 0.00012064 801.087 0.330122 801.087 0.810121V1.62012ZM799.467 4.86012H800.277C800.757 4.86012 801.087 4.53012 801.087 4.05012V1.62012H800.277C799.797 1.62012 799.467 1.95012 799.467 2.43012V4.86012ZM802.707 1.62012V4.05012C802.707 4.53012 803.037 4.86012 803.517 4.86012H804.297V2.43012C804.297 1.95012 803.967 1.62012 803.487 1.62012H802.707ZM797.847 9.69012H798.657C799.137 9.69012 799.467 9.36012 799.467 8.88012V4.86012H798.657C798.177 4.86012 797.847 5.19012 797.847 5.67012V9.69012ZM804.297 4.86012V8.88012C804.297 9.36012 804.627 9.69012 805.107 9.69012H805.917V5.67012C805.917 5.19012 805.587 4.86012 805.107 4.86012H804.297ZM796.227 12.9301H797.847V9.69012H797.037C796.557 9.69012 796.227 10.0201 796.227 10.5001V12.9301ZM805.917 9.69012V12.9301H807.537V10.5001C807.537 10.0201 807.207 9.69012 806.727 9.69012H805.917ZM794.607 17.7601H795.417C795.897 17.7601 796.227 17.4301 796.227 16.9501V12.9301H795.417C794.937 12.9301 794.607 13.2601 794.607 13.7401V17.7601ZM805.917 12.9301H797.847V13.7401C797.847 14.2201 798.177 14.5501 798.657 14.5501H805.107C805.587 14.5501 805.917 14.2201 805.917 13.7401V12.9301ZM807.537 12.9301V16.9501C807.537 17.4301 807.867 17.7601 808.347 17.7601H809.157V13.7401C809.157 13.2601 808.827 12.9301 808.347 12.9301H807.537ZM793.017 21.0001H794.607V17.7601H793.827C793.347 17.7601 793.017 18.0901 793.017 18.5701V21.0001ZM809.157 17.7601V21.0001H810.777V18.5701C810.777 18.0901 810.447 17.7601 809.967 17.7601H809.157ZM812.412 0.810121C812.412 1.29012 812.742 1.62012 813.222 1.62012H814.032V0.00012064H812.412V0.810121ZM825.312 16.1401H826.122C826.602 16.1401 826.932 15.8101 826.932 15.3301V0.00012064H825.312V16.1401ZM815.622 2.43012C815.622 1.95012 815.292 1.62012 814.812 1.62012H814.032V4.86012H815.622V2.43012ZM813.222 4.86012C812.742 4.86012 812.412 5.19012 812.412 5.67012V21.0001H814.032V4.86012H813.222ZM817.242 5.67012C817.242 5.19012 816.912 4.86012 816.432 4.86012H815.622V5.64012C815.622 6.12012 815.952 6.45012 816.432 6.45012H817.242V5.67012ZM818.862 7.26012C818.862 6.78012 818.532 6.45012 818.052 6.45012H817.242V8.88012C817.242 9.36012 817.572 9.69012 818.052 9.69012H818.862V7.26012ZM820.482 10.5001C820.482 10.0201 820.152 9.69012 819.672 9.69012H818.862V10.5001C818.862 10.9801 819.192 11.3101 819.672 11.3101H820.482V10.5001ZM822.102 12.1201C822.102 11.6401 821.772 11.3101 821.292 11.3101H820.482V12.1201C820.482 12.6001 820.812 12.9301 821.292 12.9301H822.102V12.1201ZM823.722 13.7401C823.722 13.2601 823.392 12.9301 822.912 12.9301H822.102V15.3301C822.102 15.8101 822.432 16.1401 822.912 16.1401H823.722V13.7401ZM823.722 18.5701C823.722 19.0501 824.052 19.3801 824.532 19.3801H825.312V16.1401H823.722V18.5701ZM826.932 20.1901C826.932 19.7101 826.602 19.3801 826.122 19.3801H825.312V21.0001H826.932V20.1901ZM831.764 1.62012H841.454V0.810121C841.454 0.330122 841.124 0.00012064 840.644 0.00012064H832.574C832.094 0.00012064 831.764 0.330122 831.764 0.810121V1.62012ZM830.144 4.86012H830.954C831.434 4.86012 831.764 4.53012 831.764 4.05012V1.62012H830.954C830.474 1.62012 830.144 1.95012 830.144 2.43012V4.86012ZM841.454 1.62012V4.05012C841.454 4.53012 841.784 4.86012 842.264 4.86012H843.074V2.43012C843.074 1.95012 842.744 1.62012 842.264 1.62012H841.454ZM830.144 16.1401V4.86012H829.364C828.884 4.86012 828.554 5.19012 828.554 5.67012V15.3301C828.554 15.8101 828.884 16.1401 829.364 16.1401H830.144ZM843.074 4.86012V8.07012H844.694V5.67012C844.694 5.19012 844.364 4.86012 843.884 4.86012H843.074ZM843.074 16.1401H843.884C844.364 16.1401 844.694 15.8101 844.694 15.3301V12.9301H843.074V16.1401ZM830.144 16.1401V18.5701C830.144 19.0501 830.474 19.3801 830.954 19.3801H831.764V16.9501C831.764 16.4701 831.434 16.1401 830.954 16.1401H830.144ZM841.454 19.3801H842.264C842.744 19.3801 843.074 19.0501 843.074 18.5701V16.1401H842.264C841.784 16.1401 841.454 16.4701 841.454 16.9501V19.3801ZM831.764 19.3801V20.1901C831.764 20.6701 832.094 21.0001 832.574 21.0001H840.644C841.124 21.0001 841.454 20.6701 841.454 20.1901V19.3801H831.764ZM846.308 21.0001H847.928V0.00012064H846.308V21.0001ZM851.99 0.00012064C851.51 0.00012064 851.18 0.330122 851.18 0.810121V1.62012H864.11V0.00012064H851.99ZM850.37 1.62012C849.89 1.62012 849.56 1.95012 849.56 2.43012V8.88012C849.56 9.36012 849.89 9.69012 850.37 9.69012H851.18V1.62012H850.37ZM862.49 9.69012H851.18V11.3101H862.49V9.69012ZM850.37 11.3101C849.89 11.3101 849.56 11.6401 849.56 12.1201V18.5701C849.56 19.0501 849.89 19.3801 850.37 19.3801H851.18V11.3101H850.37ZM851.18 20.1901C851.18 20.6701 851.51 21.0001 851.99 21.0001H864.11V19.3801H851.18V20.1901ZM867.272 1.62012H875.372V0.810121C875.372 0.330122 875.042 0.00012064 874.562 0.00012064H868.082C867.602 0.00012064 867.272 0.330122 867.272 0.810121V1.62012ZM867.272 1.62012H866.492C866.012 1.62012 865.682 1.95012 865.682 2.43012V3.24012H866.462C866.942 3.24012 867.272 2.91012 867.272 2.43012V1.62012ZM876.962 3.24012V2.43012C876.962 1.95012 876.632 1.62012 876.152 1.62012H875.372V2.43012C875.372 2.91012 875.702 3.24012 876.182 3.24012H876.962ZM865.682 8.07012V3.24012H864.872C864.392 3.24012 864.062 3.57012 864.062 4.05012V7.26012C864.062 7.74012 864.392 8.07012 864.872 8.07012H865.682ZM876.962 3.24012V4.86012H878.582V4.05012C878.582 3.57012 878.252 3.24012 877.772 3.24012H876.962ZM867.272 9.69012V8.88012C867.272 8.40012 866.942 8.07012 866.462 8.07012H865.682V8.88012C865.682 9.36012 866.012 9.69012 866.492 9.69012H867.272ZM867.272 9.69012V10.5001C867.272 10.9801 867.602 11.3101 868.082 11.3101H875.372V10.5001C875.372 10.0201 875.042 9.69012 874.562 9.69012H867.272ZM876.962 12.9301V12.1201C876.962 11.6401 876.632 11.3101 876.152 11.3101H875.372V12.1201C875.372 12.6001 875.702 12.9301 876.182 12.9301H876.962ZM876.962 17.7601H877.772C878.252 17.7601 878.582 17.4301 878.582 16.9501V13.7401C878.582 13.2601 878.252 12.9301 877.772 12.9301H876.962V17.7601ZM865.682 14.5501H864.062V16.9501C864.062 17.4301 864.392 17.7601 864.872 17.7601H865.682V14.5501ZM865.682 17.7601V18.5701C865.682 19.0501 866.012 19.3801 866.492 19.3801H867.272V18.5701C867.272 18.0901 866.942 17.7601 866.462 17.7601H865.682ZM875.372 19.3801H876.152C876.632 19.3801 876.962 19.0501 876.962 18.5701V17.7601H876.182C875.702 17.7601 875.372 18.0901 875.372 18.5701V19.3801ZM867.272 19.3801V20.1901C867.272 20.6701 867.602 21.0001 868.082 21.0001H874.562C875.042 21.0001 875.372 20.6701 875.372 20.1901V19.3801H867.272ZM907.187 4.05012C907.187 4.53012 907.517 4.86012 907.997 4.86012H908.807V0.00012064H907.187V4.05012ZM924.137 4.86012C924.617 4.86012 924.947 4.53012 924.947 4.05012V0.00012064H923.327V4.86012H924.137ZM910.397 5.67012C910.397 5.19012 910.067 4.86012 909.587 4.86012H908.807V7.26012C908.807 7.74012 909.137 8.07012 909.617 8.07012H910.397V5.67012ZM922.517 4.86012C922.037 4.86012 921.707 5.19012 921.707 5.67012V8.07012H922.517C922.997 8.07012 923.327 7.74012 923.327 7.26012V4.86012H922.517ZM912.017 8.88012C912.017 8.40012 911.687 8.07012 911.207 8.07012H910.397V12.1201C910.397 12.6001 910.727 12.9301 911.207 12.9301H912.017V8.88012ZM920.087 12.9301H920.897C921.377 12.9301 921.707 12.6001 921.707 12.1201V8.07012H920.897C920.417 8.07012 920.087 8.40012 920.087 8.88012V12.9301ZM913.637 13.7401C913.637 13.2601 913.307 12.9301 912.827 12.9301H912.017V15.3301C912.017 15.8101 912.347 16.1401 912.827 16.1401H913.637V13.7401ZM919.277 16.1401C919.757 16.1401 920.087 15.8101 920.087 15.3301V12.9301H918.497V16.1401H919.277ZM915.257 16.9501C915.257 16.4701 914.927 16.1401 914.447 16.1401H913.637V18.5701C913.637 19.0501 913.967 19.3801 914.447 19.3801H915.257V16.9501ZM917.687 19.3801C918.167 19.3801 918.497 19.0501 918.497 18.5701V16.1401H917.687C917.207 16.1401 916.877 16.4701 916.877 16.9501V19.3801H917.687ZM915.257 21.0001H916.877V19.3801H915.257V21.0001ZM926.581 21.0001H928.201V0.00012064H926.581V21.0001ZM932.263 0.00012064C931.783 0.00012064 931.453 0.330122 931.453 0.810121V1.62012H944.383V0.00012064H932.263ZM930.643 1.62012C930.163 1.62012 929.833 1.95012 929.833 2.43012V8.88012C929.833 9.36012 930.163 9.69012 930.643 9.69012H931.453V1.62012H930.643ZM942.763 9.69012H931.453V11.3101H942.763V9.69012ZM930.643 11.3101C930.163 11.3101 929.833 11.6401 929.833 12.1201V18.5701C929.833 19.0501 930.163 19.3801 930.643 19.3801H931.453V11.3101H930.643ZM931.453 20.1901C931.453 20.6701 931.783 21.0001 932.263 21.0001H944.383V19.3801H931.453V20.1901ZM946.005 2.43012C946.005 2.91012 946.335 3.24012 946.815 3.24012H947.625V0.00012064H946.005V2.43012ZM972.645 3.24012C973.125 3.24012 973.455 2.91012 973.455 2.43012V0.00012064H971.865V3.24012H972.645ZM958.935 3.24012H960.555V0.00012064H958.935V3.24012ZM971.055 3.24012C970.575 3.24012 970.245 3.57012 970.245 4.05012V6.45012H971.055C971.535 6.45012 971.865 6.12012 971.865 5.64012V3.24012H971.055ZM962.145 4.05012C962.145 3.57012 961.815 3.24012 961.335 3.24012H960.555V5.64012C960.555 6.12012 960.885 6.45012 961.365 6.45012H962.145V4.05012ZM949.245 4.05012C949.245 3.57012 948.915 3.24012 948.435 3.24012H947.625V5.64012C947.625 6.12012 947.955 6.45012 948.435 6.45012H949.245V4.05012ZM958.125 3.24012C957.645 3.24012 957.315 3.57012 957.315 4.05012V6.45012H958.125C958.605 6.45012 958.935 6.12012 958.935 5.64012V3.24012H958.125ZM950.865 7.26012C950.865 6.78012 950.535 6.45012 950.055 6.45012H949.245V10.5001C949.245 10.9801 949.575 11.3101 950.055 11.3101H950.865V7.26012ZM956.505 6.45012C956.025 6.45012 955.695 6.78012 955.695 7.26012V11.3101H956.505C956.985 11.3101 957.315 10.9801 957.315 10.5001V6.45012H956.505ZM969.435 6.45012C968.955 6.45012 968.625 6.78012 968.625 7.26012V11.3101H969.435C969.915 11.3101 970.245 10.9801 970.245 10.5001V6.45012H969.435ZM963.765 7.26012C963.765 6.78012 963.435 6.45012 962.955 6.45012H962.145V10.5001C962.145 10.9801 962.475 11.3101 962.955 11.3101H963.765V7.26012ZM952.455 12.1201C952.455 11.6401 952.125 11.3101 951.645 11.3101H950.865V15.3301C950.865 15.8101 951.195 16.1401 951.675 16.1401H952.455V12.1201ZM965.385 12.1201C965.385 11.6401 965.055 11.3101 964.575 11.3101H963.765V15.3301C963.765 15.8101 964.095 16.1401 964.575 16.1401H965.385V12.1201ZM967.005 16.1401H967.815C968.295 16.1401 968.625 15.8101 968.625 15.3301V11.3101H967.815C967.335 11.3101 967.005 11.6401 967.005 12.1201V16.1401ZM954.075 16.1401H954.885C955.365 16.1401 955.695 15.8101 955.695 15.3301V11.3101H954.885C954.405 11.3101 954.075 11.6401 954.075 12.1201V16.1401ZM952.455 21.0001H954.075V16.1401H952.455V21.0001ZM965.385 21.0001H967.005V16.1401H965.385V21.0001ZM984.062 4.05012C984.062 4.53012 984.392 4.86012 984.872 4.86012H985.682V0.00012064H984.062V4.05012ZM1001.01 4.86012C1001.49 4.86012 1001.82 4.53012 1001.82 4.05012V0.00012064H1000.2V4.86012H1001.01ZM987.272 5.67012C987.272 5.19012 986.942 4.86012 986.462 4.86012H985.682V7.26012C985.682 7.74012 986.012 8.07012 986.492 8.07012H987.272V5.67012ZM999.392 4.86012C998.912 4.86012 998.582 5.19012 998.582 5.67012V8.07012H999.392C999.872 8.07012 1000.2 7.74012 1000.2 7.26012V4.86012H999.392ZM988.892 8.88012C988.892 8.40012 988.562 8.07012 988.082 8.07012H987.272V12.1201C987.272 12.6001 987.602 12.9301 988.082 12.9301H988.892V8.88012ZM996.962 12.9301H997.772C998.252 12.9301 998.582 12.6001 998.582 12.1201V8.07012H997.772C997.292 8.07012 996.962 8.40012 996.962 8.88012V12.9301ZM990.512 13.7401C990.512 13.2601 990.182 12.9301 989.702 12.9301H988.892V15.3301C988.892 15.8101 989.222 16.1401 989.702 16.1401H990.512V13.7401ZM996.152 16.1401C996.632 16.1401 996.962 15.8101 996.962 15.3301V12.9301H995.372V16.1401H996.152ZM992.132 16.9501C992.132 16.4701 991.802 16.1401 991.322 16.1401H990.512V18.5701C990.512 19.0501 990.842 19.3801 991.322 19.3801H992.132V16.9501ZM994.562 19.3801C995.042 19.3801 995.372 19.0501 995.372 18.5701V16.1401H994.562C994.082 16.1401 993.752 16.4701 993.752 16.9501V19.3801H994.562ZM992.132 21.0001H993.752V19.3801H992.132V21.0001ZM1006.69 1.62012H1008.31V0.810121C1008.31 0.330122 1008.01 0.00012064 1007.5 0.00012064C1007.02 0.00012064 1006.69 0.330122 1006.69 0.810121V1.62012ZM1005.07 4.86012H1005.88C1006.36 4.86012 1006.69 4.53012 1006.69 4.05012V1.62012H1005.88C1005.4 1.62012 1005.07 1.95012 1005.07 2.43012V4.86012ZM1008.31 1.62012V4.05012C1008.31 4.53012 1008.64 4.86012 1009.12 4.86012H1009.9V2.43012C1009.9 1.95012 1009.57 1.62012 1009.09 1.62012H1008.31ZM1003.45 9.69012H1004.26C1004.74 9.69012 1005.07 9.36012 1005.07 8.88012V4.86012H1004.26C1003.78 4.86012 1003.45 5.19012 1003.45 5.67012V9.69012ZM1009.9 4.86012V8.88012C1009.9 9.36012 1010.23 9.69012 1010.71 9.69012H1011.52V5.67012C1011.52 5.19012 1011.19 4.86012 1010.71 4.86012H1009.9ZM1001.83 12.9301H1003.45V9.69012H1002.64C1002.16 9.69012 1001.83 10.0201 1001.83 10.5001V12.9301ZM1011.52 9.69012V12.9301H1013.14V10.5001C1013.14 10.0201 1012.81 9.69012 1012.33 9.69012H1011.52ZM1000.21 17.7601H1001.02C1001.5 17.7601 1001.83 17.4301 1001.83 16.9501V12.9301H1001.02C1000.54 12.9301 1000.21 13.2601 1000.21 13.7401V17.7601ZM1011.52 12.9301H1003.45V13.7401C1003.45 14.2201 1003.78 14.5501 1004.26 14.5501H1010.71C1011.19 14.5501 1011.52 14.2201 1011.52 13.7401V12.9301ZM1013.14 12.9301V16.9501C1013.14 17.4301 1013.47 17.7601 1013.95 17.7601H1014.76V13.7401C1014.76 13.2601 1014.43 12.9301 1013.95 12.9301H1013.14ZM998.623 21.0001H1000.21V17.7601H999.433C998.953 17.7601 998.623 18.0901 998.623 18.5701V21.0001ZM1014.76 17.7601V21.0001H1016.38V18.5701C1016.38 18.0901 1016.05 17.7601 1015.57 17.7601H1014.76ZM1019.65 1.62012H1029.34V0.810121C1029.34 0.330122 1029.01 0.00012064 1028.53 0.00012064H1020.46C1019.98 0.00012064 1019.65 0.330122 1019.65 0.810121V1.62012ZM1018.03 4.86012H1018.84C1019.32 4.86012 1019.65 4.53012 1019.65 4.05012V1.62012H1018.84C1018.36 1.62012 1018.03 1.95012 1018.03 2.43012V4.86012ZM1029.34 1.62012V4.05012C1029.34 4.53012 1029.67 4.86012 1030.15 4.86012H1030.96V2.43012C1030.96 1.95012 1030.62 1.62012 1030.15 1.62012H1029.34ZM1018.03 16.1401V4.86012H1017.25C1016.77 4.86012 1016.44 5.19012 1016.44 5.67012V15.3301C1016.44 15.8101 1016.77 16.1401 1017.25 16.1401H1018.03ZM1030.96 4.86012V8.07012H1032.57V5.67012C1032.57 5.19012 1032.25 4.86012 1031.77 4.86012H1030.96ZM1030.96 16.1401H1031.77C1032.25 16.1401 1032.57 15.8101 1032.57 15.3301V12.9301H1030.96V16.1401ZM1018.03 16.1401V18.5701C1018.03 19.0501 1018.36 19.3801 1018.84 19.3801H1019.65V16.9501C1019.65 16.4701 1019.32 16.1401 1018.84 16.1401H1018.03ZM1029.34 19.3801H1030.15C1030.62 19.3801 1030.96 19.0501 1030.96 18.5701V16.1401H1030.15C1029.67 16.1401 1029.34 16.4701 1029.34 16.9501V19.3801ZM1019.65 19.3801V20.1901C1019.65 20.6701 1019.98 21.0001 1020.46 21.0001H1028.53C1029.01 21.0001 1029.34 20.6701 1029.34 20.1901V19.3801H1019.65ZM1040.68 1.62012H1042.3V0.810121C1042.3 0.330122 1042 0.00012064 1041.49 0.00012064C1041.01 0.00012064 1040.68 0.330122 1040.68 0.810121V1.62012ZM1039.06 4.86012H1039.87C1040.35 4.86012 1040.68 4.53012 1040.68 4.05012V1.62012H1039.87C1039.39 1.62012 1039.06 1.95012 1039.06 2.43012V4.86012ZM1042.3 1.62012V4.05012C1042.3 4.53012 1042.63 4.86012 1043.11 4.86012H1043.89V2.43012C1043.89 1.95012 1043.56 1.62012 1043.08 1.62012H1042.3ZM1037.44 9.69012H1038.25C1038.73 9.69012 1039.06 9.36012 1039.06 8.88012V4.86012H1038.25C1037.77 4.86012 1037.44 5.19012 1037.44 5.67012V9.69012ZM1043.89 4.86012V8.88012C1043.89 9.36012 1044.22 9.69012 1044.7 9.69012H1045.51V5.67012C1045.51 5.19012 1045.18 4.86012 1044.7 4.86012H1043.89ZM1035.82 12.9301H1037.44V9.69012H1036.63C1036.15 9.69012 1035.82 10.0201 1035.82 10.5001V12.9301ZM1045.51 9.69012V12.9301H1047.13V10.5001C1047.13 10.0201 1046.8 9.69012 1046.32 9.69012H1045.51ZM1034.2 17.7601H1035.01C1035.49 17.7601 1035.82 17.4301 1035.82 16.9501V12.9301H1035.01C1034.53 12.9301 1034.2 13.2601 1034.2 13.7401V17.7601ZM1045.51 12.9301H1037.44V13.7401C1037.44 14.2201 1037.77 14.5501 1038.25 14.5501H1044.7C1045.18 14.5501 1045.51 14.2201 1045.51 13.7401V12.9301ZM1047.13 12.9301V16.9501C1047.13 17.4301 1047.46 17.7601 1047.94 17.7601H1048.75V13.7401C1048.75 13.2601 1048.42 12.9301 1047.94 12.9301H1047.13ZM1032.61 21.0001H1034.2V17.7601H1033.42C1032.94 17.7601 1032.61 18.0901 1032.61 18.5701V21.0001ZM1048.75 17.7601V21.0001H1050.37V18.5701C1050.37 18.0901 1050.04 17.7601 1049.56 17.7601H1048.75ZM1052 0.810121C1052 1.29012 1052.33 1.62012 1052.81 1.62012H1053.62V0.00012064H1052V0.810121ZM1064.9 16.1401H1065.71C1066.19 16.1401 1066.52 15.8101 1066.52 15.3301V0.00012064H1064.9V16.1401ZM1055.21 2.43012C1055.21 1.95012 1054.88 1.62012 1054.4 1.62012H1053.62V4.86012H1055.21V2.43012ZM1052.81 4.86012C1052.33 4.86012 1052 5.19012 1052 5.67012V21.0001H1053.62V4.86012H1052.81ZM1056.83 5.67012C1056.83 5.19012 1056.5 4.86012 1056.02 4.86012H1055.21V5.64012C1055.21 6.12012 1055.54 6.45012 1056.02 6.45012H1056.83V5.67012ZM1058.45 7.26012C1058.45 6.78012 1058.12 6.45012 1057.64 6.45012H1056.83V8.88012C1056.83 9.36012 1057.16 9.69012 1057.64 9.69012H1058.45V7.26012ZM1060.07 10.5001C1060.07 10.0201 1059.74 9.69012 1059.26 9.69012H1058.45V10.5001C1058.45 10.9801 1058.78 11.3101 1059.26 11.3101H1060.07V10.5001ZM1061.69 12.1201C1061.69 11.6401 1061.36 11.3101 1060.88 11.3101H1060.07V12.1201C1060.07 12.6001 1060.4 12.9301 1060.88 12.9301H1061.69V12.1201ZM1063.31 13.7401C1063.31 13.2601 1062.98 12.9301 1062.5 12.9301H1061.69V15.3301C1061.69 15.8101 1062.02 16.1401 1062.5 16.1401H1063.31V13.7401ZM1063.31 18.5701C1063.31 19.0501 1063.64 19.3801 1064.12 19.3801H1064.9V16.1401H1063.31V18.5701ZM1066.52 20.1901C1066.52 19.7101 1066.19 19.3801 1065.71 19.3801H1064.9V21.0001H1066.52V20.1901ZM1071.35 1.62012H1081.04V0.810121C1081.04 0.330122 1080.71 0.00012064 1080.23 0.00012064H1072.16C1071.68 0.00012064 1071.35 0.330122 1071.35 0.810121V1.62012ZM1069.73 4.86012H1070.54C1071.02 4.86012 1071.35 4.53012 1071.35 4.05012V1.62012H1070.54C1070.06 1.62012 1069.73 1.95012 1069.73 2.43012V4.86012ZM1081.04 1.62012V4.05012C1081.04 4.53012 1081.37 4.86012 1081.85 4.86012H1082.66V2.43012C1082.66 1.95012 1082.33 1.62012 1081.85 1.62012H1081.04ZM1069.73 16.1401V4.86012H1068.95C1068.47 4.86012 1068.14 5.19012 1068.14 5.67012V15.3301C1068.14 15.8101 1068.47 16.1401 1068.95 16.1401H1069.73ZM1082.66 4.86012V8.07012H1084.28V5.67012C1084.28 5.19012 1083.95 4.86012 1083.47 4.86012H1082.66ZM1082.66 16.1401H1083.47C1083.95 16.1401 1084.28 15.8101 1084.28 15.3301V12.9301H1082.66V16.1401ZM1069.73 16.1401V18.5701C1069.73 19.0501 1070.06 19.3801 1070.54 19.3801H1071.35V16.9501C1071.35 16.4701 1071.02 16.1401 1070.54 16.1401H1069.73ZM1081.04 19.3801H1081.85C1082.33 19.3801 1082.66 19.0501 1082.66 18.5701V16.1401H1081.85C1081.37 16.1401 1081.04 16.4701 1081.04 16.9501V19.3801ZM1071.35 19.3801V20.1901C1071.35 20.6701 1071.68 21.0001 1072.16 21.0001H1080.23C1080.71 21.0001 1081.04 20.6701 1081.04 20.1901V19.3801H1071.35ZM1085.9 21.0001H1087.52V0.00012064H1085.9V21.0001ZM1091.58 0.00012064C1091.1 0.00012064 1090.77 0.330122 1090.77 0.810121V1.62012H1103.7V0.00012064H1091.58ZM1089.96 1.62012C1089.48 1.62012 1089.15 1.95012 1089.15 2.43012V8.88012C1089.15 9.36012 1089.48 9.69012 1089.96 9.69012H1090.77V1.62012H1089.96ZM1102.08 9.69012H1090.77V11.3101H1102.08V9.69012ZM1089.96 11.3101C1089.48 11.3101 1089.15 11.6401 1089.15 12.1201V18.5701C1089.15 19.0501 1089.48 19.3801 1089.96 19.3801H1090.77V11.3101H1089.96ZM1090.77 20.1901C1090.77 20.6701 1091.1 21.0001 1091.58 21.0001H1103.7V19.3801H1090.77V20.1901ZM1106.86 1.62012H1114.96V0.810121C1114.96 0.330122 1114.63 0.00012064 1114.15 0.00012064H1107.67C1107.19 0.00012064 1106.86 0.330122 1106.86 0.810121V1.62012ZM1106.86 1.62012H1106.08C1105.6 1.62012 1105.27 1.95012 1105.27 2.43012V3.24012H1106.05C1106.53 3.24012 1106.86 2.91012 1106.86 2.43012V1.62012ZM1116.55 3.24012V2.43012C1116.55 1.95012 1116.22 1.62012 1115.74 1.62012H1114.96V2.43012C1114.96 2.91012 1115.29 3.24012 1115.77 3.24012H1116.55ZM1105.27 8.07012V3.24012H1104.46C1103.98 3.24012 1103.65 3.57012 1103.65 4.05012V7.26012C1103.65 7.74012 1103.98 8.07012 1104.46 8.07012H1105.27ZM1116.55 3.24012V4.86012H1118.17V4.05012C1118.17 3.57012 1117.84 3.24012 1117.36 3.24012H1116.55ZM1106.86 9.69012V8.88012C1106.86 8.40012 1106.53 8.07012 1106.05 8.07012H1105.27V8.88012C1105.27 9.36012 1105.6 9.69012 1106.08 9.69012H1106.86ZM1106.86 9.69012V10.5001C1106.86 10.9801 1107.19 11.3101 1107.67 11.3101H1114.96V10.5001C1114.96 10.0201 1114.63 9.69012 1114.15 9.69012H1106.86ZM1116.55 12.9301V12.1201C1116.55 11.6401 1116.22 11.3101 1115.74 11.3101H1114.96V12.1201C1114.96 12.6001 1115.29 12.9301 1115.77 12.9301H1116.55ZM1116.55 17.7601H1117.36C1117.84 17.7601 1118.17 17.4301 1118.17 16.9501V13.7401C1118.17 13.2601 1117.84 12.9301 1117.36 12.9301H1116.55V17.7601ZM1105.27 14.5501H1103.65V16.9501C1103.65 17.4301 1103.98 17.7601 1104.46 17.7601H1105.27V14.5501ZM1105.27 17.7601V18.5701C1105.27 19.0501 1105.6 19.3801 1106.08 19.3801H1106.86V18.5701C1106.86 18.0901 1106.53 17.7601 1106.05 17.7601H1105.27ZM1114.96 19.3801H1115.74C1116.22 19.3801 1116.55 19.0501 1116.55 18.5701V17.7601H1115.77C1115.29 17.7601 1114.96 18.0901 1114.96 18.5701V19.3801ZM1106.86 19.3801V20.1901C1106.86 20.6701 1107.19 21.0001 1107.67 21.0001H1114.15C1114.63 21.0001 1114.96 20.6701 1114.96 20.1901V19.3801H1106.86ZM1146.78 4.05012C1146.78 4.53012 1147.11 4.86012 1147.59 4.86012H1148.4V0.00012064H1146.78V4.05012ZM1163.73 4.86012C1164.21 4.86012 1164.54 4.53012 1164.54 4.05012V0.00012064H1162.92V4.86012H1163.73ZM1149.99 5.67012C1149.99 5.19012 1149.66 4.86012 1149.18 4.86012H1148.4V7.26012C1148.4 7.74012 1148.73 8.07012 1149.21 8.07012H1149.99V5.67012ZM1162.11 4.86012C1161.63 4.86012 1161.3 5.19012 1161.3 5.67012V8.07012H1162.11C1162.59 8.07012 1162.92 7.74012 1162.92 7.26012V4.86012H1162.11ZM1151.61 8.88012C1151.61 8.40012 1151.28 8.07012 1150.8 8.07012H1149.99V12.1201C1149.99 12.6001 1150.32 12.9301 1150.8 12.9301H1151.61V8.88012ZM1159.68 12.9301H1160.49C1160.97 12.9301 1161.3 12.6001 1161.3 12.1201V8.07012H1160.49C1160.01 8.07012 1159.68 8.40012 1159.68 8.88012V12.9301ZM1153.23 13.7401C1153.23 13.2601 1152.9 12.9301 1152.42 12.9301H1151.61V15.3301C1151.61 15.8101 1151.94 16.1401 1152.42 16.1401H1153.23V13.7401ZM1158.87 16.1401C1159.35 16.1401 1159.68 15.8101 1159.68 15.3301V12.9301H1158.09V16.1401H1158.87ZM1154.85 16.9501C1154.85 16.4701 1154.52 16.1401 1154.04 16.1401H1153.23V18.5701C1153.23 19.0501 1153.56 19.3801 1154.04 19.3801H1154.85V16.9501ZM1157.28 19.3801C1157.76 19.3801 1158.09 19.0501 1158.09 18.5701V16.1401H1157.28C1156.8 16.1401 1156.47 16.4701 1156.47 16.9501V19.3801H1157.28ZM1154.85 21.0001H1156.47V19.3801H1154.85V21.0001ZM1166.17 21.0001H1167.79V0.00012064H1166.17V21.0001ZM1171.85 0.00012064C1171.37 0.00012064 1171.04 0.330122 1171.04 0.810121V1.62012H1183.97V0.00012064H1171.85ZM1170.23 1.62012C1169.75 1.62012 1169.42 1.95012 1169.42 2.43012V8.88012C1169.42 9.36012 1169.75 9.69012 1170.23 9.69012H1171.04V1.62012H1170.23ZM1182.35 9.69012H1171.04V11.3101H1182.35V9.69012ZM1170.23 11.3101C1169.75 11.3101 1169.42 11.6401 1169.42 12.1201V18.5701C1169.42 19.0501 1169.75 19.3801 1170.23 19.3801H1171.04V11.3101H1170.23ZM1171.04 20.1901C1171.04 20.6701 1171.37 21.0001 1171.85 21.0001H1183.97V19.3801H1171.04V20.1901ZM1185.6 2.43012C1185.6 2.91012 1185.93 3.24012 1186.41 3.24012H1187.22V0.00012064H1185.6V2.43012ZM1212.24 3.24012C1212.72 3.24012 1213.05 2.91012 1213.05 2.43012V0.00012064H1211.46V3.24012H1212.24ZM1198.53 3.24012H1200.15V0.00012064H1198.53V3.24012ZM1210.65 3.24012C1210.17 3.24012 1209.84 3.57012 1209.84 4.05012V6.45012H1210.65C1211.13 6.45012 1211.46 6.12012 1211.46 5.64012V3.24012H1210.65ZM1201.74 4.05012C1201.74 3.57012 1201.41 3.24012 1200.93 3.24012H1200.15V5.64012C1200.15 6.12012 1200.48 6.45012 1200.96 6.45012H1201.74V4.05012ZM1188.84 4.05012C1188.84 3.57012 1188.51 3.24012 1188.03 3.24012H1187.22V5.64012C1187.22 6.12012 1187.55 6.45012 1188.03 6.45012H1188.84V4.05012ZM1197.72 3.24012C1197.24 3.24012 1196.91 3.57012 1196.91 4.05012V6.45012H1197.72C1198.2 6.45012 1198.53 6.12012 1198.53 5.64012V3.24012H1197.72ZM1190.46 7.26012C1190.46 6.78012 1190.13 6.45012 1189.65 6.45012H1188.84V10.5001C1188.84 10.9801 1189.17 11.3101 1189.65 11.3101H1190.46V7.26012ZM1196.1 6.45012C1195.62 6.45012 1195.29 6.78012 1195.29 7.26012V11.3101H1196.1C1196.58 11.3101 1196.91 10.9801 1196.91 10.5001V6.45012H1196.1ZM1209.03 6.45012C1208.55 6.45012 1208.22 6.78012 1208.22 7.26012V11.3101H1209.03C1209.51 11.3101 1209.84 10.9801 1209.84 10.5001V6.45012H1209.03ZM1203.36 7.26012C1203.36 6.78012 1203.03 6.45012 1202.55 6.45012H1201.74V10.5001C1201.74 10.9801 1202.07 11.3101 1202.55 11.3101H1203.36V7.26012ZM1192.05 12.1201C1192.05 11.6401 1191.72 11.3101 1191.24 11.3101H1190.46V15.3301C1190.46 15.8101 1190.79 16.1401 1191.27 16.1401H1192.05V12.1201ZM1204.98 12.1201C1204.98 11.6401 1204.65 11.3101 1204.17 11.3101H1203.36V15.3301C1203.36 15.8101 1203.69 16.1401 1204.17 16.1401H1204.98V12.1201ZM1206.6 16.1401H1207.41C1207.89 16.1401 1208.22 15.8101 1208.22 15.3301V11.3101H1207.41C1206.93 11.3101 1206.6 11.6401 1206.6 12.1201V16.1401ZM1193.67 16.1401H1194.48C1194.96 16.1401 1195.29 15.8101 1195.29 15.3301V11.3101H1194.48C1194 11.3101 1193.67 11.6401 1193.67 12.1201V16.1401ZM1192.05 21.0001H1193.67V16.1401H1192.05V21.0001ZM1204.98 21.0001H1206.6V16.1401H1204.98V21.0001ZM1223.65 4.05012C1223.65 4.53012 1223.98 4.86012 1224.46 4.86012H1225.27V0.00012064H1223.65V4.05012ZM1240.6 4.86012C1241.08 4.86012 1241.41 4.53012 1241.41 4.05012V0.00012064H1239.79V4.86012H1240.6ZM1226.86 5.67012C1226.86 5.19012 1226.53 4.86012 1226.05 4.86012H1225.27V7.26012C1225.27 7.74012 1225.6 8.07012 1226.08 8.07012H1226.86V5.67012ZM1238.98 4.86012C1238.5 4.86012 1238.17 5.19012 1238.17 5.67012V8.07012H1238.98C1239.46 8.07012 1239.79 7.74012 1239.79 7.26012V4.86012H1238.98ZM1228.48 8.88012C1228.48 8.40012 1228.15 8.07012 1227.67 8.07012H1226.86V12.1201C1226.86 12.6001 1227.19 12.9301 1227.67 12.9301H1228.48V8.88012ZM1236.55 12.9301H1237.36C1237.84 12.9301 1238.17 12.6001 1238.17 12.1201V8.07012H1237.36C1236.88 8.07012 1236.55 8.40012 1236.55 8.88012V12.9301ZM1230.1 13.7401C1230.1 13.2601 1229.77 12.9301 1229.29 12.9301H1228.48V15.3301C1228.48 15.8101 1228.81 16.1401 1229.29 16.1401H1230.1V13.7401ZM1235.74 16.1401C1236.22 16.1401 1236.55 15.8101 1236.55 15.3301V12.9301H1234.96V16.1401H1235.74ZM1231.72 16.9501C1231.72 16.4701 1231.39 16.1401 1230.91 16.1401H1230.1V18.5701C1230.1 19.0501 1230.43 19.3801 1230.91 19.3801H1231.72V16.9501ZM1234.15 19.3801C1234.63 19.3801 1234.96 19.0501 1234.96 18.5701V16.1401H1234.15C1233.67 16.1401 1233.34 16.4701 1233.34 16.9501V19.3801H1234.15ZM1231.72 21.0001H1233.34V19.3801H1231.72V21.0001ZM1246.28 1.62012H1247.9V0.810121C1247.9 0.330122 1247.6 0.00012064 1247.09 0.00012064C1246.61 0.00012064 1246.28 0.330122 1246.28 0.810121V1.62012ZM1244.66 4.86012H1245.47C1245.95 4.86012 1246.28 4.53012 1246.28 4.05012V1.62012H1245.47C1244.99 1.62012 1244.66 1.95012 1244.66 2.43012V4.86012ZM1247.9 1.62012V4.05012C1247.9 4.53012 1248.23 4.86012 1248.71 4.86012H1249.49V2.43012C1249.49 1.95012 1249.16 1.62012 1248.68 1.62012H1247.9ZM1243.04 9.69012H1243.85C1244.33 9.69012 1244.66 9.36012 1244.66 8.88012V4.86012H1243.85C1243.37 4.86012 1243.04 5.19012 1243.04 5.67012V9.69012ZM1249.49 4.86012V8.88012C1249.49 9.36012 1249.82 9.69012 1250.3 9.69012H1251.11V5.67012C1251.11 5.19012 1250.78 4.86012 1250.3 4.86012H1249.49ZM1241.42 12.9301H1243.04V9.69012H1242.23C1241.75 9.69012 1241.42 10.0201 1241.42 10.5001V12.9301ZM1251.11 9.69012V12.9301H1252.73V10.5001C1252.73 10.0201 1252.4 9.69012 1251.92 9.69012H1251.11ZM1239.8 17.7601H1240.61C1241.09 17.7601 1241.42 17.4301 1241.42 16.9501V12.9301H1240.61C1240.13 12.9301 1239.8 13.2601 1239.8 13.7401V17.7601ZM1251.11 12.9301H1243.04V13.7401C1243.04 14.2201 1243.37 14.5501 1243.85 14.5501H1250.3C1250.78 14.5501 1251.11 14.2201 1251.11 13.7401V12.9301ZM1252.73 12.9301V16.9501C1252.73 17.4301 1253.06 17.7601 1253.54 17.7601H1254.35V13.7401C1254.35 13.2601 1254.02 12.9301 1253.54 12.9301H1252.73ZM1238.21 21.0001H1239.8V17.7601H1239.02C1238.54 17.7601 1238.21 18.0901 1238.21 18.5701V21.0001ZM1254.35 17.7601V21.0001H1255.97V18.5701C1255.97 18.0901 1255.64 17.7601 1255.16 17.7601H1254.35ZM1259.23 1.62012H1268.92V0.810121C1268.92 0.330122 1268.59 0.00012064 1268.11 0.00012064H1260.04C1259.56 0.00012064 1259.23 0.330122 1259.23 0.810121V1.62012ZM1257.61 4.86012H1258.42C1258.9 4.86012 1259.23 4.53012 1259.23 4.05012V1.62012H1258.42C1257.94 1.62012 1257.61 1.95012 1257.61 2.43012V4.86012ZM1268.92 1.62012V4.05012C1268.92 4.53012 1269.25 4.86012 1269.73 4.86012H1270.54V2.43012C1270.54 1.95012 1270.21 1.62012 1269.73 1.62012H1268.92ZM1257.61 16.1401V4.86012H1256.83C1256.35 4.86012 1256.02 5.19012 1256.02 5.67012V15.3301C1256.02 15.8101 1256.35 16.1401 1256.83 16.1401H1257.61ZM1270.54 4.86012V8.07012H1272.16V5.67012C1272.16 5.19012 1271.83 4.86012 1271.35 4.86012H1270.54ZM1270.54 16.1401H1271.35C1271.83 16.1401 1272.16 15.8101 1272.16 15.3301V12.9301H1270.54V16.1401ZM1257.61 16.1401V18.5701C1257.61 19.0501 1257.94 19.3801 1258.42 19.3801H1259.23V16.9501C1259.23 16.4701 1258.9 16.1401 1258.42 16.1401H1257.61ZM1268.92 19.3801H1269.73C1270.21 19.3801 1270.54 19.0501 1270.54 18.5701V16.1401H1269.73C1269.25 16.1401 1268.92 16.4701 1268.92 16.9501V19.3801ZM1259.23 19.3801V20.1901C1259.23 20.6701 1259.56 21.0001 1260.04 21.0001H1268.11C1268.59 21.0001 1268.92 20.6701 1268.92 20.1901V19.3801H1259.23ZM1280.27 1.62012H1281.89V0.810121C1281.89 0.330122 1281.59 0.00012064 1281.08 0.00012064C1280.6 0.00012064 1280.27 0.330122 1280.27 0.810121V1.62012ZM1278.65 4.86012H1279.46C1279.94 4.86012 1280.27 4.53012 1280.27 4.05012V1.62012H1279.46C1278.98 1.62012 1278.65 1.95012 1278.65 2.43012V4.86012ZM1281.89 1.62012V4.05012C1281.89 4.53012 1282.22 4.86012 1282.7 4.86012H1283.48V2.43012C1283.48 1.95012 1283.15 1.62012 1282.67 1.62012H1281.89ZM1277.03 9.69012H1277.84C1278.32 9.69012 1278.65 9.36012 1278.65 8.88012V4.86012H1277.84C1277.36 4.86012 1277.03 5.19012 1277.03 5.67012V9.69012ZM1283.48 4.86012V8.88012C1283.48 9.36012 1283.81 9.69012 1284.29 9.69012H1285.1V5.67012C1285.1 5.19012 1284.77 4.86012 1284.29 4.86012H1283.48ZM1275.41 12.9301H1277.03V9.69012H1276.22C1275.74 9.69012 1275.41 10.0201 1275.41 10.5001V12.9301ZM1285.1 9.69012V12.9301H1286.72V10.5001C1286.72 10.0201 1286.39 9.69012 1285.91 9.69012H1285.1ZM1273.79 17.7601H1274.6C1275.08 17.7601 1275.41 17.4301 1275.41 16.9501V12.9301H1274.6C1274.12 12.9301 1273.79 13.2601 1273.79 13.7401V17.7601ZM1285.1 12.9301H1277.03V13.7401C1277.03 14.2201 1277.36 14.5501 1277.84 14.5501H1284.29C1284.77 14.5501 1285.1 14.2201 1285.1 13.7401V12.9301ZM1286.72 12.9301V16.9501C1286.72 17.4301 1287.05 17.7601 1287.53 17.7601H1288.34V13.7401C1288.34 13.2601 1288.01 12.9301 1287.53 12.9301H1286.72ZM1272.2 21.0001H1273.79V17.7601H1273.01C1272.53 17.7601 1272.2 18.0901 1272.2 18.5701V21.0001ZM1288.34 17.7601V21.0001H1289.96V18.5701C1289.96 18.0901 1289.63 17.7601 1289.15 17.7601H1288.34ZM1291.59 0.810121C1291.59 1.29012 1291.92 1.62012 1292.4 1.62012H1293.21V0.00012064H1291.59V0.810121ZM1304.49 16.1401H1305.3C1305.78 16.1401 1306.11 15.8101 1306.11 15.3301V0.00012064H1304.49V16.1401ZM1294.8 2.43012C1294.8 1.95012 1294.47 1.62012 1293.99 1.62012H1293.21V4.86012H1294.8V2.43012ZM1292.4 4.86012C1291.92 4.86012 1291.59 5.19012 1291.59 5.67012V21.0001H1293.21V4.86012H1292.4ZM1296.42 5.67012C1296.42 5.19012 1296.09 4.86012 1295.61 4.86012H1294.8V5.64012C1294.8 6.12012 1295.13 6.45012 1295.61 6.45012H1296.42V5.67012ZM1298.04 7.26012C1298.04 6.78012 1297.71 6.45012 1297.23 6.45012H1296.42V8.88012C1296.42 9.36012 1296.75 9.69012 1297.23 9.69012H1298.04V7.26012ZM1299.66 10.5001C1299.66 10.0201 1299.33 9.69012 1298.85 9.69012H1298.04V10.5001C1298.04 10.9801 1298.37 11.3101 1298.85 11.3101H1299.66V10.5001ZM1301.28 12.1201C1301.28 11.6401 1300.95 11.3101 1300.47 11.3101H1299.66V12.1201C1299.66 12.6001 1299.99 12.9301 1300.47 12.9301H1301.28V12.1201ZM1302.9 13.7401C1302.9 13.2601 1302.57 12.9301 1302.09 12.9301H1301.28V15.3301C1301.28 15.8101 1301.61 16.1401 1302.09 16.1401H1302.9V13.7401ZM1302.9 18.5701C1302.9 19.0501 1303.23 19.3801 1303.71 19.3801H1304.49V16.1401H1302.9V18.5701ZM1306.11 20.1901C1306.11 19.7101 1305.78 19.3801 1305.3 19.3801H1304.49V21.0001H1306.11V20.1901ZM1310.94 1.62012H1320.63V0.810121C1320.63 0.330122 1320.3 0.00012064 1319.82 0.00012064H1311.75C1311.27 0.00012064 1310.94 0.330122 1310.94 0.810121V1.62012ZM1309.32 4.86012H1310.13C1310.61 4.86012 1310.94 4.53012 1310.94 4.05012V1.62012H1310.13C1309.65 1.62012 1309.32 1.95012 1309.32 2.43012V4.86012ZM1320.63 1.62012V4.05012C1320.63 4.53012 1320.96 4.86012 1321.44 4.86012H1322.25V2.43012C1322.25 1.95012 1321.92 1.62012 1321.44 1.62012H1320.63ZM1309.32 16.1401V4.86012H1308.54C1308.06 4.86012 1307.73 5.19012 1307.73 5.67012V15.3301C1307.73 15.8101 1308.06 16.1401 1308.54 16.1401H1309.32ZM1322.25 4.86012V8.07012H1323.87V5.67012C1323.87 5.19012 1323.54 4.86012 1323.06 4.86012H1322.25ZM1322.25 16.1401H1323.06C1323.54 16.1401 1323.87 15.8101 1323.87 15.3301V12.9301H1322.25V16.1401ZM1309.32 16.1401V18.5701C1309.32 19.0501 1309.65 19.3801 1310.13 19.3801H1310.94V16.9501C1310.94 16.4701 1310.61 16.1401 1310.13 16.1401H1309.32ZM1320.63 19.3801H1321.44C1321.92 19.3801 1322.25 19.0501 1322.25 18.5701V16.1401H1321.44C1320.96 16.1401 1320.63 16.4701 1320.63 16.9501V19.3801ZM1310.94 19.3801V20.1901C1310.94 20.6701 1311.27 21.0001 1311.75 21.0001H1319.82C1320.3 21.0001 1320.63 20.6701 1320.63 20.1901V19.3801H1310.94ZM1325.49 21.0001H1327.11V0.00012064H1325.49V21.0001ZM1331.17 0.00012064C1330.69 0.00012064 1330.36 0.330122 1330.36 0.810121V1.62012H1343.29V0.00012064H1331.17ZM1329.55 1.62012C1329.07 1.62012 1328.74 1.95012 1328.74 2.43012V8.88012C1328.74 9.36012 1329.07 9.69012 1329.55 9.69012H1330.36V1.62012H1329.55ZM1341.67 9.69012H1330.36V11.3101H1341.67V9.69012ZM1329.55 11.3101C1329.07 11.3101 1328.74 11.6401 1328.74 12.1201V18.5701C1328.74 19.0501 1329.07 19.3801 1329.55 19.3801H1330.36V11.3101H1329.55ZM1330.36 20.1901C1330.36 20.6701 1330.69 21.0001 1331.17 21.0001H1343.29V19.3801H1330.36V20.1901ZM1346.45 1.62012H1354.55V0.810121C1354.55 0.330122 1354.22 0.00012064 1353.74 0.00012064H1347.26C1346.78 0.00012064 1346.45 0.330122 1346.45 0.810121V1.62012ZM1346.45 1.62012H1345.67C1345.19 1.62012 1344.86 1.95012 1344.86 2.43012V3.24012H1345.64C1346.12 3.24012 1346.45 2.91012 1346.45 2.43012V1.62012ZM1356.14 3.24012V2.43012C1356.14 1.95012 1355.81 1.62012 1355.33 1.62012H1354.55V2.43012C1354.55 2.91012 1354.88 3.24012 1355.36 3.24012H1356.14ZM1344.86 8.07012V3.24012H1344.05C1343.57 3.24012 1343.24 3.57012 1343.24 4.05012V7.26012C1343.24 7.74012 1343.57 8.07012 1344.05 8.07012H1344.86ZM1356.14 3.24012V4.86012H1357.76V4.05012C1357.76 3.57012 1357.43 3.24012 1356.95 3.24012H1356.14ZM1346.45 9.69012V8.88012C1346.45 8.40012 1346.12 8.07012 1345.64 8.07012H1344.86V8.88012C1344.86 9.36012 1345.19 9.69012 1345.67 9.69012H1346.45ZM1346.45 9.69012V10.5001C1346.45 10.9801 1346.78 11.3101 1347.26 11.3101H1354.55V10.5001C1354.55 10.0201 1354.22 9.69012 1353.74 9.69012H1346.45ZM1356.14 12.9301V12.1201C1356.14 11.6401 1355.81 11.3101 1355.33 11.3101H1354.55V12.1201C1354.55 12.6001 1354.88 12.9301 1355.36 12.9301H1356.14ZM1356.14 17.7601H1356.95C1357.43 17.7601 1357.76 17.4301 1357.76 16.9501V13.7401C1357.76 13.2601 1357.43 12.9301 1356.95 12.9301H1356.14V17.7601ZM1344.86 14.5501H1343.24V16.9501C1343.24 17.4301 1343.57 17.7601 1344.05 17.7601H1344.86V14.5501ZM1344.86 17.7601V18.5701C1344.86 19.0501 1345.19 19.3801 1345.67 19.3801H1346.45V18.5701C1346.45 18.0901 1346.12 17.7601 1345.64 17.7601H1344.86ZM1354.55 19.3801H1355.33C1355.81 19.3801 1356.14 19.0501 1356.14 18.5701V17.7601H1355.36C1354.88 17.7601 1354.55 18.0901 1354.55 18.5701V19.3801ZM1346.45 19.3801V20.1901C1346.45 20.6701 1346.78 21.0001 1347.26 21.0001H1353.74C1354.22 21.0001 1354.55 20.6701 1354.55 20.1901V19.3801H1346.45Z" fill="#F6F6F6"/>
</g>
</svg>
