<svg width="711" height="532" viewBox="0 0 711 532" fill="none" xmlns="http://www.w3.org/2000/svg">
<path d="M706.062 518.799C702.315 524.107 696.185 527.599 687.865 529.342C679.541 531.085 669.063 531.066 656.691 529.38C631.948 526.008 599.737 515.98 562.269 500.211C487.341 468.676 391.486 414.221 292.474 344.318C193.462 274.415 110.064 202.317 55.2681 142.265C27.8671 112.237 7.63687 85.241 -3.82295 63.0536C-9.55317 51.9594 -13.0776 42.0918 -14.2212 33.6649C-15.3643 25.2415 -14.1247 18.2966 -10.3775 12.989C-6.63034 7.68141 -0.500978 4.18872 7.81925 2.44644C16.1429 0.703438 26.6209 0.721708 38.9933 2.40794C63.7366 5.78023 95.9467 15.8076 133.415 31.5769C208.343 63.1122 304.198 117.567 403.21 187.47C502.222 257.373 585.62 329.471 640.416 389.523C667.817 419.551 688.047 446.547 699.507 468.734C705.237 479.829 708.762 489.696 709.905 498.123C711.049 506.547 709.809 513.491 706.062 518.799Z" stroke="#D5D5D5" stroke-opacity="0.18"/>
</svg>
