<svg width="702" height="702" viewBox="0 0 702 702" fill="none" xmlns="http://www.w3.org/2000/svg">
<path d="M701 351.001L700.514 356.892L699.056 362.741L696.632 368.504L693.252 374.141L688.926 379.609L683.67 384.869L677.504 389.88L670.449 394.605L662.53 399.005L653.776 403.047L644.218 406.695L633.89 409.918L622.828 412.687L611.073 414.972L598.665 416.75L585.648 417.997L572.068 418.692L557.973 418.819L543.412 418.361L528.436 417.307L513.097 415.647L497.449 413.375L481.544 410.488L465.439 406.986L449.187 402.871L432.845 398.149L416.467 392.829L400.109 386.922L383.825 380.445L367.669 373.413L351.693 365.849L335.951 357.775L320.493 349.218L305.367 340.205L290.622 330.77L276.303 320.944L262.455 310.764L249.118 300.268L236.331 289.496L224.133 278.488L212.555 267.289L201.632 255.943L191.389 244.495L181.855 232.993L173.05 221.484L164.994 210.017L157.705 198.641L151.194 187.404L145.472 176.356L140.545 165.545L136.418 155.02L133.089 144.83L130.556 135.02L128.812 125.637L127.848 116.727L127.651 108.332L128.206 100.494L129.494 93.2539L131.493 86.6493L134.18 80.7164L137.527 75.4888L141.506 70.9979L146.085 67.2722L151.229 64.3378L156.904 62.2178L163.072 60.9324L169.693 60.4986L176.726 60.9304L184.129 62.2387L191.86 64.4309L199.873 67.5111L208.125 71.4802L216.569 76.3355L225.16 82.0712L233.852 88.6779L242.6 96.143L251.357 104.45L260.08 113.581L268.724 123.512L277.245 134.218L285.601 145.67L293.752 157.837L301.658 170.684L309.281 184.175L316.585 198.269L323.536 212.924L330.102 228.096L336.254 243.738L341.963 259.802L347.206 276.238L351.959 292.994L356.203 310.017L359.921 327.253L363.1 344.646L365.728 362.14L367.797 379.68L369.301 397.208L370.239 414.668L370.612 432.002L370.422 449.155L369.677 466.071L368.386 482.694L366.563 498.971L364.221 514.849L361.38 530.277L358.06 545.204L354.285 559.583L350.079 573.368L345.471 586.515L340.492 598.982L335.173 610.731L329.55 621.725L323.657 631.93L317.532 641.316L311.214 649.855L304.744 657.522L298.163 664.296L291.512 670.159L284.834 675.096L278.173 679.096L271.572 682.151L265.074 684.255L258.723 685.409L252.561 685.615L246.631 684.877L240.974 683.207L235.632 680.616L230.643 677.12L226.047 672.739L221.879 667.494L218.175 661.411L214.967 654.518L212.288 646.847L210.165 638.431L208.626 629.305L207.694 619.51L207.392 609.085L207.738 598.075L208.748 586.522L210.436 574.474L212.812 561.979L215.883 549.085L219.654 535.844L224.125 522.305L229.294 508.522L235.157 494.546L241.705 480.429L248.926 466.225L256.806 451.985L265.327 437.761L274.469 423.605L284.208 409.567L294.517 395.697L305.368 382.042L316.729 368.65L328.564 355.565L340.838 342.832L353.511 330.492L366.543 318.584L379.889 307.146L393.504 296.212L407.344 285.814L421.358 275.982L435.499 266.743L449.715 258.122L463.956 250.138L478.169 242.811L492.303 236.155L506.305 230.183L520.123 224.903L533.704 220.32L546.996 216.438L559.948 213.256L572.51 210.769L584.633 208.973L596.267 207.855L607.368 207.404L617.889 207.604L627.787 208.437L637.021 209.881L645.553 211.913L653.345 214.505L660.364 217.631L666.578 221.258L671.958 225.355L676.479 229.885L680.117 234.814L682.853 240.103L684.671 245.712L685.558 251.601L685.503 257.729L684.5 264.053L682.547 270.53L679.644 277.118L675.794 283.773L671.006 290.451L665.289 297.109L658.659 303.704L651.133 310.195L642.731 316.539L633.479 322.697L623.402 328.63L612.531 334.299L600.901 339.668L588.545 344.704L575.504 349.373L561.818 353.644L547.53 357.49L532.687 360.885L517.336 363.803L501.526 366.226L485.309 368.133L468.738 369.509L451.865 370.342L434.746 370.62L417.437 370.338L399.993 369.49L382.472 368.076L364.931 366.097L347.425 363.557L330.012 360.466L312.748 356.832L295.687 352.671L278.885 347.997L262.395 342.832L246.268 337.195L230.555 331.112L215.305 324.61L200.565 317.718L186.379 310.468L172.79 302.893L159.838 295.03L147.56 286.915L135.992 278.589L125.165 270.091L115.109 261.464L105.849 252.751L97.4092 243.996L89.8089 235.244L83.0646 226.54L77.1895 217.93L72.1934 209.459L68.0829 201.174L64.8612 193.119L62.5278 185.341L61.0791 177.882L60.5083 170.787L60.8051 164.098L61.956 157.856L63.9443 152.1L66.7505 146.868L70.3517 142.197L74.7227 138.121L79.8349 134.671L85.6577 131.877L92.1576 129.766L99.2991 128.364L107.044 127.691L115.353 127.767L124.184 128.607L133.495 130.226L143.24 132.633L153.373 135.835L163.847 139.835L174.616 144.635L185.629 150.231L196.84 156.616L208.197 163.783L219.653 171.717L231.158 180.404L242.664 189.824L254.124 199.955L265.489 210.772L276.715 222.247L287.756 234.349L298.569 247.045L309.111 260.297L319.344 274.067L329.229 288.313L338.729 302.993L347.81 318.062L356.442 333.47L364.595 349.171L372.242 365.112L379.36 381.243L385.927 397.511L391.925 413.861L397.34 430.239L402.158 446.591L406.37 462.861L409.97 478.993L412.955 494.933L415.325 510.626L417.081 526.018L418.231 541.055L418.784 555.686L418.749 569.858L418.143 583.523L416.983 596.633L415.289 609.141L413.082 621.004L410.389 632.179L407.236 642.626L403.653 652.309L399.672 661.193L395.327 669.247L390.651 676.442L385.683 682.751L380.46 688.153L375.023 692.628L369.41 696.16L363.664 698.737L357.826 700.349L351.939 700.99L346.045 700.659L340.187 699.355L334.407 697.085L328.747 693.856L323.249 689.68L317.954 684.571L312.9 678.548L308.128 671.633L303.673 663.85L299.572 655.227L295.859 645.795L292.566 635.587L289.723 624.64L287.359 612.992L285.499 600.685L284.166 587.762L283.381 574.268L283.163 560.252L283.527 545.762L284.486 530.849L286.049 515.564L288.222 499.961L291.011 484.094L294.416 468.017L298.434 451.785L303.059 435.453L308.285 419.078L314.099 402.712L320.487 386.413L327.431 370.233L334.912 354.225L342.907 338.442L351.389 322.935L360.331 307.753L369.701 292.944L379.467 278.555L389.593 264.628L400.041 251.207L410.772 238.331L421.745 226.036L432.917 214.358L444.243 203.328L455.677 192.975L467.174 183.326L478.684 174.403L490.161 166.227L501.555 158.815L512.818 152.179L523.899 146.331L534.751 141.278L545.325 137.022L555.572 133.567L565.445 130.907L574.899 129.038L583.887 127.951L592.367 127.633L600.297 128.069L607.635 129.242L614.343 131.129L620.385 133.708L625.727 136.952L630.337 140.833L634.187 145.318L637.249 150.375L639.5 155.968L640.919 162.059L641.49 168.61L641.197 175.581L640.029 182.928L637.977 190.61L635.039 198.581L631.211 206.798L626.497 215.214L620.901 223.785L614.432 232.464L607.103 241.206L598.928 249.965L589.928 258.696L580.122 267.355L569.538 275.899L558.203 284.284L546.147 292.471L533.406 300.418L520.015 308.089L506.015 315.446L491.446 322.456L476.354 329.085L460.783 335.305L444.783 341.086L428.403 346.404L411.694 351.237L394.71 355.563L377.505 359.367L360.133 362.632L342.651 365.348L325.115 367.506L307.581 369.101L290.107 370.129L272.749 370.592L255.563 370.491L238.606 369.834L221.932 368.63L205.597 366.89L189.652 364.63L174.149 361.867L159.139 358.622L144.669 354.917L130.787 350.778L117.535 346.232L104.957 341.31L93.0915 336.043L81.9752 330.466L71.6423 324.613L62.124 318.523L53.4485 312.233L45.641 305.785L38.7233 299.218L32.7142 292.576L27.6288 285.899L23.4792 279.233L20.2738 272.619L18.0177 266.102L16.7126 259.724L16.3564 253.529L16.9439 247.559L18.4664 241.856L20.9119 236.461L24.2648 231.414L28.5067 226.752L33.6156 222.514L39.5668 218.733L46.3324 215.445L53.8819 212.679L62.182 210.466L71.1968 208.832L80.888 207.802L91.2151 207.398L102.136 207.64L113.605 208.543L125.577 210.123L138.005 212.389L150.838 215.349L164.027 219.008L177.522 223.367L191.27 228.425L205.219 234.178L219.316 240.618L233.51 247.732L247.748 255.509L261.978 263.929L276.148 272.974L290.208 282.619L304.108 292.84L317.801 303.607L331.237 314.888L344.374 326.65L357.165 338.857L369.571 351.469L381.55 364.447L393.066 377.745L404.083 391.321L414.568 405.128L424.491 419.118L433.826 433.242L442.548 447.45L450.634 461.69L458.067 475.912L464.83 490.062L470.912 504.088L476.303 517.939L480.997 531.561L484.991 544.902L488.284 557.912L490.881 570.54L492.787 582.736L494.012 594.451L494.568 605.64L494.47 616.256L493.737 626.256L492.389 635.599L490.449 644.245L487.944 652.158L484.902 659.302L481.352 665.646L477.328 671.161L472.864 675.82L467.996 679.6L462.763 682.481L457.202 684.446L451.354 685.482L445.262 685.577L438.966 684.726L432.51 682.924L425.937 680.172L419.29 676.473L412.613 671.833L405.949 666.264L399.341 659.778L392.831 652.393L386.46 644.129L380.27 635.01L374.299 625.063L368.586 614.317L363.166 602.805L358.075 590.562L353.346 577.627L349.009 564.041L345.093 549.846L341.625 535.088L338.629 519.815L336.127 504.075L334.136 487.919L332.675 471.4L331.755 454.572L331.387 437.488L331.58 420.206L332.338 402.78L333.662 385.267L335.551 367.725L338.002 350.21L341.006 332.778L344.554 315.487L348.632 298.39L353.225 281.543L358.314 265L363.877 248.811L369.891 233.029L376.328 217.703L383.16 202.878L390.355 188.601L397.881 174.914L405.7 161.857L413.777 149.47L422.073 137.786L430.546 126.839L439.155 116.658L447.857 107.27L456.609 98.6986L465.364 90.9634L474.079 84.0817L482.707 78.0674L491.203 72.9308L499.521 68.6789L507.615 65.3156L515.441 62.8408L522.953 61.2516L530.109 60.5416L536.866 60.701L543.182 61.7169L549.018 63.5731L554.335 66.2505L559.098 69.7268L563.271 73.977L566.823 78.9732L569.723 84.685L571.944 91.0794L573.461 98.1211L574.252 105.773L574.296 113.995L573.578 122.746L572.084 131.983L569.803 141.661L566.728 151.736L562.855 162.159L558.183 172.884L552.714 183.862L546.453 195.044L539.411 206.382L531.597 217.825L523.029 229.326L513.725 240.835L503.705 252.305L492.995 263.689L481.623 274.94L469.619 286.013L457.016 296.865L443.85 307.454L430.16 317.738L415.986 327.681L401.372 337.244L386.363 346.395L371.005 355.1L355.348 363.331L339.441 371.061L323.337 378.264L307.088 384.92L290.747 391.01L274.37 396.519L258.01 401.432L241.724 405.742L225.566 409.44L209.591 412.523L193.855 414.99L178.412 416.844L163.315 418.09L148.616 418.737L134.367 418.795L120.618 418.279L107.417 417.206L94.8099 415.595L82.8417 413.468L71.5548 410.851L60.9889 407.769L51.1818 404.253L42.1682 400.333L33.9802 396.043L26.6472 391.418L20.1952 386.494L14.6473 381.309L10.0235 375.903L6.34015 370.315L3.6106 364.588L1.84456 358.762L1.04842 352.88L1.22498 346.984L2.37368 341.117L4.49029 335.322L7.56733 329.64L11.5937 324.114L16.555 318.783L22.4335 313.689L29.2081 308.869L36.8546 304.361L45.3457 300.202L54.6512 296.425L64.7379 293.063L75.5699 290.146L87.1089 287.704L99.3139 285.762L112.142 284.343L125.547 283.47L139.484 283.161L153.902 283.431L168.751 284.294L183.98 285.76L199.536 287.837L215.364 290.527L231.412 293.834L247.623 297.754L263.942 302.284L280.314 307.415L296.685 313.136L312.999 319.433L329.201 326.29L345.24 333.687L361.062 341.602L376.616 350.008L391.853 358.879L406.724 368.183L421.184 377.888L435.187 387.959L448.691 398.359L461.657 409.048L474.047 419.985L485.825 431.128L496.96 442.432L507.423 453.852L517.186 465.342L526.225 476.854L534.521 488.34L542.056 499.75L548.817 511.037L554.791 522.151L559.971 533.042L564.353 543.663L567.936 553.966L570.723 563.902L572.717 573.425L573.928 582.491L574.368 591.055L574.05 599.075L572.994 606.509L571.218 613.32L568.748 619.471L565.608 624.927L561.827 629.656L557.436 633.628L552.468 636.817L546.958 639.199L540.943 640.752L534.462 641.459L527.556 641.304L520.266 640.276L512.634 638.366L504.706 635.569L496.526 631.883L488.138 627.309L479.589 621.853L470.924 615.522L462.189 608.329L453.43 600.288L444.691 591.418L436.018 581.739L427.453 571.277L419.039 560.059L410.819 548.116L402.831 535.482L395.113 522.192L387.704 508.286L380.637 493.805L373.945 478.793L367.658 463.295L361.805 447.36L356.411 431.037L351.5 414.377L347.092 397.433L343.204 380.259L339.852 362.91L337.048 345.442L334.8 327.91L333.116 310.373L331.997 292.885L331.445 275.504L331.456 258.288L332.025 241.29L333.143 224.568L334.798 208.175L336.977 192.164L339.661 176.587L342.831 161.495L346.464 146.937L350.535 132.958L355.018 119.603L359.883 106.915L365.097 94.9329L370.627 83.6949L376.438 73.235L382.493 63.585L388.754 54.7735L395.18 46.8262L401.73 39.7654L408.364 33.6104L415.037 28.3771L421.708 24.0778L428.333 20.7216L434.869 18.3141L441.272 16.8575L447.499 16.3504L453.507 16.7882L459.255 18.1625L464.702 20.4619L469.807 23.6715L474.533 27.7731L478.841 32.7455L482.697 38.5644L486.066 45.2023L488.917 52.6292L491.22 60.8121L492.948 69.7155L494.076 79.3017L494.58 89.5304L494.443 100.359L493.646 111.744L492.175 123.64L490.019 135.998L487.17 148.77L483.622 161.906L479.374 175.356L474.427 189.066L468.784 202.987L462.454 217.065L455.446 231.247L447.774 245.481L439.455 259.715L430.508 273.899L420.956 287.979L410.826 301.909L400.144 315.637L388.942 329.118L377.254 342.305L365.116 355.155L352.565 367.624L339.644 379.674L326.393 391.266L312.858 402.364L299.085 412.936L285.121 422.951L271.015 432.382L256.817 441.202L242.579 449.391L228.351 456.929L214.186 463.8L200.136 469.992L186.254 475.493L172.592 480.298L159.203 484.404L146.136 487.809L133.445 490.516L121.177 492.532L109.382 493.864L98.1063 494.526L87.3961 494.531L77.295 493.898L67.8447 492.646L59.085 490.799L51.0533 488.382L43.7846 485.423L37.3111 481.952L31.6626 478.001L26.8657 473.605L22.9441 468.799L19.9185 463.621L17.8065 458.109L16.622 452.305L16.3762 446.249L17.0764 439.982L18.7266 433.549L21.3276 426.992L24.8764 420.354L29.3668 413.679L34.789 407.01L41.1299 400.39L48.3729 393.861L56.4981 387.466L65.4825 381.244L75.2999 375.235L85.9209 369.478L97.3133 364.01L109.442 358.864L122.269 354.075L135.755 349.674L149.855 345.689L164.527 342.148L179.721 339.075L195.39 336.493L211.483 334.42L227.948 332.873L244.73 331.866L261.777 331.41L279.032 331.513L296.438 332.181L313.941 333.414L331.482 335.214L349.005 337.576L366.454 340.492L383.772 343.955L400.903 347.949L417.793 352.462L434.388 357.473L450.637 362.962L466.487 368.906L481.889 375.277L496.797 382.048L511.164 389.188L524.948 396.663L538.107 404.438L550.604 412.477L562.402 420.74L573.468 429.188L583.773 437.778L593.289 446.469L601.992 455.215L609.861 463.973L616.88 472.697L623.033 481.343L628.31 489.863L632.703 498.212L636.208 506.345L638.824 514.216L640.554 521.782L641.404 528.997L641.382 535.82L640.501 542.209L638.778 548.124L636.23 553.527L632.879 558.38L628.751 562.65L623.871 566.302L618.271 569.308L611.983 571.639L605.042 573.27L597.485 574.178L589.351 574.342L580.682 573.746L571.519 572.377L561.908 570.222L551.893 567.274L541.522 563.528L530.842 558.983L519.901 553.64L508.749 547.505L497.433 540.586L486.003 532.895L474.508 524.446L462.997 515.257L451.517 505.35L440.117 494.748L428.842 483.479L417.737 471.574L406.847 459.064L396.214 445.985L385.878 432.376L375.879 418.276L366.253 403.729L357.034 388.78L348.256 373.474L339.947 357.861L332.136 341.991L324.848 325.914L318.103 309.685L311.922 293.355L306.32 276.98L301.311 260.613L296.905 244.312L293.109 228.129L289.928 212.122L287.363 196.345L285.411 180.851L284.069 165.695L283.327 150.929L283.176 136.606L283.602 122.773L284.587 109.482L286.114 96.777L288.16 84.7042L290.701 73.3059L293.711 62.6226L297.16 52.6922L301.017 43.55L305.251 35.2285L309.825 27.7575L314.704 21.1635L319.85 15.4702L325.223 10.698L330.785 6.8639L336.493 3.98168L342.306 2.06167L348.182 1.11077L354.079 1.13237L359.953 2.12639L365.762 4.08932L371.465 7.01403L377.019 10.8901L382.383 15.7036L387.518 21.4374L392.384 28.0708L396.944 35.5802L401.161 43.9388L405.001 53.1168L408.432 63.0814L411.421 73.7972L413.94 85.2263L415.964 97.3281L417.467 110.06L418.428 123.377L418.829 137.232L418.652 151.576L417.884 166.36L416.514 181.532L414.536 197.04L411.943 212.829L408.734 228.845L404.912 245.033L400.479 261.339L395.443 277.707L389.815 294.081L383.608 310.408L376.839 326.632L369.527 342.7L361.693 358.56L353.363 374.161L344.565 389.451L335.327 404.384L325.684 418.912L315.669 432.991L305.319 446.577L294.673 459.631L283.773 472.115L272.66 483.994L261.378 495.233L249.973 505.805L238.491 515.681L226.98 524.837L215.487 533.253L204.061 540.91L192.751 547.794L181.607 553.894L170.677 559.201L160.009 563.711L149.653 567.421L139.655 570.334L130.063 572.454L120.922 573.789L112.275 574.351L104.166 574.153L96.6354 573.213L89.7225 571.551L83.4643 569.189L77.8957 566.154L73.049 562.473L68.9543 558.177L65.6388 553.298L63.127 547.872L61.4405 541.935L60.5979 535.526L60.6146 528.685L61.503 521.453L63.2721 513.873L65.9276 505.989L69.4721 497.846L73.9046 489.488L79.2206 480.961L85.4125 472.311L92.4692 463.585L100.376 454.826L109.116 446.081L118.668 437.394L129.007 428.81L140.106 420.369L151.936 412.115L164.462 404.087L177.65 396.324L191.461 388.864L205.853 381.74L220.784 374.986L236.207 368.632L252.076 362.709L268.341 357.24L284.95 352.251L301.852 347.761L318.993 343.789L336.318 340.351L353.771 337.459L371.296 335.122L388.837 333.348L406.336 332.139L423.737 331.497L440.984 331.418L458.02 331.899L474.79 332.93L491.239 334.501L507.314 336.597L522.963 339.202L538.135 342.296L552.782 345.857L566.857 349.86L580.314 354.28L593.111 359.085L605.208 364.246L616.566 369.728L627.152 375.497L636.933 381.516L645.88 387.746L653.967 394.149L661.17 400.682L667.47 407.305L672.851 413.975L677.3 420.65L680.807 427.285L683.366 433.838L684.974 440.265L685.632 446.522L685.344 452.568L684.118 458.361L681.965 463.858L678.9 469.021L674.939 473.809L670.103 478.186L664.418 482.116L657.908 485.565L650.605 488.501L642.54 490.893L633.749 492.714L624.269 493.939L614.14 494.544L603.404 494.51L592.104 493.819L580.287 492.457L567.999 490.41L555.29 487.672L542.208 484.236L528.806 480.1L515.133 475.264L501.242 469.731L487.186 463.51L473.017 456.608L458.788 449.041L444.55 440.824L430.355 431.976L416.255 422.519L402.298 412.479L388.534 401.883L375.011 390.761L361.774 379.148L348.868 367.079L336.335 354.592L324.216 341.726L312.549 328.525L301.37 315.032L290.712 301.294L280.606 287.357L271.081 273.27L262.161 259.084L253.871 244.848L246.228 230.615L239.25 216.437L232.949 202.365L227.337 188.453L222.421 174.752L218.204 161.316L214.688 148.195L211.87 135.44L209.744 123.101L208.304 111.228L207.536 99.8663L207.428 89.0631L207.961 78.8621L209.115 69.3054L210.869 60.4331L213.197 52.2831L216.072 44.8906L219.463 38.2884L223.34 32.5066L227.667 27.5723L232.411 23.5099L237.532 20.3404L242.993 18.0817L248.754 16.7487L254.772 16.3528L261.008 16.902L267.418 18.4008L273.958 20.8505L280.586 24.2487L287.258 28.5897L293.931 33.8643L300.562 40.0599L307.108 47.1604L313.527 55.1467L319.779 63.9959L325.824 73.6825L331.624 84.1777L337.141 95.4495L342.34 107.463L347.188 120.182L351.653 133.565L355.706 147.571L359.319 162.155L362.468 177.269L365.13 192.866L367.285 208.895L368.917 225.304L370.011 242.04L370.555 259.048L370.542 276.273L369.964 293.66L368.821 311.151L367.111 328.69L364.838 346.22L362.01 363.684L358.634 381.026L354.722 398.191L350.291 415.123L345.358 431.769L339.944 448.076L334.071 463.993L327.766 479.47L321.056 494.459L313.973 508.916L306.549 522.795L298.819 536.057L290.82 548.661L282.59 560.573L274.169 571.758L265.598 582.186L256.921 591.829L248.181 600.663L239.422 608.667L230.689 615.822L222.028 622.114L213.485 627.531L205.105 632.065L196.935 635.712L189.019 638.469L181.402 640.34L174.128 641.329L167.24 641.446L160.779 640.701L154.786 639.11L149.299 636.692L144.356 633.468L139.991 629.461L136.238 624.7L133.127 619.212L130.687 613.032L128.943 606.192L127.919 598.731L127.635 590.686L128.108 582.099L129.354 573.012L131.383 563.469L134.205 553.516L137.823 543.198L142.241 532.564L147.457 521.661L153.466 510.539L160.261 499.246L167.83 487.831L176.16 476.343L185.232 464.831L195.026 453.343L205.519 441.927L216.683 430.629L228.49 419.494L240.906 408.567L253.896 397.89L267.424 387.505L281.448 377.449L295.927 367.761L310.815 358.475L326.067 349.625L341.634 341.24L357.467 333.348L373.514 325.974L389.723 319.142L406.04 312.869L422.412 307.174L438.783 302.07L455.099 297.567L471.304 293.674L487.343 290.395L503.16 287.731L518.703 285.682L533.916 284.243L548.747 283.407L563.145 283.162L577.059 283.497L590.439 284.395L603.241 285.837L615.417 287.802L626.925 290.266L637.725 293.203L647.778 296.584L657.048 300.378L665.502 304.554L673.111 309.077L679.846 313.909L685.684 319.015L690.604 324.355L694.589 329.89L697.623 335.577L699.697 341.377L700.803 347.245L700.936 353.141L700.097 359.022L698.288 364.845L695.515 370.567L691.79 376.147L687.125 381.545L681.536 386.719L675.045 391.63L667.673 396.241L659.448 400.516L650.398 404.418L640.557 407.916L629.958 410.977L618.64 413.573L606.643 415.678L594.008 417.265L580.782 418.314L567.009 418.805L552.739 418.721L538.022 418.048L522.908 416.775L507.451 414.893L491.703 412.399L475.719 409.288L459.555 405.563L443.264 401.227L426.902 396.287L410.525 390.752L394.187 384.637L377.943 377.956L361.847 370.728L345.95 362.976L330.305 354.724L314.962 345.998L299.969 336.828L285.374 327.247L271.221 317.289L257.553 306.989L244.411 296.388L231.834 285.526L219.857 274.443L208.514 263.186L197.834 251.797L187.846 240.324L178.573 228.814L170.038 217.315L162.259 205.876L155.251 194.544L149.025 183.37L143.592 172.402L138.955 161.69L135.117 151.281L132.078 141.223L129.832 131.563L128.372 122.346L127.689 113.618L127.767 105.421L128.59 97.7952L130.139 90.7814L132.39 84.4166L135.32 78.7359L138.9 73.7722L143.1 69.5558L147.888 66.1145L153.23 63.4731L159.088 61.6538L165.424 60.6757L172.2 60.5546L179.372 61.3035L186.899 62.9319L194.738 65.446L202.843 68.8489L211.17 73.1402L219.673 78.3159L228.306 84.369L237.023 91.2889L245.78 99.0616L254.53 107.67L263.229 117.094L271.833 127.309L280.299 138.29L288.585 150.005L296.652 162.423L304.459 175.508L311.971 189.222L319.15 203.525L325.965 218.373L332.384 233.721L338.378 249.522L343.921 265.727L348.988 282.285L353.559 299.144L357.614 316.251L361.138 333.55L364.118 350.986L366.544 368.504L368.408 386.046L369.707 403.556L370.44 420.977L370.607 438.252L370.215 455.325L369.271 472.141L367.785 488.645L365.772 504.783L363.247 520.503L360.23 535.755L356.741 550.489L352.806 564.658L348.452 578.216L343.705 591.121L338.599 603.332L333.166 614.81L327.44 625.522L321.458 635.433L315.259 644.515L308.882 652.74L302.366 660.085L295.755 666.53L289.089 672.059L282.413 676.657L275.768 680.314L269.199 683.024L262.75 684.784L256.462 685.593L250.379 685.456L244.544 684.378L238.997 682.372L233.779 679.451L228.928 675.631L224.483 670.934L220.479 665.382L216.951 659.001L213.932 651.822L211.451 643.877L209.537 635.199L208.216 625.826L207.511 615.797L207.442 605.155L208.027 593.942L209.282 582.204L211.219 569.988L213.846 557.342L217.171 544.317L221.195 530.962L225.92 517.328L231.342 503.469L237.455 489.436L244.248 475.281L251.71 461.058L259.825 446.818L268.574 432.613L277.936 418.494L287.885 404.511L298.395 390.713L309.434 377.149L320.971 363.863L332.97 350.901L345.394 338.306L358.202 326.118L371.352 314.377L384.801 303.117L398.504 292.374L412.412 282.179L426.478 272.559L440.652 263.542L454.883 255.15L469.12 247.402L483.311 240.317L497.403 233.908L511.345 228.186L525.082 223.159L538.564 218.83L551.739 215.202L564.555 212.273L576.963 210.038L588.914 208.489L600.36 207.615L611.255 207.403L621.555 207.835L631.217 208.892L640.201 210.552L648.468 212.79L655.984 215.58L662.714 218.891L668.628 222.693L673.699 226.951L677.902 231.63L681.215 236.694L683.62 242.103L685.101 247.819L685.647 253.8L685.249 260.004L683.901 266.388L681.603 272.911L678.356 279.528L674.164 286.196L669.038 292.872L662.988 299.512L656.03 306.074L648.184 312.516L639.47 318.798L629.915 324.878L619.547 330.72L608.396 336.284L596.498 341.536L583.889 346.442L570.609 350.971L556.699 355.091L542.205 358.776L527.172 362L511.648 364.741L495.685 366.978L479.333 368.695L462.646 369.875L445.677 370.507L428.483 370.583L411.118 370.096L393.64 369.042L376.105 367.423L358.57 365.239L341.092 362.499L323.726 359.209L306.529 355.382L289.557 351.033L272.862 346.178L256.497 340.839L240.515 335.037L224.965 328.799L209.894 322.152L195.35 315.126L181.376 307.754L168.013 300.071L155.302 292.112L143.278 283.916L131.975 275.522L121.424 266.973L111.655 258.31L102.69 249.576L94.5528 240.817L87.2614 232.077L80.8312 223.402L75.2741 214.837L70.599 206.428L66.8108 198.222L63.9117 190.262L61.9 182.595L60.7709 175.263L60.5164 168.31L61.1248 161.779L62.5818 155.708L64.8693 150.138L67.9668 145.106L71.8506 140.647L76.494 136.794L81.8678 133.579L87.9403 131.03L94.6773 129.174L102.042 128.034L109.997 127.631L118.5 127.983L127.511 129.104L136.984 131.008L146.875 133.703L157.137 137.194L167.724 141.485L178.587 146.574L189.678 152.457L200.947 159.128L212.346 166.574L223.825 174.784L235.337 183.739L246.831 193.42L258.262 203.803L269.582 214.863L280.746 226.569L291.709 238.89L302.428 251.792L312.863 265.236L322.974 279.184L332.723 293.594L342.075 308.42L350.997 323.617L359.458 339.138L367.43 354.931L374.888 370.948L381.808 387.134L388.171 403.438L393.959 419.805L399.158 436.18L403.757 452.508L407.748 468.735L411.125 484.804L413.886 500.66L416.033 516.25L417.569 531.519L418.5 546.415L418.838 560.885L418.595 574.879L417.785 588.348L416.429 601.245L414.546 613.524L412.159 625.141L409.296 636.057L405.984 646.231L402.253 655.628L398.135 664.214L393.666 671.959L388.88 678.835L383.815 684.818L378.51 689.885L373.004 694.02L367.338 697.206L361.553 699.434L355.693 700.694L349.798 700.982L343.912 700.298L338.078 698.643L332.337 696.024L326.731 692.449L321.302 687.933L316.09 682.49L311.134 676.141L306.472 668.907L302.142 660.816L298.178 651.896L294.614 642.178L291.481 631.698L288.809 620.491L286.624 608.599L284.953 596.063L283.817 582.928L283.236 569.239L283.228 555.045L283.806 540.396L284.983 525.342L286.767 509.935L289.163 494.23L292.176 478.28L295.803 462.141L300.043 445.866L304.887 429.512L310.328 413.134L316.352 396.786L322.944 380.524L330.086 364.4L337.756 348.468L345.93 332.78L354.583 317.385L363.684 302.333L373.201 287.671L383.102 273.445L393.35 259.697L403.905 246.469L414.729 233.799L425.779 221.724L437.012 210.278L448.382 199.491L459.845 189.39L471.352 180.002L482.856 171.349L494.309 163.448L505.661 156.316L516.863 149.965L527.867 144.405L538.623 139.641L549.084 135.676L559.201 132.509L568.927 130.138L578.217 128.554L587.026 127.747L595.311 127.705L603.03 128.411L610.144 129.845L616.615 131.987L622.406 134.81L627.486 138.289L631.824 142.392L635.39 147.089L638.161 152.345L640.112 158.123L641.225 164.386L641.484 171.094L640.874 178.206L639.387 185.68L637.014 193.472L633.752 201.537L629.603 209.832L624.567 218.31L618.653 226.925L611.871 235.632L604.233 244.386L595.756 253.14L586.461 261.85L576.37 270.472L565.509 278.963L553.909 287.281L541.6 295.385L528.619 303.236L515.002 310.797L500.791 318.032L486.027 324.907L470.755 331.391L455.023 337.455L438.879 343.071L422.374 348.216L405.559 352.867L388.489 357.005L371.216 360.615L353.798 363.682L336.29 366.196L318.748 368.151L301.229 369.54L283.79 370.362L266.488 370.62L249.379 370.316L232.519 369.46L215.962 368.059L199.762 366.129L183.971 363.684L168.642 360.744L153.822 357.329L139.56 353.464L125.902 349.174L112.89 344.488L100.566 339.437L88.9685 334.053L78.1327 328.372L68.092 322.428L58.8765 316.261L50.5133 309.909L43.0264 303.413L36.4365 296.814L30.761 290.154L26.0141 283.476L22.2063 276.824L19.3451 270.24L17.4341 263.768L16.4738 257.452L16.4609 251.334L17.389 245.456L19.248 239.861L22.0248 234.587L25.7027 229.676L30.2619 225.163L35.6795 221.087L41.9297 217.481L48.9835 214.379L56.8094 211.81L65.3731 209.804L74.638 208.387L84.5648 207.582L95.1123 207.41L106.237 207.89L117.895 209.038L130.038 210.865L142.618 213.382L155.586 216.596L168.893 220.509L182.485 225.122L196.312 230.434L210.321 236.437L224.46 243.123L238.675 250.479L252.916 258.491L267.13 267.141L281.266 276.406L295.274 286.264L309.104 296.686L322.709 307.643L336.042 319.103L349.058 331.031L361.715 343.39L373.97 356.139L385.785 369.238L397.124 382.643L407.951 396.308L418.236 410.187L427.949 424.231L437.064 438.392L445.557 452.617L453.408 466.857L460.6 481.058L467.117 495.17L472.949 509.138L478.088 522.912L482.528 536.438L486.267 549.665L489.307 562.542L491.652 575.019L493.31 587.046L494.291 598.575L494.607 609.561L494.277 619.959L493.318 629.725L491.752 638.82L489.604 647.204L486.9 654.841L483.67 661.698L479.945 667.745L475.757 672.952L471.142 677.294L466.137 680.75L460.78 683.301L455.111 684.93L449.169 685.625L442.998 685.378L436.639 684.182L430.136 682.035L423.531 678.939L416.868 674.897L410.191 669.919L403.542 664.015L396.965 657.201L390.501 649.494L384.191 640.917L378.076 631.494L372.194 621.253L366.583 610.225L361.278 598.444L356.315 585.946L351.725 572.769L347.537 558.957L343.781 544.553L340.482 529.602L337.663 514.153L335.344 498.257L333.544 481.963L332.277 465.325L331.557 448.398L331.392 431.236L331.789 413.895L332.753 396.431L334.282 378.901L336.376 361.362L339.028 343.871L342.231 326.483L345.974 309.256L350.241 292.244L355.016 275.501L360.28 259.081L366.009 243.034L372.18 227.412L378.764 212.262L385.731 197.631L393.05 183.563L400.687 170.1L408.604 157.282L416.765 145.146L425.13 133.726L433.657 123.054L442.305 113.158L451.03 104.064L459.788 95.7935L468.534 88.3662L477.223 81.798L485.808 76.1012L494.245 71.2851L502.487 67.3555L510.489 64.3147L518.206 62.1619L525.594 60.8927L532.61 60.4996L539.211 60.9715L545.358 62.2944L551.01 64.451L556.13 67.4211L560.682 71.1813L564.634 75.7056L567.953 80.9652L570.609 86.9286L572.578 93.5622L573.833 100.83L574.355 108.693L574.125 117.112L573.126 126.044L571.348 135.447L568.779 145.274L565.415 155.481L561.252 166.019L556.29 176.842L550.533 187.899L543.987 199.144L536.663 210.525L528.574 221.995L519.736 233.504L510.17 245.005L499.897 256.449L488.943 267.79L477.338 278.981L465.112 289.979L452.301 300.741L438.94 311.223L425.069 321.388L410.731 331.197L395.968 340.615L380.827 349.607L365.355 358.144L349.601 366.196L333.617 373.737L317.453 380.744L301.165 387.197L284.804 393.078L268.427 398.371L252.088 403.067L235.842 407.155L219.744 410.63L203.85 413.489L188.214 415.734L172.89 417.366L157.931 418.394L143.39 418.825L129.317 418.674L115.761 417.953L102.77 416.682L90.3901 414.882L78.6643 412.574L67.6346 409.785L57.3399 406.542L47.8169 402.875L39.0994 398.817L31.2185 394.402L24.2024 389.664L18.076 384.64L12.8614 379.371L8.57714 373.894L5.23864 368.251L2.85785 362.482L1.44327 356.631L1 350.739L1.52967 344.849L3.03029 339.003L5.49657 333.245L8.91961 327.614L13.2871 322.154L18.5835 316.905L24.7898 311.906L31.8839 307.195L39.8402 302.809L48.6306 298.785L58.2236 295.155L68.585 291.951L79.6782 289.204L91.4637 286.94L103.9 285.185L116.943 283.962L130.547 283.292L144.663 283.191L159.244 283.675L174.237 284.756L189.591 286.443L205.252 288.742L221.166 291.656L237.279 295.186L253.536 299.328L269.881 304.077L286.259 309.423L302.615 315.355L318.895 321.858L335.044 328.914L351.01 336.501L366.741 344.597L382.186 353.175L397.295 362.207L412.022 371.661L426.321 381.503L440.148 391.697L453.461 402.207L466.222 412.991L478.394 424.008L489.943 435.214L500.837 446.566L511.048 458.017L520.551 469.52L529.323 481.028L537.345 492.492L544.6 503.863L551.076 515.093L556.763 526.132L561.654 536.931L565.746 547.442L569.04 557.617L571.538 567.408L573.246 576.771L574.176 585.659L574.339 594.031L573.751 601.843L572.431 609.055L570.401 615.631L567.684 621.533L564.308 626.729L560.302 631.186L555.698 634.877L550.529 637.776L544.831 639.859L538.643 641.107L532.003 641.503L524.952 641.032L517.533 639.685L509.789 637.453L501.764 634.334L493.503 630.325L485.051 625.431L476.455 619.656L467.759 613.011L459.01 605.508L450.253 597.164L441.533 587.997L432.894 578.031L424.38 567.291L416.031 555.807L407.89 543.609L399.996 530.732L392.387 517.214L385.098 503.094L378.163 488.415L371.615 473.221L365.482 457.559L359.793 441.478L354.572 425.026L349.841 408.257L345.62 391.224L341.925 373.98L338.771 356.581L336.167 339.083L334.124 321.543L332.644 304.017L331.731 286.562L331.384 269.234L331.599 252.09L332.368 235.186L333.682 218.577L335.529 202.317L337.893 186.458L340.756 171.051L344.097 156.147L347.892 141.794L352.116 128.036L356.741 114.919L361.736 102.482L367.069 90.7664L372.706 79.8069L378.61 69.6374L384.744 60.2886L391.069 51.788L397.545 44.16L404.13 37.4259L410.783 31.6038L417.461 26.7081L424.121 22.7502L430.718 19.7379L437.21 17.6755L443.554 16.5638L449.707 16.4004L455.626 17.1792L461.269 18.8908L466.596 21.5224L471.568 25.058L476.147 29.4784L480.295 34.761L483.978 40.8804L487.162 47.8083L489.818 55.5135L491.915 63.9621L493.428 73.1179L494.332 82.942L494.606 93.3935L494.23 104.43L493.19 116.005L491.472 128.074L489.065 140.588L485.963 153.498L482.162 166.754L477.66 180.304L472.459 194.097L466.566 208.081L459.988 222.202L452.737 236.41L444.828 250.65L436.279 264.872L427.11 279.024L417.345 293.055L407.011 306.917L396.137 320.561L384.755 333.94L372.899 347.01L360.606 359.726L347.916 372.048L334.87 383.936L321.511 395.353L307.884 406.264L294.036 416.637L280.015 426.443L265.87 435.655L251.652 444.249L237.411 452.203L223.2 459.501L209.071 466.127L195.076 472.068L181.268 477.318L167.698 481.869L154.42 485.72L141.484 488.872L128.941 491.327L116.839 493.094L105.227 494.181L94.1515 494.603L83.6574 494.374L73.7877 493.514L64.5836 492.043L56.084 489.986L48.3253 487.369L41.3416 484.221L35.1643 480.572L29.8219 476.455L25.34 471.906L21.7414 466.961L19.0456 461.657L17.2687 456.035L16.4238 450.134L16.5206 443.996L17.5654 437.665L19.5608 431.181L22.5063 424.59L26.3978 417.933L31.2277 411.255L36.985 404.599L43.6553 398.007L51.221 391.522L59.6609 385.185L68.9508 379.037L79.0634 373.115L89.9682 367.458L101.632 362.103L114.019 357.083L127.09 352.431L140.803 348.178L155.117 344.351L169.983 340.978L185.356 338.08L201.185 335.681L217.419 333.797L234.005 332.444L250.89 331.636L268.018 331.382L285.335 331.69L302.783 332.563L320.306 334.002L337.847 336.006L355.35 338.57L372.757 341.686L390.014 345.344L407.064 349.528L423.853 354.224L440.328 359.411L456.438 365.068L472.131 371.17L487.359 377.69L502.076 384.599L516.236 391.864L529.798 399.452L542.721 407.328L554.968 415.452L566.504 423.787L577.297 432.292L587.319 440.923L596.542 449.639L604.945 458.395L612.508 467.146L619.214 475.847L625.05 484.452L630.007 492.915L634.078 501.191L637.26 509.234L639.554 517L640.964 524.443L641.496 531.521L641.161 538.191L639.972 544.413L637.947 550.146L635.105 555.354L631.469 559.999L627.065 564.048L621.92 567.47L616.067 570.234L609.538 572.313L602.369 573.684L594.598 574.324L586.264 574.215L577.411 573.34L568.08 571.686L558.317 569.244L548.168 566.007L537.679 561.97L526.899 557.136L515.876 551.505L504.658 545.084L493.295 537.883L481.836 529.915L470.33 521.195L458.824 511.743L447.368 501.581L436.008 490.734L424.79 479.23L413.758 467.101L402.956 454.381L392.426 441.105L382.208 427.313L372.34 413.046L362.858 398.347L353.796 383.263L345.184 367.84L337.054 352.128L329.43 336.177L322.336 320.039L315.794 303.767L309.821 287.414L304.433 271.036L299.641 254.686L295.456 238.422L291.883 222.297L288.926 206.366L286.584 190.686L284.854 175.309L283.73 160.288L283.205 145.677L283.265 131.526L283.895 117.884L285.08 104.8L286.798 92.3199L289.027 80.4872L291.741 69.3439L294.913 58.9296L298.514 49.2813L302.512 40.4333L306.873 32.4172L311.563 25.2615L316.543 18.9919L321.776 13.6307L327.222 9.19718L332.842 5.70716L338.593 3.17315L344.434 1.60424L350.322 1.00609L356.215 1.38084L362.071 2.72711L367.846 5.0401L373.5 8.31148L378.989 12.5296L384.275 17.6792L389.317 23.742L394.076 30.6963L398.516 38.5172L402.6 47.1767L406.295 56.6442L409.569 66.8856L412.391 77.8649L414.734 89.5429L416.571 101.878L417.88 114.828L418.639 128.345L418.832 142.384L418.442 156.894L417.457 171.825L415.867 187.125L413.666 202.74L410.85 218.618L407.418 234.703L403.373 250.941L398.72 267.275L393.468 283.652L387.628 300.015L381.216 316.311L374.247 332.485L366.743 348.483L358.726 364.255L350.223 379.749L341.261 394.915L331.873 409.706L322.09 424.076L311.949 437.981L301.487 451.379L290.744 464.23L279.762 476.498L268.582 488.148L257.251 499.149L245.812 509.471L234.314 519.088L222.804 527.978L211.33 536.12L199.94 543.499L188.685 550.1L177.613 555.912L166.772 560.931L156.212 565.15L145.981 568.571L136.125 571.195L126.691 573.029L117.724 574.082L109.268 574.366L101.364 573.897L94.053 572.692L87.3736 570.773L81.3618 568.164L76.0515 564.891L71.4745 560.983L67.6596 556.472L64.6331 551.39L62.4184 545.774L61.0362 539.662L60.5039 533.091L60.8357 526.103L62.0429 518.74L64.1332 511.044L67.1113 503.061L70.9783 494.835L75.7321 486.41L81.3671 477.834L87.8744 469.151L95.2416 460.407L103.453 451.648L112.49 442.919L122.33 434.265L132.949 425.727L144.317 417.35L156.403 409.173L169.174 401.237L182.593 393.58L196.619 386.237L211.212 379.244L226.327 372.632L241.918 366.431L257.936 360.67L274.332 355.373L291.054 350.562L308.049 346.259L325.262 342.479L342.64 339.238L360.126 336.546L377.663 334.413L395.196 332.843L412.666 331.84L430.018 331.403L447.194 331.529L464.14 332.21L480.8 333.439L497.119 335.202L513.046 337.484L528.527 340.269L543.515 343.535L557.959 347.26L571.815 351.418L585.037 355.981L597.584 360.919L609.417 366.2L620.5 371.791L630.797 377.655L640.278 383.755L648.916 390.052L656.684 396.507L663.562 403.078L669.53 409.723L674.574 416.399L678.682 423.065L681.846 429.675L684.059 436.187L685.322 442.557L685.637 448.743L685.007 454.702L683.443 460.392L680.957 465.773L677.565 470.804L673.284 475.447L668.137 479.666L662.149 483.426L655.348 486.692L647.764 489.433L639.432 491.622L630.386 493.229L620.666 494.232L610.311 494.607L599.365 494.336L587.873 493.403L575.879 491.793L563.433 489.497L550.582 486.506L537.378 482.816L523.872 478.425L510.114 473.336L496.157 467.552L482.054 461.083L467.857 453.938L453.619 446.133L439.39 437.684L425.224 428.613L411.17 418.941L397.278 408.696L383.596 397.905L370.172 386.602L357.05 374.819L344.274 362.593L331.887 349.964L319.927 336.972L308.433 323.66L297.439 310.072L286.978 296.256L277.08 282.259L267.772 268.131L259.079 253.92L251.021 239.68L243.618 225.46L236.884 211.314L230.833 197.295L225.472 183.453L220.81 169.842L216.847 156.514L213.585 143.521L211.019 130.911L209.143 118.736L207.948 107.043L207.421 95.8786L207.548 85.2889L208.309 75.3169L209.684 66.0041L211.649 57.3897L214.179 49.5107L217.245 42.4014L220.816 36.0936L224.86 30.6164L229.343 25.9959L234.228 22.2553L239.477 19.4145L245.051 17.4903L250.91 16.4962L257.013 16.4426L263.317 17.3361L269.779 19.18L276.356 21.9744L283.005 25.7157L289.682 30.3967L296.345 36.0072L302.95 42.5333L309.454 49.9577L315.818 58.2599L321.999 67.4162L327.959 77.3998L333.661 88.1806L339.066 99.7259L344.142 112L348.855 124.965L353.173 138.579L357.07 152.8L360.517 167.581L363.492 182.877L365.972 198.636L367.939 214.809L369.377 231.343L370.273 248.184L370.615 265.277L370.397 282.568L369.615 299.999L368.265 317.514L366.351 335.056L363.876 352.569L360.847 369.995L357.275 387.279L353.173 404.366L348.558 421.2L343.448 437.729L337.864 453.901L331.831 469.663L325.376 484.969L318.527 499.77L311.316 514.022L303.777 527.682L295.945 540.709L287.858 553.066L279.553 564.718L271.073 575.632L262.459 585.778L253.754 595.13L245.001 603.665L236.247 611.363L227.535 618.206L218.911 624.182L210.422 629.279L202.114 633.491L194.03 636.815L186.218 639.251L178.72 640.801L171.581 641.472L164.843 641.274L158.548 640.221L152.734 638.327L147.44 635.614L142.703 632.103L138.557 627.819L135.033 622.79L132.162 617.047L129.972 610.623L128.487 603.554L127.729 595.876L127.718 587.63L128.471 578.856L129.999 569.599L132.315 559.902L135.426 549.811L139.334 539.373L144.042 528.636L149.546 517.648L155.842 506.457L162.919 495.114L170.766 483.667L179.367 472.165L188.704 460.657L198.755 449.189L209.495 437.811L220.896 426.567L232.927 415.502L245.556 404.661L258.746 394.085L272.459 383.815L286.653 373.889L301.285 364.342L316.311 355.211L331.683 346.526L347.353 338.317L363.269 330.61L379.381 323.431L395.635 316.799L411.979 310.735L428.357 305.253L444.714 300.366L460.996 296.083L477.147 292.413L493.112 289.357L508.836 286.917L524.265 285.09L539.346 283.87L554.026 283.25L568.253 283.218L581.979 283.759L595.155 284.856L607.734 286.491L619.673 288.64L630.929 291.278L641.462 294.38L651.235 297.915L660.212 301.852L668.363 306.157L675.657 310.797L682.07 315.733L687.577 320.929L692.159 326.344L695.8 331.938L698.487 337.671L700.21 343.501L700.963 349.384L700.744 355.28L699.552 361.144L697.392 366.935L694.273 372.611L690.205 378.129L685.202 383.45L679.284 388.534L672.47 393.34L664.785 397.833L656.257 401.977L646.916 405.736L636.796 409.079L625.931 411.975L614.362 414.395L602.128 416.315L589.274 417.709L575.844 418.558L561.885 418.842L547.447 418.545L532.58 417.656L517.335 416.163L501.766 414.059L485.926 411.341L469.871 408.007L453.654 404.06L437.331 399.503L420.957 394.346L404.588 388.599L388.278 382.276L372.082 375.395L356.051 367.974L340.24 360.037L324.699 351.61L309.477 342.719L294.624 333.397L280.183 323.674L266.202 313.588L252.72 303.175L239.779 292.474L227.416 281.527L215.665 270.376L204.559 259.065L194.128 247.641L184.397 236.149L175.389 224.637L167.127 213.154L159.626 201.748L152.9 190.468L146.961 179.363L141.816 168.482L137.47 157.874L133.922 147.587L131.171 137.668L129.212 128.164L128.035 119.12L127.63 110.579L127.98 102.585L129.069 95.1769L130.876 88.3945L133.377 82.274L136.546 76.8498L140.354 72.154L144.772 68.2158L149.765 65.0621L155.298 62.7167L161.334 61.2007L167.835 60.5319L174.759 60.7253L182.065 61.7924L189.711 63.7417L197.651 66.5783L205.842 70.3038L214.238 74.9167L222.793 80.4118L231.462 86.7809L240.199 94.0121L248.958 102.09L257.695 110.997L266.364 120.711L274.923 131.208L283.329 142.458L291.54 154.433L299.517 167.097L307.221 180.415L314.616 194.348L321.668 208.853L328.342 223.888L334.61 239.406L340.444 255.36L345.816 271.699L350.706 288.372L355.091 305.327L358.955 322.51L362.283 339.865L365.063 357.338L367.286 374.871L368.945 392.408L370.038 409.892L370.566 427.266L370.529 444.475L369.936 461.461L368.794 478.17L367.115 494.547L364.914 510.54L362.208 526.096L359.017 541.165L355.364 555.699L351.273 569.651L346.773 582.977L341.892 595.635L336.663 607.584L331.12 618.789L325.297 629.213L319.232 638.826L312.963 647.6L306.531 655.509L299.976 662.529L293.34 668.644L286.665 673.836L279.995 678.094L273.373 681.408L266.843 683.773L260.447 685.187L254.229 685.652L248.231 685.173L242.495 683.757L237.063 681.417L231.974 678.167L227.266 674.027L222.977 669.016L219.142 663.16L215.795 656.487L212.968 649.025L210.69 640.81L208.988 631.875L207.888 622.26L207.411 612.003L207.578 601.149L208.404 589.74L209.905 577.823L212.092 565.446L214.972 552.656L218.55 539.505L222.829 526.043L227.808 512.322L233.481 498.393L239.842 484.31L246.88 470.124L254.581 455.889L262.929 441.655L271.903 427.476L281.48 413.4L291.636 399.479L302.342 385.761L313.566 372.292L325.275 359.119L337.432 346.286L350 333.834L362.937 321.803L376.201 310.233L389.748 299.157L403.531 288.609L417.502 278.619L431.613 269.216L445.813 260.423L460.053 252.262L474.279 244.754L488.44 237.912L502.483 231.752L516.357 226.281L530.008 221.507L543.384 217.433L556.434 214.059L569.108 211.382L581.356 209.397L593.129 208.095L604.381 207.462L615.065 207.486L625.138 208.147L634.558 209.426L643.286 211.299L651.285 213.74L658.519 216.723L664.956 220.216L670.568 224.187L675.326 228.602L679.208 233.426L682.194 238.619L684.265 244.145L685.408 249.961L685.612 256.028L684.87 262.302L683.177 268.742L680.534 275.304L676.943 281.944L672.411 288.62L666.948 295.288L660.566 301.905L653.284 308.428L645.12 314.817L636.098 321.03L626.244 327.028L615.588 332.773L604.162 338.228L592.002 343.359L579.145 348.131L565.631 352.515L551.504 356.48L536.808 360.001L521.592 363.052L505.903 365.612L489.792 367.662L473.313 369.186L456.517 370.168L439.46 370.6L422.197 370.471L404.785 369.779L387.28 368.52L369.738 366.695L352.217 364.309L334.773 361.368L317.462 357.882L300.341 353.863L283.462 349.328L266.881 344.295L250.65 338.786L234.819 332.822L219.437 326.432L204.552 319.644L190.21 312.489L176.453 305L163.323 297.212L150.856 289.163L139.09 280.89L128.057 272.435L117.787 263.84L108.307 255.146L99.6401 246.398L91.8078 237.641L84.8274 228.919L78.7128 220.278L73.475 211.765L69.1214 203.424L65.6558 195.302L63.0791 187.443L61.3885 179.892L60.578 172.694L60.6381 165.889L61.5564 159.52L63.317 153.627L65.9011 148.248L69.2868 143.42L73.4495 139.177L78.3615 135.552L83.9927 132.576L90.3105 130.275L97.2798 128.676L104.863 127.801L113.022 127.67L121.714 128.3L130.898 129.704L140.528 131.895L150.559 134.878L160.945 138.659L171.637 143.24L182.589 148.618L193.75 154.788L205.072 161.741L216.506 169.467L228.002 177.949L239.513 187.17L250.99 197.109L262.386 207.74L273.654 219.038L284.75 230.972L295.63 243.508L306.251 256.611L316.572 270.243L326.556 284.363L336.165 298.929L345.364 313.895L354.122 329.215L362.409 344.841L370.197 360.721L377.463 376.806L384.183 393.041L390.338 409.374L395.914 425.75L400.897 442.115L405.276 458.412L409.044 474.588L412.198 490.586L414.736 506.352L416.66 521.832L417.976 536.971L418.691 551.719L418.816 566.022L418.365 579.831L417.355 593.097L415.805 605.775L413.736 617.819L411.174 629.186L408.144 639.837L404.676 649.733L400.801 658.839L396.552 667.124L391.964 674.556L387.072 681.111L381.915 686.764L376.532 691.494L370.963 695.287L365.25 698.126L359.433 700.003L353.555 700.911L347.659 700.846L341.787 699.809L335.981 697.803L330.284 694.836L324.738 690.918L319.383 686.063L314.259 680.289L309.406 673.616L304.86 666.069L300.659 657.673L296.836 648.459L293.425 638.461L290.456 627.712L287.958 616.252L285.957 604.122L284.478 591.363L283.541 578.021L283.166 564.144L283.369 549.778L284.163 534.976L285.56 519.788L287.566 504.267L290.186 488.467L293.421 472.442L297.271 456.247L301.731 439.937L306.793 423.568L312.447 407.194L318.68 390.871L325.473 374.653L332.809 358.593L340.666 342.743L349.017 327.156L357.835 311.88L367.092 296.964L376.752 282.455L386.783 268.397L397.147 254.834L407.805 241.804L418.716 229.346L429.837 217.496L441.125 206.285L452.534 195.744L464.019 185.9L475.53 176.776L487.021 168.393L498.443 160.77L509.746 153.92L520.882 147.855L531.802 142.584L542.457 138.109L552.798 134.435L562.778 131.557L572.352 129.472L581.472 128.172L590.096 127.644L598.18 127.875L605.684 128.848L612.569 130.542L618.797 132.934L624.334 135.998L629.148 139.707L633.209 144.03L636.489 148.934L638.965 154.383L640.614 160.342L641.419 166.771L641.364 173.631L640.436 180.879L638.628 188.473L635.933 196.37L632.349 204.524L627.877 212.89L622.522 221.423L616.291 230.077L609.197 238.806L601.252 247.565L592.476 256.308L582.889 264.991L572.515 273.571L561.383 282.004L549.522 290.249L536.965 298.265L523.748 306.016L509.911 313.462L495.494 320.571L480.54 327.307L465.096 333.642L449.209 339.546L432.928 344.994L416.304 349.962L399.39 354.429L382.24 358.377L364.909 361.791L347.451 364.659L329.924 366.971L312.384 368.72L294.888 369.904L277.492 370.521L260.254 370.574L243.228 370.069L226.472 369.014L210.038 367.419L193.981 365.3L178.352 362.673L163.202 359.558L148.579 355.977L134.531 351.954L121.103 347.517L108.336 342.695L96.2711 337.519L84.9459 332.024L74.395 326.243L64.6505 320.214L55.7413 313.975L47.6936 307.566L40.53 301.028L34.2701 294.402L28.9302 287.73L24.5231 281.057L21.0582 274.424L18.5416 267.876L16.9758 261.456L16.3598 255.206L16.6894 249.171L17.9567 243.391L20.1505 237.907L23.2564 232.761L27.2566 227.99L32.1302 223.632L37.8531 219.722L44.3985 216.295L51.7363 213.383L59.8341 211.016L68.6566 209.221L78.1664 208.023L88.3234 207.446L99.0856 207.508L110.409 208.229L122.248 209.622L134.555 211.699L147.283 214.468L160.379 217.935L173.795 222.102L187.479 226.97L201.378 232.533L215.44 238.785L229.613 245.716L243.844 253.312L258.081 261.558L272.272 270.434L286.368 279.917L300.317 289.983L314.071 300.603L327.582 311.746L340.805 323.38L353.696 335.469L366.211 347.974L378.311 360.855L389.957 374.07L401.114 387.575L411.748 401.323L421.829 415.268L431.327 429.36L440.219 443.55L448.482 457.786L456.095 472.018L463.044 486.193L469.313 500.259L474.895 514.163L479.78 527.852L483.966 541.276L487.451 554.382L490.238 567.119L492.333 579.438L493.744 591.29L494.481 602.628L494.561 613.405L494 623.578L492.818 633.106L491.038 641.947L488.686 650.064L485.787 657.422L482.374 663.988L478.476 669.733L474.129 674.629L469.369 678.652L464.231 681.782L458.756 683.999L452.983 685.291L446.954 685.645L440.71 685.054L434.293 683.513L427.748 681.021L421.117 677.581L414.444 673.198L407.772 667.882L401.144 661.646L394.603 654.506L388.191 646.481L381.947 637.594L375.912 627.87L370.124 617.34L364.62 606.035L359.436 593.989L354.604 581.24L350.157 567.828L346.123 553.795L342.53 539.187L339.402 524.05L336.762 508.433L334.63 492.386L333.022 475.962L331.952 459.213L331.432 442.194L331.471 424.96L332.074 407.568L333.242 390.073L334.977 372.534L337.274 355.005L340.128 337.545L343.528 320.21L347.462 303.054L351.916 286.133L356.871 269.501L362.307 253.211L368.199 237.312L374.523 221.856L381.25 206.889L388.349 192.457L395.787 178.604L403.53 165.371L411.54 152.797L419.779 140.917L428.208 129.765L436.784 119.371L445.465 109.764L454.207 100.966L462.966 92.9995L471.697 85.8823L480.353 79.6291L488.89 74.251L497.261 69.7562L505.421 66.1491L513.325 63.4309L520.928 61.5995L528.185 60.6493L535.056 60.5715L541.497 61.3541L547.468 62.9817L552.931 65.4361L557.85 68.6958L562.188 72.7364L565.913 77.5311L568.995 83.0499L571.405 89.2606L573.117 96.1285L574.109 103.617L574.359 111.687L573.852 120.297L572.572 129.405L570.507 138.967L567.651 148.937L563.996 159.27L559.543 169.917L554.292 180.83L548.248 191.961L541.418 203.261L533.815 214.68L525.452 226.17L516.347 237.682L506.521 249.168L495.998 260.579L484.805 271.871L472.971 282.998L460.528 293.915L447.513 304.58L433.963 314.951L419.917 324.991L405.42 334.662L390.514 343.93L375.247 352.76L359.667 361.124L343.824 368.993L327.768 376.343L311.553 383.151L295.232 389.398L278.86 395.067L262.49 400.145L246.178 404.621L229.979 408.487L213.949 411.739L198.142 414.375L182.613 416.397L167.416 417.809L152.603 418.619L138.226 418.837L124.335 418.477L110.978 417.555L98.204 416.089L86.0565 414.101L74.5787 411.616L63.8113 408.659L53.7926 405.258L44.5582 401.446L36.1409 397.254L28.5707 392.717L21.8748 387.871L16.077 382.754L11.1981 377.405L7.25545 371.863L4.26333 366.169L2.23241 360.366L1.16995 354.495L1.07979 348.599L1.96225 342.72L3.81417 336.901L6.62886 331.184L10.3963 325.611L15.1029 320.223L20.732 315.06L27.2632 310.161L34.6733 305.564L42.9358 301.305L52.0212 297.42L61.8972 293.941L72.5286 290.9L83.8777 288.325L95.9044 286.243L108.566 284.679L121.818 283.654L135.613 283.189L149.904 283.299L164.64 283.998L179.771 285.298L195.242 287.206L211.001 289.728L226.994 292.866L243.166 296.619L259.461 300.982L275.824 305.949L292.201 311.509L308.535 317.65L324.774 324.356L340.863 331.607L356.749 339.382L372.382 347.656L387.711 356.402L402.687 365.591L417.264 375.19L431.396 385.164L445.041 395.477L458.159 406.091L470.71 416.964L482.659 428.055L493.974 439.32L504.623 450.713L514.58 462.188L523.82 473.699L532.322 485.197L540.068 496.633L547.041 507.958L553.232 519.124L558.63 530.082L563.232 540.782L567.034 551.176L570.038 561.217L572.248 570.858L573.673 580.054L574.323 588.76L574.212 596.933L573.356 604.532L571.775 611.517L569.493 617.853L566.534 623.502L562.925 628.433L558.698 632.616L553.885 636.022L548.52 638.627L542.64 640.41L536.283 641.35L529.489 641.433L522.3 640.645L514.758 638.977L506.907 636.424L498.791 632.981L490.455 628.651L481.946 623.436L473.308 617.344L464.588 610.386L455.83 602.576L447.082 593.931L438.386 584.471L429.787 574.221L421.328 563.208L413.051 551.46L404.995 539.012L397.2 525.898L389.702 512.157L382.538 497.829L375.74 482.958L369.339 467.589L363.365 451.769L357.843 435.547L352.797 418.974L348.249 402.103L344.217 384.987L340.717 367.68L337.762 350.239L335.361 332.719L333.521 315.177L332.247 297.67L331.54 280.255L331.397 262.988L331.814 245.925L332.783 229.121L334.292 212.633L336.329 196.512L338.876 180.811L341.915 165.582L345.423 150.872L349.377 136.729L353.75 123.199L358.513 110.324L363.634 98.145L369.082 86.6995L374.82 76.023L380.812 66.148L387.02 57.104L393.404 48.9174L399.925 41.6116L406.539 35.2066L413.206 29.7192L419.882 25.1628L426.524 21.5473L433.089 18.8795L439.532 17.1622L445.812 16.3952L451.884 16.5746L457.708 17.6932L463.241 19.7403L468.444 22.7021L473.277 26.5612L477.704 31.2972L481.687 36.8866L485.193 43.3029L488.189 50.5166L490.645 58.4957L492.533 67.2053L493.828 76.6083L494.505 86.6649L494.545 97.3337L493.931 108.571L492.646 120.331L490.679 132.567L488.02 145.231L484.665 158.272L480.609 171.641L475.853 185.285L470.4 199.153L464.257 213.193L457.433 227.352L449.942 241.577L441.798 255.816L433.022 270.019L423.634 284.133L413.659 298.108L403.125 311.897L392.063 325.45L380.504 338.722L368.486 351.668L356.044 364.246L343.22 376.415L330.056 388.136L316.594 399.373L302.882 410.093L288.965 420.263L274.893 429.856L260.716 438.846L246.483 447.211L232.247 454.929L218.06 461.984L203.973 468.363L190.04 474.054L176.312 479.051L162.843 483.348L149.683 486.945L136.884 489.843L124.495 492.047L112.565 493.566L101.143 494.41L90.2733 494.594L80.0009 494.134L70.3682 493.049L61.4154 491.363L53.1805 489.1L45.6993 486.286L39.0048 482.952L33.1274 479.13L28.0945 474.852L23.9308 470.155L20.6577 465.075L18.2937 459.651L16.8537 453.923L16.3497 447.932L16.79 441.719L18.1796 435.327L20.5201 428.799L23.8096 422.179L28.0427 415.51L33.2107 408.835L39.3012 402.197L46.2987 395.639L54.1843 389.203L62.9357 382.93L72.5275 376.859L82.9313 371.029L94.1156 365.478L106.046 360.24L118.686 355.35L131.995 350.84L145.931 346.738L160.451 343.073L175.507 339.87L191.051 337.151L207.033 334.936L223.4 333.244L240.101 332.088L257.081 331.48L274.284 331.429L291.655 331.941L309.137 333.02L326.673 334.665L344.207 336.873L361.681 339.638L379.041 342.952L396.228 346.802L413.19 351.174L429.872 356.051L446.22 361.411L462.184 367.233L477.714 373.49L492.762 380.154L507.282 387.196L521.23 394.583L534.564 402.279L547.246 410.25L559.239 418.455L570.509 426.856L581.025 435.412L590.76 444.079L599.688 452.814L607.788 461.574L615.042 470.312L621.433 478.983L626.951 487.542L631.587 495.943L635.336 504.14L638.196 512.087L640.168 519.741L641.258 527.056L641.474 533.991L640.827 540.503L639.333 546.552L637.009 552.099L633.876 557.106L629.958 561.539L625.282 565.364L619.876 568.55L613.773 571.069L607.008 572.894L599.616 574.002L591.636 574.372L583.109 573.986L574.077 572.83L564.585 570.891L554.676 568.161L544.398 564.634L533.798 560.308L522.924 555.184L511.824 549.265L500.548 542.56L489.145 535.079L477.663 526.836L466.151 517.848L454.658 508.136L443.232 497.722L431.918 486.633L420.762 474.899L409.809 462.551L399.101 449.624L388.68 436.157L378.584 422.187L368.852 407.759L359.519 392.915L350.617 377.702L342.176 362.169L334.227 346.364L326.793 330.339L319.897 314.146L313.559 297.838L307.797 281.47L302.624 265.096L298.052 248.771L294.089 232.55L290.739 216.49L288.005 200.644L285.885 185.067L284.376 169.813L283.471 154.935L283.159 140.485L283.428 126.513L284.262 113.069L285.643 100.199L287.549 87.9483L289.957 76.361L292.841 65.4778L296.172 55.3374L299.921 45.9757L304.055 37.4262L308.539 29.7192L313.338 22.8824L318.415 16.94L323.73 11.9135L329.244 7.8207L334.916 4.67639L340.705 2.49181L346.568 1.27474L352.463 1.02963L358.347 1.7573L364.178 3.45517L369.914 6.11716L375.513 9.73366L380.934 14.2918L386.135 19.7752L391.079 26.1642L395.726 33.436L400.041 41.5647L403.988 50.5211L407.534 60.2736L410.647 70.7871L413.298 82.0246L415.46 93.9462L417.108 106.51L418.22 119.671L418.776 133.383L418.758 147.598L418.154 162.267L416.95 177.338L415.139 192.758L412.715 208.475L409.675 224.435L406.02 240.582L401.754 256.861L396.883 273.217L391.416 289.595L385.366 305.94L378.75 322.198L371.584 338.314L363.891 354.236L355.694 369.913L347.022 385.293L337.901 400.329L328.366 414.972L318.449 429.178L308.187 442.904L297.619 456.108L286.784 468.752L275.725 480.8L264.485 492.218L253.109 502.975L241.644 513.044L230.136 522.4L218.633 531.02L207.184 538.887L195.837 545.985L184.643 552.301L173.649 557.826L162.904 562.554L152.458 566.484L142.358 569.615L132.65 571.951L123.38 573.501L114.593 574.273L106.333 574.282L98.6398 573.543L91.5539 572.077L85.1126 569.904L79.3517 567.051L74.304 563.544L70.0003 559.414L66.4687 554.691L63.7343 549.412L61.8196 543.611L60.744 537.328L60.5237 530.601L61.1722 523.472L62.6991 515.983L65.1113 508.178L68.4121 500.101L72.6014 491.797L77.6758 483.313L83.6286 474.692L90.4495 465.982L98.1252 457.228L106.639 448.474L115.97 439.767L126.096 431.15L136.99 422.666L148.622 414.357L160.961 406.263L173.972 398.424L187.615 390.877L201.852 383.657L216.64 376.798L231.933 370.332L247.684 364.288L263.846 358.692L280.366 353.569L297.193 348.941L314.274 344.826L331.553 341.24L348.977 338.197L366.488 335.707L384.03 333.778L401.546 332.414L418.98 331.616L436.275 331.384L453.374 331.712L470.222 332.593L486.765 334.017L502.948 335.971L518.719 338.438L534.027 341.4L548.822 344.835L563.058 348.72L576.689 353.028L589.671 357.731L601.963 362.798L613.528 368.195L624.329 373.889L634.334 379.843L643.512 386.02L651.837 392.379L659.284 398.88L665.834 405.483L671.469 412.145L676.174 418.822L679.94 425.472L682.759 432.052L684.628 438.518L685.546 444.826L685.517 450.934L684.547 456.801L682.647 462.383L679.83 467.641L676.112 472.536L671.515 477.029L666.059 481.086L659.773 484.67L652.684 487.749L644.825 490.293L636.229 492.273L626.934 493.664L616.979 494.441L606.405 494.584L595.255 494.075L583.575 492.898L571.412 491.04L558.813 488.492L545.828 485.248L532.509 481.303L518.905 476.659L505.069 471.317L491.053 465.283L476.91 458.567L462.691 451.181L448.451 443.14L434.239 434.463L420.108 425.17L406.107 415.287L392.285 404.841L378.692 393.86L365.372 382.379L352.371 370.431L339.731 358.054L327.495 345.288L315.7 332.175L304.384 318.758L293.579 305.082L283.319 291.194L273.633 277.144L264.545 262.98L256.08 248.753L248.258 234.514L241.096 220.315L234.608 206.209L228.807 192.248L223.699 178.484L219.29 164.97L215.582 151.757L212.573 138.897L210.259 126.439L208.631 114.434L207.681 102.927L207.393 91.9664L207.752 81.596L208.738 71.8587L210.33 62.7949L212.503 54.4433L215.231 46.8397L218.484 40.0178L222.231 34.0083L226.438 28.8391L231.071 24.5355L236.093 21.1193L241.465 18.6093L247.147 17.0214L253.099 16.3676L259.28 16.6571L265.646 17.8953L272.155 20.0844L278.763 23.2231L285.427 27.3064L292.104 32.3262L298.751 38.2708L305.324 45.125L311.782 52.8706L318.084 61.4857L324.19 70.9455L330.06 81.222L335.659 92.2843L340.948 104.098L345.896 116.628L350.469 129.833L354.638 143.672L358.374 158.102L361.652 173.076L364.45 188.546L366.746 204.461L368.523 220.771L369.765 237.423L370.461 254.362L370.601 271.533L370.179 288.881L369.19 306.349L367.636 323.88L365.517 341.418L362.84 358.906L359.613 376.288L355.847 393.506L351.557 410.508L346.759 427.238L341.475 443.642L335.725 459.671L329.536 475.274L322.934 490.402L315.95 505.009L308.616 519.051L300.967 532.485L293.037 545.274L284.867 557.379L276.494 568.766L267.96 579.404L259.308 589.265L250.58 598.323L241.822 606.557L233.077 613.946L224.392 620.476L215.812 626.134L207.384 630.91L199.151 634.801L191.161 637.802L183.458 639.915L176.085 641.145L169.087 641.5L162.505 640.99L156.38 639.63L150.751 637.436L145.655 634.431L141.128 630.636L137.204 626.078L133.914 620.787L131.287 614.793L129.35 608.13L128.127 600.836L127.638 592.947L127.902 584.504L128.935 575.55L130.749 566.128L133.352 556.282L136.752 546.06L140.951 535.508L145.948 524.674L151.74 513.607L158.321 502.356L165.679 490.969L173.802 479.496L182.672 467.987L192.271 456.487L202.575 445.047L213.558 433.712L225.191 422.528L237.444 411.54L250.28 400.79L263.665 390.32L277.557 380.17L291.915 370.378L306.696 360.979L321.853 352.006L337.338 343.49L353.103 335.46L369.097 327.943L385.267 320.959L401.56 314.532L417.922 308.677L434.299 303.41L450.635 298.741L466.876 294.68L482.966 291.232L498.85 288.4L514.473 286.183L529.781 284.577L544.723 283.577L559.244 283.171L573.295 283.349L586.827 284.094L599.792 285.389L612.144 287.213L623.84 289.542L634.837 292.352L645.099 295.614L654.587 299.299L663.268 303.374L671.111 307.804L678.088 312.556L684.174 317.591L689.348 322.871L693.59 328.356L696.887 334.005L699.225 339.778L700.596 345.632L700.996 351.525L700.423 357.414L698.88 363.257L696.371 369.011L692.905 374.634L688.496 380.086L683.159 385.325L676.913 390.312L669.78 395.009L661.786 399.379L652.959 403.387L643.331 406.999L632.937 410.183L621.812 412.91L609.997 415.151L597.532 416.883L584.464 418.081L570.836 418.727L556.698 418.802L542.098 418.292L527.088 417.184L511.719 415.47L496.046 413.144L480.121 410.202L464.001 406.645L447.739 402.476L431.391 397.7L415.013 392.328L398.659 386.37L382.384 379.842L366.242 372.763L350.285 365.152L334.566 357.034L319.135 348.435L304.041 339.384L289.332 329.912L275.054 320.054L261.249 309.844L247.959 299.322L235.224 288.527L223.079 277.501L211.558 266.287L200.694 254.929L190.514 243.475L181.043 231.971L172.304 220.464L164.316 209.003L157.095 197.637L150.654 186.415L145.002 175.385L140.146 164.598L136.09 154.101L132.832 143.942L130.369 134.169L128.695 124.826L127.8 115.96L127.67 107.612L128.291 99.8263L129.643 92.6411L131.704 86.0947L134.451 80.2231L137.856 75.0597L141.889 70.6356L146.519 66.9792L151.713 64.1162L157.433 62.0696L163.642 60.8592L170.301 60.5017L177.369 61.0111L184.803 62.3976L192.561 64.6685L200.597 67.8276L208.868 71.8756L217.327 76.8094L225.929 82.6229L234.628 89.3065L243.378 96.847L252.134 105.228L260.852 114.431L269.486 124.432L277.994 135.205L286.334 146.722L294.465 158.951L302.347 171.857L309.943 185.403L317.217 199.548L324.135 214.251L330.666 229.467L336.779 245.148L342.448 261.248L347.648 277.714L352.357 294.496L356.555 311.54L360.226 328.792L363.356 346.196L365.934 363.697L367.953 381.238L369.407 398.762L370.295 416.213L370.617 433.534L370.378 450.668L369.584 467.56L368.246 484.155L366.376 500.398L363.989 516.239L361.105 531.624L357.743 546.504L353.928 560.832L349.685 574.562L345.044 587.651L340.033 600.056L334.686 611.739L329.037 622.664L323.121 632.798L316.978 642.109L310.645 650.572L304.164 658.16L297.574 664.854L290.919 670.636L284.242 675.49L277.584 679.406L270.99 682.376L264.503 684.396L258.167 685.466L252.024 685.587L246.117 684.767L240.486 683.014L235.174 680.342L230.219 676.766L225.659 672.307L221.531 666.987L217.869 660.831L214.707 653.868L212.076 646.129L210.004 637.648L208.518 628.462L207.641 618.609L207.396 608.131L207.801 597.07L208.871 585.471L210.619 573.382L213.057 560.849L216.19 547.922L220.022 534.652L224.556 521.09L229.787 507.288L235.711 493.297L242.319 479.17L249.599 464.961L257.537 450.72L266.114 436.5L275.31 422.353L285.101 408.328L295.46 394.474L306.357 380.841L317.761 367.474L329.637 354.42L341.948 341.72L354.655 329.417L367.716 317.549L381.088 306.154L394.725 295.266L408.582 284.917L422.61 275.137L436.759 265.952L450.98 257.387L465.22 249.461L479.429 242.193L493.553 235.597L507.541 229.686L521.34 224.467L534.897 219.947L548.161 216.127L561.081 213.007L573.605 210.582L585.687 208.846L597.276 207.788L608.326 207.396L618.794 207.653L628.634 208.541L637.808 210.038L646.276 212.121L654.001 214.762L660.949 217.933L667.09 221.604L672.395 225.74L676.838 230.308L680.397 235.27L683.052 240.588L684.788 246.224L685.591 252.136L685.452 258.283L684.365 264.623L682.328 271.112L679.34 277.707L675.407 284.365L670.535 291.043L664.737 297.698L658.027 304.285L650.422 310.765L641.944 317.094L632.616 323.234L622.468 329.144L611.529 334.788L599.832 340.13L587.414 345.134L574.314 349.769L560.572 354.004L546.234 357.811L531.344 361.163L515.95 364.039L500.102 366.416L483.851 368.277L467.25 369.605L450.354 370.389L433.216 370.618L415.892 370.286L398.439 369.387L380.914 367.923L363.374 365.894L345.874 363.305L328.472 360.165L311.224 356.484L294.184 352.276L277.407 347.558L260.947 342.35L244.855 336.672L229.182 330.551L213.975 324.013L199.282 317.088L185.147 309.808L171.613 302.206L158.719 294.319L146.503 286.184L135 277.841L124.24 269.33L114.254 260.693L105.066 251.975L96.7 243.218L89.1751 234.469L82.5074 225.771L76.71 217.171L71.7924 208.715L67.7608 200.449L64.618 192.417L62.3634 184.665L60.993 177.237L60.4998 170.176L60.873 163.525L62.0989 157.324L64.1607 151.613L67.0385 146.43L70.7092 141.811L75.1472 137.788L80.3238 134.396L86.2081 131.661L92.7665 129.613L99.9631 128.274L107.76 127.667L116.117 127.81L124.993 128.72L134.343 130.408L144.124 132.885L154.29 136.158L164.793 140.229L175.585 145.1L186.618 150.766L197.843 157.221L209.211 164.456L220.673 172.458L232.181 181.211L243.685 190.695L255.138 200.889L266.493 211.765L277.704 223.297L288.726 235.453L299.516 248.2L310.033 261.499L320.237 275.313L330.088 289.6L339.553 304.317L348.596 319.417L357.186 334.854L365.295 350.578L372.896 366.538L379.966 382.683L386.483 398.96L392.43 415.315L397.792 431.694L402.556 448.04L406.714 464.3L410.26 480.417L413.19 496.338L415.505 512.006L417.208 527.369L418.304 542.372L418.804 556.964L418.718 571.093L418.063 584.711L416.854 597.769L415.113 610.222L412.862 622.025L410.127 633.137L406.935 643.518L403.315 653.131L399.301 661.943L394.924 669.921L390.221 677.038L385.229 683.268L379.986 688.588L374.531 692.98L368.904 696.428L363.148 698.919L357.304 700.445L351.415 701L345.523 700.582L339.67 699.193L333.899 696.837L328.252 693.523L322.77 689.264L317.495 684.073L312.464 677.97L307.719 670.977L303.294 663.118L299.226 654.422L295.549 644.919L292.295 634.644L289.494 623.633L287.173 611.925L285.359 599.561L284.074 586.586L283.339 573.044L283.172 558.984L283.588 544.454L284.6 529.506L286.217 514.191L288.445 498.562L291.289 482.674L294.748 466.581L298.82 450.338L303.5 434L308.778 417.623L314.643 401.261L321.081 384.97L328.074 368.803L335.602 352.813L343.641 337.053L352.165 321.573L361.146 306.422L370.553 291.649L380.352 277.299L390.508 263.415L400.983 250.041L411.738 237.214L422.73 224.973L433.917 213.351L445.254 202.38L456.696 192.089L468.196 182.504L479.706 173.647L491.177 165.538L502.562 158.194L513.81 151.628L524.873 145.85L535.702 140.867L546.249 136.683L556.464 133.298L566.302 130.709L575.717 128.91L584.662 127.892L593.095 127.641L600.973 128.144L608.256 129.381L614.907 131.331L620.888 133.97L626.167 137.272L630.71 141.207L634.491 145.744L637.482 150.85L639.66 156.489L641.005 162.623L641.499 169.213L641.128 176.219L639.882 183.598L637.752 191.307L634.735 199.302L630.828 207.538L626.035 215.97L620.361 224.552L613.816 233.239L606.411 241.984L598.162 250.742L589.089 259.469L579.214 268.119L568.561 276.651L557.161 285.02L545.043 293.187L532.242 301.111L518.796 308.755L504.743 316.083L490.126 323.06L474.989 329.655L459.379 335.836L443.343 341.578L426.931 346.854L410.196 351.642L393.19 355.923L375.968 359.678L358.584 362.896L341.095 365.563L323.557 367.671L306.026 369.215L288.56 370.193L271.214 370.605L254.047 370.455L237.113 369.749L220.467 368.497L204.164 366.71L188.256 364.405L172.795 361.598L157.831 358.311L143.412 354.567L129.584 350.39L116.39 345.81L103.874 340.856L92.0734 335.56L81.0253 329.957L70.7635 324.081L61.319 317.972L52.7196 311.666L44.9903 305.206L38.1526 298.631L32.2249 291.983L27.2222 285.306L23.1562 278.642L20.035 272.036L17.8633 265.529L16.6426 259.166L16.3705 252.989L17.0415 247.041L18.6465 241.364L21.1732 235.998L24.6059 230.984L28.9257 226.358L34.1104 222.159L40.1351 218.421L46.9717 215.177L54.5892 212.46L62.9543 210.297L72.0307 208.716L81.7801 207.741L92.1617 207.393L103.133 207.693L114.649 208.656L126.663 210.296L139.129 212.623L151.996 215.645L165.214 219.366L178.733 223.788L192.501 228.908L206.466 234.723L220.574 241.222L234.774 248.397L249.013 256.231L263.239 264.708L277.402 273.806L291.45 283.504L305.334 293.774L319.005 304.588L332.417 315.914L345.524 327.717L358.283 339.962L370.653 352.608L382.592 365.615L394.065 378.941L405.036 392.539L415.472 406.364L425.345 420.368L434.626 434.501L443.292 448.714L451.321 462.955L458.695 477.172L465.398 491.313L471.419 505.326L476.748 519.159L481.38 532.758L485.312 546.072L488.543 559.05L491.078 571.641L492.923 583.796L494.088 595.467L494.586 606.606L494.431 617.17L493.642 627.113L492.24 636.396L490.249 644.978L487.695 652.824L484.606 659.898L481.013 666.17L476.949 671.609L472.448 676.191L467.546 679.892L462.281 682.693L456.693 684.576L450.823 685.528L444.71 685.54L438.399 684.604L431.93 682.718L425.349 679.882L418.698 676.099L412.02 671.376L405.359 665.724L398.758 659.158L392.259 651.694L385.903 643.354L379.73 634.16L373.781 624.14L368.092 613.325L362.7 601.746L357.64 589.441L352.944 576.446L348.644 562.804L344.767 548.558L341.34 533.752L338.387 518.435L335.929 502.656L333.985 486.466L332.571 469.917L331.7 453.064L331.382 435.961L331.624 418.663L332.432 401.227L333.807 383.71L335.746 366.167L338.246 348.658L341.299 331.236L344.895 313.959L349.02 296.883L353.658 280.061L358.789 263.547L364.394 247.393L370.446 231.649L376.919 216.365L383.785 201.587L391.011 187.361L398.564 173.728L406.408 160.729L414.506 148.403L422.819 136.784L431.306 125.904L439.925 115.792L448.633 106.476L457.387 97.9775L466.141 90.3174L474.849 83.5122L483.468 77.5755L491.95 72.5172L500.25 68.3443L508.322 65.0598L516.121 62.6639L523.604 61.1531L530.726 60.5208L537.445 60.7568L543.72 61.848L549.512 63.778L554.781 66.5272L559.493 70.0733L563.612 74.3909L567.107 79.452L569.949 85.2258L572.108 91.6792L573.561 98.7767L574.286 106.481L574.264 114.751L573.477 123.547L571.914 132.825L569.562 142.541L566.417 152.648L562.473 163.1L557.729 173.85L552.19 184.848L545.859 196.046L538.748 207.394L530.867 218.845L522.232 230.348L512.863 241.856L502.782 253.32L492.012 264.694L480.582 275.931L468.523 286.986L455.869 297.817L442.655 308.38L428.92 318.636L414.706 328.546L400.054 338.074L385.012 347.186L369.626 355.851L353.944 364.038L338.018 371.722L321.899 378.878L305.639 385.484L289.293 391.523L272.915 396.979L256.56 401.84L240.283 406.095L224.139 409.738L208.183 412.767L192.471 415.179L177.056 416.979L161.993 418.172L147.332 418.766L133.125 418.772L119.423 418.206L106.272 417.084L93.7204 415.427L81.8111 413.255L70.5866 410.596L60.0867 407.474L50.3486 403.921L41.4071 399.967L33.294 395.646L26.0381 390.992L19.6655 386.044L14.199 380.838L9.65807 375.413L6.05896 369.812L3.41466 364.074L1.73455 358.241L1.02472 352.356L1.28772 346.461L2.52258 340.599L4.72488 334.812L7.8867 329.143L11.9968 323.632L17.0403 318.321L22.9992 313.249L29.8523 308.455L37.575 303.977L46.1397 299.85L55.516 296.109L65.6703 292.785L76.5667 289.91L88.1665 287.511L100.429 285.614L113.31 284.243L126.764 283.42L140.745 283.161L155.204 283.484L170.089 284.4L185.349 285.92L200.931 288.051L216.782 290.796L232.846 294.157L249.068 298.132L265.395 302.715L281.769 307.899L298.137 313.672L314.443 320.02L330.633 326.926L346.655 334.37L362.455 342.329L377.983 350.777L393.189 359.688L408.026 369.029L422.446 378.768L436.407 388.87L449.865 399.297L462.781 410.01L475.118 420.967L486.841 432.126L497.917 443.442L508.319 454.871L518.018 466.364L526.992 477.876L535.222 489.357L542.689 500.758L549.379 512.032L555.283 523.128L560.393 533.997L564.704 544.592L568.216 554.864L570.932 564.765L572.856 574.25L573.998 583.273L574.37 591.79L573.986 599.759L572.865 607.14L571.027 613.894L568.496 619.984L565.298 625.377L561.461 630.039L557.017 633.943L552 637.062L546.443 639.37L540.386 640.849L533.865 641.48L526.923 641.248L519.601 640.142L511.942 638.153L503.989 635.277L495.788 631.512L487.384 626.86L478.823 621.326L470.15 614.918L461.411 607.649L452.652 599.534L443.917 590.59L435.252 580.841L426.699 570.311L418.301 559.027L410.099 547.021L402.134 534.327L394.442 520.981L387.062 507.022L380.027 492.492L373.369 477.435L367.12 461.897L361.307 445.925L355.955 429.57L351.088 412.883L346.725 395.916L342.885 378.725L339.581 361.363L336.826 343.887L334.628 326.352L332.993 308.816L331.925 291.336L331.423 273.968L331.484 256.768L332.102 239.793L333.269 223.098L334.971 206.737L337.195 190.762L339.923 175.227L343.135 160.18L346.808 145.671L350.917 131.746L355.435 118.448L360.332 105.821L365.576 93.9042L371.132 82.7339L376.967 72.3447L383.042 62.768L389.318 54.0323L395.757 46.1629L402.317 39.1819L408.955 33.1081L415.631 27.9572L422.299 23.7414L428.918 20.4693L435.444 18.1462L441.833 16.7741L448.042 16.3512L454.029 16.8725L459.752 18.3295L465.17 20.7104L470.243 24L474.933 28.1798L479.202 33.2285L483.016 39.1212L486.341 45.8305L489.144 53.3259L491.397 61.5742L493.073 70.5399L494.146 80.1848L494.594 90.4685L494.399 101.349L493.542 112.781L492.011 124.719L489.794 137.116L486.883 149.923L483.273 163.089L478.963 176.563L473.954 190.295L468.25 204.232L461.859 218.321L454.791 232.51L447.061 246.746L438.685 260.978L429.684 275.154L420.08 289.224L409.899 303.137L399.17 316.845L387.923 330.302L376.194 343.461L364.017 356.278L351.432 368.712L338.479 380.723L325.202 392.272L311.644 403.325L297.852 413.849L283.873 423.813L269.757 433.19L255.554 441.956L241.314 450.087L227.09 457.567L212.933 464.378L198.896 470.508L185.031 475.948L171.391 480.691L158.028 484.734L144.993 488.077L132.337 490.723L120.11 492.677L108.359 493.95L97.1316 494.553L86.4737 494.5L76.4287 493.811L67.0382 492.506L58.3417 490.607L50.3764 488.141L43.177 485.135L36.7757 481.62L31.2017 477.628L26.4816 473.194L22.6389 468.354L19.6937 463.144L17.6635 457.605L16.5621 451.777L16.4 445.7L17.1845 439.417L18.9192 432.971L21.6045 426.405L25.2373 419.762L29.8109 413.085L35.3153 406.419L41.7369 399.806L49.0591 393.287L57.2617 386.905L66.3211 380.701L76.2111 374.713L86.902 368.98L98.3613 363.539L110.554 358.424L123.441 353.668L136.983 349.302L151.136 345.356L165.856 341.856L181.094 338.826L196.803 336.288L212.931 334.261L229.426 332.761L246.235 331.803L263.302 331.396L280.572 331.549L297.99 332.267L315.498 333.551L333.04 335.401L350.559 337.812L367.998 340.778L385.301 344.288L402.414 348.33L419.28 352.887L435.846 357.942L452.061 363.472L467.873 369.455L483.234 375.863L498.095 382.668L512.413 389.839L526.142 397.342L539.245 405.142L551.68 413.202L563.414 421.484L574.414 429.946L584.65 438.547L594.095 447.244L602.725 455.993L610.519 464.75L617.462 473.469L623.537 482.105L628.736 490.612L633.05 498.944L636.476 507.055L639.014 514.901L640.665 522.437L641.437 529.62L641.338 536.406L640.382 542.754L638.585 548.625L635.964 553.981L632.544 558.783L628.347 562.999L623.402 566.596L617.74 569.543L611.393 571.813L604.395 573.38L596.785 574.222L588.602 574.32L579.887 573.656L570.683 572.217L561.034 569.992L550.986 566.973L540.586 563.156L529.88 558.54L518.919 553.127L507.749 546.922L496.421 539.934L484.984 532.175L473.486 523.659L461.975 514.406L450.501 504.436L439.11 493.774L427.848 482.447L416.761 470.486L405.892 457.925L395.283 444.797L384.976 431.143L375.008 417.002L365.417 402.417L356.236 387.434L347.498 372.099L339.233 356.461L331.468 340.571L324.226 324.478L317.531 308.238L311.4 291.902L305.851 275.525L300.895 259.162L296.543 242.869L292.802 226.7L289.675 210.711L287.165 194.956L285.267 179.491L283.979 164.367L283.29 149.639L283.191 135.356L283.667 121.57L284.701 108.329L286.275 95.6785L288.366 83.6639L290.95 72.3276L294 61.7097L297.486 51.8479L301.379 42.7772L305.644 34.5301L310.247 27.1359L315.151 20.6211L320.318 15.0088L325.71 10.3193L331.287 6.56921L337.006 3.77209L342.826 1.93793L348.706 1.0733L354.602 1.18134L360.472 2.26161L366.274 4.31026L371.965 7.31998L377.503 11.2799L382.849 16.1759L387.961 21.9904L392.802 28.7027L397.333 36.2887L401.518 44.7213L405.323 53.9704L408.715 64.0032L411.664 74.784L414.141 86.2745L416.119 98.434L417.575 111.22L418.487 124.586L418.837 138.487L418.608 152.872L417.787 167.693L416.363 182.897L414.33 198.431L411.683 214.243L408.42 230.276L404.542 246.478L400.056 262.791L394.967 279.162L389.287 295.534L383.03 311.854L376.211 328.066L368.852 344.118L360.973 359.957L352.6 375.532L343.762 390.793L334.487 405.691L324.809 420.181L314.762 434.218L304.385 447.759L293.715 460.764L282.794 473.195L271.664 485.018L260.37 496.2L248.956 506.71L237.469 516.523L225.958 525.615L214.469 533.964L203.051 541.553L191.754 548.368L180.627 554.398L169.718 559.634L159.076 564.073L148.75 567.712L138.786 570.554L129.232 572.604L120.133 573.87L111.532 574.364L103.473 574.099L95.9958 573.094L89.1396 571.369L82.9413 568.946L77.4355 565.853L72.6545 562.116L68.6279 557.766L65.3829 552.838L62.9435 547.365L61.3313 541.384L60.5644 534.935L60.6581 528.058L61.6244 520.793L63.472 513.184L66.2065 505.276L69.8299 497.111L74.341 488.737L79.7352 480.197L86.0044 471.539L93.1373 462.807L101.119 454.048L109.932 445.307L119.554 436.627L129.962 428.053L141.128 419.628L153.021 411.392L165.607 403.387L178.852 395.649L192.716 388.217L207.158 381.124L222.134 374.405L237.599 368.089L253.505 362.204L269.803 356.777L286.44 351.831L303.366 347.387L320.525 343.462L337.863 340.072L355.325 337.229L372.854 334.942L390.393 333.217L407.886 332.059L425.276 331.467L442.506 331.439L459.521 331.968L476.264 333.048L492.683 334.666L508.722 336.808L524.331 339.457L539.458 342.593L554.056 346.195L568.078 350.236L581.478 354.691L594.214 359.53L606.247 364.72L617.538 370.23L628.054 376.022L637.762 382.061L646.634 388.309L654.643 394.724L661.766 401.267L667.986 407.896L673.284 414.569L677.65 421.241L681.073 427.871L683.547 434.414L685.071 440.828L685.645 447.069L685.273 453.094L683.964 458.862L681.73 464.331L678.584 469.462L674.544 474.215L669.633 478.554L663.873 482.443L657.291 485.847L649.919 488.736L641.788 491.078L632.934 492.848L623.395 494.018L613.21 494.568L602.422 494.476L591.075 493.726L579.214 492.303L566.887 490.195L554.142 487.395L541.03 483.897L527.601 479.699L513.907 474.8L500 469.206L485.932 462.924L471.755 455.963L457.523 448.337L443.287 440.063L429.098 431.16L415.009 421.65L401.067 411.56L387.323 400.916L373.823 389.749L360.614 378.094L347.739 365.986L335.242 353.464L323.161 340.567L311.536 327.338L300.401 313.822L289.791 300.064L279.736 286.111L270.264 272.014L261.399 257.821L253.165 243.583L245.581 229.353L238.663 215.182L232.423 201.122L226.873 187.227L222.018 173.548L217.864 160.137L214.409 147.046L211.653 134.327L209.589 122.027L208.209 110.197L207.5 98.8836L207.449 88.1321L208.038 77.9866L209.247 68.4891L211.053 59.6795L213.431 51.5954L216.353 44.2718L219.789 37.7413L223.706 32.0337L228.073 27.1759L232.851 23.192L238.004 20.1026L243.493 17.9257L249.278 16.6755L255.318 16.3633L261.571 16.9966L267.994 18.5799L274.544 21.114L281.178 24.5962L287.852 29.0206L294.522 34.3775L301.147 40.6542L307.684 47.8342L314.09 55.898L320.325 64.8228L326.35 74.5824L332.126 85.1478L337.616 96.487L342.785 108.565L347.601 121.344L352.03 134.785L356.045 148.844L359.618 163.476L362.724 178.636L365.342 194.273L367.452 210.338L369.036 226.778L370.082 243.54L370.577 260.57L370.513 277.812L369.886 295.21L368.692 312.707L366.932 330.248L364.61 347.774L361.732 365.23L358.308 382.559L354.35 399.705L349.873 416.614L344.897 433.232L339.44 449.506L333.528 465.386L327.186 480.822L320.442 495.766L313.327 510.173L305.875 523.999L298.119 537.204L290.098 549.748L281.849 561.596L273.413 572.715L264.831 583.074L256.147 592.647L247.403 601.408L238.644 609.337L229.916 616.416L221.264 622.631L212.733 627.97L204.371 632.425L196.221 635.993L188.33 638.671L180.742 640.464L173.5 641.375L166.648 641.414L160.227 640.594L154.277 638.929L148.837 636.438L143.944 633.143L139.633 629.069L135.935 624.241L132.883 618.691L130.503 612.45L128.823 605.554L127.863 598.039L127.646 589.944L128.188 581.311L129.502 572.182L131.602 562.601L134.494 552.613L138.183 542.266L142.672 531.606L147.959 520.682L154.038 509.542L160.902 498.236L168.539 486.813L176.936 475.321L186.073 463.809L195.93 452.326L206.484 440.918L217.706 429.633L229.568 418.515L242.037 407.608L255.077 396.956L268.65 386.598L282.716 376.573L297.233 366.919L312.156 357.671L327.438 348.861L343.031 340.518L358.884 332.671L374.948 325.345L391.169 318.562L407.493 312.34L423.867 306.697L440.235 301.645L456.544 297.197L472.736 293.358L488.757 290.133L504.553 287.525L520.068 285.53L535.249 284.145L550.044 283.361L564.401 283.169L578.269 283.554L591.601 284.501L604.348 285.991L616.467 288.001L627.914 290.508L638.649 293.485L648.633 296.904L657.832 300.734L666.213 304.942L673.744 309.494L680.401 314.352L686.158 319.481L690.996 324.84L694.897 330.389L697.846 336.088L699.834 341.896L700.854 347.769L700.901 353.665L699.975 359.542L698.08 365.357L695.223 371.069L691.414 376.635L686.666 382.014L680.996 387.166L674.425 392.052L666.977 396.635L658.677 400.878L649.556 404.746L639.645 408.206L628.981 411.227L617.601 413.781L605.546 415.84L592.857 417.381L579.58 418.381L565.761 418.821L551.449 418.685L536.695 417.959L521.548 416.632L506.063 414.697L490.292 412.147L474.29 408.982L458.112 405.203L441.813 400.812L425.447 395.819L409.072 390.232L392.74 384.066L376.507 377.336L360.426 370.061L344.55 362.263L328.93 353.967L313.615 345.201L298.656 335.993L284.098 326.377L269.986 316.387L256.364 306.06L243.271 295.433L230.746 284.55L218.824 273.45L207.538 262.179L196.919 250.781L186.993 239.303L177.785 227.792L169.317 216.296L161.605 204.864L154.666 193.544L148.511 182.387L143.148 171.44L138.582 160.752L134.815 150.372L131.846 140.348L129.671 130.726L128.281 121.551L127.665 112.868L127.81 104.72L128.698 97.147L130.31 90.1894L132.623 83.8839L135.612 78.2656L139.249 73.367L143.502 69.2184L148.341 65.8472L153.73 63.278L159.632 61.5327L166.009 60.63L172.821 60.5858L180.027 61.4124L187.584 63.1193L195.448 65.7123L203.574 69.1941L211.918 73.5641L220.435 78.8181L229.077 84.9487L237.8 91.9449L246.558 99.7927L255.305 108.474L263.997 117.97L272.591 128.254L281.043 139.301L289.311 151.08L297.356 163.559L305.139 176.701L312.622 190.47L319.771 204.822L326.552 219.716L332.934 235.107L338.889 250.946L344.391 267.184L349.415 283.771L353.94 300.655L357.949 317.78L361.425 335.094L364.356 352.54L366.732 370.062L368.546 387.603L369.795 405.108L370.477 422.518L370.595 439.777L370.154 456.83L369.161 473.62L367.628 490.094L365.568 506.197L362.999 521.878L359.938 537.085L356.41 551.771L352.436 565.887L348.045 579.389L343.266 592.234L338.129 604.381L332.668 615.793L326.919 626.435L320.916 636.274L314.699 645.28L308.308 653.428L301.782 660.694L295.164 667.059L288.496 672.505L281.821 677.02L275.181 680.593L268.621 683.219L262.184 684.894L255.913 685.619L249.851 685.398L244.039 684.238L238.52 682.15L233.332 679.148L228.516 675.249L224.109 670.475L220.146 664.848L216.662 658.396L213.689 651.147L211.258 643.135L209.396 634.394L208.128 624.961L207.478 614.876L207.467 604.181L208.111 592.92L209.426 581.138L211.424 568.882L214.113 556.2L217.5 543.143L221.587 529.761L226.374 516.106L231.857 502.229L238.031 488.183L244.884 474.02L252.405 459.793L260.577 445.554L269.381 431.355L278.796 417.246L288.796 403.277L299.354 389.498L310.439 375.957L322.019 362.698L334.057 349.767L346.516 337.207L359.356 325.057L372.535 313.357L386.009 302.142L399.732 291.446L413.656 281.301L427.734 271.734L441.915 262.771L456.148 254.435L470.383 246.746L484.568 239.721L498.648 233.372L512.574 227.711L526.291 222.746L539.747 218.48L552.892 214.914L565.675 212.047L578.044 209.873L589.952 208.384L601.351 207.57L612.195 207.415L622.44 207.904L632.043 209.015L640.965 210.728L649.167 213.016L656.614 215.853L663.273 219.209L669.113 223.053L674.108 227.35L678.233 232.065L681.466 237.161L683.789 242.599L685.188 248.34L685.65 254.342L685.167 260.564L683.736 266.963L681.353 273.495L678.021 280.119L673.747 286.789L668.537 293.463L662.406 300.098L655.369 306.652L647.444 313.081L638.655 319.346L629.027 325.407L618.587 331.226L607.369 336.764L595.406 341.987L582.736 346.86L569.398 351.353L555.435 355.436L540.891 359.081L525.812 362.263L510.248 364.96L494.247 367.152L477.864 368.821L461.149 369.953L444.158 370.537L426.947 370.563L409.57 370.025L392.084 368.921L374.547 367.251L357.015 365.018L339.544 362.229L322.191 358.891L305.012 355.017L288.062 350.622L271.394 345.723L255.062 340.342L239.116 334.501L223.606 328.225L208.581 321.543L194.085 314.485L180.164 307.084L166.857 299.375L154.205 291.393L142.244 283.178L131.007 274.769L120.525 266.208L110.825 257.536L101.934 248.799L93.8707 240.04L86.6552 231.303L80.3022 222.636L74.8232 214.083L70.2265 205.691L66.5174 197.504L63.6971 189.569L61.7641 181.929L60.7131 174.629L60.5357 167.713L61.2201 161.22L62.7516 155.193L65.112 149.669L68.2804 144.687L72.2327 140.28L76.9421 136.483L82.3794 133.326L88.5123 130.837L95.3066 129.044L102.726 127.968L110.73 127.631L119.281 128.051L128.334 129.242L137.846 131.216L147.772 133.981L158.065 137.543L168.679 141.905L179.564 147.064L190.672 153.018L201.955 159.758L213.363 167.273L224.847 175.549L236.359 184.57L247.85 194.314L259.273 204.759L270.581 215.877L281.728 227.639L292.671 240.013L303.367 252.965L313.775 266.455L323.855 280.446L333.57 294.894L342.885 309.755L351.767 324.983L360.186 340.53L368.114 356.346L375.524 372.379L382.396 388.579L388.708 404.89L394.444 421.26L399.591 437.633L404.136 453.954L408.072 470.169L411.395 486.221L414.102 502.056L416.194 517.62L417.676 532.858L418.554 547.718L418.84 562.148L418.545 576.097L417.687 589.517L416.283 602.361L414.354 614.583L411.924 626.14L409.02 636.991L405.669 647.097L401.902 656.424L397.752 664.936L393.253 672.605L388.441 679.403L383.353 685.305L378.028 690.29L372.506 694.341L366.828 697.443L361.035 699.585L355.17 700.759L349.275 700.961L343.392 700.19L337.564 698.449L331.833 695.745L326.241 692.086L320.829 687.486L315.639 681.962L310.707 675.534L306.074 668.223L301.775 660.057L297.845 651.065L294.318 641.278L291.224 630.731L288.594 619.462L286.455 607.511L284.83 594.92L283.742 581.734L283.212 567.998L283.255 553.762L283.886 539.074L285.117 523.987L286.955 508.552L289.406 492.823L292.473 476.854L296.155 460.7L300.448 444.416L305.346 428.058L310.839 411.68L316.915 395.338L323.556 379.085L330.746 362.976L338.462 347.064L346.68 331.4L355.373 316.033L364.513 301.014L374.066 286.389L383.999 272.204L394.275 258.5L404.856 245.32L415.702 232.702L426.77 220.682L438.017 209.293L449.398 198.565L460.866 188.527L472.375 179.204L483.876 170.616L495.322 162.783L506.662 155.72L517.849 149.439L528.833 143.949L539.565 139.256L549.997 135.362L560.081 132.267L569.771 129.965L579.02 128.451L587.784 127.713L596.02 127.737L603.687 128.509L610.745 130.007L617.157 132.21L622.887 135.093L627.902 138.628L632.172 142.786L635.669 147.534L638.367 152.837L640.245 158.66L641.283 164.964L641.465 171.71L640.778 178.856L639.212 186.36L636.76 194.178L633.42 202.265L629.191 210.578L624.077 219.07L618.086 227.695L611.227 236.408L603.513 245.164L594.963 253.916L585.596 262.62L575.436 271.232L564.508 279.709L552.844 288.01L540.474 296.093L527.435 303.92L513.764 311.453L499.501 318.658L484.69 325.499L469.376 331.947L453.605 337.972L437.427 343.547L420.892 348.649L404.053 353.255L386.962 357.347L369.674 360.909L352.246 363.928L334.732 366.393L317.19 368.297L299.676 369.636L282.247 370.408L264.96 370.616L247.871 370.263L231.035 369.357L214.508 367.909L198.342 365.932L182.59 363.443L167.304 360.459L152.532 357.004L138.322 353.099L124.72 348.773L111.767 344.053L99.5063 338.972L87.9748 333.56L77.2083 327.854L67.2397 321.889L58.0989 315.704L49.8126 309.337L42.4045 302.83L35.8952 296.224L30.3016 289.561L25.6377 282.884L21.9138 276.236L19.1369 269.66L17.3104 263.201L16.4344 256.9L16.5054 250.802L17.5166 244.947L19.4577 239.379L22.3153 234.136L26.0723 229.258L30.7087 224.783L36.2013 220.747L42.5241 217.185L49.6478 214.129L57.5407 211.609L66.1682 209.654L75.4934 208.29L85.4771 207.541L96.0777 207.426L107.252 207.965L118.954 209.172L131.138 211.061L143.755 213.639L156.755 216.915L170.089 220.89L183.704 225.566L197.549 230.939L211.572 237.003L225.72 243.749L239.94 251.164L254.18 259.234L268.39 267.939L282.516 277.258L296.51 287.167L310.322 297.638L323.905 308.641L337.212 320.144L350.198 332.112L362.82 344.507L375.038 357.289L386.812 370.417L398.106 383.847L408.887 397.533L419.122 411.429L428.783 425.485L437.843 439.653L446.28 453.882L454.074 468.12L461.206 482.316L467.663 496.417L473.434 510.37L478.51 524.124L482.888 537.626L486.565 550.824L489.544 563.667L491.827 576.106L493.424 588.091L494.345 599.574L494.604 610.509L494.217 620.852L493.203 630.561L491.585 639.594L489.386 647.913L486.634 655.482L483.359 662.269L479.591 668.241L475.364 673.373L470.713 677.637L465.675 681.014L460.289 683.483L454.593 685.03L448.63 685.642L442.44 685.31L436.067 684.03L429.553 681.799L422.941 678.618L416.275 674.493L409.599 669.431L402.954 663.446L396.385 656.552L389.933 648.767L383.639 640.114L377.543 630.617L371.684 620.305L366.099 609.209L360.823 597.362L355.892 584.802L351.336 571.568L347.186 557.701L343.47 543.246L340.212 528.249L337.436 512.759L335.163 496.825L333.41 480.498L332.191 463.833L331.52 446.883L331.405 429.702L331.852 412.348L332.866 394.876L334.445 377.343L336.589 359.806L339.291 342.321L342.542 324.946L346.332 307.736L350.645 290.745L355.464 274.029L360.77 257.64L366.54 241.629L372.748 226.046L379.367 210.94L386.367 196.358L393.716 182.342L401.379 168.935L409.32 156.176L417.5 144.102L425.881 132.748L434.421 122.143L443.077 112.318L451.807 103.296L460.566 95.0995L469.309 87.7479L477.99 81.2566L486.564 75.6377L494.986 70.9001L503.208 67.0494L511.186 64.0876L518.876 62.0135L526.233 60.8225L533.213 60.5067L539.776 61.0548L545.88 62.4525L551.486 64.6822L556.558 67.7234L561.058 71.5526L564.955 76.1434L568.216 81.4668L570.812 87.4912L572.718 94.1826L573.91 101.505L574.365 109.419L574.067 117.885L573 126.861L571.152 136.303L568.513 146.166L565.078 156.404L560.843 166.97L555.811 177.815L549.983 188.891L543.368 200.15L535.976 211.541L527.819 223.016L518.916 234.527L509.285 246.024L498.951 257.461L487.938 268.791L476.277 279.967L463.997 290.945L451.136 301.683L437.728 312.14L423.814 322.274L409.436 332.05L394.638 341.431L379.465 350.385L363.966 358.879L348.19 366.887L332.187 374.381L316.011 381.34L299.714 387.743L283.35 393.572L266.974 398.813L250.64 403.454L234.405 407.488L218.323 410.909L202.45 413.713L186.839 415.903L171.546 417.482L156.622 418.456L142.121 418.835L128.091 418.632L114.584 417.862L101.645 416.544L89.3215 414.697L77.656 412.345L66.69 409.515L56.4624 406.233L47.0096 402.53L38.3652 398.439L30.56 393.993L23.6219 389.228L17.5757 384.182L12.443 378.892L8.24219 373.399L4.98831 367.743L2.693 361.965L1.36454 356.109L1.00767 350.215L1.6237 344.327L3.21037 338.488L5.76202 332.739L9.26948 327.122L13.7202 321.679L19.0982 316.45L25.3844 311.475L32.556 306.792L40.5876 302.437L49.4506 298.446L59.1133 294.853L69.5412 291.688L80.6975 288.983L92.5426 286.763L105.034 285.055L118.129 283.88L131.78 283.26L145.94 283.21L160.56 283.747L175.587 284.881L190.97 286.622L206.656 288.976L222.59 291.945L238.718 295.529L254.985 299.725L271.335 304.528L287.713 309.927L304.065 315.91L320.335 322.463L336.47 329.566L352.418 337.2L368.125 345.34L383.542 353.96L398.619 363.03L413.31 372.52L427.569 382.395L441.352 392.619L454.618 403.154L467.328 413.96L479.445 424.996L490.937 436.217L501.772 447.58L511.921 459.037L521.36 470.543L530.066 482.049L538.021 493.507L545.207 504.867L551.613 516.082L557.23 527.101L562.05 537.877L566.071 548.36L569.294 558.502L571.721 568.258L573.36 577.58L574.221 586.425L574.317 594.748L573.663 602.508L572.279 609.666L570.187 616.183L567.411 622.024L563.977 627.155L559.917 631.545L555.261 635.167L550.043 637.994L544.301 640.004L538.071 641.177L531.392 641.496L524.307 640.948L516.858 639.523L509.087 637.212L501.039 634.014L492.759 629.926L484.293 624.953L475.686 619.101L466.984 612.379L458.232 604.801L449.477 596.382L440.762 587.144L432.132 577.108L423.631 566.301L415.299 554.752L407.179 542.492L399.309 529.557L391.726 515.984L384.467 501.813L377.565 487.086L371.053 471.849L364.959 456.147L359.31 440.031L354.132 423.549L349.445 406.754L345.27 389.7L341.623 372.44L338.517 355.03L335.963 337.526L333.969 319.985L332.54 302.463L331.678 285.017L331.381 267.703L331.645 250.578L332.463 233.699L333.825 217.118L335.719 200.891L338.128 185.07L341.034 169.707L344.416 154.85L348.251 140.547L352.511 126.845L357.17 113.786L362.197 101.412L367.558 89.7619L373.22 78.8713L379.146 68.7735L385.299 59.4989L391.639 51.0748L398.126 43.5254L404.719 36.8717L411.376 31.1313L418.054 26.3185L424.71 22.4444L431.3 19.5162L437.781 17.5383L444.109 16.511L450.243 16.4316L456.139 17.2936L461.756 19.0875L467.053 21.8001L471.991 25.4152L476.533 29.913L480.641 35.271L484.281 41.4634L487.42 48.4617L490.027 56.2343L492.074 64.7472L493.533 73.964L494.382 83.8455L494.599 94.3507L494.165 105.436L493.065 117.058L491.286 129.168L488.818 141.719L485.654 154.662L481.79 167.946L477.226 181.52L471.964 195.332L466.009 209.33L459.371 223.462L452.061 237.674L444.095 251.914L435.489 266.132L426.267 280.275L416.45 294.294L406.067 308.138L395.146 321.761L383.72 335.114L371.824 348.154L359.495 360.837L346.771 373.122L333.696 384.97L320.311 396.343L306.663 407.208L292.797 417.531L278.763 427.286L264.61 436.443L250.387 444.981L236.147 452.878L221.941 460.117L207.821 466.682L193.841 472.563L180.052 477.75L166.507 482.24L153.257 486.028L140.354 489.118L127.847 491.512L115.787 493.217L104.221 494.245L93.1953 494.608L82.7549 494.323L72.9428 493.407L63.7997 491.884L55.3644 489.776L47.6732 487.11L40.7599 483.916L34.6556 480.224L29.3886 476.068L24.9844 471.482L21.4652 466.503L18.8504 461.17L17.1558 455.521L16.3942 449.598L16.575 443.441L17.7041 437.094L19.784 430.599L22.8138 424L26.7889 417.34L31.7017 410.663L37.5407 404.01L44.2914 397.427L51.9355 390.953L60.452 384.631L69.8161 378.501L80.0003 372.601L90.974 366.97L102.703 361.643L115.153 356.654L128.282 352.037L142.051 347.82L156.415 344.033L171.329 340.701L186.744 337.847L202.611 335.492L218.878 333.655L235.493 332.35L252.402 331.591L269.549 331.387L286.88 331.744L304.337 332.668L321.864 334.158L339.404 336.212L356.9 338.825L374.297 341.99L391.537 345.694L408.566 349.925L425.33 354.665L441.775 359.895L457.849 365.592L473.503 371.733L488.688 378.289L503.357 385.23L517.466 392.525L530.972 400.141L543.837 408.04L556.022 416.185L567.493 424.536L578.219 433.054L588.171 441.695L597.322 450.416L605.651 459.173L613.138 467.921L619.768 476.615L625.526 485.21L630.404 493.658L634.397 501.916L637.5 509.936L639.715 517.674L641.046 525.087L641.501 532.131L641.09 538.762L639.826 544.942L637.728 550.631L634.814 555.789L631.109 560.383L626.637 564.378L621.429 567.742L615.514 570.447L608.926 572.464L601.702 573.771L593.88 574.345L585.499 574.168L576.601 573.224L567.23 571.501L557.431 568.988L547.25 565.68L536.733 561.573L525.929 556.668L514.886 550.966L503.654 544.476L492.28 537.207L480.815 529.171L469.307 520.385L457.804 510.869L446.355 500.645L435.005 489.738L423.802 478.178L412.789 465.995L402.009 453.223L391.506 439.9L381.317 426.064L371.482 411.757L362.036 397.023L353.012 381.906L344.442 366.456L336.356 350.72L328.778 334.751L321.732 318.598L315.24 302.317L309.318 285.96L303.983 269.582L299.245 253.238L295.114 236.983L291.596 220.873L288.693 204.963L286.405 189.307L284.73 173.959L283.66 158.973L283.187 144.401L283.298 130.293L283.979 116.699L285.211 103.667L286.975 91.2422L289.248 79.469L292.004 68.3888L295.216 58.0411L298.854 48.4626L302.885 39.6872L307.277 31.7465L311.994 24.6685L316.998 18.4787L322.252 13.1992L327.715 8.84882L333.348 5.44326L339.109 2.99465L344.955 1.51179L350.846 1L356.738 1.46115L362.588 2.8935L368.354 5.29202L373.994 8.64801L379.468 12.9495L384.733 18.1811L389.752 24.324L394.484 31.3563L398.894 39.2528L402.945 47.9854L406.604 57.5229L409.838 67.8315L412.619 78.8744L414.918 90.6125L416.709 103.004L417.97 116.006L418.68 129.572L418.821 143.654L418.379 158.204L417.34 173.169L415.696 188.499L413.441 204.141L410.57 220.039L407.083 236.14L402.984 252.388L398.278 268.729L392.973 285.107L387.082 301.466L380.619 317.753L373.602 333.913L366.051 349.894L357.99 365.643L349.445 381.11L340.444 396.244L331.019 411L321.203 425.33L311.032 439.192L300.544 452.543L289.778 465.344L278.776 477.558L267.581 489.152L256.238 500.093L244.793 510.354L233.292 519.907L221.783 528.732L210.314 536.807L198.935 544.117L187.693 550.648L176.64 556.39L165.822 561.338L155.289 565.486L145.089 568.836L135.269 571.39L125.875 573.154L116.952 574.138L108.543 574.354L100.69 573.819L93.4337 572.55L86.8121 570.569L80.8613 567.9L75.6149 564.569L71.1044 560.606L67.3585 556.043L64.4032 550.913L62.2617 545.251L60.9543 539.096L60.4982 532.486L60.9073 525.463L62.1927 518.069L64.3617 510.346L67.4188 502.34L71.3647 494.094L76.1971 485.654L81.9099 477.066L88.4941 468.376L95.9369 459.629L104.223 450.871L113.332 442.147L123.242 433.501L133.928 424.976L145.362 416.615L157.51 408.458L170.34 400.545L183.815 392.914L197.893 385.602L212.534 378.641L227.693 372.064L243.324 365.902L259.378 360.18L275.804 354.925L292.553 350.159L309.569 345.902L326.8 342.169L344.19 338.976L361.682 336.334L379.222 334.251L396.751 332.731L414.213 331.779L431.551 331.392L448.709 331.567L465.632 332.297L482.264 333.574L498.55 335.384L514.439 337.712L529.879 340.54L544.82 343.848L559.214 347.612L573.015 351.807L586.179 356.405L598.665 361.375L610.433 366.685L621.446 372.301L631.673 378.188L641.08 384.307L649.641 390.62L657.331 397.086L664.129 403.665L670.016 410.315L674.977 416.993L679.002 423.655L682.081 430.258L684.21 436.759L685.389 443.115L685.619 449.282L684.906 455.219L683.26 460.883L680.692 466.234L677.22 471.232L672.861 475.84L667.639 480.019L661.577 483.736L654.705 486.957L647.054 489.651L638.656 491.788L629.549 493.343L619.771 494.291L609.362 494.609L598.366 494.281L586.827 493.288L574.791 491.617L562.307 489.26L549.423 486.207L536.19 482.454L522.659 478.002L508.882 472.85L494.91 467.005L480.796 460.475L466.593 453.272L452.354 445.408L438.129 436.904L423.971 427.778L409.929 418.054L396.053 407.759L382.393 396.922L368.993 385.574L355.9 373.75L343.158 361.487L330.807 348.824L318.887 335.802L307.436 322.463L296.488 308.854L286.076 295.02L276.229 281.009L266.975 266.871L258.337 252.656L250.337 238.415L242.992 224.2L236.319 210.063L230.329 196.057L225.03 182.234L220.429 168.646L216.529 155.346L213.329 142.384L210.824 129.811L209.01 117.677L207.875 106.029L207.407 94.9141L207.59 84.3776L208.406 74.4625L209.835 65.2102L211.851 56.6597L214.43 48.8476L217.542 41.8083L221.156 35.5731L225.241 30.171L229.761 25.6278L234.68 21.9663L239.959 19.2063L245.561 17.3642L251.443 16.4533L257.565 16.4835L263.885 17.4613L270.359 19.3898L276.944 22.2684L283.598 26.0935L290.275 30.8576L296.934 36.55L303.532 43.1566L310.026 50.6598L316.375 59.0389L322.538 68.2698L328.477 78.3255L334.153 89.1756L339.531 100.787L344.576 113.124L349.255 126.148L353.537 139.818L357.394 154.091L360.801 168.92L363.732 184.258L366.167 200.057L368.088 216.264L369.479 232.827L370.325 249.693L370.619 266.806L370.351 284.111L369.518 301.552L368.118 319.071L366.154 336.613L363.629 354.121L360.551 371.537L356.932 388.806L352.784 405.872L348.124 422.682L342.971 439.181L337.346 455.318L331.274 471.042L324.783 486.305L317.901 501.059L310.659 515.26L303.093 528.865L295.237 541.835L287.128 554.13L278.807 565.718L270.313 576.564L261.689 586.641L252.978 595.921L244.223 604.383L235.47 612.005L226.765 618.772L218.151 624.67L209.676 629.689L201.386 633.823L193.325 637.068L185.538 639.424L178.071 640.896L170.966 641.489L164.266 641.215L158.011 640.086L152.242 638.119L146.996 635.334L142.31 631.753L138.218 627.402L134.751 622.309L131.94 616.504L129.811 610.021L128.39 602.896L127.698 595.166L127.754 586.871L128.575 578.053L130.173 568.754L132.559 559.021L135.741 548.897L139.72 538.43L144.499 527.669L150.074 516.661L156.439 505.455L163.585 494.101L171.5 482.647L180.167 471.143L189.568 459.636L199.681 448.174L210.481 436.806L221.939 425.576L234.025 414.53L246.705 403.71L259.943 393.16L273.7 382.919L287.935 373.025L302.605 363.514L317.663 354.421L333.064 345.777L348.757 337.612L364.693 329.951L380.82 322.819L397.084 316.238L413.433 310.224L429.811 304.794L446.164 299.961L462.437 295.733L478.573 292.116L494.519 289.115L510.219 286.73L525.619 284.957L540.666 283.791L555.308 283.224L569.493 283.243L583.172 283.834L596.297 284.98L608.821 286.661L620.701 288.855L631.894 291.536L642.361 294.677L652.065 298.249L660.97 302.22L669.046 306.556L676.263 311.224L682.596 316.185L688.021 321.401L692.521 326.834L696.078 332.443L698.68 338.186L700.317 344.022L700.983 349.908" stroke="#00A587" stroke-width="1.20281"/>
</svg>
