<svg width="82" height="63" viewBox="0 0 82 63" fill="none" xmlns="http://www.w3.org/2000/svg">
    <path d="M52.9381 31.1613C52.9381 37.9052 47.4885 43.3548 40.7446 43.3548C34.0007 43.3548 28.551 37.9052 28.551 31.1613C28.551 24.4173 34.0007 18.9677 40.7446 18.9677C47.4885 18.9677 52.9381 24.4173 52.9381 31.1613Z" fill="black" stroke="#292D32" stroke-width="2.80311" stroke-linecap="round" stroke-linejoin="round"/>
    <path d="M40.7434 53.5161C52.7181 53.5161 63.8788 47.9821 71.6471 38.4041C74.7002 34.6527 74.7002 28.3472 71.6471 24.5958C63.8788 15.0178 52.7181 9.48386 40.7434 9.48386C28.7686 9.48386 17.6079 15.0178 9.8396 24.5958C6.78654 28.3472 6.78654 34.6527 9.8396 38.4041C17.6079 47.9821 28.7686 53.5161 40.7434 53.5161Z" stroke="#292D32" stroke-width="2.80311" stroke-linecap="round" stroke-linejoin="round"/>
</svg>
