<svg width="875" height="875" viewBox="0 0 875 875" fill="none" xmlns="http://www.w3.org/2000/svg">
<path d="M1 437.498L1.04506 432.026L1.18022 426.556L1.40545 421.089L1.72064 415.627L2.12568 410.172L2.62044 404.725L3.20473 399.288L3.87832 393.862L4.64099 388.45L5.49245 383.053L6.43238 377.673L7.46044 372.311L8.57627 366.968L9.77947 361.648L11.0696 356.35L12.4461 351.077L13.9086 345.83L15.4565 340.612L17.0892 335.423L18.8062 330.264L20.6068 325.139L22.4904 320.047L24.4562 314.992L26.5036 309.973L28.6318 304.993L30.8401 300.053L33.1276 295.155L35.4935 290.3L37.9369 285.489L40.457 280.724L43.0528 276.007L45.7235 271.338L48.4679 266.719L51.2852 262.151L54.1742 257.637L57.1341 253.176L60.1636 248.771L63.2616 244.422L66.4272 240.131L69.659 235.898L72.956 231.726L76.317 227.616L79.7406 223.568L83.2258 219.583L86.7712 215.663L90.3755 211.809L94.0375 208.022L97.7558 204.303L101.529 200.652L105.356 197.071L109.235 193.561L113.165 190.123L117.145 186.757L121.172 183.465L125.246 180.246L129.365 177.103L133.528 174.036L137.733 171.045L141.978 168.131L146.263 165.295L150.585 162.538L154.943 159.86L159.336 157.261L163.761 154.743L168.218 152.306L172.705 149.951L177.22 147.677L181.761 145.485L186.327 143.376L190.917 141.35L195.528 139.407L200.159 137.548L204.809 135.773L209.475 134.082L214.157 132.476L218.852 130.954L223.558 129.516L228.275 128.164L233.001 126.896L237.733 125.714L242.471 124.616L247.212 123.604L251.955 122.676L256.699 121.833L261.441 121.075L266.18 120.401L270.914 119.812L275.642 119.307L280.362 118.885L285.072 118.548L289.772 118.294L294.458 118.122L299.13 118.033L303.786 118.027L308.425 118.102L313.044 118.259L317.643 118.496L322.219 118.814L326.772 119.211L331.299 119.688L335.799 120.243L340.271 120.876L344.713 121.586L349.124 122.373L353.502 123.235L357.845 124.173L362.153 125.184L366.424 126.269L370.657 127.427L374.849 128.656L379 129.956L383.109 131.326L387.174 132.765L391.193 134.271L395.167 135.845L399.092 137.484L402.968 139.188L406.795 140.956L410.57 142.787L414.292 144.679L417.96 146.631L421.574 148.643L425.132 150.713L428.633 152.839L432.076 155.021L435.459 157.257L438.783 159.547L442.046 161.888L445.246 164.28L448.384 166.72L451.458 169.209L454.467 171.744L457.411 174.324L460.289 176.947L463.099 179.613L465.842 182.32L468.516 185.066L471.12 187.85L473.655 190.67L476.119 193.526L478.513 196.415L480.834 199.336L483.084 202.287L485.26 205.267L487.363 208.275L489.393 211.309L491.349 214.367L493.23 217.448L495.036 220.55L496.767 223.672L498.423 226.812L500.003 229.968L501.507 233.139L502.935 236.324L504.287 239.521L505.563 242.727L506.762 245.943L507.884 249.165L508.93 252.393L509.9 255.624L510.793 258.858L511.609 262.093L512.349 265.326L513.013 268.557L513.601 271.784L514.113 275.006L514.55 278.22L514.911 281.425L515.197 284.62L515.408 287.803L515.545 290.972L515.608 294.127L515.598 297.265L515.514 300.384L515.358 303.485L515.13 306.564L514.83 309.621L514.459 312.654L514.017 315.661L513.506 318.641L512.926 321.593L512.277 324.515L511.561 327.406L510.778 330.265L509.928 333.089L509.014 335.878L508.034 338.631L506.991 341.345L505.886 344.02L504.718 346.655L503.489 349.247L502.201 351.797L500.853 354.302L499.448 356.762L497.985 359.174L496.467 361.539L494.894 363.855L493.267 366.121L491.588 368.335L489.858 370.497L488.077 372.606L486.247 374.66L484.369 376.659L482.445 378.601L480.476 380.486L478.462 382.313L476.406 384.08L474.308 385.787L472.171 387.434L469.994 389.018L467.78 390.54L465.531 391.999L463.246 393.394L460.929 394.724L458.579 395.988L456.2 397.186L453.791 398.318L451.355 399.382L448.894 400.379L446.407 401.307L443.898 402.166L441.368 402.956L438.817 403.676L436.248 404.326L433.662 404.905L431.061 405.413L428.446 405.85L425.819 406.215L423.182 406.509L420.535 406.731L417.88 406.88L415.22 406.957L412.555 406.962L409.888 406.894L407.219 406.753L404.551 406.54L401.885 406.254L399.222 405.896L396.564 405.465L393.913 404.961L391.27 404.385L388.637 403.737L386.015 403.017L383.407 402.225L380.813 401.362L378.234 400.428L375.674 399.423L373.133 398.347L370.612 397.201L368.114 395.986L365.639 394.701L363.19 393.347L360.767 391.926L358.373 390.436L356.008 388.879L353.675 387.256L351.374 385.567L349.107 383.813L346.876 381.994L344.681 380.111L342.525 378.165L340.409 376.157L338.333 374.087L336.3 371.957L334.311 369.766L332.367 367.517L330.469 365.21L328.619 362.845L326.818 360.425L325.066 357.949L323.366 355.419L321.719 352.836L320.125 350.201L318.587 347.515L317.104 344.779L315.678 341.994L314.311 339.162L313.003 336.284L311.755 333.36L310.569 330.393L309.444 327.382L308.384 324.33L307.387 321.238L306.455 318.108L305.59 314.939L304.791 311.735L304.06 308.495L303.398 305.222L302.805 301.917L302.282 298.581L301.83 295.216L301.449 291.824L301.14 288.404L300.904 284.96L300.742 281.493L300.653 278.003L300.639 274.493L300.7 270.964L300.837 267.417L301.049 263.855L301.338 260.278L301.704 256.689L302.146 253.088L302.666 249.478L303.264 245.859L303.94 242.234L304.694 238.604L305.526 234.97L306.437 231.335L307.427 227.7L308.496 224.066L309.643 220.435L310.87 216.809L312.175 213.188L313.559 209.576L315.023 205.973L316.565 202.382L318.185 198.803L319.884 195.238L321.662 191.689L323.517 188.157L325.45 184.645L327.461 181.153L329.549 177.683L331.714 174.237L333.955 170.817L336.272 167.423L338.665 164.058L341.134 160.723L343.676 157.419L346.293 154.148L348.984 150.913L351.747 147.713L354.582 144.55L357.49 141.427L360.468 138.344L363.516 135.304L366.634 132.306L369.82 129.354L373.075 126.447L376.396 123.589L379.784 120.779L383.236 118.02L386.754 115.313L390.334 112.658L393.977 110.058L397.682 107.514L401.447 105.026L405.271 102.597L409.153 100.227L413.093 97.9181L417.088 95.6707L421.139 93.4862L425.243 91.3658L429.4 89.3106L433.608 87.3217L437.866 85.4002L442.173 83.5472L446.527 81.7636L450.928 80.0504L455.373 78.4087L459.862 76.8394L464.393 75.3433L468.965 73.9214L473.576 72.5745L478.225 71.3035L482.911 70.1092L487.631 68.9923L492.385 67.9537L497.172 66.994L501.988 66.114L506.834 65.3142L511.708 64.5954L516.607 63.9582L521.531 63.403L526.478 62.9305L531.446 62.5413L536.434 62.2356L541.44 62.0141L546.463 61.8772L551.5 61.8251L556.551 61.8584L561.613 61.9772L566.686 62.182L571.767 62.4729L576.854 62.8503L581.947 63.3142L587.043 63.8649L592.141 64.5025L597.239 65.2271L602.335 66.0388L607.429 66.9375L612.517 67.9234L617.599 68.9963L622.672 70.1563L627.736 71.4032L632.788 72.7368L637.827 74.1572L642.851 75.6639L647.858 77.2569L652.847 78.9358L657.817 80.7003L662.765 82.5503L667.69 84.4852L672.59 86.5047L677.464 88.6084L682.31 90.7958L687.126 93.0665L691.911 95.4199L696.663 97.8556L701.381 100.373L706.064 102.971L710.708 105.65L715.314 108.408L719.88 111.246L724.403 114.161L728.883 117.155L733.318 120.225L737.706 123.371L742.047 126.592L746.338 129.887L750.579 133.256L754.767 136.697L758.902 140.209L762.982 143.792L767.006 147.445L770.972 151.166L774.88 154.954L778.727 158.809L782.513 162.729L786.236 166.713L789.896 170.76L793.491 174.868L797.019 179.037L800.48 183.266L803.873 187.552L807.196 191.895L810.448 196.294L813.629 200.747L816.737 205.253L819.772 209.81L822.732 214.418L825.616 219.074L828.424 223.778L831.155 228.527L833.807 233.321L836.38 238.158L838.874 243.037L841.287 247.956L843.618 252.913L845.868 257.907L848.034 262.937L850.118 268.001L852.117 273.097L854.032 278.224L855.861 283.38L857.605 288.564L859.263 293.774L860.834 299.009L862.318 304.266L863.715 309.545L865.024 314.843L866.245 320.159L867.377 325.492L868.42 330.839L869.375 336.199L870.24 341.571L871.016 346.952L871.703 352.342L872.3 357.737L872.807 363.138L873.225 368.541L873.553 373.946L873.791 379.351L873.94 384.753L873.999 390.152L873.969 395.546L873.849 400.932L873.64 406.31L873.343 411.678L872.957 417.034L872.483 422.376L871.92 427.703L871.271 433.013L870.533 438.305L869.709 443.576L868.799 448.826L867.803 454.053L866.721 459.255L865.555 464.43L864.304 469.577L862.97 474.695L861.552 479.782L860.052 484.836L858.471 489.856L856.808 494.84L855.066 499.787L853.244 504.696L851.343 509.564L849.364 514.391L847.309 519.175L845.178 523.915L842.971 528.609L840.69 533.256L838.337 537.855L835.911 542.404L833.414 546.902L830.846 551.347L828.21 555.739L825.506 560.076L822.735 564.358L819.898 568.581L816.997 572.747L814.033 576.853L811.007 580.898L807.919 584.882L804.773 588.802L801.568 592.659L798.306 596.45L794.988 600.176L791.616 603.835L788.191 607.426L784.715 610.948L781.188 614.4L777.613 617.782L773.99 621.093L770.321 624.331L766.608 627.496L762.852 630.588L759.054 633.605L755.217 636.547L751.341 639.413L747.428 642.203L743.479 644.916L739.497 647.551L735.482 650.108L731.437 652.587L727.363 654.986L723.261 657.306L719.133 659.545L714.98 661.705L710.805 663.783L706.609 665.781L702.393 667.697L698.159 669.532L693.909 671.285L689.645 672.956L685.367 674.545L681.078 676.052L676.779 677.476L672.472 678.818L668.159 680.077L663.841 681.254L659.52 682.349L655.197 683.361L650.874 684.291L646.553 685.139L642.235 685.905L637.923 686.589L633.617 687.192L629.319 687.714L625.03 688.154L620.754 688.514L616.49 688.794L612.241 688.994L608.008 689.115L603.792 689.156L599.596 689.119L595.421 689.004L591.268 688.812L587.139 688.543L583.035 688.197L578.959 687.776L574.91 687.28L570.892 686.709L566.904 686.065L562.949 685.349L559.029 684.56L555.144 683.7L551.295 682.769L547.485 681.769L543.715 680.701L539.986 679.565L536.299 678.361L532.655 677.093L529.056 675.759L525.504 674.361L521.998 672.901L518.542 671.379L515.134 669.796L511.778 668.154L508.474 666.453L505.223 664.695L502.026 662.881L498.884 661.012L495.799 659.09L492.771 657.115L489.801 655.089L486.891 653.013L484.041 650.888L481.252 648.717L478.525 646.499L475.861 644.237L473.26 641.931L470.724 639.584L468.254 637.196L465.849 634.769L463.511 632.305L461.241 629.804L459.039 627.269L456.905 624.7L454.841 622.1L452.846 619.469L450.922 616.81L449.069 614.123L447.287 611.41L445.577 608.673L443.94 605.914L442.375 603.133L440.882 600.333L439.463 597.514L438.118 594.679L436.846 591.83L435.649 588.966L434.525 586.091L433.476 583.206L432.502 580.312L431.602 577.411L430.776 574.504L430.026 571.594L429.35 568.681L428.748 565.767L428.221 562.854L427.768 559.944L427.39 557.037L427.086 554.136L426.856 551.243L426.699 548.357L426.616 545.482L426.606 542.619L426.668 539.769L426.803 536.934L427.011 534.115L427.289 531.314L427.639 528.533L428.06 525.772L428.551 523.034L429.111 520.319L429.74 517.63L430.438 514.968L431.203 512.334L432.036 509.729L432.935 507.156L433.9 504.615L434.93 502.107L436.024 499.635L437.181 497.2L438.401 494.802L439.683 492.444L441.025 490.126L442.427 487.85L443.889 485.617L445.408 483.428L446.984 481.285L448.616 479.189L450.303 477.14L452.044 475.141L453.837 473.191L455.682 471.293L457.578 469.448L459.523 467.655L461.516 465.918L463.557 464.236L465.643 462.61L467.773 461.042L469.947 459.532L472.163 458.082L474.419 456.692L476.715 455.363L479.049 454.096L481.419 452.892L483.825 451.752L486.265 450.675L488.737 449.664L491.24 448.719L493.773 447.84L496.334 447.028L498.922 446.284L501.536 445.608L504.173 445.001L506.832 444.463L509.513 443.995L512.212 443.597L514.93 443.27L517.663 443.015L520.412 442.83L523.174 442.718L525.947 442.678L528.73 442.71L531.522 442.815L534.321 442.993L537.125 443.243L539.933 443.568L542.744 443.965L545.555 444.436L548.365 444.98L551.172 445.598L553.976 446.289L556.773 447.054L559.564 447.892L562.345 448.803L565.116 449.787L567.875 450.845L570.621 451.975L573.351 453.177L576.064 454.452L578.76 455.799L581.435 457.217L584.089 458.707L586.72 460.267L589.327 461.898L591.907 463.599L594.461 465.369L596.985 467.209L599.478 469.116L601.94 471.092L604.368 473.134L606.761 475.244L609.118 477.419L611.437 479.659L613.717 481.964L615.957 484.333L618.154 486.765L620.308 489.258L622.417 491.813L624.48 494.429L626.496 497.104L628.463 499.838L630.38 502.629L632.246 505.477L634.059 508.381L635.819 511.339L637.524 514.351L639.172 517.416L640.764 520.532L642.297 523.699L643.77 526.914L645.183 530.178L646.534 533.488L647.822 536.844L649.047 540.245L650.207 543.689L651.301 547.174L652.328 550.7L653.288 554.266L654.179 557.869L655.001 561.509L655.753 565.184L656.434 568.893L657.042 572.634L657.579 576.407L658.042 580.209L658.431 584.039L658.746 587.896L658.985 591.778L659.148 595.683L659.235 599.611L659.244 603.56L659.176 607.528L659.031 611.513L658.806 615.515L658.503 619.531L658.12 623.56L657.658 627.6L657.115 631.651L656.492 635.709L655.789 639.774L655.005 643.845L654.14 647.918L653.193 651.994L652.165 656.07L651.056 660.144L649.865 664.215L648.593 668.282L647.239 672.343L645.803 676.395L644.286 680.438L642.688 684.471L641.008 688.49L639.247 692.495L637.405 696.484L635.482 700.455L633.479 704.407L631.395 708.339L629.232 712.248L626.989 716.133L624.667 719.993L622.266 723.825L619.787 727.629L617.23 731.402L614.595 735.144L611.884 738.852L609.096 742.526L606.233 746.163L603.295 749.762L600.282 753.321L597.196 756.84L594.037 760.316L590.805 763.749L587.503 767.136L584.129 770.476L580.686 773.769L577.174 777.012L573.594 780.203L569.946 783.343L566.233 786.429L562.454 789.46L558.611 792.435L554.705 795.352L550.737 798.211L546.708 801.009L542.619 803.746L538.471 806.421L534.266 809.031L530.004 811.578L525.686 814.058L521.315 816.471L516.891 818.815L512.415 821.091L507.889 823.296L503.315 825.43L498.692 827.492L494.023 829.48L489.31 831.395L484.553 833.234L479.754 834.997L474.914 836.683L470.035 838.291L465.118 839.822L460.165 841.272L455.177 842.643L450.155 843.933L445.102 845.142L440.019 846.268L434.907 847.312L429.768 848.273L424.603 849.149L419.414 849.941L414.203 850.649L408.971 851.271L403.719 851.807L398.45 852.257L393.166 852.62L387.866 852.896L382.555 853.086L377.232 853.187L371.9 853.201L366.56 853.127L361.214 852.964L355.863 852.713L350.51 852.374L345.156 851.946L339.803 851.429L334.452 850.824L329.104 850.13L323.763 849.347L318.429 848.476L313.104 847.517L307.789 846.469L302.487 845.333L297.199 844.109L291.927 842.798L286.672 841.399L281.436 839.913L276.22 838.34L271.027 836.681L265.858 834.936L260.714 833.105L255.598 831.189L250.51 829.189L245.453 827.104L240.427 824.936L235.435 822.685L230.479 820.351L225.558 817.936L220.676 815.44L215.834 812.864L211.033 810.208L206.274 807.473L201.56 804.66L196.891 801.77L192.27 798.803L187.697 795.761L183.174 792.645L178.702 789.455L174.283 786.192L169.918 782.858L165.608 779.453L161.355 775.978L157.16 772.435L153.025 768.824L148.95 765.147L144.936 761.405L140.986 757.599L137.1 753.73L133.279 749.799L129.525 745.808L125.838 741.757L122.22 737.649L118.672 733.484L115.194 729.264L111.788 724.99L108.455 720.664L105.196 716.286L102.011 711.858L98.9022 707.382L95.8695 702.859L92.9141 698.29L90.0369 693.678L87.2384 689.022L84.5197 684.326L81.8813 679.59L79.3239 674.816L76.8483 670.005L74.4551 665.16L72.1449 660.281L69.9182 655.37L67.7757 650.428L65.7178 645.458L63.7449 640.461L61.8577 635.438L60.0564 630.392L58.3415 625.323L56.7134 620.233L55.1722 615.125L53.7184 609.999L52.3523 604.857L51.0739 599.701L49.8836 594.533L48.7814 589.354L47.7676 584.166L46.8422 578.97L46.0052 573.769L45.2567 568.563L44.5967 563.355L44.0252 558.146L43.5421 552.938L43.1472 547.733L42.8405 542.531L42.6218 537.336L42.4909 532.148L42.4475 526.969L42.4914 521.801L42.6223 516.645L42.8398 511.503L43.1437 506.377L43.5334 501.268L44.0087 496.178L44.5689 491.108L45.2137 486.06L45.9425 481.036L46.7548 476.037L47.65 471.065L48.6274 466.121L49.6865 461.207L50.8265 456.324L52.0468 451.473L53.3467 446.657L54.7253 441.877L56.1819 437.134L57.7157 432.429L59.3258 427.765L61.0114 423.142L62.7715 418.561L64.6052 414.025L66.5116 409.534L68.4897 405.091L70.5386 400.695L72.657 396.349L74.8441 392.053L77.0987 387.81L79.4197 383.619L81.8061 379.483L84.2565 375.403L86.77 371.379L89.3452 367.413L91.9809 363.506L94.676 359.659L97.4292 355.873L100.239 352.149L103.104 348.489L106.024 344.892L108.996 341.36L112.02 337.895L115.094 334.496L118.217 331.165L121.387 327.902L124.602 324.709L127.862 321.586L131.166 318.534L134.51 315.553L137.895 312.645L141.318 309.81L144.778 307.048L148.274 304.361L151.804 301.749L155.366 299.211L158.959 296.75L162.581 294.365L166.231 292.057L169.908 289.826L173.609 287.673L177.332 285.598L181.078 283.601L184.843 281.682L188.626 279.843L192.426 278.082L196.241 276.401L200.069 274.799L203.909 273.277L207.759 271.834L211.617 270.472L215.483 269.188L219.353 267.985L223.228 266.862L227.104 265.818L230.98 264.854L234.856 263.969L238.728 263.163L242.596 262.437L246.458 261.789L250.313 261.221L254.158 260.73L257.992 260.318L261.814 259.983L265.622 259.725L269.414 259.545L273.19 259.44L276.946 259.412L280.683 259.459L284.398 259.582L288.09 259.778L291.757 260.048L295.398 260.392L299.011 260.808L302.595 261.296L306.149 261.854L309.67 262.484L313.159 263.182L316.613 263.95L320.03 264.786L323.41 265.688L326.751 266.657L330.053 267.691L333.312 268.79L336.529 269.952L339.703 271.177L342.83 272.463L345.912 273.809L348.946 275.215L351.931 276.679L354.866 278.201L357.75 279.778L360.582 281.411L363.36 283.097L366.084 284.836L368.753 286.626L371.366 288.466L373.921 290.355L376.418 292.292L378.855 294.275L381.233 296.303L383.549 298.375L385.804 300.49L387.996 302.645L390.124 304.84L392.188 307.073L394.188 309.343L396.121 311.649L397.988 313.988L399.789 316.36L401.521 318.763L403.186 321.196L404.781 323.657L406.308 326.145L407.764 328.658L409.151 331.195L410.466 333.753L411.711 336.333L412.884 338.931L413.985 341.547L415.014 344.179L415.971 346.826L416.856 349.485L417.667 352.156L418.405 354.837L419.071 357.526L419.663 360.221L420.181 362.922L420.627 365.626L420.999 368.332L421.297 371.038L421.522 373.743L421.674 376.445L421.753 379.143L421.758 381.835L421.691 384.52L421.551 387.196L421.339 389.861L421.055 392.514L420.698 395.153L420.271 397.777L419.772 400.384L419.203 402.973L418.563 405.542L417.853 408.09L417.074 410.615L416.226 413.116L415.31 415.591L414.326 418.039L413.276 420.459L412.158 422.848L410.975 425.206L409.727 427.531L408.415 429.822L407.039 432.077L405.6 434.294L404.099 436.474L402.537 438.614L400.915 440.713L399.234 442.769L397.494 444.782L395.696 446.751L393.842 448.673L391.933 450.547L389.969 452.374L387.951 454.15L385.881 455.876L383.76 457.55L381.589 459.171L379.368 460.737L377.1 462.249L374.785 463.704L372.424 465.102L370.02 466.441L367.572 467.722L365.083 468.942L362.553 470.101L359.984 471.198L357.377 472.232L354.734 473.203L352.055 474.109L349.343 474.95L346.599 475.725L343.823 476.433L341.019 477.073L338.186 477.646L335.326 478.15L332.441 478.584L329.533 478.949L326.602 479.243L323.651 479.466L320.68 479.617L317.692 479.697L314.687 479.704L311.668 479.638L308.636 479.499L305.593 479.287L302.539 479.001L299.477 478.641L296.409 478.207L293.335 477.698L290.257 477.114L287.178 476.456L284.097 475.723L281.018 474.915L277.942 474.031L274.87 473.073L271.804 472.04L268.745 470.931L265.696 469.748L262.657 468.49L259.631 467.157L256.618 465.749L253.621 464.268L250.64 462.712L247.679 461.083L244.737 459.38L241.818 457.604L238.921 455.755L236.05 453.834L233.204 451.841L230.387 449.777L227.599 447.641L224.842 445.436L222.118 443.16L219.428 440.815L216.772 438.401L214.154 435.919L211.575 433.37L209.035 430.755L206.536 428.073L204.08 425.326L201.668 422.515L199.301 419.64L196.981 416.703L194.71 413.703L192.487 410.643L190.316 407.523L188.197 404.344L186.131 401.106L184.119 397.812L182.164 394.461L180.266 391.056L178.426 387.597L176.645 384.085L174.925 380.521L173.267 376.907L171.671 373.243L170.14 369.532L168.673 365.773L167.273 361.969L165.939 358.12L164.674 354.229L163.477 350.295L162.351 346.321L161.295 342.308L160.311 338.257L159.399 334.17L158.561 330.047L157.797 325.891L157.108 321.703L156.494 317.484L155.957 313.236L155.497 308.96L155.115 304.658L154.811 300.331L154.586 295.981L154.441 291.608L154.375 287.216L154.39 282.805L154.486 278.377L154.664 273.933L154.923 269.475L155.265 265.005L155.689 260.524L156.196 256.034L156.786 251.537L157.46 247.033L158.217 242.525L159.058 238.014L159.983 233.502L160.992 228.991L162.085 224.481L163.262 219.976L164.524 215.476L165.87 210.983L167.3 206.498L168.814 202.024L170.412 197.562L172.094 193.114L173.86 188.681L175.709 184.264L177.642 179.866L179.657 175.489L181.755 171.133L183.935 166.8L186.198 162.492L188.541 158.211L190.966 153.958L193.472 149.734L196.058 145.542L198.723 141.382L201.467 137.257L204.29 133.168L207.191 129.116L210.169 125.104L213.223 121.131L216.354 117.201L219.559 113.314L222.839 109.472L226.192 105.677L229.618 101.929L233.115 98.2302L236.684 94.5822L240.322 90.9862L244.03 87.4435L247.806 83.9555L251.649 80.5235L255.557 77.1489L259.531 73.8329L263.569 70.5767L267.67 67.3818L271.833 64.2492L276.056 61.1802L280.338 58.1759L284.679 55.2375L289.077 52.3662L293.53 49.5631L298.038 46.8292L302.6 44.1657L307.213 41.5735L311.877 39.0537L316.59 36.6072L321.351 34.235L326.158 31.9382L331.011 29.7174L335.907 27.5738L340.845 25.508L345.824 23.5209L350.843 21.6134L355.899 19.7862L360.992 18.0399L366.119 16.3755L371.28 14.7934L376.472 13.2944L381.695 11.879L386.946 10.548L392.224 9.30179L397.527 8.14093L402.855 7.0659L408.204 6.07721L413.574 5.1753L418.964 4.36053L424.37 3.63332L429.792 2.99393L435.228 2.44276L440.676 1.98001L446.136 1.60596L451.604 1.32081L457.079 1.12475L462.56 1.01791L468.046 1.00041L473.533 1.07232L479.021 1.2337L484.508 1.48455L489.993 1.82486L495.473 2.25458L500.946 2.77362L506.412 3.38187L511.869 4.07917L517.315 4.86537L522.747 5.74022L528.166 6.70347L533.568 7.75486L538.953 8.89408L544.318 10.1208L549.662 11.4346L554.983 12.8351L560.28 14.3219L565.551 15.8944L570.795 17.5522L576.009 19.2948L581.193 21.1216L586.345 23.032L591.462 25.0254L596.545 27.101L601.59 29.2583L606.597 31.4965L611.564 33.8149L616.49 36.2127L621.373 38.6891L626.211 41.2432L631.004 43.8743L635.749 46.5813L640.446 49.3635L645.093 52.2199L649.688 55.1494L654.23 58.1511L658.719 61.2241L663.152 64.3672L667.528 67.5793L671.847 70.8594L676.106 74.2064L680.305 77.619L684.442 81.0962L688.517 84.6368L692.527 88.2395L696.473 91.9031L700.352 95.6263L704.164 99.408L707.908 103.247L711.583 107.141L715.187 111.09L718.72 115.092L722.18 119.145L725.568 123.249L728.881 127.402L732.12 131.602L735.282 135.849L738.369 140.139L741.378 144.473L744.308 148.849L747.16 153.264L749.933 157.718L752.625 162.21L755.237 166.736L757.767 171.297L760.215 175.89L762.581 180.514L764.864 185.167L767.064 189.848L769.179 194.555L771.211 199.286L773.158 204.04L775.019 208.815L776.796 213.61L778.487 218.423L780.092 223.252L781.611 228.095L783.044 232.952L784.39 237.82L785.65 242.698L786.824 247.584L787.91 252.476L788.911 257.373L789.824 262.274L790.651 267.175L791.392 272.077L792.046 276.976L792.614 281.873L793.096 286.764L793.493 291.648L793.803 296.524L794.029 301.39L794.169 306.244L794.225 311.086L794.196 315.912L794.084 320.722L793.888 325.514L793.61 330.286L793.248 335.037L792.805 339.766L792.281 344.47L791.675 349.149L790.99 353.8L790.225 358.423L789.381 363.015L788.459 367.575L787.46 372.103L786.384 376.595L785.233 381.052L784.006 385.471L782.705 389.851L781.331 394.19L779.885 398.489L778.367 402.744L776.779 406.955L775.121 411.12L773.395 415.238L771.602 419.308L769.742 423.329L767.817 427.299L765.827 431.218L763.775 435.083L761.661 438.894L759.486 442.65L757.251 446.35L754.958 449.992L752.609 453.575L750.203 457.1L747.743 460.563L745.23 463.965L742.664 467.305L740.049 470.581L737.384 473.793L734.671 476.94L731.912 480.021L729.108 483.035L726.26 485.982L723.37 488.86L720.44 491.669L717.47 494.408L714.462 497.077L711.418 499.675L708.34 502.202L705.228 504.656L702.084 507.037L698.91 509.345L695.707 511.579L692.478 513.739L689.223 515.824L685.943 517.834L682.642 519.769L679.319 521.628L675.977 523.411L672.618 525.118L669.243 526.748L665.853 528.302L662.45 529.778L659.036 531.178L655.612 532.501L652.18 533.746L648.742 534.914L645.299 536.005L641.853 537.018L638.405 537.955L634.957 538.814L631.511 539.597L628.068 540.303L624.63 540.932L621.198 541.485L617.774 541.961L614.359 542.362L610.956 542.687L607.565 542.937L604.189 543.113L600.828 543.214L597.485 543.241L594.16 543.194L590.856 543.075L587.573 542.883L584.314 542.619L581.08 542.284L577.872 541.878L574.692 541.402L571.541 540.857L568.42 540.243L565.332 539.561L562.277 538.812L559.257 537.997L556.273 537.116L553.326 536.171L550.418 535.162L547.551 534.09L544.725 532.955L541.941 531.76L539.202 530.505L536.507 529.191L533.859 527.818L531.259 526.389L528.707 524.904L526.206 523.364L523.755 521.77L521.356 520.123L519.011 518.426L516.72 516.678L514.484 514.881L512.304 513.036L510.181 511.145L508.117 509.208L506.111 507.228L504.166 505.205L502.281 503.14L500.458 501.036L498.698 498.892L497.001 496.712L495.368 494.495L493.799 492.244L492.296 489.96L490.86 487.644L489.489 485.298L488.187 482.923L486.952 480.521L485.786 478.093L484.688 475.64L483.66 473.165L482.702 470.668L481.815 468.151L480.998 465.616L480.252 463.064L479.578 460.497L478.975 457.916L478.445 455.323L477.987 452.72L477.601 450.107L477.288 447.487L477.047 444.861L476.88 442.23L476.785 439.596L476.764 436.962L476.815 434.327L476.939 431.695L477.136 429.066L477.407 426.442L477.749 423.824L478.165 421.215L478.652 418.616L479.212 416.027L479.844 413.452L480.547 410.891L481.322 408.346L482.168 405.818L483.084 403.309L484.071 400.821L485.127 398.355L486.252 395.912L487.447 393.494L488.709 391.103L490.039 388.739L491.437 386.406L492.901 384.102L494.43 381.832L496.025 379.594L497.685 377.392L499.408 375.227L501.194 373.099L503.042 371.011L504.951 368.963L506.921 366.957L508.951 364.994L511.039 363.076L513.185 361.203L515.388 359.378L517.646 357.601L519.96 355.873L522.327 354.196L524.747 352.571L527.219 350.999L529.741 349.481L532.312 348.019L534.932 346.613L537.599 345.264L540.312 343.973L543.07 342.742L545.871 341.572L548.714 340.463L551.598 339.416L554.522 338.433L557.484 337.514L560.483 336.66L563.517 335.871L566.586 335.15L569.688 334.495L572.821 333.909L575.984 333.392L579.175 332.945L582.394 332.568L585.639 332.262L588.908 332.027L592.199 331.865L595.512 331.775L598.844 331.758L602.195 331.815L605.562 331.946L608.945 332.152L612.341 332.433L615.749 332.789L619.168 333.221L622.595 333.728L626.03 334.312L629.47 334.972L632.915 335.709L636.362 336.523L639.81 337.414L643.257 338.382L646.702 339.427L650.143 340.549L653.579 341.749L657.008 343.026L660.428 344.38L663.837 345.811L667.235 347.319L670.619 348.903L673.988 350.565L677.341 352.303L680.675 354.117L683.989 356.007L687.282 357.972L690.552 360.013L693.796 362.129L697.015 364.319L700.206 366.583L703.368 368.921L706.499 371.332L709.598 373.816L712.662 376.371L715.692 378.998L718.684 381.696L721.638 384.464L724.552 387.301L727.425 390.207L730.255 393.181L733.041 396.223L735.782 399.331L738.475 402.504L741.12 405.742L743.715 409.045L746.26 412.41L748.751 415.837L751.189 419.325L753.572 422.874L755.899 426.482L758.168 430.147L760.379 433.87L762.529 437.649L764.618 441.482L766.645 445.369L768.609 449.309L770.507 453.3L772.34 457.341L774.107 461.431L775.805 465.568L777.434 469.752L778.994 473.981L780.483 478.254L781.9 482.569L783.244 486.925L784.515 491.322L785.711 495.756L786.832 500.227L787.877 504.734L788.844 509.275L789.734 513.849L790.546 518.453L791.279 523.088L791.932 527.75L792.504 532.44L792.996 537.154L793.405 541.892L793.733 546.652L793.978 551.433L794.14 556.232L794.218 561.049L794.212 565.881L794.122 570.728L793.947 575.588L793.687 580.458L793.342 585.337L792.91 590.225L792.393 595.118L791.79 600.016L791.101 604.916L790.325 609.818L789.463 614.719L788.514 619.619L787.478 624.514L786.356 629.404L785.147 634.287L783.852 639.161L782.47 644.024L781.002 648.876L779.448 653.714L777.808 658.537L776.082 663.342L774.271 668.129L772.375 672.896L770.393 677.641L768.328 682.363L766.178 687.059L763.944 691.729L761.628 696.37L759.228 700.982L756.746 705.562L754.183 710.109L751.538 714.621L748.813 719.097L746.008 723.536L743.124 727.935L740.161 732.294L737.121 736.61L734.003 740.883L730.81 745.111L727.54 749.292L724.197 753.425L720.779 757.509L717.289 761.541L713.727 765.522L710.094 769.449L706.392 773.321L702.62 777.136L698.78 780.894L694.874 784.593L690.902 788.232L686.865 791.81L682.765 795.325L678.602 798.776L674.378 802.162L670.095 805.482L665.753 808.734L661.353 811.918L656.897 815.033L652.386 818.077L647.822 821.049L643.206 823.949L638.539 826.776L633.822 829.527L629.057 832.203L624.246 834.803L619.389 837.326L614.489 839.77L609.546 842.136L604.562 844.422L599.54 846.627L594.479 848.751L589.382 850.793L584.25 852.753L579.085 854.629L573.889 856.422L568.662 858.13L563.407 859.753L558.125 861.291L552.818 862.743L547.487 864.108L542.135 865.386L536.761 866.577L531.369 867.681L525.961 868.696L520.536 869.624L515.098 870.462L509.648 871.212L504.187 871.873L498.717 872.445L493.241 872.928L487.759 873.321L482.273 873.625L476.786 873.84L471.297 873.964L465.811 874L460.327 873.946L454.848 873.803L449.375 873.57L443.911 873.249L438.456 872.839L433.012 872.34L427.582 871.753L422.166 871.078L416.766 870.315L411.385 869.465L406.023 868.527L400.682 867.503L395.364 866.393L390.071 865.198L384.803 863.917L379.564 862.551L374.353 861.102L369.174 859.569L364.026 857.953L358.913 856.255L353.835 854.476L348.794 852.616L343.791 850.676L338.829 848.657L333.907 846.559L329.029 844.384L324.194 842.132L319.406 839.804L314.664 837.402L309.971 834.926L305.328 832.376L300.735 829.755L296.196 827.062L291.71 824.3L287.279 821.469L282.904 818.57L278.587 815.605L274.328 812.574L270.13 809.479L265.992 806.321L261.917 803.101L257.905 799.82L253.957 796.48L250.075 793.082L246.26 789.627L242.511 786.117L238.832 782.552L235.222 778.935L231.682 775.266L228.213 771.547L224.817 767.78L221.494 763.965L218.244 760.104L215.07 756.2L211.97 752.252L208.947 748.263L206 744.235L203.131 740.167L200.34 736.063L197.628 731.924L194.995 727.751L192.442 723.546L189.969 719.31L187.577 715.045L185.266 710.753L183.037 706.435L180.89 702.092L178.826 697.727L176.844 693.341L174.946 688.936L173.131 684.512L171.399 680.073L169.751 675.618L168.187 671.151L166.707 666.673L165.312 662.185L164 657.689L162.773 653.186L161.63 648.679L160.571 644.169L159.596 639.657L158.705 635.145L157.898 630.635L157.175 626.129L156.536 621.627L155.979 617.132L155.506 612.646L155.116 608.169L154.808 603.704L154.582 599.252L154.437 594.814L154.374 590.393L154.392 585.989L154.49 581.605L154.668 577.241L154.925 572.9L155.261 568.583L155.675 564.292L156.167 560.027L156.735 555.79L157.379 551.584L158.099 547.409L158.893 543.266L159.762 539.158L160.703 535.085L161.716 531.05L162.801 527.052L163.956 523.095L165.181 519.178L166.474 515.304L167.835 511.473L169.263 507.687L170.756 503.948L172.313 500.255L173.935 496.612L175.618 493.018L177.363 489.475L179.168 485.985L181.032 482.547L182.954 479.164L184.932 475.836L186.966 472.565L189.054 469.351L191.194 466.196L193.386 463.1L195.629 460.064L197.92 457.09L200.259 454.178L202.645 451.329L205.075 448.544L207.549 445.824L210.064 443.169L212.621 440.58L215.216 438.058L217.85 435.604L220.519 433.218L223.224 430.902L225.962 428.654L228.731 426.477L231.531 424.37L234.36 422.335L237.216 420.371L240.098 418.48L243.004 416.661L245.933 414.914L248.883 413.241L251.852 411.642L254.84 410.116L257.843 408.665L260.862 407.288L263.894 405.986L266.937 404.758L269.99 403.605L273.052 402.527L276.121 401.524L279.195 400.597L282.272 399.744L285.352 398.966L288.432 398.263L291.511 397.636L294.587 397.083L297.659 396.604L300.726 396.2L303.784 395.87L306.834 395.614L309.873 395.432L312.9 395.323L315.913 395.287L318.911 395.324L321.892 395.433L324.855 395.613L327.798 395.865L330.72 396.188L333.619 396.581L336.494 397.044L339.343 397.576L342.165 398.176L344.958 398.844L347.721 399.58L350.452 400.382L353.151 401.249L355.815 402.182L358.443 403.178L361.035 404.238L363.588 405.361L366.102 406.545L368.574 407.789L371.005 409.094L373.391 410.457L375.733 411.879L378.03 413.357L380.278 414.891L382.479 416.48L384.63 418.122L386.731 419.817L388.779 421.564L390.775 423.361L392.717 425.207L394.604 427.101L396.435 429.042L398.209 431.029L399.926 433.06L401.583 435.134L403.181 437.25L404.718 439.406L406.194 441.601L407.607 443.834L408.957 446.104L410.243 448.409L411.465 450.747L412.621 453.118L413.712 455.52L414.735 457.951L415.692 460.41L416.58 462.896L417.4 465.407L418.151 467.942L418.832 470.499L419.443 473.076L419.984 475.673L420.454 478.287L420.852 480.917L421.179 483.562L421.434 486.22L421.617 488.89L421.727 491.569L421.765 494.257L421.729 496.952L421.621 499.652L421.439 502.355L421.184 505.061L420.856 507.768L420.454 510.473L419.979 513.176L419.43 515.874L418.809 518.567L418.114 521.253L417.345 523.93L416.504 526.596L415.59 529.251L414.604 531.891L413.545 534.517L412.415 537.126L411.212 539.717L409.939 542.288L408.594 544.838L407.179 547.365L405.694 549.868L404.14 552.345L402.516 554.795L400.824 557.216L399.063 559.607L397.236 561.966L395.342 564.291L393.381 566.583L391.355 568.838L389.265 571.056L387.11 573.235L384.893 575.373L382.613 577.471L380.272 579.525L377.869 581.535L375.408 583.499L372.887 585.417L370.308 587.286L367.673 589.106L364.981 590.876L362.235 592.593L359.434 594.258L356.581 595.868L353.676 597.423L350.721 598.921L347.716 600.361L344.662 601.743L341.562 603.065L338.415 604.326L335.224 605.526L331.99 606.662L328.713 607.735L325.395 608.742L322.038 609.684L318.642 610.56L315.21 611.368L311.742 612.107L308.24 612.778L304.705 613.379L301.139 613.909L297.542 614.367L293.918 614.754L290.266 615.067L286.589 615.308L282.887 615.474L279.163 615.566L275.419 615.582L271.654 615.523L267.872 615.388L264.073 615.176L260.259 614.887L256.432 614.521L252.593 614.076L248.744 613.554L244.886 612.953L241.021 612.274L237.151 611.515L233.277 610.677L229.401 609.76L225.525 608.763L221.649 607.687L217.776 606.531L213.907 605.295L210.045 603.98L206.189 602.584L202.343 601.109L198.508 599.555L194.685 597.921L190.876 596.207L187.083 594.414L183.307 592.543L179.55 590.592L175.813 588.563L172.098 586.456L168.407 584.271L164.741 582.009L161.102 579.669L157.492 577.253L153.911 574.761L150.362 572.193L146.846 569.55L143.365 566.832L139.919 564.041L136.511 561.176L133.143 558.238L129.815 555.228L126.529 552.147L123.287 548.996L120.09 545.774L116.939 542.483L113.836 539.125L110.782 535.698L107.779 532.206L104.828 528.648L101.931 525.025L99.0877 521.338L96.3007 517.589L93.5711 513.778L90.9 509.906L88.2888 505.975L85.7386 501.985L83.2507 497.938L80.8262 493.835L78.4663 489.677L76.1722 485.465L73.945 481.2L71.7857 476.884L69.6955 472.517L67.6754 468.102L65.7263 463.639L63.8494 459.129L62.0456 454.575L60.3157 449.977L58.6607 445.337L57.0817 440.656L55.5792 435.936L54.1543 431.177L52.8076 426.382L51.5401 421.552L50.3524 416.688L49.2453 411.792L48.2194 406.865L47.2753 401.91L46.4139 396.926L45.6355 391.917L44.9409 386.883L44.3305 381.826L43.8048 376.748L43.3643 371.65L43.0095 366.534L42.7408 361.401L42.5584 356.253L42.463 351.092L42.4546 345.919L42.5336 340.737L42.7003 335.545L42.9548 330.347L43.2974 325.144L43.7282 319.937L44.2473 314.729L44.8549 309.52L45.5509 304.313L46.3354 299.109L47.2085 293.91L48.1699 288.717L49.2197 283.532L50.3579 278.357L51.5841 273.194L52.8982 268.044L54.3001 262.908L55.7895 257.789L57.3661 252.688L59.0296 247.607L60.7798 242.546L62.6161 237.509L64.5383 232.497L66.5458 227.511L68.6382 222.552L70.8151 217.623L73.0759 212.725L75.42 207.859L77.8468 203.027L80.3558 198.231L82.9463 193.473L85.6175 188.753L88.3688 184.073L91.1994 179.435L94.1086 174.84L97.0956 170.29L100.16 165.786L103.3 161.329L106.515 156.922L109.804 152.565L113.167 148.259L116.602 144.007L120.109 139.809L123.686 135.667L127.332 131.582L131.046 127.556L134.828 123.589L138.675 119.684L142.588 115.84L146.564 112.06L150.602 108.344L154.702 104.694L158.862 101.11L163.081 97.595L167.357 94.1485L171.689 90.7722L176.076 87.4668L180.517 84.2336L185.01 81.0734L189.554 77.9873L194.147 74.976L198.787 72.0406L203.475 69.1819L208.207 66.4007L212.983 63.6978L217.802 61.0741L222.66 58.5302L227.558 56.067L232.493 53.685L237.465 51.3851L242.47 49.1677L247.509 47.0335L252.579 44.9831L257.679 43.017L262.806 41.1357L267.961 39.3398L273.14 37.6296L278.342 36.0055L283.566 34.4681L288.81 33.0175L294.072 31.6542L299.351 30.3784L304.645 29.1903L309.953 28.0903L315.272 27.0785L320.601 26.155L325.938 25.32L331.282 24.5735L336.631 23.9157L341.983 23.3466L347.337 22.866L352.691 22.4742L358.043 22.1708L363.392 21.956L368.736 21.8294L374.073 21.7909L379.401 21.8405L384.72 21.9777L390.027 22.2024L395.32 22.5142L400.599 22.9128L405.861 23.3979L411.104 23.9691L416.328 24.6259L421.53 25.3679L426.71 26.1946L431.864 27.1055L436.993 28.1L442.093 29.1776L447.164 30.3376L452.205 31.5795L457.213 32.9024L462.187 34.3059L467.125 35.789L472.027 37.3511L476.89 38.9914L481.714 40.709L486.496 42.5031L491.235 44.3729L495.931 46.3174L500.581 48.3358L505.184 50.427L509.739 52.5902L514.245 54.8242L518.699 57.1282L523.102 59.5009L527.452 61.9413L531.746 64.4484L535.986 67.0211L540.168 69.6581L544.292 72.3582L548.357 75.1204L552.361 77.9434L556.304 80.826L560.184 83.7668L564.001 86.7647L567.753 89.8183L571.44 92.9263L575.06 96.0873L578.613 99.3001L582.097 102.563L585.512 105.875L588.857 109.235L592.13 112.641L595.332 116.091L598.462 119.585L601.518 123.121L604.501 126.696L607.408 130.311L610.241 133.963L612.997 137.651L615.678 141.373L618.28 145.128L620.806 148.914L623.253 152.729L625.622 156.573L627.912 160.443L630.123 164.338L632.254 168.257L634.304 172.197L636.275 176.157L638.165 180.136L639.974 184.132L641.702 188.143L643.349 192.167L644.914 196.204L646.398 200.251L647.8 204.307L649.121 208.371L650.36 212.439L651.518 216.512L652.594 220.587L653.589 224.663L654.502 228.738L655.334 232.811L656.085 236.879L656.756 240.942L657.346 244.997L657.856 249.044L658.286 253.08L658.636 257.104L658.907 261.114L659.099 265.109L659.213 269.088L659.25 273.048L659.209 276.988L659.091 280.907L658.896 284.803L658.626 288.675L658.282 292.522L657.862 296.34L657.369 300.13L656.803 303.89L656.165 307.619L655.455 311.314L654.675 314.975L653.824 318.6L652.905 322.188L651.918 325.738L650.863 329.247L649.742 332.716L648.556 336.142L647.305 339.525L645.991 342.863L644.615 346.154L643.177 349.398L641.679 352.594L640.122 355.74L638.508 358.835L636.836 361.879L635.109 364.869L633.327 367.805L631.492 370.687L629.605 373.512L627.668 376.28L625.681 378.99L623.645 381.64L621.563 384.231L619.436 386.762L617.264 389.23L615.049 391.636L612.794 393.979L610.497 396.258L608.163 398.472L605.791 400.62L603.383 402.702L600.941 404.718L598.466 406.666L595.96 408.546L593.424 410.357L590.859 412.099L588.268 413.771L585.651 415.374L583.011 416.905L580.348 418.366L577.664 419.755L574.961 421.073L572.241 422.318L569.504 423.491L566.753 424.591L563.989 425.619L561.213 426.574L558.428 427.455L555.634 428.263L552.834 428.998L550.029 429.66L547.22 430.247L544.41 430.762L541.599 431.203L538.789 431.57L535.983 431.864L533.18 432.085L530.384 432.233L527.595 432.309L524.816 432.311L522.047 432.242L519.291 432.1L516.548 431.887L513.821 431.602L511.11 431.246L508.418 430.82L505.746 430.323L503.096 429.757L500.468 429.122L497.865 428.418L495.288 427.646L492.738 426.807L490.217 425.901L487.726 424.929L485.267 423.891L482.841 422.788L480.449 421.622L478.094 420.392L475.775 419.1L473.495 417.746L471.255 416.331L469.056 414.857L466.9 413.323L464.788 411.731L462.72 410.083L460.699 408.378L458.725 406.618L456.8 404.804L454.925 402.937L453.1 401.018L451.328 399.048L449.609 397.028L447.944 394.96L446.335 392.844L444.782 390.682L443.286 388.475L441.849 386.225L440.471 383.931L439.153 381.597L437.897 379.222L436.702 376.809L435.571 374.359L434.503 371.872L433.499 369.351L432.561 366.797L431.689 364.21L430.883 361.594L430.146 358.948L429.475 356.274L428.874 353.575L428.342 350.85L427.88 348.103L427.488 345.334L427.167 342.544L426.918 339.736L426.74 336.91L426.634 334.069L426.601 331.213L426.641 328.345L426.754 325.465L426.94 322.576L427.201 319.679L427.535 316.776L427.944 313.868L428.427 310.956L428.984 308.043L429.616 305.129L430.323 302.217L431.104 299.308L431.959 296.403L432.89 293.505L433.895 290.614L434.974 287.733L436.128 284.863L437.355 282.005L438.657 279.161L440.033 276.332L441.481 273.521L443.003 270.728L444.598 267.956L446.265 265.206L448.005 262.479L449.815 259.776L451.698 257.1L453.65 254.453L455.673 251.834L457.766 249.246L459.928 246.691L462.158 244.17L464.456 241.684L466.821 239.234L469.252 236.823L471.749 234.452L474.312 232.121L476.938 229.833L479.628 227.589L482.38 225.39L485.194 223.237L488.069 221.132L491.004 219.077L493.997 217.071L497.049 215.117L500.157 213.217L503.321 211.37L506.541 209.579L509.814 207.844L513.139 206.167L516.516 204.549L519.944 202.991L523.42 201.494L526.945 200.059L530.517 198.687L534.134 197.379L537.795 196.137L541.5 194.961L545.246 193.852L549.033 192.812L552.858 191.84L556.722 190.938L560.622 190.107L564.556 189.347L568.524 188.66L572.525 188.046L576.556 187.506L580.616 187.04L584.704 186.65L588.818 186.335L592.957 186.097L597.119 185.936L601.303 185.853L605.507 185.848L609.73 185.922L613.97 186.075L618.225 186.307L622.494 186.619L626.776 187.012L631.068 187.486L635.37 188.041L639.679 188.676L643.994 189.394L648.313 190.193L652.635 191.075L656.958 192.038L661.28 193.084L665.6 194.212L669.917 195.423L674.228 196.716L678.531 198.091L682.826 199.549L687.111 201.089L691.384 202.711L695.642 204.416L699.886 206.202L704.113 208.07L708.321 210.02L712.508 212.05L716.674 214.162L720.817 216.354L724.935 218.626L729.026 220.979L733.088 223.41L737.121 225.921L741.123 228.51L745.092 231.176L749.026 233.921L752.924 236.742L756.785 239.639L760.606 242.612L764.387 245.659L768.126 248.781L771.821 251.976L775.471 255.244L779.075 258.584L782.631 261.994L786.137 265.475L789.593 269.025L792.996 272.644L796.346 276.33L799.641 280.083L802.88 283.901L806.062 287.784L809.184 291.73L812.247 295.739L815.248 299.809L818.187 303.939L821.062 308.129L823.872 312.376L826.616 316.68L829.292 321.04L831.9 325.454L834.439 329.921L836.908 334.44L839.304 339.009L841.628 343.628L843.879 348.294L846.055 353.007L848.155 357.765L850.18 362.567L852.127 367.411L853.995 372.296L855.785 377.22L857.495 382.183L859.125 387.182L860.673 392.216L862.139 397.283L863.523 402.383L864.824 407.513L866.04 412.672L867.172 417.858L868.219 423.07L869.18 428.306L870.055 433.565L870.844 438.845L871.546 444.145L872.16 449.462L872.687 454.795L873.125 460.143L873.475 465.504L873.736 470.876L873.908 476.258L873.992 481.647L873.986 487.043L873.89 492.444L873.705 497.847L873.43 503.252L873.066 508.657L872.611 514.059L872.068 519.458L871.434 524.851L870.711 530.238L869.899 535.615L868.997 540.982L868.006 546.337L866.926 551.679L865.758 557.005L864.501 562.314L863.157 567.605L861.724 572.875L860.205 578.123L858.598 583.348L856.905 588.548L855.126 593.72L853.262 598.865L851.313 603.98L849.279 609.063L847.162 614.113L844.961 619.128L842.678 624.108L840.314 629.05L837.868 633.952L835.342 638.814L832.736 643.634L830.052 648.41L827.29 653.141L824.451 657.825L821.535 662.462L818.545 667.049L815.48 671.585L812.342 676.07L809.132 680.501L805.851 684.877L802.499 689.198L799.079 693.461L795.59 697.665L792.034 701.81L788.413 705.893L784.727 709.915L780.978 713.872L777.167 717.766L773.295 721.594L769.364 725.355L765.374 729.048L761.327 732.672L757.224 736.227L753.067 739.71L748.857 743.122L744.596 746.461L740.284 749.726L735.924 752.917L731.517 756.032L727.063 759.071L722.566 762.033L718.025 764.916L713.443 767.722L708.821 770.448L704.161 773.094L699.464 775.659L694.731 778.143L689.966 780.545L685.168 782.865L680.339 785.102L675.482 787.256L670.597 789.325L665.686 791.31L660.752 793.21L655.795 795.026L650.817 796.755L645.82 798.399L640.806 799.957L635.776 801.429L630.731 802.814L625.674 804.112L620.607 805.323L615.529 806.448L610.445 807.486L605.354 808.436L600.26 809.299L595.162 810.075L590.064 810.765L584.967 811.367L579.872 811.882L574.781 812.311L569.696 812.653L564.619 812.909L559.55 813.078L554.492 813.162L549.447 813.161L544.415 813.074L539.399 812.903L534.4 812.647L529.42 812.307L524.46 811.884L519.523 811.378L514.609 810.789L509.719 810.118L504.857 809.367L500.023 808.534L495.218 807.621L490.445 806.63L485.704 805.559L480.998 804.41L476.327 803.185L471.693 801.883L467.098 800.505L462.542 799.053L458.028 797.527L453.557 795.928L449.13 794.257L444.748 792.515L440.413 790.703L436.125 788.822L431.888 786.873L427.7 784.857L423.565 782.775L419.482 780.628L415.454 778.418L411.481 776.145L407.565 773.811L403.706 771.417L399.906 768.964L396.165 766.453L392.486 763.886L388.868 761.264L385.313 758.588L381.822 755.859L378.396 753.079L375.035 750.249L371.741 747.371L368.514 744.446L365.356 741.475L362.266 738.46L359.246 735.402L356.297 732.302L353.419 729.163L350.612 725.985L347.879 722.77L345.218 719.52L342.632 716.236L340.119 712.919L337.682 709.572L335.319 706.195L333.033 702.79L330.823 699.359L328.689 695.903L326.632 692.424L324.653 688.924L322.752 685.403L320.928 681.864L319.183 678.309L317.515 674.738L315.927 671.153L314.417 667.557L312.986 663.95L311.634 660.335L310.361 656.712L309.166 653.083L308.051 649.451L307.014 645.816L306.057 642.181L305.178 638.546L304.377 634.914L303.655 631.285L303.011 627.663L302.445 624.047L301.957 620.441L301.545 616.844L301.211 613.26L300.954 609.689L300.772 606.133L300.666 602.593L300.636 599.072L300.681 595.57L300.799 592.089L300.992 588.631L301.257 585.197L301.595 581.788L302.005 578.406L302.486 575.053L303.038 571.73L303.659 568.437L304.35 565.178L305.108 561.953L305.934 558.762L306.827 555.609L307.785 552.494L308.808 549.418L309.895 546.383L311.044 543.39L312.256 540.44L313.528 537.535L314.861 534.675L316.252 531.862L317.701 529.097L319.207 526.382L320.768 523.716L322.384 521.102L324.053 518.541L325.774 516.033L327.545 513.579L329.367 511.182L331.237 508.84L333.153 506.556L335.116 504.331L337.123 502.165L339.174 500.059L341.266 498.014L343.399 496.031L345.571 494.111L347.78 492.254L350.026 490.462L352.307 488.734L354.621 487.071L356.968 485.475L359.345 483.946L361.751 482.484L364.184 481.09L366.644 479.764L369.129 478.508L371.636 477.32L374.166 476.203L376.715 475.156L379.283 474.18L381.867 473.274L384.468 472.44L387.082 471.678L389.708 470.987L392.345 470.368L394.992 469.822L397.646 469.348L400.306 468.946L402.97 468.617L405.638 468.361L408.306 468.177L410.975 468.066L413.641 468.028L416.304 468.062L418.962 468.169L421.614 468.348L424.257 468.599L426.891 468.922L429.513 469.316L432.122 469.782L434.718 470.319L437.297 470.927L439.858 471.606L442.401 472.354L444.923 473.172L447.423 474.06L449.899 475.016L452.351 476.04L454.776 477.132L457.173 478.29L459.54 479.516L461.877 480.807L464.181 482.163L466.451 483.584L468.687 485.069L470.885 486.616L473.046 488.226L475.168 489.898L477.249 491.629L479.288 493.421L481.283 495.271L483.234 497.18L485.14 499.145L486.998 501.167L488.808 503.243L490.569 505.374L492.279 507.557L493.936 509.793L495.542 512.079L497.092 514.415L498.588 516.799L500.027 519.231L501.409 521.71L502.733 524.233L503.997 526.8L505.201 529.41L506.343 532.061L507.424 534.753L508.441 537.483L509.394 540.25L510.282 543.054L511.105 545.892L511.861 548.764L512.55 551.668L513.171 554.603L513.723 557.566L514.205 560.558L514.618 563.575L514.96 566.618L515.231 569.684L515.43 572.772L515.557 575.881L515.611 579.008L515.592 582.153L515.499 585.314L515.331 588.489L515.09 591.677L514.773 594.876L514.381 598.085L513.914 601.303L513.371 604.526L512.752 607.755L512.057 610.987L511.286 614.222L510.438 617.456L509.514 620.689L508.514 623.919L507.436 627.145L506.283 630.365L505.052 633.577L503.746 636.78L502.363 639.971L500.904 643.151L499.369 646.316L497.758 649.466L496.071 652.599L494.309 655.713L492.473 658.807L490.561 661.878L488.575 664.927L486.516 667.95L484.382 670.947L482.176 673.916L479.897 676.855L477.547 679.763L475.124 682.638L472.631 685.48L470.068 688.285L467.435 691.054L464.733 693.784L461.962 696.474L459.124 699.123L456.22 701.729L453.249 704.291L450.214 706.807L447.114 709.276L443.95 711.697L440.724 714.069L437.437 716.389L434.088 718.657L430.68 720.871L427.214 723.031L423.69 725.134L420.109 727.18L416.473 729.168L412.782 731.096L409.038 732.963L405.242 734.769L401.395 736.511L397.499 738.188L393.554 739.801L389.562 741.347L385.523 742.826L381.441 744.237L377.314 745.579L373.146 746.85L368.937 748.05L364.689 749.178L360.403 750.233L356.08 751.215L351.722 752.122L347.331 752.953L342.907 753.709L338.453 754.388L333.969 754.989L329.458 755.512L324.92 755.957L320.358 756.322L315.772 756.607L311.165 756.811L306.538 756.935L301.892 756.977L297.229 756.937L292.551 756.815L287.859 756.61L283.155 756.322L278.44 755.95L273.717 755.495L268.986 754.955L264.25 754.331L259.509 753.623L254.767 752.831L250.023 751.953L245.281 750.991L240.541 749.944L235.805 748.811L231.075 747.594L226.353 746.292L221.64 744.905L216.938 743.433L212.248 741.877L207.572 740.236L202.912 738.511L198.27 736.702L193.647 734.808L189.044 732.832L184.464 730.772L179.908 728.629L175.377 726.404L170.874 724.096L166.399 721.707L161.955 719.237L157.542 716.687L153.164 714.056L148.82 711.345L144.513 708.556L140.244 705.688L136.015 702.743L131.827 699.721L127.682 696.622L123.581 693.448L119.526 690.2L115.518 686.877L111.558 683.482L107.649 680.014L103.791 676.475L99.9855 672.866L96.2345 669.187L92.5389 665.44L88.9003 661.625L85.3198 657.745L81.7988 653.798L78.3385 649.788L74.9403 645.714L71.6052 641.578L68.3346 637.382L65.1297 633.125L61.9915 628.811L58.9211 624.438L55.9199 620.01L52.9888 615.527L50.1288 610.991L47.3411 606.403L44.6266 601.763L41.9864 597.074L39.4213 592.337L36.9323 587.554L34.5203 582.725L32.1863 577.852L29.9309 572.936L27.7552 567.98L25.6598 562.984L23.6455 557.95L21.7131 552.88L19.8633 547.774L18.0967 542.635L16.4139 537.464L14.8157 532.263L13.3025 527.032L11.875 521.775L10.5336 516.492L9.27885 511.184L8.11118 505.855L7.03107 500.504L6.03884 495.134L5.13491 489.747L4.31958 484.344L3.59317 478.926L2.95592 473.496L2.40808 468.055L1.94986 462.604L1.58138 457.146L1.30283 451.681L1.1143 446.213L1.01583 440.742L1.00748 435.269L1.08924 429.798L1.26111 424.328L1.52298 418.863L1.87479 413.404L2.31639 407.952L2.84765 402.508L3.46834 397.076L4.17825 391.656L4.97713 386.25L5.86468 380.859L6.84055 375.486L7.9044 370.132L9.05587 364.798L10.2945 359.487L11.6199 354.199L13.0315 348.937L14.5288 343.701L16.1114 338.494L17.7785 333.318L19.5296 328.172L21.3641 323.061L23.2813 317.983L25.2804 312.943L27.3608 307.94L29.5217 302.976L31.7624 298.053L34.0819 293.172L36.4795 288.334L38.9543 283.542L41.5053 278.797L44.1317 274.099L46.8325 269.45L49.6068 264.852L52.4534 260.306L55.3714 255.813L58.3598 251.375L61.4173 246.992L64.5431 242.667L67.7357 238.399L70.9943 234.192L74.3175 230.045L77.7041 225.959L81.1529 221.937L84.6628 217.979L88.2324 214.085L91.8604 210.258L95.5454 206.499L99.2863 202.807L103.082 199.185L106.93 195.633L110.83 192.152L114.78 188.743L118.78 185.407L122.826 182.145L126.919 178.957L131.056 175.844L135.236 172.808L139.457 169.848L143.719 166.966L148.019 164.162L152.356 161.437L156.728 158.792L161.135 156.226L165.573 153.741L170.042 151.337L174.541 149.014L179.066 146.774L183.618 144.616L188.194 142.54L192.792 140.548L197.412 138.64L202.051 136.815L206.708 135.074L211.38 133.417L216.068 131.845L220.768 130.358L225.479 128.955L230.2 127.637L234.928 126.404L239.663 125.257L244.402 124.194L249.144 123.216L253.888 122.322L258.631 121.514L263.372 120.79L268.109 120.151L272.841 119.596L277.566 119.125L282.282 118.738L286.988 118.434L291.682 118.214L296.363 118.076L301.029 118.021L305.678 118.048L310.309 118.156L314.92 118.346L319.51 118.616L324.077 118.966L328.619 119.396L333.135 119.905L337.624 120.492L342.084 121.156L346.514 121.898L350.911 122.715L355.275 123.608L359.605 124.576L363.898 125.618L368.153 126.732L372.369 127.919L376.545 129.177L380.679 130.506L384.77 131.904L388.817 133.37L392.818 134.904L396.771 136.505L400.677 138.17L404.533 139.901L408.339 141.694L412.092 143.55L415.793 145.467L419.439 147.444L423.03 149.479L426.565 151.572L430.042 153.721L433.461 155.925L436.821 158.184L440.12 160.494L443.357 162.856L446.532 165.268L449.644 167.728L452.692 170.236L455.674 172.789L458.591 175.387L461.442 178.028L464.224 180.711L466.939 183.434L469.585 186.195L472.161 188.994L474.668 191.829L477.103 194.699L479.467 197.601L481.759 200.534L483.979 203.498L486.126 206.489L488.199 209.508L490.199 212.552L492.124 215.619L493.975 218.709L495.75 221.819L497.451 224.949L499.076 228.095L500.625 231.258L502.098 234.435L503.495 237.625L504.816 240.826L506.06 244.036L507.228 247.255L508.32 250.479L509.335 253.709L510.273 256.942L511.135 260.176L511.92 263.41L512.629 266.643L513.262 269.872L513.819 273.097L514.3 276.316L514.706 279.526L515.037 282.728L515.292 285.918L515.473 289.095L515.58 292.259L515.613 295.407L515.573 298.538L515.459 301.65L515.274 304.742L515.016 307.812L514.687 310.859L514.287 313.882L513.818 316.878L513.278 319.847L512.67 322.787L511.994 325.697L511.25 328.575L510.44 331.419L509.564 334.23L508.622 337.004L507.617 339.741L506.548 342.44L505.417 345.098L504.225 347.716L502.972 350.291L501.659 352.823L500.288 355.309L498.859 357.75L497.374 360.144L495.833 362.489L494.238 364.784L492.59 367.029L490.889 369.223L489.138 371.363L487.337 373.449L485.488 375.481L483.591 377.457L481.648 379.376L479.661 381.237L477.63 383.04L475.556 384.783L473.442 386.465L471.289 388.087L469.097 389.646L466.868 391.142L464.604 392.575L462.306 393.943L459.975 395.247L457.614 396.484L455.222 397.655L452.802 398.76L450.356 399.797L447.884 400.765L445.388 401.665L442.87 402.496L440.331 403.258L437.773 403.949L435.197 404.57L432.605 405.12L429.998 405.6L427.378 406.008L424.746 406.344L422.104 406.608L419.454 406.8L416.797 406.92L414.135 406.968L411.469 406.943L408.801 406.845L406.132 406.675L403.464 406.432L400.799 406.117L398.138 405.729L395.483 405.268L392.835 404.735L390.196 404.13L387.568 403.452L384.951 402.703L382.348 401.882L379.76 400.99L377.189 400.027L374.636 398.993L372.103 397.889L369.592 396.714L367.103 395.471L364.638 394.158L362.2 392.776L359.788 391.327L357.406 389.81L355.054 388.226L352.733 386.576L350.446 384.86L348.194 383.08L345.977 381.235L343.798 379.326L341.658 377.355L339.558 375.321L337.5 373.226L335.485 371.072L333.514 368.857L331.588 366.584L329.71 364.253L327.879 361.866L326.098 359.423L324.368 356.925L322.689 354.373L321.063 351.769L319.492 349.113L317.976 346.406L316.516 343.651L315.114 340.846L313.771 337.995L312.487 335.098L311.264 332.157L310.103 329.171L309.004 326.144L307.97 323.076L306.999 319.968L306.095 316.821L305.256 313.638L304.485 310.419L303.782 307.166L303.148 303.88L302.583 300.562L302.089 297.214L301.666 293.838L301.314 290.434L301.035 287.004L300.829 283.55L300.697 280.074L300.639 276.576L300.655 273.058L300.747 269.521L300.914 265.968L301.158 262.4L301.478 258.818L301.875 255.223L302.349 251.618L302.9 248.004L303.53 244.383L304.238 240.756L305.023 237.124L305.888 233.49L306.831 229.854L307.853 226.219L308.954 222.586L310.133 218.957L311.392 215.333L312.729 211.716L314.146 208.107L315.641 204.509L317.215 200.922L318.868 197.349L320.599 193.79L322.408 190.248L324.295 186.724L326.26 183.22L328.302 179.737L330.421 176.276L332.617 172.841L334.89 169.431L337.238 166.049L339.662 162.696L342.16 159.373L344.733 156.083L347.38 152.826L350.1 149.605L352.893 146.42L355.758 143.273L358.694 140.166L361.701 137.1L364.778 134.077L367.924 131.098L371.138 128.164L374.42 125.277L377.768 122.438L381.182 119.649L384.661 116.911L388.205 114.225L391.811 111.593L395.479 109.015L399.208 106.494L402.997 104.03L406.845 101.625L410.751 99.2793L414.714 96.9951L418.732 94.7732L422.804 92.6146L426.93 90.5207L431.108 88.4924L435.336 86.5308L439.614 84.6371L443.941 82.8122L448.314 81.0572L452.733 79.373L457.196 77.7606L461.703 76.221L466.25 74.7551L470.838 73.3636L475.465 72.0475L480.129 70.8077L484.829 69.6448L489.564 68.5598L494.331 67.5532L499.13 66.6259L503.959 65.7785L508.816 65.0116L513.701 64.326L518.61 63.7221L523.544 63.2006L528.499 62.7619L533.476 62.4067L538.471 62.1353L543.484 61.9481L548.513 61.8457L553.556 61.8284L558.612 61.8964L563.679 62.0503L568.755 62.2901L573.838 62.6162L578.928 63.0288L584.023 63.528L589.12 64.1141L594.218 64.7872L599.315 65.5472L604.411 66.3943L609.502 67.3286L614.588 68.35L619.666 69.4584L624.736 70.6537L629.795 71.936L634.842 73.305L639.875 74.7605L644.893 76.3024L649.893 77.9304L654.874 79.6442L659.835 81.4436L664.774 83.3282L669.689 85.2976L674.578 87.3515L679.441 89.4894L684.275 91.7107L689.079 94.0152L693.851 96.4022L698.589 98.8712L703.293 101.422L707.96 104.053L712.589 106.764L717.179 109.555L721.727 112.424L726.233 115.371L730.695 118.396L735.111 121.497L739.48 124.674L743.801 127.925L748.072 131.25L752.291 134.649L756.458 138.119L760.571 141.66L764.628 145.272L768.628 148.952L772.571 152.701L776.454 156.517L780.277 160.398L784.037 164.344L787.735 168.354L791.368 172.426L794.936 176.559L798.437 180.753L801.87 185.005L805.235 189.315L808.529 193.681L811.753 198.102L814.904 202.576L817.983 207.103L820.987 211.681L823.916 216.309L826.769 220.985L829.546 225.707L832.245 230.475L834.865 235.287L837.406 240.141L839.866 245.036L842.246 249.97L844.544 254.943L846.76 259.952L848.893 264.996L850.942 270.073L852.907 275.182L854.787 280.321L856.582 285.489L858.291 290.683L859.914 295.904L861.449 301.148L862.898 306.414L864.259 311.701L865.532 317.007L866.717 322.33L867.813 327.668L868.82 333.021L869.738 338.386L870.567 343.762L871.307 349.147L871.957 354.539L872.517 359.937L872.988 365.339L873.369 370.743L873.661 376.148L873.862 381.552L873.975 386.953L873.997 392.35L873.931 397.741L873.775 403.124L873.53 408.498L873.196 413.861L872.774 419.212L872.264 424.548L871.666 429.868L870.981 435.171L870.208 440.455L869.349 445.718L868.403 450.958L867.372 456.175L866.256 461.366L865.055 466.53L863.77 471.666L862.402 476.771L860.951 481.844L859.418 486.885L857.803 491.89L856.108 496.86L854.333 501.791L852.479 506.684L850.546 511.535L848.536 516.345L846.45 521.111L844.288 525.833L842.051 530.508L839.74 535.135L837.357 539.714L834.902 544.242L832.376 548.719L829.781 553.143L827.117 557.513L824.385 561.827L821.587 566.085L818.724 570.285L815.797 574.427L812.808 578.508L809.756 582.528L806.645 586.486L803.474 590.381L800.246 594.211L796.961 597.976L793.621 601.675L790.227 605.306L786.781 608.869L783.284 612.363L779.737 615.787L776.143 619.139L772.501 622.421L768.814 625.629L765.083 628.765L761.31 631.826L757.496 634.813L753.642 637.724L749.751 640.559L745.823 643.318L741.861 645.999L737.865 648.602L733.838 651.127L729.781 653.574L725.695 655.941L721.582 658.228L717.444 660.435L713.282 662.561L709.098 664.607L704.894 666.572L700.671 668.455L696.43 670.256L692.174 671.976L687.904 673.613L683.621 675.169L679.328 676.642L675.026 678.032L670.716 679.341L666.401 680.566L662.081 681.71L657.759 682.771L653.436 683.75L649.114 684.646L644.794 685.461L640.478 686.193L636.168 686.845L631.865 687.414L627.571 687.903L623.287 688.311L619.015 688.638L614.757 688.885L610.514 689.053L606.288 689.141L602.081 689.151L597.893 689.082L593.727 688.935L589.583 688.711L585.464 688.411L581.371 688.035L577.306 687.583L573.27 687.056L569.263 686.456L565.289 685.782L561.348 685.036L557.442 684.218L553.571 683.329L549.739 682.37L545.945 681.342L542.191 680.246L538.479 679.082L534.809 677.852L531.184 676.557L527.604 675.197L524.07 673.774L520.584 672.288L517.148 670.741L513.761 669.134L510.426 667.468L507.143 665.744L503.914 663.963L500.739 662.126L497.621 660.236L494.558 658.292L491.554 656.296L488.608 654.249L485.723 652.153L482.897 650.009L480.133 647.819L477.432 645.583L474.794 643.303L472.219 640.98L469.71 638.616L467.266 636.212L464.889 633.77L462.578 631.29L460.336 628.775L458.161 626.226L456.056 623.645L454.02 621.032L452.054 618.389L450.159 615.718L448.335 613.021L446.582 610.298L444.901 607.552L443.293 604.784L441.758 601.995L440.295 599.187L438.906 596.362L437.591 593.52L436.35 590.665L435.182 587.797L434.089 584.917L433.07 582.028L432.126 579.131L431.257 576.227L430.462 573.319L429.741 570.407L429.095 567.494L428.524 564.58L428.028 561.668L427.605 558.759L427.257 555.855L426.983 552.957L426.783 550.066L426.656 547.185L426.603 544.314L426.622 541.456L426.715 538.612L426.879 535.784L427.116 532.972L427.423 530.179L427.802 527.405L428.251 524.654L428.77 521.925L429.359 519.221L430.016 516.542L430.742 513.891L431.535 511.269L432.395 508.677L433.32 506.117L434.312 503.589L435.368 501.096L436.488 498.639L437.671 496.219L438.916 493.837L440.222 491.495L441.589 489.194L443.016 486.935L444.5 484.72L446.043 482.55L447.642 480.426L449.296 478.348L451.005 476.32L452.768 474.34L454.583 472.412L456.449 470.535L458.365 468.711L460.329 466.941L462.342 465.226L464.401 463.567L466.505 461.964L468.654 460.42L470.845 458.934L473.077 457.508L475.35 456.143L477.661 454.84L480.01 453.598L482.395 452.42L484.815 451.305L487.268 450.256L489.753 449.271L492.268 448.353L494.813 447.501L497.385 446.717L499.984 446L502.607 445.352L505.254 444.773L507.922 444.264L510.61 443.824L513.317 443.456L516.041 443.158L518.781 442.931L521.535 442.776L524.302 442.693L527.08 442.682L529.867 442.744L532.662 442.878L535.463 443.086L538.269 443.367L541.078 443.72L543.889 444.148L546.7 444.648L549.509 445.223L552.315 445.87L555.116 446.592L557.911 447.386L560.698 448.254L563.475 449.195L566.242 450.209L568.995 451.296L571.735 452.456L574.458 453.688L577.165 454.992L579.852 456.368L582.519 457.816L585.164 459.334L587.785 460.923L590.381 462.583L592.951 464.312L595.492 466.11L598.004 467.977L600.485 469.913L602.933 471.916L605.347 473.986L607.726 476.122L610.068 478.324L612.371 480.591L614.635 482.922L616.857 485.316L619.037 487.773L621.173 490.292L623.263 492.872L625.307 495.511L627.303 498.211L629.25 500.968L631.146 503.782L632.991 506.653L634.783 509.579L636.52 512.56L638.202 515.593L639.828 518.679L641.395 521.816L642.904 525.002L644.353 528.238L645.741 531.521L647.066 534.85L648.329 538.224L649.527 541.643L650.66 545.103L651.727 548.606L652.727 552.148L653.659 555.729L654.522 559.347L655.316 563.002L656.039 566.691L656.69 570.413L657.27 574.167L657.776 577.952L658.209 581.765L658.568 585.607L658.852 589.474L659.06 593.366L659.192 597.281L659.248 601.217L659.226 605.174L659.126 609.149L658.949 613.141L658.692 617.149L658.356 621.171L657.941 625.204L657.446 629.249L656.871 633.303L656.216 637.364L655.479 641.432L654.662 645.504L653.764 649.578L652.784 653.654L651.723 657.73L650.581 661.803L649.357 665.873L648.051 669.937L646.664 673.995L645.195 678.044L643.645 682.082L642.013 686.109L640.3 690.123L638.506 694.122L636.631 698.104L634.676 702.068L632.64 706.012L630.524 709.934L628.328 713.834L626.053 717.709L623.698 721.557L621.265 725.378L618.754 729.17L616.166 732.93L613.5 736.659L610.757 740.353L607.939 744.012L605.045 747.633L602.077 751.217L599.034 754.76L595.918 758.261L592.729 761.72L589.469 765.134L586.137 768.502L582.735 771.823L579.264 775.096L575.724 778.318L572.116 781.489L568.441 784.607L564.701 787.67L560.896 790.679L557.028 793.63L553.096 796.524L549.103 799.358L545.05 802.131L540.936 804.843L536.765 807.492L532.536 810.076L528.252 812.596L523.912 815.049L519.519 817.434L515.074 819.751L510.578 821.998L506.032 824.174L501.437 826.279L496.796 828.311L492.109 830.269L487.377 832.153L482.603 833.961L477.787 835.693L472.931 837.348L468.036 838.924L463.104 840.422L458.137 841.84L453.135 843.178L448.101 844.435L443.035 845.61L437.94 846.703L432.817 847.713L427.667 848.64L422.492 849.482L417.294 850.24L412.074 850.912L406.834 851.499L401.575 852.001L396.3 852.415L391.009 852.743L385.704 852.984L380.388 853.137L375.061 853.203L369.725 853.181L364.383 853.071L359.035 852.872L353.683 852.585L348.329 852.21L342.975 851.746L337.623 851.193L332.273 850.552L326.928 849.822L321.589 849.003L316.258 848.096L310.937 847.101L305.628 846.017L300.331 844.845L295.049 843.586L289.784 842.238L284.536 840.804L279.309 839.283L274.102 837.675L268.918 835.98L263.76 834.2L258.627 832.335L253.522 830.384L248.446 828.35L243.402 826.231L238.39 824.029L233.412 821.744L228.47 819.377L223.565 816.929L218.699 814.4L213.873 811.791L209.089 809.103L204.348 806.336L199.653 803.492L195.003 800.57L190.401 797.573L185.848 794.501L181.346 791.354L176.895 788.135L172.498 784.843L168.155 781.479L163.869 778.046L159.639 774.543L155.469 770.972L151.357 767.334L147.307 763.631L143.32 759.862L139.395 756.03L135.536 752.136L131.742 748.18L128.015 744.165L124.356 740.091L120.766 735.959L117.246 731.772L113.798 727.53L110.422 723.234L107.119 718.886L103.89 714.488L100.736 710.041L97.6576 705.545L94.6563 701.003L91.7326 696.417L88.8874 691.786L86.1213 687.114L83.4352 682.402L80.8297 677.65L78.3056 672.861L75.8635 668.036L73.504 663.176L71.2278 658.284L69.0353 653.36L66.9272 648.407L64.9039 643.426L62.9658 638.418L61.1136 633.385L59.3474 628.33L57.6678 623.252L56.0751 618.154L54.5695 613.039L53.1514 607.906L51.8209 602.758L50.5784 597.597L49.424 592.424L48.3578 587.241L47.38 582.05L46.4905 576.852L45.6896 571.649L44.9772 566.442L44.3533 561.233L43.8178 556.025L43.3706 550.817L43.0117 545.613L42.7408 540.414L42.5579 535.222L42.4626 530.037L42.4548 524.862L42.5342 519.699L42.7004 514.549L42.9532 509.413L43.2921 504.294L43.7167 499.192L44.2266 494.11L44.8214 489.049L45.5005 484.011L46.2634 478.997L47.1095 474.009L48.0382 469.048L49.049 464.115L50.1412 459.214L51.314 454.344L52.5668 449.507L53.8988 444.706L55.3093 439.94L56.7974 435.213L58.3624 430.524L60.0033 425.876L61.7194 421.27L63.5096 416.708L65.3731 412.19L67.3088 407.719L69.3158 403.294L71.3932 398.919L73.5397 394.593L75.7544 390.318L78.0362 386.096L80.384 381.928L82.7966 377.814L85.2728 373.757L87.8116 369.757L90.4116 365.815L93.0717 361.932L95.7906 358.11L98.567 354.349L101.4 350.651L104.287 347.016L107.228 343.445L110.222 339.941L113.266 336.502L116.36 333.131L119.502 329.827L122.691 326.593L125.925 323.428L129.203 320.334L132.523 317.311L135.884 314.36L139.285 311.481L142.723 308.676L146.198 305.945L149.708 303.288L153.251 300.706L156.826 298.2L160.431 295.769L164.065 293.416L167.726 291.139L171.412 288.94L175.123 286.818L178.856 284.775L182.609 282.81L186.382 280.923L190.172 279.116L193.978 277.388L197.799 275.739L201.632 274.169L205.476 272.68L209.33 271.27L213.191 269.939L217.059 268.689L220.931 267.518L224.806 266.427L228.683 265.415L232.559 264.484L236.434 263.631L240.305 262.858L244.17 262.164L248.029 261.548L251.88 261.011L255.721 260.553L259.551 260.172L263.367 259.868L267.169 259.642L270.954 259.493L274.722 259.42L278.471 259.422L282.199 259.5L285.905 259.653L289.586 259.879L293.243 260.18L296.873 260.553L300.474 260.998L304.046 261.515L307.587 262.102L311.096 262.76L314.57 263.487L318.009 264.282L321.412 265.145L324.776 266.075L328.101 267.071L331.386 268.131L334.628 269.256L337.827 270.444L340.982 271.693L344.091 273.004L347.153 274.375L350.168 275.805L353.132 277.292L356.047 278.837L358.91 280.437L361.72 282.091L364.476 283.799L367.178 285.559L369.824 287.369L372.413 289.23L374.945 291.138L377.418 293.094L379.831 295.096L382.184 297.142L384.475 299.231L386.704 301.363L388.87 303.534L390.973 305.745L393.011 307.993L394.983 310.278L396.89 312.598L398.73 314.951L400.503 317.336L402.207 319.751L403.844 322.195L405.411 324.668L406.909 327.166L408.337 329.689L409.695 332.234L410.982 334.802L412.197 337.389L413.341 339.995L414.413 342.618L415.413 345.256L416.34 347.908L417.195 350.572L417.977 353.247L418.685 355.931L419.321 358.623L419.883 361.321L420.372 364.023L420.787 366.728L421.129 369.434L421.398 372.14L421.593 374.844L421.715 377.545L421.764 380.241L421.74 382.93L421.643 385.611L421.474 388.283L421.232 390.943L420.918 393.59L420.533 396.224L420.076 398.841L419.548 401.441L418.95 404.022L418.282 406.583L417.544 409.121L416.737 411.637L415.861 414.128L414.918 416.592L413.906 419.028L412.828 421.436L411.684 423.812L410.475 426.157L409.2 428.468L407.862 430.745L406.46 432.985L404.996 435.187L403.47 437.351L401.884 439.474L400.237 441.556L398.532 443.595L396.768 445.59L394.948 447.539L393.071 449.442L391.139 451.297L389.153 453.103L387.114 454.859L385.023 456.564L382.881 458.217L380.69 459.815L378.45 461.36L376.162 462.848L373.829 464.28L371.45 465.654L369.028 466.97L366.563 468.226L364.057 469.421L361.511 470.555L358.927 471.627L356.305 472.635L353.647 473.58L350.955 474.459L348.229 475.274L345.472 476.021L342.684 476.702L339.868 477.315L337.024 477.859L334.154 478.335L331.259 478.741L328.342 479.077L325.402 479.342L322.443 479.536L319.465 479.658L316.47 479.708L313.459 479.686L310.435 479.59L307.398 479.422L304.35 479.18L301.293 478.863L298.228 478.473L295.157 478.009L292.081 477.469L289.003 476.855L285.923 476.166L282.843 475.403L279.765 474.564L276.69 473.65L273.62 472.661L270.557 471.597L267.502 470.458L264.457 469.244L261.423 467.956L258.402 466.592L255.395 465.155L252.405 463.643L249.432 462.057L246.478 460.398L243.545 458.665L240.635 456.86L237.748 454.981L234.887 453.031L232.053 451.009L229.248 448.916L226.472 446.751L223.729 444.517L221.018 442.213L218.342 439.84L215.701 437.398L213.099 434.889L210.535 432.313L208.012 429.67L205.53 426.962L203.092 424.189L200.698 421.351L198.35 418.451L196.05 415.488L193.798 412.464L191.597 409.379L189.446 406.235L187.349 403.032L185.305 399.771L183.316 396.454L181.384 393.081L179.509 389.653L177.693 386.172L175.937 382.639L174.242 379.055L172.609 375.42L171.04 371.737L169.534 368.006L168.095 364.229L166.721 360.406L165.415 356.54L164.178 352.631L163.01 348.681L161.912 344.691L160.885 340.662L159.931 336.596L159.049 332.494L158.241 328.358L157.507 324.189L156.849 319.988L156.266 315.757L155.761 311.498L155.332 307.211L154.982 302.898L154.71 298.562L154.517 294.202L154.404 289.822L154.372 285.421L154.42 281.003L154.549 276.569L154.76 272.119L155.052 267.656L155.427 263.181L155.885 258.696L156.426 254.203L157.05 249.703L157.758 245.197L158.549 240.688L159.424 236.176L160.384 231.664L161.427 227.153L162.554 222.646L163.766 218.142L165.062 213.645L166.442 209.155L167.907 204.675L169.455 200.205L171.087 195.749L172.804 191.306L174.603 186.88L176.486 182.471L178.453 178.081L180.502 173.712L182.633 169.365L184.847 165.042L187.143 160.745L189.519 156.475L191.977 152.233L194.516 148.022L197.134 143.843L199.831 139.698L202.608 135.587L205.463 131.513L208.395 127.477L211.404 123.481L214.489 119.525L217.65 115.613L220.886 111.744L224.196 107.921L227.579 104.144L231.034 100.416L234.56 96.738L238.158 93.111L241.824 89.5365L245.56 86.016L249.363 82.5507L253.233 79.1419L257.168 75.791L261.169 72.4992L265.232 69.2678L269.358 66.0981L273.546 62.9913L277.793 59.9485L282.1 56.9709L286.464 54.0598L290.884 51.2161L295.36 48.4411L299.89 45.7357L304.473 43.1011L309.107 40.5382L313.791 38.0482L318.523 35.6319L323.303 33.2903L328.129 31.0243L333 28.8349L337.913 26.7228L342.869 24.689L347.864 22.7343L352.898 20.8594L357.969 19.065L363.076 17.352L368.217 15.721L373.391 14.1727L378.596 12.7077L383.83 11.3266L389.093 10.0301L394.381 8.81856L399.695 7.69262L405.031 6.65274L410.389 5.69934L415.768 4.83286L421.164 4.05373L426.577 3.36224L432.005 2.75876L437.446 2.24356L442.899 1.81692L448.362 1.47906L453.833 1.2302L459.311 1.07045L464.794 1L470.281 1.01891L475.769 1.12726L481.257 1.32509L486.743 1.61238L492.225 1.98912L497.703 2.45525L503.174 3.01064L508.636 3.65518L514.089 4.38871L519.529 5.21106L524.956 6.12195L530.368 7.12114L535.764 8.20836L541.14 9.38326L546.497 10.6455L551.832 11.9946L557.144 13.4303L562.43 14.9521L567.691 16.5595L572.923 18.2519L578.125 20.0289L583.296 21.8898L588.434 23.834L593.537 25.8609L598.605 27.97L603.635 30.1603L608.625 32.4313L613.576 34.7821L618.484 37.212L623.349 39.7202L628.169 42.3057L632.943 44.9678L637.668 47.7056L642.345 50.5182L646.971 53.4044L651.545 56.3635L656.065 59.3944L660.531 62.496L664.942 65.6673L669.295 68.9073L673.589 72.2148L677.824 75.5886L681.998 79.0277L686.11 82.5309L690.158 86.0969L694.143 89.7246L698.061 93.4126L701.913 97.1598L705.698 100.965L709.413 104.826L713.059 108.743L716.635 112.714L720.138 116.737L723.569 120.811L726.926 124.935L730.209 129.107L733.417 133.327L736.549 137.591L739.604 141.9L742.581 146.251L745.48 150.643L748.299 155.074L751.039 159.544L753.699 164.049L756.277 168.59L758.774 173.164L761.189 177.77L763.521 182.406L765.77 187.07L767.936 191.762L770.017 196.479L772.014 201.22L773.926 205.983L775.753 210.766L777.495 215.568L779.151 220.388L780.721 225.223L782.205 230.072L783.603 234.934L784.914 239.806L786.139 244.687L787.277 249.576L788.328 254.471L789.293 259.369L790.172 264.27L790.964 269.172L791.669 274.073L792.288 278.971L792.821 283.866L793.268 288.754L793.63 293.635L793.905 298.508L794.096 303.369L794.202 308.218L794.223 313.054L794.161 317.873L794.014 322.676L793.785 327.46L793.472 332.224L793.078 336.967L792.601 341.685L792.044 346.379L791.406 351.047L790.688 355.687L789.891 360.297L789.015 364.877L788.062 369.424L787.031 373.937L785.924 378.415L784.742 382.856L783.485 387.26L782.155 391.623L780.751 395.946L779.275 400.227L777.729 404.464L776.112 408.657L774.426 412.803L772.673 416.902L770.852 420.952L768.965 424.952L767.014 428.902L764.999 432.799L762.921 436.642L760.782 440.431L758.582 444.164L756.324 447.84L754.008 451.459L751.635 455.018L749.207 458.518L746.725 461.957L744.191 465.333L741.605 468.647L738.969 471.897L736.284 475.083L733.553 478.203L730.775 481.257L727.953 484.244L725.088 487.162L722.181 490.012L719.234 492.793L716.249 495.504L713.226 498.144L710.168 500.713L707.076 503.21L703.951 505.634L700.795 507.986L697.609 510.264L694.395 512.468L691.155 514.597L687.889 516.652L684.601 518.631L681.291 520.536L677.96 522.364L674.611 524.116L671.245 525.791L667.863 527.39L664.468 528.913L661.06 530.358L657.642 531.726L654.215 533.017L650.781 534.231L647.34 535.368L643.896 536.427L640.449 537.409L637.001 538.314L633.553 539.142L630.108 539.894L626.667 540.568L623.231 541.166L619.802 541.688L616.382 542.134L612.972 542.504L609.573 542.798L606.188 543.018L602.818 543.163L599.464 543.234L596.128 543.23L592.811 543.154L589.516 543.005L586.243 542.784L582.994 542.491L579.77 542.127L576.573 541.692L573.405 541.188L570.266 540.615L567.158 539.973L564.083 539.264L561.042 538.488L558.037 537.646L555.068 536.739L552.137 535.767L549.245 534.733L546.394 533.635L543.586 532.476L540.82 531.256L538.099 529.977L535.423 528.639L532.794 527.243L530.214 525.791L527.682 524.283L525.201 522.721L522.772 521.105L520.394 519.438L518.071 517.72L515.802 515.952L513.589 514.135L511.432 512.271L509.333 510.361L507.293 508.407L505.312 506.409L503.391 504.369L501.531 502.288L499.734 500.167L497.999 498.009L496.328 495.813L494.721 493.582L493.179 491.318L491.703 489.02L490.293 486.692L488.951 484.334L487.675 481.948L486.468 479.535L485.33 477.097L484.261 474.634L483.262 472.15L482.332 469.645L481.473 467.121L480.686 464.579L479.969 462.021L479.324 459.448L478.751 456.862L478.25 454.264L477.821 451.656L477.465 449.04L477.181 446.418L476.97 443.789L476.832 441.157L476.768 438.523L476.776 435.889L476.857 433.255L477.011 430.623L477.238 427.996L477.537 425.375L477.91 422.761L478.355 420.155L478.872 417.56L479.461 414.977L480.122 412.407L480.854 409.852L481.658 407.314L482.533 404.794L483.478 402.293L484.492 399.814L485.577 397.357L486.731 394.924L487.953 392.517L489.243 390.137L490.601 387.785L492.025 385.464L493.516 383.173L495.072 380.916L496.693 378.693L498.379 376.506L500.128 374.355L501.939 372.244L503.812 370.172L505.746 368.141L507.741 366.152L509.794 364.207L511.906 362.308L514.075 360.454L516.301 358.648L518.582 356.891L520.918 355.184L523.307 353.528L525.748 351.925L528.24 350.374L530.782 348.879L533.374 347.439L536.013 346.056L538.699 344.731L541.43 343.465L544.206 342.258L547.024 341.113L549.884 340.029L552.784 339.008L555.724 338.051L558.701 337.158L561.714 336.33L564.763 335.569L567.845 334.875L570.96 334.249L574.106 333.691L577.281 333.202L580.483 332.783L583.713 332.435L586.968 332.158L590.246 331.952L593.546 331.819L596.867 331.759L600.207 331.773L603.565 331.86L606.939 332.021L610.327 332.257L613.728 332.569L617.14 332.956L620.563 333.418L623.993 333.957L627.43 334.572L630.873 335.263L634.319 336.032L637.766 336.877L641.214 337.799L644.661 338.798L648.105 339.875L651.544 341.029L654.977 342.26L658.402 343.568L661.818 344.953L665.223 346.416L668.615 347.955L671.994 349.571L675.356 351.264L678.701 353.032L682.027 354.877L685.333 356.798L688.617 358.795L691.876 360.866L695.111 363.012L698.319 365.233L701.498 367.527L704.647 369.894L707.765 372.335L710.85 374.848L713.901 377.433L716.915 380.088L719.892 382.815L722.83 385.611L725.728 388.477L728.583 391.411L731.396 394.412L734.163 397.481L736.885 400.615L739.559 403.815L742.183 407.08L744.758 410.408L747.281 413.798L749.751 417.251L752.167 420.764L754.527 424.336L756.831 427.968L759.076 431.657L761.262 435.402L763.388 439.203L765.452 443.059L767.453 446.967L769.39 450.928L771.262 454.94L773.068 459.001L774.807 463.11L776.477 467.267L778.078 471.469L779.609 475.716L781.069 480.007L782.456 484.339L783.771 488.712L785.011 493.123L786.177 497.573L787.267 502.059L788.28 506.58L789.216 511.134L790.075 515.721L790.854 520.338L791.554 524.984L792.175 529.657L792.714 534.357L793.172 539.081L793.549 543.828L793.843 548.597L794.054 553.385L794.182 558.192L794.226 563.016L794.186 567.854L794.061 572.706L793.851 577.57L793.557 582.444L793.176 587.327L792.71 592.217L792.158 597.113L791.52 602.012L790.795 606.913L789.984 611.815L789.087 616.715L788.102 621.613L787.032 626.507L785.874 631.394L784.63 636.273L783.3 641.143L781.883 646.002L780.38 650.849L778.791 655.68L777.116 660.496L775.355 665.295L773.509 670.074L771.578 674.832L769.562 679.567L767.462 684.279L765.278 688.964L763.011 693.623L760.66 698.252L758.227 702.851L755.712 707.418L753.115 711.951L750.438 716.449L747.68 720.91L744.843 725.333L741.926 729.716L738.932 734.057L735.86 738.356L732.711 742.611L729.487 746.82L726.187 750.982L722.814 755.095L719.366 759.158L715.847 763.169L712.256 767.128L708.594 771.033L704.863 774.882L701.064 778.674L697.197 782.408L693.264 786.083L689.265 789.697L685.202 793.249L681.076 796.738L676.889 800.163L672.641 803.522L668.333 806.815L663.967 810.04L659.545 813.195L655.066 816.282L650.534 819.296L645.948 822.24L641.311 825.11L636.623 827.906L631.887 830.627L627.103 833.272L622.273 835.84L617.398 838.331L612.48 840.744L607.521 843.077L602.521 845.33L597.483 847.502L592.407 849.593L587.296 851.602L582.15 853.527L576.972 855.37L571.763 857.128L566.525 858.802L561.259 860.39L555.966 861.893L550.649 863.309L545.31 864.639L539.948 865.882L534.567 867.037L529.168 868.105L523.753 869.085L518.322 869.976L512.879 870.779L507.424 871.492L501.96 872.117L496.487 872.653L491.008 873.099L485.525 873.456L480.038 873.723L474.55 873.901L469.062 873.99L463.577 873.989L458.094 873.899L452.618 873.719L447.148 873.45L441.687 873.093L436.237 872.647L430.798 872.112L425.374 871.489L419.964 870.778L414.572 869.979L409.198 869.093L403.844 868.121L398.513 867.061L393.205 865.917L387.922 864.686L382.666 863.371L377.438 861.971L372.24 860.487L367.073 858.921L361.939 857.271L356.84 855.54L351.777 853.728L346.751 851.835L341.765 849.863L336.819 847.812L331.915 845.682L327.054 843.476L322.238 841.193L317.468 838.835L312.746 836.402L308.073 833.896L303.451 831.317L298.88 828.667L294.362 825.946L289.898 823.155L285.49 820.296L281.138 817.37L276.845 814.378L272.611 811.321L268.437 808.2L264.325 805.017L260.275 801.772L256.289 798.467L252.368 795.103L248.513 791.681L244.725 788.204L241.004 784.671L237.353 781.085L233.771 777.446L230.26 773.757L226.821 770.018L223.455 766.231L220.161 762.398L216.942 758.519L213.798 754.597L210.729 750.632L207.737 746.627L204.822 742.582L201.985 738.5L199.226 734.381L196.546 730.228L193.945 726.042L191.425 721.824L188.985 717.576L186.626 713.3L184.348 708.997L182.153 704.669L180.04 700.317L178.009 695.943L176.061 691.549L174.196 687.136L172.415 682.706L170.718 678.26L169.104 673.8L167.574 669.328L166.129 664.846L164.767 660.354L163.49 655.855L162.297 651.351L161.188 646.842L160.163 642.331L159.223 637.819L158.366 633.308L157.594 628.799L156.905 624.294L156.299 619.795L155.777 615.304L155.337 610.821L154.98 606.349L154.706 601.889L154.513 597.442L154.402 593.011L154.372 588.597L154.422 584.201L154.553 579.825L154.763 575.47L155.053 571.139L155.421 566.832L155.866 562.551L156.389 558.298L156.988 554.073L157.664 549.879L158.414 545.717L159.238 541.589L160.136 537.495L161.107 533.437L162.15 529.417L163.263 525.435L164.447 521.494L165.7 517.595L167.02 513.738L168.409 509.925L169.863 506.158L171.383 502.438L172.966 498.765L174.613 495.142L176.322 491.569L178.091 488.047L179.92 484.578L181.808 481.162L183.753 477.802L185.754 474.497L187.81 471.249L189.919 468.059L192.081 464.927L194.294 461.856L196.557 458.845L198.868 455.896L201.226 453.01L203.629 450.187L206.077 447.428L208.568 444.734L211.101 442.106L213.673 439.545L216.284 437.05L218.933 434.624L221.617 432.266L224.335 429.978L227.086 427.759L229.868 425.61L232.68 423.533L235.52 421.526L238.387 419.592L241.279 417.73L244.195 415.94L247.132 414.224L250.09 412.581L253.067 411.012L256.061 409.516L259.071 408.095L262.095 406.749L265.132 405.477L268.18 404.279L271.237 403.157L274.302 402.11L277.373 401.137L280.448 400.24L283.527 399.418L286.607 398.671L289.687 397.999L292.765 397.401L295.839 396.879L298.909 396.431L301.973 396.057L305.028 395.757L308.073 395.531L311.108 395.379L314.129 395.3L317.136 395.293L320.128 395.36L323.102 395.498L326.057 395.708L328.991 395.988L331.904 396.34L334.793 396.761L337.658 397.252L340.496 397.812L343.306 398.44L346.087 399.136L348.837 399.898L351.555 400.727L354.24 401.621L356.89 402.58L359.504 403.602L362.08 404.688L364.617 405.835L367.114 407.044L369.569 408.314L371.982 409.642L374.351 411.03L376.674 412.474L378.951 413.975L381.181 415.532L383.361 417.142L385.492 418.807L387.571 420.523L389.599 422.29L391.573 424.107L393.492 425.973L395.357 427.887L397.165 429.846L398.916 431.851L400.608 433.9L402.241 435.991L403.814 438.123L405.327 440.295L406.777 442.506L408.165 444.755L409.489 447.039L410.749 449.357L411.944 451.709L413.074 454.093L414.137 456.507L415.133 458.95L416.062 461.42L416.922 463.916L417.714 466.437L418.436 468.981L419.089 471.546L419.672 474.132L420.184 476.736L420.625 479.357L420.994 481.993L421.292 484.643L421.517 487.306L421.671 489.98L421.751 492.663L421.759 495.354L421.694 498.051L421.556 500.753L421.344 503.457L421.059 506.164L420.701 508.87L420.27 511.574L419.764 514.276L419.186 516.972L418.534 519.662L417.809 522.345L417.012 525.017L416.141 527.679L415.197 530.328L414.181 532.963L413.093 535.582L411.934 538.184L410.702 540.767L409.4 543.33L408.026 545.87L406.583 548.388L405.069 550.88L403.487 553.346L401.835 555.785L400.115 558.193L398.327 560.571L396.472 562.917L394.551 565.229L392.564 567.506L390.512 569.746L388.395 571.948L386.215 574.111L383.972 576.233L381.667 578.313L379.3 580.349L376.874 582.341L374.388 584.286L371.844 586.184L369.242 588.034L366.583 589.833L363.869 591.582L361.1 593.278L358.278 594.92L355.404 596.508L352.478 598.04L349.503 599.515L346.478 600.931L343.405 602.289L340.286 603.586L337.121 604.822L333.912 605.996L330.66 607.107L327.366 608.153L324.032 609.134L320.659 610.049L317.249 610.897L313.802 611.677L310.319 612.389L306.804 613.031L303.256 613.603L299.677 614.104L296.069 614.533L292.433 614.89L288.771 615.174L285.084 615.384L281.373 615.52L277.64 615.582L273.887 615.567L270.115 615.477L266.326 615.311L262.521 615.068L258.701 614.747L254.869 614.349L251.026 613.873L247.173 613.319L243.313 612.686L239.445 611.974L235.574 611.183L231.699 610.313L227.822 609.364L223.946 608.335L220.071 607.226L216.2 606.037L212.333 604.769L208.473 603.421L204.622 601.993L200.78 600.486L196.949 598.899L193.132 597.232L189.329 595.486L185.543 593.661L181.774 591.758L178.025 589.775L174.297 587.714L170.592 585.575L166.911 583.359L163.256 581.065L159.628 578.694L156.029 576.247L152.461 573.724L148.926 571.126L145.424 568.452L141.957 565.704L138.526 562.883L135.135 559.988L131.782 557.021L128.471 553.982L125.203 550.872L121.979 547.692L118.801 544.442L115.669 541.123L112.586 537.737L109.553 534.284L106.571 530.764L103.641 527.179L100.766 523.531L97.9456 519.818L95.1818 516.044L92.4759 512.208L89.8291 508.312L87.2426 504.357L84.7176 500.344L82.2553 496.274L79.857 492.148L77.5238 487.968L75.2568 483.734L73.0572 479.448L70.9259 475.111L68.8641 470.724L66.8728 466.289L64.953 461.807L63.1057 457.28L61.3319 452.707L59.6325 448.092L58.0083 443.435L56.4603 438.738L54.9893 434.002L53.5962 429.228L52.2817 424.419L51.0466 419.574L49.8916 414.697L48.8175 409.789L47.8249 404.85L46.9144 399.883L46.0867 394.889L45.3424 389.869L44.682 384.826L44.1061 379.76L43.615 374.674L43.2094 369.568L42.8896 364.445L42.6561 359.306L42.5091 354.152L42.449 348.986L42.4762 343.809L42.5909 338.623L42.7934 333.429L43.0837 328.228L43.4622 323.023L43.929 317.816L44.4842 312.607L45.1277 307.399L45.8598 302.193L46.6804 296.99L47.5894 291.793L48.5869 286.604L49.6727 281.423L50.8467 276.252L52.1088 271.094L53.4587 265.95L54.8962 260.821L56.4212 255.709L58.0333 250.616L59.7321 245.543L61.5174 240.492L63.3888 235.465L65.3457 230.462L67.3879 225.487L69.5148 220.541L71.7259 215.624L74.0207 210.739L76.3986 205.887L78.859 201.069L81.4012 196.288L84.0247 191.545L86.7286 186.841L89.5123 182.179L92.3751 177.558L95.316 172.981L98.3345 168.449L101.429 163.965L104.6 159.528L107.846 155.141L111.165 150.804L114.558 146.521L118.022 142.29L121.557 138.115L125.162 133.996L128.837 129.935L132.578 125.933L136.387 121.991L140.261 118.11L144.2 114.292L148.201 110.538L152.265 106.849L156.389 103.226L160.573 99.6701L164.816 96.1827L169.115 92.7647L173.47 89.4171L177.879 86.1411L182.341 82.9374L186.855 79.8073L191.419 76.7515L196.031 73.7711L200.691 70.8668L205.397 68.0396L210.148 65.2902L214.941 62.6195L219.776 60.0282L224.651 57.5171L229.564 55.0869L234.514 52.7382L239.5 50.4718L244.519 48.2883L249.571 46.1881L254.653 44.172L259.764 42.2404L264.903 40.3938L270.067 38.6327L275.256 36.9576L280.468 35.3688L285.7 33.8667L290.951 32.4516L296.221 31.1239L301.506 29.8838L306.806 28.7316L312.118 27.6675L317.441 26.6916L322.774 25.8041L328.114 25.0052L333.46 24.2949L338.811 23.6732L344.164 23.1401L349.518 22.6957L354.872 22.3399L360.223 22.0726L365.569 21.8937L370.911 21.8031L376.244 21.8005L381.569 21.8858L386.883 22.0587L392.185 22.3189L397.472 22.6661L402.744 23.1L407.999 23.6202L413.235 24.2263L418.45 24.9179L423.643 25.6944L428.812 26.5555L433.956 27.5005L439.074 28.529L444.162 29.6402L449.221 30.8336L454.249 32.1086L459.243 33.4645L464.203 34.9004L469.126 36.4158L474.013 38.0099L478.86 39.6817L483.667 41.4306L488.432 43.2557L493.153 45.156L497.831 47.1307L502.462 49.1789L507.045 51.2996L511.58 53.4917L516.065 55.7543L520.499 58.0864L524.88 60.4869L529.208 62.9546L533.48 65.4885L537.696 68.0875L541.855 70.7504L545.955 73.476L549.995 76.2631L553.975 79.1105L557.892 82.017L561.747 84.9812L565.537 88.0019L569.263 91.0778L572.923 94.2076L576.515 97.3899L580.04 100.623L583.496 103.907L586.883 107.238L590.199 110.617L593.443 114.041L596.616 117.509L599.716 121.02L602.742 124.572L605.694 128.164L608.571 131.794L611.373 135.461L614.098 139.163L616.747 142.899L619.319 146.666L621.812 150.464L624.228 154.292L626.565 158.146L628.822 162.027L631 165.932L633.099 169.859L635.117 173.808L637.055 177.776L638.911 181.762L640.688 185.764L642.382 189.78L643.996 193.81L645.528 197.851L646.979 201.902L648.348 205.962L649.636 210.027L650.842 214.098L651.966 218.172L653.009 222.248L653.97 226.323L654.851 230.397L655.65 234.468L656.368 238.535L657.006 242.595L657.563 246.647L658.04 250.689L658.438 254.72L658.756 258.739L658.995 262.743L659.155 266.732L659.238 270.703L659.242 274.655L659.17 278.587L659.021 282.497L658.796 286.384L658.495 290.245L658.12 294.08L657.67 297.888L657.147 301.666L656.552 305.413L655.884 309.128L655.146 312.81L654.337 316.456L653.458 320.066L652.511 323.639L651.496 327.172L650.414 330.665L649.267 334.117L648.054 337.526L646.777 340.89L645.438 344.209L644.036 347.481L642.574 350.706L641.052 353.882L639.472 357.007L637.833 360.081L636.139 363.103L634.39 366.072L632.586 368.986L630.73 371.844L628.822 374.646L626.864 377.391L624.857 380.077L622.803 382.703L620.702 385.27L618.556 387.775L616.367 390.218L614.135 392.598L611.863 394.915L609.551 397.168L607.201 399.355L604.814 401.476L602.392 403.532L599.937 405.52L597.449 407.44L594.931 409.292L592.383 411.075L589.807 412.789L587.205 414.433L584.578 416.006L581.929 417.509L579.257 418.94L576.565 420.3L573.855 421.589L571.128 422.805L568.385 423.948L565.628 425.019L562.859 426.017L560.08 426.942L557.291 427.793L554.494 428.572L551.692 429.277L548.885 429.908L546.076 430.466L543.265 430.95L540.454 431.361L537.646 431.699L534.841 431.963L532.04 432.154L529.247 432.273L526.462 432.318L523.687 432.292L520.923 432.193L518.172 432.022L515.435 431.779L512.715 431.465L510.011 431.081L507.327 430.626L504.664 430.101L502.023 429.507L499.405 428.844L496.812 428.112L494.246 427.312L491.707 426.446L489.198 425.513L486.72 424.514L484.275 423.45L481.862 422.321L479.485 421.128L477.145 419.873L474.842 418.556L472.578 417.177L470.354 415.738L468.173 414.239L466.034 412.682L463.94 411.067L461.891 409.395L459.889 407.668L457.935 405.885L456.03 404.05L454.175 402.161L452.372 400.221L450.621 398.231L448.924 396.191L447.282 394.104L445.695 391.969L444.166 389.789L442.694 387.564L441.28 385.295L439.927 382.985L438.634 380.634L437.403 378.244L436.234 375.815L435.128 373.35L434.086 370.849L433.109 368.315L432.198 365.747L431.353 363.148L430.575 360.519L429.864 357.862L429.222 355.178L428.649 352.468L428.145 349.734L427.712 346.977L427.349 344.2L427.057 341.402L426.836 338.587L426.688 335.754L426.612 332.907L426.608 330.046L426.678 327.173L426.821 324.29L427.038 321.397L427.328 318.497L427.693 315.592L428.131 312.682L428.645 309.769L429.232 306.856L429.895 303.943L430.632 301.032L431.443 298.124L432.329 295.222L433.29 292.327L434.325 289.439L435.435 286.562L436.619 283.697L437.877 280.844L439.209 278.006L440.614 275.185L442.092 272.381L443.644 269.597L445.268 266.833L446.965 264.092L448.733 261.375L450.574 258.683L452.484 256.018L454.466 253.382L456.517 250.776L458.638 248.202L460.828 245.66L463.085 243.153L465.411 240.681L467.803 238.248L470.262 235.852L472.785 233.497L475.374 231.184L478.026 228.914L480.742 226.688L483.519 224.507L486.358 222.374L489.257 220.289L492.216 218.254L495.233 216.269L498.308 214.337L501.439 212.458L504.626 210.634L507.867 208.865L511.162 207.154L514.509 205.501L517.906 203.907L521.354 202.373L524.851 200.902L528.395 199.492L531.985 198.147L535.62 196.866L539.299 195.65L543.021 194.501L546.784 193.42L550.586 192.407L554.428 191.464L558.306 190.591L562.22 189.789L566.169 189.059L570.15 188.401L574.163 187.817L578.206 187.307L582.278 186.872L586.377 186.512L590.501 186.229L594.65 186.022L598.821 185.893L603.013 185.842L607.225 185.869L611.455 185.974L615.701 186.16L619.963 186.425L624.237 186.77L628.523 187.195L632.819 187.702L637.124 188.29L641.436 188.959L645.753 189.71L650.073 190.543L654.396 191.457L658.719 192.454L663.04 193.534L667.359 194.695L671.674 195.939L675.982 197.266L680.282 198.675L684.573 200.166L688.853 201.74L693.12 203.396L697.373 205.134L701.61 206.953L705.829 208.854L710.029 210.837L714.208 212.901L718.365 215.045L722.498 217.27L726.604 219.575L730.684 221.96L734.735 224.423L738.755 226.966L742.744 229.587L746.699 232.285L750.618 235.061L754.501 237.913L758.346 240.841L762.151 243.844L765.915 246.922L769.636 250.074L773.313 253.298L776.945 256.596L780.529 259.964L784.065 263.404L787.551 266.913L790.985 270.491L794.367 274.138L797.695 277.851L800.968 281.631L804.183 285.475L807.341 289.384L810.439 293.356L813.477 297.39L816.453 301.484L819.366 305.639L822.214 309.852L824.997 314.123L827.714 318.45L830.363 322.832L832.943 327.267L835.453 331.756L837.892 336.295L840.26 340.885L842.554 345.523L844.774 350.208L846.92 354.94L848.989 359.716L850.982 364.535L852.897 369.396L854.734 374.297L856.491 379.237L858.169 384.215L859.765 389.228L861.28 394.276L862.713 399.357L864.063 404.469L865.329 409.611L866.511 414.781L867.609 419.978L868.621 425.2L869.547 430.446L870.387 435.714L871.141 441.002L871.806 446.309L872.385 451.633L872.876 456.972L873.278 462.325L873.592 467.691L873.817 473.067L873.953 478.452L874 483.845L873.958 489.243L873.825 494.645L873.604 500.049L873.293 505.454L872.892 510.858L872.401 516.259L871.82 521.656L871.15 527.046L870.391 532.429L869.542 537.803L868.604 543.165L867.577 548.515L866.461 553.85L865.257 559.17L863.964 564.472L862.584 569.754L861.116 575.015L859.561 580.254L857.919 585.469L856.191 590.658L854.377 595.82L852.478 600.952L850.495 606.054L848.427 611.124L846.275 616.16L844.041 621.161L841.725 626.125L839.327 631.051L836.849 635.937L834.29 640.782L831.652 645.584L828.936 650.342L826.143 655.055L823.272 659.72L820.326 664.336L817.305 668.903L814.211 673.418L811.043 677.881L807.804 682.29L804.494 686.644L801.114 690.941L797.666 695.18L794.149 699.361L790.567 703.48L786.919 707.539L783.208 711.534L779.433 715.466L775.597 719.333L771.701 723.134L767.745 726.867L763.732 730.533L759.662 734.129L755.537 737.654L751.359 741.109L747.128 744.491L742.846 747.8L738.514 751.035L734.134 754.195L729.708 757.279L725.236 760.287L720.721 763.217L716.163 766.069L711.565 768.842L706.927 771.535L702.252 774.149L697.54 776.681L692.794 779.132L688.015 781.5L683.204 783.786L678.364 785.989L673.495 788.109L668.6 790.144L663.679 792.094L658.735 793.96L653.77 795.74L648.784 797.435L643.78 799.044L638.759 800.567L633.723 802.003L628.673 803.353L623.611 804.616L618.539 805.792L613.459 806.881L608.372 807.883L603.279 808.798L598.183 809.626L593.086 810.367L587.988 811.02L582.891 811.587L577.798 812.067L572.709 812.46L567.627 812.767L562.553 812.988L557.488 813.123L552.435 813.172L547.395 813.136L542.37 813.014L537.361 812.809L532.369 812.518L527.397 812.145L522.446 811.688L517.518 811.148L512.614 810.526L507.735 809.822L502.884 809.037L498.062 808.172L493.27 807.227L488.51 806.203L483.783 805.1L479.09 803.92L474.435 802.664L469.816 801.331L465.237 799.923L460.698 798.44L456.202 796.884L451.748 795.256L447.339 793.556L442.976 791.785L438.66 789.945L434.393 788.036L430.176 786.06L426.01 784.017L421.895 781.908L417.835 779.736L413.829 777.5L409.879 775.202L405.986 772.843L402.151 770.425L398.375 767.948L394.659 765.414L391.005 762.824L387.412 760.18L383.883 757.482L380.419 754.733L377.019 751.932L373.685 749.083L370.418 746.185L367.219 743.241L364.089 740.252L361.027 737.219L358.036 734.144L355.116 731.028L352.267 727.873L349.49 724.68L346.786 721.451L344.156 718.186L341.599 714.889L339.117 711.559L336.71 708.199L334.379 704.811L332.123 701.395L329.944 697.954L327.842 694.489L325.817 691.001L323.869 687.492L321.999 683.964L320.208 680.418L318.494 676.856L316.859 673.279L315.302 669.69L313.825 666.089L312.426 662.478L311.106 658.86L309.865 655.234L308.702 651.604L307.619 647.971L306.615 644.335L305.689 640.7L304.842 637.066L304.074 633.435L303.383 629.809L302.771 626.189L302.237 622.577L301.78 618.974L301.4 615.383L301.097 611.803L300.87 608.238L300.72 604.689L300.645 601.156L300.645 597.643L300.72 594.149L300.869 590.677L301.091 587.229L301.386 583.805L301.754 580.407L302.193 577.037L302.703 573.695L303.283 570.385L303.932 567.106L304.651 563.86L305.437 560.649L306.29 557.474L307.209 554.336L308.194 551.236L309.243 548.177L310.355 545.159L311.531 542.183L312.767 539.251L314.064 536.364L315.421 533.524L316.836 530.73L318.308 527.985L319.836 525.29L321.42 522.645L323.057 520.053L324.747 517.513L326.489 515.027L328.281 512.596L330.123 510.221L332.012 507.903L333.947 505.643L335.928 503.442L337.953 501.3L340.021 499.219L342.13 497.199L344.279 495.242L346.466 493.347L348.691 491.516L350.951 489.75L353.246 488.049L355.573 486.413L357.932 484.844L360.321 483.342L362.739 481.908L365.183 480.542L367.653 479.244L370.147 478.016L372.664 476.857L375.202 475.768L377.759 474.75L380.334 473.802L382.925 472.926L385.531 472.121L388.15 471.388L390.781 470.726L393.422 470.137L396.072 469.62L398.729 469.176L401.391 468.804L404.057 468.504L406.725 468.278L409.393 468.123L412.061 468.042L414.727 468.033L417.388 468.097L420.043 468.233L422.692 468.441L425.331 468.721L427.96 469.074L430.578 469.497L433.181 469.992L435.77 470.558L438.342 471.195L440.896 471.902L443.431 472.679L445.944 473.525L448.435 474.441L450.901 475.425L453.342 476.476L455.756 477.596L458.141 478.782L460.496 480.034L462.819 481.352L465.11 482.734L467.366 484.181L469.587 485.692L471.77 487.265L473.915 488.9L476.02 490.596L478.084 492.352L480.106 494.168L482.084 496.042L484.016 497.974L485.903 499.962L487.741 502.006L489.531 504.105L491.271 506.257L492.96 508.462L494.597 510.718L496.18 513.024L497.708 515.38L499.181 517.784L500.597 520.236L501.956 522.732L503.255 525.274L504.495 527.858L505.674 530.485L506.791 533.153L507.846 535.86L508.837 538.606L509.764 541.388L510.625 544.206L511.421 547.058L512.15 549.943L512.811 552.86L513.404 555.806L513.928 558.782L514.382 561.784L514.766 564.812L515.079 567.864L515.321 570.94L515.491 574.036L515.588 577.153L515.612 580.287L515.563 583.439L515.439 586.606L515.242 589.786L514.97 592.979L514.622 596.182L514.2 599.395L513.702 602.615L513.128 605.841L512.478 609.071L511.752 612.305L510.95 615.539L510.071 618.773L509.116 622.005L508.084 625.234L506.976 628.457L505.791 631.674L504.529 634.883L503.192 638.081L501.778 641.268L500.288 644.442L498.722 647.601L497.08 650.745L495.363 653.87L493.57 656.976L491.703 660.061L489.761 663.123L487.745 666.161L485.655 669.174L483.492 672.16L481.257 675.117L478.948 678.043L476.568 680.938L474.117 683.8L471.595 686.627L469.003 689.418L466.342 692.171L463.612 694.885L460.814 697.559L457.949 700.19L455.018 702.778L452.021 705.322L448.959 707.819L445.833 710.269L442.644 712.669L439.392 715.02L436.08 717.319L432.707 719.565L429.275 721.758L425.785 723.894L422.238 725.975L418.634 727.997L414.976 729.961L411.263 731.864L407.498 733.706L403.681 735.486L399.814 737.202L395.898 738.853L391.933 740.439L387.922 741.958L383.866 743.409L379.765 744.792L375.621 746.105L371.436 747.347L367.211 748.518L362.948 749.617L358.646 750.642L354.309 751.593L349.938 752.47L345.533 753.271L341.096 753.995L336.63 754.642L332.135 755.212L327.613 755.703L323.065 756.115L318.493 756.448L313.898 756.7L309.282 756.872L304.647 756.962L299.994 756.971L295.325 756.897L290.641 756.741L285.944 756.502L281.236 756.18L276.517 755.775L271.791 755.285L267.057 754.711L262.319 754.053L257.578 753.311L252.834 752.483L248.091 751.571L243.349 750.574L238.611 749.493L233.878 748.326L229.151 747.074L224.432 745.737L219.723 744.316L215.026 742.81L210.341 741.219L205.672 739.543L201.019 737.784L196.384 735.941L191.769 734.013L187.176 732.003L182.605 729.909L178.059 727.733L173.539 725.474L169.047 723.133L164.585 720.711L160.153 718.208L155.755 715.624L151.39 712.961L147.061 710.218L142.769 707.397L138.517 704.498L134.304 701.521L130.133 698.468L126.006 695.338L121.924 692.134L117.887 688.855L113.899 685.503L109.96 682.078L106.071 678.581L102.234 675.013L98.4509 671.376L94.7223 667.669L91.0498 663.894L87.4347 660.053L83.8783 656.145L80.3819 652.172L76.9467 648.136L73.574 644.037L70.2651 639.876L67.0211 635.655L63.8432 631.375L60.7325 627.036L57.6902 622.641L54.7174 618.191L51.8151 613.686L48.9845 609.128L46.2265 604.519L43.5421 599.859L40.9323 595.151L38.3981 590.394L35.9404 585.592L33.5601 580.745L31.258 575.855L29.035 570.922L26.8919 565.95L24.8295 560.938L22.8484 555.889L20.9496 550.804L19.1336 545.685L17.4011 540.532L15.7527 535.349L14.189 530.135L12.7107 524.894L11.3181 519.626L10.012 514.333L8.79267 509.016L7.66062 503.678L6.61626 498.319L5.65996 492.942L4.79208 487.548L4.01293 482.138L3.3228 476.716L2.72197 471.281L2.2106 465.835L1.78891 460.381L1.45706 454.92L1.21517 449.454L1.0633 443.984L1.00154 438.512" stroke="#001AFF" stroke-width="1.20281"/>
</svg>
