<svg width="858" height="858" viewBox="0 0 858 858" fill="none" xmlns="http://www.w3.org/2000/svg">
<path d="M857 428.998L856.868 426.55L856.474 424.104L855.816 421.66L854.896 419.219L853.715 416.782L852.272 414.35L850.569 411.924L848.606 409.504L846.386 407.093L843.909 404.691L841.177 402.299L838.191 399.918L834.954 397.548L831.468 395.192L827.734 392.849L823.755 390.522L819.533 388.21L815.071 385.915L810.372 383.638L805.439 381.379L800.274 379.14L794.88 376.921L789.262 374.724L783.423 372.55L777.366 370.399L771.094 368.272L764.613 366.17L757.925 364.095L751.035 362.046L743.947 360.025L736.666 358.033L729.196 356.07L721.541 354.138L713.707 352.237L705.697 350.368L697.518 348.532L689.174 346.73L680.67 344.962L672.012 343.229L663.204 341.533L654.253 339.873L645.163 338.251L635.941 336.668L626.592 335.123L617.121 333.619L607.535 332.154L597.84 330.731L588.041 329.35L578.144 328.011L568.156 326.716L558.083 325.464L547.931 324.257L537.706 323.095L527.414 321.978L517.062 320.907L506.657 319.884L496.203 318.907L485.709 317.978L475.18 317.098L464.623 316.266L454.045 315.484L443.451 314.751L432.849 314.068L422.245 313.436L411.645 312.855L401.056 312.326L390.484 311.847L379.937 311.421L369.42 311.047L358.94 310.726L348.503 310.458L338.115 310.243L327.784 310.082L317.515 309.974L307.315 309.919L297.19 309.919L287.147 309.973L277.19 310.082L267.327 310.244L257.563 310.462L247.905 310.734L238.359 311.06L228.929 311.441L219.623 311.877L210.445 312.367L201.402 312.912L192.498 313.512L183.74 314.166L175.133 314.874L166.681 315.637L158.39 316.453L150.266 317.323L142.313 318.247L134.536 319.225L126.939 320.255L119.528 321.339L112.307 322.474L105.28 323.663L98.4513 324.903L91.8256 326.194L85.4066 327.537L79.1982 328.93L73.2043 330.374L67.4285 331.868L61.8742 333.41L56.5448 335.002L51.4436 336.642L46.5737 338.329L41.9379 340.064L37.5391 341.845L33.38 343.672L29.463 345.544L25.7905 347.46L22.3648 349.421L19.1878 351.424L16.2614 353.47L13.5874 355.557L11.1674 357.685L9.00282 359.853L7.09492 362.06L5.44481 364.305L4.05344 366.588L2.92161 368.907L2.04996 371.261L1.43896 373.65L1.08892 376.073L1 378.528L1.17218 381.015L1.6053 383.532L2.29902 386.079L3.25286 388.654L4.46616 391.256L5.93812 393.885L7.66775 396.539L9.65394 399.217L11.8954 401.917L14.3907 404.64L17.1382 407.382L20.1362 410.144L23.3827 412.924L26.8758 415.721L30.6131 418.533L34.5924 421.359L38.8111 424.199L43.2665 427.05L47.956 429.911L52.8764 432.781L58.0248 435.66L63.3978 438.544L68.9922 441.433L74.8045 444.326L80.8309 447.222L87.0678 450.118L93.5112 453.013L100.157 455.907L107.002 458.797L114.04 461.683L121.268 464.563L128.682 467.434L136.276 470.297L144.046 473.15L151.987 475.99L160.094 478.818L168.363 481.63L176.787 484.427L185.363 487.205L194.083 489.965L202.944 492.704L211.939 495.421L221.064 498.115L230.312 500.785L239.677 503.427L249.154 506.043L258.738 508.629L268.421 511.185L278.198 513.709L288.064 516.199L298.011 518.655L308.035 521.075L318.128 523.458L328.284 525.802L338.498 528.106L348.763 530.368L359.072 532.588L369.419 534.764L379.798 536.894L390.203 538.978L400.627 541.014L411.063 543.001L421.506 544.937L431.948 546.822L442.384 548.655L452.807 550.433L463.211 552.157L473.589 553.825L483.935 555.435L494.242 556.987L504.505 558.48L514.716 559.912L524.87 561.283L534.961 562.592L544.982 563.837L554.927 565.018L564.791 566.134L574.566 567.184L584.248 568.168L593.83 569.083L603.306 569.931L612.671 570.709L621.919 571.417L631.044 572.055L640.04 572.622L648.903 573.116L657.627 573.539L666.207 573.888L674.636 574.164L682.911 574.367L691.027 574.495L698.977 574.548L706.759 574.526L714.365 574.428L721.793 574.255L729.038 574.006L736.096 573.68L742.961 573.279L749.63 572.8L756.099 572.245L762.365 571.614L768.423 570.906L774.269 570.121L779.9 569.259L785.314 568.321L790.506 567.307L795.474 566.216L800.214 565.05L804.724 563.808L809.001 562.49L813.043 561.098L816.847 559.631L820.411 558.09L823.733 556.475L826.81 554.787L829.643 553.026L832.227 551.193L834.563 549.289L836.649 547.315L838.483 545.27L840.065 543.157L841.394 540.975L842.469 538.725L843.29 536.409L843.856 534.028L844.166 531.581L844.222 529.071L844.023 526.499L843.568 523.865L842.86 521.17L841.898 518.417L840.683 515.605L839.215 512.737L837.497 509.813L835.528 506.836L833.311 503.805L830.846 500.723L828.136 497.591L825.183 494.411L821.987 491.184L818.552 487.911L814.88 484.595L810.972 481.236L806.832 477.837L802.461 474.398L797.864 470.923L793.043 467.412L788 463.867L782.74 460.29L777.265 456.682L771.579 453.046L765.686 449.384L759.589 445.697L753.291 441.988L746.799 438.257L740.114 434.507L733.242 430.741L726.186 426.959L718.952 423.165L711.543 419.36L703.965 415.545L696.221 411.724L688.318 407.898L680.259 404.069L672.051 400.239L663.697 396.411L655.204 392.586L646.576 388.767L637.819 384.956L628.938 381.155L619.939 377.365L610.828 373.59L601.61 369.831L592.29 366.09L582.876 362.37L573.371 358.673L563.783 355L554.117 351.355L544.379 347.738L534.576 344.153L524.712 340.601L514.796 337.085L504.831 333.606L494.825 330.166L484.784 326.768L474.714 323.414L464.621 320.106L454.512 316.845L444.392 313.635L434.268 310.476L424.145 307.37L414.031 304.321L403.932 301.329L393.853 298.397L383.8 295.526L373.781 292.718L363.8 289.975L353.865 287.299L343.981 284.692L334.154 282.155L324.39 279.69L314.696 277.299L305.076 274.984L295.537 272.745L286.085 270.585L276.726 268.505L267.464 266.507L258.306 264.591L249.258 262.76L240.324 261.015L231.51 259.356L222.822 257.787L214.265 256.306L205.843 254.917L197.562 253.62L189.428 252.415L181.444 251.305L173.615 250.29L165.947 249.37L158.444 248.548L151.11 247.824L143.95 247.198L136.968 246.671L130.168 246.245L123.554 245.919L117.131 245.694L110.901 245.571L104.869 245.551L99.0384 245.633L93.4122 245.817L87.994 246.106L82.7868 246.497L77.7938 246.993L73.0178 247.592L68.4616 248.295L64.1278 249.102L60.0191 250.013L56.1376 251.027L52.4856 252.145L49.0652 253.366L45.8784 254.691L42.9268 256.118L40.2122 257.647L37.736 259.278L35.4995 261.01L33.504 262.842L31.7505 264.775L30.24 266.807L28.973 268.937L27.9503 271.165L27.1723 273.489L26.6392 275.909L26.3513 278.424L26.3084 281.033L26.5106 283.734L26.9573 286.526L27.6482 289.409L28.5827 292.38L29.76 295.438L31.1792 298.582L32.8392 301.811L34.7389 305.123L36.8768 308.516L39.2516 311.989L41.8615 315.539L44.7047 319.166L47.7795 322.868L51.0835 326.642L54.6148 330.486L58.3709 334.4L62.3493 338.38L66.5475 342.425L70.9627 346.532L75.592 350.7L80.4323 354.927L85.4807 359.209L90.7338 363.545L96.1882 367.933L101.84 372.37L107.687 376.853L113.724 381.382L119.947 385.952L126.353 390.561L132.938 395.208L139.697 399.888L146.626 404.601L153.721 409.343L160.977 414.112L168.39 418.904L175.955 423.718L183.667 428.55L191.521 433.398L199.513 438.259L207.637 443.13L215.889 448.009L224.263 452.893L232.753 457.779L241.356 462.663L250.065 467.544L258.874 472.419L267.779 477.284L276.774 482.136L285.853 486.974L295.011 491.794L304.242 496.593L313.54 501.368L322.899 506.116L332.314 510.836L341.779 515.523L351.289 520.175L360.836 524.789L370.416 529.362L380.022 533.892L389.649 538.376L399.29 542.81L408.94 547.193L418.593 551.522L428.242 555.793L437.883 560.004L447.509 564.153L457.114 568.237L466.692 572.253L476.238 576.198L485.745 580.071L495.208 583.869L504.622 587.589L513.98 591.228L523.276 594.785L532.506 598.257L541.664 601.642L550.743 604.937L559.739 608.14L568.646 611.25L577.459 614.263L586.172 617.179L594.78 619.994L603.279 622.707L611.662 625.316L619.925 627.819L628.063 630.215L636.072 632.501L643.945 634.676L651.679 636.738L659.27 638.686L666.711 640.518L674 642.233L681.132 643.829L688.102 645.305L694.907 646.66L701.542 647.893L708.004 649.002L714.289 649.986L720.393 650.845L726.312 651.578L732.044 652.183L737.584 652.66L742.93 653.009L748.079 653.228L753.027 653.318L757.772 653.277L762.311 653.105L766.641 652.803L770.761 652.369L774.667 651.804L778.358 651.108L781.831 650.28L785.086 649.32L788.118 648.23L790.929 647.008L793.515 645.656L795.875 644.174L798.008 642.562L799.914 640.82L801.591 638.95L803.038 636.952L804.255 634.827L805.241 632.576L805.996 630.2L806.519 627.699L806.812 625.075L806.872 622.329L806.702 619.462L806.301 616.476L805.67 613.372L804.808 610.152L803.718 606.816L802.4 603.367L800.855 599.807L799.084 596.136L797.089 592.358L794.871 588.473L792.431 584.484L789.772 580.393L786.895 576.202L783.802 571.913L780.495 567.529L776.977 563.051L773.25 558.483L769.316 553.826L765.178 549.083L760.839 544.257L756.302 539.35L751.569 534.365L746.645 529.305L741.531 524.171L736.232 518.969L730.75 513.699L725.09 508.365L719.255 502.97L713.248 497.518L707.074 492.01L700.737 486.45L694.241 480.842L687.589 475.189L680.786 469.493L673.836 463.758L666.745 457.988L659.515 452.185L652.152 446.353L644.661 440.495L637.046 434.615L629.312 428.717L621.464 422.803L613.506 416.877L605.445 410.942L597.284 405.003L589.029 399.062L580.685 393.124L572.257 387.191L563.751 381.267L555.172 375.356L546.524 369.461L537.815 363.586L529.048 357.734L520.229 351.91L511.364 346.116L502.458 340.355L493.517 334.633L484.546 328.951L475.551 323.313L466.536 317.724L457.509 312.186L448.474 306.703L439.437 301.279L430.402 295.915L421.377 290.617L412.366 285.388L403.375 280.23L394.409 275.146L385.474 270.141L376.575 265.218L367.717 260.378L358.906 255.627L350.148 250.966L341.446 246.398L332.808 241.927L324.237 237.556L315.74 233.287L307.32 229.124L298.984 225.068L290.736 221.123L282.58 217.292L274.523 213.576L266.569 209.979L258.722 206.503L250.987 203.15L243.368 199.922L235.871 196.823L228.5 193.853L221.258 191.016L214.151 188.312L207.182 185.745L200.355 183.316L193.674 181.027L187.144 178.879L180.768 176.875L174.55 175.015L168.493 173.301L162.601 171.735L156.878 170.318L151.325 169.051L145.948 167.936L140.748 166.972L135.728 166.162L130.892 165.506L126.243 165.006L121.782 164.66L117.512 164.471L113.436 164.439L109.555 164.564L105.873 164.846L102.39 165.286L99.1095 165.884L96.0322 166.639L93.1599 167.553L90.4943 168.624L88.0365 169.852L85.7879 171.237L83.7495 172.779L81.9223 174.477L80.3071 176.33L78.9045 178.338L77.7153 180.5L76.7397 182.815L75.9782 185.281L75.4308 187.898L75.0977 190.665L74.9787 193.58L75.0736 196.642L75.3821 199.849L75.9036 203.201L76.6376 206.694L77.5833 210.327L78.7399 214.1L80.1063 218.008L81.6814 222.052L83.4641 226.228L85.4528 230.534L87.6461 234.968L90.0425 239.528L92.64 244.211L95.437 249.015L98.4313 253.936L101.621 258.974L105.004 264.123L108.577 269.383L112.339 274.75L116.286 280.22L120.417 285.792L124.727 291.461L129.215 297.225L133.878 303.08L138.712 309.023L143.714 315.051L148.881 321.16L154.209 327.347L159.695 333.608L165.336 339.94L171.128 346.338L177.066 352.8L183.148 359.322L189.369 365.899L195.725 372.529L202.213 379.206L208.827 385.927L215.565 392.689L222.421 399.487L229.391 406.317L236.471 413.175L243.657 420.057L250.943 426.96L258.326 433.878L265.8 440.808L273.361 447.746L281.004 454.687L288.725 461.628L296.519 468.563L304.38 475.49L312.304 482.403L320.286 489.299L328.321 496.173L336.404 503.022L344.53 509.84L352.695 516.624L360.892 523.37L369.118 530.073L377.366 536.73L385.632 543.336L393.911 549.887L402.198 556.38L410.488 562.809L418.776 569.171L427.056 575.463L435.324 581.679L443.574 587.817L451.803 593.872L460.004 599.841L468.172 605.719L476.304 611.504L484.394 617.191L492.436 622.776L500.427 628.256L508.362 633.629L516.236 638.889L524.043 644.034L531.78 649.06L539.442 653.964L547.025 658.743L554.523 663.394L561.933 667.913L569.25 672.298L576.47 676.546L583.588 680.654L590.601 684.618L597.504 688.437L604.294 692.108L610.966 695.628L617.516 698.995L623.942 702.207L630.238 705.26L636.402 708.154L642.43 710.886L648.318 713.454L654.064 715.855L659.663 718.089L665.113 720.154L670.411 722.048L675.554 723.769L680.539 725.317L685.362 726.69L690.022 727.886L694.516 728.905L698.842 729.745L702.997 730.406L706.978 730.888L710.784 731.189L714.413 731.308L717.863 731.246L721.132 731.003L724.219 730.577L727.121 729.969L729.837 729.178L732.367 728.206L734.708 727.052L736.86 725.716L738.822 724.199L740.593 722.502L742.172 720.625L743.559 718.569L744.752 716.335L745.752 713.924L746.559 711.337L747.172 708.575L747.591 705.639L747.816 702.532L747.848 699.254L747.686 695.808L747.332 692.194L746.785 688.416L746.047 684.474L745.118 680.371L743.999 676.109L742.692 671.691L741.196 667.118L739.515 662.394L737.648 657.52L735.597 652.5L733.364 647.337L730.951 642.032L728.359 636.59L725.591 631.012L722.647 625.303L719.531 619.465L716.245 613.502L712.79 607.417L709.17 601.214L705.386 594.896L701.442 588.467L697.34 581.93L693.082 575.29L688.672 568.549L684.113 561.713L679.407 554.784L674.558 547.767L669.569 540.667L664.443 533.486L659.184 526.231L653.794 518.903L648.278 511.509L642.639 504.052L636.881 496.537L631.007 488.969L625.022 481.351L618.928 473.688L612.731 465.985L606.433 458.247L600.039 450.477L593.552 442.682L586.978 434.865L580.32 427.03L573.582 419.184L566.769 411.331L559.884 403.474L552.933 395.62L545.919 387.773L538.847 379.938L531.72 372.118L524.545 364.32L517.324 356.548L510.063 348.807L502.766 341.102L495.437 333.436L488.081 325.816L480.702 318.245L473.305 310.728L465.894 303.271L458.475 295.877L451.05 288.552L443.626 281.299L436.206 274.124L428.795 267.03L421.396 260.023L414.016 253.106L406.658 246.285L399.326 239.563L392.025 232.944L384.759 226.433L377.533 220.034L370.351 213.751L363.217 207.589L356.135 201.55L349.109 195.639L342.144 189.859L335.244 184.215L328.412 178.71L321.653 173.348L314.971 168.132L308.369 163.065L301.851 158.151L295.421 153.393L289.083 148.794L282.841 144.358L276.697 140.087L270.656 135.984L264.72 132.052L258.894 128.293L253.18 124.711L247.582 121.307L242.103 118.084L236.746 115.044L231.513 112.189L226.408 109.522L221.434 107.045L216.593 104.758L211.889 102.664L207.322 100.764L202.897 99.0606L198.614 97.554L194.478 96.2459L190.489 95.1372L186.65 94.2291L182.963 93.5223L179.429 93.0177L176.051 92.7158L172.83 92.6171L169.768 92.7221L166.867 93.0309L164.127 93.5438L161.55 94.2606L159.138 95.1813L156.891 96.3057L154.81 97.6333L152.896 99.1637L151.15 100.896L149.573 102.83L148.166 104.965L146.928 107.299L145.86 109.831L144.963 112.561L144.236 115.486L143.68 118.606L143.294 121.919L143.079 125.422L143.034 129.115L143.159 132.995L143.453 137.06L143.916 141.308L144.547 145.737L145.346 150.343L146.311 155.126L147.442 160.081L148.738 165.207L150.197 170.5L151.818 175.957L153.6 181.575L155.541 187.352L157.641 193.284L159.896 199.367L162.306 205.597L164.869 211.973L167.583 218.488L170.446 225.141L173.455 231.927L176.61 238.842L179.907 245.882L183.344 253.043L186.919 260.321L190.629 267.711L194.472 275.21L198.445 282.812L202.546 290.514L206.771 298.31L211.119 306.197L215.585 314.168L220.168 322.221L224.864 330.349L229.67 338.549L234.582 346.814L239.598 355.141L244.715 363.524L249.929 371.958L255.237 380.438L260.635 388.959L266.12 397.516L271.688 406.104L277.337 414.717L283.062 423.351L288.859 431.999L294.726 440.658L300.658 449.32L306.651 457.982L312.703 466.638L318.809 475.283L324.966 483.911L331.169 492.517L337.414 501.095L343.699 509.642L350.019 518.15L356.371 526.616L362.749 535.033L369.152 543.397L375.573 551.703L382.011 559.944L388.46 568.117L394.918 576.216L401.38 584.236L407.841 592.172L414.3 600.019L420.75 607.772L427.19 615.427L433.614 622.978L440.02 630.421L446.402 637.75L452.759 644.963L459.085 652.053L465.377 659.017L471.632 665.849L477.846 672.547L484.015 679.104L490.135 685.518L496.204 691.784L502.218 697.899L508.172 703.857L514.065 709.655L519.892 715.291L525.65 720.759L531.336 726.056L536.946 731.18L542.478 736.126L547.929 740.891L553.295 745.472L558.574 749.867L563.762 754.072L568.857 758.084L573.855 761.901L578.755 765.521L583.554 768.939L588.248 772.156L592.835 775.167L597.314 777.972L601.681 780.567L605.935 782.952L610.072 785.124L614.091 787.082L617.99 788.825L621.767 790.351L625.42 791.659L628.947 792.748L632.346 793.616L635.616 794.264L638.755 794.69L641.761 794.894L644.633 794.876L647.37 794.635L649.97 794.171L652.433 793.485L654.757 792.575L656.941 791.444L658.984 790.09L660.886 788.515L662.645 786.72L664.262 784.704L665.735 782.47L667.064 780.018L668.248 777.35L669.288 774.466L670.183 771.369L670.933 768.059L671.537 764.54L671.997 760.812L672.311 756.878L672.481 752.74L672.507 748.4L672.388 743.86L672.126 739.124L671.721 734.194L671.173 729.072L670.484 723.761L669.654 718.266L668.684 712.588L667.574 706.731L666.327 700.698L664.944 694.493L663.424 688.12L661.77 681.582L659.984 674.882L658.065 668.026L656.017 661.016L653.84 653.858L651.537 646.555L649.108 639.111L646.556 631.531L643.882 623.82L641.089 615.981L638.179 608.02L635.153 599.942L632.014 591.751L628.763 583.452L625.404 575.05L621.938 566.549L618.368 557.957L614.696 549.276L610.924 540.513L607.056 531.672L603.094 522.76L599.039 513.782L594.896 504.742L590.666 495.646L586.353 486.501L581.959 477.311L577.487 468.082L572.939 458.819L568.32 449.529L563.631 440.216L558.876 430.888L554.057 421.548L549.179 412.204L544.243 402.86L539.252 393.522L534.211 384.197L529.122 374.89L523.988 365.606L518.812 356.351L513.597 347.131L508.348 337.952L503.066 328.819L497.755 319.739L492.418 310.715L487.059 301.755L481.681 292.864L476.286 284.046L470.878 275.309L465.461 266.656L460.037 258.094L454.61 249.628L449.183 241.263L443.759 233.004L438.341 224.856L432.932 216.826L427.536 208.916L422.156 201.134L416.794 193.482L411.454 185.968L406.139 178.594L400.852 171.365L395.596 164.287L390.373 157.364L385.188 150.6L380.042 143.999L374.939 137.566L369.881 131.304L364.872 125.219L359.913 119.312L355.008 113.59L350.16 108.054L345.371 102.709L340.644 97.5577L335.98 92.6041L331.384 87.8512L326.857 83.302L322.401 78.9596L318.019 74.8268L313.714 70.9063L309.487 67.2007L305.342 63.7125L301.279 60.444L297.301 57.3975L293.41 54.575L289.608 51.9784L285.897 49.6096L282.279 47.4702L278.755 45.5617L275.328 43.8856L271.999 42.4429L268.769 41.235L265.641 40.2626L262.615 39.5267L259.693 39.0279L256.877 38.7666L254.167 38.7433L251.566 38.9582L249.073 39.4115L246.69 40.1029L244.419 41.0324L242.26 42.1995L240.213 43.6037L238.28 45.2445L236.462 47.1209L234.759 49.2322L233.172 51.5771L231.701 54.1544L230.346 56.9628L229.109 60.0008L227.989 63.2667L226.987 66.7586L226.103 70.4747L225.336 74.4129L224.688 78.5709L224.157 82.9463L223.745 87.5368L223.45 92.3396L223.272 97.352L223.211 102.571L223.268 107.994L223.44 113.617L223.728 119.438L224.132 125.452L224.65 131.657L225.282 138.048L226.027 144.622L226.885 151.376L227.854 158.304L228.933 165.404L230.122 172.67L231.419 180.098L232.823 187.685L234.333 195.425L235.949 203.313L237.667 211.346L239.488 219.519L241.41 227.826L243.431 236.262L245.549 244.822L247.764 253.502L250.074 262.296L252.476 271.199L254.969 280.205L257.552 289.309L260.223 298.505L262.979 307.788L265.82 317.152L268.742 326.592L271.744 336.102L274.825 345.676L277.981 355.308L281.211 364.992L284.513 374.723L287.884 384.494L291.323 394.3L294.827 404.134L298.395 413.991L302.022 423.865L305.709 433.749L309.451 443.637L313.247 453.524L317.095 463.403L320.992 473.269L324.935 483.114L328.923 492.934L332.952 502.722L337.021 512.472L341.126 522.178L345.266 531.834L349.438 541.435L353.64 550.973L357.868 560.444L362.121 569.841L366.396 579.159L370.69 588.392L375.002 597.534L379.328 606.579L383.665 615.522L388.013 624.358L392.367 633.08L396.726 641.684L401.086 650.163L405.447 658.513L409.804 666.729L414.156 674.805L418.5 682.737L422.835 690.519L427.156 698.146L431.463 705.614L435.752 712.918L440.021 720.053L444.269 727.015L448.492 733.8L452.689 740.403L456.856 746.82L460.993 753.047L465.097 759.08L469.165 764.915L473.195 770.548L477.186 775.977L481.135 781.197L485.041 786.205L488.9 790.998L492.712 795.572L496.474 799.926L500.185 804.055L503.842 807.958L507.443 811.632L510.988 815.074L514.474 818.282L517.899 821.254L521.262 823.988L524.562 826.482L527.796 828.735L530.963 830.745L534.061 832.51L537.09 834.03L540.048 835.303L542.933 836.328L545.744 837.105L548.48 837.633L551.139 837.911L553.721 837.939L556.224 837.717L558.648 837.245L560.991 836.523L563.252 835.551L565.431 834.33L567.527 832.861L569.538 831.143L571.464 829.179L573.304 826.968L575.058 824.513L576.725 821.815L578.304 818.874L579.796 815.694L581.199 812.275L582.513 808.619L583.738 804.73L584.873 800.608L585.919 796.256L586.874 791.677L587.74 786.874L588.515 781.849L589.2 776.606L589.795 771.147L590.3 765.475L590.714 759.594L591.039 753.508L591.274 747.22L591.419 740.734L591.475 734.053L591.443 727.182L591.322 720.125L591.113 712.886L590.817 705.469L590.434 697.879L589.964 690.121L589.409 682.198L588.768 674.117L588.043 665.881L587.235 657.495L586.344 648.966L585.371 640.297L584.317 631.494L583.182 622.563L581.969 613.509L580.677 604.337L579.308 595.053L577.863 585.663L576.344 576.172L574.75 566.586L573.084 556.911L571.346 547.152L569.538 537.317L567.661 527.41L565.716 517.438L563.706 507.406L561.63 497.322L559.491 487.191L557.29 477.019L555.028 466.813L552.707 456.579L550.328 446.323L547.893 436.051L545.404 425.77L542.861 415.486L540.267 405.205L537.624 394.934L534.932 384.678L532.193 374.445L529.41 364.241L526.583 354.071L523.715 343.943L520.806 333.861L517.86 323.833L514.878 313.865L511.86 303.963L508.81 294.133L505.729 284.38L502.618 274.712L499.479 265.134L496.315 255.652L493.126 246.271L489.915 236.999L486.684 227.839L483.434 218.799L480.167 209.883L476.884 201.098L473.589 192.448L470.281 183.939L466.964 175.576L463.639 167.365L460.307 159.311L456.971 151.418L453.632 143.691L450.292 136.136L446.953 128.757L443.616 121.559L440.283 114.546L436.956 107.723L433.636 101.093L430.326 94.6613L427.026 88.4317L423.739 82.4079L420.467 76.5939L417.21 70.9932L413.97 65.6095L410.749 60.446L407.549 55.5061L404.371 50.7929L401.216 46.3093L398.086 42.0583L394.984 38.0425L391.909 34.2644L388.863 30.7266L385.849 27.4312L382.866 24.3803L379.918 21.5761L377.004 19.0202L374.127 16.7143L371.287 14.66L368.486 12.8585L365.725 11.3112L363.006 10.019L360.329 8.98292L357.696 8.20357L355.107 7.68157L352.565 7.41734L350.069 7.41113L347.622 7.66304L345.223 8.17302L342.874 8.94083L340.577 9.96612L338.331 11.2483L336.138 12.7868L333.999 14.5806L331.914 16.6288L329.884 18.9302L327.91 21.4834L325.993 24.2871L324.133 27.3395L322.332 30.6388L320.589 34.1832L318.905 37.9706L317.281 41.9986L315.718 46.2649L314.215 50.7669L312.774 55.5021L311.395 60.4674L310.078 65.6601L308.823 71.0768L307.632 76.7145L306.503 82.5696L305.438 88.6387L304.437 94.9182L303.5 101.404L302.627 108.093L301.818 114.98L301.073 122.061L300.393 129.333L299.778 136.79L299.227 144.429L298.74 152.244L298.318 160.23L297.96 168.384L297.666 176.7L297.437 185.172L297.272 193.796L297.17 202.567L297.132 211.479L297.157 220.527L297.245 229.705L297.396 239.007L297.609 248.428L297.884 257.963L298.221 267.605L298.619 277.348L299.078 287.187L299.597 297.115L300.175 307.126L300.813 317.215L301.51 327.375L302.265 337.6L303.077 347.883L303.946 358.219L304.872 368.601L305.853 379.022L306.889 389.476L307.979 399.957L309.123 410.459L310.32 420.974L311.568 431.497L312.868 442.021L314.218 452.54L315.617 463.046L317.066 473.534L318.562 483.997L320.105 494.429L321.694 504.823L323.329 515.173L325.007 525.473L326.729 535.716L328.493 545.896L330.299 556.006L332.145 566.041L334.03 575.994L335.954 585.859L337.916 595.63L339.913 605.301L341.946 614.866L344.013 624.319L346.114 633.654L348.246 642.866L350.41 651.949L352.603 660.897L354.826 669.705L357.076 678.367L359.353 686.878L361.655 695.233L363.982 703.426L366.332 711.452L368.705 719.307L371.098 726.986L373.512 734.483L375.944 741.795L378.394 748.916L380.86 755.843L383.341 762.571L385.837 769.095L388.346 775.413L390.867 781.519L393.399 787.41L395.94 793.083L398.49 798.533L401.047 803.758L403.61 808.755L406.178 813.519L408.751 818.049L411.326 822.341L413.902 826.393L416.48 830.202L419.056 833.766L421.631 837.082L424.204 840.149L426.772 842.965L429.335 845.527L431.892 847.835L434.442 849.886L436.984 851.68L439.517 853.215L442.039 854.49L444.549 855.505L447.048 856.259L449.532 856.751L452.002 856.981L454.457 856.949L456.895 856.655L459.315 856.099L461.717 855.282L464.1 854.203L466.462 852.863L468.802 851.264L471.12 849.406L473.415 847.29L475.686 844.918L477.931 842.29L480.151 839.41L482.343 836.277L484.508 832.895L486.644 829.265L488.751 825.39L490.827 821.271L492.873 816.912L494.886 812.314L496.867 807.482L498.815 802.417L500.728 797.124L502.606 791.604L504.449 785.862L506.255 779.9L508.024 773.724L509.756 767.335L511.449 760.739L513.103 753.94L514.718 746.941L516.292 739.746L517.825 732.361L519.317 724.79L520.767 717.037L522.174 709.107L523.539 701.005L524.859 692.736L526.136 684.305L527.368 675.717L528.555 666.978L529.696 658.093L530.792 649.066L531.841 639.905L532.844 630.614L533.8 621.199L534.708 611.667L535.568 602.022L536.381 592.27L537.145 582.419L537.86 572.473L538.527 562.439L539.144 552.323L539.712 542.131L540.23 531.87L540.699 521.546L541.118 511.164L541.486 500.732L541.804 490.257L542.072 479.743L542.29 469.198L542.457 458.629L542.573 448.041L542.639 437.442L542.654 426.838L542.618 416.234L542.532 405.639L542.395 395.058L542.207 384.498L541.969 373.965L541.681 363.466L541.342 353.008L540.953 342.596L540.514 332.237L540.025 321.937L539.487 311.704L538.899 301.542L538.261 291.459L537.575 281.46L536.84 271.552L536.056 261.74L535.224 252.031L534.344 242.431L533.416 232.946L532.441 223.581L531.42 214.342L530.351 205.235L529.237 196.266L528.077 187.439L526.871 178.761L525.621 170.237L524.327 161.871L522.988 153.67L521.606 145.637L520.181 137.779L518.714 130.099L517.205 122.603L515.655 115.295L514.065 108.18L512.434 101.261L510.764 94.5442L509.055 88.0323L507.308 81.7297L505.524 75.6403L503.703 69.7678L501.845 64.1158L499.953 58.6877L498.025 53.4868L496.064 48.5164L494.07 43.7794L492.043 39.2788L489.985 35.0173L487.896 30.9974L485.778 27.2217L483.63 23.6925L481.453 20.4118L479.25 17.3817L477.02 14.604L474.764 12.0804L472.483 9.81238L470.179 7.80138L467.851 6.04856L465.502 4.55498L463.132 3.32152L460.741 2.34892L458.332 1.63775L455.904 1.1884L453.459 1.00113L450.998 1.07603L448.522 1.413L446.032 2.01182L443.528 2.87207L441.013 3.9932L438.486 5.37449L435.95 7.01506L433.405 8.91385L430.852 11.0697L428.292 13.4812L425.726 16.1468L423.156 19.065L420.583 22.2337L418.007 25.6512L415.43 29.3152L412.853 33.2234L410.277 37.3734L407.702 41.7627L405.132 46.3884L402.565 51.2477L400.004 56.3377L397.45 61.655L394.904 67.1965L392.366 72.9587L389.839 78.9379L387.323 85.1305L384.819 91.5327L382.329 98.1405L379.853 104.95L377.394 111.956L374.951 119.156L372.526 126.544L370.121 134.116L367.736 141.867L365.372 149.792L363.031 157.887L360.714 166.147L358.422 174.566L356.156 183.139L353.917 191.861L351.706 200.726L349.525 209.73L347.374 218.866L345.254 228.129L343.167 237.513L341.114 247.012L339.095 256.621L337.112 266.334L335.166 276.144L333.258 286.046L331.388 296.033L329.558 306.099L327.77 316.238L326.022 326.444L324.318 336.711L322.657 347.032L321.041 357.401L319.471 367.811L317.947 378.257L316.47 388.731L315.041 399.227L313.662 409.739L312.332 420.261L311.053 430.785L309.826 441.305L308.651 451.816L307.529 462.31L306.461 472.781L305.447 483.223L304.488 493.629L303.586 503.992L302.739 514.307L301.95 524.568L301.219 534.767L300.546 544.898L299.933 554.957L299.378 564.935L298.884 574.827L298.45 584.628L298.077 594.331L297.765 603.929L297.515 613.418L297.327 622.792L297.202 632.044L297.139 641.17L297.14 650.163L297.204 659.018L297.331 667.73L297.523 676.293L297.778 684.702L298.098 692.952L298.482 701.039L298.93 708.956L299.443 716.7L300.021 724.265L300.663 731.647L301.369 738.842L302.14 745.844L302.975 752.651L303.874 759.258L304.837 765.66L305.865 771.854L306.955 777.837L308.11 783.604L309.327 789.152L310.607 794.477L311.949 799.578L313.354 804.45L314.82 809.09L316.347 813.497L317.935 817.666L319.584 821.597L321.291 825.285L323.058 828.73L324.884 831.929L326.767 834.88L328.707 837.582L330.704 840.033L332.756 842.231L334.863 844.176L337.025 845.866L339.239 847.3L341.507 848.478L343.825 849.398L346.194 850.061L348.613 850.466L351.08 850.613L353.595 850.501L356.156 850.132L358.763 849.505L361.414 848.621L364.109 847.481L366.845 846.084L369.622 844.433L372.439 842.529L375.294 840.372L378.187 837.964L381.115 835.307L384.077 832.402L387.073 829.251L390.1 825.857L393.158 822.221L396.244 818.345L399.358 814.233L402.498 809.887L405.663 805.31L408.85 800.504L412.059 795.473L415.287 790.219L418.534 784.747L421.798 779.059L425.077 773.159L428.369 767.051L431.673 760.738L434.987 754.225L438.31 747.516L441.64 740.615L444.975 733.526L448.313 726.253L451.653 718.802L454.992 711.177L458.33 703.382L461.665 695.423L464.994 687.304L468.316 679.031L471.63 670.608L474.933 662.041L478.223 653.335L481.5 644.496L484.76 635.529L488.003 626.439L491.226 617.233L494.428 607.915L497.607 598.493L500.761 588.971L503.888 579.355L506.987 569.652L510.056 559.867L513.093 550.007L516.097 540.077L519.065 530.084L521.996 520.033L524.888 509.932L527.739 499.786L530.549 489.601L533.314 479.384L536.034 469.142L538.706 458.879L541.33 448.603L543.903 438.32L546.424 428.036L548.892 417.758L551.304 407.492L553.659 397.244L555.956 387.021L558.194 376.828L560.37 366.672L562.483 356.559L564.533 346.496L566.517 336.488L568.434 326.542L570.283 316.663L572.062 306.858L573.771 297.133L575.408 287.494L576.972 277.946L578.461 268.495L579.875 259.147L581.213 249.908L582.473 240.783L583.654 231.779L584.756 222.899L585.777 214.151L586.717 205.538L587.574 197.066L588.349 188.741L589.039 180.568L589.645 172.55L590.166 164.694L590.6 157.003L590.948 149.483L591.209 142.139L591.382 134.973L591.467 127.991L591.463 121.197L591.371 114.596L591.189 108.189L590.917 101.983L590.556 95.9803L590.105 90.1844L589.564 84.599L588.932 79.2272L588.21 74.0724L587.398 69.1374L586.496 64.4254L585.504 59.9388L584.421 55.6806L583.25 51.6529L581.988 47.8584L580.638 44.299L579.199 40.9769L577.672 37.8939L576.056 35.0518L574.354 32.4523L572.565 30.0967L570.689 27.9863L568.729 26.1223L566.683 24.5057L564.554 23.1373L562.341 22.0178L560.047 21.1478L557.671 20.5276L555.214 20.1574L552.679 20.0374L550.065 20.1674L547.374 20.5472L544.608 21.1764L541.766 22.0545L538.852 23.1808L535.865 24.5544L532.807 26.1743L529.681 28.0394L526.486 30.1483L523.226 32.4997L519.9 35.0919L516.511 37.9232L513.061 40.9917L509.551 44.2954L505.983 47.832L502.359 51.5993L498.68 55.5948L494.948 59.8158L491.165 64.2598L487.334 68.9237L483.455 73.8046L479.532 78.8993L475.565 84.2046L471.558 89.7171L467.512 95.4332L463.429 101.349L459.312 107.462L455.162 113.767L450.982 120.26L446.775 126.937L442.541 133.795L438.285 140.828L434.007 148.033L429.71 155.404L425.397 162.937L421.07 170.628L416.732 178.471L412.384 186.462L408.03 194.596L403.671 202.867L399.31 211.271L394.95 219.802L390.592 228.454L386.241 237.223L381.897 246.103L377.564 255.089L373.244 264.174L368.939 273.354L364.652 282.622L360.386 291.973L356.143 301.4L351.925 310.9L347.735 320.464L343.576 330.088L339.45 339.765L335.359 349.49L331.306 359.256L327.293 369.057L323.323 378.889L319.399 388.743L315.522 398.615L311.695 408.498L307.92 418.386L304.2 428.274L300.537 438.154L296.934 448.022L293.392 457.87L289.914 467.694L286.503 477.486L283.159 487.242L279.886 496.954L276.686 506.618L273.56 516.227L270.512 525.775L267.542 535.257L264.653 544.667L261.846 553.999L259.125 563.247L256.49 572.406L253.943 581.471L251.486 590.435L249.122 599.295L246.85 608.043L244.675 616.675L242.596 625.185L240.615 633.569L238.734 641.822L236.955 649.938L235.278 657.913L233.705 665.742L232.238 673.42L230.877 680.942L229.624 688.305L228.48 695.504L227.446 702.534L226.522 709.392L225.71 716.073L225.011 722.573L224.425 728.889L223.954 735.016L223.597 740.952L223.356 746.693L223.231 752.235L223.222 757.575L223.33 762.71L223.556 767.637L223.898 772.354L224.359 776.857L224.938 781.144L225.634 785.213L226.449 789.061L227.381 792.686L228.431 796.086L229.599 799.259L230.884 802.204L232.286 804.919L233.804 807.401L235.439 809.651L237.189 811.667L239.054 813.448L241.033 814.992L243.126 816.3L245.331 817.37L247.648 818.203L250.075 818.797L252.612 819.153L255.258 819.271L258.011 819.151L260.871 818.793L263.835 818.197L266.903 817.365L270.073 816.297L273.343 814.993L276.712 813.455L280.179 811.684L283.741 809.681L287.397 807.448L291.146 804.986L294.984 802.298L298.911 799.384L302.923 796.246L307.02 792.888L311.2 789.311L315.459 785.518L319.795 781.51L324.207 777.292L328.692 772.865L333.248 768.232L337.872 763.397L342.562 758.363L347.315 753.132L352.128 747.709L357 742.097L361.927 736.299L366.906 730.319L371.936 724.161L377.012 717.829L382.133 711.327L387.296 704.659L392.497 697.83L397.733 690.843L403.002 683.703L408.301 676.415L413.626 668.983L418.976 661.412L424.345 653.707L429.732 645.872L435.134 637.913L440.547 629.834L445.968 621.64L451.393 613.337L456.821 604.931L462.247 596.425L467.669 587.825L473.082 579.137L478.485 570.366L483.874 561.518L489.245 552.598L494.595 543.612L499.922 534.564L505.221 525.461L510.49 516.309L515.726 507.113L520.925 497.878L526.084 488.611L531.2 479.317L536.271 470.001L541.291 460.67L546.26 451.33L551.173 441.985L556.028 432.642L560.821 423.306L565.549 413.983L570.21 404.679L574.8 395.399L579.317 386.15L583.758 376.936L588.12 367.763L592.399 358.638L596.594 349.564L600.702 340.549L604.719 331.596L608.643 322.713L612.473 313.903L616.204 305.173L619.835 296.527L623.363 287.972L626.785 279.511L630.101 271.15L633.306 262.894L636.399 254.748L639.378 246.717L642.241 238.806L644.986 231.019L647.61 223.36L650.112 215.835L652.49 208.448L654.742 201.203L656.867 194.105L658.862 187.158L660.727 180.365L662.46 173.73L664.059 167.259L665.524 160.954L666.852 154.819L668.043 148.857L669.096 143.073L670.009 137.468L670.782 132.048L671.413 126.814L671.903 121.77L672.25 116.918L672.454 112.262L672.514 107.803L672.429 103.545L672.201 99.49L671.827 95.6397L671.308 91.9965L670.645 88.5624L669.836 85.3392L668.882 82.3287L667.783 79.5325L666.54 76.952L665.152 74.5885L663.621 72.4433L661.946 70.5173L660.128 68.8115L658.169 67.3267L656.068 66.0636L653.827 65.0225L651.447 64.204L648.928 63.6081L646.272 63.2351L643.479 63.0849L640.552 63.1573L637.492 63.452L634.3 63.9685L630.977 64.7063L627.526 65.6647L623.947 66.8427L620.244 68.2394L616.417 69.8538L612.468 71.6844L608.401 73.73L604.216 75.9891L599.916 78.4599L595.503 81.1408L590.98 84.0298L586.348 87.1249L581.611 90.424L576.771 93.9248L571.831 97.6249L566.793 101.522L561.66 105.613L556.434 109.895L551.12 114.367L545.719 119.023L540.235 123.863L534.67 128.881L529.028 134.076L523.313 139.443L517.526 144.98L511.672 150.682L505.754 156.546L499.775 162.569L493.739 168.745L487.648 175.072L481.508 181.545L475.32 188.16L469.089 194.913L462.819 201.799L456.512 208.815L450.173 215.956L443.805 223.217L437.413 230.593L430.999 238.081L424.568 245.674L418.124 253.37L411.67 261.162L405.209 269.046L398.747 277.016L392.287 285.069L385.832 293.199L379.387 301.4L372.955 309.668L366.541 317.998L360.148 326.385L353.78 334.822L347.441 343.306L341.135 351.83L334.865 360.391L328.636 368.981L322.452 377.597L316.316 386.232L310.231 394.882L304.203 403.541L298.234 412.204L292.328 420.865L286.489 429.52L280.721 438.163L275.027 446.789L269.41 455.393L263.875 463.968L258.425 472.511L253.064 481.017L247.794 489.479L242.619 497.892L237.543 506.253L232.568 514.555L227.699 522.795L222.937 530.966L218.287 539.064L213.752 547.084L209.333 555.022L205.035 562.872L200.86 570.63L196.811 578.292L192.89 585.852L189.101 593.307L185.446 600.653L181.927 607.883L178.547 614.995L175.308 621.985L172.212 628.848L169.262 635.58L166.46 642.178L163.807 648.637L161.306 654.953L158.959 661.125L156.766 667.146L154.731 673.015L152.855 678.728L151.138 684.281L149.583 689.672L148.19 694.897L146.962 699.953L145.898 704.838L145 709.55L144.27 714.084L143.707 718.439L143.313 722.613L143.087 726.603L143.032 730.407L143.146 734.023L143.43 737.449L143.886 740.683L144.511 743.724L145.308 746.57L146.274 749.219L147.412 751.671L148.719 753.924L150.195 755.977L151.841 757.829L153.655 759.479L155.637 760.927L157.786 762.172L160.101 763.214L162.58 764.051L165.224 764.685L168.029 765.115L170.996 765.34L174.123 765.362L177.408 765.181L180.85 764.796L184.446 764.209L188.195 763.42L192.096 762.43L196.145 761.24L200.341 759.851L204.682 758.264L209.165 756.481L213.788 754.502L218.549 752.329L223.445 749.964L228.472 747.409L233.629 744.665L238.913 741.735L244.32 738.621L249.848 735.324L255.494 731.847L261.254 728.192L267.125 724.363L273.104 720.36L279.187 716.189L285.372 711.85L291.654 707.347L298.029 702.683L304.495 697.861L311.048 692.885L317.683 687.757L324.397 682.48L331.186 677.059L338.047 671.497L344.974 665.798L351.964 659.964L359.013 654.001L366.117 647.911L373.271 641.699L380.472 635.368L387.715 628.923L394.995 622.368L402.309 615.707L409.652 608.943L417.02 602.083L424.408 595.129L431.812 588.086L439.228 580.958L446.65 573.751L454.075 566.468L461.498 559.114L468.914 551.694L476.32 544.212L483.71 536.672L491.08 529.081L498.426 521.442L505.742 513.759L513.025 506.038L520.271 498.284L527.473 490.501L534.629 482.694L541.734 474.868L548.783 467.027L555.772 459.176L562.697 451.32L569.553 443.465L576.336 435.614L583.042 427.772L589.667 419.944L596.205 412.135L602.655 404.35L609.01 396.592L615.268 388.868L621.423 381.181L627.473 373.536L633.414 365.937L639.241 358.39L644.951 350.898L650.54 343.466L656.005 336.099L661.342 328.8L666.547 321.574L671.618 314.426L676.55 307.359L681.341 300.378L685.988 293.486L690.487 286.689L694.835 279.988L699.03 273.389L703.068 266.896L706.947 260.512L710.665 254.24L714.218 248.085L717.604 242.049L720.821 236.137L723.867 230.351L726.74 224.695L729.436 219.172L731.956 213.785L734.296 208.538L736.454 203.432L738.43 198.472L740.222 193.659L741.828 188.996L743.247 184.486L744.478 180.131L745.519 175.934L746.371 171.896L747.031 168.02L747.499 164.309L747.775 160.763L747.858 157.385L747.748 154.177L747.443 151.139L746.946 148.274L746.254 145.583L745.368 143.068L744.289 140.729L743.017 138.567L741.552 136.584L739.895 134.78L738.046 133.156L736.007 131.713L733.777 130.451L731.359 129.371L728.753 128.473L725.961 127.757L722.984 127.223L719.823 126.871L716.48 126.702L712.957 126.714L709.255 126.907L705.377 127.282L701.325 127.836L697.1 128.571L692.706 129.484L688.144 130.575L683.417 131.843L678.527 133.287L673.478 134.906L668.272 136.698L662.912 138.661L657.4 140.795L651.741 143.098L645.937 145.568L639.991 148.202L633.907 151L627.689 153.959L621.34 157.078L614.863 160.353L608.262 163.782L601.542 167.364L594.706 171.096L587.757 174.974L580.701 178.998L573.541 183.163L566.281 187.467L558.926 191.907L551.479 196.48L543.946 201.183L536.331 206.014L528.637 210.968L520.871 216.043L513.036 221.235L505.137 226.542L497.179 231.958L489.166 237.482L481.104 243.109L472.996 248.836L464.849 254.659L456.667 260.575L448.454 266.579L440.216 272.668L431.958 278.839L423.684 285.086L415.4 291.407L407.111 297.797L398.822 304.253L390.538 310.77L382.263 317.344L374.003 323.971L365.764 330.647L357.549 337.368L349.365 344.13L341.215 350.929L333.106 357.76L325.042 364.619L317.028 371.503L309.069 378.406L301.17 385.326L293.336 392.256L285.571 399.194L277.881 406.136L270.271 413.076L262.745 420.011L255.307 426.937L247.963 433.849L240.717 440.744L233.574 447.617L226.538 454.464L219.614 461.282L212.806 468.065L206.118 474.811L199.555 481.515L193.12 488.173L186.818 494.781L180.654 501.337L174.63 507.834L168.751 514.271L163.02 520.643L157.442 526.946L152.019 533.178L146.756 539.333L141.656 545.41L136.722 551.403L131.958 557.311L127.366 563.13L122.95 568.855L118.712 574.485L114.656 580.016L110.784 585.444L107.098 590.768L103.602 595.983L100.298 601.087L97.1878 606.078L94.2737 610.952L91.5578 615.707L89.042 620.34L86.7281 624.849L84.6179 629.231L82.713 633.484L81.0147 637.606L79.5244 641.595L78.2434 645.449L77.1726 649.165L76.313 652.741L75.6655 656.177L75.2307 659.47L75.0092 662.618L75.0013 665.62L75.2076 668.475L75.628 671.181L76.2626 673.737L77.1113 676.142L78.174 678.394L79.4501 680.493L80.9394 682.438L82.641 684.228L84.5544 685.863L86.6785 687.341L89.0125 688.662L91.5551 689.827L94.3051 690.833L97.261 691.682L100.421 692.374L103.785 692.907L107.349 693.283L111.112 693.501L115.073 693.562L119.228 693.466L123.576 693.213L128.114 692.804L132.84 692.24L137.751 691.521L142.844 690.649L148.117 689.623L153.566 688.446L159.189 687.118L164.981 685.64L170.941 684.014L177.064 682.24L183.347 680.321L189.786 678.258L196.378 676.053L203.118 673.706L210.003 671.221L217.029 668.598L224.192 665.84L231.487 662.948L238.91 659.925L246.457 656.773L254.124 653.495L261.905 650.091L269.796 646.565L277.793 642.92L285.891 639.156L294.085 635.278L302.369 631.288L310.74 627.188L319.192 622.981L327.72 618.671L336.319 614.258L344.984 609.748L353.709 605.142L362.489 600.444L371.32 595.656L380.195 590.782L389.109 585.825L398.058 580.787L407.035 575.673L416.035 570.486L425.052 565.228L434.082 559.903L443.118 554.514L452.155 549.065L461.188 543.559L470.21 538L479.217 532.391L488.203 526.735L497.163 521.036L506.09 515.298L514.98 509.523L523.827 503.716L532.625 497.88L541.37 492.019L550.055 486.135L558.675 480.233L567.225 474.317L575.7 468.389L584.094 462.453L592.403 456.513L600.62 450.573L608.741 444.635L616.761 438.703L624.674 432.782L632.477 426.874L640.163 420.982L647.728 415.111L655.167 409.263L662.476 403.443L669.65 397.653L676.685 391.896L683.575 386.177L690.317 380.498L696.906 374.863L703.338 369.274L709.609 363.735L715.715 358.25L721.653 352.82L727.417 347.45L733.005 342.142L738.413 336.899L743.637 331.724L748.674 326.62L753.521 321.59L758.174 316.637L762.631 311.762L766.888 306.97L770.943 302.261L774.793 297.64L778.435 293.109L781.868 288.669L785.088 284.323L788.093 280.074L790.882 275.923L793.452 271.874L795.801 267.927L797.929 264.085L799.833 260.351L801.512 256.725L802.965 253.209L804.19 249.806L805.187 246.517L805.955 243.344L806.492 240.288L806.799 237.35L806.876 234.533L806.72 231.836L806.334 229.262L805.716 226.812L804.867 224.487L803.787 222.287L802.476 220.213L800.935 218.268L799.165 216.45L797.167 214.761L794.941 213.202L792.488 211.772L789.811 210.473L786.91 209.305L783.787 208.268L780.443 207.362L776.881 206.588L773.102 205.945L769.108 205.433L764.903 205.053L760.487 204.804L755.864 204.686L751.036 204.698L746.006 204.84L740.776 205.112L735.351 205.514L729.732 206.043L723.924 206.7L717.928 207.484L711.751 208.395L705.393 209.43L698.86 210.589L692.155 211.872L685.283 213.276L678.246 214.802L671.05 216.446L663.698 218.209L656.196 220.089L648.546 222.083L640.754 224.192L632.825 226.412L624.764 228.743L616.574 231.183L608.261 233.729L599.831 236.381L591.287 239.136L582.635 241.992L573.881 244.948L565.029 248.001L556.085 251.149L547.054 254.39L537.943 257.722L528.755 261.142L519.497 264.649L510.175 268.24L500.794 271.912L491.359 275.664L481.877 279.493L472.353 283.395L462.794 287.37L453.204 291.414L443.59 295.524L433.957 299.699L424.312 303.935L414.661 308.23L405.008 312.581L395.361 316.985L385.725 321.44L376.106 325.943L366.51 330.491L356.943 335.081L347.41 339.711L337.918 344.378L328.473 349.078L319.08 353.81L309.744 358.569L300.473 363.355L291.271 368.162L282.145 372.99L273.099 377.834L264.141 382.692L255.274 387.561L246.505 392.438L237.838 397.321L229.281 402.207L220.837 407.092L212.512 411.974L204.312 416.85L196.241 421.718L188.305 426.574L180.508 431.416L172.855 436.241L165.352 441.046L158.002 445.829L150.811 450.587L143.783 455.317L136.923 460.017L130.234 464.685L123.722 469.316L117.39 473.91L111.242 478.463L105.282 482.974L99.5143 487.439L93.9422 491.856L88.5695 496.223L83.3994 500.537L78.4354 504.797L73.6806 509L69.1382 513.143L64.8111 517.226L60.7021 521.244L56.8139 525.198L53.1491 529.083L49.7101 532.899L46.4992 536.644L43.5185 540.315L40.7701 543.911L38.2558 547.43L35.9773 550.871L33.9362 554.231L32.134 557.509L30.572 560.704L29.2512 563.813L28.1727 566.836L27.3373 569.771L26.7458 572.617L26.3987 575.373L26.2963 578.036L26.439 580.607L26.8268 583.083L27.4596 585.464L28.3374 587.75L29.4596 589.938L30.8259 592.028L32.4355 594.02L34.2877 595.911L36.3815 597.703L38.7158 599.394L41.2893 600.984L44.1006 602.471L47.1482 603.856L50.4304 605.139L53.9454 606.318L57.6911 607.394L61.6655 608.366L65.8662 609.235L70.2908 609.999L74.9369 610.66L79.8016 611.217L84.8822 611.67L90.1758 612.019L95.6791 612.265L101.389 612.408L107.302 612.448L113.415 612.386L119.724 612.222L126.226 611.956L132.916 611.589L139.79 611.121L146.846 610.554L154.077 609.888L161.48 609.124L169.051 608.262L176.785 607.303L184.677 606.249L192.723 605.101L200.918 603.858L209.257 602.523L217.735 601.097L226.346 599.58L235.086 597.974L243.949 596.28L252.93 594.5L262.024 592.634L271.225 590.684L280.527 588.653L289.925 586.54L299.413 584.347L308.985 582.077L318.636 579.731L328.359 577.309L338.15 574.815L348.001 572.249L357.906 569.614L367.861 566.911L377.858 564.141L387.891 561.308L397.955 558.411L408.044 555.454L418.15 552.439L428.268 549.366L438.392 546.239L448.515 543.059L458.632 539.827L468.735 536.547L478.819 533.22L488.878 529.848L498.906 526.433L508.895 522.977L518.841 519.482L528.737 515.951L538.577 512.385L548.354 508.787L558.063 505.159L567.698 501.502L577.253 497.819L586.722 494.112L596.098 490.383L605.377 486.635L614.553 482.869L623.619 479.088L632.57 475.293L641.401 471.488L650.106 467.673L658.68 463.851L667.117 460.025L675.412 456.196L683.561 452.367L691.556 448.539L699.395 444.714L707.072 440.895L714.582 437.084L721.92 433.283L729.082 429.494L736.063 425.718L742.86 421.958L749.467 418.216L755.881 414.494L762.096 410.793L768.111 407.116L773.92 403.464L779.521 399.84L784.909 396.245L790.081 392.681L795.034 389.149L799.764 385.652L804.269 382.192L808.546 378.769L812.592 375.386L816.404 372.044L819.98 368.745L823.318 365.491L826.415 362.283L829.27 359.122L831.88 356.01L834.244 352.949L836.36 349.94L838.227 346.984L839.843 344.083L841.208 341.238L842.32 338.45L843.179 335.72L843.784 333.05L844.135 330.441L844.23 327.894L844.071 325.41L843.656 322.989L842.986 320.634L842.062 318.345L840.883 316.123L839.451 313.969L837.767 311.884L835.83 309.867L833.642 307.922L831.204 306.047L828.519 304.243L825.586 302.512L822.409 300.854L818.988 299.269L815.326 297.758L811.425 296.321L807.287 294.959L802.915 293.672L798.311 292.461L793.477 291.325L788.418 290.266L783.135 289.283L777.633 288.376L771.913 287.545L765.98 286.792L759.838 286.115L753.489 285.514L746.937 284.991L740.188 284.544L733.244 284.173L726.11 283.879L718.79 283.66L711.288 283.518L703.61 283.451L695.759 283.46L687.741 283.544L679.56 283.702L671.221 283.934L662.73 284.24L654.091 284.62L645.31 285.072L636.391 285.596L627.342 286.191L618.166 286.858L608.87 287.595L599.459 288.401L589.939 289.277L580.316 290.22L570.595 291.23L560.783 292.308L550.886 293.45L540.909 294.658L530.859 295.929L520.741 297.263L510.563 298.659L500.33 300.116L490.048 301.633L479.725 303.209L469.365 304.843L458.976 306.533L448.564 308.28L438.134 310.08L427.695 311.934L417.252 313.841L406.811 315.798L396.379 317.805L385.962 319.86L375.567 321.963L365.2 324.112L354.867 326.306L344.576 328.543L334.331 330.823L324.14 333.143L314.008 335.503L303.943 337.901L293.95 340.336L284.035 342.806L274.205 345.311L264.465 347.848L254.821 350.416L245.281 353.014L235.848 355.641L226.53 358.295L217.332 360.974L208.259 363.678L199.318 366.404L190.514 369.152L181.852 371.92L173.337 374.706L164.976 377.509L156.772 380.327L148.732 383.16L140.86 386.006L133.161 388.863L125.64 391.73L118.301 394.605L111.15 397.487L104.19 400.375L97.4258 403.267L90.8618 406.161L84.5021 409.057L78.3504 411.953L72.4108 414.848L66.6869 417.739L61.1822 420.627L55.9003 423.509L50.8444 426.384L46.0177 429.251L41.4232 432.108L37.0639 434.954L32.9424 437.789L29.0614 440.609L25.4233 443.415L22.0304 446.205L18.8849 448.978L15.9887 451.732L13.3437 454.467L10.9516 457.18L8.81399 459.872L6.93215 462.54L5.30735 465.184L3.94066 467.802L2.83296 470.394L1.98501 472.957L1.39739 475.492L1.07054 477.997L1.0047 480.471L1.2 482.913L1.65636 485.322L2.37359 487.697L3.35128 490.038L4.58892 492.342L6.08579 494.609L7.84104 496.839L9.85364 499.03L12.1224 501.182L14.6461 503.293L17.4231 505.364L20.4517 507.392L23.7303 509.378L27.2569 511.321L31.0292 513.219L35.0451 515.073L39.3022 516.881L43.7978 518.644L48.5293 520.359L53.4938 522.027L58.6883 523.647L64.1097 525.219L69.7547 526.742L75.6198 528.215L81.7015 529.638L87.9961 531.011L94.4998 532.333L101.209 533.604L108.118 534.823L115.225 535.99L122.524 537.104L130.012 538.166L137.682 539.175L145.532 540.131L153.555 541.033L161.748 541.881L170.105 542.676L178.62 543.416L187.29 544.102L196.108 544.734L205.069 545.311L214.168 545.834L223.399 546.302L232.756 546.716L242.234 547.075L251.826 547.379L261.528 547.628L271.333 547.824L281.235 547.964L291.228 548.05L301.305 548.082L311.462 548.06L321.69 547.984L331.985 547.854L342.34 547.671L352.748 547.434L363.204 547.144L373.7 546.802L384.23 546.407L394.788 545.959L405.368 545.46L415.962 544.909L426.564 544.307L437.168 543.655L447.768 542.952L458.356 542.199L468.927 541.396L479.473 540.544L489.988 539.644L500.467 538.696L510.901 537.7L521.286 536.657L531.614 535.568L541.879 534.433L552.076 533.252L562.196 532.026L572.236 530.757L582.187 529.444L592.045 528.088L601.802 526.689L611.454 525.249L620.993 523.768L630.415 522.247L639.713 520.687L648.882 519.088L657.916 517.45L666.81 515.776L675.557 514.064L684.153 512.317L692.593 510.536L700.87 508.719L708.981 506.87L716.919 504.988L724.681 503.074L732.261 501.129L739.655 499.154L746.858 497.15L753.866 495.118L760.674 493.058L767.278 490.972L773.675 488.86L779.859 486.723L785.828 484.562L791.578 482.378L797.105 480.173L802.405 477.946L807.476 475.699L812.315 473.432L816.917 471.148L821.282 468.845L825.405 466.527L829.285 464.193L832.918 461.845L836.303 459.483L839.438 457.109L842.32 454.723L844.949 452.327L847.321 449.921L849.437 447.506L851.294 445.084L852.891 442.655L854.227 440.221L855.303 437.782L856.116 435.34L856.666 432.895L856.954 430.448L856.978 428.001L856.739 425.554L856.238 423.108L855.473 420.665L854.446 418.226L853.158 415.79L851.609 413.361L849.8 410.937L847.733 408.521L845.408 406.114L842.827 403.715L839.991 401.328L836.903 398.951L833.564 396.587L829.977 394.236L826.143 391.899L822.064 389.578L817.744 387.273L813.185 384.985L808.39 382.715L803.362 380.464L798.104 378.234L792.619 376.024L786.91 373.836L780.982 371.671L774.837 369.53L768.479 367.413L761.913 365.322L755.143 363.257L748.171 361.219L741.004 359.21L733.646 357.23L726.1 355.279L718.371 353.36L710.465 351.472L702.386 349.616L694.139 347.794L685.729 346.005L677.162 344.252L668.442 342.534L659.575 340.852L650.567 339.208L641.422 337.602L632.148 336.034L622.748 334.506L613.23 333.017L603.599 331.57L593.86 330.164L584.021 328.8L574.086 327.478L564.063 326.201L553.957 324.967L543.774 323.778L533.521 322.634L523.204 321.536L512.83 320.485L502.404 319.48L491.933 318.523L481.424 317.614L470.883 316.753L460.316 315.942L449.731 315.179L439.133 314.467L428.529 313.805L417.926 313.194L407.33 312.633L396.747 312.124L386.185 311.667L375.649 311.263L365.146 310.91L354.683 310.611L344.265 310.364L333.9 310.171L323.593 310.031L313.352 309.945L303.182 309.913L293.089 309.935L283.08 310.011L273.161 310.141L263.338 310.326L253.616 310.566L244.003 310.86L234.503 311.209L225.123 311.612L215.868 312.07L206.745 312.583L197.758 313.15L188.913 313.772L180.215 314.448L171.671 315.178L163.284 315.963L155.061 316.801L147.006 317.693L139.123 318.639L131.419 319.638L123.898 320.69L116.563 321.795L109.421 322.952L102.474 324.161L95.7276 325.423L89.1856 326.735L82.852 328.099L76.7305 329.512L70.825 330.977L65.139 332.49L59.6759 334.053L54.4391 335.664L49.4318 337.323L44.6569 339.03L40.1173 340.784L35.8158 342.583L31.7551 344.429L27.9374 346.319L24.3652 348.254L21.0405 350.232L17.9653 352.252L15.1416 354.315L12.5709 356.419L10.2548 358.563L8.19459 360.747L6.39158 362.97L4.84676 365.23L3.56103 367.528L2.53511 369.861L1.76959 372.23L1.26486 374.633L1.02118 377.069L1.03863 379.537L1.31713 382.036L1.85645 384.566L2.6562 387.124L3.71582 389.711L5.03458 392.324L6.61164 394.963L8.44592 397.627L10.5363 400.314L12.8813 403.024L15.4795 405.754L18.3293 408.505L21.4288 411.275L24.776 414.061L28.3688 416.865L32.205 419.683L36.2821 422.515L40.5976 425.359L45.1487 428.214L49.9326 431.079L54.9462 433.953L60.1865 436.834L65.6501 439.72L71.3337 442.611L77.2337 445.505L83.3463 448.401L89.6678 451.297L96.1942 454.192L102.922 457.085L109.845 459.974L116.962 462.857L124.266 465.733L131.754 468.602L139.42 471.461L147.26 474.308L155.27 477.144L163.443 479.965L171.776 482.771L180.263 485.561L188.898 488.332L197.676 491.083L206.592 493.814L215.641 496.522L224.816 499.206L234.113 501.864L243.524 504.496L253.046 507.1L262.67 509.674L272.393 512.217L282.207 514.727L292.106 517.204L302.086 519.646L312.138 522.05L322.258 524.417L332.438 526.745L342.673 529.032L352.957 531.278L363.282 533.48L373.643 535.637L384.034 537.749L394.447 539.813L404.877 541.829L415.317 543.796L425.76 545.712L436.201 547.575L446.632 549.386L457.048 551.142L467.442 552.843L477.808 554.488L488.138 556.074L498.428 557.602L508.671 559.071L518.86 560.478L528.989 561.824L539.052 563.107L549.043 564.326L558.956 565.481L568.784 566.57L578.522 567.593L588.163 568.549L597.703 569.437L607.135 570.256L616.452 571.006L625.651 571.685L634.724 572.294L643.667 572.832L652.474 573.297L661.14 573.69L669.659 574.01L678.026 574.256L686.237 574.428L694.286 574.525L702.168 574.548L709.878 574.495L717.413 574.367L724.767 574.163L731.936 573.882L738.916 573.526L745.701 573.093L752.29 572.584L758.676 571.997L764.858 571.335L770.83 570.595L776.589 569.779L782.132 568.886L787.456 567.917L792.557 566.872L797.432 565.75L802.079 564.553L806.494 563.28L810.676 561.932L814.621 560.509L818.328 559.012L821.793 557.44L825.016 555.796L827.994 554.078L830.725 552.288L833.209 550.426L835.443 548.494L837.427 546.49L839.158 544.418L840.637 542.276L841.863 540.066L842.834 537.79L843.551 535.447L844.013 533.039L844.22 530.567L844.171 528.031L843.868 525.433L843.311 522.774L842.499 520.056L841.433 517.279L840.115 514.444L838.545 511.553L836.725 508.607L834.655 505.607L832.337 502.556L829.772 499.453L826.963 496.302L823.91 493.102L820.617 489.856L817.085 486.566L813.316 483.232L809.313 479.856L805.079 476.441L800.616 472.987L795.927 469.497L791.015 465.971L785.884 462.413L780.535 458.824L774.974 455.205L769.203 451.558L763.226 447.885L757.047 444.189L750.67 440.47L744.099 436.732L737.337 432.975L730.389 429.202L723.261 425.415L715.955 421.616L708.476 417.807L700.83 413.989L693.021 410.166L685.054 406.338L676.933 402.509L668.665 398.679L660.254 394.852L651.705 391.03L643.024 387.214L634.216 383.406L625.287 379.609L616.241 375.825L607.086 372.057L597.825 368.305L588.466 364.572L579.014 360.861L569.475 357.174L559.855 353.512L550.159 349.878L540.393 346.274L530.565 342.702L520.679 339.164L510.742 335.663L500.76 332.2L490.739 328.777L480.685 325.397L470.605 322.061L460.505 318.772L450.39 315.531L440.268 312.341L430.144 309.204L420.024 306.121L409.915 303.095L399.823 300.127L389.754 297.22L379.715 294.374L369.71 291.593L359.747 288.877L349.832 286.229L339.971 283.65L330.169 281.142L320.432 278.708L310.768 276.347L301.18 274.063L291.676 271.856L282.261 269.728L272.941 267.681L263.721 265.716L254.607 263.835L245.605 262.039L236.719 260.329L227.956 258.706L219.32 257.173L210.818 255.729L202.453 254.377L194.231 253.118L186.157 251.951L178.236 250.88L170.472 249.904L162.871 249.024L155.436 248.241L148.172 247.557L141.084 246.971L134.176 246.486L127.451 246.1L120.915 245.815L114.57 245.632L108.42 245.551L102.47 245.572L96.7217 245.695L91.1799 245.922L85.8472 246.253L80.7269 246.687L75.8219 247.224L71.1351 247.866L66.6693 248.611L62.4269 249.46L58.4104 250.413L54.6221 251.47L51.0643 252.63L47.7388 253.893L44.6476 255.259L41.7923 256.728L39.1746 258.299L36.7959 259.971L34.6575 261.744L32.7605 263.617L31.1058 265.591L29.6944 267.663L28.5269 269.833L27.6038 272.1L26.9256 274.464L26.4923 276.922L26.3043 279.476L26.3612 282.122L26.663 284.86L27.2093 287.69L27.9995 290.608L29.033 293.615L30.309 296.709L31.8264 299.888L33.5842 303.15L35.5811 306.495L37.8157 309.921L40.2864 313.426L42.9916 317.008L45.9294 320.665L49.0978 324.397L52.4947 328.199L56.1178 332.072L59.9648 336.013L64.0331 340.02L68.32 344.091L72.8227 348.223L77.5384 352.415L82.4639 356.664L87.596 360.969L92.9315 365.326L98.4669 369.734L104.199 374.191L110.123 378.693L116.236 383.238L122.535 387.825L129.014 392.449L135.67 397.11L142.499 401.804L149.496 406.529L156.658 411.282L163.978 416.061L171.453 420.862L179.079 425.684L186.849 430.523L194.76 435.377L202.807 440.242L210.983 445.117L219.285 449.998L227.707 454.883L236.244 459.769L244.891 464.652L253.641 469.531L262.49 474.402L271.433 479.262L280.462 484.109L289.574 488.94L298.763 493.751L308.021 498.541L317.345 503.305L326.728 508.042L336.164 512.749L345.648 517.422L355.173 522.059L364.735 526.657L374.326 531.213L383.941 535.724L393.574 540.188L403.22 544.602L412.872 548.963L422.524 553.268L432.171 557.516L441.806 561.702L451.424 565.824L461.019 569.881L470.584 573.869L480.115 577.785L489.605 581.627L499.049 585.393L508.441 589.081L517.774 592.687L527.045 596.21L536.246 599.646L545.372 602.995L554.418 606.253L563.378 609.418L572.248 612.489L581.02 615.463L589.691 618.338L598.256 621.111L606.708 623.783L615.043 626.349L623.256 628.808L631.341 631.159L639.295 633.401L647.113 635.53L654.789 637.546L662.319 639.447L669.699 641.231L676.925 642.898L683.991 644.445L690.894 645.872L697.631 647.177L704.196 648.36L710.586 649.418L716.797 650.352L722.827 651.159L728.67 651.84L734.324 652.393L739.786 652.818L745.051 653.114L750.119 653.28L754.984 653.317L759.646 653.223L764.1 652.998L768.345 652.642L772.378 652.155L776.197 651.536L779.799 650.786L783.184 649.905L786.348 648.892L789.29 647.748L792.009 646.473L794.503 645.068L796.771 643.533L798.812 641.868L800.624 640.074L802.208 638.152L803.561 636.102L804.684 633.926L805.576 631.623L806.237 629.196L806.666 626.645L806.864 623.971L806.831 621.176L806.567 618.261L806.072 615.226L805.346 612.074L804.392 608.807L803.209 605.425L801.798 601.93L800.161 598.325L798.299 594.61L796.212 590.788L793.904 586.861L791.374 582.83L788.626 578.698L785.661 574.467L782.48 570.139L779.087 565.716L775.484 561.201L771.672 556.597L767.655 551.904L763.435 547.127L759.015 542.268L754.398 537.329L749.587 532.313L744.585 527.222L739.395 522.06L734.021 516.83L728.466 511.534L722.734 506.175L716.828 500.756L710.753 495.28L704.512 489.751L698.11 484.172L691.549 478.545L684.835 472.874L677.972 467.161L670.964 461.412L663.816 455.627L656.532 449.812L649.116 443.97L641.574 438.103L633.91 432.215L626.129 426.309L618.235 420.39L610.235 414.46L602.132 408.523L593.932 402.583L585.641 396.643L577.262 390.706L568.802 384.776L560.265 378.857L551.657 372.952L542.984 367.065L534.25 361.199L525.461 355.358L516.623 349.546L507.741 343.765L498.82 338.019L489.866 332.313L480.884 326.649L471.881 321.031L462.86 315.462L453.829 309.946L444.792 304.486L435.756 299.086L426.725 293.749L417.705 288.479L408.701 283.278L399.719 278.15L390.765 273.098L381.844 268.126L372.961 263.236L364.122 258.432L355.332 253.717L346.596 249.094L337.92 244.565L329.308 240.135L320.767 235.805L312.3 231.579L303.914 227.459L295.613 223.448L287.402 219.549L279.286 215.764L271.27 212.096L263.359 208.548L255.557 205.122L247.869 201.82L240.3 198.644L232.853 195.597L225.534 192.681L218.346 189.898L211.295 187.25L204.383 184.739L197.616 182.367L190.996 180.135L184.528 178.045L178.216 176.099L172.063 174.299L166.073 172.645L160.249 171.14L154.595 169.784L149.113 168.578L143.808 167.525L138.681 166.624L133.736 165.876L128.976 165.284L124.402 164.846L120.019 164.564L115.828 164.439L111.831 164.471L108.031 164.66L104.43 165.006L101.029 165.511L97.8313 166.173L94.8373 166.992L92.0491 167.97L89.4679 169.105L87.0953 170.397L84.9321 171.847L82.9796 173.452L81.2387 175.213L79.71 177.13L78.3943 179.2L77.2921 181.424L76.4037 183.801L75.7294 186.329L75.2693 189.007L75.0234 191.835L74.9916 194.81L75.1735 197.931L75.5688 201.197L76.177 204.606L76.9973 208.157L78.029 211.847L79.2712 215.675L80.7228 219.639L82.3826 223.737L84.2494 227.966L86.3217 232.325L88.5979 236.81L91.0764 241.421L93.7554 246.153L96.633 251.005L99.7071 255.974L102.976 261.058L106.436 266.253L110.087 271.556L113.924 276.966L117.947 282.478L122.151 288.089L126.534 293.797L131.094 299.599L135.827 305.49L140.729 311.468L145.799 317.53L151.032 323.671L156.425 329.889L161.975 336.179L167.677 342.538L173.529 348.963L179.527 355.45L185.666 361.995L191.942 368.594L198.352 375.243L204.892 381.939L211.557 388.677L218.344 395.454L225.247 402.265L232.262 409.107L239.386 415.976L246.613 422.867L253.939 429.776L261.36 436.7L268.87 443.634L276.465 450.573L284.14 457.515L291.891 464.454L299.713 471.386L307.6 478.308L315.549 485.214L323.553 492.102L331.608 498.966L339.709 505.803L347.852 512.608L356.03 519.377L364.24 526.106L372.475 532.791L380.731 539.427L389.003 546.012L397.286 552.539L405.575 559.006L413.865 565.409L422.15 571.743L430.426 578.004L438.687 584.189L446.929 590.294L455.147 596.314L463.335 602.247L471.49 608.087L479.605 613.832L487.676 619.478L495.698 625.021L503.667 630.458L511.577 635.785L519.424 640.999L527.204 646.096L534.911 651.072L542.541 655.926L550.09 660.653L557.552 665.251L564.925 669.716L572.203 674.045L579.382 678.236L586.458 682.286L593.426 686.192L600.284 689.951L607.026 693.561L613.649 697.019L620.149 700.322L626.522 703.47L632.765 706.459L638.874 709.287L644.846 711.952L650.676 714.452L656.362 716.786L661.902 718.951L667.29 720.946L672.525 722.77L677.604 724.421L682.523 725.897L687.28 727.198L691.873 728.322L696.299 729.269L700.555 730.036L704.639 730.624L708.55 731.032L712.284 731.259L715.84 731.305L719.217 731.169L722.412 730.851L725.423 730.351L728.25 729.669L730.89 728.804L733.343 727.758L735.608 726.53L737.683 725.12L739.567 723.53L741.26 721.759L742.76 719.809L744.068 717.68L745.183 715.374L746.104 712.891L746.832 710.233L747.366 707.4L747.706 704.394L747.852 701.217L747.805 697.871L747.565 694.356L747.132 690.675L746.507 686.83L745.692 682.822L744.685 678.654L743.489 674.328L742.105 669.847L740.534 665.212L738.776 660.427L736.834 655.493L734.709 650.414L732.403 645.193L729.917 639.832L727.253 634.334L724.413 628.702L721.399 622.94L718.213 617.051L714.858 611.038L711.335 604.905L707.648 598.654L703.799 592.291L699.79 585.817L695.624 579.237L691.304 572.556L686.833 565.776L682.213 558.901L677.449 551.936L672.542 544.885L667.497 537.751L662.316 530.54L657.004 523.254L651.562 515.899L645.996 508.479L640.308 500.998L634.502 493.461L628.583 485.871L622.552 478.234L616.416 470.555L610.177 462.837L603.84 455.085L597.407 447.305L590.885 439.5L584.276 431.675L577.585 423.836L570.816 415.986L563.973 408.131L557.061 400.275L550.083 392.423L543.045 384.58L535.95 376.75L528.803 368.939L521.609 361.151L514.371 353.391L507.095 345.664L499.784 337.974L492.443 330.326L485.077 322.726L477.691 315.176L470.288 307.683L462.873 300.251L455.451 292.885L448.026 285.588L440.603 278.367L433.186 271.224L425.779 264.165L418.388 257.194L411.016 250.316L403.668 243.534L396.348 236.854L389.061 230.279L381.811 223.813L374.602 217.461L367.439 211.226L360.325 205.114L353.266 199.126L346.264 193.268L339.325 187.544L332.452 181.956L325.65 176.508L318.922 171.205L312.271 166.049L305.703 161.044L299.221 156.194L292.828 151.5L286.529 146.967L280.326 142.598L274.223 138.395L268.225 134.361L262.333 130.5L256.553 126.812L250.886 123.302L245.336 119.972L239.906 116.823L234.599 113.859L229.418 111.08L224.366 108.49L219.446 106.09L214.66 103.882L210.012 101.867L205.502 100.047L201.135 98.423L196.912 96.9971L192.835 95.7701L188.907 94.7431L185.129 93.9169L181.505 93.2923L178.034 92.8702L174.72 92.6511L171.564 92.6353L168.567 92.8233L165.731 93.2152L163.058 93.8112L160.548 94.6111L158.202 95.6148L156.023 96.822L154.01 98.2323L152.165 99.8451L150.488 101.66L148.98 103.676L147.641 105.892L146.472 108.307L145.474 110.92L144.646 113.729L143.989 116.734L143.502 119.933L143.186 123.323L143.04 126.904L143.064 130.673L143.258 134.629L143.621 138.769L144.153 143.09L144.852 147.592L145.719 152.27L146.752 157.124L147.95 162.149L149.312 167.343L150.838 172.703L152.524 178.226L154.371 183.91L156.377 189.75L158.541 195.743L160.859 201.887L163.332 208.177L165.957 214.61L168.731 221.182L171.654 227.89L174.723 234.729L177.936 241.695L181.29 248.785L184.783 255.994L188.414 263.318L192.178 270.753L196.075 278.294L200.1 285.938L204.252 293.678L208.528 301.512L212.924 309.434L217.438 317.439L222.067 325.523L226.808 333.681L231.658 341.908L236.613 350.199L241.671 358.549L246.828 366.954L252.08 375.407L257.425 383.905L262.859 392.441L268.378 401.011L273.98 409.61L279.66 418.232L285.415 426.872L291.241 435.525L297.134 444.186L303.092 452.849L309.11 461.509L315.184 470.161L321.311 478.8L327.487 487.419L333.708 496.015L339.97 504.581L346.27 513.112L352.603 521.604L358.966 530.051L365.355 538.447L371.765 546.788L378.194 555.068L384.637 563.282L391.09 571.425L397.55 579.493L404.012 587.479L410.473 595.379L416.928 603.189L423.375 610.902L429.809 618.515L436.226 626.023L442.623 633.42L448.995 640.703L455.34 647.866L461.653 654.905L467.93 661.816L474.169 668.594L480.364 675.235L486.514 681.735L492.614 688.089L498.661 694.294L504.65 700.345L510.58 706.238L516.446 711.971L522.246 717.539L527.975 722.937L533.63 728.165L539.209 733.216L544.709 738.089L550.125 742.78L555.456 747.285L560.698 751.603L565.849 755.73L570.905 759.663L575.863 763.4L580.722 766.938L585.478 770.274L590.13 773.407L594.673 776.335L599.106 779.054L603.428 781.564L607.634 783.863L611.724 785.948L615.694 787.818L619.544 789.473L623.27 790.91L626.872 792.129L630.347 793.128L633.694 793.907L636.91 794.464L639.995 794.8L642.947 794.914L645.764 794.805L648.446 794.473L650.99 793.918L653.397 793.141L655.664 792.141L657.79 790.919L659.776 789.476L661.62 787.811L663.321 785.925L664.879 783.821L666.294 781.498L667.564 778.957L668.689 776.201L669.67 773.23L670.506 770.046L671.196 766.651L671.742 763.046L672.142 759.234L672.398 755.217L672.509 750.996L672.476 746.574L672.298 741.955L671.978 737.139L671.515 732.13L670.909 726.931L670.163 721.545L669.275 715.975L668.248 710.223L667.083 704.294L665.78 698.191L664.341 691.917L662.767 685.476L661.058 678.872L659.218 672.108L657.246 665.189L655.146 658.118L652.917 650.9L650.562 643.539L648.083 636.039L645.481 628.405L642.759 620.642L639.918 612.753L636.96 604.744L633.888 596.619L630.703 588.383L627.408 580.041L624.005 571.599L620.496 563.06L616.884 554.431L613.171 545.716L609.36 536.921L605.453 528.05L601.453 519.11L597.362 510.106L593.183 501.043L588.919 491.927L584.572 482.762L580.146 473.556L575.643 464.312L571.066 455.038L566.418 445.738L561.702 436.418L556.921 427.084L552.077 417.742L547.175 408.397L542.216 399.055L537.205 389.722L532.144 380.403L527.036 371.105L521.884 361.832L516.692 352.591L511.463 343.387L506.2 334.226L500.906 325.114L495.584 316.056L490.238 307.057L484.87 298.125L479.485 289.263L474.084 280.477L468.673 271.774L463.252 263.157L457.827 254.634L452.399 246.208L446.973 237.885L441.551 229.671L436.136 221.571L430.732 213.589L425.342 205.731L419.969 198.001L414.616 190.405L409.286 182.947L403.982 175.631L398.707 168.464L393.464 161.448L388.257 154.589L383.087 147.891L377.958 141.358L372.873 134.994L367.835 128.804L362.846 122.791L357.909 116.959L353.027 111.312L348.202 105.853L343.438 100.587L338.736 95.5159L334.1 90.6436L329.531 85.9733L325.033 81.508L320.607 77.2507L316.256 73.204L311.983 69.3707L307.789 65.7534L303.676 62.3544L299.648 59.1761L295.705 56.2206L291.85 53.4899L288.085 50.9859L284.412 48.7103L280.832 46.6648L277.347 44.8508L273.96 43.2697L270.671 41.9225L267.483 40.8104L264.396 39.9343L261.412 39.2949L258.533 38.8927L255.76 38.7284L253.094 38.8021L250.537 39.1141L248.089 39.6644L245.752 40.4528L243.526 41.4791L241.412 42.7429L239.412 44.2436L237.526 45.9804L235.755 47.9527L234.099 50.1592L232.559 52.599L231.135 55.2706L229.828 58.1727L228.639 61.3037L227.567 64.6619L226.613 68.2454L225.776 72.0522L225.058 76.0802L224.457 80.3271L223.975 84.7904L223.61 89.4677L223.363 94.3562L223.233 99.4532L223.22 104.756L223.324 110.26L223.544 115.964L223.879 121.864L224.329 127.957L224.894 134.238L225.572 140.704L226.363 147.352L227.266 154.177L228.28 161.176L229.404 168.343L230.637 175.676L231.978 183.17L233.426 190.819L234.979 198.62L236.636 206.569L238.397 214.659L240.259 222.887L242.221 231.247L244.282 239.734L246.44 248.344L248.694 257.071L251.041 265.91L253.481 274.855L256.011 283.902L258.63 293.044L261.336 302.276L264.126 311.593L267 320.989L269.955 330.458L272.99 339.994L276.101 349.592L279.288 359.246L282.547 368.95L285.878 378.698L289.277 388.484L292.743 398.303L296.273 408.147L299.865 418.011L303.517 427.89L307.227 437.776L310.991 447.665L314.809 457.55L318.677 467.424L322.593 477.282L326.554 487.118L330.559 496.926L334.605 506.699L338.689 516.432L342.809 526.118L346.962 535.752L351.146 545.328L355.359 554.84L359.598 564.281L363.86 573.647L368.143 582.931L372.445 592.127L376.762 601.23L381.093 610.235L385.435 619.135L389.786 627.925L394.142 636.599L398.502 645.153L402.863 653.581L407.222 661.877L411.578 670.036L415.927 678.054L420.267 685.925L424.597 693.644L428.912 701.207L433.212 708.609L437.493 715.845L441.754 722.91L445.992 729.801L450.205 736.512L454.39 743.039L458.545 749.379L462.669 755.528L466.758 761.481L470.811 767.234L474.826 772.785L478.8 778.128L482.732 783.263L486.619 788.183L490.459 792.888L494.251 797.373L497.992 801.635L501.681 805.673L505.316 809.482L508.894 813.062L512.415 816.409L515.877 819.521L519.277 822.397L522.614 825.033L525.887 827.429L529.094 829.583L532.233 831.494L535.304 833.159L538.304 834.578L541.232 835.751L544.087 836.675L546.867 837.35L549.572 837.776L552.2 837.953L554.75 837.879L557.221 837.555L559.612 836.981L561.922 836.157L564.15 835.084L566.295 833.762L568.356 832.191L570.332 830.373L572.224 828.308L574.029 825.998L575.748 823.443L577.379 820.646L578.923 817.608L580.378 814.33L581.745 810.814L583.023 807.063L584.211 803.078L585.31 798.863L586.319 794.418L587.238 789.748L588.067 784.854L588.805 779.74L589.453 774.408L590.011 768.862L590.479 763.105L590.857 757.14L591.145 750.971L591.344 744.602L591.453 738.036L591.473 731.277L591.404 724.33L591.248 717.198L591.003 709.886L590.671 702.398L590.253 694.739L589.748 686.913L589.158 678.925L588.483 670.78L587.724 662.483L586.882 654.038L585.957 645.451L584.951 636.727L583.864 627.871L582.698 618.89L581.452 609.787L580.129 600.569L578.729 591.241L577.253 581.808L575.703 572.278L574.08 562.655L572.384 552.945L570.618 543.155L568.782 533.289L566.877 523.355L564.905 513.358L562.868 503.305L560.766 493.201L558.602 483.052L556.375 472.866L554.089 462.647L551.745 452.404L549.343 442.14L546.886 431.864L544.374 421.581L541.811 411.297L539.196 401.02L536.533 390.754L533.822 380.507L531.065 370.285L528.263 360.094L525.419 349.94L522.535 339.83L519.611 329.77L516.65 319.765L513.653 309.823L510.622 299.95L507.558 290.15L504.465 280.432L501.342 270.799L498.193 261.26L495.019 251.818L491.821 242.481L488.602 233.253L485.362 224.142L482.105 215.152L478.831 206.288L475.543 197.557L472.243 188.964L468.931 180.514L465.61 172.213L462.282 164.065L458.949 156.076L455.611 148.25L452.272 140.593L448.932 133.109L445.593 125.803L442.257 118.68L438.927 111.744L435.603 104.998L432.287 98.449L428.981 92.0991L425.686 85.9528L422.404 80.0141L419.138 74.2865L415.888 68.7738L412.656 63.4794L409.443 58.4066L406.251 53.5587L403.083 48.9387L399.938 44.5495L396.819 40.3939L393.728 36.4747L390.664 32.7942L387.631 29.3548L384.63 26.1588L381.661 23.2082L378.726 20.5048L375.827 18.0506L372.965 15.847L370.141 13.8955L367.357 12.1975L364.613 10.754L361.91 9.56602L359.251 8.63442L356.636 7.95984L354.066 7.5428L351.542 7.38366L349.066 7.48259L346.639 7.83963L344.26 8.45468L341.932 9.32743L339.656 10.4574L337.431 11.8441L335.26 13.4867L333.143 15.3843L331.08 17.5357L329.073 19.9399L327.122 22.5953L325.228 25.5005L323.392 28.6537L321.614 32.0532L319.896 35.6968L318.236 39.5824L316.637 43.7078L315.098 48.0705L313.621 52.6678L312.205 57.4971L310.851 62.5554L309.559 67.8397L308.33 73.3468L307.164 79.0735L306.062 85.0162L305.023 91.1715L304.048 97.5355L303.137 104.104L302.29 110.874L301.507 117.841L300.789 125.001L300.135 132.348L299.545 139.88L299.021 147.591L298.56 155.476L298.164 163.532L297.833 171.752L297.565 180.132L297.362 188.667L297.222 197.352L297.147 206.181L297.134 215.149L297.185 224.25L297.299 233.479L297.475 242.831L297.714 252.299L298.014 261.878L298.376 271.562L298.799 281.345L299.282 291.22L299.825 301.183L300.428 311.227L301.09 321.346L301.811 331.533L302.589 341.782L303.424 352.088L304.317 362.443L305.265 372.841L306.269 383.277L307.327 393.743L308.439 404.233L309.604 414.741L310.822 425.26L312.091 435.784L313.412 446.307L314.782 456.821L316.201 467.321L317.669 477.799L319.185 488.251L320.747 498.668L322.354 509.045L324.007 519.375L325.703 529.653L327.443 539.87L329.224 550.023L331.046 560.103L332.908 570.105L334.81 580.023L336.749 589.851L338.725 599.582L340.737 609.21L342.784 618.73L344.865 628.136L346.979 637.422L349.124 646.582L351.3 655.611L353.505 664.502L355.739 673.251L358 681.852L360.288 690.3L362.6 698.59L364.937 706.716L367.296 714.673L369.677 722.457L372.079 730.062L374.5 737.484L376.94 744.719L379.396 751.762L381.869 758.608L384.357 765.253L386.858 771.694L389.372 777.926L391.897 783.945L394.433 789.747L396.978 795.33L399.531 800.689L402.09 805.822L404.656 810.724L407.226 815.393L409.799 819.826L412.375 824.021L414.952 827.974L417.529 831.684L420.106 835.147L422.68 838.362L425.25 841.327L427.817 844.039L430.378 846.498L432.932 848.701L435.479 850.648L438.017 852.336L440.545 853.766L443.063 854.935L445.569 855.844L448.061 856.491L450.54 856.877L453.004 857L455.452 856.861L457.883 856.46L460.296 855.798L462.69 854.874L465.064 853.688L467.418 852.243L469.749 850.538L472.058 848.575L474.343 846.354L476.604 843.878L478.838 841.147L481.047 838.164L483.228 834.929L485.382 831.446L487.506 827.716L489.601 823.741L491.664 819.524L493.697 815.068L495.697 810.374L497.665 805.447L499.598 800.289L501.497 794.902L503.361 789.291L505.189 783.459L506.98 777.41L508.734 771.147L510.45 764.673L512.128 757.994L513.766 751.112L515.364 744.033L516.921 736.761L518.438 729.299L519.913 721.653L521.345 713.828L522.735 705.827L524.082 697.656L525.385 689.321L526.643 680.825L527.857 672.175L529.025 663.376L530.148 654.432L531.225 645.351L532.256 636.136L533.239 626.794L534.175 617.33L535.064 607.751L535.905 598.062L536.698 588.269L537.442 578.379L538.138 568.396L538.784 558.328L539.381 548.18L539.929 537.959L540.427 527.672L540.876 517.323L541.274 506.921L541.622 496.47L541.92 485.978L542.167 475.451L542.364 464.896L542.51 454.318L542.606 443.725L542.651 433.123L542.645 422.518L542.589 411.917L542.482 401.327L542.325 390.754L542.116 380.204L541.858 369.684L541.549 359.201L541.19 348.76L540.78 338.369L540.321 328.034L539.812 317.76L539.253 307.555L538.645 297.425L537.988 287.375L537.281 277.412L536.526 267.543L535.723 257.773L534.871 248.107L533.972 238.553L533.025 229.116L532.031 219.802L530.99 210.616L529.903 201.565L528.77 192.653L527.591 183.886L526.368 175.27L525.099 166.809L523.787 158.51L522.43 150.377L521.031 142.415L519.589 134.629L518.105 127.023L516.579 119.603L515.012 112.373L513.405 105.338L511.759 98.5006L510.073 91.8666L508.348 85.4395L506.586 79.2233L504.786 73.2218L502.95 67.4387L501.079 61.8774L499.172 56.5415L497.231 51.4341L495.256 46.5585L493.248 41.9174L491.209 37.5139L489.138 33.3505L487.037 29.4298L484.906 25.7542L482.747 22.326L480.559 19.1471L478.345 16.2196L476.104 13.5452L473.838 11.1256L471.547 8.96212L469.233 7.05614L466.897 5.4088L464.539 4.02109L462.16 2.89381L459.762 2.02765L457.345 1.42309L454.91 1.08048L452.458 1L449.991 1.18167L447.509 1.62534L445.013 2.33071L442.505 3.29731L439.985 4.52451L437.454 6.01153L434.914 7.75742L432.365 9.76107L429.809 12.0212L427.247 14.5364L424.68 17.3051L422.108 20.3256L419.534 23.5959L416.957 27.1141L414.38 30.8778L411.803 34.8848L409.228 39.1326L406.655 43.6186L404.086 48.3398L401.521 53.2935L398.963 58.4764L396.412 63.8855L393.869 69.5173L391.335 75.3683L388.813 81.4349L386.301 87.7134L383.803 94.1998L381.319 100.89L378.849 107.78L376.396 114.866L373.961 122.143L371.544 129.606L369.147 137.252L366.77 145.074L364.416 153.069L362.085 161.232L359.778 169.557L357.496 178.039L355.241 186.674L353.013 195.455L350.814 204.377L348.645 213.436L346.507 222.624L344.4 231.937L342.327 241.369L340.287 250.914L338.283 260.566L336.315 270.319L334.384 280.167L332.491 290.104L330.638 300.124L328.825 310.221L327.053 320.388L325.323 330.62L323.636 340.909L321.994 351.25L320.396 361.637L318.844 372.062L317.339 382.52L315.882 393.004L314.473 403.508L313.114 414.024L311.805 424.548L310.547 435.071L309.341 445.588L308.187 456.093L307.087 466.578L306.041 477.038L305.05 487.466L304.114 497.856L303.234 508.2L302.411 518.494L301.646 528.73L300.938 538.902L300.289 549.005L299.699 559.031L299.169 568.975L298.699 578.831L298.29 588.592L297.942 598.254L297.655 607.808L297.431 617.251L297.268 626.576L297.169 635.777L297.132 644.849L297.158 653.787L297.248 662.584L297.402 671.236L297.619 679.737L297.901 688.082L298.247 696.266L298.657 704.284L299.132 712.132L299.671 719.803L300.274 727.294L300.942 734.601L301.675 741.718L302.472 748.641L303.333 755.367L304.259 761.891L305.248 768.209L306.301 774.317L307.418 780.212L308.598 785.89L309.841 791.348L311.146 796.583L312.514 801.59L313.944 806.368L315.435 810.914L316.987 815.224L318.6 819.296L320.272 823.128L322.004 826.718L323.795 830.063L325.644 833.161L327.55 836.011L329.514 838.611L331.533 840.959L333.608 843.054L335.737 844.895L337.921 846.481L340.157 847.811L342.445 848.884L344.784 849.699L347.173 850.257L349.612 850.557L352.099 850.598L354.633 850.382L357.213 849.908L359.838 849.176L362.507 848.187L365.218 846.943L367.971 845.443L370.765 843.688L373.598 841.681L376.468 839.421L379.375 836.912L382.317 834.153L385.293 831.148L388.302 827.898L391.342 824.405L394.412 820.671L397.509 816.699L400.634 812.491L403.784 808.05L406.958 803.38L410.154 798.481L413.372 793.359L416.608 788.016L419.862 782.455L423.132 776.681L426.416 770.695L429.714 764.504L433.022 758.109L436.34 751.516L439.666 744.728L442.998 737.75L446.334 730.585L449.673 723.24L453.013 715.717L456.352 708.022L459.689 700.16L463.022 692.135L466.349 683.952L469.667 675.617L472.977 667.135L476.275 658.511L479.56 649.75L482.83 640.858L486.083 631.84L489.318 622.703L492.533 613.45L495.726 604.09L498.895 594.626L502.038 585.065L505.154 575.413L508.241 565.676L511.297 555.859L514.321 545.97L517.31 536.014L520.263 525.996L523.179 515.924L526.054 505.804L528.889 495.642L531.681 485.443L534.428 475.215L537.128 464.963L539.781 454.694L542.384 444.415L544.936 434.131L547.436 423.849L549.881 413.575L552.27 403.315L554.602 393.076L556.875 382.865L559.088 372.686L561.238 362.547L563.326 352.454L565.349 342.412L567.306 332.429L569.195 322.509L571.016 312.66L572.767 302.887L574.447 293.196L576.054 283.593L577.587 274.084L579.046 264.674L580.429 255.37L581.735 246.177L582.963 237.101L584.113 228.146L585.182 219.319L586.17 210.625L587.076 202.07L587.9 193.657L588.64 185.393L589.296 177.283L589.867 169.33L590.353 161.541L590.752 153.919L591.065 146.47L591.29 139.198L591.427 132.107L591.476 125.201L591.436 118.485L591.307 111.962L591.089 105.637L590.781 99.5132L590.383 93.5942L589.895 87.8836L589.317 82.3848L588.649 77.1011L587.89 72.0354L587.042 67.1909L586.103 62.5704L585.074 58.1766L583.955 54.0119L582.747 50.079L581.449 46.38L580.063 42.917L578.588 39.6921L577.024 36.707L575.373 33.9636L573.635 31.4632L571.811 29.2073L569.901 27.1972L567.906 25.4339L565.826 23.9183L563.662 22.6512L561.416 21.6333L559.088 20.865L556.68 20.3466L554.191 20.0784L551.623 20.0602L548.978 20.292L546.256 20.7734L543.459 21.5041L540.588 22.4834L537.644 23.7105L534.628 25.1845L531.542 26.9045L528.388 28.8691L525.166 31.077L521.879 33.5267L518.527 36.2165L515.113 39.1447L511.639 42.3092L508.105 45.708L504.513 49.3389L500.866 53.1994L497.166 57.2871L493.413 61.5993L489.61 66.1332L485.759 70.8859L481.862 75.8543L477.921 81.0352L473.938 86.4253L469.915 92.0212L465.853 97.8192L461.756 103.816L457.625 110.007L453.463 116.389L449.272 122.958L445.053 129.709L440.81 136.639L436.545 143.742L432.259 151.015L427.955 158.453L423.636 166.051L419.304 173.805L414.962 181.709L410.611 189.759L406.254 197.949L401.894 206.275L397.534 214.731L393.174 223.312L388.819 232.012L384.47 240.827L380.131 249.751L375.802 258.778L371.488 267.902L367.19 277.118L362.912 286.421L358.655 295.804L354.421 305.262L350.215 314.788L346.037 324.377L341.891 334.024L337.779 343.721L333.703 353.463L329.666 363.245L325.671 373.059L321.719 382.9L317.814 392.762L313.957 402.64L310.151 412.525L306.398 422.414L302.701 432.3L299.062 442.175L295.484 452.036L291.968 461.875L288.517 471.687L285.132 481.465L281.817 491.203L278.574 500.897L275.404 510.539L272.309 520.124L269.292 529.646L266.355 539.099L263.499 548.478L260.727 557.776L258.041 566.989L255.441 576.111L252.931 585.135L250.512 594.057L248.185 602.872L245.953 611.573L243.816 620.156L241.777 628.616L239.837 636.947L237.997 645.145L236.259 653.204L234.625 661.12L233.095 668.888L231.671 676.503L230.354 683.961L229.145 691.258L228.045 698.388L227.056 705.349L226.178 712.135L225.412 718.742L224.759 725.168L224.219 731.408L223.795 737.458L223.485 743.314L223.291 748.974L223.213 754.434L223.252 759.692L223.408 764.742L223.681 769.584L224.072 774.214L224.581 778.63L225.207 782.828L225.952 786.807L226.814 790.565L227.795 794.098L228.893 797.406L230.108 800.487L231.441 803.338L232.891 805.958L234.456 808.346L236.138 810.501L237.935 812.421L239.846 814.105L241.872 815.553L244.01 816.764L246.261 817.738L248.623 818.474L251.095 818.971L253.677 819.23L256.367 819.251L259.163 819.034L262.066 818.579L265.072 817.887L268.182 816.958L271.393 815.794L274.704 814.395L278.113 812.762L281.619 810.896L285.219 808.799L288.913 806.473L292.698 803.919L296.573 801.138L300.535 798.133L304.582 794.905L308.713 791.457L312.925 787.792L317.216 783.911L321.583 779.817L326.025 775.513L330.54 771.002L335.123 766.287L339.774 761.37L344.49 756.256L349.268 750.946L354.106 745.446L359 739.757L363.949 733.885L368.949 727.832L373.998 721.603L379.093 715.201L384.231 708.631L389.41 701.897L394.625 695.002L399.876 687.953L405.157 680.752L410.467 673.405L415.803 665.916L421.161 658.289L426.538 650.531L431.931 642.645L437.338 634.636L442.754 626.51L448.177 618.271L453.604 609.925L459.032 601.477L464.456 592.933L469.875 584.296L475.285 575.574L480.682 566.771L486.064 557.893L491.427 548.945L496.768 539.933L502.084 530.863L507.371 521.739L512.627 512.568L517.848 503.355L523.032 494.107L528.174 484.828L533.272 475.524L538.322 466.202L543.322 456.866L548.268 447.523L553.158 438.178L557.988 428.837L562.755 419.506L567.456 410.19L572.089 400.896L576.649 391.628L581.136 382.392L585.545 373.194L589.873 364.04L594.118 354.935L598.278 345.884L602.349 336.894L606.329 327.969L610.215 319.115L614.004 310.337L617.695 301.641L621.284 293.031L624.77 284.514L628.149 276.093L631.42 267.774L634.58 259.563L637.627 251.463L640.559 243.48L643.374 235.618L646.069 227.883L648.644 220.279L651.096 212.809L653.423 205.48L655.623 198.294L657.695 191.257L659.638 184.372L661.449 177.643L663.128 171.074L664.672 164.67L666.081 158.434L667.354 152.369L668.488 146.479L669.484 140.768L670.341 135.238L671.056 129.893L671.63 124.736L672.061 119.77L672.35 114.998L672.495 110.422L672.497 106.045L672.354 101.869L672.066 97.8967L671.633 94.1305L671.055 90.5723L670.333 87.2239L669.465 84.0871L668.452 81.1637L667.294 78.4552L665.992 75.963L664.546 73.6883L662.956 71.6322L661.223 69.7958L659.347 68.18L657.33 66.7854L655.172 65.6127L652.874 64.6622L650.437 63.9343L647.862 63.4293L645.15 63.147L642.303 63.0875L639.322 63.2505L636.207 63.6356L632.962 64.2424L629.587 65.0701L626.083 66.1181L622.454 67.3853L618.7 68.8708L614.823 70.5734L610.826 72.4918L606.71 74.6246L602.478 76.9701L598.132 79.5267L593.674 82.2926L589.106 85.2658L584.431 88.4443L579.652 91.8258L574.771 95.4081L569.79 99.1887L564.713 103.165L559.542 107.334L554.28 111.694L548.93 116.241L543.495 120.973L537.977 125.885L532.381 130.976L526.709 136.242L520.964 141.678L515.149 147.283L509.269 153.052L503.326 158.981L497.323 165.066L491.264 171.304L485.153 177.691L478.993 184.223L472.787 190.894L466.539 197.702L460.254 204.642L453.934 211.709L447.583 218.899L441.204 226.208L434.803 233.63L428.382 241.161L421.945 248.797L415.496 256.532L409.039 264.362L402.577 272.282L396.115 280.287L389.657 288.372L383.205 296.531L376.765 304.76L370.34 313.054L363.934 321.408L357.551 329.816L351.194 338.273L344.868 346.774L338.576 355.313L332.323 363.887L326.112 372.488L319.946 381.112L313.831 389.754L307.769 398.408L301.764 407.07L295.82 415.733L289.941 424.392L284.13 433.043L278.392 441.679L272.729 450.297L267.146 458.889L261.645 467.453L256.23 475.981L250.906 484.469L245.674 492.912L240.539 501.305L235.504 509.642L230.572 517.92L225.746 526.132L221.03 534.274L216.426 542.34L211.938 550.328L207.568 558.23L203.319 566.044L199.195 573.763L195.198 581.384L191.331 588.902L187.596 596.313L183.996 603.612L180.533 610.795L177.21 617.858L174.029 624.796L170.992 631.606L168.102 638.284L165.361 644.826L162.77 651.227L160.331 657.485L158.047 663.596L155.918 669.555L153.948 675.361L152.136 681.009L150.485 686.497L148.996 691.82L147.67 696.977L146.508 701.964L145.512 706.779L144.683 711.418L144.02 715.88L143.526 720.162L143.2 724.261L143.044 728.175L143.058 731.903L143.241 735.441L143.595 738.79L144.12 741.945L144.815 744.907L145.681 747.673L146.717 750.242L147.924 752.613L149.3 754.784L150.845 756.756L152.56 758.526L154.442 760.094L156.492 761.459L158.709 762.621L161.091 763.579L163.637 764.334L166.347 764.885L169.219 765.231L172.251 765.374L175.442 765.313L178.791 765.049L182.296 764.582L185.955 763.912L189.766 763.041L193.727 761.97L197.837 760.699L202.092 759.229L206.491 757.561L211.032 755.698L215.711 753.64L220.527 751.389L225.477 748.946L230.557 746.314L235.766 743.494L241.101 740.489L246.558 737.299L252.134 733.929L257.826 730.379L263.632 726.653L269.548 722.753L275.569 718.681L281.694 714.441L287.919 710.035L294.24 705.466L300.653 700.738L307.154 695.853L313.741 690.814L320.409 685.625L327.154 680.289L333.973 674.811L340.86 669.192L347.814 663.437L354.828 657.55L361.9 651.535L369.025 645.395L376.199 639.134L383.417 632.756L390.676 626.266L397.971 619.667L405.297 612.964L412.651 606.16L420.027 599.261L427.422 592.27L434.832 585.192L442.251 578.032L449.675 570.793L457.099 563.481L464.52 556.099L471.933 548.653L479.332 541.147L486.715 533.586L494.075 525.975L501.41 518.317L508.713 510.619L515.982 502.884L523.21 495.117L530.394 487.324L537.53 479.508L544.613 471.675L551.638 463.83L558.601 455.976L565.498 448.12L572.325 440.266L579.077 432.418L585.751 424.581L592.341 416.76L598.844 408.961L605.255 401.186L611.571 393.441L617.788 385.732L623.901 378.061L629.907 370.435L635.801 362.856L641.581 355.331L647.242 347.863L652.781 340.457L658.195 333.117L663.478 325.848L668.629 318.653L673.644 311.537L678.519 304.505L683.252 297.56L687.838 290.706L692.276 283.947L696.562 277.288L700.694 270.731L704.667 264.282L708.481 257.943L712.132 251.718L715.617 245.611L718.935 239.626L722.083 233.764L725.058 228.031L727.86 222.429L730.484 216.961L732.931 211.631L735.197 206.441L737.281 201.394L739.183 196.493L740.899 191.741L742.429 187.14L743.771 182.693L744.925 178.402L745.889 174.269L746.663 170.298L747.245 166.489L747.635 162.844L747.832 159.367L747.836 156.058L747.647 152.919L747.264 149.951L746.687 147.157L745.917 144.537L744.952 142.094L743.795 139.827L742.444 137.738L740.9 135.827L739.165 134.097L737.238 132.547L735.121 131.177L732.815 129.989L730.32 128.983L727.638 128.159L724.77 127.517L721.718 127.058L718.483 126.78L715.066 126.685L711.47 126.771L707.697 127.038L703.747 127.486L699.625 128.114L695.331 128.921L690.868 129.907L686.238 131.071L681.445 132.41L676.49 133.926L671.376 135.615L666.107 137.477L660.685 139.51L655.112 141.713L649.394 144.084L643.532 146.621L637.529 149.323L631.39 152.186L625.118 155.211L618.717 158.393L612.189 161.731L605.539 165.223L598.771 168.866L591.889 172.658L584.896 176.596L577.797 180.677L570.595 184.899L563.296 189.259L555.903 193.754L548.421 198.38L540.854 203.136L533.206 208.017L525.482 213.021L517.688 218.144L509.826 223.383L501.902 228.735L493.921 234.196L485.888 239.762L477.806 245.43L469.682 251.197L461.52 257.058L453.325 263.01L445.101 269.05L436.854 275.172L428.589 281.375L420.311 287.653L412.024 294.002L403.734 300.419L395.447 306.9L387.166 313.441L378.896 320.037L370.644 326.685L362.414 333.38L354.211 340.118L346.041 346.895L337.907 353.708L329.815 360.551L321.771 367.421L313.779 374.313L305.844 381.223L297.97 388.148L290.164 395.082L282.429 402.022L274.771 408.963L267.195 415.902L259.704 422.834L252.304 429.754L245 436.66L237.795 443.546L230.695 450.409L223.704 457.245L216.826 464.049L210.067 470.818L203.429 477.547L196.918 484.233L190.537 490.871L184.29 497.458L178.183 503.991L172.217 510.464L166.398 516.875L160.729 523.219L155.214 529.494L149.856 535.694L144.659 541.818L139.626 547.861L134.761 553.821L130.066 559.692L125.546 565.473L121.202 571.16L117.038 576.75L113.056 582.239L109.26 587.626L105.651 592.905L102.233 598.076L99.0077 603.134L95.977 608.077L93.1433 612.903L90.5087 617.609L88.0749 622.192L85.8439 626.649L83.8171 630.979L81.9962 635.179L80.3825 639.248L78.9773 643.181L77.7817 646.979L76.7969 650.639L76.0236 654.158L75.4627 657.536L75.1147 660.77L74.9802 663.859L75.0595 666.801L75.353 669.595L75.8606 672.24L76.5825 674.735L77.5184 677.078L78.668 679.268L80.0311 681.304L81.6069 683.186L83.3949 684.913L85.3943 686.484L87.604 687.898L90.0231 689.156L92.6503 690.256L95.4844 691.198L98.5238 691.983L101.767 692.61L105.212 693.079L108.858 693.391L112.702 693.545L116.742 693.542L120.976 693.382L125.402 693.065L130.017 692.593L134.818 691.966L139.804 691.185L144.97 690.25L150.315 689.162L155.836 687.923L161.528 686.534L167.389 684.995L173.416 683.309L179.604 681.476L185.951 679.498L192.453 677.377L199.106 675.114L205.906 672.71L212.849 670.169L219.931 667.491L227.148 664.678L234.496 661.733L241.97 658.657L249.566 655.453L257.28 652.123L265.106 648.67L273.041 645.094L281.08 641.401L289.217 637.59L297.449 633.666L305.769 629.631L314.173 625.487L322.657 621.238L331.214 616.885L339.841 612.433L348.531 607.883L357.279 603.239L366.081 598.504L374.93 593.681L383.822 588.772L392.751 583.782L401.711 578.713L410.698 573.569L419.706 568.352L428.729 563.066L437.762 557.715L446.799 552.302L455.835 546.829L464.864 541.301L473.881 535.721L482.881 530.092L491.857 524.419L500.804 518.703L509.716 512.95L518.589 507.161L527.417 501.342L536.194 495.495L544.915 489.624L553.574 483.733L562.167 477.825L570.687 471.903L579.13 465.972L587.489 460.034L595.761 454.093L603.94 448.153L612.02 442.218L619.997 436.29L627.866 430.373L635.622 424.472L643.259 418.588L650.774 412.726L658.161 406.889L665.415 401.081L672.533 395.304L679.509 389.562L686.339 383.859L693.019 378.197L699.545 372.58L705.912 367.012L712.117 361.494L718.155 356.031L724.022 350.625L729.715 345.28L735.23 339.998L740.563 334.783L745.711 329.636L750.671 324.562L755.44 319.563L760.013 314.641L764.389 309.8L768.564 305.041L772.536 300.368L776.302 295.783L779.859 291.289L783.205 286.887L786.338 282.58L789.255 278.371L791.955 274.262L794.435 270.254L796.695 266.349L798.732 262.551L800.544 258.86L802.131 255.279L803.491 251.81L804.624 248.453L805.527 245.211L806.201 242.085L806.645 239.077L806.858 236.188L806.84 233.42L806.591 230.773L806.11 228.249L805.398 225.85L804.455 223.575L803.281 221.427L801.876 219.405L800.242 217.512L798.379 215.746L796.287 214.11L793.969 212.604L791.425 211.228L788.656 209.982L785.664 208.867L782.451 207.883L779.018 207.031L775.367 206.31L771.501 205.721L767.421 205.263L763.129 204.936L758.629 204.74L753.922 204.675L749.011 204.74L743.899 204.936L738.59 205.26L733.085 205.714L727.389 206.295L721.504 207.004L715.434 207.84L709.182 208.801L702.753 209.887L696.15 211.097L689.376 212.429L682.436 213.883L675.334 215.457L668.074 217.15L660.66 218.961L653.097 220.887L645.389 222.928L637.541 225.083L629.557 227.348L621.443 229.724L613.202 232.207L604.841 234.797L596.364 237.491L587.775 240.287L579.081 243.184L570.286 246.18L561.396 249.272L552.417 252.458L543.352 255.736L534.209 259.104L524.992 262.56L515.707 266.102L506.36 269.726L496.957 273.431L487.502 277.214L478.002 281.073L468.463 285.006L458.891 289.009L449.29 293.08L439.668 297.217L430.03 301.417L420.381 305.678L410.729 309.996L401.078 314.369L391.434 318.794L381.804 323.269L372.194 327.79L362.609 332.356L353.055 336.963L343.538 341.608L334.065 346.289L324.64 351.002L315.27 355.745L305.96 360.516L296.716 365.31L287.544 370.126L278.45 374.961L269.439 379.811L260.517 384.674L251.69 389.547L242.962 394.427L234.339 399.311L225.827 404.197L217.431 409.081L209.157 413.961L201.009 418.834L192.992 423.697L185.112 428.548L177.373 433.383L169.78 438.201L162.339 442.997L155.054 447.77L147.929 452.517L140.968 457.236L134.177 461.923L127.56 466.576L121.121 471.192L114.863 475.77L108.791 480.306L102.909 484.798L97.2207 489.244L91.7294 493.641L86.4388 497.987L81.3522 502.279L76.4731 506.516L71.8045 510.695L67.3494 514.814L63.1108 518.87L59.0914 522.863L55.2939 526.789L51.7208 530.646L48.3745 534.433L45.2571 538.148L42.3708 541.789L39.7175 545.354L37.2991 548.842L35.1171 552.249L33.1732 555.576L31.4687 558.821L30.0048 561.981L28.7826 565.055L27.803 568.043L27.0669 570.942L26.5749 573.751L26.3274 576.469L26.3248 579.094L26.5674 581.627L27.055 584.065L27.7876 586.407L28.7651 588.653L29.9868 590.801L31.4523 592.851L33.1608 594.802L35.1115 596.654L37.3034 598.404L39.7353 600.054L42.4058 601.602L45.3136 603.048L48.457 604.391L51.8342 605.632L55.4435 606.769L59.2826 607.802L63.3494 608.732L67.6416 609.559L72.1568 610.281L76.8923 610.899L81.8453 611.414L87.013 611.825L92.3924 612.132L97.9803 612.336L103.773 612.437L109.768 612.435L115.962 612.331L122.35 612.125L128.928 611.818L135.694 611.41L142.643 610.902L149.77 610.295L157.072 609.589L164.544 608.784L172.182 607.883L179.981 606.886L187.937 605.793L196.044 604.606L204.298 603.325L212.694 601.953L221.226 600.49L229.891 598.936L238.682 597.294L247.594 595.565L256.621 593.75L265.759 591.85L275.002 589.867L284.344 587.802L293.779 585.656L303.302 583.432L312.907 581.131L322.588 578.753L332.34 576.302L342.155 573.779L352.029 571.184L361.956 568.521L371.928 565.791L381.941 562.995L391.988 560.135L402.062 557.214L412.158 554.233L422.27 551.194L432.392 548.099L442.516 544.95L452.637 541.749L462.749 538.497L472.846 535.197L482.92 531.852L492.967 528.462L502.98 525.03L512.952 521.558L522.879 518.048L532.752 514.503L542.567 510.924L552.318 507.313L561.997 503.672L571.6 500.005L581.121 496.312L590.553 492.596L599.89 488.859L609.128 485.103L618.259 481.331L627.28 477.544L636.182 473.744L644.963 469.935L653.615 466.117L662.134 462.293L670.514 458.466L678.749 454.636L686.836 450.807L694.769 446.98L702.542 443.158L710.151 439.342L717.592 435.535L724.859 431.738L731.948 427.954L738.855 424.184L745.574 420.432L752.103 416.697L758.437 412.984L764.571 409.292L770.502 405.625L776.227 401.985L781.741 398.372L787.042 394.789L792.125 391.238L796.988 387.72L801.627 384.238L806.039 380.793L810.222 377.386L814.173 374.02L817.889 370.695L821.369 367.414L824.609 364.179L827.607 360.989L830.363 357.849L832.873 354.757L835.136 351.717L837.151 348.73L838.916 345.796L840.43 342.917L841.692 340.095L842.701 337.331L843.456 334.625L843.958 331.98L844.204 329.396L844.196 326.874L843.932 324.416L843.414 322.022L842.64 319.694L841.613 317.432L840.331 315.238L838.796 313.111L837.008 311.054L834.969 309.066L832.679 307.149L830.14 305.303L827.354 303.529L824.321 301.828L821.045 300.199L817.525 298.644L813.766 297.164L809.768 295.757L805.534 294.426L801.067 293.17L796.369 291.989L791.444 290.885L786.293 289.856L780.92 288.904L775.329 288.028L769.522 287.229L763.503 286.507L757.276 285.861L750.844 285.292L744.212 284.799L737.382 284.383L730.36 284.044L723.15 283.781L715.755 283.593L708.181 283.482L700.432 283.446L692.513 283.485L684.428 283.599L676.182 283.788L667.78 284.05L659.228 284.386L650.531 284.795L641.693 285.276L632.721 285.83L623.619 286.454L614.394 287.15L605.05 287.915L595.594 288.75L586.031 289.653L576.368 290.623L566.609 291.661L556.762 292.765L546.831 293.934L536.824 295.168L526.745 296.465L516.602 297.824L506.401 299.245L496.147 300.727L485.848 302.268L475.509 303.868L465.136 305.525L454.737 307.238L444.317 309.007L433.883 310.829L423.441 312.705L412.998 314.632L402.56 316.609L392.133 318.636L381.725 320.711L371.34 322.833L360.986 325.001L350.67 327.212L340.396 329.467L330.173 331.763L320.005 334.1L309.9 336.475L299.863 338.889L289.901 341.338L280.02 343.822L270.226 346.34L260.525 348.89L250.922 351.471L241.425 354.081L232.038 356.719L222.768 359.383L213.621 362.073L204.601 364.786L195.715 367.521L186.968 370.277L178.365 373.052L169.912 375.846L161.615 378.655L153.477 381.48L145.505 384.318L137.703 387.168L130.076 390.03L122.628 392.9L115.365 395.778L108.291 398.663L101.411 401.552L94.7276 404.445L88.2463 407.341L81.9709 410.237L75.9051 413.132L70.0529 416.026L64.4179 418.916L59.0036 421.802L53.8133 424.681L48.8504 427.553L44.118 430.416L39.6189 433.269L35.3562 436.111L31.3323 438.939L27.55 441.754L24.0115 444.554L20.7191 447.337L17.6749 450.102L14.8808 452.849L12.3387 455.575L10.0501 458.28L8.01648 460.962L6.23921 463.62L4.71943 466.254L3.45813 468.861L2.45616 471.441L1.7142 473.994L1.23275 476.516L1.0122 479.009L1.05274 481.47L1.35439 483.899L1.91705 486.294L2.74043 488.655L3.82409 490.98L5.16742 493.27L6.76965 495.522L8.62987 497.736L10.747 499.911L13.1197 502.047L15.7468 504.142L18.6265 506.195L21.7572 508.206L25.137 510.175L28.764 512.1L32.6358 513.98L36.7502 515.815L41.1048 517.605L45.6968 519.348L50.5236 521.044L55.5822 522.693L60.8695 524.293L66.3824 525.845L72.1174 527.348L78.0712 528.801L84.2401 530.204L90.6204 531.556L97.2081 532.857L103.999 534.107L110.99 535.304L118.175 536.45L125.552 537.543L133.114 538.584L140.858 539.571L148.779 540.505L156.872 541.385L165.132 542.211L173.555 542.984L182.134 543.702L190.864 544.366L199.741 544.976L208.759 545.531L217.912 546.031L227.195 546.477L236.602 546.869L246.128 547.205L255.766 547.487L265.51 547.715L275.355 547.887L285.295 548.006L295.323 548.07L305.433 548.08L315.62 548.036L325.876 547.938L336.196 547.786L346.574 547.581L357.002 547.323L367.475 547.011L377.986 546.647L388.528 546.231L399.096 545.762L409.682 545.242L420.28 544.67L430.884 544.048L441.487 543.374L452.083 542.651L462.665 541.878L473.226 541.055L483.76 540.184L494.262 539.264L504.723 538.296L515.138 537.281L525.5 536.219L535.803 535.111L546.041 533.957L556.208 532.758L566.296 531.514L576.3 530.227L586.214 528.896L596.032 527.523L605.747 526.108L615.353 524.651L624.846 523.154L634.218 521.616L643.464 520.04L652.579 518.425L661.556 516.773L670.391 515.083L679.077 513.357L687.61 511.596L695.984 509.8L704.194 507.97L712.236 506.107L720.103 504.212L727.791 502.285L735.296 500.328L742.613 498.342L749.736 496.326L756.663 494.282L763.389 492.212L769.909 490.115L776.22 487.992L782.317 485.845L788.197 483.675L793.856 481.482L799.291 479.268L804.499 477.033L809.475 474.778L814.218 472.504L818.724 470.212L822.991 467.903L827.015 465.578L830.795 463.238L834.327 460.884L837.61 458.517L840.643 456.138L843.422 453.748L845.946 451.348L848.214 448.938L850.224 446.52L851.976 444.096L853.467 441.664L854.697 439.228L855.666 436.788L856.372 434.344L856.815 431.898L856.995 429.451" stroke="#DB00FF" stroke-width="1.20281"/>
</svg>
