<svg width="1440" height="635" viewBox="0 0 1440 635" fill="none" xmlns="http://www.w3.org/2000/svg">
    <g style="mix-blend-mode:difference">
        <path d="M77.6841 416.853L82.9911 395.076C76.2201 407.886 63.7761 414.657 49.5021 414.657H18.2091V352.803H39.8031C47.6721 352.803 54.6261 355.365 57.1881 363.417V339.81C54.6261 347.862 47.6721 350.607 39.8031 350.607H18.2091V290.949H49.6851C64.3251 290.949 74.9391 297.72 81.7101 310.53L76.7691 288.753H-3.01895C3.93506 290.949 5.76506 296.805 5.76506 303.393V401.847C5.76506 408.435 3.93506 414.657 -3.01895 416.853H77.6841Z" fill="black"/>
    </g>
    <g style="mix-blend-mode:difference">
        <path d="M107.684 338.433L153.983 451.527L200.648 337.884C203.576 330.564 208.151 325.806 215.837 323.427H189.851C194.609 324.342 199.55 328.185 199.55 333.492C199.55 334.956 199.184 336.42 198.635 337.701L159.473 432.312L121.226 338.616C120.677 337.152 120.311 335.505 120.311 333.858C120.311 329.649 122.69 324.708 126.899 323.427H95.9723C102.194 325.989 105.305 332.577 107.684 338.433Z" fill="black"/>
    </g>
    <g style="mix-blend-mode:difference">
        <path d="M309.068 477.381L314.375 455.604C307.604 468.414 295.16 475.185 280.886 475.185H249.593V413.331H271.187C279.056 413.331 286.01 415.893 288.572 423.945V400.338C286.01 408.39 279.056 411.135 271.187 411.135H249.593V351.477H281.069C295.709 351.477 306.323 358.248 313.094 371.058L308.153 349.281H228.365C235.319 351.477 237.149 357.333 237.149 363.921V462.375C237.149 468.963 235.319 475.185 228.365 477.381H309.068Z" fill="black"/>
    </g>
    <g style="mix-blend-mode:difference">
        <path d="M406.412 501.419L411.536 478.91C404.399 490.988 395.066 499.406 380.426 499.406H347.486V387.959C347.486 381.371 349.316 375.515 356.27 373.319H326.258C333.212 375.515 335.042 381.371 335.042 387.959V486.413C335.042 493.001 333.212 499.223 326.258 501.419H406.412Z" fill="black"/>
    </g>
    <g style="mix-blend-mode:difference">
        <path d="M415.063 472.846C415.063 508.531 443.977 537.445 479.662 537.445C515.347 537.445 544.261 508.531 544.261 472.846C544.261 437.161 515.347 408.247 479.662 408.247C443.977 408.247 415.063 437.161 415.063 472.846ZM429.52 469.735C429.52 442.834 446.539 410.26 476.917 410.26C510.223 410.26 530.536 446.128 530.536 475.957C530.536 503.041 513.7 535.615 483.139 535.615C450.382 535.615 429.52 499.198 429.52 469.735Z" fill="black"/>
    </g>
    <g style="mix-blend-mode:difference">
        <path d="M586.13 565.472C579.542 563.459 577.346 557.054 577.346 550.832V515.33H599.672C623.828 515.33 648.899 503.801 648.899 476.351C648.899 447.986 626.024 437.372 600.77 437.372H556.118C562.889 439.385 564.902 445.79 564.902 452.195V550.466C564.902 556.871 563.072 563.459 556.118 565.472H586.13ZM577.346 513.134V439.568H598.574C621.449 439.568 635.357 453.476 635.357 476.351C635.357 498.86 621.083 513.134 598.574 513.134H577.346Z" fill="black"/>
    </g>
    <g style="mix-blend-mode:difference">
        <path d="M744.652 591.325L749.959 569.548C743.188 582.358 730.744 589.129 716.47 589.129H685.177V527.275H706.771C714.64 527.275 721.594 529.837 724.156 537.889V514.282C721.594 522.334 714.64 525.079 706.771 525.079H685.177V465.421H716.653C731.293 465.421 741.907 472.192 748.678 485.002L743.737 463.225H663.949C670.903 465.421 672.733 471.277 672.733 477.865V576.319C672.733 582.907 670.903 589.129 663.949 591.325H744.652Z" fill="black"/>
    </g>
    <g style="mix-blend-mode:difference">
        <path d="M764.422 467.661C771.193 469.674 773.206 475.896 773.206 482.301V580.755C773.206 587.343 771.376 593.565 764.422 595.761H794.434C787.846 593.565 785.65 587.526 785.65 581.121V545.436H810.355L842.563 595.761H863.059C857.752 593.565 852.628 590.088 849.517 585.147L823.531 544.521C842.746 540.495 857.203 527.136 857.203 506.64C857.203 478.458 832.498 467.661 807.793 467.661H764.422ZM807.061 469.857C829.936 469.857 843.844 483.765 843.844 506.64C843.844 528.966 829.387 543.423 807.061 543.423H785.65V469.857H807.061Z" fill="black"/>
    </g>
    <g style="mix-blend-mode:difference">
        <path d="M917.333 475.049C923.372 463.886 933.437 456.566 946.43 456.566H961.985L961.802 567.098C961.802 573.686 959.972 579.908 953.018 582.104H983.03C976.259 579.908 974.246 573.503 974.246 567.098V456.566H990.167C1002.79 456.566 1013.41 463.886 1019.26 474.866L1014.51 454.004H921.908L917.333 475.049Z" fill="black"/>
    </g>
    <g style="mix-blend-mode:difference">
        <path d="M1030.55 480.525C1030.55 516.21 1059.46 545.124 1095.15 545.124C1130.83 545.124 1159.75 516.21 1159.75 480.525C1159.75 444.84 1130.83 415.926 1095.15 415.926C1059.46 415.926 1030.55 444.84 1030.55 480.525ZM1045.01 477.414C1045.01 450.513 1062.02 417.939 1092.4 417.939C1125.71 417.939 1146.02 453.807 1146.02 483.636C1146.02 510.72 1129.19 543.294 1098.62 543.294C1065.87 543.294 1045.01 506.877 1045.01 477.414Z" fill="black"/>
    </g>
    <g style="mix-blend-mode:difference">
        <path d="M1168.77 442.996C1168.77 478.681 1197.68 507.595 1233.36 507.595C1269.05 507.595 1297.96 478.681 1297.96 442.996C1297.96 407.311 1269.05 378.397 1233.36 378.397C1197.68 378.397 1168.77 407.311 1168.77 442.996ZM1183.22 439.885C1183.22 412.984 1200.24 380.41 1230.62 380.41C1263.93 380.41 1284.24 416.278 1284.24 446.107C1284.24 473.191 1267.4 505.765 1236.84 505.765C1204.08 505.765 1183.22 469.348 1183.22 439.885Z" fill="black"/>
    </g>
    <g style="mix-blend-mode:difference">
        <path d="M1387.24 482.201L1392.36 459.692C1385.22 471.77 1375.89 480.188 1361.25 480.188H1328.31V368.741C1328.31 362.153 1330.14 356.297 1337.1 354.101H1307.08C1314.04 356.297 1315.87 362.153 1315.87 368.741V467.195C1315.87 473.783 1314.04 480.005 1307.08 482.201H1387.24Z" fill="black"/>
    </g>
    <g style="mix-blend-mode:difference">
        <path d="M1394.53 419.485V456.085C1396.54 452.974 1399.84 450.778 1403.68 450.778C1414.84 450.778 1425.64 458.647 1438.08 458.647C1457.3 458.647 1479.81 448.582 1479.81 426.439C1479.81 382.519 1406.24 385.63 1406.24 351.592C1406.24 335.488 1421.07 328.168 1435.34 328.168C1453.46 328.168 1470.11 341.161 1475.05 358.546C1475.23 348.481 1475.97 338.416 1476.15 328.351C1474.87 332.194 1472.12 335.854 1467.73 335.854C1462.79 335.854 1449.98 326.155 1436.07 326.155C1415.94 326.155 1397.82 337.318 1397.82 359.095C1397.82 401.917 1471.21 398.257 1471.21 431.563C1471.21 449.863 1452.91 456.085 1437.54 456.085C1416.49 456.085 1400.75 437.968 1394.53 419.485Z" fill="black"/>
    </g>
    <path d="M-24.179 0.831787L696.5 287.5L1446.23 56.9998L1446.23 304.479L1188.46 367.233C867.923 445.267 531.322 425.002 222.466 309.076L-24.179 216.5L-24.179 0.831787Z" fill="#131313"/>
</svg>
