<svg width="183" height="103" viewBox="0 0 183 103" fill="none" xmlns="http://www.w3.org/2000/svg">
    <path d="M18.1 33.3L4.8 69H0.5L13.8 33.3H18.1ZM36.7035 33.3L23.4035 69H19.1035L32.4035 33.3H36.7035ZM55.307 33.3L42.007 69H37.707L51.007 33.3H55.307Z" fill="#28272F"/>

    <path d="M131.5 94.4166C155.202 94.4166 174.417 75.2021 174.417 51.4999C174.417 27.7977 155.202 8.58325 131.5 8.58325C107.798 8.58325 88.5833 27.7977 88.5833 51.4999C88.5833 75.2021 107.798 94.4166 131.5 94.4166Z" stroke="#292D32" stroke-width="5" stroke-linecap="round" stroke-linejoin="round"/>
    <path d="M114.333 12.875H118.625C110.256 37.9383 110.256 65.0617 118.625 90.125H114.333" stroke="#292D32" stroke-width="5" stroke-linecap="round" stroke-linejoin="round"/>
    <path d="M144.375 12.875C152.744 37.9383 152.744 65.0617 144.375 90.125" stroke="#292D32" stroke-width="5" stroke-linecap="round" stroke-linejoin="round"/>
    <path d="M92.875 68.6667V64.375C117.938 72.7437 145.062 72.7437 170.125 64.375V68.6667" stroke="#292D32" stroke-width="5" stroke-linecap="round" stroke-linejoin="round"/>
    <path d="M92.875 38.625C117.938 30.2562 145.062 30.2562 170.125 38.625" stroke="#292D32" stroke-width="5" stroke-linecap="round" stroke-linejoin="round"/>
</svg>

