<svg width="133" height="89" viewBox="0 0 133 89" fill="none" xmlns="http://www.w3.org/2000/svg">
<path d="M0.486 71.4566C0.486 71.7446 0.684 71.9426 0.972 71.9426C1.278 71.9426 1.458 71.7446 1.458 71.4566C1.458 71.1506 1.26 70.9706 0.972 70.9706C0.666 70.9706 0.486 71.1686 0.486 71.4566ZM10.17 71.4566C10.17 71.7446 10.368 71.9426 10.656 71.9426C10.962 71.9426 11.142 71.7446 11.142 71.4566C11.142 71.1506 10.944 70.9706 10.656 70.9706C10.35 70.9706 10.17 71.1686 10.17 71.4566ZM1.458 72.4286C1.458 72.1406 1.26 71.9426 0.972 71.9426C0.666 71.9426 0.486 72.1406 0.486 72.4286C0.486 72.7346 0.684 72.9146 0.972 72.9146C1.278 72.9146 1.458 72.7166 1.458 72.4286ZM10.17 72.4286C10.17 72.7166 10.368 72.9146 10.656 72.9146C10.962 72.9146 11.142 72.7166 11.142 72.4286C11.142 72.1226 10.944 71.9426 10.656 71.9426C10.35 71.9426 10.17 72.1406 10.17 72.4286ZM1.458 73.4006C1.458 73.1126 1.26 72.9146 0.972 72.9146C0.666 72.9146 0.486 73.1126 0.486 73.4006C0.486 73.7066 0.684 73.8866 0.972 73.8866C1.278 73.8866 1.458 73.6886 1.458 73.4006ZM10.17 73.4006C10.17 73.6886 10.368 73.8866 10.656 73.8866C10.962 73.8866 11.142 73.6886 11.142 73.4006C11.142 73.0946 10.944 72.9146 10.656 72.9146C10.35 72.9146 10.17 73.1126 10.17 73.4006ZM2.412 74.3546C2.412 74.0666 2.232 73.8866 1.944 73.8866C1.638 73.8866 1.458 74.0666 1.458 74.3546C1.458 74.6426 1.638 74.8406 1.926 74.8406C2.214 74.8406 2.412 74.6606 2.412 74.3726V74.3546ZM10.17 74.3546C10.17 74.0666 9.99 73.8866 9.702 73.8866C9.396 73.8866 9.198 74.0666 9.198 74.3546C9.198 74.6426 9.378 74.8406 9.666 74.8406C9.972 74.8406 10.17 74.6606 10.17 74.3726V74.3546ZM2.412 75.3086C2.412 75.0206 2.232 74.8406 1.944 74.8406C1.656 74.8406 1.458 75.0206 1.458 75.3086C1.458 75.6146 1.638 75.8126 1.926 75.8126C2.214 75.8126 2.412 75.6326 2.412 75.3446V75.3086ZM10.17 75.3266C10.17 75.0386 9.972 74.8406 9.684 74.8406C9.378 74.8406 9.198 75.0386 9.198 75.3266C9.198 75.6326 9.396 75.8126 9.684 75.8126C9.99 75.8126 10.17 75.6146 10.17 75.3266ZM3.384 76.2986C3.384 76.0106 3.186 75.8126 2.898 75.8126C2.592 75.8126 2.412 76.0106 2.412 76.2986C2.412 76.6046 2.61 76.7846 2.898 76.7846C3.204 76.7846 3.384 76.5866 3.384 76.2986ZM9.198 76.2986C9.198 76.0106 9 75.8126 8.712 75.8126C8.406 75.8126 8.226 76.0106 8.226 76.2986C8.226 76.6046 8.424 76.7846 8.712 76.7846C9.018 76.7846 9.198 76.5866 9.198 76.2986ZM3.384 77.2706C3.384 76.9826 3.186 76.7846 2.898 76.7846C2.592 76.7846 2.412 76.9826 2.412 77.2706C2.412 77.5766 2.61 77.7566 2.898 77.7566C3.204 77.7566 3.384 77.5586 3.384 77.2706ZM9.198 77.2706C9.198 76.9826 9 76.7846 8.712 76.7846C8.406 76.7846 8.226 76.9826 8.226 77.2706C8.226 77.5766 8.424 77.7566 8.712 77.7566C9.018 77.7566 9.198 77.5586 9.198 77.2706ZM3.384 78.2426C3.384 77.9546 3.186 77.7566 2.898 77.7566C2.592 77.7566 2.412 77.9546 2.412 78.2426C2.412 78.5486 2.61 78.7286 2.898 78.7286C3.204 78.7286 3.384 78.5306 3.384 78.2426ZM9.198 78.2426C9.198 77.9546 9 77.7566 8.712 77.7566C8.406 77.7566 8.226 77.9546 8.226 78.2426C8.226 78.5486 8.424 78.7286 8.712 78.7286C9.018 78.7286 9.198 78.5306 9.198 78.2426ZM4.356 79.2146C4.356 78.9266 4.158 78.7286 3.87 78.7286C3.564 78.7286 3.384 78.9266 3.384 79.2146C3.384 79.5206 3.582 79.7006 3.87 79.7006C4.176 79.7006 4.356 79.5026 4.356 79.2146ZM8.226 79.1966C8.226 78.9086 8.046 78.7286 7.758 78.7286C7.47 78.7286 7.272 78.9086 7.272 79.1966C7.272 79.5026 7.452 79.7006 7.74 79.7006C8.028 79.7006 8.226 79.5206 8.226 79.2326V79.1966ZM4.356 80.1686C4.356 79.8806 4.176 79.7006 3.888 79.7006C3.582 79.7006 3.384 79.8806 3.384 80.1686C3.384 80.4566 3.564 80.6546 3.852 80.6546C4.158 80.6546 4.356 80.4746 4.356 80.1866V80.1686ZM8.226 80.1686C8.226 79.8806 8.046 79.7006 7.758 79.7006C7.452 79.7006 7.272 79.8806 7.272 80.1686C7.272 80.4566 7.452 80.6546 7.74 80.6546C8.028 80.6546 8.226 80.4746 8.226 80.1866V80.1686ZM5.328 81.1406C5.328 80.8526 5.13 80.6546 4.842 80.6546C4.536 80.6546 4.356 80.8526 4.356 81.1406C4.356 81.4466 4.554 81.6266 4.842 81.6266C5.148 81.6266 5.328 81.4286 5.328 81.1406ZM7.272 81.1406C7.272 80.8526 7.074 80.6546 6.786 80.6546C6.48 80.6546 6.3 80.8526 6.3 81.1406C6.3 81.4466 6.498 81.6266 6.786 81.6266C7.092 81.6266 7.272 81.4286 7.272 81.1406ZM5.328 82.1126C5.328 81.8246 5.13 81.6266 4.842 81.6266C4.536 81.6266 4.356 81.8246 4.356 82.1126C4.356 82.4186 4.554 82.5986 4.842 82.5986C5.148 82.5986 5.328 82.4006 5.328 82.1126ZM7.272 82.1126C7.272 81.8246 7.074 81.6266 6.786 81.6266C6.48 81.6266 6.3 81.8246 6.3 82.1126C6.3 82.4186 6.498 82.5986 6.786 82.5986C7.092 82.5986 7.272 82.4006 7.272 82.1126ZM5.328 83.0846C5.328 83.3726 5.526 83.5706 5.814 83.5706C6.12 83.5706 6.3 83.3726 6.3 83.0846C6.3 82.7786 6.102 82.5986 5.814 82.5986C5.508 82.5986 5.328 82.7966 5.328 83.0846ZM12.1227 71.4566C12.1227 71.7446 12.3207 71.9426 12.6087 71.9426C12.9147 71.9426 13.0947 71.7446 13.0947 71.4566C13.0947 71.1506 12.8967 70.9706 12.6087 70.9706C12.3027 70.9706 12.1227 71.1686 12.1227 71.4566ZM12.1227 72.4286C12.1227 72.7166 12.3207 72.9146 12.6087 72.9146C12.9147 72.9146 13.0947 72.7166 13.0947 72.4286C13.0947 72.1226 12.8967 71.9426 12.6087 71.9426C12.3027 71.9426 12.1227 72.1406 12.1227 72.4286ZM12.1227 73.4006C12.1227 73.6886 12.3207 73.8866 12.6087 73.8866C12.9147 73.8866 13.0947 73.6886 13.0947 73.4006C13.0947 73.0946 12.8967 72.9146 12.6087 72.9146C12.3027 72.9146 12.1227 73.1126 12.1227 73.4006ZM12.1227 74.3726C12.1227 74.6606 12.3027 74.8406 12.5907 74.8406C12.8967 74.8406 13.0947 74.6606 13.0947 74.3726C13.0947 74.0846 12.9147 73.8866 12.6267 73.8866C12.3207 73.8866 12.1227 74.0666 12.1227 74.3546V74.3726ZM12.1227 75.3266C12.1227 75.6146 12.3207 75.8126 12.6087 75.8126C12.9147 75.8126 13.0947 75.6146 13.0947 75.3266C13.0947 75.0206 12.8967 74.8406 12.6087 74.8406C12.3027 74.8406 12.1227 75.0386 12.1227 75.3266ZM12.1227 76.2986C12.1227 76.5866 12.3207 76.7846 12.6087 76.7846C12.9147 76.7846 13.0947 76.5866 13.0947 76.2986C13.0947 75.9926 12.8967 75.8126 12.6087 75.8126C12.3027 75.8126 12.1227 76.0106 12.1227 76.2986ZM12.1227 77.2706C12.1227 77.5586 12.3207 77.7566 12.6087 77.7566C12.9147 77.7566 13.0947 77.5586 13.0947 77.2706C13.0947 76.9646 12.8967 76.7846 12.6087 76.7846C12.3027 76.7846 12.1227 76.9826 12.1227 77.2706ZM12.1227 78.2426C12.1227 78.5306 12.3207 78.7286 12.6087 78.7286C12.9147 78.7286 13.0947 78.5306 13.0947 78.2426C13.0947 77.9366 12.8967 77.7566 12.6087 77.7566C12.3027 77.7566 12.1227 77.9546 12.1227 78.2426ZM12.1227 79.2146C12.1227 79.5026 12.3207 79.7006 12.6087 79.7006C12.9147 79.7006 13.0947 79.5026 13.0947 79.2146C13.0947 78.9086 12.8967 78.7286 12.6087 78.7286C12.3027 78.7286 12.1227 78.9266 12.1227 79.2146ZM12.1227 80.1866C12.1227 80.4746 12.3027 80.6546 12.5907 80.6546C12.8967 80.6546 13.0947 80.4746 13.0947 80.1866C13.0947 79.8986 12.9147 79.7006 12.6267 79.7006C12.3207 79.7006 12.1227 79.8806 12.1227 80.1686V80.1866ZM12.1227 81.1406C12.1227 81.4286 12.3207 81.6266 12.6087 81.6266C12.9147 81.6266 13.0947 81.4286 13.0947 81.1406C13.0947 80.8346 12.8967 80.6546 12.6087 80.6546C12.3027 80.6546 12.1227 80.8526 12.1227 81.1406ZM12.1227 82.1126C12.1227 82.4006 12.3207 82.5986 12.6087 82.5986C12.9147 82.5986 13.0947 82.4006 13.0947 82.1126C13.0947 81.8066 12.8967 81.6266 12.6087 81.6266C12.3027 81.6266 12.1227 81.8246 12.1227 82.1126ZM12.1227 83.0846C12.1227 83.3726 12.3207 83.5706 12.6087 83.5706C12.9147 83.5706 13.0947 83.3726 13.0947 83.0846C13.0947 82.7786 12.8967 82.5986 12.6087 82.5986C12.3027 82.5986 12.1227 82.7966 12.1227 83.0846ZM14.0739 71.4566C14.0739 71.7446 14.2719 71.9426 14.5599 71.9426C14.8659 71.9426 15.0459 71.7446 15.0459 71.4566C15.0459 71.1506 14.8479 70.9706 14.5599 70.9706C14.2539 70.9706 14.0739 71.1686 14.0739 71.4566ZM21.8319 71.4566C21.8319 71.7446 22.0299 71.9426 22.3179 71.9426C22.6239 71.9426 22.8039 71.7446 22.8039 71.4566C22.8039 71.1506 22.6059 70.9706 22.3179 70.9706C22.0119 70.9706 21.8319 71.1686 21.8319 71.4566ZM15.0459 71.4566C15.0459 71.7446 15.2439 71.9426 15.5319 71.9426C15.8379 71.9426 16.0179 71.7446 16.0179 71.4566C16.0179 71.1506 15.8199 70.9706 15.5319 70.9706C15.2259 70.9706 15.0459 71.1686 15.0459 71.4566ZM16.0179 71.4566C16.0179 71.7446 16.2159 71.9426 16.5039 71.9426C16.8099 71.9426 16.9899 71.7446 16.9899 71.4566C16.9899 71.1506 16.7919 70.9706 16.5039 70.9706C16.1979 70.9706 16.0179 71.1686 16.0179 71.4566ZM20.8599 71.4566C20.8599 71.7446 21.0579 71.9426 21.3459 71.9426C21.6519 71.9426 21.8319 71.7446 21.8319 71.4566C21.8319 71.1506 21.6339 70.9706 21.3459 70.9706C21.0399 70.9706 20.8599 71.1686 20.8599 71.4566ZM16.9899 71.4566C16.9899 71.7446 17.1879 71.9426 17.4759 71.9426C17.7819 71.9426 17.9619 71.7446 17.9619 71.4566C17.9619 71.1506 17.7639 70.9706 17.4759 70.9706C17.1699 70.9706 16.9899 71.1686 16.9899 71.4566ZM17.9619 71.4566C17.9619 71.7446 18.1599 71.9426 18.4479 71.9426C18.7539 71.9426 18.9339 71.7446 18.9339 71.4566C18.9339 71.1506 18.7359 70.9706 18.4479 70.9706C18.1419 70.9706 17.9619 71.1686 17.9619 71.4566ZM18.9339 71.4746C18.9339 71.7626 19.1139 71.9426 19.4019 71.9426C19.6899 71.9426 19.8879 71.7626 19.8879 71.4746C19.8879 71.1686 19.7079 70.9706 19.4199 70.9706C19.1319 70.9706 18.9339 71.1506 18.9339 71.4386V71.4746ZM19.8879 71.4566C19.8879 71.7446 20.0859 71.9426 20.3739 71.9426C20.6799 71.9426 20.8599 71.7446 20.8599 71.4566C20.8599 71.1506 20.6619 70.9706 20.3739 70.9706C20.0679 70.9706 19.8879 71.1686 19.8879 71.4566ZM15.0459 72.4286C15.0459 72.1406 14.8479 71.9426 14.5599 71.9426C14.2539 71.9426 14.0739 72.1406 14.0739 72.4286C14.0739 72.7346 14.2719 72.9146 14.5599 72.9146C14.8659 72.9146 15.0459 72.7166 15.0459 72.4286ZM15.0459 73.4006C15.0459 73.1126 14.8479 72.9146 14.5599 72.9146C14.2539 72.9146 14.0739 73.1126 14.0739 73.4006C14.0739 73.7066 14.2719 73.8866 14.5599 73.8866C14.8659 73.8866 15.0459 73.6886 15.0459 73.4006ZM15.0459 74.3546C15.0459 74.0666 14.8659 73.8866 14.5779 73.8866C14.2719 73.8866 14.0739 74.0666 14.0739 74.3546C14.0739 74.6426 14.2539 74.8406 14.5419 74.8406C14.8479 74.8406 15.0459 74.6606 15.0459 74.3726V74.3546ZM15.0459 75.3266C15.0459 75.0386 14.8479 74.8406 14.5599 74.8406C14.2539 74.8406 14.0739 75.0386 14.0739 75.3266C14.0739 75.6326 14.2719 75.8126 14.5599 75.8126C14.8659 75.8126 15.0459 75.6146 15.0459 75.3266ZM15.0459 76.2986C15.0459 76.0106 14.8479 75.8126 14.5599 75.8126C14.2539 75.8126 14.0739 76.0106 14.0739 76.2986C14.0739 76.6046 14.2719 76.7846 14.5599 76.7846C14.8659 76.7846 15.0459 76.5866 15.0459 76.2986ZM15.0459 77.2706C15.0459 76.9826 14.8479 76.7846 14.5599 76.7846C14.2539 76.7846 14.0739 76.9826 14.0739 77.2706C14.0739 77.5766 14.2719 77.7566 14.5599 77.7566C14.8659 77.7566 15.0459 77.5586 15.0459 77.2706ZM16.0179 77.2706C16.0179 76.9826 15.8199 76.7846 15.5319 76.7846C15.2259 76.7846 15.0459 76.9826 15.0459 77.2706C15.0459 77.5766 15.2439 77.7566 15.5319 77.7566C15.8379 77.7566 16.0179 77.5586 16.0179 77.2706ZM16.9899 77.2706C16.9899 76.9826 16.7919 76.7846 16.5039 76.7846C16.1979 76.7846 16.0179 76.9826 16.0179 77.2706C16.0179 77.5766 16.2159 77.7566 16.5039 77.7566C16.8099 77.7566 16.9899 77.5586 16.9899 77.2706ZM20.8599 77.2706C20.8599 77.5766 21.0579 77.7566 21.3459 77.7566C21.6519 77.7566 21.8319 77.5586 21.8319 77.2706C21.8319 76.9826 21.6339 76.7846 21.3459 76.7846C21.0399 76.7846 20.8599 76.9826 20.8599 77.2706ZM17.9619 77.2706C17.9619 76.9826 17.7639 76.7846 17.4759 76.7846C17.1699 76.7846 16.9899 76.9826 16.9899 77.2706C16.9899 77.5766 17.1879 77.7566 17.4759 77.7566C17.7819 77.7566 17.9619 77.5586 17.9619 77.2706ZM18.9339 77.2706C18.9339 76.9826 18.7359 76.7846 18.4479 76.7846C18.1419 76.7846 17.9619 76.9826 17.9619 77.2706C17.9619 77.5766 18.1599 77.7566 18.4479 77.7566C18.7539 77.7566 18.9339 77.5586 18.9339 77.2706ZM19.8879 77.2706C19.8879 77.5766 20.0859 77.7566 20.3739 77.7566C20.6799 77.7566 20.8599 77.5586 20.8599 77.2706C20.8599 76.9826 20.6619 76.7846 20.3739 76.7846C20.0679 76.7846 19.8879 76.9826 19.8879 77.2706ZM19.8879 77.2526C19.8879 76.9646 19.7079 76.7846 19.4199 76.7846C19.1319 76.7846 18.9339 76.9646 18.9339 77.2526C18.9339 77.5586 19.1139 77.7566 19.4019 77.7566C19.6899 77.7566 19.8879 77.5766 19.8879 77.2886V77.2526ZM15.0459 78.2426C15.0459 77.9546 14.8479 77.7566 14.5599 77.7566C14.2539 77.7566 14.0739 77.9546 14.0739 78.2426C14.0739 78.5486 14.2719 78.7286 14.5599 78.7286C14.8659 78.7286 15.0459 78.5306 15.0459 78.2426ZM15.0459 79.2146C15.0459 78.9266 14.8479 78.7286 14.5599 78.7286C14.2539 78.7286 14.0739 78.9266 14.0739 79.2146C14.0739 79.5206 14.2719 79.7006 14.5599 79.7006C14.8659 79.7006 15.0459 79.5026 15.0459 79.2146ZM15.0459 80.1686C15.0459 79.8806 14.8659 79.7006 14.5779 79.7006C14.2719 79.7006 14.0739 79.8806 14.0739 80.1686C14.0739 80.4566 14.2539 80.6546 14.5419 80.6546C14.8479 80.6546 15.0459 80.4746 15.0459 80.1866V80.1686ZM15.0459 81.1406C15.0459 80.8526 14.8479 80.6546 14.5599 80.6546C14.2539 80.6546 14.0739 80.8526 14.0739 81.1406C14.0739 81.4466 14.2719 81.6266 14.5599 81.6266C14.8659 81.6266 15.0459 81.4286 15.0459 81.1406ZM15.0459 82.1126C15.0459 81.8246 14.8479 81.6266 14.5599 81.6266C14.2539 81.6266 14.0739 81.8246 14.0739 82.1126C14.0739 82.4186 14.2719 82.5986 14.5599 82.5986C14.8659 82.5986 15.0459 82.4006 15.0459 82.1126ZM17.9619 83.0846C17.9619 83.3726 18.1599 83.5706 18.4479 83.5706C18.7539 83.5706 18.9339 83.3726 18.9339 83.0846C18.9339 82.7786 18.7359 82.5986 18.4479 82.5986C18.1419 82.5986 17.9619 82.7966 17.9619 83.0846ZM16.9899 83.0846C16.9899 83.3726 17.1879 83.5706 17.4759 83.5706C17.7819 83.5706 17.9619 83.3726 17.9619 83.0846C17.9619 82.7786 17.7639 82.5986 17.4759 82.5986C17.1699 82.5986 16.9899 82.7966 16.9899 83.0846ZM18.9339 83.1026C18.9339 83.3906 19.1139 83.5706 19.4019 83.5706C19.6899 83.5706 19.8879 83.3906 19.8879 83.1026C19.8879 82.7966 19.7079 82.5986 19.4199 82.5986C19.1319 82.5986 18.9339 82.7786 18.9339 83.0666V83.1026ZM19.8879 83.0846C19.8879 83.3726 20.0859 83.5706 20.3739 83.5706C20.6799 83.5706 20.8599 83.3726 20.8599 83.0846C20.8599 82.7786 20.6619 82.5986 20.3739 82.5986C20.0679 82.5986 19.8879 82.7966 19.8879 83.0846ZM16.0179 83.0846C16.0179 83.3726 16.2159 83.5706 16.5039 83.5706C16.8099 83.5706 16.9899 83.3726 16.9899 83.0846C16.9899 82.7786 16.7919 82.5986 16.5039 82.5986C16.1979 82.5986 16.0179 82.7966 16.0179 83.0846ZM20.8599 83.0846C20.8599 83.3726 21.0579 83.5706 21.3459 83.5706C21.6519 83.5706 21.8319 83.3726 21.8319 83.0846C21.8319 82.7786 21.6339 82.5986 21.3459 82.5986C21.0399 82.5986 20.8599 82.7966 20.8599 83.0846ZM15.0459 83.0846C15.0459 83.3726 15.2439 83.5706 15.5319 83.5706C15.8379 83.5706 16.0179 83.3726 16.0179 83.0846C16.0179 82.7786 15.8199 82.5986 15.5319 82.5986C15.2259 82.5986 15.0459 82.7966 15.0459 83.0846ZM14.0739 83.0846C14.0739 83.3726 14.2719 83.5706 14.5599 83.5706C14.8659 83.5706 15.0459 83.3726 15.0459 83.0846C15.0459 82.7786 14.8479 82.5986 14.5599 82.5986C14.2539 82.5986 14.0739 82.7966 14.0739 83.0846ZM21.8319 83.0846C21.8319 83.3726 22.0299 83.5706 22.3179 83.5706C22.6239 83.5706 22.8039 83.3726 22.8039 83.0846C22.8039 82.7786 22.6059 82.5986 22.3179 82.5986C22.0119 82.5986 21.8319 82.7966 21.8319 83.0846ZM23.777 71.4566C23.777 71.7446 23.975 71.9426 24.263 71.9426C24.569 71.9426 24.749 71.7446 24.749 71.4566C24.749 71.1506 24.551 70.9706 24.263 70.9706C23.957 70.9706 23.777 71.1686 23.777 71.4566ZM39.293 71.4746C39.293 71.7626 39.473 71.9426 39.761 71.9426C40.049 71.9426 40.247 71.7626 40.247 71.4746C40.247 71.1686 40.067 70.9706 39.779 70.9706C39.491 70.9706 39.293 71.1506 39.293 71.4386V71.4746ZM31.535 71.4566C31.535 71.7446 31.733 71.9426 32.021 71.9426C32.327 71.9426 32.507 71.7446 32.507 71.4566C32.507 71.1506 32.309 70.9706 32.021 70.9706C31.715 70.9706 31.535 71.1686 31.535 71.4566ZM32.507 72.4286C32.507 72.1406 32.309 71.9426 32.021 71.9426C31.715 71.9426 31.535 72.1406 31.535 72.4286C31.535 72.7346 31.733 72.9146 32.021 72.9146C32.327 72.9146 32.507 72.7166 32.507 72.4286ZM39.293 72.4466C39.293 72.7346 39.473 72.9146 39.761 72.9146C40.049 72.9146 40.247 72.7346 40.247 72.4466C40.247 72.1406 40.067 71.9426 39.779 71.9426C39.491 71.9426 39.293 72.1226 39.293 72.4106V72.4466ZM24.749 72.4286C24.749 72.1406 24.551 71.9426 24.263 71.9426C23.957 71.9426 23.777 72.1406 23.777 72.4286C23.777 72.7346 23.975 72.9146 24.263 72.9146C24.569 72.9146 24.749 72.7166 24.749 72.4286ZM39.293 73.4006C39.293 73.1126 39.095 72.9146 38.807 72.9146C38.501 72.9146 38.321 73.1126 38.321 73.4006C38.321 73.7066 38.519 73.8866 38.807 73.8866C39.113 73.8866 39.293 73.6886 39.293 73.4006ZM33.461 73.3826C33.461 73.0946 33.281 72.9146 32.993 72.9146C32.705 72.9146 32.507 73.0946 32.507 73.3826C32.507 73.6886 32.687 73.8866 32.975 73.8866C33.263 73.8866 33.461 73.7066 33.461 73.4186V73.3826ZM25.721 73.4006C25.721 73.1126 25.523 72.9146 25.235 72.9146C24.929 72.9146 24.749 73.1126 24.749 73.4006C24.749 73.7066 24.947 73.8866 25.235 73.8866C25.541 73.8866 25.721 73.6886 25.721 73.4006ZM31.535 73.4006C31.535 73.1126 31.337 72.9146 31.049 72.9146C30.743 72.9146 30.563 73.1126 30.563 73.4006C30.563 73.7066 30.761 73.8866 31.049 73.8866C31.355 73.8866 31.535 73.6886 31.535 73.4006ZM33.461 74.3546C33.461 74.0666 33.281 73.8866 32.993 73.8866C32.687 73.8866 32.507 74.0666 32.507 74.3546C32.507 74.6426 32.687 74.8406 32.975 74.8406C33.263 74.8406 33.461 74.6606 33.461 74.3726V74.3546ZM39.293 74.3546C39.293 74.0666 39.113 73.8866 38.825 73.8866C38.519 73.8866 38.321 74.0666 38.321 74.3546C38.321 74.6426 38.501 74.8406 38.789 74.8406C39.095 74.8406 39.293 74.6606 39.293 74.3726V74.3546ZM31.535 74.3546C31.535 74.0666 31.355 73.8866 31.067 73.8866C30.761 73.8866 30.563 74.0666 30.563 74.3546C30.563 74.6426 30.743 74.8406 31.031 74.8406C31.337 74.8406 31.535 74.6606 31.535 74.3726V74.3546ZM25.721 74.3546C25.721 74.0666 25.541 73.8866 25.253 73.8866C24.947 73.8866 24.749 74.0666 24.749 74.3546C24.749 74.6426 24.929 74.8406 25.217 74.8406C25.523 74.8406 25.721 74.6606 25.721 74.3726V74.3546ZM26.693 75.3266C26.693 75.0386 26.495 74.8406 26.207 74.8406C25.901 74.8406 25.721 75.0386 25.721 75.3266C25.721 75.6326 25.919 75.8126 26.207 75.8126C26.513 75.8126 26.693 75.6146 26.693 75.3266ZM30.563 75.3266C30.563 75.0386 30.365 74.8406 30.077 74.8406C29.771 74.8406 29.591 75.0386 29.591 75.3266C29.591 75.6326 29.789 75.8126 30.077 75.8126C30.383 75.8126 30.563 75.6146 30.563 75.3266ZM38.321 75.3266C38.321 75.0386 38.123 74.8406 37.835 74.8406C37.529 74.8406 37.349 75.0386 37.349 75.3266C37.349 75.6326 37.547 75.8126 37.835 75.8126C38.141 75.8126 38.321 75.6146 38.321 75.3266ZM34.433 75.3266C34.433 75.0386 34.235 74.8406 33.947 74.8406C33.641 74.8406 33.461 75.0386 33.461 75.3266C33.461 75.6326 33.659 75.8126 33.947 75.8126C34.253 75.8126 34.433 75.6146 34.433 75.3266ZM26.693 76.2986C26.693 76.0106 26.495 75.8126 26.207 75.8126C25.901 75.8126 25.721 76.0106 25.721 76.2986C25.721 76.6046 25.919 76.7846 26.207 76.7846C26.513 76.7846 26.693 76.5866 26.693 76.2986ZM30.563 76.2986C30.563 76.0106 30.365 75.8126 30.077 75.8126C29.771 75.8126 29.591 76.0106 29.591 76.2986C29.591 76.6046 29.789 76.7846 30.077 76.7846C30.383 76.7846 30.563 76.5866 30.563 76.2986ZM38.321 76.2986C38.321 76.0106 38.123 75.8126 37.835 75.8126C37.529 75.8126 37.349 76.0106 37.349 76.2986C37.349 76.6046 37.547 76.7846 37.835 76.7846C38.141 76.7846 38.321 76.5866 38.321 76.2986ZM34.433 76.2986C34.433 76.0106 34.235 75.8126 33.947 75.8126C33.641 75.8126 33.461 76.0106 33.461 76.2986C33.461 76.6046 33.659 76.7846 33.947 76.7846C34.253 76.7846 34.433 76.5866 34.433 76.2986ZM34.433 77.2706C34.433 76.9826 34.235 76.7846 33.947 76.7846C33.641 76.7846 33.461 76.9826 33.461 77.2706C33.461 77.5766 33.659 77.7566 33.947 77.7566C34.253 77.7566 34.433 77.5586 34.433 77.2706ZM30.563 77.2706C30.563 76.9826 30.365 76.7846 30.077 76.7846C29.771 76.7846 29.591 76.9826 29.591 77.2706C29.591 77.5766 29.789 77.7566 30.077 77.7566C30.383 77.7566 30.563 77.5586 30.563 77.2706ZM26.693 77.2706C26.693 76.9826 26.495 76.7846 26.207 76.7846C25.901 76.7846 25.721 76.9826 25.721 77.2706C25.721 77.5766 25.919 77.7566 26.207 77.7566C26.513 77.7566 26.693 77.5586 26.693 77.2706ZM38.321 77.2706C38.321 76.9826 38.123 76.7846 37.835 76.7846C37.529 76.7846 37.349 76.9826 37.349 77.2706C37.349 77.5766 37.547 77.7566 37.835 77.7566C38.141 77.7566 38.321 77.5586 38.321 77.2706ZM27.647 78.2246C27.647 77.9366 27.467 77.7566 27.179 77.7566C26.891 77.7566 26.693 77.9366 26.693 78.2246C26.693 78.5306 26.873 78.7286 27.161 78.7286C27.449 78.7286 27.647 78.5486 27.647 78.2606V78.2246ZM35.405 78.2426C35.405 77.9546 35.207 77.7566 34.919 77.7566C34.613 77.7566 34.433 77.9546 34.433 78.2426C34.433 78.5486 34.631 78.7286 34.919 78.7286C35.225 78.7286 35.405 78.5306 35.405 78.2426ZM37.349 78.2426C37.349 77.9546 37.151 77.7566 36.863 77.7566C36.557 77.7566 36.377 77.9546 36.377 78.2426C36.377 78.5486 36.575 78.7286 36.863 78.7286C37.169 78.7286 37.349 78.5306 37.349 78.2426ZM29.591 78.2426C29.591 77.9546 29.393 77.7566 29.105 77.7566C28.799 77.7566 28.619 77.9546 28.619 78.2426C28.619 78.5486 28.817 78.7286 29.105 78.7286C29.411 78.7286 29.591 78.5306 29.591 78.2426ZM27.647 79.1966C27.647 78.9086 27.467 78.7286 27.179 78.7286C26.891 78.7286 26.693 78.9086 26.693 79.1966C26.693 79.5026 26.873 79.7006 27.161 79.7006C27.449 79.7006 27.647 79.5206 27.647 79.2326V79.1966ZM35.405 79.2146C35.405 78.9266 35.207 78.7286 34.919 78.7286C34.613 78.7286 34.433 78.9266 34.433 79.2146C34.433 79.5206 34.631 79.7006 34.919 79.7006C35.225 79.7006 35.405 79.5026 35.405 79.2146ZM37.349 79.2146C37.349 78.9266 37.151 78.7286 36.863 78.7286C36.557 78.7286 36.377 78.9266 36.377 79.2146C36.377 79.5206 36.575 79.7006 36.863 79.7006C37.169 79.7006 37.349 79.5026 37.349 79.2146ZM29.591 79.2146C29.591 78.9266 29.393 78.7286 29.105 78.7286C28.799 78.7286 28.619 78.9266 28.619 79.2146C28.619 79.5206 28.817 79.7006 29.105 79.7006C29.411 79.7006 29.591 79.5026 29.591 79.2146ZM27.647 80.1686C27.647 79.8806 27.467 79.7006 27.179 79.7006C26.873 79.7006 26.693 79.8806 26.693 80.1686C26.693 80.4566 26.873 80.6546 27.161 80.6546C27.449 80.6546 27.647 80.4746 27.647 80.1866V80.1686ZM35.405 80.1686C35.405 79.8806 35.225 79.7006 34.937 79.7006C34.631 79.7006 34.433 79.8806 34.433 80.1686C34.433 80.4566 34.613 80.6546 34.901 80.6546C35.207 80.6546 35.405 80.4746 35.405 80.1866V80.1686ZM37.349 80.1686C37.349 79.8806 37.169 79.7006 36.881 79.7006C36.575 79.7006 36.377 79.8806 36.377 80.1686C36.377 80.4566 36.557 80.6546 36.845 80.6546C37.151 80.6546 37.349 80.4746 37.349 80.1866V80.1686ZM29.591 80.1686C29.591 79.8806 29.411 79.7006 29.123 79.7006C28.817 79.7006 28.619 79.8806 28.619 80.1686C28.619 80.4566 28.799 80.6546 29.087 80.6546C29.393 80.6546 29.591 80.4746 29.591 80.1866V80.1686ZM28.619 81.1406C28.619 80.8526 28.421 80.6546 28.133 80.6546C27.827 80.6546 27.647 80.8526 27.647 81.1406C27.647 81.4466 27.845 81.6266 28.133 81.6266C28.439 81.6266 28.619 81.4286 28.619 81.1406ZM36.377 81.1406C36.377 80.8526 36.179 80.6546 35.891 80.6546C35.585 80.6546 35.405 80.8526 35.405 81.1406C35.405 81.4466 35.603 81.6266 35.891 81.6266C36.197 81.6266 36.377 81.4286 36.377 81.1406ZM36.377 82.1126C36.377 81.8246 36.179 81.6266 35.891 81.6266C35.585 81.6266 35.405 81.8246 35.405 82.1126C35.405 82.4186 35.603 82.5986 35.891 82.5986C36.197 82.5986 36.377 82.4006 36.377 82.1126ZM28.619 82.1126C28.619 81.8246 28.421 81.6266 28.133 81.6266C27.827 81.6266 27.647 81.8246 27.647 82.1126C27.647 82.4186 27.845 82.5986 28.133 82.5986C28.439 82.5986 28.619 82.4006 28.619 82.1126ZM35.405 83.0846C35.405 83.3726 35.603 83.5706 35.891 83.5706C36.197 83.5706 36.377 83.3726 36.377 83.0846C36.377 82.7786 36.179 82.5986 35.891 82.5986C35.585 82.5986 35.405 82.7966 35.405 83.0846ZM27.647 83.0846C27.647 83.3726 27.845 83.5706 28.133 83.5706C28.439 83.5706 28.619 83.3726 28.619 83.0846C28.619 82.7786 28.421 82.5986 28.133 82.5986C27.827 82.5986 27.647 82.7966 27.647 83.0846ZM48.537 71.4566C48.537 71.7446 48.717 71.9426 49.023 71.9426C49.311 71.9426 49.509 71.7626 49.509 71.4566C49.509 71.1686 49.329 70.9706 49.023 70.9706C48.735 70.9706 48.537 71.1686 48.537 71.4566ZM49.509 71.4566C49.509 71.7446 49.689 71.9426 49.995 71.9426C50.283 71.9426 50.481 71.7626 50.481 71.4566C50.481 71.1686 50.301 70.9706 49.995 70.9706C49.707 70.9706 49.509 71.1686 49.509 71.4566ZM50.481 71.4566C50.481 71.7446 50.661 71.9426 50.967 71.9426C51.255 71.9426 51.453 71.7626 51.453 71.4566C51.453 71.1686 51.273 70.9706 50.967 70.9706C50.679 70.9706 50.481 71.1686 50.481 71.4566ZM51.453 71.4566C51.453 71.7446 51.633 71.9426 51.939 71.9426C52.227 71.9426 52.425 71.7626 52.425 71.4566C52.425 71.1686 52.245 70.9706 51.939 70.9706C51.651 70.9706 51.453 71.1686 51.453 71.4566ZM52.425 71.4566C52.425 71.7446 52.605 71.9426 52.911 71.9426C53.199 71.9426 53.397 71.7626 53.397 71.4566C53.397 71.1686 53.217 70.9706 52.911 70.9706C52.623 70.9706 52.425 71.1686 52.425 71.4566ZM48.537 72.4106C48.537 72.1226 48.339 71.9426 48.051 71.9426C47.763 71.9426 47.583 72.1406 47.583 72.4466C47.583 72.7346 47.781 72.9146 48.069 72.9146C48.357 72.9146 48.537 72.7346 48.537 72.4466V72.4106ZM54.351 72.4106C54.351 72.1226 54.153 71.9426 53.865 71.9426C53.577 71.9426 53.397 72.1406 53.397 72.4466C53.397 72.7346 53.595 72.9146 53.883 72.9146C54.171 72.9146 54.351 72.7346 54.351 72.4466V72.4106ZM47.583 73.4006C47.583 73.1126 47.403 72.9146 47.097 72.9146C46.809 72.9146 46.611 73.0946 46.611 73.4006C46.611 73.6886 46.791 73.8866 47.097 73.8866C47.385 73.8866 47.583 73.6886 47.583 73.4006ZM54.351 73.4006C54.351 73.6886 54.531 73.8866 54.837 73.8866C55.125 73.8866 55.323 73.7066 55.323 73.4006C55.323 73.1126 55.143 72.9146 54.837 72.9146C54.549 72.9146 54.351 73.1126 54.351 73.4006ZM47.583 74.3546C47.583 74.0666 47.385 73.8866 47.079 73.8866C46.791 73.8866 46.611 74.0846 46.611 74.3726C46.611 74.6606 46.809 74.8406 47.115 74.8406C47.403 74.8406 47.583 74.6606 47.583 74.3726V74.3546ZM47.583 75.3266C47.583 75.0386 47.403 74.8406 47.097 74.8406C46.809 74.8406 46.611 75.0206 46.611 75.3266C46.611 75.6146 46.791 75.8126 47.097 75.8126C47.385 75.8126 47.583 75.6146 47.583 75.3266ZM48.537 76.2806C48.537 75.9926 48.339 75.8126 48.051 75.8126C47.763 75.8126 47.583 76.0106 47.583 76.3166C47.583 76.6046 47.781 76.7846 48.069 76.7846C48.357 76.7846 48.537 76.6046 48.537 76.3166V76.2806ZM49.509 77.2706C49.509 76.9826 49.329 76.7846 49.023 76.7846C48.735 76.7846 48.537 76.9646 48.537 77.2706C48.537 77.5586 48.717 77.7566 49.023 77.7566C49.311 77.7566 49.509 77.5586 49.509 77.2706ZM50.481 77.2706C50.481 76.9826 50.301 76.7846 49.995 76.7846C49.707 76.7846 49.509 76.9646 49.509 77.2706C49.509 77.5586 49.689 77.7566 49.995 77.7566C50.283 77.7566 50.481 77.5586 50.481 77.2706ZM51.453 77.2706C51.453 76.9826 51.273 76.7846 50.967 76.7846C50.679 76.7846 50.481 76.9646 50.481 77.2706C50.481 77.5586 50.661 77.7566 50.967 77.7566C51.255 77.7566 51.453 77.5586 51.453 77.2706ZM52.425 77.2706C52.425 76.9826 52.245 76.7846 51.939 76.7846C51.651 76.7846 51.453 76.9646 51.453 77.2706C51.453 77.5586 51.633 77.7566 51.939 77.7566C52.227 77.7566 52.425 77.5586 52.425 77.2706ZM53.397 77.2706C53.397 76.9826 53.217 76.7846 52.911 76.7846C52.623 76.7846 52.425 76.9646 52.425 77.2706C52.425 77.5586 52.605 77.7566 52.911 77.7566C53.199 77.7566 53.397 77.5586 53.397 77.2706ZM54.351 78.2246C54.351 77.9366 54.153 77.7566 53.865 77.7566C53.577 77.7566 53.397 77.9546 53.397 78.2606C53.397 78.5486 53.595 78.7286 53.883 78.7286C54.171 78.7286 54.351 78.5486 54.351 78.2606V78.2246ZM54.351 79.2146C54.351 79.5026 54.531 79.7006 54.837 79.7006C55.125 79.7006 55.323 79.5206 55.323 79.2146C55.323 78.9266 55.143 78.7286 54.837 78.7286C54.549 78.7286 54.351 78.9266 54.351 79.2146ZM47.583 80.1686C47.583 79.8806 47.385 79.7006 47.079 79.7006C46.791 79.7006 46.611 79.8986 46.611 80.1866C46.611 80.4746 46.809 80.6546 47.115 80.6546C47.403 80.6546 47.583 80.4746 47.583 80.1866V80.1686ZM54.351 80.1866C54.351 80.4746 54.549 80.6546 54.855 80.6546C55.143 80.6546 55.323 80.4566 55.323 80.1686C55.323 79.8806 55.125 79.7006 54.819 79.7006C54.531 79.7006 54.351 79.8806 54.351 80.1686V80.1866ZM47.583 81.1406C47.583 80.8526 47.403 80.6546 47.097 80.6546C46.809 80.6546 46.611 80.8346 46.611 81.1406C46.611 81.4286 46.791 81.6266 47.097 81.6266C47.385 81.6266 47.583 81.4286 47.583 81.1406ZM54.351 81.1406C54.351 81.4286 54.531 81.6266 54.837 81.6266C55.125 81.6266 55.323 81.4466 55.323 81.1406C55.323 80.8526 55.143 80.6546 54.837 80.6546C54.549 80.6546 54.351 80.8526 54.351 81.1406ZM48.537 82.0946C48.537 81.8066 48.339 81.6266 48.051 81.6266C47.763 81.6266 47.583 81.8246 47.583 82.1306C47.583 82.4186 47.781 82.5986 48.069 82.5986C48.357 82.5986 48.537 82.4186 48.537 82.1306V82.0946ZM54.351 82.0946C54.351 81.8066 54.153 81.6266 53.865 81.6266C53.577 81.6266 53.397 81.8246 53.397 82.1306C53.397 82.4186 53.595 82.5986 53.883 82.5986C54.171 82.5986 54.351 82.4186 54.351 82.1306V82.0946ZM48.537 83.0846C48.537 83.3726 48.717 83.5706 49.023 83.5706C49.311 83.5706 49.509 83.3906 49.509 83.0846C49.509 82.7966 49.329 82.5986 49.023 82.5986C48.735 82.5986 48.537 82.7966 48.537 83.0846ZM49.509 83.0846C49.509 83.3726 49.689 83.5706 49.995 83.5706C50.283 83.5706 50.481 83.3906 50.481 83.0846C50.481 82.7966 50.301 82.5986 49.995 82.5986C49.707 82.5986 49.509 82.7966 49.509 83.0846ZM50.481 83.0846C50.481 83.3726 50.661 83.5706 50.967 83.5706C51.255 83.5706 51.453 83.3906 51.453 83.0846C51.453 82.7966 51.273 82.5986 50.967 82.5986C50.679 82.5986 50.481 82.7966 50.481 83.0846ZM51.453 83.0846C51.453 83.3726 51.633 83.5706 51.939 83.5706C52.227 83.5706 52.425 83.3906 52.425 83.0846C52.425 82.7966 52.245 82.5986 51.939 82.5986C51.651 82.5986 51.453 82.7966 51.453 83.0846ZM52.425 83.0846C52.425 83.3726 52.605 83.5706 52.911 83.5706C53.199 83.5706 53.397 83.3906 53.397 83.0846C53.397 82.7966 53.217 82.5986 52.911 82.5986C52.623 82.5986 52.425 82.7966 52.425 83.0846ZM56.2965 71.4746C56.2965 71.7626 56.4765 71.9426 56.7645 71.9426C57.0525 71.9426 57.2505 71.7626 57.2505 71.4746C57.2505 71.1686 57.0705 70.9706 56.7825 70.9706C56.4945 70.9706 56.2965 71.1506 56.2965 71.4386V71.4746ZM64.0365 71.4566C64.0365 71.7446 64.2345 71.9426 64.5225 71.9426C64.8285 71.9426 65.0085 71.7446 65.0085 71.4566C65.0085 71.1506 64.8105 70.9706 64.5225 70.9706C64.2165 70.9706 64.0365 71.1686 64.0365 71.4566ZM57.2505 72.4106C57.2505 72.1226 57.0705 71.9426 56.7825 71.9426C56.4945 71.9426 56.2965 72.1226 56.2965 72.4106C56.2965 72.7166 56.4765 72.9146 56.7645 72.9146C57.0525 72.9146 57.2505 72.7346 57.2505 72.4466V72.4106ZM64.0365 72.4286C64.0365 72.7166 64.2345 72.9146 64.5225 72.9146C64.8285 72.9146 65.0085 72.7166 65.0085 72.4286C65.0085 72.1226 64.8105 71.9426 64.5225 71.9426C64.2165 71.9426 64.0365 72.1406 64.0365 72.4286ZM57.2505 73.3826C57.2505 73.0946 57.0705 72.9146 56.7825 72.9146C56.4945 72.9146 56.2965 73.0946 56.2965 73.3826C56.2965 73.6886 56.4765 73.8866 56.7645 73.8866C57.0525 73.8866 57.2505 73.7066 57.2505 73.4186V73.3826ZM64.0365 73.4006C64.0365 73.6886 64.2345 73.8866 64.5225 73.8866C64.8285 73.8866 65.0085 73.6886 65.0085 73.4006C65.0085 73.0946 64.8105 72.9146 64.5225 72.9146C64.2165 72.9146 64.0365 73.1126 64.0365 73.4006ZM57.2505 74.3546C57.2505 74.0666 57.0705 73.8866 56.7825 73.8866C56.4765 73.8866 56.2965 74.0666 56.2965 74.3546C56.2965 74.6426 56.4765 74.8406 56.7645 74.8406C57.0525 74.8406 57.2505 74.6606 57.2505 74.3726V74.3546ZM64.0365 74.3726C64.0365 74.6606 64.2165 74.8406 64.5045 74.8406C64.8105 74.8406 65.0085 74.6606 65.0085 74.3726C65.0085 74.0846 64.8285 73.8866 64.5405 73.8866C64.2345 73.8866 64.0365 74.0666 64.0365 74.3546V74.3726ZM57.2505 75.3086C57.2505 75.0206 57.0705 74.8406 56.7825 74.8406C56.4945 74.8406 56.2965 75.0206 56.2965 75.3086C56.2965 75.6146 56.4765 75.8126 56.7645 75.8126C57.0525 75.8126 57.2505 75.6326 57.2505 75.3446V75.3086ZM64.0365 75.3266C64.0365 75.6146 64.2345 75.8126 64.5225 75.8126C64.8285 75.8126 65.0085 75.6146 65.0085 75.3266C65.0085 75.0206 64.8105 74.8406 64.5225 74.8406C64.2165 74.8406 64.0365 75.0386 64.0365 75.3266ZM57.2505 76.2806C57.2505 75.9926 57.0705 75.8126 56.7825 75.8126C56.4945 75.8126 56.2965 75.9926 56.2965 76.2806C56.2965 76.5866 56.4765 76.7846 56.7645 76.7846C57.0525 76.7846 57.2505 76.6046 57.2505 76.3166V76.2806ZM64.0365 76.2986C64.0365 76.5866 64.2345 76.7846 64.5225 76.7846C64.8285 76.7846 65.0085 76.5866 65.0085 76.2986C65.0085 75.9926 64.8105 75.8126 64.5225 75.8126C64.2165 75.8126 64.0365 76.0106 64.0365 76.2986ZM58.2225 77.2706C58.2225 76.9826 58.0245 76.7846 57.7365 76.7846C57.4305 76.7846 57.2505 76.9826 57.2505 77.2706C57.2505 77.5766 57.4485 77.7566 57.7365 77.7566C58.0425 77.7566 58.2225 77.5586 58.2225 77.2706ZM59.1945 77.2706C59.1945 76.9826 58.9965 76.7846 58.7085 76.7846C58.4025 76.7846 58.2225 76.9826 58.2225 77.2706C58.2225 77.5766 58.4205 77.7566 58.7085 77.7566C59.0145 77.7566 59.1945 77.5586 59.1945 77.2706ZM60.1665 77.2706C60.1665 76.9826 59.9685 76.7846 59.6805 76.7846C59.3745 76.7846 59.1945 76.9826 59.1945 77.2706C59.1945 77.5766 59.3925 77.7566 59.6805 77.7566C59.9865 77.7566 60.1665 77.5586 60.1665 77.2706ZM61.1385 77.2706C61.1385 76.9826 60.9405 76.7846 60.6525 76.7846C60.3465 76.7846 60.1665 76.9826 60.1665 77.2706C60.1665 77.5766 60.3645 77.7566 60.6525 77.7566C60.9585 77.7566 61.1385 77.5586 61.1385 77.2706ZM62.1105 77.2706C62.1105 76.9826 61.9125 76.7846 61.6245 76.7846C61.3185 76.7846 61.1385 76.9826 61.1385 77.2706C61.1385 77.5766 61.3365 77.7566 61.6245 77.7566C61.9305 77.7566 62.1105 77.5586 62.1105 77.2706ZM63.0825 77.2706C63.0825 76.9826 62.8845 76.7846 62.5965 76.7846C62.2905 76.7846 62.1105 76.9826 62.1105 77.2706C62.1105 77.5766 62.3085 77.7566 62.5965 77.7566C62.9025 77.7566 63.0825 77.5586 63.0825 77.2706ZM57.2505 77.2526C57.2505 76.9646 57.0705 76.7846 56.7825 76.7846C56.4945 76.7846 56.2965 76.9646 56.2965 77.2526C56.2965 77.5586 56.4765 77.7566 56.7645 77.7566C57.0525 77.7566 57.2505 77.5766 57.2505 77.2886V77.2526ZM64.0365 77.2526C64.0365 76.9646 63.8565 76.7846 63.5685 76.7846C63.2805 76.7846 63.0825 76.9646 63.0825 77.2526C63.0825 77.5586 63.2625 77.7566 63.5505 77.7566C63.8385 77.7566 64.0365 77.5766 64.0365 77.2886V77.2526ZM64.0365 77.2706C64.0365 77.5586 64.2345 77.7566 64.5225 77.7566C64.8285 77.7566 65.0085 77.5586 65.0085 77.2706C65.0085 76.9646 64.8105 76.7846 64.5225 76.7846C64.2165 76.7846 64.0365 76.9826 64.0365 77.2706ZM57.2505 78.2246C57.2505 77.9366 57.0705 77.7566 56.7825 77.7566C56.4945 77.7566 56.2965 77.9366 56.2965 78.2246C56.2965 78.5306 56.4765 78.7286 56.7645 78.7286C57.0525 78.7286 57.2505 78.5486 57.2505 78.2606V78.2246ZM64.0365 78.2426C64.0365 78.5306 64.2345 78.7286 64.5225 78.7286C64.8285 78.7286 65.0085 78.5306 65.0085 78.2426C65.0085 77.9366 64.8105 77.7566 64.5225 77.7566C64.2165 77.7566 64.0365 77.9546 64.0365 78.2426ZM57.2505 79.1966C57.2505 78.9086 57.0705 78.7286 56.7825 78.7286C56.4945 78.7286 56.2965 78.9086 56.2965 79.1966C56.2965 79.5026 56.4765 79.7006 56.7645 79.7006C57.0525 79.7006 57.2505 79.5206 57.2505 79.2326V79.1966ZM64.0365 79.2146C64.0365 79.5026 64.2345 79.7006 64.5225 79.7006C64.8285 79.7006 65.0085 79.5026 65.0085 79.2146C65.0085 78.9086 64.8105 78.7286 64.5225 78.7286C64.2165 78.7286 64.0365 78.9266 64.0365 79.2146ZM57.2505 80.1686C57.2505 79.8806 57.0705 79.7006 56.7825 79.7006C56.4765 79.7006 56.2965 79.8806 56.2965 80.1686C56.2965 80.4566 56.4765 80.6546 56.7645 80.6546C57.0525 80.6546 57.2505 80.4746 57.2505 80.1866V80.1686ZM64.0365 80.1866C64.0365 80.4746 64.2165 80.6546 64.5045 80.6546C64.8105 80.6546 65.0085 80.4746 65.0085 80.1866C65.0085 79.8986 64.8285 79.7006 64.5405 79.7006C64.2345 79.7006 64.0365 79.8806 64.0365 80.1686V80.1866ZM57.2505 81.1226C57.2505 80.8346 57.0705 80.6546 56.7825 80.6546C56.4945 80.6546 56.2965 80.8346 56.2965 81.1226C56.2965 81.4286 56.4765 81.6266 56.7645 81.6266C57.0525 81.6266 57.2505 81.4466 57.2505 81.1586V81.1226ZM64.0365 81.1406C64.0365 81.4286 64.2345 81.6266 64.5225 81.6266C64.8285 81.6266 65.0085 81.4286 65.0085 81.1406C65.0085 80.8346 64.8105 80.6546 64.5225 80.6546C64.2165 80.6546 64.0365 80.8526 64.0365 81.1406ZM57.2505 82.0946C57.2505 81.8066 57.0705 81.6266 56.7825 81.6266C56.4945 81.6266 56.2965 81.8066 56.2965 82.0946C56.2965 82.4006 56.4765 82.5986 56.7645 82.5986C57.0525 82.5986 57.2505 82.4186 57.2505 82.1306V82.0946ZM64.0365 82.1126C64.0365 82.4006 64.2345 82.5986 64.5225 82.5986C64.8285 82.5986 65.0085 82.4006 65.0085 82.1126C65.0085 81.8066 64.8105 81.6266 64.5225 81.6266C64.2165 81.6266 64.0365 81.8246 64.0365 82.1126ZM56.2965 83.1026C56.2965 83.3906 56.4765 83.5706 56.7645 83.5706C57.0525 83.5706 57.2505 83.3906 57.2505 83.1026C57.2505 82.7966 57.0705 82.5986 56.7825 82.5986C56.4945 82.5986 56.2965 82.7786 56.2965 83.0666V83.1026ZM64.0365 83.0846C64.0365 83.3726 64.2345 83.5706 64.5225 83.5706C64.8285 83.5706 65.0085 83.3726 65.0085 83.0846C65.0085 82.7786 64.8105 82.5986 64.5225 82.5986C64.2165 82.5986 64.0365 82.7966 64.0365 83.0846ZM68.8981 71.4746C68.8981 71.7626 69.0961 71.9426 69.3841 71.9426C69.6721 71.9426 69.8521 71.7446 69.8521 71.4386C69.8521 71.1506 69.6541 70.9706 69.3661 70.9706C69.0781 70.9706 68.8981 71.1506 68.8981 71.4386V71.4746ZM69.8521 71.4566C69.8521 71.7446 70.0321 71.9426 70.3381 71.9426C70.6261 71.9426 70.8241 71.7626 70.8241 71.4566C70.8241 71.1686 70.6441 70.9706 70.3381 70.9706C70.0501 70.9706 69.8521 71.1686 69.8521 71.4566ZM70.8241 71.4566C70.8241 71.7446 71.0041 71.9426 71.3101 71.9426C71.5981 71.9426 71.7961 71.7626 71.7961 71.4566C71.7961 71.1686 71.6161 70.9706 71.3101 70.9706C71.0221 70.9706 70.8241 71.1686 70.8241 71.4566ZM71.7961 71.4566C71.7961 71.7446 71.9761 71.9426 72.2821 71.9426C72.5701 71.9426 72.7681 71.7626 72.7681 71.4566C72.7681 71.1686 72.5881 70.9706 72.2821 70.9706C71.9941 70.9706 71.7961 71.1686 71.7961 71.4566ZM72.7681 71.4566C72.7681 71.7446 72.9481 71.9426 73.2541 71.9426C73.5421 71.9426 73.7401 71.7626 73.7401 71.4566C73.7401 71.1686 73.5601 70.9706 73.2541 70.9706C72.9661 70.9706 72.7681 71.1686 72.7681 71.4566ZM68.8981 72.4286C68.8981 72.1406 68.7181 71.9426 68.4121 71.9426C68.1241 71.9426 67.9261 72.1226 67.9261 72.4286C67.9261 72.7166 68.1061 72.9146 68.4121 72.9146C68.7001 72.9146 68.8981 72.7166 68.8981 72.4286ZM74.6941 72.4106C74.6941 72.1226 74.4961 71.9426 74.2081 71.9426C73.9201 71.9426 73.7401 72.1406 73.7401 72.4466C73.7401 72.7346 73.9381 72.9146 74.2261 72.9146C74.5141 72.9146 74.6941 72.7346 74.6941 72.4466V72.4106ZM67.9261 73.4006C67.9261 73.1126 67.7461 72.9146 67.4401 72.9146C67.1521 72.9146 66.9541 73.0946 66.9541 73.4006C66.9541 73.6886 67.1341 73.8866 67.4401 73.8866C67.7281 73.8866 67.9261 73.6886 67.9261 73.4006ZM75.6661 73.4006C75.6661 73.1126 75.4861 72.9146 75.1801 72.9146C74.8921 72.9146 74.6941 73.0946 74.6941 73.4006C74.6941 73.6886 74.8741 73.8866 75.1801 73.8866C75.4681 73.8866 75.6661 73.6886 75.6661 73.4006ZM67.9261 74.3546C67.9261 74.0666 67.7281 73.8866 67.4221 73.8866C67.1341 73.8866 66.9541 74.0846 66.9541 74.3726C66.9541 74.6606 67.1521 74.8406 67.4581 74.8406C67.7461 74.8406 67.9261 74.6606 67.9261 74.3726V74.3546ZM75.6661 74.3546C75.6661 74.0666 75.4681 73.8866 75.1621 73.8866C74.8741 73.8866 74.6941 74.0846 74.6941 74.3726C74.6941 74.6606 74.8921 74.8406 75.1981 74.8406C75.4861 74.8406 75.6661 74.6606 75.6661 74.3726V74.3546ZM66.9541 75.3266C66.9541 75.0386 66.7741 74.8406 66.4681 74.8406C66.1801 74.8406 65.9821 75.0206 65.9821 75.3266C65.9821 75.6146 66.1621 75.8126 66.4681 75.8126C66.7561 75.8126 66.9541 75.6146 66.9541 75.3266ZM75.6661 75.3266C75.6661 75.6146 75.8461 75.8126 76.1521 75.8126C76.4401 75.8126 76.6381 75.6326 76.6381 75.3266C76.6381 75.0386 76.4581 74.8406 76.1521 74.8406C75.8641 74.8406 75.6661 75.0386 75.6661 75.3266ZM66.9541 76.2986C66.9541 76.0106 66.7741 75.8126 66.4681 75.8126C66.1801 75.8126 65.9821 75.9926 65.9821 76.2986C65.9821 76.5866 66.1621 76.7846 66.4681 76.7846C66.7561 76.7846 66.9541 76.5866 66.9541 76.2986ZM75.6661 76.2986C75.6661 76.5866 75.8461 76.7846 76.1521 76.7846C76.4401 76.7846 76.6381 76.6046 76.6381 76.2986C76.6381 76.0106 76.4581 75.8126 76.1521 75.8126C75.8641 75.8126 75.6661 76.0106 75.6661 76.2986ZM66.9541 77.2706C66.9541 76.9826 66.7741 76.7846 66.4681 76.7846C66.1801 76.7846 65.9821 76.9646 65.9821 77.2706C65.9821 77.5586 66.1621 77.7566 66.4681 77.7566C66.7561 77.7566 66.9541 77.5586 66.9541 77.2706ZM75.6661 77.2706C75.6661 77.5586 75.8461 77.7566 76.1521 77.7566C76.4401 77.7566 76.6381 77.5766 76.6381 77.2706C76.6381 76.9826 76.4581 76.7846 76.1521 76.7846C75.8641 76.7846 75.6661 76.9826 75.6661 77.2706ZM66.9541 78.2426C66.9541 77.9546 66.7741 77.7566 66.4681 77.7566C66.1801 77.7566 65.9821 77.9366 65.9821 78.2426C65.9821 78.5306 66.1621 78.7286 66.4681 78.7286C66.7561 78.7286 66.9541 78.5306 66.9541 78.2426ZM75.6661 78.2426C75.6661 78.5306 75.8461 78.7286 76.1521 78.7286C76.4401 78.7286 76.6381 78.5486 76.6381 78.2426C76.6381 77.9546 76.4581 77.7566 76.1521 77.7566C75.8641 77.7566 75.6661 77.9546 75.6661 78.2426ZM75.6661 79.2146C75.6661 79.5026 75.8461 79.7006 76.1521 79.7006C76.4401 79.7006 76.6381 79.5206 76.6381 79.2146C76.6381 78.9266 76.4581 78.7286 76.1521 78.7286C75.8641 78.7286 75.6661 78.9266 75.6661 79.2146ZM66.9541 79.2146C66.9541 78.9266 66.7741 78.7286 66.4681 78.7286C66.1801 78.7286 65.9821 78.9086 65.9821 79.2146C65.9821 79.5026 66.1621 79.7006 66.4681 79.7006C66.7561 79.7006 66.9541 79.5026 66.9541 79.2146ZM75.6661 80.1686C75.6661 79.8806 75.4681 79.7006 75.1621 79.7006C74.8741 79.7006 74.6941 79.8986 74.6941 80.1866C74.6941 80.4746 74.8921 80.6546 75.1981 80.6546C75.4861 80.6546 75.6661 80.4746 75.6661 80.1866V80.1686ZM67.9261 80.1686C67.9261 79.8806 67.7281 79.7006 67.4221 79.7006C67.1341 79.7006 66.9541 79.8986 66.9541 80.1866C66.9541 80.4746 67.1521 80.6546 67.4581 80.6546C67.7461 80.6546 67.9261 80.4746 67.9261 80.1866V80.1686ZM75.6661 81.1406C75.6661 80.8526 75.4861 80.6546 75.1801 80.6546C74.8921 80.6546 74.6941 80.8346 74.6941 81.1406C74.6941 81.4286 74.8741 81.6266 75.1801 81.6266C75.4681 81.6266 75.6661 81.4286 75.6661 81.1406ZM67.9261 81.1406C67.9261 80.8526 67.7461 80.6546 67.4401 80.6546C67.1521 80.6546 66.9541 80.8346 66.9541 81.1406C66.9541 81.4286 67.1341 81.6266 67.4401 81.6266C67.7281 81.6266 67.9261 81.4286 67.9261 81.1406ZM74.6941 82.0946C74.6941 81.8066 74.4961 81.6266 74.2081 81.6266C73.9201 81.6266 73.7401 81.8246 73.7401 82.1306C73.7401 82.4186 73.9381 82.5986 74.2261 82.5986C74.5141 82.5986 74.6941 82.4186 74.6941 82.1306V82.0946ZM68.8981 82.1126C68.8981 81.8246 68.7181 81.6266 68.4121 81.6266C68.1241 81.6266 67.9261 81.8066 67.9261 82.1126C67.9261 82.4006 68.1061 82.5986 68.4121 82.5986C68.7001 82.5986 68.8981 82.4006 68.8981 82.1126ZM72.7681 83.0846C72.7681 83.3726 72.9481 83.5706 73.2541 83.5706C73.5421 83.5706 73.7401 83.3906 73.7401 83.0846C73.7401 82.7966 73.5601 82.5986 73.2541 82.5986C72.9661 82.5986 72.7681 82.7966 72.7681 83.0846ZM71.7961 83.0846C71.7961 83.3726 71.9761 83.5706 72.2821 83.5706C72.5701 83.5706 72.7681 83.3906 72.7681 83.0846C72.7681 82.7966 72.5881 82.5986 72.2821 82.5986C71.9941 82.5986 71.7961 82.7966 71.7961 83.0846ZM69.8521 83.0846C69.8521 83.3726 70.0321 83.5706 70.3381 83.5706C70.6261 83.5706 70.8241 83.3906 70.8241 83.0846C70.8241 82.7966 70.6441 82.5986 70.3381 82.5986C70.0501 82.5986 69.8521 82.7966 69.8521 83.0846ZM68.8981 83.1026C68.8981 83.3906 69.0961 83.5706 69.3841 83.5706C69.6721 83.5706 69.8521 83.3726 69.8521 83.0666C69.8521 82.7786 69.6541 82.5986 69.3661 82.5986C69.0781 82.5986 68.8981 82.7786 68.8981 83.0666V83.1026ZM70.8241 83.0846C70.8241 83.3726 71.0041 83.5706 71.3101 83.5706C71.5981 83.5706 71.7961 83.3906 71.7961 83.0846C71.7961 82.7966 71.6161 82.5986 71.3101 82.5986C71.0221 82.5986 70.8241 82.7966 70.8241 83.0846ZM76.6169 71.4566C76.6169 71.7446 76.8149 71.9426 77.1029 71.9426C77.4089 71.9426 77.5889 71.7446 77.5889 71.4566C77.5889 71.1506 77.3909 70.9706 77.1029 70.9706C76.7969 70.9706 76.6169 71.1686 76.6169 71.4566ZM92.1329 71.4746C92.1329 71.7626 92.3129 71.9426 92.6009 71.9426C92.8889 71.9426 93.0869 71.7626 93.0869 71.4746C93.0869 71.1686 92.9069 70.9706 92.6189 70.9706C92.3309 70.9706 92.1329 71.1506 92.1329 71.4386V71.4746ZM84.3749 71.4566C84.3749 71.7446 84.5729 71.9426 84.8609 71.9426C85.1669 71.9426 85.3469 71.7446 85.3469 71.4566C85.3469 71.1506 85.1489 70.9706 84.8609 70.9706C84.5549 70.9706 84.3749 71.1686 84.3749 71.4566ZM85.3469 72.4286C85.3469 72.1406 85.1489 71.9426 84.8609 71.9426C84.5549 71.9426 84.3749 72.1406 84.3749 72.4286C84.3749 72.7346 84.5729 72.9146 84.8609 72.9146C85.1669 72.9146 85.3469 72.7166 85.3469 72.4286ZM92.1329 72.4466C92.1329 72.7346 92.3129 72.9146 92.6009 72.9146C92.8889 72.9146 93.0869 72.7346 93.0869 72.4466C93.0869 72.1406 92.9069 71.9426 92.6189 71.9426C92.3309 71.9426 92.1329 72.1226 92.1329 72.4106V72.4466ZM77.5889 72.4286C77.5889 72.1406 77.3909 71.9426 77.1029 71.9426C76.7969 71.9426 76.6169 72.1406 76.6169 72.4286C76.6169 72.7346 76.8149 72.9146 77.1029 72.9146C77.4089 72.9146 77.5889 72.7166 77.5889 72.4286ZM92.1329 73.4006C92.1329 73.1126 91.9349 72.9146 91.6469 72.9146C91.3409 72.9146 91.1609 73.1126 91.1609 73.4006C91.1609 73.7066 91.3589 73.8866 91.6469 73.8866C91.9529 73.8866 92.1329 73.6886 92.1329 73.4006ZM86.3009 73.3826C86.3009 73.0946 86.1209 72.9146 85.8329 72.9146C85.5449 72.9146 85.3469 73.0946 85.3469 73.3826C85.3469 73.6886 85.5269 73.8866 85.8149 73.8866C86.1029 73.8866 86.3009 73.7066 86.3009 73.4186V73.3826ZM78.5609 73.4006C78.5609 73.1126 78.3629 72.9146 78.0749 72.9146C77.7689 72.9146 77.5889 73.1126 77.5889 73.4006C77.5889 73.7066 77.7869 73.8866 78.0749 73.8866C78.3809 73.8866 78.5609 73.6886 78.5609 73.4006ZM84.3749 73.4006C84.3749 73.1126 84.1769 72.9146 83.8889 72.9146C83.5829 72.9146 83.4029 73.1126 83.4029 73.4006C83.4029 73.7066 83.6009 73.8866 83.8889 73.8866C84.1949 73.8866 84.3749 73.6886 84.3749 73.4006ZM86.3009 74.3546C86.3009 74.0666 86.1209 73.8866 85.8329 73.8866C85.5269 73.8866 85.3469 74.0666 85.3469 74.3546C85.3469 74.6426 85.5269 74.8406 85.8149 74.8406C86.1029 74.8406 86.3009 74.6606 86.3009 74.3726V74.3546ZM92.1329 74.3546C92.1329 74.0666 91.9529 73.8866 91.6649 73.8866C91.3589 73.8866 91.1609 74.0666 91.1609 74.3546C91.1609 74.6426 91.3409 74.8406 91.6289 74.8406C91.9349 74.8406 92.1329 74.6606 92.1329 74.3726V74.3546ZM84.3749 74.3546C84.3749 74.0666 84.1949 73.8866 83.9069 73.8866C83.6009 73.8866 83.4029 74.0666 83.4029 74.3546C83.4029 74.6426 83.5829 74.8406 83.8709 74.8406C84.1769 74.8406 84.3749 74.6606 84.3749 74.3726V74.3546ZM78.5609 74.3546C78.5609 74.0666 78.3809 73.8866 78.0929 73.8866C77.7869 73.8866 77.5889 74.0666 77.5889 74.3546C77.5889 74.6426 77.7689 74.8406 78.0569 74.8406C78.3629 74.8406 78.5609 74.6606 78.5609 74.3726V74.3546ZM79.5329 75.3266C79.5329 75.0386 79.3349 74.8406 79.0469 74.8406C78.7409 74.8406 78.5609 75.0386 78.5609 75.3266C78.5609 75.6326 78.7589 75.8126 79.0469 75.8126C79.3529 75.8126 79.5329 75.6146 79.5329 75.3266ZM83.4029 75.3266C83.4029 75.0386 83.2049 74.8406 82.9169 74.8406C82.6109 74.8406 82.4309 75.0386 82.4309 75.3266C82.4309 75.6326 82.6289 75.8126 82.9169 75.8126C83.2229 75.8126 83.4029 75.6146 83.4029 75.3266ZM91.1609 75.3266C91.1609 75.0386 90.9629 74.8406 90.6749 74.8406C90.3689 74.8406 90.1889 75.0386 90.1889 75.3266C90.1889 75.6326 90.3869 75.8126 90.6749 75.8126C90.9809 75.8126 91.1609 75.6146 91.1609 75.3266ZM87.2729 75.3266C87.2729 75.0386 87.0749 74.8406 86.7869 74.8406C86.4809 74.8406 86.3009 75.0386 86.3009 75.3266C86.3009 75.6326 86.4989 75.8126 86.7869 75.8126C87.0929 75.8126 87.2729 75.6146 87.2729 75.3266ZM79.5329 76.2986C79.5329 76.0106 79.3349 75.8126 79.0469 75.8126C78.7409 75.8126 78.5609 76.0106 78.5609 76.2986C78.5609 76.6046 78.7589 76.7846 79.0469 76.7846C79.3529 76.7846 79.5329 76.5866 79.5329 76.2986ZM83.4029 76.2986C83.4029 76.0106 83.2049 75.8126 82.9169 75.8126C82.6109 75.8126 82.4309 76.0106 82.4309 76.2986C82.4309 76.6046 82.6289 76.7846 82.9169 76.7846C83.2229 76.7846 83.4029 76.5866 83.4029 76.2986ZM91.1609 76.2986C91.1609 76.0106 90.9629 75.8126 90.6749 75.8126C90.3689 75.8126 90.1889 76.0106 90.1889 76.2986C90.1889 76.6046 90.3869 76.7846 90.6749 76.7846C90.9809 76.7846 91.1609 76.5866 91.1609 76.2986ZM87.2729 76.2986C87.2729 76.0106 87.0749 75.8126 86.7869 75.8126C86.4809 75.8126 86.3009 76.0106 86.3009 76.2986C86.3009 76.6046 86.4989 76.7846 86.7869 76.7846C87.0929 76.7846 87.2729 76.5866 87.2729 76.2986ZM87.2729 77.2706C87.2729 76.9826 87.0749 76.7846 86.7869 76.7846C86.4809 76.7846 86.3009 76.9826 86.3009 77.2706C86.3009 77.5766 86.4989 77.7566 86.7869 77.7566C87.0929 77.7566 87.2729 77.5586 87.2729 77.2706ZM83.4029 77.2706C83.4029 76.9826 83.2049 76.7846 82.9169 76.7846C82.6109 76.7846 82.4309 76.9826 82.4309 77.2706C82.4309 77.5766 82.6289 77.7566 82.9169 77.7566C83.2229 77.7566 83.4029 77.5586 83.4029 77.2706ZM79.5329 77.2706C79.5329 76.9826 79.3349 76.7846 79.0469 76.7846C78.7409 76.7846 78.5609 76.9826 78.5609 77.2706C78.5609 77.5766 78.7589 77.7566 79.0469 77.7566C79.3529 77.7566 79.5329 77.5586 79.5329 77.2706ZM91.1609 77.2706C91.1609 76.9826 90.9629 76.7846 90.6749 76.7846C90.3689 76.7846 90.1889 76.9826 90.1889 77.2706C90.1889 77.5766 90.3869 77.7566 90.6749 77.7566C90.9809 77.7566 91.1609 77.5586 91.1609 77.2706ZM80.4869 78.2246C80.4869 77.9366 80.3069 77.7566 80.0189 77.7566C79.7309 77.7566 79.5329 77.9366 79.5329 78.2246C79.5329 78.5306 79.7129 78.7286 80.0009 78.7286C80.2889 78.7286 80.4869 78.5486 80.4869 78.2606V78.2246ZM88.2449 78.2426C88.2449 77.9546 88.0469 77.7566 87.7589 77.7566C87.4529 77.7566 87.2729 77.9546 87.2729 78.2426C87.2729 78.5486 87.4709 78.7286 87.7589 78.7286C88.0649 78.7286 88.2449 78.5306 88.2449 78.2426ZM90.1889 78.2426C90.1889 77.9546 89.9909 77.7566 89.7029 77.7566C89.3969 77.7566 89.2169 77.9546 89.2169 78.2426C89.2169 78.5486 89.4149 78.7286 89.7029 78.7286C90.0089 78.7286 90.1889 78.5306 90.1889 78.2426ZM82.4309 78.2426C82.4309 77.9546 82.2329 77.7566 81.9449 77.7566C81.6389 77.7566 81.4589 77.9546 81.4589 78.2426C81.4589 78.5486 81.6569 78.7286 81.9449 78.7286C82.2509 78.7286 82.4309 78.5306 82.4309 78.2426ZM80.4869 79.1966C80.4869 78.9086 80.3069 78.7286 80.0189 78.7286C79.7309 78.7286 79.5329 78.9086 79.5329 79.1966C79.5329 79.5026 79.7129 79.7006 80.0009 79.7006C80.2889 79.7006 80.4869 79.5206 80.4869 79.2326V79.1966ZM88.2449 79.2146C88.2449 78.9266 88.0469 78.7286 87.7589 78.7286C87.4529 78.7286 87.2729 78.9266 87.2729 79.2146C87.2729 79.5206 87.4709 79.7006 87.7589 79.7006C88.0649 79.7006 88.2449 79.5026 88.2449 79.2146ZM90.1889 79.2146C90.1889 78.9266 89.9909 78.7286 89.7029 78.7286C89.3969 78.7286 89.2169 78.9266 89.2169 79.2146C89.2169 79.5206 89.4149 79.7006 89.7029 79.7006C90.0089 79.7006 90.1889 79.5026 90.1889 79.2146ZM82.4309 79.2146C82.4309 78.9266 82.2329 78.7286 81.9449 78.7286C81.6389 78.7286 81.4589 78.9266 81.4589 79.2146C81.4589 79.5206 81.6569 79.7006 81.9449 79.7006C82.2509 79.7006 82.4309 79.5026 82.4309 79.2146ZM80.4869 80.1686C80.4869 79.8806 80.3069 79.7006 80.0189 79.7006C79.7129 79.7006 79.5329 79.8806 79.5329 80.1686C79.5329 80.4566 79.7129 80.6546 80.0009 80.6546C80.2889 80.6546 80.4869 80.4746 80.4869 80.1866V80.1686ZM88.2449 80.1686C88.2449 79.8806 88.0649 79.7006 87.7769 79.7006C87.4709 79.7006 87.2729 79.8806 87.2729 80.1686C87.2729 80.4566 87.4529 80.6546 87.7409 80.6546C88.0469 80.6546 88.2449 80.4746 88.2449 80.1866V80.1686ZM90.1889 80.1686C90.1889 79.8806 90.0089 79.7006 89.7209 79.7006C89.4149 79.7006 89.2169 79.8806 89.2169 80.1686C89.2169 80.4566 89.3969 80.6546 89.6849 80.6546C89.9909 80.6546 90.1889 80.4746 90.1889 80.1866V80.1686ZM82.4309 80.1686C82.4309 79.8806 82.2509 79.7006 81.9629 79.7006C81.6569 79.7006 81.4589 79.8806 81.4589 80.1686C81.4589 80.4566 81.6389 80.6546 81.9269 80.6546C82.2329 80.6546 82.4309 80.4746 82.4309 80.1866V80.1686ZM81.4589 81.1406C81.4589 80.8526 81.2609 80.6546 80.9729 80.6546C80.6669 80.6546 80.4869 80.8526 80.4869 81.1406C80.4869 81.4466 80.6849 81.6266 80.9729 81.6266C81.2789 81.6266 81.4589 81.4286 81.4589 81.1406ZM89.2169 81.1406C89.2169 80.8526 89.0189 80.6546 88.7309 80.6546C88.4249 80.6546 88.2449 80.8526 88.2449 81.1406C88.2449 81.4466 88.4429 81.6266 88.7309 81.6266C89.0369 81.6266 89.2169 81.4286 89.2169 81.1406ZM89.2169 82.1126C89.2169 81.8246 89.0189 81.6266 88.7309 81.6266C88.4249 81.6266 88.2449 81.8246 88.2449 82.1126C88.2449 82.4186 88.4429 82.5986 88.7309 82.5986C89.0369 82.5986 89.2169 82.4006 89.2169 82.1126ZM81.4589 82.1126C81.4589 81.8246 81.2609 81.6266 80.9729 81.6266C80.6669 81.6266 80.4869 81.8246 80.4869 82.1126C80.4869 82.4186 80.6849 82.5986 80.9729 82.5986C81.2789 82.5986 81.4589 82.4006 81.4589 82.1126ZM88.2449 83.0846C88.2449 83.3726 88.4429 83.5706 88.7309 83.5706C89.0369 83.5706 89.2169 83.3726 89.2169 83.0846C89.2169 82.7786 89.0189 82.5986 88.7309 82.5986C88.4249 82.5986 88.2449 82.7966 88.2449 83.0846ZM80.4869 83.0846C80.4869 83.3726 80.6849 83.5706 80.9729 83.5706C81.2789 83.5706 81.4589 83.3726 81.4589 83.0846C81.4589 82.7786 81.2609 82.5986 80.9729 82.5986C80.6669 82.5986 80.4869 82.7966 80.4869 83.0846ZM94.0544 71.4566C94.0544 71.7446 94.2524 71.9426 94.5404 71.9426C94.8464 71.9426 95.0264 71.7446 95.0264 71.4566C95.0264 71.1506 94.8284 70.9706 94.5404 70.9706C94.2344 70.9706 94.0544 71.1686 94.0544 71.4566ZM100.84 71.4746C100.84 71.7626 101.02 71.9426 101.308 71.9426C101.596 71.9426 101.794 71.7626 101.794 71.4746C101.794 71.1686 101.614 70.9706 101.326 70.9706C101.038 70.9706 100.84 71.1506 100.84 71.4386V71.4746ZM99.8684 71.4566C99.8684 71.7446 100.066 71.9426 100.354 71.9426C100.66 71.9426 100.84 71.7446 100.84 71.4566C100.84 71.1506 100.642 70.9706 100.354 70.9706C100.048 70.9706 99.8684 71.1686 99.8684 71.4566ZM98.8964 71.4566C98.8964 71.7446 99.0944 71.9426 99.3824 71.9426C99.6884 71.9426 99.8684 71.7446 99.8684 71.4566C99.8684 71.1506 99.6704 70.9706 99.3824 70.9706C99.0764 70.9706 98.8964 71.1686 98.8964 71.4566ZM97.9244 71.4566C97.9244 71.7446 98.1224 71.9426 98.4104 71.9426C98.7164 71.9426 98.8964 71.7446 98.8964 71.4566C98.8964 71.1506 98.6984 70.9706 98.4104 70.9706C98.1044 70.9706 97.9244 71.1686 97.9244 71.4566ZM96.9524 71.4566C96.9524 71.7446 97.1504 71.9426 97.4384 71.9426C97.7444 71.9426 97.9244 71.7446 97.9244 71.4566C97.9244 71.1506 97.7264 70.9706 97.4384 70.9706C97.1324 70.9706 96.9524 71.1686 96.9524 71.4566ZM95.0264 71.4746C95.0264 71.7626 95.2064 71.9426 95.4944 71.9426C95.7824 71.9426 95.9804 71.7626 95.9804 71.4746C95.9804 71.1686 95.8004 70.9706 95.5124 70.9706C95.2244 70.9706 95.0264 71.1506 95.0264 71.4386V71.4746ZM95.9804 71.4566C95.9804 71.7446 96.1784 71.9426 96.4664 71.9426C96.7724 71.9426 96.9524 71.7446 96.9524 71.4566C96.9524 71.1506 96.7544 70.9706 96.4664 70.9706C96.1604 70.9706 95.9804 71.1686 95.9804 71.4566ZM95.0264 72.4286C95.0264 72.1406 94.8284 71.9426 94.5404 71.9426C94.2344 71.9426 94.0544 72.1406 94.0544 72.4286C94.0544 72.7346 94.2524 72.9146 94.5404 72.9146C94.8464 72.9146 95.0264 72.7166 95.0264 72.4286ZM102.766 72.4286C102.766 72.1406 102.568 71.9426 102.28 71.9426C101.974 71.9426 101.794 72.1406 101.794 72.4286C101.794 72.7346 101.992 72.9146 102.28 72.9146C102.586 72.9146 102.766 72.7166 102.766 72.4286ZM95.0264 73.4006C95.0264 73.1126 94.8284 72.9146 94.5404 72.9146C94.2344 72.9146 94.0544 73.1126 94.0544 73.4006C94.0544 73.7066 94.2524 73.8866 94.5404 73.8866C94.8464 73.8866 95.0264 73.6886 95.0264 73.4006ZM102.766 73.4006C102.766 73.6886 102.964 73.8866 103.252 73.8866C103.558 73.8866 103.738 73.6886 103.738 73.4006C103.738 73.0946 103.54 72.9146 103.252 72.9146C102.946 72.9146 102.766 73.1126 102.766 73.4006ZM95.0264 74.3546C95.0264 74.0666 94.8464 73.8866 94.5584 73.8866C94.2524 73.8866 94.0544 74.0666 94.0544 74.3546C94.0544 74.6426 94.2344 74.8406 94.5224 74.8406C94.8284 74.8406 95.0264 74.6606 95.0264 74.3726V74.3546ZM102.766 74.3726C102.766 74.6606 102.946 74.8406 103.234 74.8406C103.54 74.8406 103.738 74.6606 103.738 74.3726C103.738 74.0846 103.558 73.8866 103.27 73.8866C102.964 73.8866 102.766 74.0666 102.766 74.3546V74.3726ZM95.0264 75.3266C95.0264 75.0386 94.8284 74.8406 94.5404 74.8406C94.2344 74.8406 94.0544 75.0386 94.0544 75.3266C94.0544 75.6326 94.2524 75.8126 94.5404 75.8126C94.8464 75.8126 95.0264 75.6146 95.0264 75.3266ZM102.766 75.3266C102.766 75.6146 102.964 75.8126 103.252 75.8126C103.558 75.8126 103.738 75.6146 103.738 75.3266C103.738 75.0206 103.54 74.8406 103.252 74.8406C102.946 74.8406 102.766 75.0386 102.766 75.3266ZM95.0264 76.2986C95.0264 76.0106 94.8284 75.8126 94.5404 75.8126C94.2344 75.8126 94.0544 76.0106 94.0544 76.2986C94.0544 76.6046 94.2524 76.7846 94.5404 76.7846C94.8464 76.7846 95.0264 76.5866 95.0264 76.2986ZM102.766 76.2986C102.766 76.5866 102.964 76.7846 103.252 76.7846C103.558 76.7846 103.738 76.5866 103.738 76.2986C103.738 75.9926 103.54 75.8126 103.252 75.8126C102.946 75.8126 102.766 76.0106 102.766 76.2986ZM95.0264 77.2706C95.0264 76.9826 94.8284 76.7846 94.5404 76.7846C94.2344 76.7846 94.0544 76.9826 94.0544 77.2706C94.0544 77.5766 94.2524 77.7566 94.5404 77.7566C94.8464 77.7566 95.0264 77.5586 95.0264 77.2706ZM102.766 77.2706C102.766 76.9826 102.568 76.7846 102.28 76.7846C101.974 76.7846 101.794 76.9826 101.794 77.2706C101.794 77.5766 101.992 77.7566 102.28 77.7566C102.586 77.7566 102.766 77.5586 102.766 77.2706ZM95.0264 78.2426C95.0264 77.9546 94.8284 77.7566 94.5404 77.7566C94.2344 77.7566 94.0544 77.9546 94.0544 78.2426C94.0544 78.5486 94.2524 78.7286 94.5404 78.7286C94.8464 78.7286 95.0264 78.5306 95.0264 78.2426ZM95.9804 78.2246C95.9804 77.9366 95.8004 77.7566 95.5124 77.7566C95.2244 77.7566 95.0264 77.9366 95.0264 78.2246C95.0264 78.5306 95.2064 78.7286 95.4944 78.7286C95.7824 78.7286 95.9804 78.5486 95.9804 78.2606V78.2246ZM96.9524 78.2426C96.9524 77.9546 96.7544 77.7566 96.4664 77.7566C96.1604 77.7566 95.9804 77.9546 95.9804 78.2426C95.9804 78.5486 96.1784 78.7286 96.4664 78.7286C96.7724 78.7286 96.9524 78.5306 96.9524 78.2426ZM97.9244 78.2426C97.9244 77.9546 97.7264 77.7566 97.4384 77.7566C97.1324 77.7566 96.9524 77.9546 96.9524 78.2426C96.9524 78.5486 97.1504 78.7286 97.4384 78.7286C97.7444 78.7286 97.9244 78.5306 97.9244 78.2426ZM98.8964 78.2426C98.8964 77.9546 98.6984 77.7566 98.4104 77.7566C98.1044 77.7566 97.9244 77.9546 97.9244 78.2426C97.9244 78.5486 98.1224 78.7286 98.4104 78.7286C98.7164 78.7286 98.8964 78.5306 98.8964 78.2426ZM99.8684 78.2426C99.8684 77.9546 99.6704 77.7566 99.3824 77.7566C99.0764 77.7566 98.8964 77.9546 98.8964 78.2426C98.8964 78.5486 99.0944 78.7286 99.3824 78.7286C99.6884 78.7286 99.8684 78.5306 99.8684 78.2426ZM100.84 78.2426C100.84 77.9546 100.642 77.7566 100.354 77.7566C100.048 77.7566 99.8684 77.9546 99.8684 78.2426C99.8684 78.5486 100.066 78.7286 100.354 78.7286C100.66 78.7286 100.84 78.5306 100.84 78.2426ZM101.794 78.2246C101.794 77.9366 101.614 77.7566 101.326 77.7566C101.038 77.7566 100.84 77.9366 100.84 78.2246C100.84 78.5306 101.02 78.7286 101.308 78.7286C101.596 78.7286 101.794 78.5486 101.794 78.2606V78.2246ZM95.0264 79.2146C95.0264 78.9266 94.8284 78.7286 94.5404 78.7286C94.2344 78.7286 94.0544 78.9266 94.0544 79.2146C94.0544 79.5206 94.2524 79.7006 94.5404 79.7006C94.8464 79.7006 95.0264 79.5026 95.0264 79.2146ZM102.766 79.2146C102.766 78.9266 102.568 78.7286 102.28 78.7286C101.974 78.7286 101.794 78.9266 101.794 79.2146C101.794 79.5206 101.992 79.7006 102.28 79.7006C102.586 79.7006 102.766 79.5026 102.766 79.2146ZM95.0264 80.1686C95.0264 79.8806 94.8464 79.7006 94.5584 79.7006C94.2524 79.7006 94.0544 79.8806 94.0544 80.1686C94.0544 80.4566 94.2344 80.6546 94.5224 80.6546C94.8284 80.6546 95.0264 80.4746 95.0264 80.1866V80.1686ZM102.766 80.1866C102.766 80.4746 102.946 80.6546 103.234 80.6546C103.54 80.6546 103.738 80.4746 103.738 80.1866C103.738 79.8986 103.558 79.7006 103.27 79.7006C102.964 79.7006 102.766 79.8806 102.766 80.1686V80.1866ZM95.0264 81.1406C95.0264 80.8526 94.8284 80.6546 94.5404 80.6546C94.2344 80.6546 94.0544 80.8526 94.0544 81.1406C94.0544 81.4466 94.2524 81.6266 94.5404 81.6266C94.8464 81.6266 95.0264 81.4286 95.0264 81.1406ZM102.766 81.1406C102.766 81.4286 102.964 81.6266 103.252 81.6266C103.558 81.6266 103.738 81.4286 103.738 81.1406C103.738 80.8346 103.54 80.6546 103.252 80.6546C102.946 80.6546 102.766 80.8526 102.766 81.1406ZM95.0264 82.1126C95.0264 81.8246 94.8284 81.6266 94.5404 81.6266C94.2344 81.6266 94.0544 81.8246 94.0544 82.1126C94.0544 82.4186 94.2524 82.5986 94.5404 82.5986C94.8464 82.5986 95.0264 82.4006 95.0264 82.1126ZM102.766 82.1126C102.766 82.4006 102.964 82.5986 103.252 82.5986C103.558 82.5986 103.738 82.4006 103.738 82.1126C103.738 81.8066 103.54 81.6266 103.252 81.6266C102.946 81.6266 102.766 81.8246 102.766 82.1126ZM94.0544 83.0846C94.0544 83.3726 94.2524 83.5706 94.5404 83.5706C94.8464 83.5706 95.0264 83.3726 95.0264 83.0846C95.0264 82.7786 94.8284 82.5986 94.5404 82.5986C94.2344 82.5986 94.0544 82.7966 94.0544 83.0846ZM102.766 83.0846C102.766 83.3726 102.964 83.5706 103.252 83.5706C103.558 83.5706 103.738 83.3726 103.738 83.0846C103.738 82.7786 103.54 82.5986 103.252 82.5986C102.946 82.5986 102.766 82.7966 102.766 83.0846ZM104.707 71.4566C104.707 71.7446 104.905 71.9426 105.193 71.9426C105.499 71.9426 105.679 71.7446 105.679 71.4566C105.679 71.1506 105.481 70.9706 105.193 70.9706C104.887 70.9706 104.707 71.1686 104.707 71.4566ZM112.465 71.4566C112.465 71.7446 112.663 71.9426 112.951 71.9426C113.257 71.9426 113.437 71.7446 113.437 71.4566C113.437 71.1506 113.239 70.9706 112.951 70.9706C112.645 70.9706 112.465 71.1686 112.465 71.4566ZM105.679 71.4566C105.679 71.7446 105.877 71.9426 106.165 71.9426C106.471 71.9426 106.651 71.7446 106.651 71.4566C106.651 71.1506 106.453 70.9706 106.165 70.9706C105.859 70.9706 105.679 71.1686 105.679 71.4566ZM106.651 71.4566C106.651 71.7446 106.849 71.9426 107.137 71.9426C107.443 71.9426 107.623 71.7446 107.623 71.4566C107.623 71.1506 107.425 70.9706 107.137 70.9706C106.831 70.9706 106.651 71.1686 106.651 71.4566ZM111.493 71.4566C111.493 71.7446 111.691 71.9426 111.979 71.9426C112.285 71.9426 112.465 71.7446 112.465 71.4566C112.465 71.1506 112.267 70.9706 111.979 70.9706C111.673 70.9706 111.493 71.1686 111.493 71.4566ZM107.623 71.4566C107.623 71.7446 107.821 71.9426 108.109 71.9426C108.415 71.9426 108.595 71.7446 108.595 71.4566C108.595 71.1506 108.397 70.9706 108.109 70.9706C107.803 70.9706 107.623 71.1686 107.623 71.4566ZM108.595 71.4566C108.595 71.7446 108.793 71.9426 109.081 71.9426C109.387 71.9426 109.567 71.7446 109.567 71.4566C109.567 71.1506 109.369 70.9706 109.081 70.9706C108.775 70.9706 108.595 71.1686 108.595 71.4566ZM109.567 71.4746C109.567 71.7626 109.747 71.9426 110.035 71.9426C110.323 71.9426 110.521 71.7626 110.521 71.4746C110.521 71.1686 110.341 70.9706 110.053 70.9706C109.765 70.9706 109.567 71.1506 109.567 71.4386V71.4746ZM110.521 71.4566C110.521 71.7446 110.719 71.9426 111.007 71.9426C111.313 71.9426 111.493 71.7446 111.493 71.4566C111.493 71.1506 111.295 70.9706 111.007 70.9706C110.701 70.9706 110.521 71.1686 110.521 71.4566ZM105.679 72.4286C105.679 72.1406 105.481 71.9426 105.193 71.9426C104.887 71.9426 104.707 72.1406 104.707 72.4286C104.707 72.7346 104.905 72.9146 105.193 72.9146C105.499 72.9146 105.679 72.7166 105.679 72.4286ZM105.679 73.4006C105.679 73.1126 105.481 72.9146 105.193 72.9146C104.887 72.9146 104.707 73.1126 104.707 73.4006C104.707 73.7066 104.905 73.8866 105.193 73.8866C105.499 73.8866 105.679 73.6886 105.679 73.4006ZM105.679 74.3546C105.679 74.0666 105.499 73.8866 105.211 73.8866C104.905 73.8866 104.707 74.0666 104.707 74.3546C104.707 74.6426 104.887 74.8406 105.175 74.8406C105.481 74.8406 105.679 74.6606 105.679 74.3726V74.3546ZM105.679 75.3266C105.679 75.0386 105.481 74.8406 105.193 74.8406C104.887 74.8406 104.707 75.0386 104.707 75.3266C104.707 75.6326 104.905 75.8126 105.193 75.8126C105.499 75.8126 105.679 75.6146 105.679 75.3266ZM105.679 76.2986C105.679 76.0106 105.481 75.8126 105.193 75.8126C104.887 75.8126 104.707 76.0106 104.707 76.2986C104.707 76.6046 104.905 76.7846 105.193 76.7846C105.499 76.7846 105.679 76.5866 105.679 76.2986ZM105.679 77.2706C105.679 76.9826 105.481 76.7846 105.193 76.7846C104.887 76.7846 104.707 76.9826 104.707 77.2706C104.707 77.5766 104.905 77.7566 105.193 77.7566C105.499 77.7566 105.679 77.5586 105.679 77.2706ZM106.651 77.2706C106.651 76.9826 106.453 76.7846 106.165 76.7846C105.859 76.7846 105.679 76.9826 105.679 77.2706C105.679 77.5766 105.877 77.7566 106.165 77.7566C106.471 77.7566 106.651 77.5586 106.651 77.2706ZM107.623 77.2706C107.623 76.9826 107.425 76.7846 107.137 76.7846C106.831 76.7846 106.651 76.9826 106.651 77.2706C106.651 77.5766 106.849 77.7566 107.137 77.7566C107.443 77.7566 107.623 77.5586 107.623 77.2706ZM111.493 77.2706C111.493 77.5766 111.691 77.7566 111.979 77.7566C112.285 77.7566 112.465 77.5586 112.465 77.2706C112.465 76.9826 112.267 76.7846 111.979 76.7846C111.673 76.7846 111.493 76.9826 111.493 77.2706ZM108.595 77.2706C108.595 76.9826 108.397 76.7846 108.109 76.7846C107.803 76.7846 107.623 76.9826 107.623 77.2706C107.623 77.5766 107.821 77.7566 108.109 77.7566C108.415 77.7566 108.595 77.5586 108.595 77.2706ZM109.567 77.2706C109.567 76.9826 109.369 76.7846 109.081 76.7846C108.775 76.7846 108.595 76.9826 108.595 77.2706C108.595 77.5766 108.793 77.7566 109.081 77.7566C109.387 77.7566 109.567 77.5586 109.567 77.2706ZM110.521 77.2706C110.521 77.5766 110.719 77.7566 111.007 77.7566C111.313 77.7566 111.493 77.5586 111.493 77.2706C111.493 76.9826 111.295 76.7846 111.007 76.7846C110.701 76.7846 110.521 76.9826 110.521 77.2706ZM110.521 77.2526C110.521 76.9646 110.341 76.7846 110.053 76.7846C109.765 76.7846 109.567 76.9646 109.567 77.2526C109.567 77.5586 109.747 77.7566 110.035 77.7566C110.323 77.7566 110.521 77.5766 110.521 77.2886V77.2526ZM105.679 78.2426C105.679 77.9546 105.481 77.7566 105.193 77.7566C104.887 77.7566 104.707 77.9546 104.707 78.2426C104.707 78.5486 104.905 78.7286 105.193 78.7286C105.499 78.7286 105.679 78.5306 105.679 78.2426ZM105.679 79.2146C105.679 78.9266 105.481 78.7286 105.193 78.7286C104.887 78.7286 104.707 78.9266 104.707 79.2146C104.707 79.5206 104.905 79.7006 105.193 79.7006C105.499 79.7006 105.679 79.5026 105.679 79.2146ZM105.679 80.1686C105.679 79.8806 105.499 79.7006 105.211 79.7006C104.905 79.7006 104.707 79.8806 104.707 80.1686C104.707 80.4566 104.887 80.6546 105.175 80.6546C105.481 80.6546 105.679 80.4746 105.679 80.1866V80.1686ZM105.679 81.1406C105.679 80.8526 105.481 80.6546 105.193 80.6546C104.887 80.6546 104.707 80.8526 104.707 81.1406C104.707 81.4466 104.905 81.6266 105.193 81.6266C105.499 81.6266 105.679 81.4286 105.679 81.1406ZM105.679 82.1126C105.679 81.8246 105.481 81.6266 105.193 81.6266C104.887 81.6266 104.707 81.8246 104.707 82.1126C104.707 82.4186 104.905 82.5986 105.193 82.5986C105.499 82.5986 105.679 82.4006 105.679 82.1126ZM108.595 83.0846C108.595 83.3726 108.793 83.5706 109.081 83.5706C109.387 83.5706 109.567 83.3726 109.567 83.0846C109.567 82.7786 109.369 82.5986 109.081 82.5986C108.775 82.5986 108.595 82.7966 108.595 83.0846ZM107.623 83.0846C107.623 83.3726 107.821 83.5706 108.109 83.5706C108.415 83.5706 108.595 83.3726 108.595 83.0846C108.595 82.7786 108.397 82.5986 108.109 82.5986C107.803 82.5986 107.623 82.7966 107.623 83.0846ZM109.567 83.1026C109.567 83.3906 109.747 83.5706 110.035 83.5706C110.323 83.5706 110.521 83.3906 110.521 83.1026C110.521 82.7966 110.341 82.5986 110.053 82.5986C109.765 82.5986 109.567 82.7786 109.567 83.0666V83.1026ZM110.521 83.0846C110.521 83.3726 110.719 83.5706 111.007 83.5706C111.313 83.5706 111.493 83.3726 111.493 83.0846C111.493 82.7786 111.295 82.5986 111.007 82.5986C110.701 82.5986 110.521 82.7966 110.521 83.0846ZM106.651 83.0846C106.651 83.3726 106.849 83.5706 107.137 83.5706C107.443 83.5706 107.623 83.3726 107.623 83.0846C107.623 82.7786 107.425 82.5986 107.137 82.5986C106.831 82.5986 106.651 82.7966 106.651 83.0846ZM111.493 83.0846C111.493 83.3726 111.691 83.5706 111.979 83.5706C112.285 83.5706 112.465 83.3726 112.465 83.0846C112.465 82.7786 112.267 82.5986 111.979 82.5986C111.673 82.5986 111.493 82.7966 111.493 83.0846ZM105.679 83.0846C105.679 83.3726 105.877 83.5706 106.165 83.5706C106.471 83.5706 106.651 83.3726 106.651 83.0846C106.651 82.7786 106.453 82.5986 106.165 82.5986C105.859 82.5986 105.679 82.7966 105.679 83.0846ZM104.707 83.0846C104.707 83.3726 104.905 83.5706 105.193 83.5706C105.499 83.5706 105.679 83.3726 105.679 83.0846C105.679 82.7786 105.481 82.5986 105.193 82.5986C104.887 82.5986 104.707 82.7966 104.707 83.0846ZM112.465 83.0846C112.465 83.3726 112.663 83.5706 112.951 83.5706C113.257 83.5706 113.437 83.3726 113.437 83.0846C113.437 82.7786 113.239 82.5986 112.951 82.5986C112.645 82.5986 112.465 82.7966 112.465 83.0846ZM114.41 71.4566C114.41 71.7446 114.608 71.9426 114.896 71.9426C115.202 71.9426 115.382 71.7446 115.382 71.4566C115.382 71.1506 115.184 70.9706 114.896 70.9706C114.59 70.9706 114.41 71.1686 114.41 71.4566ZM122.168 71.4566C122.168 71.7446 122.366 71.9426 122.654 71.9426C122.96 71.9426 123.14 71.7446 123.14 71.4566C123.14 71.1506 122.942 70.9706 122.654 70.9706C122.348 70.9706 122.168 71.1686 122.168 71.4566ZM115.382 71.4566C115.382 71.7446 115.58 71.9426 115.868 71.9426C116.174 71.9426 116.354 71.7446 116.354 71.4566C116.354 71.1506 116.156 70.9706 115.868 70.9706C115.562 70.9706 115.382 71.1686 115.382 71.4566ZM116.354 71.4566C116.354 71.7446 116.552 71.9426 116.84 71.9426C117.146 71.9426 117.326 71.7446 117.326 71.4566C117.326 71.1506 117.128 70.9706 116.84 70.9706C116.534 70.9706 116.354 71.1686 116.354 71.4566ZM121.196 71.4566C121.196 71.7446 121.394 71.9426 121.682 71.9426C121.988 71.9426 122.168 71.7446 122.168 71.4566C122.168 71.1506 121.97 70.9706 121.682 70.9706C121.376 70.9706 121.196 71.1686 121.196 71.4566ZM117.326 71.4566C117.326 71.7446 117.524 71.9426 117.812 71.9426C118.118 71.9426 118.298 71.7446 118.298 71.4566C118.298 71.1506 118.1 70.9706 117.812 70.9706C117.506 70.9706 117.326 71.1686 117.326 71.4566ZM118.298 71.4566C118.298 71.7446 118.496 71.9426 118.784 71.9426C119.09 71.9426 119.27 71.7446 119.27 71.4566C119.27 71.1506 119.072 70.9706 118.784 70.9706C118.478 70.9706 118.298 71.1686 118.298 71.4566ZM119.27 71.4746C119.27 71.7626 119.45 71.9426 119.738 71.9426C120.026 71.9426 120.224 71.7626 120.224 71.4746C120.224 71.1686 120.044 70.9706 119.756 70.9706C119.468 70.9706 119.27 71.1506 119.27 71.4386V71.4746ZM120.224 71.4566C120.224 71.7446 120.422 71.9426 120.71 71.9426C121.016 71.9426 121.196 71.7446 121.196 71.4566C121.196 71.1506 120.998 70.9706 120.71 70.9706C120.404 70.9706 120.224 71.1686 120.224 71.4566ZM115.382 72.4286C115.382 72.1406 115.184 71.9426 114.896 71.9426C114.59 71.9426 114.41 72.1406 114.41 72.4286C114.41 72.7346 114.608 72.9146 114.896 72.9146C115.202 72.9146 115.382 72.7166 115.382 72.4286ZM115.382 73.4006C115.382 73.1126 115.184 72.9146 114.896 72.9146C114.59 72.9146 114.41 73.1126 114.41 73.4006C114.41 73.7066 114.608 73.8866 114.896 73.8866C115.202 73.8866 115.382 73.6886 115.382 73.4006ZM115.382 74.3546C115.382 74.0666 115.202 73.8866 114.914 73.8866C114.608 73.8866 114.41 74.0666 114.41 74.3546C114.41 74.6426 114.59 74.8406 114.878 74.8406C115.184 74.8406 115.382 74.6606 115.382 74.3726V74.3546ZM115.382 75.3266C115.382 75.0386 115.184 74.8406 114.896 74.8406C114.59 74.8406 114.41 75.0386 114.41 75.3266C114.41 75.6326 114.608 75.8126 114.896 75.8126C115.202 75.8126 115.382 75.6146 115.382 75.3266ZM115.382 76.2986C115.382 76.0106 115.184 75.8126 114.896 75.8126C114.59 75.8126 114.41 76.0106 114.41 76.2986C114.41 76.6046 114.608 76.7846 114.896 76.7846C115.202 76.7846 115.382 76.5866 115.382 76.2986ZM115.382 77.2706C115.382 76.9826 115.184 76.7846 114.896 76.7846C114.59 76.7846 114.41 76.9826 114.41 77.2706C114.41 77.5766 114.608 77.7566 114.896 77.7566C115.202 77.7566 115.382 77.5586 115.382 77.2706ZM116.354 77.2706C116.354 76.9826 116.156 76.7846 115.868 76.7846C115.562 76.7846 115.382 76.9826 115.382 77.2706C115.382 77.5766 115.58 77.7566 115.868 77.7566C116.174 77.7566 116.354 77.5586 116.354 77.2706ZM117.326 77.2706C117.326 76.9826 117.128 76.7846 116.84 76.7846C116.534 76.7846 116.354 76.9826 116.354 77.2706C116.354 77.5766 116.552 77.7566 116.84 77.7566C117.146 77.7566 117.326 77.5586 117.326 77.2706ZM121.196 77.2706C121.196 77.5766 121.394 77.7566 121.682 77.7566C121.988 77.7566 122.168 77.5586 122.168 77.2706C122.168 76.9826 121.97 76.7846 121.682 76.7846C121.376 76.7846 121.196 76.9826 121.196 77.2706ZM118.298 77.2706C118.298 76.9826 118.1 76.7846 117.812 76.7846C117.506 76.7846 117.326 76.9826 117.326 77.2706C117.326 77.5766 117.524 77.7566 117.812 77.7566C118.118 77.7566 118.298 77.5586 118.298 77.2706ZM119.27 77.2706C119.27 76.9826 119.072 76.7846 118.784 76.7846C118.478 76.7846 118.298 76.9826 118.298 77.2706C118.298 77.5766 118.496 77.7566 118.784 77.7566C119.09 77.7566 119.27 77.5586 119.27 77.2706ZM120.224 77.2706C120.224 77.5766 120.422 77.7566 120.71 77.7566C121.016 77.7566 121.196 77.5586 121.196 77.2706C121.196 76.9826 120.998 76.7846 120.71 76.7846C120.404 76.7846 120.224 76.9826 120.224 77.2706ZM120.224 77.2526C120.224 76.9646 120.044 76.7846 119.756 76.7846C119.468 76.7846 119.27 76.9646 119.27 77.2526C119.27 77.5586 119.45 77.7566 119.738 77.7566C120.026 77.7566 120.224 77.5766 120.224 77.2886V77.2526ZM115.382 78.2426C115.382 77.9546 115.184 77.7566 114.896 77.7566C114.59 77.7566 114.41 77.9546 114.41 78.2426C114.41 78.5486 114.608 78.7286 114.896 78.7286C115.202 78.7286 115.382 78.5306 115.382 78.2426ZM115.382 79.2146C115.382 78.9266 115.184 78.7286 114.896 78.7286C114.59 78.7286 114.41 78.9266 114.41 79.2146C114.41 79.5206 114.608 79.7006 114.896 79.7006C115.202 79.7006 115.382 79.5026 115.382 79.2146ZM115.382 80.1686C115.382 79.8806 115.202 79.7006 114.914 79.7006C114.608 79.7006 114.41 79.8806 114.41 80.1686C114.41 80.4566 114.59 80.6546 114.878 80.6546C115.184 80.6546 115.382 80.4746 115.382 80.1866V80.1686ZM115.382 81.1406C115.382 80.8526 115.184 80.6546 114.896 80.6546C114.59 80.6546 114.41 80.8526 114.41 81.1406C114.41 81.4466 114.608 81.6266 114.896 81.6266C115.202 81.6266 115.382 81.4286 115.382 81.1406ZM115.382 82.1126C115.382 81.8246 115.184 81.6266 114.896 81.6266C114.59 81.6266 114.41 81.8246 114.41 82.1126C114.41 82.4186 114.608 82.5986 114.896 82.5986C115.202 82.5986 115.382 82.4006 115.382 82.1126ZM118.298 83.0846C118.298 83.3726 118.496 83.5706 118.784 83.5706C119.09 83.5706 119.27 83.3726 119.27 83.0846C119.27 82.7786 119.072 82.5986 118.784 82.5986C118.478 82.5986 118.298 82.7966 118.298 83.0846ZM117.326 83.0846C117.326 83.3726 117.524 83.5706 117.812 83.5706C118.118 83.5706 118.298 83.3726 118.298 83.0846C118.298 82.7786 118.1 82.5986 117.812 82.5986C117.506 82.5986 117.326 82.7966 117.326 83.0846ZM119.27 83.1026C119.27 83.3906 119.45 83.5706 119.738 83.5706C120.026 83.5706 120.224 83.3906 120.224 83.1026C120.224 82.7966 120.044 82.5986 119.756 82.5986C119.468 82.5986 119.27 82.7786 119.27 83.0666V83.1026ZM120.224 83.0846C120.224 83.3726 120.422 83.5706 120.71 83.5706C121.016 83.5706 121.196 83.3726 121.196 83.0846C121.196 82.7786 120.998 82.5986 120.71 82.5986C120.404 82.5986 120.224 82.7966 120.224 83.0846ZM116.354 83.0846C116.354 83.3726 116.552 83.5706 116.84 83.5706C117.146 83.5706 117.326 83.3726 117.326 83.0846C117.326 82.7786 117.128 82.5986 116.84 82.5986C116.534 82.5986 116.354 82.7966 116.354 83.0846ZM121.196 83.0846C121.196 83.3726 121.394 83.5706 121.682 83.5706C121.988 83.5706 122.168 83.3726 122.168 83.0846C122.168 82.7786 121.97 82.5986 121.682 82.5986C121.376 82.5986 121.196 82.7966 121.196 83.0846ZM115.382 83.0846C115.382 83.3726 115.58 83.5706 115.868 83.5706C116.174 83.5706 116.354 83.3726 116.354 83.0846C116.354 82.7786 116.156 82.5986 115.868 82.5986C115.562 82.5986 115.382 82.7966 115.382 83.0846ZM114.41 83.0846C114.41 83.3726 114.608 83.5706 114.896 83.5706C115.202 83.5706 115.382 83.3726 115.382 83.0846C115.382 82.7786 115.184 82.5986 114.896 82.5986C114.59 82.5986 114.41 82.7966 114.41 83.0846ZM122.168 83.0846C122.168 83.3726 122.366 83.5706 122.654 83.5706C122.96 83.5706 123.14 83.3726 123.14 83.0846C123.14 82.7786 122.942 82.5986 122.654 82.5986C122.348 82.5986 122.168 82.7966 122.168 83.0846ZM124.113 71.4566C124.113 71.7446 124.311 71.9426 124.599 71.9426C124.905 71.9426 125.085 71.7446 125.085 71.4566C125.085 71.1506 124.887 70.9706 124.599 70.9706C124.293 70.9706 124.113 71.1686 124.113 71.4566ZM125.085 72.4286C125.085 72.1406 124.887 71.9426 124.599 71.9426C124.293 71.9426 124.113 72.1406 124.113 72.4286C124.113 72.7346 124.311 72.9146 124.599 72.9146C124.905 72.9146 125.085 72.7166 125.085 72.4286ZM125.085 73.4006C125.085 73.1126 124.887 72.9146 124.599 72.9146C124.293 72.9146 124.113 73.1126 124.113 73.4006C124.113 73.7066 124.311 73.8866 124.599 73.8866C124.905 73.8866 125.085 73.6886 125.085 73.4006ZM125.085 74.3546C125.085 74.0666 124.905 73.8866 124.617 73.8866C124.311 73.8866 124.113 74.0666 124.113 74.3546C124.113 74.6426 124.293 74.8406 124.581 74.8406C124.887 74.8406 125.085 74.6606 125.085 74.3726V74.3546ZM125.085 75.3266C125.085 75.0386 124.887 74.8406 124.599 74.8406C124.293 74.8406 124.113 75.0386 124.113 75.3266C124.113 75.6326 124.311 75.8126 124.599 75.8126C124.905 75.8126 125.085 75.6146 125.085 75.3266ZM125.085 76.2986C125.085 76.0106 124.887 75.8126 124.599 75.8126C124.293 75.8126 124.113 76.0106 124.113 76.2986C124.113 76.6046 124.311 76.7846 124.599 76.7846C124.905 76.7846 125.085 76.5866 125.085 76.2986ZM125.085 77.2706C125.085 76.9826 124.887 76.7846 124.599 76.7846C124.293 76.7846 124.113 76.9826 124.113 77.2706C124.113 77.5766 124.311 77.7566 124.599 77.7566C124.905 77.7566 125.085 77.5586 125.085 77.2706ZM125.085 78.2426C125.085 77.9546 124.887 77.7566 124.599 77.7566C124.293 77.7566 124.113 77.9546 124.113 78.2426C124.113 78.5486 124.311 78.7286 124.599 78.7286C124.905 78.7286 125.085 78.5306 125.085 78.2426ZM125.085 79.2146C125.085 78.9266 124.887 78.7286 124.599 78.7286C124.293 78.7286 124.113 78.9266 124.113 79.2146C124.113 79.5206 124.311 79.7006 124.599 79.7006C124.905 79.7006 125.085 79.5026 125.085 79.2146ZM125.085 80.1686C125.085 79.8806 124.905 79.7006 124.617 79.7006C124.311 79.7006 124.113 79.8806 124.113 80.1686C124.113 80.4566 124.293 80.6546 124.581 80.6546C124.887 80.6546 125.085 80.4746 125.085 80.1866V80.1686ZM125.085 81.1406C125.085 80.8526 124.887 80.6546 124.599 80.6546C124.293 80.6546 124.113 80.8526 124.113 81.1406C124.113 81.4466 124.311 81.6266 124.599 81.6266C124.905 81.6266 125.085 81.4286 125.085 81.1406ZM125.085 82.1126C125.085 81.8246 124.887 81.6266 124.599 81.6266C124.293 81.6266 124.113 81.8246 124.113 82.1126C124.113 82.4186 124.311 82.5986 124.599 82.5986C124.905 82.5986 125.085 82.4006 125.085 82.1126ZM124.113 83.0846C124.113 83.3726 124.311 83.5706 124.599 83.5706C124.905 83.5706 125.085 83.3726 125.085 83.0846C125.085 82.7786 124.887 82.5986 124.599 82.5986C124.293 82.5986 124.113 82.7966 124.113 83.0846ZM125.085 83.0846C125.085 83.3726 125.283 83.5706 125.571 83.5706C125.877 83.5706 126.057 83.3726 126.057 83.0846C126.057 82.7786 125.859 82.5986 125.571 82.5986C125.265 82.5986 125.085 82.7966 125.085 83.0846ZM126.057 83.0846C126.057 83.3726 126.255 83.5706 126.543 83.5706C126.849 83.5706 127.029 83.3726 127.029 83.0846C127.029 82.7786 126.831 82.5986 126.543 82.5986C126.237 82.5986 126.057 82.7966 126.057 83.0846ZM127.029 83.0846C127.029 83.3726 127.227 83.5706 127.515 83.5706C127.821 83.5706 128.001 83.3726 128.001 83.0846C128.001 82.7786 127.803 82.5986 127.515 82.5986C127.209 82.5986 127.029 82.7966 127.029 83.0846ZM128.001 83.0846C128.001 83.3726 128.199 83.5706 128.487 83.5706C128.793 83.5706 128.973 83.3726 128.973 83.0846C128.973 82.7786 128.775 82.5986 128.487 82.5986C128.181 82.5986 128.001 82.7966 128.001 83.0846ZM128.973 83.0846C128.973 83.3726 129.171 83.5706 129.459 83.5706C129.765 83.5706 129.945 83.3726 129.945 83.0846C129.945 82.7786 129.747 82.5986 129.459 82.5986C129.153 82.5986 128.973 82.7966 128.973 83.0846ZM129.945 83.1026C129.945 83.3906 130.125 83.5706 130.413 83.5706C130.701 83.5706 130.899 83.3906 130.899 83.1026C130.899 82.7966 130.719 82.5986 130.431 82.5986C130.143 82.5986 129.945 82.7786 129.945 83.0666V83.1026ZM130.899 83.0846C130.899 83.3726 131.097 83.5706 131.385 83.5706C131.691 83.5706 131.871 83.3726 131.871 83.0846C131.871 82.7786 131.673 82.5986 131.385 82.5986C131.079 82.5986 130.899 82.7966 130.899 83.0846Z" fill="#28272F"/>
<path d="M79 30.6667C79 37.3036 73.6369 42.6667 67 42.6667C60.3631 42.6667 55 37.3036 55 30.6667C55 24.0299 60.3631 18.6667 67 18.6667C73.6369 18.6667 79 24.0299 79 30.6667Z" fill="black" stroke="black" stroke-width="2.48276" stroke-linecap="round" stroke-linejoin="round"/>

    <path d="M67 52.6668C78.7847 52.6668 89.7682 47.2207 97.4133 37.7947C100.418 34.1029 100.418 27.8974 97.4133 24.2056C89.7682 14.7796 78.7847 9.3335 67 9.3335C55.2153 9.3335 44.2319 14.7796 36.5868 24.2056C33.5822 27.8974 33.5822 34.1029 36.5868 37.7947C44.2319 47.2207 55.2153 52.6668 67 52.6668Z" stroke="#292D32" stroke-width="2.48276" stroke-linecap="round" stroke-linejoin="round"/>
    <animateTransform
            attributeName="transform"
            dur="0.5s"
            from="0 50 50"
            to="180 50 50"
            type="rotate"
            id="strokeBox"
            attributeType="XML"
            begin="rectBox.end"/>

    <animate attributeName="d" dur="3s" repeatCount="indefinite" values="M67 52.6668C78.7847 52.6668 89.7682 47.2207 97.4133 37.7947C100.418 34.1029 100.418 27.8974 97.4133" keyTimes="0 ; 0.1 ; 0.2 ; 1" />
</svg>
