<svg width="132" height="14" viewBox="0 0 132 14" fill="none" xmlns="http://www.w3.org/2000/svg">
    <path d="M0.486 1.45656C0.486 1.74456 0.684 1.94256 0.972 1.94256C1.278 1.94256 1.458 1.74456 1.458 1.45656C1.458 1.15056 1.26 0.970556 0.972 0.970556C0.666 0.970556 0.486 1.16856 0.486 1.45656ZM10.17 1.45656C10.17 1.74456 10.368 1.94256 10.656 1.94256C10.962 1.94256 11.142 1.74456 11.142 1.45656C11.142 1.15056 10.944 0.970556 10.656 0.970556C10.35 0.970556 10.17 1.16856 10.17 1.45656ZM1.458 2.42856C1.458 2.14056 1.26 1.94256 0.972 1.94256C0.666 1.94256 0.486 2.14056 0.486 2.42856C0.486 2.73456 0.684 2.91456 0.972 2.91456C1.278 2.91456 1.458 2.71656 1.458 2.42856ZM10.17 2.42856C10.17 2.71656 10.368 2.91456 10.656 2.91456C10.962 2.91456 11.142 2.71656 11.142 2.42856C11.142 2.12256 10.944 1.94256 10.656 1.94256C10.35 1.94256 10.17 2.14056 10.17 2.42856ZM1.458 3.40056C1.458 3.11256 1.26 2.91456 0.972 2.91456C0.666 2.91456 0.486 3.11256 0.486 3.40056C0.486 3.70656 0.684 3.88656 0.972 3.88656C1.278 3.88656 1.458 3.68856 1.458 3.40056ZM10.17 3.40056C10.17 3.68856 10.368 3.88656 10.656 3.88656C10.962 3.88656 11.142 3.68856 11.142 3.40056C11.142 3.09456 10.944 2.91456 10.656 2.91456C10.35 2.91456 10.17 3.11256 10.17 3.40056ZM2.412 4.35456C2.412 4.06656 2.232 3.88656 1.944 3.88656C1.638 3.88656 1.458 4.06656 1.458 4.35456C1.458 4.64256 1.638 4.84056 1.926 4.84056C2.214 4.84056 2.412 4.66056 2.412 4.37256V4.35456ZM10.17 4.35456C10.17 4.06656 9.99 3.88656 9.702 3.88656C9.396 3.88656 9.198 4.06656 9.198 4.35456C9.198 4.64256 9.378 4.84056 9.666 4.84056C9.972 4.84056 10.17 4.66056 10.17 4.37256V4.35456ZM2.412 5.30856C2.412 5.02056 2.232 4.84056 1.944 4.84056C1.656 4.84056 1.458 5.02056 1.458 5.30856C1.458 5.61456 1.638 5.81256 1.926 5.81256C2.214 5.81256 2.412 5.63256 2.412 5.34456V5.30856ZM10.17 5.32656C10.17 5.03856 9.972 4.84056 9.684 4.84056C9.378 4.84056 9.198 5.03856 9.198 5.32656C9.198 5.63256 9.396 5.81256 9.684 5.81256C9.99 5.81256 10.17 5.61456 10.17 5.32656ZM3.384 6.29856C3.384 6.01056 3.186 5.81256 2.898 5.81256C2.592 5.81256 2.412 6.01056 2.412 6.29856C2.412 6.60456 2.61 6.78456 2.898 6.78456C3.204 6.78456 3.384 6.58656 3.384 6.29856ZM9.198 6.29856C9.198 6.01056 9 5.81256 8.712 5.81256C8.406 5.81256 8.226 6.01056 8.226 6.29856C8.226 6.60456 8.424 6.78456 8.712 6.78456C9.018 6.78456 9.198 6.58656 9.198 6.29856ZM3.384 7.27056C3.384 6.98256 3.186 6.78456 2.898 6.78456C2.592 6.78456 2.412 6.98256 2.412 7.27056C2.412 7.57656 2.61 7.75656 2.898 7.75656C3.204 7.75656 3.384 7.55856 3.384 7.27056ZM9.198 7.27056C9.198 6.98256 9 6.78456 8.712 6.78456C8.406 6.78456 8.226 6.98256 8.226 7.27056C8.226 7.57656 8.424 7.75656 8.712 7.75656C9.018 7.75656 9.198 7.55856 9.198 7.27056ZM3.384 8.24256C3.384 7.95456 3.186 7.75656 2.898 7.75656C2.592 7.75656 2.412 7.95456 2.412 8.24256C2.412 8.54856 2.61 8.72856 2.898 8.72856C3.204 8.72856 3.384 8.53056 3.384 8.24256ZM9.198 8.24256C9.198 7.95456 9 7.75656 8.712 7.75656C8.406 7.75656 8.226 7.95456 8.226 8.24256C8.226 8.54856 8.424 8.72856 8.712 8.72856C9.018 8.72856 9.198 8.53056 9.198 8.24256ZM4.356 9.21456C4.356 8.92656 4.158 8.72856 3.87 8.72856C3.564 8.72856 3.384 8.92656 3.384 9.21456C3.384 9.52056 3.582 9.70056 3.87 9.70056C4.176 9.70056 4.356 9.50256 4.356 9.21456ZM8.226 9.19656C8.226 8.90856 8.046 8.72856 7.758 8.72856C7.47 8.72856 7.272 8.90856 7.272 9.19656C7.272 9.50256 7.452 9.70056 7.74 9.70056C8.028 9.70056 8.226 9.52056 8.226 9.23256V9.19656ZM4.356 10.1686C4.356 9.88056 4.176 9.70056 3.888 9.70056C3.582 9.70056 3.384 9.88056 3.384 10.1686C3.384 10.4566 3.564 10.6546 3.852 10.6546C4.158 10.6546 4.356 10.4746 4.356 10.1866V10.1686ZM8.226 10.1686C8.226 9.88056 8.046 9.70056 7.758 9.70056C7.452 9.70056 7.272 9.88056 7.272 10.1686C7.272 10.4566 7.452 10.6546 7.74 10.6546C8.028 10.6546 8.226 10.4746 8.226 10.1866V10.1686ZM5.328 11.1406C5.328 10.8526 5.13 10.6546 4.842 10.6546C4.536 10.6546 4.356 10.8526 4.356 11.1406C4.356 11.4466 4.554 11.6266 4.842 11.6266C5.148 11.6266 5.328 11.4286 5.328 11.1406ZM7.272 11.1406C7.272 10.8526 7.074 10.6546 6.786 10.6546C6.48 10.6546 6.3 10.8526 6.3 11.1406C6.3 11.4466 6.498 11.6266 6.786 11.6266C7.092 11.6266 7.272 11.4286 7.272 11.1406ZM5.328 12.1126C5.328 11.8246 5.13 11.6266 4.842 11.6266C4.536 11.6266 4.356 11.8246 4.356 12.1126C4.356 12.4186 4.554 12.5986 4.842 12.5986C5.148 12.5986 5.328 12.4006 5.328 12.1126ZM7.272 12.1126C7.272 11.8246 7.074 11.6266 6.786 11.6266C6.48 11.6266 6.3 11.8246 6.3 12.1126C6.3 12.4186 6.498 12.5986 6.786 12.5986C7.092 12.5986 7.272 12.4006 7.272 12.1126ZM5.328 13.0846C5.328 13.3726 5.526 13.5706 5.814 13.5706C6.12 13.5706 6.3 13.3726 6.3 13.0846C6.3 12.7786 6.102 12.5986 5.814 12.5986C5.508 12.5986 5.328 12.7966 5.328 13.0846ZM12.1227 1.45656C12.1227 1.74456 12.3207 1.94256 12.6087 1.94256C12.9147 1.94256 13.0947 1.74456 13.0947 1.45656C13.0947 1.15056 12.8967 0.970556 12.6087 0.970556C12.3027 0.970556 12.1227 1.16856 12.1227 1.45656ZM12.1227 2.42856C12.1227 2.71656 12.3207 2.91456 12.6087 2.91456C12.9147 2.91456 13.0947 2.71656 13.0947 2.42856C13.0947 2.12256 12.8967 1.94256 12.6087 1.94256C12.3027 1.94256 12.1227 2.14056 12.1227 2.42856ZM12.1227 3.40056C12.1227 3.68856 12.3207 3.88656 12.6087 3.88656C12.9147 3.88656 13.0947 3.68856 13.0947 3.40056C13.0947 3.09456 12.8967 2.91456 12.6087 2.91456C12.3027 2.91456 12.1227 3.11256 12.1227 3.40056ZM12.1227 4.37256C12.1227 4.66056 12.3027 4.84056 12.5907 4.84056C12.8967 4.84056 13.0947 4.66056 13.0947 4.37256C13.0947 4.08456 12.9147 3.88656 12.6267 3.88656C12.3207 3.88656 12.1227 4.06656 12.1227 4.35456V4.37256ZM12.1227 5.32656C12.1227 5.61456 12.3207 5.81256 12.6087 5.81256C12.9147 5.81256 13.0947 5.61456 13.0947 5.32656C13.0947 5.02056 12.8967 4.84056 12.6087 4.84056C12.3027 4.84056 12.1227 5.03856 12.1227 5.32656ZM12.1227 6.29856C12.1227 6.58656 12.3207 6.78456 12.6087 6.78456C12.9147 6.78456 13.0947 6.58656 13.0947 6.29856C13.0947 5.99256 12.8967 5.81256 12.6087 5.81256C12.3027 5.81256 12.1227 6.01056 12.1227 6.29856ZM12.1227 7.27056C12.1227 7.55856 12.3207 7.75656 12.6087 7.75656C12.9147 7.75656 13.0947 7.55856 13.0947 7.27056C13.0947 6.96456 12.8967 6.78456 12.6087 6.78456C12.3027 6.78456 12.1227 6.98256 12.1227 7.27056ZM12.1227 8.24256C12.1227 8.53056 12.3207 8.72856 12.6087 8.72856C12.9147 8.72856 13.0947 8.53056 13.0947 8.24256C13.0947 7.93656 12.8967 7.75656 12.6087 7.75656C12.3027 7.75656 12.1227 7.95456 12.1227 8.24256ZM12.1227 9.21456C12.1227 9.50256 12.3207 9.70056 12.6087 9.70056C12.9147 9.70056 13.0947 9.50256 13.0947 9.21456C13.0947 8.90856 12.8967 8.72856 12.6087 8.72856C12.3027 8.72856 12.1227 8.92656 12.1227 9.21456ZM12.1227 10.1866C12.1227 10.4746 12.3027 10.6546 12.5907 10.6546C12.8967 10.6546 13.0947 10.4746 13.0947 10.1866C13.0947 9.89856 12.9147 9.70056 12.6267 9.70056C12.3207 9.70056 12.1227 9.88056 12.1227 10.1686V10.1866ZM12.1227 11.1406C12.1227 11.4286 12.3207 11.6266 12.6087 11.6266C12.9147 11.6266 13.0947 11.4286 13.0947 11.1406C13.0947 10.8346 12.8967 10.6546 12.6087 10.6546C12.3027 10.6546 12.1227 10.8526 12.1227 11.1406ZM12.1227 12.1126C12.1227 12.4006 12.3207 12.5986 12.6087 12.5986C12.9147 12.5986 13.0947 12.4006 13.0947 12.1126C13.0947 11.8066 12.8967 11.6266 12.6087 11.6266C12.3027 11.6266 12.1227 11.8246 12.1227 12.1126ZM12.1227 13.0846C12.1227 13.3726 12.3207 13.5706 12.6087 13.5706C12.9147 13.5706 13.0947 13.3726 13.0947 13.0846C13.0947 12.7786 12.8967 12.5986 12.6087 12.5986C12.3027 12.5986 12.1227 12.7966 12.1227 13.0846ZM14.0739 1.45656C14.0739 1.74456 14.2719 1.94256 14.5599 1.94256C14.8659 1.94256 15.0459 1.74456 15.0459 1.45656C15.0459 1.15056 14.8479 0.970556 14.5599 0.970556C14.2539 0.970556 14.0739 1.16856 14.0739 1.45656ZM21.8319 1.45656C21.8319 1.74456 22.0299 1.94256 22.3179 1.94256C22.6239 1.94256 22.8039 1.74456 22.8039 1.45656C22.8039 1.15056 22.6059 0.970556 22.3179 0.970556C22.0119 0.970556 21.8319 1.16856 21.8319 1.45656ZM15.0459 1.45656C15.0459 1.74456 15.2439 1.94256 15.5319 1.94256C15.8379 1.94256 16.0179 1.74456 16.0179 1.45656C16.0179 1.15056 15.8199 0.970556 15.5319 0.970556C15.2259 0.970556 15.0459 1.16856 15.0459 1.45656ZM16.0179 1.45656C16.0179 1.74456 16.2159 1.94256 16.5039 1.94256C16.8099 1.94256 16.9899 1.74456 16.9899 1.45656C16.9899 1.15056 16.7919 0.970556 16.5039 0.970556C16.1979 0.970556 16.0179 1.16856 16.0179 1.45656ZM20.8599 1.45656C20.8599 1.74456 21.0579 1.94256 21.3459 1.94256C21.6519 1.94256 21.8319 1.74456 21.8319 1.45656C21.8319 1.15056 21.6339 0.970556 21.3459 0.970556C21.0399 0.970556 20.8599 1.16856 20.8599 1.45656ZM16.9899 1.45656C16.9899 1.74456 17.1879 1.94256 17.4759 1.94256C17.7819 1.94256 17.9619 1.74456 17.9619 1.45656C17.9619 1.15056 17.7639 0.970556 17.4759 0.970556C17.1699 0.970556 16.9899 1.16856 16.9899 1.45656ZM17.9619 1.45656C17.9619 1.74456 18.1599 1.94256 18.4479 1.94256C18.7539 1.94256 18.9339 1.74456 18.9339 1.45656C18.9339 1.15056 18.7359 0.970556 18.4479 0.970556C18.1419 0.970556 17.9619 1.16856 17.9619 1.45656ZM18.9339 1.47456C18.9339 1.76256 19.1139 1.94256 19.4019 1.94256C19.6899 1.94256 19.8879 1.76256 19.8879 1.47456C19.8879 1.16856 19.7079 0.970556 19.4199 0.970556C19.1319 0.970556 18.9339 1.15056 18.9339 1.43856V1.47456ZM19.8879 1.45656C19.8879 1.74456 20.0859 1.94256 20.3739 1.94256C20.6799 1.94256 20.8599 1.74456 20.8599 1.45656C20.8599 1.15056 20.6619 0.970556 20.3739 0.970556C20.0679 0.970556 19.8879 1.16856 19.8879 1.45656ZM15.0459 2.42856C15.0459 2.14056 14.8479 1.94256 14.5599 1.94256C14.2539 1.94256 14.0739 2.14056 14.0739 2.42856C14.0739 2.73456 14.2719 2.91456 14.5599 2.91456C14.8659 2.91456 15.0459 2.71656 15.0459 2.42856ZM15.0459 3.40056C15.0459 3.11256 14.8479 2.91456 14.5599 2.91456C14.2539 2.91456 14.0739 3.11256 14.0739 3.40056C14.0739 3.70656 14.2719 3.88656 14.5599 3.88656C14.8659 3.88656 15.0459 3.68856 15.0459 3.40056ZM15.0459 4.35456C15.0459 4.06656 14.8659 3.88656 14.5779 3.88656C14.2719 3.88656 14.0739 4.06656 14.0739 4.35456C14.0739 4.64256 14.2539 4.84056 14.5419 4.84056C14.8479 4.84056 15.0459 4.66056 15.0459 4.37256V4.35456ZM15.0459 5.32656C15.0459 5.03856 14.8479 4.84056 14.5599 4.84056C14.2539 4.84056 14.0739 5.03856 14.0739 5.32656C14.0739 5.63256 14.2719 5.81256 14.5599 5.81256C14.8659 5.81256 15.0459 5.61456 15.0459 5.32656ZM15.0459 6.29856C15.0459 6.01056 14.8479 5.81256 14.5599 5.81256C14.2539 5.81256 14.0739 6.01056 14.0739 6.29856C14.0739 6.60456 14.2719 6.78456 14.5599 6.78456C14.8659 6.78456 15.0459 6.58656 15.0459 6.29856ZM15.0459 7.27056C15.0459 6.98256 14.8479 6.78456 14.5599 6.78456C14.2539 6.78456 14.0739 6.98256 14.0739 7.27056C14.0739 7.57656 14.2719 7.75656 14.5599 7.75656C14.8659 7.75656 15.0459 7.55856 15.0459 7.27056ZM16.0179 7.27056C16.0179 6.98256 15.8199 6.78456 15.5319 6.78456C15.2259 6.78456 15.0459 6.98256 15.0459 7.27056C15.0459 7.57656 15.2439 7.75656 15.5319 7.75656C15.8379 7.75656 16.0179 7.55856 16.0179 7.27056ZM16.9899 7.27056C16.9899 6.98256 16.7919 6.78456 16.5039 6.78456C16.1979 6.78456 16.0179 6.98256 16.0179 7.27056C16.0179 7.57656 16.2159 7.75656 16.5039 7.75656C16.8099 7.75656 16.9899 7.55856 16.9899 7.27056ZM20.8599 7.27056C20.8599 7.57656 21.0579 7.75656 21.3459 7.75656C21.6519 7.75656 21.8319 7.55856 21.8319 7.27056C21.8319 6.98256 21.6339 6.78456 21.3459 6.78456C21.0399 6.78456 20.8599 6.98256 20.8599 7.27056ZM17.9619 7.27056C17.9619 6.98256 17.7639 6.78456 17.4759 6.78456C17.1699 6.78456 16.9899 6.98256 16.9899 7.27056C16.9899 7.57656 17.1879 7.75656 17.4759 7.75656C17.7819 7.75656 17.9619 7.55856 17.9619 7.27056ZM18.9339 7.27056C18.9339 6.98256 18.7359 6.78456 18.4479 6.78456C18.1419 6.78456 17.9619 6.98256 17.9619 7.27056C17.9619 7.57656 18.1599 7.75656 18.4479 7.75656C18.7539 7.75656 18.9339 7.55856 18.9339 7.27056ZM19.8879 7.27056C19.8879 7.57656 20.0859 7.75656 20.3739 7.75656C20.6799 7.75656 20.8599 7.55856 20.8599 7.27056C20.8599 6.98256 20.6619 6.78456 20.3739 6.78456C20.0679 6.78456 19.8879 6.98256 19.8879 7.27056ZM19.8879 7.25256C19.8879 6.96456 19.7079 6.78456 19.4199 6.78456C19.1319 6.78456 18.9339 6.96456 18.9339 7.25256C18.9339 7.55856 19.1139 7.75656 19.4019 7.75656C19.6899 7.75656 19.8879 7.57656 19.8879 7.28856V7.25256ZM15.0459 8.24256C15.0459 7.95456 14.8479 7.75656 14.5599 7.75656C14.2539 7.75656 14.0739 7.95456 14.0739 8.24256C14.0739 8.54856 14.2719 8.72856 14.5599 8.72856C14.8659 8.72856 15.0459 8.53056 15.0459 8.24256ZM15.0459 9.21456C15.0459 8.92656 14.8479 8.72856 14.5599 8.72856C14.2539 8.72856 14.0739 8.92656 14.0739 9.21456C14.0739 9.52056 14.2719 9.70056 14.5599 9.70056C14.8659 9.70056 15.0459 9.50256 15.0459 9.21456ZM15.0459 10.1686C15.0459 9.88056 14.8659 9.70056 14.5779 9.70056C14.2719 9.70056 14.0739 9.88056 14.0739 10.1686C14.0739 10.4566 14.2539 10.6546 14.5419 10.6546C14.8479 10.6546 15.0459 10.4746 15.0459 10.1866V10.1686ZM15.0459 11.1406C15.0459 10.8526 14.8479 10.6546 14.5599 10.6546C14.2539 10.6546 14.0739 10.8526 14.0739 11.1406C14.0739 11.4466 14.2719 11.6266 14.5599 11.6266C14.8659 11.6266 15.0459 11.4286 15.0459 11.1406ZM15.0459 12.1126C15.0459 11.8246 14.8479 11.6266 14.5599 11.6266C14.2539 11.6266 14.0739 11.8246 14.0739 12.1126C14.0739 12.4186 14.2719 12.5986 14.5599 12.5986C14.8659 12.5986 15.0459 12.4006 15.0459 12.1126ZM17.9619 13.0846C17.9619 13.3726 18.1599 13.5706 18.4479 13.5706C18.7539 13.5706 18.9339 13.3726 18.9339 13.0846C18.9339 12.7786 18.7359 12.5986 18.4479 12.5986C18.1419 12.5986 17.9619 12.7966 17.9619 13.0846ZM16.9899 13.0846C16.9899 13.3726 17.1879 13.5706 17.4759 13.5706C17.7819 13.5706 17.9619 13.3726 17.9619 13.0846C17.9619 12.7786 17.7639 12.5986 17.4759 12.5986C17.1699 12.5986 16.9899 12.7966 16.9899 13.0846ZM18.9339 13.1026C18.9339 13.3906 19.1139 13.5706 19.4019 13.5706C19.6899 13.5706 19.8879 13.3906 19.8879 13.1026C19.8879 12.7966 19.7079 12.5986 19.4199 12.5986C19.1319 12.5986 18.9339 12.7786 18.9339 13.0666V13.1026ZM19.8879 13.0846C19.8879 13.3726 20.0859 13.5706 20.3739 13.5706C20.6799 13.5706 20.8599 13.3726 20.8599 13.0846C20.8599 12.7786 20.6619 12.5986 20.3739 12.5986C20.0679 12.5986 19.8879 12.7966 19.8879 13.0846ZM16.0179 13.0846C16.0179 13.3726 16.2159 13.5706 16.5039 13.5706C16.8099 13.5706 16.9899 13.3726 16.9899 13.0846C16.9899 12.7786 16.7919 12.5986 16.5039 12.5986C16.1979 12.5986 16.0179 12.7966 16.0179 13.0846ZM20.8599 13.0846C20.8599 13.3726 21.0579 13.5706 21.3459 13.5706C21.6519 13.5706 21.8319 13.3726 21.8319 13.0846C21.8319 12.7786 21.6339 12.5986 21.3459 12.5986C21.0399 12.5986 20.8599 12.7966 20.8599 13.0846ZM15.0459 13.0846C15.0459 13.3726 15.2439 13.5706 15.5319 13.5706C15.8379 13.5706 16.0179 13.3726 16.0179 13.0846C16.0179 12.7786 15.8199 12.5986 15.5319 12.5986C15.2259 12.5986 15.0459 12.7966 15.0459 13.0846ZM14.0739 13.0846C14.0739 13.3726 14.2719 13.5706 14.5599 13.5706C14.8659 13.5706 15.0459 13.3726 15.0459 13.0846C15.0459 12.7786 14.8479 12.5986 14.5599 12.5986C14.2539 12.5986 14.0739 12.7966 14.0739 13.0846ZM21.8319 13.0846C21.8319 13.3726 22.0299 13.5706 22.3179 13.5706C22.6239 13.5706 22.8039 13.3726 22.8039 13.0846C22.8039 12.7786 22.6059 12.5986 22.3179 12.5986C22.0119 12.5986 21.8319 12.7966 21.8319 13.0846ZM23.777 1.45656C23.777 1.74456 23.975 1.94256 24.263 1.94256C24.569 1.94256 24.749 1.74456 24.749 1.45656C24.749 1.15056 24.551 0.970556 24.263 0.970556C23.957 0.970556 23.777 1.16856 23.777 1.45656ZM39.293 1.47456C39.293 1.76256 39.473 1.94256 39.761 1.94256C40.049 1.94256 40.247 1.76256 40.247 1.47456C40.247 1.16856 40.067 0.970556 39.779 0.970556C39.491 0.970556 39.293 1.15056 39.293 1.43856V1.47456ZM31.535 1.45656C31.535 1.74456 31.733 1.94256 32.021 1.94256C32.327 1.94256 32.507 1.74456 32.507 1.45656C32.507 1.15056 32.309 0.970556 32.021 0.970556C31.715 0.970556 31.535 1.16856 31.535 1.45656ZM32.507 2.42856C32.507 2.14056 32.309 1.94256 32.021 1.94256C31.715 1.94256 31.535 2.14056 31.535 2.42856C31.535 2.73456 31.733 2.91456 32.021 2.91456C32.327 2.91456 32.507 2.71656 32.507 2.42856ZM39.293 2.44656C39.293 2.73456 39.473 2.91456 39.761 2.91456C40.049 2.91456 40.247 2.73456 40.247 2.44656C40.247 2.14056 40.067 1.94256 39.779 1.94256C39.491 1.94256 39.293 2.12256 39.293 2.41056V2.44656ZM24.749 2.42856C24.749 2.14056 24.551 1.94256 24.263 1.94256C23.957 1.94256 23.777 2.14056 23.777 2.42856C23.777 2.73456 23.975 2.91456 24.263 2.91456C24.569 2.91456 24.749 2.71656 24.749 2.42856ZM39.293 3.40056C39.293 3.11256 39.095 2.91456 38.807 2.91456C38.501 2.91456 38.321 3.11256 38.321 3.40056C38.321 3.70656 38.519 3.88656 38.807 3.88656C39.113 3.88656 39.293 3.68856 39.293 3.40056ZM33.461 3.38256C33.461 3.09456 33.281 2.91456 32.993 2.91456C32.705 2.91456 32.507 3.09456 32.507 3.38256C32.507 3.68856 32.687 3.88656 32.975 3.88656C33.263 3.88656 33.461 3.70656 33.461 3.41856V3.38256ZM25.721 3.40056C25.721 3.11256 25.523 2.91456 25.235 2.91456C24.929 2.91456 24.749 3.11256 24.749 3.40056C24.749 3.70656 24.947 3.88656 25.235 3.88656C25.541 3.88656 25.721 3.68856 25.721 3.40056ZM31.535 3.40056C31.535 3.11256 31.337 2.91456 31.049 2.91456C30.743 2.91456 30.563 3.11256 30.563 3.40056C30.563 3.70656 30.761 3.88656 31.049 3.88656C31.355 3.88656 31.535 3.68856 31.535 3.40056ZM33.461 4.35456C33.461 4.06656 33.281 3.88656 32.993 3.88656C32.687 3.88656 32.507 4.06656 32.507 4.35456C32.507 4.64256 32.687 4.84056 32.975 4.84056C33.263 4.84056 33.461 4.66056 33.461 4.37256V4.35456ZM39.293 4.35456C39.293 4.06656 39.113 3.88656 38.825 3.88656C38.519 3.88656 38.321 4.06656 38.321 4.35456C38.321 4.64256 38.501 4.84056 38.789 4.84056C39.095 4.84056 39.293 4.66056 39.293 4.37256V4.35456ZM31.535 4.35456C31.535 4.06656 31.355 3.88656 31.067 3.88656C30.761 3.88656 30.563 4.06656 30.563 4.35456C30.563 4.64256 30.743 4.84056 31.031 4.84056C31.337 4.84056 31.535 4.66056 31.535 4.37256V4.35456ZM25.721 4.35456C25.721 4.06656 25.541 3.88656 25.253 3.88656C24.947 3.88656 24.749 4.06656 24.749 4.35456C24.749 4.64256 24.929 4.84056 25.217 4.84056C25.523 4.84056 25.721 4.66056 25.721 4.37256V4.35456ZM26.693 5.32656C26.693 5.03856 26.495 4.84056 26.207 4.84056C25.901 4.84056 25.721 5.03856 25.721 5.32656C25.721 5.63256 25.919 5.81256 26.207 5.81256C26.513 5.81256 26.693 5.61456 26.693 5.32656ZM30.563 5.32656C30.563 5.03856 30.365 4.84056 30.077 4.84056C29.771 4.84056 29.591 5.03856 29.591 5.32656C29.591 5.63256 29.789 5.81256 30.077 5.81256C30.383 5.81256 30.563 5.61456 30.563 5.32656ZM38.321 5.32656C38.321 5.03856 38.123 4.84056 37.835 4.84056C37.529 4.84056 37.349 5.03856 37.349 5.32656C37.349 5.63256 37.547 5.81256 37.835 5.81256C38.141 5.81256 38.321 5.61456 38.321 5.32656ZM34.433 5.32656C34.433 5.03856 34.235 4.84056 33.947 4.84056C33.641 4.84056 33.461 5.03856 33.461 5.32656C33.461 5.63256 33.659 5.81256 33.947 5.81256C34.253 5.81256 34.433 5.61456 34.433 5.32656ZM26.693 6.29856C26.693 6.01056 26.495 5.81256 26.207 5.81256C25.901 5.81256 25.721 6.01056 25.721 6.29856C25.721 6.60456 25.919 6.78456 26.207 6.78456C26.513 6.78456 26.693 6.58656 26.693 6.29856ZM30.563 6.29856C30.563 6.01056 30.365 5.81256 30.077 5.81256C29.771 5.81256 29.591 6.01056 29.591 6.29856C29.591 6.60456 29.789 6.78456 30.077 6.78456C30.383 6.78456 30.563 6.58656 30.563 6.29856ZM38.321 6.29856C38.321 6.01056 38.123 5.81256 37.835 5.81256C37.529 5.81256 37.349 6.01056 37.349 6.29856C37.349 6.60456 37.547 6.78456 37.835 6.78456C38.141 6.78456 38.321 6.58656 38.321 6.29856ZM34.433 6.29856C34.433 6.01056 34.235 5.81256 33.947 5.81256C33.641 5.81256 33.461 6.01056 33.461 6.29856C33.461 6.60456 33.659 6.78456 33.947 6.78456C34.253 6.78456 34.433 6.58656 34.433 6.29856ZM34.433 7.27056C34.433 6.98256 34.235 6.78456 33.947 6.78456C33.641 6.78456 33.461 6.98256 33.461 7.27056C33.461 7.57656 33.659 7.75656 33.947 7.75656C34.253 7.75656 34.433 7.55856 34.433 7.27056ZM30.563 7.27056C30.563 6.98256 30.365 6.78456 30.077 6.78456C29.771 6.78456 29.591 6.98256 29.591 7.27056C29.591 7.57656 29.789 7.75656 30.077 7.75656C30.383 7.75656 30.563 7.55856 30.563 7.27056ZM26.693 7.27056C26.693 6.98256 26.495 6.78456 26.207 6.78456C25.901 6.78456 25.721 6.98256 25.721 7.27056C25.721 7.57656 25.919 7.75656 26.207 7.75656C26.513 7.75656 26.693 7.55856 26.693 7.27056ZM38.321 7.27056C38.321 6.98256 38.123 6.78456 37.835 6.78456C37.529 6.78456 37.349 6.98256 37.349 7.27056C37.349 7.57656 37.547 7.75656 37.835 7.75656C38.141 7.75656 38.321 7.55856 38.321 7.27056ZM27.647 8.22456C27.647 7.93656 27.467 7.75656 27.179 7.75656C26.891 7.75656 26.693 7.93656 26.693 8.22456C26.693 8.53056 26.873 8.72856 27.161 8.72856C27.449 8.72856 27.647 8.54856 27.647 8.26056V8.22456ZM35.405 8.24256C35.405 7.95456 35.207 7.75656 34.919 7.75656C34.613 7.75656 34.433 7.95456 34.433 8.24256C34.433 8.54856 34.631 8.72856 34.919 8.72856C35.225 8.72856 35.405 8.53056 35.405 8.24256ZM37.349 8.24256C37.349 7.95456 37.151 7.75656 36.863 7.75656C36.557 7.75656 36.377 7.95456 36.377 8.24256C36.377 8.54856 36.575 8.72856 36.863 8.72856C37.169 8.72856 37.349 8.53056 37.349 8.24256ZM29.591 8.24256C29.591 7.95456 29.393 7.75656 29.105 7.75656C28.799 7.75656 28.619 7.95456 28.619 8.24256C28.619 8.54856 28.817 8.72856 29.105 8.72856C29.411 8.72856 29.591 8.53056 29.591 8.24256ZM27.647 9.19656C27.647 8.90856 27.467 8.72856 27.179 8.72856C26.891 8.72856 26.693 8.90856 26.693 9.19656C26.693 9.50256 26.873 9.70056 27.161 9.70056C27.449 9.70056 27.647 9.52056 27.647 9.23256V9.19656ZM35.405 9.21456C35.405 8.92656 35.207 8.72856 34.919 8.72856C34.613 8.72856 34.433 8.92656 34.433 9.21456C34.433 9.52056 34.631 9.70056 34.919 9.70056C35.225 9.70056 35.405 9.50256 35.405 9.21456ZM37.349 9.21456C37.349 8.92656 37.151 8.72856 36.863 8.72856C36.557 8.72856 36.377 8.92656 36.377 9.21456C36.377 9.52056 36.575 9.70056 36.863 9.70056C37.169 9.70056 37.349 9.50256 37.349 9.21456ZM29.591 9.21456C29.591 8.92656 29.393 8.72856 29.105 8.72856C28.799 8.72856 28.619 8.92656 28.619 9.21456C28.619 9.52056 28.817 9.70056 29.105 9.70056C29.411 9.70056 29.591 9.50256 29.591 9.21456ZM27.647 10.1686C27.647 9.88056 27.467 9.70056 27.179 9.70056C26.873 9.70056 26.693 9.88056 26.693 10.1686C26.693 10.4566 26.873 10.6546 27.161 10.6546C27.449 10.6546 27.647 10.4746 27.647 10.1866V10.1686ZM35.405 10.1686C35.405 9.88056 35.225 9.70056 34.937 9.70056C34.631 9.70056 34.433 9.88056 34.433 10.1686C34.433 10.4566 34.613 10.6546 34.901 10.6546C35.207 10.6546 35.405 10.4746 35.405 10.1866V10.1686ZM37.349 10.1686C37.349 9.88056 37.169 9.70056 36.881 9.70056C36.575 9.70056 36.377 9.88056 36.377 10.1686C36.377 10.4566 36.557 10.6546 36.845 10.6546C37.151 10.6546 37.349 10.4746 37.349 10.1866V10.1686ZM29.591 10.1686C29.591 9.88056 29.411 9.70056 29.123 9.70056C28.817 9.70056 28.619 9.88056 28.619 10.1686C28.619 10.4566 28.799 10.6546 29.087 10.6546C29.393 10.6546 29.591 10.4746 29.591 10.1866V10.1686ZM28.619 11.1406C28.619 10.8526 28.421 10.6546 28.133 10.6546C27.827 10.6546 27.647 10.8526 27.647 11.1406C27.647 11.4466 27.845 11.6266 28.133 11.6266C28.439 11.6266 28.619 11.4286 28.619 11.1406ZM36.377 11.1406C36.377 10.8526 36.179 10.6546 35.891 10.6546C35.585 10.6546 35.405 10.8526 35.405 11.1406C35.405 11.4466 35.603 11.6266 35.891 11.6266C36.197 11.6266 36.377 11.4286 36.377 11.1406ZM36.377 12.1126C36.377 11.8246 36.179 11.6266 35.891 11.6266C35.585 11.6266 35.405 11.8246 35.405 12.1126C35.405 12.4186 35.603 12.5986 35.891 12.5986C36.197 12.5986 36.377 12.4006 36.377 12.1126ZM28.619 12.1126C28.619 11.8246 28.421 11.6266 28.133 11.6266C27.827 11.6266 27.647 11.8246 27.647 12.1126C27.647 12.4186 27.845 12.5986 28.133 12.5986C28.439 12.5986 28.619 12.4006 28.619 12.1126ZM35.405 13.0846C35.405 13.3726 35.603 13.5706 35.891 13.5706C36.197 13.5706 36.377 13.3726 36.377 13.0846C36.377 12.7786 36.179 12.5986 35.891 12.5986C35.585 12.5986 35.405 12.7966 35.405 13.0846ZM27.647 13.0846C27.647 13.3726 27.845 13.5706 28.133 13.5706C28.439 13.5706 28.619 13.3726 28.619 13.0846C28.619 12.7786 28.421 12.5986 28.133 12.5986C27.827 12.5986 27.647 12.7966 27.647 13.0846ZM48.537 1.45656C48.537 1.74456 48.717 1.94256 49.023 1.94256C49.311 1.94256 49.509 1.76256 49.509 1.45656C49.509 1.16856 49.329 0.970556 49.023 0.970556C48.735 0.970556 48.537 1.16856 48.537 1.45656ZM49.509 1.45656C49.509 1.74456 49.689 1.94256 49.995 1.94256C50.283 1.94256 50.481 1.76256 50.481 1.45656C50.481 1.16856 50.301 0.970556 49.995 0.970556C49.707 0.970556 49.509 1.16856 49.509 1.45656ZM50.481 1.45656C50.481 1.74456 50.661 1.94256 50.967 1.94256C51.255 1.94256 51.453 1.76256 51.453 1.45656C51.453 1.16856 51.273 0.970556 50.967 0.970556C50.679 0.970556 50.481 1.16856 50.481 1.45656ZM51.453 1.45656C51.453 1.74456 51.633 1.94256 51.939 1.94256C52.227 1.94256 52.425 1.76256 52.425 1.45656C52.425 1.16856 52.245 0.970556 51.939 0.970556C51.651 0.970556 51.453 1.16856 51.453 1.45656ZM52.425 1.45656C52.425 1.74456 52.605 1.94256 52.911 1.94256C53.199 1.94256 53.397 1.76256 53.397 1.45656C53.397 1.16856 53.217 0.970556 52.911 0.970556C52.623 0.970556 52.425 1.16856 52.425 1.45656ZM48.537 2.41056C48.537 2.12256 48.339 1.94256 48.051 1.94256C47.763 1.94256 47.583 2.14056 47.583 2.44656C47.583 2.73456 47.781 2.91456 48.069 2.91456C48.357 2.91456 48.537 2.73456 48.537 2.44656V2.41056ZM54.351 2.41056C54.351 2.12256 54.153 1.94256 53.865 1.94256C53.577 1.94256 53.397 2.14056 53.397 2.44656C53.397 2.73456 53.595 2.91456 53.883 2.91456C54.171 2.91456 54.351 2.73456 54.351 2.44656V2.41056ZM47.583 3.40056C47.583 3.11256 47.403 2.91456 47.097 2.91456C46.809 2.91456 46.611 3.09456 46.611 3.40056C46.611 3.68856 46.791 3.88656 47.097 3.88656C47.385 3.88656 47.583 3.68856 47.583 3.40056ZM54.351 3.40056C54.351 3.68856 54.531 3.88656 54.837 3.88656C55.125 3.88656 55.323 3.70656 55.323 3.40056C55.323 3.11256 55.143 2.91456 54.837 2.91456C54.549 2.91456 54.351 3.11256 54.351 3.40056ZM47.583 4.35456C47.583 4.06656 47.385 3.88656 47.079 3.88656C46.791 3.88656 46.611 4.08456 46.611 4.37256C46.611 4.66056 46.809 4.84056 47.115 4.84056C47.403 4.84056 47.583 4.66056 47.583 4.37256V4.35456ZM47.583 5.32656C47.583 5.03856 47.403 4.84056 47.097 4.84056C46.809 4.84056 46.611 5.02056 46.611 5.32656C46.611 5.61456 46.791 5.81256 47.097 5.81256C47.385 5.81256 47.583 5.61456 47.583 5.32656ZM48.537 6.28056C48.537 5.99256 48.339 5.81256 48.051 5.81256C47.763 5.81256 47.583 6.01056 47.583 6.31656C47.583 6.60456 47.781 6.78456 48.069 6.78456C48.357 6.78456 48.537 6.60456 48.537 6.31656V6.28056ZM49.509 7.27056C49.509 6.98256 49.329 6.78456 49.023 6.78456C48.735 6.78456 48.537 6.96456 48.537 7.27056C48.537 7.55856 48.717 7.75656 49.023 7.75656C49.311 7.75656 49.509 7.55856 49.509 7.27056ZM50.481 7.27056C50.481 6.98256 50.301 6.78456 49.995 6.78456C49.707 6.78456 49.509 6.96456 49.509 7.27056C49.509 7.55856 49.689 7.75656 49.995 7.75656C50.283 7.75656 50.481 7.55856 50.481 7.27056ZM51.453 7.27056C51.453 6.98256 51.273 6.78456 50.967 6.78456C50.679 6.78456 50.481 6.96456 50.481 7.27056C50.481 7.55856 50.661 7.75656 50.967 7.75656C51.255 7.75656 51.453 7.55856 51.453 7.27056ZM52.425 7.27056C52.425 6.98256 52.245 6.78456 51.939 6.78456C51.651 6.78456 51.453 6.96456 51.453 7.27056C51.453 7.55856 51.633 7.75656 51.939 7.75656C52.227 7.75656 52.425 7.55856 52.425 7.27056ZM53.397 7.27056C53.397 6.98256 53.217 6.78456 52.911 6.78456C52.623 6.78456 52.425 6.96456 52.425 7.27056C52.425 7.55856 52.605 7.75656 52.911 7.75656C53.199 7.75656 53.397 7.55856 53.397 7.27056ZM54.351 8.22456C54.351 7.93656 54.153 7.75656 53.865 7.75656C53.577 7.75656 53.397 7.95456 53.397 8.26056C53.397 8.54856 53.595 8.72856 53.883 8.72856C54.171 8.72856 54.351 8.54856 54.351 8.26056V8.22456ZM54.351 9.21456C54.351 9.50256 54.531 9.70056 54.837 9.70056C55.125 9.70056 55.323 9.52056 55.323 9.21456C55.323 8.92656 55.143 8.72856 54.837 8.72856C54.549 8.72856 54.351 8.92656 54.351 9.21456ZM47.583 10.1686C47.583 9.88056 47.385 9.70056 47.079 9.70056C46.791 9.70056 46.611 9.89856 46.611 10.1866C46.611 10.4746 46.809 10.6546 47.115 10.6546C47.403 10.6546 47.583 10.4746 47.583 10.1866V10.1686ZM54.351 10.1866C54.351 10.4746 54.549 10.6546 54.855 10.6546C55.143 10.6546 55.323 10.4566 55.323 10.1686C55.323 9.88056 55.125 9.70056 54.819 9.70056C54.531 9.70056 54.351 9.88056 54.351 10.1686V10.1866ZM47.583 11.1406C47.583 10.8526 47.403 10.6546 47.097 10.6546C46.809 10.6546 46.611 10.8346 46.611 11.1406C46.611 11.4286 46.791 11.6266 47.097 11.6266C47.385 11.6266 47.583 11.4286 47.583 11.1406ZM54.351 11.1406C54.351 11.4286 54.531 11.6266 54.837 11.6266C55.125 11.6266 55.323 11.4466 55.323 11.1406C55.323 10.8526 55.143 10.6546 54.837 10.6546C54.549 10.6546 54.351 10.8526 54.351 11.1406ZM48.537 12.0946C48.537 11.8066 48.339 11.6266 48.051 11.6266C47.763 11.6266 47.583 11.8246 47.583 12.1306C47.583 12.4186 47.781 12.5986 48.069 12.5986C48.357 12.5986 48.537 12.4186 48.537 12.1306V12.0946ZM54.351 12.0946C54.351 11.8066 54.153 11.6266 53.865 11.6266C53.577 11.6266 53.397 11.8246 53.397 12.1306C53.397 12.4186 53.595 12.5986 53.883 12.5986C54.171 12.5986 54.351 12.4186 54.351 12.1306V12.0946ZM48.537 13.0846C48.537 13.3726 48.717 13.5706 49.023 13.5706C49.311 13.5706 49.509 13.3906 49.509 13.0846C49.509 12.7966 49.329 12.5986 49.023 12.5986C48.735 12.5986 48.537 12.7966 48.537 13.0846ZM49.509 13.0846C49.509 13.3726 49.689 13.5706 49.995 13.5706C50.283 13.5706 50.481 13.3906 50.481 13.0846C50.481 12.7966 50.301 12.5986 49.995 12.5986C49.707 12.5986 49.509 12.7966 49.509 13.0846ZM50.481 13.0846C50.481 13.3726 50.661 13.5706 50.967 13.5706C51.255 13.5706 51.453 13.3906 51.453 13.0846C51.453 12.7966 51.273 12.5986 50.967 12.5986C50.679 12.5986 50.481 12.7966 50.481 13.0846ZM51.453 13.0846C51.453 13.3726 51.633 13.5706 51.939 13.5706C52.227 13.5706 52.425 13.3906 52.425 13.0846C52.425 12.7966 52.245 12.5986 51.939 12.5986C51.651 12.5986 51.453 12.7966 51.453 13.0846ZM52.425 13.0846C52.425 13.3726 52.605 13.5706 52.911 13.5706C53.199 13.5706 53.397 13.3906 53.397 13.0846C53.397 12.7966 53.217 12.5986 52.911 12.5986C52.623 12.5986 52.425 12.7966 52.425 13.0846ZM56.2965 1.47456C56.2965 1.76256 56.4765 1.94256 56.7645 1.94256C57.0525 1.94256 57.2505 1.76256 57.2505 1.47456C57.2505 1.16856 57.0705 0.970556 56.7825 0.970556C56.4945 0.970556 56.2965 1.15056 56.2965 1.43856V1.47456ZM64.0365 1.45656C64.0365 1.74456 64.2345 1.94256 64.5225 1.94256C64.8285 1.94256 65.0085 1.74456 65.0085 1.45656C65.0085 1.15056 64.8105 0.970556 64.5225 0.970556C64.2165 0.970556 64.0365 1.16856 64.0365 1.45656ZM57.2505 2.41056C57.2505 2.12256 57.0705 1.94256 56.7825 1.94256C56.4945 1.94256 56.2965 2.12256 56.2965 2.41056C56.2965 2.71656 56.4765 2.91456 56.7645 2.91456C57.0525 2.91456 57.2505 2.73456 57.2505 2.44656V2.41056ZM64.0365 2.42856C64.0365 2.71656 64.2345 2.91456 64.5225 2.91456C64.8285 2.91456 65.0085 2.71656 65.0085 2.42856C65.0085 2.12256 64.8105 1.94256 64.5225 1.94256C64.2165 1.94256 64.0365 2.14056 64.0365 2.42856ZM57.2505 3.38256C57.2505 3.09456 57.0705 2.91456 56.7825 2.91456C56.4945 2.91456 56.2965 3.09456 56.2965 3.38256C56.2965 3.68856 56.4765 3.88656 56.7645 3.88656C57.0525 3.88656 57.2505 3.70656 57.2505 3.41856V3.38256ZM64.0365 3.40056C64.0365 3.68856 64.2345 3.88656 64.5225 3.88656C64.8285 3.88656 65.0085 3.68856 65.0085 3.40056C65.0085 3.09456 64.8105 2.91456 64.5225 2.91456C64.2165 2.91456 64.0365 3.11256 64.0365 3.40056ZM57.2505 4.35456C57.2505 4.06656 57.0705 3.88656 56.7825 3.88656C56.4765 3.88656 56.2965 4.06656 56.2965 4.35456C56.2965 4.64256 56.4765 4.84056 56.7645 4.84056C57.0525 4.84056 57.2505 4.66056 57.2505 4.37256V4.35456ZM64.0365 4.37256C64.0365 4.66056 64.2165 4.84056 64.5045 4.84056C64.8105 4.84056 65.0085 4.66056 65.0085 4.37256C65.0085 4.08456 64.8285 3.88656 64.5405 3.88656C64.2345 3.88656 64.0365 4.06656 64.0365 4.35456V4.37256ZM57.2505 5.30856C57.2505 5.02056 57.0705 4.84056 56.7825 4.84056C56.4945 4.84056 56.2965 5.02056 56.2965 5.30856C56.2965 5.61456 56.4765 5.81256 56.7645 5.81256C57.0525 5.81256 57.2505 5.63256 57.2505 5.34456V5.30856ZM64.0365 5.32656C64.0365 5.61456 64.2345 5.81256 64.5225 5.81256C64.8285 5.81256 65.0085 5.61456 65.0085 5.32656C65.0085 5.02056 64.8105 4.84056 64.5225 4.84056C64.2165 4.84056 64.0365 5.03856 64.0365 5.32656ZM57.2505 6.28056C57.2505 5.99256 57.0705 5.81256 56.7825 5.81256C56.4945 5.81256 56.2965 5.99256 56.2965 6.28056C56.2965 6.58656 56.4765 6.78456 56.7645 6.78456C57.0525 6.78456 57.2505 6.60456 57.2505 6.31656V6.28056ZM64.0365 6.29856C64.0365 6.58656 64.2345 6.78456 64.5225 6.78456C64.8285 6.78456 65.0085 6.58656 65.0085 6.29856C65.0085 5.99256 64.8105 5.81256 64.5225 5.81256C64.2165 5.81256 64.0365 6.01056 64.0365 6.29856ZM58.2225 7.27056C58.2225 6.98256 58.0245 6.78456 57.7365 6.78456C57.4305 6.78456 57.2505 6.98256 57.2505 7.27056C57.2505 7.57656 57.4485 7.75656 57.7365 7.75656C58.0425 7.75656 58.2225 7.55856 58.2225 7.27056ZM59.1945 7.27056C59.1945 6.98256 58.9965 6.78456 58.7085 6.78456C58.4025 6.78456 58.2225 6.98256 58.2225 7.27056C58.2225 7.57656 58.4205 7.75656 58.7085 7.75656C59.0145 7.75656 59.1945 7.55856 59.1945 7.27056ZM60.1665 7.27056C60.1665 6.98256 59.9685 6.78456 59.6805 6.78456C59.3745 6.78456 59.1945 6.98256 59.1945 7.27056C59.1945 7.57656 59.3925 7.75656 59.6805 7.75656C59.9865 7.75656 60.1665 7.55856 60.1665 7.27056ZM61.1385 7.27056C61.1385 6.98256 60.9405 6.78456 60.6525 6.78456C60.3465 6.78456 60.1665 6.98256 60.1665 7.27056C60.1665 7.57656 60.3645 7.75656 60.6525 7.75656C60.9585 7.75656 61.1385 7.55856 61.1385 7.27056ZM62.1105 7.27056C62.1105 6.98256 61.9125 6.78456 61.6245 6.78456C61.3185 6.78456 61.1385 6.98256 61.1385 7.27056C61.1385 7.57656 61.3365 7.75656 61.6245 7.75656C61.9305 7.75656 62.1105 7.55856 62.1105 7.27056ZM63.0825 7.27056C63.0825 6.98256 62.8845 6.78456 62.5965 6.78456C62.2905 6.78456 62.1105 6.98256 62.1105 7.27056C62.1105 7.57656 62.3085 7.75656 62.5965 7.75656C62.9025 7.75656 63.0825 7.55856 63.0825 7.27056ZM57.2505 7.25256C57.2505 6.96456 57.0705 6.78456 56.7825 6.78456C56.4945 6.78456 56.2965 6.96456 56.2965 7.25256C56.2965 7.55856 56.4765 7.75656 56.7645 7.75656C57.0525 7.75656 57.2505 7.57656 57.2505 7.28856V7.25256ZM64.0365 7.25256C64.0365 6.96456 63.8565 6.78456 63.5685 6.78456C63.2805 6.78456 63.0825 6.96456 63.0825 7.25256C63.0825 7.55856 63.2625 7.75656 63.5505 7.75656C63.8385 7.75656 64.0365 7.57656 64.0365 7.28856V7.25256ZM64.0365 7.27056C64.0365 7.55856 64.2345 7.75656 64.5225 7.75656C64.8285 7.75656 65.0085 7.55856 65.0085 7.27056C65.0085 6.96456 64.8105 6.78456 64.5225 6.78456C64.2165 6.78456 64.0365 6.98256 64.0365 7.27056ZM57.2505 8.22456C57.2505 7.93656 57.0705 7.75656 56.7825 7.75656C56.4945 7.75656 56.2965 7.93656 56.2965 8.22456C56.2965 8.53056 56.4765 8.72856 56.7645 8.72856C57.0525 8.72856 57.2505 8.54856 57.2505 8.26056V8.22456ZM64.0365 8.24256C64.0365 8.53056 64.2345 8.72856 64.5225 8.72856C64.8285 8.72856 65.0085 8.53056 65.0085 8.24256C65.0085 7.93656 64.8105 7.75656 64.5225 7.75656C64.2165 7.75656 64.0365 7.95456 64.0365 8.24256ZM57.2505 9.19656C57.2505 8.90856 57.0705 8.72856 56.7825 8.72856C56.4945 8.72856 56.2965 8.90856 56.2965 9.19656C56.2965 9.50256 56.4765 9.70056 56.7645 9.70056C57.0525 9.70056 57.2505 9.52056 57.2505 9.23256V9.19656ZM64.0365 9.21456C64.0365 9.50256 64.2345 9.70056 64.5225 9.70056C64.8285 9.70056 65.0085 9.50256 65.0085 9.21456C65.0085 8.90856 64.8105 8.72856 64.5225 8.72856C64.2165 8.72856 64.0365 8.92656 64.0365 9.21456ZM57.2505 10.1686C57.2505 9.88056 57.0705 9.70056 56.7825 9.70056C56.4765 9.70056 56.2965 9.88056 56.2965 10.1686C56.2965 10.4566 56.4765 10.6546 56.7645 10.6546C57.0525 10.6546 57.2505 10.4746 57.2505 10.1866V10.1686ZM64.0365 10.1866C64.0365 10.4746 64.2165 10.6546 64.5045 10.6546C64.8105 10.6546 65.0085 10.4746 65.0085 10.1866C65.0085 9.89856 64.8285 9.70056 64.5405 9.70056C64.2345 9.70056 64.0365 9.88056 64.0365 10.1686V10.1866ZM57.2505 11.1226C57.2505 10.8346 57.0705 10.6546 56.7825 10.6546C56.4945 10.6546 56.2965 10.8346 56.2965 11.1226C56.2965 11.4286 56.4765 11.6266 56.7645 11.6266C57.0525 11.6266 57.2505 11.4466 57.2505 11.1586V11.1226ZM64.0365 11.1406C64.0365 11.4286 64.2345 11.6266 64.5225 11.6266C64.8285 11.6266 65.0085 11.4286 65.0085 11.1406C65.0085 10.8346 64.8105 10.6546 64.5225 10.6546C64.2165 10.6546 64.0365 10.8526 64.0365 11.1406ZM57.2505 12.0946C57.2505 11.8066 57.0705 11.6266 56.7825 11.6266C56.4945 11.6266 56.2965 11.8066 56.2965 12.0946C56.2965 12.4006 56.4765 12.5986 56.7645 12.5986C57.0525 12.5986 57.2505 12.4186 57.2505 12.1306V12.0946ZM64.0365 12.1126C64.0365 12.4006 64.2345 12.5986 64.5225 12.5986C64.8285 12.5986 65.0085 12.4006 65.0085 12.1126C65.0085 11.8066 64.8105 11.6266 64.5225 11.6266C64.2165 11.6266 64.0365 11.8246 64.0365 12.1126ZM56.2965 13.1026C56.2965 13.3906 56.4765 13.5706 56.7645 13.5706C57.0525 13.5706 57.2505 13.3906 57.2505 13.1026C57.2505 12.7966 57.0705 12.5986 56.7825 12.5986C56.4945 12.5986 56.2965 12.7786 56.2965 13.0666V13.1026ZM64.0365 13.0846C64.0365 13.3726 64.2345 13.5706 64.5225 13.5706C64.8285 13.5706 65.0085 13.3726 65.0085 13.0846C65.0085 12.7786 64.8105 12.5986 64.5225 12.5986C64.2165 12.5986 64.0365 12.7966 64.0365 13.0846ZM68.8981 1.47456C68.8981 1.76256 69.0961 1.94256 69.3841 1.94256C69.6721 1.94256 69.8521 1.74456 69.8521 1.43856C69.8521 1.15056 69.6541 0.970556 69.3661 0.970556C69.0781 0.970556 68.8981 1.15056 68.8981 1.43856V1.47456ZM69.8521 1.45656C69.8521 1.74456 70.0321 1.94256 70.3381 1.94256C70.6261 1.94256 70.8241 1.76256 70.8241 1.45656C70.8241 1.16856 70.6441 0.970556 70.3381 0.970556C70.0501 0.970556 69.8521 1.16856 69.8521 1.45656ZM70.8241 1.45656C70.8241 1.74456 71.0041 1.94256 71.3101 1.94256C71.5981 1.94256 71.7961 1.76256 71.7961 1.45656C71.7961 1.16856 71.6161 0.970556 71.3101 0.970556C71.0221 0.970556 70.8241 1.16856 70.8241 1.45656ZM71.7961 1.45656C71.7961 1.74456 71.9761 1.94256 72.2821 1.94256C72.5701 1.94256 72.7681 1.76256 72.7681 1.45656C72.7681 1.16856 72.5881 0.970556 72.2821 0.970556C71.9941 0.970556 71.7961 1.16856 71.7961 1.45656ZM72.7681 1.45656C72.7681 1.74456 72.9481 1.94256 73.2541 1.94256C73.5421 1.94256 73.7401 1.76256 73.7401 1.45656C73.7401 1.16856 73.5601 0.970556 73.2541 0.970556C72.9661 0.970556 72.7681 1.16856 72.7681 1.45656ZM68.8981 2.42856C68.8981 2.14056 68.7181 1.94256 68.4121 1.94256C68.1241 1.94256 67.9261 2.12256 67.9261 2.42856C67.9261 2.71656 68.1061 2.91456 68.4121 2.91456C68.7001 2.91456 68.8981 2.71656 68.8981 2.42856ZM74.6941 2.41056C74.6941 2.12256 74.4961 1.94256 74.2081 1.94256C73.9201 1.94256 73.7401 2.14056 73.7401 2.44656C73.7401 2.73456 73.9381 2.91456 74.2261 2.91456C74.5141 2.91456 74.6941 2.73456 74.6941 2.44656V2.41056ZM67.9261 3.40056C67.9261 3.11256 67.7461 2.91456 67.4401 2.91456C67.1521 2.91456 66.9541 3.09456 66.9541 3.40056C66.9541 3.68856 67.1341 3.88656 67.4401 3.88656C67.7281 3.88656 67.9261 3.68856 67.9261 3.40056ZM75.6661 3.40056C75.6661 3.11256 75.4861 2.91456 75.1801 2.91456C74.8921 2.91456 74.6941 3.09456 74.6941 3.40056C74.6941 3.68856 74.8741 3.88656 75.1801 3.88656C75.4681 3.88656 75.6661 3.68856 75.6661 3.40056ZM67.9261 4.35456C67.9261 4.06656 67.7281 3.88656 67.4221 3.88656C67.1341 3.88656 66.9541 4.08456 66.9541 4.37256C66.9541 4.66056 67.1521 4.84056 67.4581 4.84056C67.7461 4.84056 67.9261 4.66056 67.9261 4.37256V4.35456ZM75.6661 4.35456C75.6661 4.06656 75.4681 3.88656 75.1621 3.88656C74.8741 3.88656 74.6941 4.08456 74.6941 4.37256C74.6941 4.66056 74.8921 4.84056 75.1981 4.84056C75.4861 4.84056 75.6661 4.66056 75.6661 4.37256V4.35456ZM66.9541 5.32656C66.9541 5.03856 66.7741 4.84056 66.4681 4.84056C66.1801 4.84056 65.9821 5.02056 65.9821 5.32656C65.9821 5.61456 66.1621 5.81256 66.4681 5.81256C66.7561 5.81256 66.9541 5.61456 66.9541 5.32656ZM75.6661 5.32656C75.6661 5.61456 75.8461 5.81256 76.1521 5.81256C76.4401 5.81256 76.6381 5.63256 76.6381 5.32656C76.6381 5.03856 76.4581 4.84056 76.1521 4.84056C75.8641 4.84056 75.6661 5.03856 75.6661 5.32656ZM66.9541 6.29856C66.9541 6.01056 66.7741 5.81256 66.4681 5.81256C66.1801 5.81256 65.9821 5.99256 65.9821 6.29856C65.9821 6.58656 66.1621 6.78456 66.4681 6.78456C66.7561 6.78456 66.9541 6.58656 66.9541 6.29856ZM75.6661 6.29856C75.6661 6.58656 75.8461 6.78456 76.1521 6.78456C76.4401 6.78456 76.6381 6.60456 76.6381 6.29856C76.6381 6.01056 76.4581 5.81256 76.1521 5.81256C75.8641 5.81256 75.6661 6.01056 75.6661 6.29856ZM66.9541 7.27056C66.9541 6.98256 66.7741 6.78456 66.4681 6.78456C66.1801 6.78456 65.9821 6.96456 65.9821 7.27056C65.9821 7.55856 66.1621 7.75656 66.4681 7.75656C66.7561 7.75656 66.9541 7.55856 66.9541 7.27056ZM75.6661 7.27056C75.6661 7.55856 75.8461 7.75656 76.1521 7.75656C76.4401 7.75656 76.6381 7.57656 76.6381 7.27056C76.6381 6.98256 76.4581 6.78456 76.1521 6.78456C75.8641 6.78456 75.6661 6.98256 75.6661 7.27056ZM66.9541 8.24256C66.9541 7.95456 66.7741 7.75656 66.4681 7.75656C66.1801 7.75656 65.9821 7.93656 65.9821 8.24256C65.9821 8.53056 66.1621 8.72856 66.4681 8.72856C66.7561 8.72856 66.9541 8.53056 66.9541 8.24256ZM75.6661 8.24256C75.6661 8.53056 75.8461 8.72856 76.1521 8.72856C76.4401 8.72856 76.6381 8.54856 76.6381 8.24256C76.6381 7.95456 76.4581 7.75656 76.1521 7.75656C75.8641 7.75656 75.6661 7.95456 75.6661 8.24256ZM75.6661 9.21456C75.6661 9.50256 75.8461 9.70056 76.1521 9.70056C76.4401 9.70056 76.6381 9.52056 76.6381 9.21456C76.6381 8.92656 76.4581 8.72856 76.1521 8.72856C75.8641 8.72856 75.6661 8.92656 75.6661 9.21456ZM66.9541 9.21456C66.9541 8.92656 66.7741 8.72856 66.4681 8.72856C66.1801 8.72856 65.9821 8.90856 65.9821 9.21456C65.9821 9.50256 66.1621 9.70056 66.4681 9.70056C66.7561 9.70056 66.9541 9.50256 66.9541 9.21456ZM75.6661 10.1686C75.6661 9.88056 75.4681 9.70056 75.1621 9.70056C74.8741 9.70056 74.6941 9.89856 74.6941 10.1866C74.6941 10.4746 74.8921 10.6546 75.1981 10.6546C75.4861 10.6546 75.6661 10.4746 75.6661 10.1866V10.1686ZM67.9261 10.1686C67.9261 9.88056 67.7281 9.70056 67.4221 9.70056C67.1341 9.70056 66.9541 9.89856 66.9541 10.1866C66.9541 10.4746 67.1521 10.6546 67.4581 10.6546C67.7461 10.6546 67.9261 10.4746 67.9261 10.1866V10.1686ZM75.6661 11.1406C75.6661 10.8526 75.4861 10.6546 75.1801 10.6546C74.8921 10.6546 74.6941 10.8346 74.6941 11.1406C74.6941 11.4286 74.8741 11.6266 75.1801 11.6266C75.4681 11.6266 75.6661 11.4286 75.6661 11.1406ZM67.9261 11.1406C67.9261 10.8526 67.7461 10.6546 67.4401 10.6546C67.1521 10.6546 66.9541 10.8346 66.9541 11.1406C66.9541 11.4286 67.1341 11.6266 67.4401 11.6266C67.7281 11.6266 67.9261 11.4286 67.9261 11.1406ZM74.6941 12.0946C74.6941 11.8066 74.4961 11.6266 74.2081 11.6266C73.9201 11.6266 73.7401 11.8246 73.7401 12.1306C73.7401 12.4186 73.9381 12.5986 74.2261 12.5986C74.5141 12.5986 74.6941 12.4186 74.6941 12.1306V12.0946ZM68.8981 12.1126C68.8981 11.8246 68.7181 11.6266 68.4121 11.6266C68.1241 11.6266 67.9261 11.8066 67.9261 12.1126C67.9261 12.4006 68.1061 12.5986 68.4121 12.5986C68.7001 12.5986 68.8981 12.4006 68.8981 12.1126ZM72.7681 13.0846C72.7681 13.3726 72.9481 13.5706 73.2541 13.5706C73.5421 13.5706 73.7401 13.3906 73.7401 13.0846C73.7401 12.7966 73.5601 12.5986 73.2541 12.5986C72.9661 12.5986 72.7681 12.7966 72.7681 13.0846ZM71.7961 13.0846C71.7961 13.3726 71.9761 13.5706 72.2821 13.5706C72.5701 13.5706 72.7681 13.3906 72.7681 13.0846C72.7681 12.7966 72.5881 12.5986 72.2821 12.5986C71.9941 12.5986 71.7961 12.7966 71.7961 13.0846ZM69.8521 13.0846C69.8521 13.3726 70.0321 13.5706 70.3381 13.5706C70.6261 13.5706 70.8241 13.3906 70.8241 13.0846C70.8241 12.7966 70.6441 12.5986 70.3381 12.5986C70.0501 12.5986 69.8521 12.7966 69.8521 13.0846ZM68.8981 13.1026C68.8981 13.3906 69.0961 13.5706 69.3841 13.5706C69.6721 13.5706 69.8521 13.3726 69.8521 13.0666C69.8521 12.7786 69.6541 12.5986 69.3661 12.5986C69.0781 12.5986 68.8981 12.7786 68.8981 13.0666V13.1026ZM70.8241 13.0846C70.8241 13.3726 71.0041 13.5706 71.3101 13.5706C71.5981 13.5706 71.7961 13.3906 71.7961 13.0846C71.7961 12.7966 71.6161 12.5986 71.3101 12.5986C71.0221 12.5986 70.8241 12.7966 70.8241 13.0846ZM76.6169 1.45656C76.6169 1.74456 76.8149 1.94256 77.1029 1.94256C77.4089 1.94256 77.5889 1.74456 77.5889 1.45656C77.5889 1.15056 77.3909 0.970556 77.1029 0.970556C76.7969 0.970556 76.6169 1.16856 76.6169 1.45656ZM92.1329 1.47456C92.1329 1.76256 92.3129 1.94256 92.6009 1.94256C92.8889 1.94256 93.0869 1.76256 93.0869 1.47456C93.0869 1.16856 92.9069 0.970556 92.6189 0.970556C92.3309 0.970556 92.1329 1.15056 92.1329 1.43856V1.47456ZM84.3749 1.45656C84.3749 1.74456 84.5729 1.94256 84.8609 1.94256C85.1669 1.94256 85.3469 1.74456 85.3469 1.45656C85.3469 1.15056 85.1489 0.970556 84.8609 0.970556C84.5549 0.970556 84.3749 1.16856 84.3749 1.45656ZM85.3469 2.42856C85.3469 2.14056 85.1489 1.94256 84.8609 1.94256C84.5549 1.94256 84.3749 2.14056 84.3749 2.42856C84.3749 2.73456 84.5729 2.91456 84.8609 2.91456C85.1669 2.91456 85.3469 2.71656 85.3469 2.42856ZM92.1329 2.44656C92.1329 2.73456 92.3129 2.91456 92.6009 2.91456C92.8889 2.91456 93.0869 2.73456 93.0869 2.44656C93.0869 2.14056 92.9069 1.94256 92.6189 1.94256C92.3309 1.94256 92.1329 2.12256 92.1329 2.41056V2.44656ZM77.5889 2.42856C77.5889 2.14056 77.3909 1.94256 77.1029 1.94256C76.7969 1.94256 76.6169 2.14056 76.6169 2.42856C76.6169 2.73456 76.8149 2.91456 77.1029 2.91456C77.4089 2.91456 77.5889 2.71656 77.5889 2.42856ZM92.1329 3.40056C92.1329 3.11256 91.9349 2.91456 91.6469 2.91456C91.3409 2.91456 91.1609 3.11256 91.1609 3.40056C91.1609 3.70656 91.3589 3.88656 91.6469 3.88656C91.9529 3.88656 92.1329 3.68856 92.1329 3.40056ZM86.3009 3.38256C86.3009 3.09456 86.1209 2.91456 85.8329 2.91456C85.5449 2.91456 85.3469 3.09456 85.3469 3.38256C85.3469 3.68856 85.5269 3.88656 85.8149 3.88656C86.1029 3.88656 86.3009 3.70656 86.3009 3.41856V3.38256ZM78.5609 3.40056C78.5609 3.11256 78.3629 2.91456 78.0749 2.91456C77.7689 2.91456 77.5889 3.11256 77.5889 3.40056C77.5889 3.70656 77.7869 3.88656 78.0749 3.88656C78.3809 3.88656 78.5609 3.68856 78.5609 3.40056ZM84.3749 3.40056C84.3749 3.11256 84.1769 2.91456 83.8889 2.91456C83.5829 2.91456 83.4029 3.11256 83.4029 3.40056C83.4029 3.70656 83.6009 3.88656 83.8889 3.88656C84.1949 3.88656 84.3749 3.68856 84.3749 3.40056ZM86.3009 4.35456C86.3009 4.06656 86.1209 3.88656 85.8329 3.88656C85.5269 3.88656 85.3469 4.06656 85.3469 4.35456C85.3469 4.64256 85.5269 4.84056 85.8149 4.84056C86.1029 4.84056 86.3009 4.66056 86.3009 4.37256V4.35456ZM92.1329 4.35456C92.1329 4.06656 91.9529 3.88656 91.6649 3.88656C91.3589 3.88656 91.1609 4.06656 91.1609 4.35456C91.1609 4.64256 91.3409 4.84056 91.6289 4.84056C91.9349 4.84056 92.1329 4.66056 92.1329 4.37256V4.35456ZM84.3749 4.35456C84.3749 4.06656 84.1949 3.88656 83.9069 3.88656C83.6009 3.88656 83.4029 4.06656 83.4029 4.35456C83.4029 4.64256 83.5829 4.84056 83.8709 4.84056C84.1769 4.84056 84.3749 4.66056 84.3749 4.37256V4.35456ZM78.5609 4.35456C78.5609 4.06656 78.3809 3.88656 78.0929 3.88656C77.7869 3.88656 77.5889 4.06656 77.5889 4.35456C77.5889 4.64256 77.7689 4.84056 78.0569 4.84056C78.3629 4.84056 78.5609 4.66056 78.5609 4.37256V4.35456ZM79.5329 5.32656C79.5329 5.03856 79.3349 4.84056 79.0469 4.84056C78.7409 4.84056 78.5609 5.03856 78.5609 5.32656C78.5609 5.63256 78.7589 5.81256 79.0469 5.81256C79.3529 5.81256 79.5329 5.61456 79.5329 5.32656ZM83.4029 5.32656C83.4029 5.03856 83.2049 4.84056 82.9169 4.84056C82.6109 4.84056 82.4309 5.03856 82.4309 5.32656C82.4309 5.63256 82.6289 5.81256 82.9169 5.81256C83.2229 5.81256 83.4029 5.61456 83.4029 5.32656ZM91.1609 5.32656C91.1609 5.03856 90.9629 4.84056 90.6749 4.84056C90.3689 4.84056 90.1889 5.03856 90.1889 5.32656C90.1889 5.63256 90.3869 5.81256 90.6749 5.81256C90.9809 5.81256 91.1609 5.61456 91.1609 5.32656ZM87.2729 5.32656C87.2729 5.03856 87.0749 4.84056 86.7869 4.84056C86.4809 4.84056 86.3009 5.03856 86.3009 5.32656C86.3009 5.63256 86.4989 5.81256 86.7869 5.81256C87.0929 5.81256 87.2729 5.61456 87.2729 5.32656ZM79.5329 6.29856C79.5329 6.01056 79.3349 5.81256 79.0469 5.81256C78.7409 5.81256 78.5609 6.01056 78.5609 6.29856C78.5609 6.60456 78.7589 6.78456 79.0469 6.78456C79.3529 6.78456 79.5329 6.58656 79.5329 6.29856ZM83.4029 6.29856C83.4029 6.01056 83.2049 5.81256 82.9169 5.81256C82.6109 5.81256 82.4309 6.01056 82.4309 6.29856C82.4309 6.60456 82.6289 6.78456 82.9169 6.78456C83.2229 6.78456 83.4029 6.58656 83.4029 6.29856ZM91.1609 6.29856C91.1609 6.01056 90.9629 5.81256 90.6749 5.81256C90.3689 5.81256 90.1889 6.01056 90.1889 6.29856C90.1889 6.60456 90.3869 6.78456 90.6749 6.78456C90.9809 6.78456 91.1609 6.58656 91.1609 6.29856ZM87.2729 6.29856C87.2729 6.01056 87.0749 5.81256 86.7869 5.81256C86.4809 5.81256 86.3009 6.01056 86.3009 6.29856C86.3009 6.60456 86.4989 6.78456 86.7869 6.78456C87.0929 6.78456 87.2729 6.58656 87.2729 6.29856ZM87.2729 7.27056C87.2729 6.98256 87.0749 6.78456 86.7869 6.78456C86.4809 6.78456 86.3009 6.98256 86.3009 7.27056C86.3009 7.57656 86.4989 7.75656 86.7869 7.75656C87.0929 7.75656 87.2729 7.55856 87.2729 7.27056ZM83.4029 7.27056C83.4029 6.98256 83.2049 6.78456 82.9169 6.78456C82.6109 6.78456 82.4309 6.98256 82.4309 7.27056C82.4309 7.57656 82.6289 7.75656 82.9169 7.75656C83.2229 7.75656 83.4029 7.55856 83.4029 7.27056ZM79.5329 7.27056C79.5329 6.98256 79.3349 6.78456 79.0469 6.78456C78.7409 6.78456 78.5609 6.98256 78.5609 7.27056C78.5609 7.57656 78.7589 7.75656 79.0469 7.75656C79.3529 7.75656 79.5329 7.55856 79.5329 7.27056ZM91.1609 7.27056C91.1609 6.98256 90.9629 6.78456 90.6749 6.78456C90.3689 6.78456 90.1889 6.98256 90.1889 7.27056C90.1889 7.57656 90.3869 7.75656 90.6749 7.75656C90.9809 7.75656 91.1609 7.55856 91.1609 7.27056ZM80.4869 8.22456C80.4869 7.93656 80.3069 7.75656 80.0189 7.75656C79.7309 7.75656 79.5329 7.93656 79.5329 8.22456C79.5329 8.53056 79.7129 8.72856 80.0009 8.72856C80.2889 8.72856 80.4869 8.54856 80.4869 8.26056V8.22456ZM88.2449 8.24256C88.2449 7.95456 88.0469 7.75656 87.7589 7.75656C87.4529 7.75656 87.2729 7.95456 87.2729 8.24256C87.2729 8.54856 87.4709 8.72856 87.7589 8.72856C88.0649 8.72856 88.2449 8.53056 88.2449 8.24256ZM90.1889 8.24256C90.1889 7.95456 89.9909 7.75656 89.7029 7.75656C89.3969 7.75656 89.2169 7.95456 89.2169 8.24256C89.2169 8.54856 89.4149 8.72856 89.7029 8.72856C90.0089 8.72856 90.1889 8.53056 90.1889 8.24256ZM82.4309 8.24256C82.4309 7.95456 82.2329 7.75656 81.9449 7.75656C81.6389 7.75656 81.4589 7.95456 81.4589 8.24256C81.4589 8.54856 81.6569 8.72856 81.9449 8.72856C82.2509 8.72856 82.4309 8.53056 82.4309 8.24256ZM80.4869 9.19656C80.4869 8.90856 80.3069 8.72856 80.0189 8.72856C79.7309 8.72856 79.5329 8.90856 79.5329 9.19656C79.5329 9.50256 79.7129 9.70056 80.0009 9.70056C80.2889 9.70056 80.4869 9.52056 80.4869 9.23256V9.19656ZM88.2449 9.21456C88.2449 8.92656 88.0469 8.72856 87.7589 8.72856C87.4529 8.72856 87.2729 8.92656 87.2729 9.21456C87.2729 9.52056 87.4709 9.70056 87.7589 9.70056C88.0649 9.70056 88.2449 9.50256 88.2449 9.21456ZM90.1889 9.21456C90.1889 8.92656 89.9909 8.72856 89.7029 8.72856C89.3969 8.72856 89.2169 8.92656 89.2169 9.21456C89.2169 9.52056 89.4149 9.70056 89.7029 9.70056C90.0089 9.70056 90.1889 9.50256 90.1889 9.21456ZM82.4309 9.21456C82.4309 8.92656 82.2329 8.72856 81.9449 8.72856C81.6389 8.72856 81.4589 8.92656 81.4589 9.21456C81.4589 9.52056 81.6569 9.70056 81.9449 9.70056C82.2509 9.70056 82.4309 9.50256 82.4309 9.21456ZM80.4869 10.1686C80.4869 9.88056 80.3069 9.70056 80.0189 9.70056C79.7129 9.70056 79.5329 9.88056 79.5329 10.1686C79.5329 10.4566 79.7129 10.6546 80.0009 10.6546C80.2889 10.6546 80.4869 10.4746 80.4869 10.1866V10.1686ZM88.2449 10.1686C88.2449 9.88056 88.0649 9.70056 87.7769 9.70056C87.4709 9.70056 87.2729 9.88056 87.2729 10.1686C87.2729 10.4566 87.4529 10.6546 87.7409 10.6546C88.0469 10.6546 88.2449 10.4746 88.2449 10.1866V10.1686ZM90.1889 10.1686C90.1889 9.88056 90.0089 9.70056 89.7209 9.70056C89.4149 9.70056 89.2169 9.88056 89.2169 10.1686C89.2169 10.4566 89.3969 10.6546 89.6849 10.6546C89.9909 10.6546 90.1889 10.4746 90.1889 10.1866V10.1686ZM82.4309 10.1686C82.4309 9.88056 82.2509 9.70056 81.9629 9.70056C81.6569 9.70056 81.4589 9.88056 81.4589 10.1686C81.4589 10.4566 81.6389 10.6546 81.9269 10.6546C82.2329 10.6546 82.4309 10.4746 82.4309 10.1866V10.1686ZM81.4589 11.1406C81.4589 10.8526 81.2609 10.6546 80.9729 10.6546C80.6669 10.6546 80.4869 10.8526 80.4869 11.1406C80.4869 11.4466 80.6849 11.6266 80.9729 11.6266C81.2789 11.6266 81.4589 11.4286 81.4589 11.1406ZM89.2169 11.1406C89.2169 10.8526 89.0189 10.6546 88.7309 10.6546C88.4249 10.6546 88.2449 10.8526 88.2449 11.1406C88.2449 11.4466 88.4429 11.6266 88.7309 11.6266C89.0369 11.6266 89.2169 11.4286 89.2169 11.1406ZM89.2169 12.1126C89.2169 11.8246 89.0189 11.6266 88.7309 11.6266C88.4249 11.6266 88.2449 11.8246 88.2449 12.1126C88.2449 12.4186 88.4429 12.5986 88.7309 12.5986C89.0369 12.5986 89.2169 12.4006 89.2169 12.1126ZM81.4589 12.1126C81.4589 11.8246 81.2609 11.6266 80.9729 11.6266C80.6669 11.6266 80.4869 11.8246 80.4869 12.1126C80.4869 12.4186 80.6849 12.5986 80.9729 12.5986C81.2789 12.5986 81.4589 12.4006 81.4589 12.1126ZM88.2449 13.0846C88.2449 13.3726 88.4429 13.5706 88.7309 13.5706C89.0369 13.5706 89.2169 13.3726 89.2169 13.0846C89.2169 12.7786 89.0189 12.5986 88.7309 12.5986C88.4249 12.5986 88.2449 12.7966 88.2449 13.0846ZM80.4869 13.0846C80.4869 13.3726 80.6849 13.5706 80.9729 13.5706C81.2789 13.5706 81.4589 13.3726 81.4589 13.0846C81.4589 12.7786 81.2609 12.5986 80.9729 12.5986C80.6669 12.5986 80.4869 12.7966 80.4869 13.0846ZM94.0544 1.45656C94.0544 1.74456 94.2524 1.94256 94.5404 1.94256C94.8464 1.94256 95.0264 1.74456 95.0264 1.45656C95.0264 1.15056 94.8284 0.970556 94.5404 0.970556C94.2344 0.970556 94.0544 1.16856 94.0544 1.45656ZM100.84 1.47456C100.84 1.76256 101.02 1.94256 101.308 1.94256C101.596 1.94256 101.794 1.76256 101.794 1.47456C101.794 1.16856 101.614 0.970556 101.326 0.970556C101.038 0.970556 100.84 1.15056 100.84 1.43856V1.47456ZM99.8684 1.45656C99.8684 1.74456 100.066 1.94256 100.354 1.94256C100.66 1.94256 100.84 1.74456 100.84 1.45656C100.84 1.15056 100.642 0.970556 100.354 0.970556C100.048 0.970556 99.8684 1.16856 99.8684 1.45656ZM98.8964 1.45656C98.8964 1.74456 99.0944 1.94256 99.3824 1.94256C99.6884 1.94256 99.8684 1.74456 99.8684 1.45656C99.8684 1.15056 99.6704 0.970556 99.3824 0.970556C99.0764 0.970556 98.8964 1.16856 98.8964 1.45656ZM97.9244 1.45656C97.9244 1.74456 98.1224 1.94256 98.4104 1.94256C98.7164 1.94256 98.8964 1.74456 98.8964 1.45656C98.8964 1.15056 98.6984 0.970556 98.4104 0.970556C98.1044 0.970556 97.9244 1.16856 97.9244 1.45656ZM96.9524 1.45656C96.9524 1.74456 97.1504 1.94256 97.4384 1.94256C97.7444 1.94256 97.9244 1.74456 97.9244 1.45656C97.9244 1.15056 97.7264 0.970556 97.4384 0.970556C97.1324 0.970556 96.9524 1.16856 96.9524 1.45656ZM95.0264 1.47456C95.0264 1.76256 95.2064 1.94256 95.4944 1.94256C95.7824 1.94256 95.9804 1.76256 95.9804 1.47456C95.9804 1.16856 95.8004 0.970556 95.5124 0.970556C95.2244 0.970556 95.0264 1.15056 95.0264 1.43856V1.47456ZM95.9804 1.45656C95.9804 1.74456 96.1784 1.94256 96.4664 1.94256C96.7724 1.94256 96.9524 1.74456 96.9524 1.45656C96.9524 1.15056 96.7544 0.970556 96.4664 0.970556C96.1604 0.970556 95.9804 1.16856 95.9804 1.45656ZM95.0264 2.42856C95.0264 2.14056 94.8284 1.94256 94.5404 1.94256C94.2344 1.94256 94.0544 2.14056 94.0544 2.42856C94.0544 2.73456 94.2524 2.91456 94.5404 2.91456C94.8464 2.91456 95.0264 2.71656 95.0264 2.42856ZM102.766 2.42856C102.766 2.14056 102.568 1.94256 102.28 1.94256C101.974 1.94256 101.794 2.14056 101.794 2.42856C101.794 2.73456 101.992 2.91456 102.28 2.91456C102.586 2.91456 102.766 2.71656 102.766 2.42856ZM95.0264 3.40056C95.0264 3.11256 94.8284 2.91456 94.5404 2.91456C94.2344 2.91456 94.0544 3.11256 94.0544 3.40056C94.0544 3.70656 94.2524 3.88656 94.5404 3.88656C94.8464 3.88656 95.0264 3.68856 95.0264 3.40056ZM102.766 3.40056C102.766 3.68856 102.964 3.88656 103.252 3.88656C103.558 3.88656 103.738 3.68856 103.738 3.40056C103.738 3.09456 103.54 2.91456 103.252 2.91456C102.946 2.91456 102.766 3.11256 102.766 3.40056ZM95.0264 4.35456C95.0264 4.06656 94.8464 3.88656 94.5584 3.88656C94.2524 3.88656 94.0544 4.06656 94.0544 4.35456C94.0544 4.64256 94.2344 4.84056 94.5224 4.84056C94.8284 4.84056 95.0264 4.66056 95.0264 4.37256V4.35456ZM102.766 4.37256C102.766 4.66056 102.946 4.84056 103.234 4.84056C103.54 4.84056 103.738 4.66056 103.738 4.37256C103.738 4.08456 103.558 3.88656 103.27 3.88656C102.964 3.88656 102.766 4.06656 102.766 4.35456V4.37256ZM95.0264 5.32656C95.0264 5.03856 94.8284 4.84056 94.5404 4.84056C94.2344 4.84056 94.0544 5.03856 94.0544 5.32656C94.0544 5.63256 94.2524 5.81256 94.5404 5.81256C94.8464 5.81256 95.0264 5.61456 95.0264 5.32656ZM102.766 5.32656C102.766 5.61456 102.964 5.81256 103.252 5.81256C103.558 5.81256 103.738 5.61456 103.738 5.32656C103.738 5.02056 103.54 4.84056 103.252 4.84056C102.946 4.84056 102.766 5.03856 102.766 5.32656ZM95.0264 6.29856C95.0264 6.01056 94.8284 5.81256 94.5404 5.81256C94.2344 5.81256 94.0544 6.01056 94.0544 6.29856C94.0544 6.60456 94.2524 6.78456 94.5404 6.78456C94.8464 6.78456 95.0264 6.58656 95.0264 6.29856ZM102.766 6.29856C102.766 6.58656 102.964 6.78456 103.252 6.78456C103.558 6.78456 103.738 6.58656 103.738 6.29856C103.738 5.99256 103.54 5.81256 103.252 5.81256C102.946 5.81256 102.766 6.01056 102.766 6.29856ZM95.0264 7.27056C95.0264 6.98256 94.8284 6.78456 94.5404 6.78456C94.2344 6.78456 94.0544 6.98256 94.0544 7.27056C94.0544 7.57656 94.2524 7.75656 94.5404 7.75656C94.8464 7.75656 95.0264 7.55856 95.0264 7.27056ZM102.766 7.27056C102.766 6.98256 102.568 6.78456 102.28 6.78456C101.974 6.78456 101.794 6.98256 101.794 7.27056C101.794 7.57656 101.992 7.75656 102.28 7.75656C102.586 7.75656 102.766 7.55856 102.766 7.27056ZM95.0264 8.24256C95.0264 7.95456 94.8284 7.75656 94.5404 7.75656C94.2344 7.75656 94.0544 7.95456 94.0544 8.24256C94.0544 8.54856 94.2524 8.72856 94.5404 8.72856C94.8464 8.72856 95.0264 8.53056 95.0264 8.24256ZM95.9804 8.22456C95.9804 7.93656 95.8004 7.75656 95.5124 7.75656C95.2244 7.75656 95.0264 7.93656 95.0264 8.22456C95.0264 8.53056 95.2064 8.72856 95.4944 8.72856C95.7824 8.72856 95.9804 8.54856 95.9804 8.26056V8.22456ZM96.9524 8.24256C96.9524 7.95456 96.7544 7.75656 96.4664 7.75656C96.1604 7.75656 95.9804 7.95456 95.9804 8.24256C95.9804 8.54856 96.1784 8.72856 96.4664 8.72856C96.7724 8.72856 96.9524 8.53056 96.9524 8.24256ZM97.9244 8.24256C97.9244 7.95456 97.7264 7.75656 97.4384 7.75656C97.1324 7.75656 96.9524 7.95456 96.9524 8.24256C96.9524 8.54856 97.1504 8.72856 97.4384 8.72856C97.7444 8.72856 97.9244 8.53056 97.9244 8.24256ZM98.8964 8.24256C98.8964 7.95456 98.6984 7.75656 98.4104 7.75656C98.1044 7.75656 97.9244 7.95456 97.9244 8.24256C97.9244 8.54856 98.1224 8.72856 98.4104 8.72856C98.7164 8.72856 98.8964 8.53056 98.8964 8.24256ZM99.8684 8.24256C99.8684 7.95456 99.6704 7.75656 99.3824 7.75656C99.0764 7.75656 98.8964 7.95456 98.8964 8.24256C98.8964 8.54856 99.0944 8.72856 99.3824 8.72856C99.6884 8.72856 99.8684 8.53056 99.8684 8.24256ZM100.84 8.24256C100.84 7.95456 100.642 7.75656 100.354 7.75656C100.048 7.75656 99.8684 7.95456 99.8684 8.24256C99.8684 8.54856 100.066 8.72856 100.354 8.72856C100.66 8.72856 100.84 8.53056 100.84 8.24256ZM101.794 8.22456C101.794 7.93656 101.614 7.75656 101.326 7.75656C101.038 7.75656 100.84 7.93656 100.84 8.22456C100.84 8.53056 101.02 8.72856 101.308 8.72856C101.596 8.72856 101.794 8.54856 101.794 8.26056V8.22456ZM95.0264 9.21456C95.0264 8.92656 94.8284 8.72856 94.5404 8.72856C94.2344 8.72856 94.0544 8.92656 94.0544 9.21456C94.0544 9.52056 94.2524 9.70056 94.5404 9.70056C94.8464 9.70056 95.0264 9.50256 95.0264 9.21456ZM102.766 9.21456C102.766 8.92656 102.568 8.72856 102.28 8.72856C101.974 8.72856 101.794 8.92656 101.794 9.21456C101.794 9.52056 101.992 9.70056 102.28 9.70056C102.586 9.70056 102.766 9.50256 102.766 9.21456ZM95.0264 10.1686C95.0264 9.88056 94.8464 9.70056 94.5584 9.70056C94.2524 9.70056 94.0544 9.88056 94.0544 10.1686C94.0544 10.4566 94.2344 10.6546 94.5224 10.6546C94.8284 10.6546 95.0264 10.4746 95.0264 10.1866V10.1686ZM102.766 10.1866C102.766 10.4746 102.946 10.6546 103.234 10.6546C103.54 10.6546 103.738 10.4746 103.738 10.1866C103.738 9.89856 103.558 9.70056 103.27 9.70056C102.964 9.70056 102.766 9.88056 102.766 10.1686V10.1866ZM95.0264 11.1406C95.0264 10.8526 94.8284 10.6546 94.5404 10.6546C94.2344 10.6546 94.0544 10.8526 94.0544 11.1406C94.0544 11.4466 94.2524 11.6266 94.5404 11.6266C94.8464 11.6266 95.0264 11.4286 95.0264 11.1406ZM102.766 11.1406C102.766 11.4286 102.964 11.6266 103.252 11.6266C103.558 11.6266 103.738 11.4286 103.738 11.1406C103.738 10.8346 103.54 10.6546 103.252 10.6546C102.946 10.6546 102.766 10.8526 102.766 11.1406ZM95.0264 12.1126C95.0264 11.8246 94.8284 11.6266 94.5404 11.6266C94.2344 11.6266 94.0544 11.8246 94.0544 12.1126C94.0544 12.4186 94.2524 12.5986 94.5404 12.5986C94.8464 12.5986 95.0264 12.4006 95.0264 12.1126ZM102.766 12.1126C102.766 12.4006 102.964 12.5986 103.252 12.5986C103.558 12.5986 103.738 12.4006 103.738 12.1126C103.738 11.8066 103.54 11.6266 103.252 11.6266C102.946 11.6266 102.766 11.8246 102.766 12.1126ZM94.0544 13.0846C94.0544 13.3726 94.2524 13.5706 94.5404 13.5706C94.8464 13.5706 95.0264 13.3726 95.0264 13.0846C95.0264 12.7786 94.8284 12.5986 94.5404 12.5986C94.2344 12.5986 94.0544 12.7966 94.0544 13.0846ZM102.766 13.0846C102.766 13.3726 102.964 13.5706 103.252 13.5706C103.558 13.5706 103.738 13.3726 103.738 13.0846C103.738 12.7786 103.54 12.5986 103.252 12.5986C102.946 12.5986 102.766 12.7966 102.766 13.0846ZM104.707 1.45656C104.707 1.74456 104.905 1.94256 105.193 1.94256C105.499 1.94256 105.679 1.74456 105.679 1.45656C105.679 1.15056 105.481 0.970556 105.193 0.970556C104.887 0.970556 104.707 1.16856 104.707 1.45656ZM112.465 1.45656C112.465 1.74456 112.663 1.94256 112.951 1.94256C113.257 1.94256 113.437 1.74456 113.437 1.45656C113.437 1.15056 113.239 0.970556 112.951 0.970556C112.645 0.970556 112.465 1.16856 112.465 1.45656ZM105.679 1.45656C105.679 1.74456 105.877 1.94256 106.165 1.94256C106.471 1.94256 106.651 1.74456 106.651 1.45656C106.651 1.15056 106.453 0.970556 106.165 0.970556C105.859 0.970556 105.679 1.16856 105.679 1.45656ZM106.651 1.45656C106.651 1.74456 106.849 1.94256 107.137 1.94256C107.443 1.94256 107.623 1.74456 107.623 1.45656C107.623 1.15056 107.425 0.970556 107.137 0.970556C106.831 0.970556 106.651 1.16856 106.651 1.45656ZM111.493 1.45656C111.493 1.74456 111.691 1.94256 111.979 1.94256C112.285 1.94256 112.465 1.74456 112.465 1.45656C112.465 1.15056 112.267 0.970556 111.979 0.970556C111.673 0.970556 111.493 1.16856 111.493 1.45656ZM107.623 1.45656C107.623 1.74456 107.821 1.94256 108.109 1.94256C108.415 1.94256 108.595 1.74456 108.595 1.45656C108.595 1.15056 108.397 0.970556 108.109 0.970556C107.803 0.970556 107.623 1.16856 107.623 1.45656ZM108.595 1.45656C108.595 1.74456 108.793 1.94256 109.081 1.94256C109.387 1.94256 109.567 1.74456 109.567 1.45656C109.567 1.15056 109.369 0.970556 109.081 0.970556C108.775 0.970556 108.595 1.16856 108.595 1.45656ZM109.567 1.47456C109.567 1.76256 109.747 1.94256 110.035 1.94256C110.323 1.94256 110.521 1.76256 110.521 1.47456C110.521 1.16856 110.341 0.970556 110.053 0.970556C109.765 0.970556 109.567 1.15056 109.567 1.43856V1.47456ZM110.521 1.45656C110.521 1.74456 110.719 1.94256 111.007 1.94256C111.313 1.94256 111.493 1.74456 111.493 1.45656C111.493 1.15056 111.295 0.970556 111.007 0.970556C110.701 0.970556 110.521 1.16856 110.521 1.45656ZM105.679 2.42856C105.679 2.14056 105.481 1.94256 105.193 1.94256C104.887 1.94256 104.707 2.14056 104.707 2.42856C104.707 2.73456 104.905 2.91456 105.193 2.91456C105.499 2.91456 105.679 2.71656 105.679 2.42856ZM105.679 3.40056C105.679 3.11256 105.481 2.91456 105.193 2.91456C104.887 2.91456 104.707 3.11256 104.707 3.40056C104.707 3.70656 104.905 3.88656 105.193 3.88656C105.499 3.88656 105.679 3.68856 105.679 3.40056ZM105.679 4.35456C105.679 4.06656 105.499 3.88656 105.211 3.88656C104.905 3.88656 104.707 4.06656 104.707 4.35456C104.707 4.64256 104.887 4.84056 105.175 4.84056C105.481 4.84056 105.679 4.66056 105.679 4.37256V4.35456ZM105.679 5.32656C105.679 5.03856 105.481 4.84056 105.193 4.84056C104.887 4.84056 104.707 5.03856 104.707 5.32656C104.707 5.63256 104.905 5.81256 105.193 5.81256C105.499 5.81256 105.679 5.61456 105.679 5.32656ZM105.679 6.29856C105.679 6.01056 105.481 5.81256 105.193 5.81256C104.887 5.81256 104.707 6.01056 104.707 6.29856C104.707 6.60456 104.905 6.78456 105.193 6.78456C105.499 6.78456 105.679 6.58656 105.679 6.29856ZM105.679 7.27056C105.679 6.98256 105.481 6.78456 105.193 6.78456C104.887 6.78456 104.707 6.98256 104.707 7.27056C104.707 7.57656 104.905 7.75656 105.193 7.75656C105.499 7.75656 105.679 7.55856 105.679 7.27056ZM106.651 7.27056C106.651 6.98256 106.453 6.78456 106.165 6.78456C105.859 6.78456 105.679 6.98256 105.679 7.27056C105.679 7.57656 105.877 7.75656 106.165 7.75656C106.471 7.75656 106.651 7.55856 106.651 7.27056ZM107.623 7.27056C107.623 6.98256 107.425 6.78456 107.137 6.78456C106.831 6.78456 106.651 6.98256 106.651 7.27056C106.651 7.57656 106.849 7.75656 107.137 7.75656C107.443 7.75656 107.623 7.55856 107.623 7.27056ZM111.493 7.27056C111.493 7.57656 111.691 7.75656 111.979 7.75656C112.285 7.75656 112.465 7.55856 112.465 7.27056C112.465 6.98256 112.267 6.78456 111.979 6.78456C111.673 6.78456 111.493 6.98256 111.493 7.27056ZM108.595 7.27056C108.595 6.98256 108.397 6.78456 108.109 6.78456C107.803 6.78456 107.623 6.98256 107.623 7.27056C107.623 7.57656 107.821 7.75656 108.109 7.75656C108.415 7.75656 108.595 7.55856 108.595 7.27056ZM109.567 7.27056C109.567 6.98256 109.369 6.78456 109.081 6.78456C108.775 6.78456 108.595 6.98256 108.595 7.27056C108.595 7.57656 108.793 7.75656 109.081 7.75656C109.387 7.75656 109.567 7.55856 109.567 7.27056ZM110.521 7.27056C110.521 7.57656 110.719 7.75656 111.007 7.75656C111.313 7.75656 111.493 7.55856 111.493 7.27056C111.493 6.98256 111.295 6.78456 111.007 6.78456C110.701 6.78456 110.521 6.98256 110.521 7.27056ZM110.521 7.25256C110.521 6.96456 110.341 6.78456 110.053 6.78456C109.765 6.78456 109.567 6.96456 109.567 7.25256C109.567 7.55856 109.747 7.75656 110.035 7.75656C110.323 7.75656 110.521 7.57656 110.521 7.28856V7.25256ZM105.679 8.24256C105.679 7.95456 105.481 7.75656 105.193 7.75656C104.887 7.75656 104.707 7.95456 104.707 8.24256C104.707 8.54856 104.905 8.72856 105.193 8.72856C105.499 8.72856 105.679 8.53056 105.679 8.24256ZM105.679 9.21456C105.679 8.92656 105.481 8.72856 105.193 8.72856C104.887 8.72856 104.707 8.92656 104.707 9.21456C104.707 9.52056 104.905 9.70056 105.193 9.70056C105.499 9.70056 105.679 9.50256 105.679 9.21456ZM105.679 10.1686C105.679 9.88056 105.499 9.70056 105.211 9.70056C104.905 9.70056 104.707 9.88056 104.707 10.1686C104.707 10.4566 104.887 10.6546 105.175 10.6546C105.481 10.6546 105.679 10.4746 105.679 10.1866V10.1686ZM105.679 11.1406C105.679 10.8526 105.481 10.6546 105.193 10.6546C104.887 10.6546 104.707 10.8526 104.707 11.1406C104.707 11.4466 104.905 11.6266 105.193 11.6266C105.499 11.6266 105.679 11.4286 105.679 11.1406ZM105.679 12.1126C105.679 11.8246 105.481 11.6266 105.193 11.6266C104.887 11.6266 104.707 11.8246 104.707 12.1126C104.707 12.4186 104.905 12.5986 105.193 12.5986C105.499 12.5986 105.679 12.4006 105.679 12.1126ZM108.595 13.0846C108.595 13.3726 108.793 13.5706 109.081 13.5706C109.387 13.5706 109.567 13.3726 109.567 13.0846C109.567 12.7786 109.369 12.5986 109.081 12.5986C108.775 12.5986 108.595 12.7966 108.595 13.0846ZM107.623 13.0846C107.623 13.3726 107.821 13.5706 108.109 13.5706C108.415 13.5706 108.595 13.3726 108.595 13.0846C108.595 12.7786 108.397 12.5986 108.109 12.5986C107.803 12.5986 107.623 12.7966 107.623 13.0846ZM109.567 13.1026C109.567 13.3906 109.747 13.5706 110.035 13.5706C110.323 13.5706 110.521 13.3906 110.521 13.1026C110.521 12.7966 110.341 12.5986 110.053 12.5986C109.765 12.5986 109.567 12.7786 109.567 13.0666V13.1026ZM110.521 13.0846C110.521 13.3726 110.719 13.5706 111.007 13.5706C111.313 13.5706 111.493 13.3726 111.493 13.0846C111.493 12.7786 111.295 12.5986 111.007 12.5986C110.701 12.5986 110.521 12.7966 110.521 13.0846ZM106.651 13.0846C106.651 13.3726 106.849 13.5706 107.137 13.5706C107.443 13.5706 107.623 13.3726 107.623 13.0846C107.623 12.7786 107.425 12.5986 107.137 12.5986C106.831 12.5986 106.651 12.7966 106.651 13.0846ZM111.493 13.0846C111.493 13.3726 111.691 13.5706 111.979 13.5706C112.285 13.5706 112.465 13.3726 112.465 13.0846C112.465 12.7786 112.267 12.5986 111.979 12.5986C111.673 12.5986 111.493 12.7966 111.493 13.0846ZM105.679 13.0846C105.679 13.3726 105.877 13.5706 106.165 13.5706C106.471 13.5706 106.651 13.3726 106.651 13.0846C106.651 12.7786 106.453 12.5986 106.165 12.5986C105.859 12.5986 105.679 12.7966 105.679 13.0846ZM104.707 13.0846C104.707 13.3726 104.905 13.5706 105.193 13.5706C105.499 13.5706 105.679 13.3726 105.679 13.0846C105.679 12.7786 105.481 12.5986 105.193 12.5986C104.887 12.5986 104.707 12.7966 104.707 13.0846ZM112.465 13.0846C112.465 13.3726 112.663 13.5706 112.951 13.5706C113.257 13.5706 113.437 13.3726 113.437 13.0846C113.437 12.7786 113.239 12.5986 112.951 12.5986C112.645 12.5986 112.465 12.7966 112.465 13.0846ZM114.41 1.45656C114.41 1.74456 114.608 1.94256 114.896 1.94256C115.202 1.94256 115.382 1.74456 115.382 1.45656C115.382 1.15056 115.184 0.970556 114.896 0.970556C114.59 0.970556 114.41 1.16856 114.41 1.45656ZM122.168 1.45656C122.168 1.74456 122.366 1.94256 122.654 1.94256C122.96 1.94256 123.14 1.74456 123.14 1.45656C123.14 1.15056 122.942 0.970556 122.654 0.970556C122.348 0.970556 122.168 1.16856 122.168 1.45656ZM115.382 1.45656C115.382 1.74456 115.58 1.94256 115.868 1.94256C116.174 1.94256 116.354 1.74456 116.354 1.45656C116.354 1.15056 116.156 0.970556 115.868 0.970556C115.562 0.970556 115.382 1.16856 115.382 1.45656ZM116.354 1.45656C116.354 1.74456 116.552 1.94256 116.84 1.94256C117.146 1.94256 117.326 1.74456 117.326 1.45656C117.326 1.15056 117.128 0.970556 116.84 0.970556C116.534 0.970556 116.354 1.16856 116.354 1.45656ZM121.196 1.45656C121.196 1.74456 121.394 1.94256 121.682 1.94256C121.988 1.94256 122.168 1.74456 122.168 1.45656C122.168 1.15056 121.97 0.970556 121.682 0.970556C121.376 0.970556 121.196 1.16856 121.196 1.45656ZM117.326 1.45656C117.326 1.74456 117.524 1.94256 117.812 1.94256C118.118 1.94256 118.298 1.74456 118.298 1.45656C118.298 1.15056 118.1 0.970556 117.812 0.970556C117.506 0.970556 117.326 1.16856 117.326 1.45656ZM118.298 1.45656C118.298 1.74456 118.496 1.94256 118.784 1.94256C119.09 1.94256 119.27 1.74456 119.27 1.45656C119.27 1.15056 119.072 0.970556 118.784 0.970556C118.478 0.970556 118.298 1.16856 118.298 1.45656ZM119.27 1.47456C119.27 1.76256 119.45 1.94256 119.738 1.94256C120.026 1.94256 120.224 1.76256 120.224 1.47456C120.224 1.16856 120.044 0.970556 119.756 0.970556C119.468 0.970556 119.27 1.15056 119.27 1.43856V1.47456ZM120.224 1.45656C120.224 1.74456 120.422 1.94256 120.71 1.94256C121.016 1.94256 121.196 1.74456 121.196 1.45656C121.196 1.15056 120.998 0.970556 120.71 0.970556C120.404 0.970556 120.224 1.16856 120.224 1.45656ZM115.382 2.42856C115.382 2.14056 115.184 1.94256 114.896 1.94256C114.59 1.94256 114.41 2.14056 114.41 2.42856C114.41 2.73456 114.608 2.91456 114.896 2.91456C115.202 2.91456 115.382 2.71656 115.382 2.42856ZM115.382 3.40056C115.382 3.11256 115.184 2.91456 114.896 2.91456C114.59 2.91456 114.41 3.11256 114.41 3.40056C114.41 3.70656 114.608 3.88656 114.896 3.88656C115.202 3.88656 115.382 3.68856 115.382 3.40056ZM115.382 4.35456C115.382 4.06656 115.202 3.88656 114.914 3.88656C114.608 3.88656 114.41 4.06656 114.41 4.35456C114.41 4.64256 114.59 4.84056 114.878 4.84056C115.184 4.84056 115.382 4.66056 115.382 4.37256V4.35456ZM115.382 5.32656C115.382 5.03856 115.184 4.84056 114.896 4.84056C114.59 4.84056 114.41 5.03856 114.41 5.32656C114.41 5.63256 114.608 5.81256 114.896 5.81256C115.202 5.81256 115.382 5.61456 115.382 5.32656ZM115.382 6.29856C115.382 6.01056 115.184 5.81256 114.896 5.81256C114.59 5.81256 114.41 6.01056 114.41 6.29856C114.41 6.60456 114.608 6.78456 114.896 6.78456C115.202 6.78456 115.382 6.58656 115.382 6.29856ZM115.382 7.27056C115.382 6.98256 115.184 6.78456 114.896 6.78456C114.59 6.78456 114.41 6.98256 114.41 7.27056C114.41 7.57656 114.608 7.75656 114.896 7.75656C115.202 7.75656 115.382 7.55856 115.382 7.27056ZM116.354 7.27056C116.354 6.98256 116.156 6.78456 115.868 6.78456C115.562 6.78456 115.382 6.98256 115.382 7.27056C115.382 7.57656 115.58 7.75656 115.868 7.75656C116.174 7.75656 116.354 7.55856 116.354 7.27056ZM117.326 7.27056C117.326 6.98256 117.128 6.78456 116.84 6.78456C116.534 6.78456 116.354 6.98256 116.354 7.27056C116.354 7.57656 116.552 7.75656 116.84 7.75656C117.146 7.75656 117.326 7.55856 117.326 7.27056ZM121.196 7.27056C121.196 7.57656 121.394 7.75656 121.682 7.75656C121.988 7.75656 122.168 7.55856 122.168 7.27056C122.168 6.98256 121.97 6.78456 121.682 6.78456C121.376 6.78456 121.196 6.98256 121.196 7.27056ZM118.298 7.27056C118.298 6.98256 118.1 6.78456 117.812 6.78456C117.506 6.78456 117.326 6.98256 117.326 7.27056C117.326 7.57656 117.524 7.75656 117.812 7.75656C118.118 7.75656 118.298 7.55856 118.298 7.27056ZM119.27 7.27056C119.27 6.98256 119.072 6.78456 118.784 6.78456C118.478 6.78456 118.298 6.98256 118.298 7.27056C118.298 7.57656 118.496 7.75656 118.784 7.75656C119.09 7.75656 119.27 7.55856 119.27 7.27056ZM120.224 7.27056C120.224 7.57656 120.422 7.75656 120.71 7.75656C121.016 7.75656 121.196 7.55856 121.196 7.27056C121.196 6.98256 120.998 6.78456 120.71 6.78456C120.404 6.78456 120.224 6.98256 120.224 7.27056ZM120.224 7.25256C120.224 6.96456 120.044 6.78456 119.756 6.78456C119.468 6.78456 119.27 6.96456 119.27 7.25256C119.27 7.55856 119.45 7.75656 119.738 7.75656C120.026 7.75656 120.224 7.57656 120.224 7.28856V7.25256ZM115.382 8.24256C115.382 7.95456 115.184 7.75656 114.896 7.75656C114.59 7.75656 114.41 7.95456 114.41 8.24256C114.41 8.54856 114.608 8.72856 114.896 8.72856C115.202 8.72856 115.382 8.53056 115.382 8.24256ZM115.382 9.21456C115.382 8.92656 115.184 8.72856 114.896 8.72856C114.59 8.72856 114.41 8.92656 114.41 9.21456C114.41 9.52056 114.608 9.70056 114.896 9.70056C115.202 9.70056 115.382 9.50256 115.382 9.21456ZM115.382 10.1686C115.382 9.88056 115.202 9.70056 114.914 9.70056C114.608 9.70056 114.41 9.88056 114.41 10.1686C114.41 10.4566 114.59 10.6546 114.878 10.6546C115.184 10.6546 115.382 10.4746 115.382 10.1866V10.1686ZM115.382 11.1406C115.382 10.8526 115.184 10.6546 114.896 10.6546C114.59 10.6546 114.41 10.8526 114.41 11.1406C114.41 11.4466 114.608 11.6266 114.896 11.6266C115.202 11.6266 115.382 11.4286 115.382 11.1406ZM115.382 12.1126C115.382 11.8246 115.184 11.6266 114.896 11.6266C114.59 11.6266 114.41 11.8246 114.41 12.1126C114.41 12.4186 114.608 12.5986 114.896 12.5986C115.202 12.5986 115.382 12.4006 115.382 12.1126ZM118.298 13.0846C118.298 13.3726 118.496 13.5706 118.784 13.5706C119.09 13.5706 119.27 13.3726 119.27 13.0846C119.27 12.7786 119.072 12.5986 118.784 12.5986C118.478 12.5986 118.298 12.7966 118.298 13.0846ZM117.326 13.0846C117.326 13.3726 117.524 13.5706 117.812 13.5706C118.118 13.5706 118.298 13.3726 118.298 13.0846C118.298 12.7786 118.1 12.5986 117.812 12.5986C117.506 12.5986 117.326 12.7966 117.326 13.0846ZM119.27 13.1026C119.27 13.3906 119.45 13.5706 119.738 13.5706C120.026 13.5706 120.224 13.3906 120.224 13.1026C120.224 12.7966 120.044 12.5986 119.756 12.5986C119.468 12.5986 119.27 12.7786 119.27 13.0666V13.1026ZM120.224 13.0846C120.224 13.3726 120.422 13.5706 120.71 13.5706C121.016 13.5706 121.196 13.3726 121.196 13.0846C121.196 12.7786 120.998 12.5986 120.71 12.5986C120.404 12.5986 120.224 12.7966 120.224 13.0846ZM116.354 13.0846C116.354 13.3726 116.552 13.5706 116.84 13.5706C117.146 13.5706 117.326 13.3726 117.326 13.0846C117.326 12.7786 117.128 12.5986 116.84 12.5986C116.534 12.5986 116.354 12.7966 116.354 13.0846ZM121.196 13.0846C121.196 13.3726 121.394 13.5706 121.682 13.5706C121.988 13.5706 122.168 13.3726 122.168 13.0846C122.168 12.7786 121.97 12.5986 121.682 12.5986C121.376 12.5986 121.196 12.7966 121.196 13.0846ZM115.382 13.0846C115.382 13.3726 115.58 13.5706 115.868 13.5706C116.174 13.5706 116.354 13.3726 116.354 13.0846C116.354 12.7786 116.156 12.5986 115.868 12.5986C115.562 12.5986 115.382 12.7966 115.382 13.0846ZM114.41 13.0846C114.41 13.3726 114.608 13.5706 114.896 13.5706C115.202 13.5706 115.382 13.3726 115.382 13.0846C115.382 12.7786 115.184 12.5986 114.896 12.5986C114.59 12.5986 114.41 12.7966 114.41 13.0846ZM122.168 13.0846C122.168 13.3726 122.366 13.5706 122.654 13.5706C122.96 13.5706 123.14 13.3726 123.14 13.0846C123.14 12.7786 122.942 12.5986 122.654 12.5986C122.348 12.5986 122.168 12.7966 122.168 13.0846ZM124.113 1.45656C124.113 1.74456 124.311 1.94256 124.599 1.94256C124.905 1.94256 125.085 1.74456 125.085 1.45656C125.085 1.15056 124.887 0.970556 124.599 0.970556C124.293 0.970556 124.113 1.16856 124.113 1.45656ZM125.085 2.42856C125.085 2.14056 124.887 1.94256 124.599 1.94256C124.293 1.94256 124.113 2.14056 124.113 2.42856C124.113 2.73456 124.311 2.91456 124.599 2.91456C124.905 2.91456 125.085 2.71656 125.085 2.42856ZM125.085 3.40056C125.085 3.11256 124.887 2.91456 124.599 2.91456C124.293 2.91456 124.113 3.11256 124.113 3.40056C124.113 3.70656 124.311 3.88656 124.599 3.88656C124.905 3.88656 125.085 3.68856 125.085 3.40056ZM125.085 4.35456C125.085 4.06656 124.905 3.88656 124.617 3.88656C124.311 3.88656 124.113 4.06656 124.113 4.35456C124.113 4.64256 124.293 4.84056 124.581 4.84056C124.887 4.84056 125.085 4.66056 125.085 4.37256V4.35456ZM125.085 5.32656C125.085 5.03856 124.887 4.84056 124.599 4.84056C124.293 4.84056 124.113 5.03856 124.113 5.32656C124.113 5.63256 124.311 5.81256 124.599 5.81256C124.905 5.81256 125.085 5.61456 125.085 5.32656ZM125.085 6.29856C125.085 6.01056 124.887 5.81256 124.599 5.81256C124.293 5.81256 124.113 6.01056 124.113 6.29856C124.113 6.60456 124.311 6.78456 124.599 6.78456C124.905 6.78456 125.085 6.58656 125.085 6.29856ZM125.085 7.27056C125.085 6.98256 124.887 6.78456 124.599 6.78456C124.293 6.78456 124.113 6.98256 124.113 7.27056C124.113 7.57656 124.311 7.75656 124.599 7.75656C124.905 7.75656 125.085 7.55856 125.085 7.27056ZM125.085 8.24256C125.085 7.95456 124.887 7.75656 124.599 7.75656C124.293 7.75656 124.113 7.95456 124.113 8.24256C124.113 8.54856 124.311 8.72856 124.599 8.72856C124.905 8.72856 125.085 8.53056 125.085 8.24256ZM125.085 9.21456C125.085 8.92656 124.887 8.72856 124.599 8.72856C124.293 8.72856 124.113 8.92656 124.113 9.21456C124.113 9.52056 124.311 9.70056 124.599 9.70056C124.905 9.70056 125.085 9.50256 125.085 9.21456ZM125.085 10.1686C125.085 9.88056 124.905 9.70056 124.617 9.70056C124.311 9.70056 124.113 9.88056 124.113 10.1686C124.113 10.4566 124.293 10.6546 124.581 10.6546C124.887 10.6546 125.085 10.4746 125.085 10.1866V10.1686ZM125.085 11.1406C125.085 10.8526 124.887 10.6546 124.599 10.6546C124.293 10.6546 124.113 10.8526 124.113 11.1406C124.113 11.4466 124.311 11.6266 124.599 11.6266C124.905 11.6266 125.085 11.4286 125.085 11.1406ZM125.085 12.1126C125.085 11.8246 124.887 11.6266 124.599 11.6266C124.293 11.6266 124.113 11.8246 124.113 12.1126C124.113 12.4186 124.311 12.5986 124.599 12.5986C124.905 12.5986 125.085 12.4006 125.085 12.1126ZM124.113 13.0846C124.113 13.3726 124.311 13.5706 124.599 13.5706C124.905 13.5706 125.085 13.3726 125.085 13.0846C125.085 12.7786 124.887 12.5986 124.599 12.5986C124.293 12.5986 124.113 12.7966 124.113 13.0846ZM125.085 13.0846C125.085 13.3726 125.283 13.5706 125.571 13.5706C125.877 13.5706 126.057 13.3726 126.057 13.0846C126.057 12.7786 125.859 12.5986 125.571 12.5986C125.265 12.5986 125.085 12.7966 125.085 13.0846ZM126.057 13.0846C126.057 13.3726 126.255 13.5706 126.543 13.5706C126.849 13.5706 127.029 13.3726 127.029 13.0846C127.029 12.7786 126.831 12.5986 126.543 12.5986C126.237 12.5986 126.057 12.7966 126.057 13.0846ZM127.029 13.0846C127.029 13.3726 127.227 13.5706 127.515 13.5706C127.821 13.5706 128.001 13.3726 128.001 13.0846C128.001 12.7786 127.803 12.5986 127.515 12.5986C127.209 12.5986 127.029 12.7966 127.029 13.0846ZM128.001 13.0846C128.001 13.3726 128.199 13.5706 128.487 13.5706C128.793 13.5706 128.973 13.3726 128.973 13.0846C128.973 12.7786 128.775 12.5986 128.487 12.5986C128.181 12.5986 128.001 12.7966 128.001 13.0846ZM128.973 13.0846C128.973 13.3726 129.171 13.5706 129.459 13.5706C129.765 13.5706 129.945 13.3726 129.945 13.0846C129.945 12.7786 129.747 12.5986 129.459 12.5986C129.153 12.5986 128.973 12.7966 128.973 13.0846ZM129.945 13.1026C129.945 13.3906 130.125 13.5706 130.413 13.5706C130.701 13.5706 130.899 13.3906 130.899 13.1026C130.899 12.7966 130.719 12.5986 130.431 12.5986C130.143 12.5986 129.945 12.7786 129.945 13.0666V13.1026ZM130.899 13.0846C130.899 13.3726 131.097 13.5706 131.385 13.5706C131.691 13.5706 131.871 13.3726 131.871 13.0846C131.871 12.7786 131.673 12.5986 131.385 12.5986C131.079 12.5986 130.899 12.7966 130.899 13.0846Z" fill="#28272F"/>
</svg>
