<svg width="203" height="259" viewBox="0 0 203 259" fill="none" xmlns="http://www.w3.org/2000/svg">
<path d="M202.559 187.647L202.419 189.523L202 191.224L201.302 192.736L200.33 194.047L199.085 195.145L197.573 196.02L195.799 196.66L193.769 197.058L191.491 197.205L188.972 197.093L186.222 196.717L183.25 196.073L180.068 195.155L176.686 193.962L173.116 192.491L169.37 190.743L165.463 188.718L161.408 186.419L157.219 183.848L152.91 181.01L148.497 177.911L143.994 174.557L139.418 170.956L134.785 167.117L130.109 163.05L125.407 158.767L120.695 154.279L115.988 149.599L111.303 144.742L106.655 139.722L102.059 134.556L97.5293 129.258L93.0817 123.847L88.7298 118.341L84.4875 112.757L80.3678 107.114L76.3833 101.432L72.5461 95.7291L68.8673 90.0263L65.3575 84.343L62.0266 78.6993L58.8837 73.1152L55.9369 67.6107L53.1936 62.2056L50.6603 56.9195L48.3426 51.7718L46.2453 46.7814L44.372 41.9667L42.7257 37.3458L41.3083 32.9358L40.1207 28.7536L39.163 24.815L38.4342 21.1352L37.9324 17.7285L37.6551 14.6081L37.5985 11.7863L37.7581 9.27466L38.1287 7.08322L38.7039 5.22115L39.4769 3.69639L40.44 2.51571L41.5848 1.68463L42.9021 1.20744L44.3823 1.08715L46.015 1.32549L47.7895 1.92293L49.6944 2.87861L51.7179 4.19037L53.848 5.85483L56.0722 7.86725L58.3778 10.2217L60.7519 12.911L63.1814 15.9267L65.6532 19.2594L68.154 22.8981L70.6708 26.8313L73.1905 31.0459L75.7001 35.5282L78.187 40.2633L80.6386 45.2355L83.0429 50.4284L85.388 55.8245L87.6626 61.4059L89.8559 67.154L91.9574 73.0496L93.9573 79.073L95.8465 85.2042L97.6164 91.4228L99.259 97.7081L100.767 104.039L102.135 110.396L103.356 116.756L104.426 123.1L105.34 129.406L106.096 135.655L106.692 141.826L107.125 147.899L107.394 153.855L107.502 159.676L107.447 165.343L107.233 170.839L106.861 176.147L106.337 181.252L105.663 186.138L104.846 190.792L103.89 195.199L102.804 199.349L101.594 203.23L100.268 206.833L98.8358 210.147L97.3055 213.167L95.6875 215.885L93.992 218.297L92.2298 220.398L90.4122 222.185L88.5507 223.658L86.6571 224.815L84.7435 225.658L82.8223 226.189L80.9058 226.411L79.0065 226.329L77.137 225.949L75.3096 225.277L73.5367 224.322L71.8306 223.092L70.2031 221.598L68.6661 219.849L67.2308 217.859L65.9083 215.64L64.7091 213.205L63.6433 210.569L62.7205 207.747L61.9496 204.753L61.3388 201.604L60.896 198.317L60.628 194.908L60.541 191.394L60.6405 187.794L60.9312 184.123L61.4169 180.401L62.1005 176.645L62.9841 172.871L64.0689 169.098L65.3553 165.343L66.8426 161.623L68.5294 157.954L70.4133 154.351L72.4909 150.832L74.7581 147.41L77.2098 144.1L79.84 140.916L82.642 137.87L85.6082 134.974L88.7302 132.24L91.9988 129.678L95.404 127.297L98.9354 125.106L102.582 123.111L106.331 121.32L110.171 119.737L114.088 118.366L118.07 117.21L122.102 116.272L126.171 115.552L130.261 115.049L134.358 114.762L138.447 114.689L142.514 114.825L146.543 115.167L150.518 115.708L154.426 116.442L158.25 117.36L161.976 118.454L165.591 119.715L169.078 121.132L172.426 122.693L175.62 124.387L178.647 126.201L181.495 128.122L184.151 130.136L186.606 132.228L188.848 134.384L190.867 136.588L192.655 138.825L194.203 141.08L195.504 143.336L196.551 145.578L197.338 147.789L197.861 149.955L198.116 152.059L198.1 154.085L197.812 156.02L197.25 157.847L196.414 159.554L195.307 161.125L193.929 162.548L192.284 163.81L190.377 164.9L188.211 165.806L185.794 166.519L183.132 167.027L180.233 167.324L177.105 167.402L173.759 167.254L170.204 166.875L166.452 166.259L162.514 165.405L158.404 164.31L154.133 162.972L149.716 161.391L145.168 159.57L140.502 157.51L135.734 155.214L130.879 152.688L125.954 149.937L120.974 146.968L115.955 143.789L110.914 140.408L105.867 136.837L100.831 133.085L95.8206 129.166L90.8534 125.091L85.9449 120.874L81.1107 116.531L76.3662 112.075L71.7263 107.524L67.2055 102.893L62.8178 98.1994L58.5768 93.4612L54.4953 88.6961L50.5855 83.9223L46.859 79.1584L43.3265 74.4231L39.9982 69.7352L36.8831 65.1136L33.9898 60.5771L31.3257 56.1443L28.8975 51.8338L26.7107 47.6636L24.7703 43.6516L23.08 39.8151L21.6425 36.1711L20.4599 32.7357L19.5329 29.5246L18.8616 26.5528L18.4448 23.8342L18.2805 21.3823L18.3659 19.2093L18.6971 17.3266L19.2691 15.7446L20.0765 14.4727L21.1126 13.5191L22.3702 12.8909L23.8411 12.5939L25.5164 12.6329L27.3865 13.0115L29.4412 13.7318L31.6696 14.7948L34.0602 16.2002L36.6011 17.9465L39.2798 20.0309L42.0835 22.4493L44.9989 25.1962L48.0127 28.2652L51.1109 31.6485L54.2797 35.337L57.505 39.3206L60.7727 43.588L64.0687 48.127L67.3789 52.9241L70.6894 57.965L73.9864 63.2344L77.2564 68.7161L80.4862 74.393L83.6628 80.2476L86.7738 86.2614L89.8071 92.4153L92.7512 98.6898L95.5951 105.065L98.3284 111.52L100.941 118.035L103.425 124.588L105.771 131.158L107.971 137.724L110.019 144.266L111.908 150.761L113.634 157.189L115.192 163.53L116.578 169.763L117.79 175.868L118.826 181.825L119.684 187.617L120.366 193.224L120.872 198.629L121.202 203.816L121.361 208.768L121.352 213.471L121.177 217.91L120.843 222.073L120.356 225.947L119.721 229.521L118.946 232.787L118.039 235.734L117.008 238.356L115.863 240.646L114.612 242.6L113.267 244.213L111.838 245.484L110.335 246.411L108.771 246.995L107.156 247.236L105.503 247.137L103.823 246.703L102.129 245.938L100.433 244.849L98.748 243.443L97.085 241.729L95.4566 239.716L93.8748 237.415L92.3512 234.838L90.8973 231.998L89.5241 228.908L88.2424 225.582L87.0626 222.036L85.9942 218.286L85.0468 214.347L84.2289 210.238L83.5487 205.976L83.0134 201.578L82.63 197.063L82.4042 192.45L82.3415 187.757L82.4463 183.004L82.722 178.208L83.1716 173.39L83.7971 168.568L84.5995 163.759L85.579 158.984L86.735 154.259L88.0659 149.601L89.5694 145.029L91.2421 140.558L93.08 136.204L95.078 131.982L97.2304 127.906L99.5305 123.991L101.971 120.248L104.544 116.69L107.24 113.326L110.049 110.168L112.963 107.223L115.969 104.5L119.056 102.005L122.213 99.7429L125.428 97.7188L128.686 95.9357L131.976 94.3958L135.284 93.0998L138.596 92.0476L141.898 91.2378L145.176 90.6678L148.416 90.3342L151.605 90.2321L154.727 90.3558L157.769 90.6985L160.717 91.2525L163.558 92.0091L166.278 92.9586L168.864 94.0904L171.304 95.3934L173.585 96.8555L175.696 98.4639L177.626 100.205L179.365 102.066L180.902 104.031L182.228 106.086L183.336 108.215L184.217 110.404L184.864 112.636L185.273 114.896L185.437 117.167L185.353 119.434L185.017 121.681L184.426 123.892L183.581 126.052L182.48 128.146L181.123 130.159L179.513 132.077L177.652 133.886L175.543 135.573L173.192 137.125L170.602 138.531L167.781 139.779L164.736 140.859L161.474 141.762L158.006 142.479L154.34 143.003L150.487 143.327L146.459 143.445L142.267 143.354L137.925 143.049L133.445 142.529L128.842 141.792L124.129 140.838L119.322 139.668L114.435 138.284L109.485 136.69L104.487 134.889L99.457 132.887L94.4115 130.691L89.3668 128.308L84.3392 125.747L79.345 123.018L74.4005 120.129L69.5217 117.094L64.7245 113.925L60.0245 110.633L55.4369 107.234L50.9766 103.741L46.6579 100.169L42.4948 96.5346L38.5006 92.8535L34.688 89.1422L31.0691 85.4175L27.6552 81.6967L24.4569 77.9971L21.4839 74.3364L18.7454 70.7319L16.2494 67.2013L14.003 63.762L12.0127 60.4314L10.2838 57.2263L8.82066 54.1636L7.62675 51.2595L6.70452 48.5297L6.05542 45.9898L5.6799 43.6542L5.57743 41.5369L5.74646 39.6512L6.18452 38.0095L6.8881 36.6234L7.85279 35.5034L9.07323 34.6594L10.5431 34.0999L12.2554 33.8325L14.2019 33.8637L16.3741 34.199L18.7621 34.8424L21.3558 35.7971L24.1441 37.0648L27.1153 38.6461L30.2573 40.5404L33.5572 42.7458L37.0018 45.2592L40.5773 48.0763L44.2697 51.1914L48.0644 54.598L51.947 58.2879L55.9024 62.2521L59.9157 66.4804L63.9719 70.9615L68.0556 75.683L72.152 80.6315L76.2461 85.7927L80.3231 91.1513L84.3684 96.6913L88.3677 102.396L92.3071 108.247L96.1731 114.227L99.9526 120.317L103.633 126.497L107.202 132.748L110.649 139.049L113.962 145.38L117.132 151.721L120.148 158.049L123.004 164.346L125.689 170.588L128.199 176.757L130.525 182.832L132.664 188.791L134.61 194.615L136.36 200.286L137.911 205.783L139.261 211.088L140.41 216.184L141.358 221.053L142.105 225.68L142.653 230.048L143.006 234.143L143.166 237.953L143.138 241.464L142.927 244.664L142.539 247.544L141.981 250.094L141.26 252.307L140.384 254.175L139.363 255.693L138.205 256.857L136.921 257.663L135.521 258.11L134.015 258.198L132.415 257.927L130.732 257.3L128.979 256.32L127.168 254.991L125.311 253.32L123.419 251.314L121.507 248.981L119.586 246.33L117.669 243.373L115.767 240.121L113.894 236.586L112.062 232.782L110.28 228.724L108.563 224.428L106.919 219.908L105.359 215.184L103.895 210.271L102.534 205.188L101.286 199.954L100.16 194.587L99.1618 189.109L98.2998 183.537L97.5798 177.892L97.0072 172.194L96.5866 166.463L96.3219 160.719L96.2162 154.983L96.2717 149.273L96.4896 143.61L96.8706 138.012L97.4142 132.498L98.1193 127.086L98.9836 121.794L100.004 116.638L101.178 111.636L102.499 106.802L103.963 102.151L105.564 97.6969L107.294 93.4527L109.146 89.43L111.112 85.6398L113.182 82.0918L115.347 78.7947L117.597 75.756L119.921 72.9823L122.308 70.4787L124.746 68.2493L127.223 66.2971L129.726 64.6237L132.244 63.2297L134.763 62.1143L137.271 61.2756L139.753 60.7108L142.197 60.4155L144.591 60.3847L146.919 60.6118L149.171 61.0896L151.332 61.8095L153.391 62.7623L155.335 63.9376L157.152 65.3243L158.832 66.9104L160.361 68.6832L161.732 70.6292L162.933 72.7345L163.954 74.9843L164.789 77.3637L165.428 79.857L165.864 82.4484L166.092 85.1218L166.105 87.8607L165.898 90.6487L165.468 93.4693L164.812 96.3059L163.927 99.1421L162.813 101.962L161.469 104.749L159.895 107.487L158.094 110.162L156.067 112.759L153.819 115.263L151.354 117.66L148.677 119.938L145.794 122.085L142.713 124.088L139.441 125.936L135.987 127.621L132.361 129.133L128.573 130.464L124.634 131.606L120.557 132.555L116.352 133.305L112.033 133.852L107.615 134.193L103.11 134.326L98.5335 134.252L93.9 133.97L89.2249 133.482L84.5235 132.791L79.8114 131.9L75.1045 130.815L70.4187 129.542L65.7699 128.086L61.1738 126.457L56.6464 124.663L52.2031 122.713L47.8594 120.62L43.6304 118.393L39.5308 116.045L35.575 113.59L31.7768 111.04L28.1496 108.411L24.7062 105.717L21.4588 102.972L18.4188 100.193L15.5972 97.3959L13.0038 94.5964L10.6481 91.811L8.53823 89.0563L6.68191 86.3487L5.0857 83.7046L3.75536 81.1404L2.69561 78.6723L1.91028 76.316L1.40217 74.0871L1.17311 72.0007L1.22391 70.0713L1.5544 68.3131L2.16338 66.7394L3.04869 65.3629L4.20713 64.1957L5.63457 63.2489L7.3259 62.5329L9.27504 62.0569L11.475 61.8295L13.9181 61.8581L16.5954 62.149L19.4975 62.7076L22.614 63.5381L25.9339 64.6434L29.4455 66.0255L33.1362 67.6852L36.9932 69.622L41.0029 71.8342L45.1511 74.319L49.4235 77.0724L53.8051 80.0891L58.2806 83.3629L62.8348 86.8862L67.4518 90.6503L72.1159 94.6456L76.8112 98.8612L81.5218 103.285L86.2318 107.905L90.9255 112.708L95.5873 117.677L100.202 122.799L104.754 128.056L109.229 133.433L113.613 138.911L117.892 144.472L122.052 150.098L126.081 155.77L129.966 161.469L133.697 167.173L137.261 172.865L140.65 178.524L143.854 184.129L146.864 189.661L149.673 195.1L152.274 200.426L154.661 205.62L156.829 210.662L158.774 215.535L160.492 220.22L161.983 224.699L163.244 228.955L164.275 232.973L165.076 236.737L165.65 240.232L165.999 243.445L166.125 246.363L166.034 248.975L165.73 251.269L165.219 253.237L164.508 254.87L163.605 256.161L162.517 257.104L161.254 257.694L159.824 257.929L158.239 257.805L156.508 257.321L154.644 256.48L152.657 255.281L150.559 253.728L148.364 251.826L146.083 249.58L143.729 246.997L141.316 244.084L138.856 240.851L136.363 237.309L133.85 233.468L131.329 229.341L128.815 224.943L126.32 220.287L123.856 215.388L121.435 210.264L119.07 204.93L116.771 199.406L114.551 193.709L112.419 187.858L110.386 181.873L108.461 175.774L106.652 169.581L104.968 163.315L103.416 156.996L102.003 150.646L100.735 144.284L99.6161 137.933L98.6517 131.612L97.8448 125.343L97.1982 119.145L96.7135 113.039L96.3917 107.044L96.2328 101.178L96.236 95.4596L96.3997 89.9072L96.7214 84.5373L97.1976 79.3661L97.8244 74.4088L98.5966 69.6797L99.5086 65.1924L100.554 60.9591L101.725 56.9913L103.015 53.2992L104.415 49.8919L105.915 46.7774L107.506 43.9626L109.178 41.4529L110.92 39.2527L112.721 37.3653L114.57 35.7924L116.455 34.5347L118.363 33.5918L120.283 32.9617L122.203 32.6415L124.109 32.627L125.989 32.9128L127.832 33.4925L129.623 34.3584L131.352 35.5019L133.006 36.9133L134.573 38.582L136.042 40.4964L137.401 42.644L138.641 45.0116L139.75 47.5852L140.719 50.3502L141.54 53.2911L142.202 56.3923L142.699 59.6372L143.024 63.0093L143.169 66.4913L143.13 70.0661L142.9 73.7161L142.477 77.4237L141.857 81.1712L141.037 84.9411L140.016 88.716L138.794 92.4786L137.371 96.2119L135.747 99.8993L133.926 103.525L131.91 107.072L129.702 110.527L127.309 113.874L124.735 117.1L121.987 120.191L119.072 123.136L115.998 125.922L112.776 128.54L109.413 130.98L105.92 133.232L102.309 135.29L98.5917 137.147L94.7793 138.797L90.8851 140.236L86.9224 141.46L82.9047 142.468L78.8463 143.258L74.7614 143.83L70.6648 144.185L66.5712 144.326L62.4957 144.256L58.4534 143.979L54.4594 143.501L50.5287 142.828L46.6763 141.967L42.917 140.928L39.2654 139.719L35.7358 138.351L32.3421 136.834L29.098 135.181L26.0165 133.404L23.1103 131.516L20.3913 129.53L17.871 127.461L15.5602 125.324L13.4689 123.134L11.6064 120.905L9.98124 118.654L8.60109 116.397L7.4728 114.149L6.6023 111.926L5.99463 109.744L5.65385 107.619L5.58313 105.566L5.78458 103.601L6.25937 101.738L7.00771 99.9911L8.02876 98.3753L9.32071 96.9035L10.8808 95.5886L12.7051 94.4426L14.789 93.4768L17.1268 92.7018L19.7117 92.1272L22.5363 91.7618L25.5921 91.6135L28.8698 91.689L32.3594 91.9942L36.05 92.534L39.9299 93.3118L43.9869 94.3303L48.208 95.591L52.5798 97.0943L57.088 98.8391L61.7181 100.824L66.4552 103.045L71.2838 105.498L76.1883 108.178L81.1527 111.078L86.1609 114.192L91.1966 117.509L96.2435 121.021L101.285 124.716L106.305 128.583L111.288 132.61L116.217 136.783L121.076 141.088L125.851 145.51L130.526 150.032L135.086 154.64L139.518 159.315L143.807 164.041L147.941 168.799L151.906 173.572L155.692 178.342L159.288 183.088L162.682 187.793L165.866 192.438L168.831 197.003L171.569 201.471L174.073 205.823L176.337 210.04L178.356 214.104L180.127 217.998L181.645 221.705L182.909 225.209L183.917 228.493L184.67 231.543L185.168 234.343L185.412 236.882L185.406 239.145L185.153 241.121L184.657 242.8L183.924 244.171L182.96 245.227L181.772 245.96L180.368 246.363L178.757 246.431L176.948 246.161L174.951 245.55L172.776 244.596L170.436 243.3L167.942 241.662L165.306 239.685L162.54 237.372L159.659 234.729L156.675 231.762L153.602 228.478L150.454 224.886L147.246 220.995L143.99 216.816L140.701 212.363L137.394 207.646L134.082 202.681L130.779 197.483L127.499 192.067L124.255 186.451L121.06 180.651L117.927 174.685L114.868 168.574L111.894 162.336L109.017 155.991L106.247 149.559L103.595 143.061L101.069 136.518L98.6791 129.951L96.4318 123.381L94.3347 116.829L92.3942 110.317L90.6157 103.865L89.004 97.494L87.5628 91.2247L86.2951 85.077L85.2031 79.0704L84.2878 73.224L83.5497 67.5562L82.9882 62.0847L82.602 56.8266L82.3886 51.7979L82.3452 47.0141L82.4676 42.4894L82.7512 38.2373L83.1905 34.2701L83.7791 30.5991L84.5103 27.2345L85.3761 24.1851L86.3685 21.459L87.4784 19.0625L88.6964 17.0011L90.0125 15.2789L91.4162 13.8987L92.8967 12.862L94.4428 12.1692L96.0429 11.8192L97.6852 11.8099L99.3577 12.1376L101.048 12.7978L102.745 13.7844L104.435 15.0904L106.106 16.7076L107.747 18.6265L109.345 20.8368L110.888 23.327L112.366 26.0849L113.766 29.097L115.078 32.3492L116.291 35.8267L117.396 39.5137L118.383 43.394L119.243 47.4506L119.968 51.6662L120.55 56.0228L120.983 60.5023L121.259 65.0861L121.374 69.7555L121.323 74.4917L121.102 79.2758L120.708 84.0888L120.139 88.912L119.393 93.7268L118.47 98.5148L117.37 103.258L116.095 107.939L114.646 112.54L113.027 117.045L111.241 121.438L109.293 125.704L107.189 129.827L104.936 133.795L102.539 137.594L100.008 141.213L97.3498 144.639L94.5752 147.864L91.6937 150.878L88.7159 153.672L85.6531 156.241L82.5168 158.577L79.3195 160.678L76.0736 162.538L72.7922 164.155L69.4887 165.529L66.1767 166.659L62.8701 167.546L59.5827 168.192L56.3287 168.6L53.1223 168.775L49.9775 168.723L46.9084 168.449L43.9287 167.961L41.0523 167.268L38.2924 166.379L35.6623 165.304L33.1745 164.055L30.8414 162.642L28.6748 161.079L26.6859 159.378L24.8853 157.554L23.2831 155.621L21.8887 153.593L20.7106 151.485L19.7567 149.314L19.034 147.094L18.5487 144.841L18.3063 142.572L18.3111 140.302L18.5667 138.047L19.0757 135.822L19.8398 133.644L20.8596 131.528L22.1348 129.487L23.6643 127.538L25.4458 125.693L27.4761 123.966L29.7511 122.369L32.2657 120.916L35.0138 119.616L37.9885 118.482L41.1819 117.521L44.5855 116.744L48.1896 116.158L51.9839 115.77L55.9574 115.585L60.0983 115.609L64.394 115.845L68.8316 116.297L73.3972 116.965L78.0768 117.85L82.8556 118.951L87.7186 120.267L92.6502 121.795L97.6348 123.531L102.656 125.469L107.698 127.604L112.745 129.928L117.78 132.433L122.787 135.11L127.749 137.949L132.65 140.939L137.475 144.067L142.208 147.321L146.833 150.688L151.335 154.153L155.701 157.701L159.915 161.317L163.964 164.985L167.836 168.689L171.518 172.411L174.998 176.135L178.266 179.843L181.312 183.518L184.126 187.142L186.7 190.698L189.027 194.169L191.099 197.536L192.912 200.783L194.46 203.892L195.74 206.849L196.749 209.636L197.485 212.238L197.948 214.64L198.137 216.828L198.055 218.789L197.702 220.51L197.082 221.979L196.2 223.184L195.061 224.117L193.67 224.768L192.034 225.13L190.161 225.194L188.06 224.956L185.739 224.411L183.21 223.556L180.482 222.388L177.568 220.907L174.479 219.112L171.228 217.005L167.828 214.59L164.293 211.869L160.636 208.848L156.872 205.533L153.016 201.933L149.082 198.055L145.086 193.91L141.042 189.508L136.965 184.861L132.871 179.984L128.775 174.889L124.691 169.591L120.634 164.107L116.618 158.453L112.658 152.647L108.767 146.705L104.959 140.649L101.246 134.495L97.6398 128.265L94.153 121.977L90.7961 115.653L87.5797 109.314L84.5132 102.979L81.6057 96.6703L78.8652 90.4082L76.299 84.2135L73.9136 78.1069L71.7147 72.1088L69.7069 66.2392L67.8943 60.5177L66.2796 54.9635L64.8651 49.5952L63.6519 44.4308L62.6402 39.4876L61.8293 34.782L61.2179 30.3298L60.8034 26.1458L60.5825 22.2438L60.5513 18.6366L60.7046 15.3361L61.0368 12.353L61.5415 9.69678L62.2113 7.37585L63.0384 5.39741L64.0141 3.76737L65.1295 2.49046L66.3746 1.57005L67.7393 1.0083L69.2128 0.806041L70.7839 0.962791L72.4413 1.47684L74.1731 2.34513L75.9672 3.56338L77.8113 5.12604L79.6931 7.02633L81.6001 9.25629L83.5197 11.8068L85.4396 14.6676L87.3473 17.8273L89.2306 21.2736L91.0776 24.9932L92.8764 28.9716L94.6156 33.1939L96.2842 37.644L97.8716 42.3052L99.3675 47.1602L100.762 52.191L102.047 57.3789L103.213 62.7052L104.253 68.1504L105.159 73.6948L105.924 79.3187L106.545 85.0019L107.014 90.7243L107.329 96.466L107.485 102.207L107.481 107.927L107.315 113.608L106.986 119.229L106.494 124.771L105.841 130.218L105.027 135.55L104.055 140.751L102.93 145.804L101.655 150.693L100.236 155.403L98.678 159.922L96.9883 164.234L95.1742 168.328L93.2438 172.194L91.2059 175.82L89.0699 179.198L86.8459 182.32L84.5444 185.178L82.1765 187.769L79.7537 190.086L77.2878 192.126L74.7912 193.889L72.2765 195.372L69.7564 196.576L67.2438 197.502L64.752 198.154L62.2941 198.535L59.8832 198.649L57.5324 198.503L55.2549 198.104L53.0634 197.461L50.9705 196.581L48.9887 195.475L47.1298 194.155L45.4055 192.631L43.8269 190.916L42.4046 189.024L41.1489 186.968L40.069 184.762L39.174 182.422L38.4719 179.964L37.9702 177.402L37.6755 174.753L37.5938 172.033L37.73 169.259L38.0884 166.447L38.6723 163.614L39.484 160.775L40.5252 157.949L41.7962 155.15L43.2969 152.394L45.0258 149.697L46.9807 147.074L49.1585 144.539L51.555 142.106L54.1653 139.789L56.9832 137.599L60.0021 135.549L63.2143 133.65L66.6112 131.912L70.1835 130.345L73.921 128.955L77.8131 127.752L81.848 126.741L86.0137 125.927L90.2973 125.316L94.6855 124.909L99.1644 124.709L103.72 124.717L108.337 124.933L113 125.355L117.695 125.982L122.405 126.81L127.116 127.833L131.81 129.048L136.472 130.446L141.087 132.021L145.638 133.764L150.109 135.665L154.487 137.714L158.754 139.899L162.896 142.21L166.899 144.632L170.749 147.153L174.432 149.759L177.936 152.434L181.247 155.164L184.354 157.934L187.246 160.727L189.913 163.528L192.346 166.319L194.535 169.086L196.473 171.81L198.152 174.476L199.568 177.068L200.714 179.568L201.587 181.962L202.184 184.233L202.502 186.366L202.541 188.347L202.299 190.161L201.779 191.795L200.981 193.236L199.909 194.471L198.567 195.489L196.959 196.28L195.091 196.833L192.97 197.141L190.604 197.194L188 196.988L185.169 196.515L182.119 195.771L178.863 194.754L175.411 193.46L171.776 191.889L167.97 190.04L164.008 187.915L159.902 185.517L155.668 182.849L151.319 179.915L146.872 176.722L142.341 173.278L137.743 169.589L133.092 165.667L128.405 161.52L123.697 157.161L118.985 152.602L114.285 147.856L109.611 142.938L104.98 137.863L100.406 132.647L95.9049 127.307L91.4904 121.859L87.1768 116.322L82.9774 110.715L78.9054 105.055L74.973 99.3633L71.192 93.6584L67.5734 87.9603L64.1275 82.289L60.8638 76.6647L57.7911 71.1071L54.9173 65.6364L52.2495 60.2723L49.7939 55.0343L47.5557 49.9415L45.5393 45.0127L43.7482 40.2663L42.1848 35.7199L40.8507 31.3907L39.7466 27.2952L38.8721 23.4488L38.2259 19.8665L37.806 16.5622L37.6093 13.5488L37.6317 10.8384L37.8685 8.44178L38.3141 6.36888L38.962 4.62838L39.8049 3.22779L40.835 2.17342L42.0434 1.47034L43.421 1.1224L44.9578 1.13214L46.6432 1.50083L48.4664 2.22845L50.4157 3.31368L52.4793 4.75391L54.6451 6.54527L56.9003 8.68258L59.2322 11.1595L61.628 13.9683L64.0743 17.1002L66.5582 20.5452L69.0663 24.2923L71.5857 28.3291L74.1032 32.6425L76.606 37.2183L79.0815 42.0413L81.5173 47.0956L83.9015 52.3643L86.2223 57.8297L88.4686 63.4738L90.6297 69.2777L92.6955 75.222L94.6563 81.2869L96.5031 87.4522L98.2277 93.6974L99.8224 100.002L101.28 106.344L102.595 112.705L103.762 119.061L104.776 125.394L105.633 131.682L106.331 137.904L106.868 144.042L107.241 150.075L107.452 155.984L107.5 161.751L107.388 167.358L107.116 172.788L106.688 178.024L106.109 183.051L105.383 187.855L104.515 192.42L103.511 196.736L102.379 200.789L101.126 204.57L99.7603 208.069L98.2912 211.278L96.7279 214.189L95.0805 216.796L93.3595 219.095L91.5759 221.083L89.741 222.756L87.8665 224.114L85.9642 225.157L84.0465 225.887L82.1255 226.305L80.2138 226.416L78.3239 226.226L76.4682 225.739L74.6592 224.963L72.9091 223.907L71.2302 222.58L69.6342 220.992L68.1328 219.154L66.7372 217.08L65.4583 214.781L64.3064 212.271L63.2914 209.566L62.4227 206.679L61.709 203.627L61.1583 200.426L60.7781 197.093L60.5752 193.644L60.5553 190.097L60.7237 186.469L61.0848 182.778L61.642 179.041L62.398 175.276L63.3545 171.501L64.5125 167.733L65.8719 163.988L67.4319 160.284L69.1905 156.638L71.1451 153.064L73.2921 149.578L75.6269 146.195L78.1441 142.929L80.8375 139.793L83.7 136.801L86.7238 133.963L89.9001 131.29L93.2194 128.793L96.6717 126.48L100.246 124.359L103.931 122.437L107.715 120.721L111.584 119.214L115.527 117.921L119.528 116.845L123.575 115.985L127.653 115.344L131.748 114.92L135.844 114.711L139.927 114.714L143.981 114.926L147.992 115.341L151.945 115.952L155.824 116.754L159.614 117.737L163.302 118.893L166.872 120.212L170.31 121.682L173.604 123.293L176.738 125.032L179.702 126.887L182.481 128.843L185.066 130.887L187.445 133.004L189.607 135.179L191.544 137.397L193.245 139.642L194.704 141.899L195.913 144.152L196.867 146.385L197.558 148.581L197.985 150.726L198.142 152.804L198.027 154.799L197.639 156.696L196.978 158.481L196.044 160.14L194.838 161.659L193.363 163.025L191.622 164.226L189.62 165.251L187.363 166.088L184.856 166.727L182.107 167.16L179.124 167.378L175.916 167.375L172.492 167.143L168.865 166.679L165.044 165.977L161.042 165.035L156.871 163.852L152.546 162.426L148.08 160.758L143.487 158.85L138.782 156.703L133.981 154.324L129.099 151.715L124.152 148.884L119.156 145.838L114.127 142.584L109.082 139.134L104.037 135.495L99.0083 131.681L94.012 127.704L89.0643 123.576L84.1809 119.312L79.3775 114.926L74.6693 110.434L70.071 105.851L65.5969 101.196L61.261 96.484L57.0764 91.7339L53.0558 86.9635L49.2112 82.1912L45.5539 77.4355L42.0944 72.7152L38.8425 68.0492L35.807 63.4564L32.9961 58.9553L30.4168 54.5648L28.0756 50.3031L25.9778 46.1883L24.1277 42.238L22.5289 38.4694L21.1838 34.8993L20.0939 31.5435L19.2597 28.4176L18.681 25.5361L18.3561 22.9128L18.2829 20.5607L18.4579 18.4918L18.8771 16.7172L19.5353 15.2467L20.4265 14.0894L21.5439 13.2531L22.8799 12.7445L24.426 12.569L26.1731 12.7309L28.1115 13.2333L30.2305 14.0779L32.5191 15.2653L34.9656 16.7947L37.558 18.6641L40.2836 20.8703L43.1294 23.4086L46.0821 26.2732L49.1281 29.4572L52.2535 32.9524L55.4445 36.7492L58.6868 40.8372L61.9664 45.2047L65.2692 49.839L68.5811 54.7263L71.8883 59.8519L75.1771 65.2002L78.434 70.7548L81.6459 76.4983L84.8002 82.4128L87.8843 88.4797L90.8866 94.6797L93.7955 100.993L96.6005 107.399L99.2912 113.879L101.858 120.41L104.293 126.971L106.586 133.543L108.732 140.102L110.723 146.63L112.554 153.103L114.219 159.502L115.715 165.806L117.038 171.994L118.186 178.048L119.158 183.947L119.952 189.674L120.57 195.21L121.012 200.538L121.28 205.641L121.377 210.505L121.307 215.113L121.074 219.454L120.684 223.513L120.142 227.279L119.455 230.743L118.632 233.893L117.679 236.723L116.605 239.225L115.421 241.394L114.135 243.225L112.758 244.714L111.3 245.86L109.774 246.663L108.19 247.122L106.56 247.239L104.895 247.018L103.209 246.463L101.513 245.58L99.8199 244.375L98.1412 242.856L96.4894 241.032L94.8765 238.913L93.3145 236.511L91.8149 233.837L90.389 230.904L89.0478 227.727L87.8019 224.32L86.6614 220.698L85.6359 216.877L84.7345 212.875L83.9657 208.708L83.3373 204.394L82.8564 199.952L82.5295 195.399L82.3624 190.755L82.36 186.038L82.5264 181.267L82.865 176.461L83.3782 171.639L84.0678 166.82L84.9345 162.021L85.9782 157.262L87.1979 152.559L88.5918 147.931L90.1571 143.394L91.8903 138.963L93.7869 134.655L95.8417 130.485L98.0485 126.466L100.4 122.612L102.89 118.935L105.508 115.446L108.247 112.156L111.095 109.074L114.044 106.209L117.081 103.568L120.195 101.157L123.374 98.9806L126.606 97.0436L129.877 95.3487L133.175 93.8972L136.486 92.6898L139.796 91.7258L143.091 91.0034L146.357 90.5196L149.58 90.2706L152.746 90.2512L155.841 90.4553L158.851 90.8756L161.761 91.5042L164.56 92.3319L167.233 93.3488L169.767 94.5442L172.151 95.9063L174.372 97.423L176.418 99.0813L178.28 100.868L179.947 102.768L181.408 104.767L182.656 106.851L183.682 109.004L184.479 111.21L185.041 113.454L185.361 115.72L185.435 117.991L185.26 120.253L184.832 122.488L184.149 124.683L183.211 126.821L182.017 128.887L180.568 130.867L178.867 132.747L176.915 134.513L174.718 136.152L172.279 137.653L169.604 139.002L166.701 140.19L163.576 141.207L160.239 142.044L156.697 142.692L152.963 143.144L149.045 143.394L144.956 143.437L140.708 143.268L136.314 142.886L131.788 142.287L127.143 141.471L122.394 140.438L117.556 139.19L112.645 137.73L107.676 136.06L102.664 134.185L97.6267 132.112L92.5797 129.848L87.5393 127.399L82.5219 124.776L77.5439 121.987L72.6214 119.044L67.7704 115.959L63.0066 112.743L58.3457 109.411L53.8026 105.976L49.392 102.453L45.1283 98.8564L41.025 95.2031L37.0953 91.5091L33.3516 87.791L29.8058 84.0657L26.4689 80.3506L23.3513 76.6631L20.4625 73.0207L17.8111 69.441L15.4049 65.9416L13.2508 62.5397L11.3547 59.2527L9.72183 56.0974L8.35607 53.0904L7.26054 50.2478L6.43732 47.5852L5.8875 45.1177L5.6112 42.8598L5.6075 40.8251L5.87452 39.0265L6.40939 37.4763L7.2083 36.1856L8.26648 35.1647L9.57823 34.423L11.137 33.9687L12.9352 33.809L14.9647 33.95L17.2163 34.3967L19.6802 35.1528L22.3459 36.2209L25.2019 37.6024L28.2366 39.2975L31.4374 41.305L34.7914 43.6226L38.2851 46.2468L41.9047 49.1727L45.6359 52.3945L49.4642 55.9048L53.3749 59.6954L57.3531 63.7568L61.3837 68.0782L65.4516 72.648L69.5417 77.4534L73.639 82.4809L77.7286 87.7155L81.7957 93.1419L85.8259 98.7436L89.8051 104.504L93.7194 110.404L97.5555 116.426L101.3 122.551L104.942 128.759L108.468 135.03L111.867 141.345L115.129 147.682L118.245 154.02L121.204 160.339L123.998 166.619L126.621 172.837L129.064 178.974L131.323 185.009L133.392 190.921L135.268 196.692L136.946 202.302L138.424 207.731L139.701 212.963L140.777 217.978L141.652 222.761L142.327 227.296L142.804 231.567L143.086 235.56L143.177 239.262L143.082 242.662L142.806 245.747L142.355 248.508L141.737 250.937L140.96 253.025L140.03 254.767L138.958 256.156L137.753 257.191L136.426 257.867L134.986 258.184L133.444 258.141L131.813 257.741L130.104 256.985L128.328 255.877L126.499 254.424L124.628 252.63L122.727 250.504L120.81 248.055L118.889 245.292L116.976 242.226L115.084 238.87L113.224 235.236L111.409 231.338L109.649 227.192L107.957 222.812L106.342 218.216L104.816 213.421L103.388 208.445L102.068 203.305L100.863 198.02L99.7822 192.611L98.833 187.096L98.0218 181.495L97.3547 175.829L96.8367 170.117L96.4723 164.379L96.265 158.636L96.2176 152.906L96.3319 147.211L96.6091 141.569L97.0492 136L97.6516 130.521L98.4147 125.15L99.3362 119.906L100.413 114.804L101.641 109.861L103.015 105.092L104.529 100.511L106.177 96.1317L107.953 91.9665L109.847 88.027L111.852 84.3236L113.957 80.8657L116.155 77.6616L118.433 74.7184L120.781 72.0422L123.187 69.6377L125.641 67.5087L128.129 65.6575L130.639 64.0855L133.159 62.7927L135.675 61.778L138.175 61.0392L140.645 60.5727L143.073 60.3741L145.444 60.4377L147.746 60.7567L149.967 61.3233L152.092 62.1289L154.111 63.1637L156.01 64.4171L157.778 65.8776L159.405 67.5329L160.878 69.3702L162.188 71.3757L163.325 73.5351L164.279 75.8337L165.044 78.2563L165.61 80.7871L165.971 83.4101L166.121 86.1091L166.055 88.8678L165.768 91.6695L165.256 94.4978L164.517 97.3361L163.549 100.168L162.351 102.978L160.924 105.749L159.267 108.466L157.384 111.114L155.277 113.679L152.95 116.146L150.407 118.502L147.654 120.733L144.699 122.829L141.547 124.777L138.208 126.567L134.691 128.19L131.005 129.637L127.161 130.9L123.17 131.973L119.044 132.85L114.797 133.527L110.441 133.999L105.989 134.265L101.457 134.323L96.8576 134.173L92.2073 133.817L87.5208 133.255L82.8137 132.491L78.1017 131.529L73.4006 130.375L68.7264 129.034L64.0949 127.514L59.5219 125.824L55.0232 123.973L50.6143 121.97L46.3105 119.826L42.1268 117.554L38.0777 115.166L34.1775 112.675L30.4399 110.095L26.8779 107.44L23.5043 104.725L20.3309 101.967L17.369 99.1792L14.6291 96.3793L12.1209 93.583L9.85347 90.8068L7.83483 88.0673L6.07219 85.3808L4.57187 82.7639L3.33923 80.2327L2.37869 77.8033L1.69371 75.4915L1.28671 73.3126L1.15918 71.2815L1.31157 69.4127L1.74332 67.7199L2.4529 66.2163L3.43776 64.9145L4.69436 63.8261L6.21821 62.9619L8.00385 62.3319L10.0449 61.9452L12.3341 61.81L14.8632 61.933L17.6232 62.3206L20.6043 62.9774L23.796 63.9073L27.1869 65.113L30.7649 66.5958L34.5176 68.3562L38.4316 70.3932L42.4932 72.7047L46.6881 75.2875L51.0019 78.1371L55.4193 81.248L59.9253 84.6132L64.5041 88.225L69.14 92.0742L73.8173 96.1507L78.52 100.444L83.2322 104.94L87.9381 109.628L92.622 114.493L97.2684 119.519L101.862 124.692L106.388 129.995L110.832 135.41L115.179 140.921L119.416 146.508L123.53 152.153L127.508 157.836L131.339 163.539L135.01 169.242L138.512 174.924L141.835 180.565L144.969 186.146L147.907 191.647L150.641 197.047L153.165 202.327L155.473 207.468L157.561 212.451L159.424 217.258L161.06 221.87L162.467 226.27L163.645 230.442L164.592 234.369L165.311 238.037L165.802 241.431L166.07 244.539L166.117 247.347L165.948 249.845L165.568 252.022L164.984 253.869L164.202 255.379L163.231 256.544L162.078 257.359L160.753 257.821L159.266 257.925L157.627 257.671L155.846 257.057L153.936 256.086L151.908 254.758L149.773 253.078L147.545 251.051L145.236 248.681L142.859 245.977L140.427 242.947L137.954 239.601L135.452 235.948L132.935 232.003L130.416 227.776L127.907 223.282L125.421 218.536L122.971 213.554L120.569 208.351L118.227 202.947L115.956 197.357L113.767 191.602L111.669 185.701L109.674 179.672L107.79 173.536L106.026 167.314L104.389 161.027L102.887 154.694L101.526 148.337L100.311 141.977L99.2481 135.634L98.3405 129.33L97.5915 123.084L97.0035 116.918L96.5779 110.849L96.3152 104.899L96.2153 99.0842L96.277 93.4244L96.4984 87.9363L96.8766 82.6367L97.408 77.5414L98.0881 72.6653L98.9118 68.0225L99.8729 63.626L100.965 59.4878L102.18 55.6189L103.511 52.0292L104.948 48.7273L106.482 45.7209L108.104 43.0161L109.803 40.6184L111.568 38.5314L113.387 36.758L115.251 35.2995L117.145 34.1562L119.06 33.3271L120.981 32.8099L122.897 32.6012L124.795 32.6964L126.663 33.0896L128.488 33.7741L130.258 34.7418L131.961 35.9837L133.585 37.4898L135.118 39.249L136.548 41.2495L137.866 43.4786L139.059 45.9226L140.119 48.5674L141.035 51.398L141.799 54.399L142.402 57.5542L142.838 60.8473L143.098 64.2612L143.176 67.779L143.068 71.3831L142.769 75.056L142.275 78.7801L141.582 82.5378L140.69 86.3115L139.596 90.0839L138.301 93.8378L136.805 97.5563L135.109 101.223L133.216 104.822L131.13 108.337L128.855 111.755L126.395 115.059L123.757 118.238L120.948 121.277L117.974 124.166L114.846 126.892L111.571 129.447L108.16 131.819L104.623 134.002L100.972 135.988L97.2183 137.77L93.3747 139.344L89.4541 140.705L85.4698 141.851L81.4357 142.78L77.366 143.491L73.2752 143.984L69.1779 144.261L65.0892 144.325L61.024 144.179L56.9975 143.828L53.0247 143.279L49.1206 142.537L45.3003 141.61L41.5785 140.508L37.9695 139.241L34.4877 137.817L31.1467 136.25L27.9602 134.55L24.9409 132.731L22.1012 130.805L19.4531 128.788L17.0076 126.693L14.7753 124.534L12.766 122.328L10.9887 120.09L9.45163 117.835L8.16215 115.579L7.12678 113.338L6.35113 111.129L5.8399 108.966L5.59683 106.865L5.62468 104.842L5.92527 102.912L6.49937 101.089L7.34684 99.3888L8.46648 97.8238L9.8561 96.4075L11.5126 95.1526L13.4317 94.0707L15.6085 93.173L18.0367 92.4696L20.7096 91.97L23.6191 91.6825L26.7566 91.6147L30.1124 91.773L33.6763 92.1628L37.4369 92.7886L41.3826 93.6535L45.5007 94.7599L49.778 96.1086L54.2009 97.6997L58.7551 99.5318L63.4258 101.603L68.1979 103.908L73.0559 106.445L77.984 109.206L82.9662 112.184L87.9862 115.373L93.0279 118.762L98.0748 122.341L103.111 126.1L108.119 130.027L113.084 134.109L117.989 138.331L122.82 142.68L127.56 147.14L132.195 151.695L136.71 156.33L141.092 161.025L145.326 165.765L149.4 170.531L153.302 175.305L157.02 180.068L160.544 184.801L163.863 189.487L166.968 194.105L169.851 198.637L172.505 203.065L174.923 207.37L177.099 211.533L179.028 215.538L180.707 219.366L182.133 223.001L183.305 226.427L184.22 229.628L184.88 232.589L185.286 235.296L185.439 237.735L185.342 239.896L185 241.765L184.418 243.334L183.6 244.592L182.554 245.531L181.287 246.145L179.807 246.427L178.122 246.373L176.244 245.979L174.181 245.243L171.945 244.165L169.548 242.745L167.001 240.983L164.316 238.884L161.507 236.451L158.587 233.689L155.569 230.606L152.468 227.209L149.296 223.507L146.069 219.511L142.799 215.231L139.502 210.68L136.192 205.872L132.882 200.821L129.586 195.542L126.317 190.051L123.089 184.366L119.915 178.504L116.808 172.483L113.778 166.324L110.838 160.044L107.999 153.665L105.271 147.207L102.663 140.69L100.186 134.136L97.8465 127.565L95.6529 121L93.612 114.46L91.7297 107.967L90.0112 101.542L88.461 95.2059L87.0825 88.9784L85.8784 82.8797L84.8504 76.929L83.9994 71.1454L83.3256 65.5468L82.8279 60.1508L82.5047 54.9741L82.3534 50.0326L82.3707 45.3412L82.5522 40.914L82.893 36.7639L83.3872 32.903L84.0284 29.3421L84.8094 26.0909L85.7221 23.158L86.7582 20.5508L87.9085 18.2754L89.1632 16.3367L90.5124 14.7383L91.9452 13.4827L93.4509 12.5708L95.0179 12.0026L96.6347 11.7766L98.2894 11.8901L99.9699 12.3391L101.664 13.1185L103.36 14.2219L105.044 15.6419L106.706 17.3697L108.333 19.3956L109.912 21.7088L111.433 24.2977L112.883 27.1494L114.253 30.2504L115.53 33.5861L116.705 37.1415L117.768 40.9006L118.71 44.8468L119.522 48.9632L120.196 53.232L120.725 57.6353L121.101 62.1548L121.32 66.7719L121.375 71.4678L121.263 76.2235L120.98 81.0203L120.522 85.8392L119.889 90.6614L119.079 95.4686L118.091 100.242L116.927 104.965L115.589 109.619L114.078 114.187L112.398 118.653L110.552 123.002L108.548 127.218L106.388 131.286L104.082 135.194L101.635 138.929L99.0571 142.479L96.3558 145.833L93.5412 148.983L90.6235 151.917L87.6135 154.631L84.5227 157.116L81.3628 159.367L78.1463 161.381L74.8861 163.153L71.5951 164.682L68.2869 165.967L64.9753 167.009L61.674 167.808L58.3971 168.367L55.1588 168.69L51.9731 168.782L48.8541 168.649L45.8159 168.296L42.8721 167.733L40.0365 166.968L37.3222 166.01L34.7423 164.87L32.3093 163.56L30.0352 162.091L27.9318 160.477L26.0101 158.73L24.2804 156.864L22.7526 154.895L21.4357 152.836L20.3381 150.704L19.4673 148.513L18.8301 146.279L18.4324 144.019L18.2793 141.747L18.3747 139.481L18.7221 137.235L19.3235 135.026L20.1803 132.868L21.2929 130.778L22.6607 128.768L24.2819 126.855L26.1541 125.051L28.2738 123.37L30.6364 121.825L33.2364 120.426L36.0676 119.185L39.1227 118.113L42.3934 117.218L45.8709 116.509L49.5453 115.994L53.406 115.679L57.4416 115.57L61.6402 115.67L65.9889 115.984L70.4746 116.514L75.0832 117.261L79.8005 118.225L84.6117 119.404L89.5013 120.797L94.454 122.401L99.4538 124.211L104.485 126.221L109.53 128.426L114.575 130.817L119.601 133.385L124.594 136.123L129.536 139.017L134.411 142.059L139.204 145.234L143.9 148.531L148.482 151.935L152.936 155.432L157.248 159.006L161.404 162.643L165.39 166.326L169.195 170.038L172.805 173.763L176.209 177.483L179.398 181.181L182.361 184.84L185.089 188.442L187.574 191.969L189.809 195.403L191.788 198.729L193.505 201.928L194.956 204.984L196.138 207.881L197.048 210.602L197.685 213.134L198.048 215.46L198.139 217.567L197.958 219.442L197.508 221.073L196.792 222.447L195.816 223.555L194.585 224.387L193.104 224.933L191.381 225.188L189.424 225.143L187.242 224.794L184.845 224.137L182.242 223.168L179.446 221.887L176.467 220.292L173.317 218.383L170.011 216.164L166.56 213.637L162.979 210.807L159.282 207.679L155.483 204.259L151.597 200.557L147.638 196.581L143.623 192.341L139.565 187.849L135.48 183.117L131.384 178.159L127.29 172.989L123.214 167.622L119.171 162.074L115.174 156.362L111.237 150.505L107.375 144.52L103.6 138.425L99.924 132.242L96.36 125.988L92.919 119.685L89.612 113.353L86.4489 107.013L83.4392 100.685L80.5913 94.3911L77.9133 88.151L75.412 81.9859L73.0937 75.9164L70.9637 69.9626L69.0263 64.1445L67.2853 58.4815L65.743 52.9927L64.4015 47.6963L63.2614 42.6103L62.3227 37.7514L61.5845 33.1361L61.0448 28.7795L60.701 24.6963L60.5495 20.8999L60.5859 17.4027L60.8048 14.2162L61.2004 11.3507L61.7659 8.81525L62.4937 6.61787L63.3758 4.76525L64.4033 3.2629L65.5669 2.11505L66.8566 1.32463L68.262 0.893337L69.7723 0.821483L71.3761 1.10819L73.0619 1.75122L74.8177 2.74708L76.6313 4.09105L78.4906 5.77709L80.3829 7.79801L82.2959 10.1454L84.2171 12.8098L86.134 15.7804L88.0343 19.0457L89.9058 22.5927L91.7366 26.4079L93.5151 30.4767L95.23 34.7836L96.8703 39.3123L98.4256 44.0458L99.8859 48.9667L101.242 54.0567L102.484 59.2971L103.605 64.6687L104.597 70.1522L105.453 75.7278L106.167 81.3755L106.733 87.0753L107.146 92.8071L107.404 98.5508L107.503 104.287L107.44 109.995L107.215 115.656L106.827 121.25L106.276 126.76L105.564 132.167L104.692 137.454L103.665 142.603L102.484 147.598L101.156 152.424L99.6862 157.066L98.0796 161.511L96.3439 165.746L94.4866 169.758L92.5161 173.538L90.4415 177.075L88.2724 180.361L86.019 183.388L83.6921 186.15L81.3029 188.641L78.8631 190.858L76.3846 192.798L73.88 194.459L71.3618 195.841L68.8429 196.944L66.3364 197.77L63.8553 198.323L61.4129 198.607L59.0223 198.626L56.6967 198.387L54.4489 197.899L52.2918 197.168L50.2378 196.205L48.2992 195.02L46.4878 193.625L44.8151 192.03L43.2921 190.249L41.9291 188.296L40.7361 186.184L39.7224 183.928L38.8965 181.543L38.2663 179.045L37.839 176.45L37.621 173.773L37.6178 171.032L37.8342 168.242L38.2741 165.42L38.9405 162.583L39.8353 159.747L40.9599 156.929L42.3144 154.144L43.8981 151.408L45.7093 148.736L47.7456 146.143L50.0033 143.643L52.478 141.251L55.1643 138.979L58.0561 136.838L61.146 134.842L64.4263 133L67.8879 131.323L71.5214 129.819L75.3163 128.497L79.2616 127.362L83.3455 126.423L87.5555 125.682L91.8786 125.144L96.3014 124.812L100.81 124.688L105.389 124.771L110.025 125.063L114.701 125.56L119.404 126.26L124.116 127.159L128.822 128.252L133.506 129.534L138.153 130.998L142.747 132.634L147.271 134.436L151.71 136.392L156.049 138.492L160.272 140.724L164.366 143.077L168.315 145.537L172.106 148.09L175.725 150.722L179.16 153.42L182.399 156.166L185.429 158.946L188.241 161.744L190.824 164.543L193.169 167.327L195.267 170.08L197.112 172.785L198.697 175.426L200.015 177.986L201.063 180.45L201.836 182.801L202.332 185.024L202.548 187.104L202.485 189.026L202.142 190.776L201.521 192.341L200.623 193.709L199.453 194.866L198.014 195.803L196.311 196.509L194.35 196.974L192.139 197.19L189.686 197.15L186.998 196.847L184.086 196.276L180.961 195.434L177.632 194.316L174.112 192.922L170.414 191.25L166.55 189.301L162.534 187.076L158.38 184.58L154.102 181.814L149.716 178.786L145.237 175.501L140.679 171.967L136.06 168.192L131.394 164.187L126.698 159.962L121.987 155.529L117.277 150.9L112.585 146.09L107.925 141.114L103.312 135.986L98.7633 130.722L94.2919 125.341L89.9125 119.859L85.6388 114.294L81.4842 108.666L77.4614 102.992L73.5826 97.2932L69.8593 91.5885L66.3022 85.8978L62.9214 80.2413L59.7261 74.6388L56.7247 69.1105L53.9249 63.6762L51.3335 58.3556L48.9562 53.1681L46.798 48.1327L44.8631 43.268L43.1543 38.5922L41.674 34.1227L40.4234 29.8765L39.4027 25.8696L38.6112 22.1174L38.0475 18.6344L37.709 15.4342L37.5923 12.5294L37.6932 9.93171L38.0065 7.65154L38.5262 5.69835L39.2458 4.0804L40.1576 2.8048L41.2534 1.8774L42.5244 1.30284L43.9609 1.08449L45.5529 1.22444L47.2896 1.72346L49.1599 2.58109L51.1521 3.79554L53.2542 5.36372L55.4539 7.2813L57.7384 9.54266L60.095 12.141L62.5107 15.0681L64.9721 18.3149L67.4664 21.8709L69.9801 25.7245L72.5003 29.8634L75.0139 34.2737L77.5083 38.941L79.9708 43.8499L82.3892 48.9839L84.7517 54.3261L87.0468 59.8585L89.2634 65.5628L91.391 71.4199L93.4198 77.4103L95.3402 83.514L97.1436 89.7106L98.8218 95.9797L100.368 102.3L101.774 108.652L103.036 115.013L104.148 121.364L105.105 127.682L105.905 133.949L106.545 140.143L107.022 146.245L107.337 152.235L107.488 158.095L107.478 163.806L107.307 169.35L106.979 174.712L106.496 179.874L105.862 184.821L105.084 189.54L104.166 194.016L103.115 198.238L101.938 202.194L100.643 205.873L99.2386 209.268L97.7342 212.369L96.1392 215.171L94.4639 217.667L92.7189 219.853L90.9153 221.726L89.0647 223.285L87.1787 224.529L85.2694 225.458L83.349 226.074L81.43 226.381L79.5247 226.382L77.6458 226.083L75.8056 225.49L74.0166 224.612L72.2909 223.456L70.6407 222.033L69.0778 220.353L67.6135 218.428L66.259 216.271L65.025 213.894L63.9217 211.311L62.9587 208.538L62.1453 205.59L61.4898 202.482L61.0002 199.231L60.6837 195.853L60.5465 192.367L60.5944 188.788L60.8323 185.135L61.2642 181.426L61.8933 177.677L62.7219 173.906L63.7515 170.132L64.9826 166.37L66.415 162.638L68.0473 158.953L69.8774 155.331L71.9023 151.788L74.118 148.337L76.5197 144.995L79.1016 141.775L81.8573 138.69L84.7793 135.752L87.8594 132.973L91.0887 130.363L94.4576 127.931L97.9554 125.687L101.571 123.638L105.294 121.79L109.11 120.15L113.007 118.72L116.973 117.505L120.993 116.507L125.053 115.727L129.138 115.165L133.235 114.819L137.328 114.688L141.402 114.767L145.443 115.053L149.434 115.54L153.362 116.222L157.211 117.09L160.965 118.137L164.612 119.353L168.136 120.728L171.523 122.251L174.76 123.91L177.834 125.693L180.732 127.586L183.443 129.575L185.954 131.647L188.255 133.787L190.337 135.98L192.189 138.21L193.803 140.461L195.172 142.718L196.289 144.966L197.148 147.187L197.744 149.367L198.073 151.489L198.132 153.538L197.918 155.499L197.431 157.358L196.671 159.099L195.637 160.708L194.334 162.173L192.762 163.481L190.926 164.619L188.83 165.577L186.482 166.343L183.886 166.909L181.051 167.265L177.985 167.403L174.697 167.317L171.199 167.002L167.499 166.452L163.611 165.663L159.547 164.634L155.319 163.362L150.941 161.849L146.427 160.093L141.792 158.098L137.05 155.866L132.218 153.403L127.31 150.713L122.344 147.803L117.334 144.68L112.297 141.354L107.25 137.834L102.209 134.131L97.1903 130.256L92.2098 126.222L87.2837 122.043L82.4276 117.733L77.657 113.307L72.9869 108.78L68.4321 104.169L64.0066 99.4912L59.7241 94.7635L55.5976 90.0039L51.6395 85.2307L47.8616 80.4622L44.275 75.7172L40.8897 71.0145L37.7153 66.3728L34.7604 61.8111L32.0328 57.3481L29.5393 53.0022L27.2859 48.7917L25.2775 44.7346L23.5182 40.8483L22.0113 37.1499L20.7586 33.6557L19.7616 30.3817L19.0202 27.3428L18.5338 24.5535L18.3006 22.0272L18.3179 19.7765L18.5821 17.8132L19.0887 16.1478L19.8321 14.79L20.8063 13.7484L22.0039 13.0303L23.4172 12.6421L25.0374 12.5886L26.8551 12.8738L28.8602 13.5002L31.0421 14.4693L33.3894 15.7809L35.8903 17.4341L38.5325 19.4261L41.3032 21.7534L44.1894 24.4109L47.1775 27.3923L50.254 30.6903L53.4048 34.296L56.616 38.1998L59.8735 42.3907L63.1632 46.8565L66.4709 51.5843L69.7827 56.5598L73.0848 61.7681L76.3635 67.1932L79.6056 72.8184L82.798 78.6261L85.9283 84.5981L88.984 90.7155L91.9537 96.9589L94.8261 103.308L97.5908 109.744L100.238 116.244L102.757 122.789L105.142 129.356L107.382 135.926L109.473 142.476L111.406 148.986L113.177 155.435L114.782 161.802L116.215 168.066L117.475 174.208L118.559 180.208L119.467 186.047L120.197 191.706L120.75 197.169L121.129 202.417L121.335 207.435L121.371 212.208L121.241 216.72L120.95 220.96L120.504 224.914L119.909 228.572L119.172 231.923L118.3 234.958L117.303 237.67L116.188 240.051L114.965 242.098L113.645 243.805L112.237 245.17L110.754 246.191L109.205 246.869L107.603 247.204L105.959 247.198L104.285 246.855L102.594 246.18L100.898 245.179L99.2083 243.859L97.5379 242.229L95.8989 240.297L94.3031 238.074L92.7624 235.571L91.2882 232.802L89.8919 229.779L88.5841 226.516L87.3753 223.029L86.2754 219.333L85.294 215.445L84.4397 211.381L83.721 207.158L83.1453 202.796L82.7196 198.311L82.4501 193.723L82.3422 189.051L82.4007 184.312L82.6292 179.526L83.031 174.712L83.6081 169.889L84.3619 165.075L85.2929 160.289L86.4006 155.548L87.6838 150.87L89.1402 146.273L90.767 141.772L92.56 137.385L94.5147 133.125L96.6254 129.008L98.8857 125.048L101.288 121.256L103.826 117.646L106.489 114.228L109.268 111.013L112.154 108.009L115.136 105.224L118.203 102.666L121.342 100.339L124.542 98.2498L127.789 96.4004L131.072 94.7937L134.376 93.4308L137.688 92.3119L140.994 91.4358L144.28 90.8004L147.533 90.4024L150.737 90.2373L153.878 90.2998L156.944 90.5832L159.919 91.0802L162.791 91.7821L165.545 92.6797L168.169 93.7626L170.65 95.0199L172.976 96.4396L175.135 98.0092L177.116 99.7155L178.908 101.545L180.501 103.483L181.886 105.515L183.054 107.625L183.998 109.799L184.711 112.021L185.185 114.274L185.417 116.544L185.401 118.814L185.134 121.068L184.614 123.29L183.838 125.466L182.807 127.58L181.52 129.616L179.98 131.562L178.187 133.402L176.146 135.123L173.86 136.714L171.335 138.16L168.577 139.453L165.592 140.58L162.389 141.532L158.977 142.301L155.364 142.879L151.561 143.258L147.58 143.433L143.432 143.4L139.13 143.154L134.686 142.693L130.115 142.016L125.431 141.121L120.648 140.01L115.782 138.685L110.847 137.147L105.861 135.403L100.838 133.456L95.7952 131.312L90.7487 128.98L85.7148 126.467L80.7098 123.782L75.7501 120.936L70.8517 117.94L66.0305 114.806L61.3023 111.547L56.6824 108.175L52.1857 104.707L47.8269 101.155L43.6198 97.5362L39.578 93.8663L35.7144 90.1616L32.0412 86.4389L28.57 82.7153L25.3116 79.0082L22.2759 75.335L19.4723 71.7133L16.909 68.1608L14.5936 64.6947L12.5325 61.3326L10.7314 58.0914L9.19508 54.988L7.92709 52.0388L6.9302 49.2598L6.20614 46.6663L5.75563 44.2733L5.57842 42.0948L5.67324 40.1443L6.03786 38.4346L6.66906 36.9773L7.56266 35.7834L8.71357 34.8628L10.1158 34.2245L11.7623 33.8763L13.6455 33.8251L15.7567 34.0766L18.0866 34.6352L20.6249 35.5043L23.361 36.6861L26.2833 38.1814L29.3798 39.9901L32.6377 42.1104L36.044 44.5398L39.585 47.2741L43.2467 50.3082L47.0149 53.6356L50.8748 57.2487L54.8118 61.1387L58.8107 65.2957L62.8566 69.7087L66.9343 74.3655L71.0287 79.2532L75.1249 84.3576L79.208 89.6637L83.2634 95.1556L87.2767 100.817L91.234 106.63L95.1214 112.576L98.9259 118.638L102.635 124.795L106.235 131.029L109.717 137.318L113.068 143.643L116.278 149.983L119.337 156.317L122.237 162.624L124.97 168.884L127.529 175.075L129.906 181.177L132.096 187.17L134.096 193.033L135.9 198.748L137.505 204.294L138.911 209.654L140.115 214.809L141.118 219.742L141.92 224.436L142.523 228.877L142.928 233.049L143.141 236.938L143.164 240.532L143.002 243.818L142.662 246.787L142.15 249.429L141.473 251.734L140.639 253.698L139.657 255.312L138.536 256.573L137.285 257.478L135.915 258.023L134.437 258.21L132.862 258.037L131.201 257.507L129.466 256.623L127.67 255.39L125.824 253.812L123.941 251.897L122.033 249.652L120.113 247.088L118.193 244.213L116.286 241.041L114.404 237.582L112.559 233.851L110.763 229.861L109.027 225.628L107.361 221.168L105.778 216.498L104.286 211.635L102.896 206.597L101.616 201.402L100.456 196.071L99.4221 190.621L98.5223 185.072L97.7627 179.445L97.1492 173.76L96.6865 168.036L96.3788 162.294L96.2292 156.554L96.2403 150.835L96.4137 145.156L96.75 139.539L97.2491 134L97.91 128.558L98.731 123.231L99.7092 118.037L100.841 112.991L102.123 108.109L103.548 103.407L105.112 98.8975L106.807 94.5946L108.627 90.51L110.562 86.6551L112.605 83.0397L114.745 79.6731L116.973 76.5629L119.277 73.7159L121.648 71.1378L124.073 68.833L126.54 66.8046L129.038 65.0546L131.553 63.584L134.073 62.3924L136.585 61.4781L139.076 60.8386L141.532 60.4699L143.94 60.3672L146.288 60.5243L148.562 60.9342L150.75 61.5886L152.838 62.4785L154.814 63.5939L156.668 64.9238L158.386 66.4565L159.958 68.1794L161.373 70.0793L162.621 72.1424L163.693 74.3541L164.579 76.6995L165.273 79.1631L165.765 81.7292L166.051 84.3818L166.123 87.1043L165.977 89.8805L165.608 92.6938L165.014 95.5276L164.192 98.3656L163.141 101.191L161.86 103.989L160.349 106.742L158.61 109.436L156.645 112.056L154.458 114.586L152.051 117.014L149.432 119.327L146.605 121.51L143.577 123.553L140.357 125.445L136.952 127.176L133.372 128.736L129.627 130.117L125.729 131.312L121.688 132.315L117.516 133.119L113.228 133.722L108.835 134.12L104.353 134.31L99.7943 134.293L95.175 134.068L90.5097 133.636L85.814 133L81.1033 132.164L76.3934 131.132L71.7002 129.909L67.0396 128.503L62.4275 126.92L57.8797 125.17L53.4119 123.263L49.0394 121.207L44.7774 119.016L40.6409 116.7L36.6443 114.273L32.8015 111.748L29.1261 109.139L25.6311 106.461L22.3288 103.728L19.2309 100.957L16.3484 98.1636L13.6915 95.3631L11.2697 92.5722L9.09166 89.8074L7.16515 87.0853L5.49703 84.4222L4.0933 81.8345L2.95896 79.3384L2.09808 76.9499L1.51376 74.6845L1.20807 72.5576L1.18213 70.5838L1.43603 68.7772L1.96885 67.1517L2.77868 65.7199L3.86262 64.4942L5.21679 63.4859L6.83634 62.7057L8.71546 62.163L10.8475 61.8667L13.2247 61.8244L15.8387 62.0428L18.6801 62.5276L21.739 63.2832L25.0043 64.3129L28.4645 65.6191L32.1074 67.2027L35.9202 69.0636L39.8893 71.2005L44.001 73.611L48.2408 76.2912L52.594 79.2363L57.0453 82.4403L61.5795 85.896L66.1808 89.595L70.8336 93.528L75.522 97.6844L80.2299 102.053L84.9417 106.62L89.6414 111.374L94.3135 116.299L98.9424 121.381L103.513 126.603L108.011 131.948L112.421 137.4L116.73 142.941L120.924 148.551L124.99 154.212L128.916 159.905L132.69 165.61L136.301 171.307L139.739 176.977L142.995 182.599L146.059 188.153L148.923 193.619L151.582 198.978L154.028 204.21L156.256 209.296L158.263 214.217L160.044 218.955L161.597 223.492L162.921 227.811L164.015 231.896L164.879 235.731L165.515 239.301L165.925 242.593L166.112 245.593L166.08 248.29L165.834 250.672L165.379 252.731L164.723 254.456L163.871 255.842L162.833 256.88L161.617 257.568L160.232 257.9L158.688 257.874L156.997 257.49L155.168 256.746L153.213 255.645L151.144 254.189L148.974 252.382L146.716 250.23L144.38 247.738L141.982 244.915L139.534 241.769L137.049 238.31L134.54 234.55L132.02 230.5L129.503 226.175L127.001 221.588L124.527 216.754L122.093 211.69L119.712 206.412L117.394 200.938L115.151 195.287L112.994 189.476L110.933 183.526L108.977 177.456L107.136 171.287L105.417 165.039L103.828 158.732L102.376 152.388L101.068 146.028L99.9075 139.672L98.9005 133.341L98.0502 127.055L97.3594 120.836L96.8302 114.703L96.4637 108.675L96.2602 102.772L96.2191 97.0113L96.339 91.4118L96.6177 85.9902L97.0519 80.763L97.6379 75.7456L98.3707 70.9526L99.245 66.3977L100.255 62.0936L101.392 58.052L102.65 54.2833L104.021 50.7971L105.494 47.6016L107.061 44.704L108.712 42.1102L110.436 39.8248L112.222 37.8514L114.059 36.1922L115.935 34.8481L117.839 33.8191L119.757 33.1035L121.678 32.6987L123.588 32.6009L125.477 32.805L127.331 33.3048L129.138 34.0931L130.885 35.1614L132.56 36.5003L134.152 38.0996L135.649 39.9478L137.04 42.0328L138.314 44.3415L139.46 46.8601L140.468 49.5741L141.33 52.4683L142.037 55.5272L142.58 58.7343L142.953 62.0732L143.148 65.5269L143.159 69.078L142.982 72.7091L142.612 76.4026L142.047 80.141L141.282 83.9065L140.316 87.6817L139.149 91.4494L137.781 95.1923L136.212 98.8939L134.445 102.538L132.481 106.108L130.326 109.59L127.983 112.968L125.458 116.228L122.757 119.358L119.887 122.344L116.856 125.175L113.673 127.84L110.348 130.329L106.89 132.634L103.31 134.746L99.6207 136.658L95.8331 138.366L91.96 139.863L88.0147 141.146L84.0107 142.213L79.9621 143.063L75.883 143.695L71.7881 144.109L67.6922 144.309L63.6103 144.296L59.5574 144.075L55.5486 143.651L51.599 143.031L47.7236 142.221L43.9374 141.23L40.2548 140.067L36.6904 138.741L33.2581 137.264L29.9717 135.647L26.8443 133.903L23.8888 132.044L21.1174 130.083L18.5415 128.036L16.1722 125.916L14.0198 123.738L12.0937 121.519L10.4027 119.273L8.95464 117.016L7.75668 114.763L6.81497 112.532L6.13481 110.337L5.72052 108.195L5.5755 106.121L5.70218 104.13L6.102 102.237L6.7754 100.457L7.72183 98.8044L8.93975 97.2919L10.4266 95.9328L12.179 94.7393L14.1923 93.7231L16.461 92.8947L18.9789 92.2643L21.7386 91.8407L24.7319 91.6321L27.9498 91.6457L31.3824 91.8874L35.019 92.3625L38.8482 93.0747L42.8579 94.0271L47.0354 95.2213L51.3672 96.6581L55.8394 98.3368L60.4376 100.256L65.1469 102.412L69.952 104.803L74.8373 107.421L79.7868 110.262L84.7846 113.318L89.8144 116.58L94.8598 120.039L99.9046 123.685L104.932 127.507L109.927 131.491L114.872 135.626L119.752 139.896L124.552 144.287L129.255 148.783L133.848 153.369L138.317 158.028L142.646 162.741L146.824 167.493L150.837 172.264L154.673 177.036L158.322 181.79L161.772 186.508L165.015 191.172L168.041 195.761L170.841 200.257L173.41 204.642L175.741 208.898L177.828 213.006L179.666 216.948L181.254 220.709L182.588 224.27L183.666 227.615L184.489 230.731L185.057 233.601L185.37 236.213L185.432 238.552L185.246 240.608L184.817 242.37L184.148 243.827L183.247 244.97L182.119 245.792L180.774 246.286L179.218 246.446L177.463 246.269L175.516 245.752L173.389 244.892L171.093 243.689L168.64 242.145L166.042 240.26L163.31 238.039L160.46 235.486L157.502 232.607L154.453 229.409L151.324 225.9L148.13 222.09L144.886 217.99L141.605 213.61L138.302 208.964L134.99 204.066L131.683 198.93L128.395 193.572L125.14 188.009L121.931 182.258L118.779 176.336L115.698 170.263L112.7 164.057L109.795 157.739L106.995 151.329L104.31 144.847L101.749 138.315L99.3204 131.752L97.0331 125.181L94.8942 118.622L92.9102 112.097L91.0868 105.626L89.429 99.2312L87.9407 92.932L86.6252 86.749L85.4848 80.7018L84.521 74.8096L83.7344 69.0911L83.1246 63.5641L82.6905 58.2458L82.4301 53.1526L82.3404 48.3002L82.4178 43.7031L82.6577 39.3751L83.0549 35.3286L83.6033 31.5754L84.2961 28.1258L85.1258 24.9892L86.0844 22.1737L87.163 19.6863L88.3523 17.5326L89.6425 15.717L91.0233 14.2429L92.4839 13.1119L94.0131 12.3249L95.5996 11.8811L97.2315 11.7787L98.8969 12.0145L100.584 12.5841L102.28 13.4819L103.973 14.7011L105.651 16.2338L107.301 18.071L108.912 20.2025L110.471 22.6172L111.968 25.303L113.39 28.2468L114.727 31.4347L115.969 34.8519L117.104 38.4831L118.125 42.3121L119.02 46.3221L119.783 50.4958L120.405 54.8155L120.879 59.2632L121.199 63.8203L121.359 68.4681L121.354 73.1879L121.18 77.9607L120.834 82.7677L120.313 87.5899L119.615 92.4089L118.741 97.206L117.689 101.963L116.462 106.663L115.06 111.288L113.487 115.821L111.747 120.246L109.843 124.548L107.781 128.712L105.568 132.724L103.21 136.57L100.714 140.239L98.0904 143.72L95.3469 147.001L92.4936 150.073L89.5412 152.928L86.5005 155.559L83.3832 157.96L80.2013 160.126L76.9675 162.052L73.6945 163.736L70.3957 165.177L67.0847 166.373L63.7752 167.327L60.4811 168.038L57.2166 168.511L53.9957 168.75L50.8326 168.76L47.7414 168.546L44.7358 168.116L41.8297 167.478L39.0366 166.642L36.3696 165.617L33.8416 164.414L31.4649 163.045L29.2515 161.521L27.2128 159.857L25.3596 158.065L23.702 156.161L22.2498 154.157L21.0115 152.07L19.9954 149.914L19.2087 147.706L18.6578 145.461L18.3483 143.195L18.285 140.923L18.4715 138.663L18.9109 136.428L19.6049 134.236L20.5546 132.101L21.7599 130.038L23.2199 128.062L24.9326 126.187L26.8951 124.426L29.1034 122.793L31.5529 121.299L34.2376 119.957L37.1509 118.776L40.2853 117.767L43.6321 116.939L47.1822 116.299L50.9255 115.856L54.851 115.615L58.9472 115.582L63.2018 115.759L67.6018 116.152L72.1337 116.76L76.7835 117.586L81.5366 118.628L86.378 119.885L91.2924 121.355L96.264 123.034L101.277 124.918L106.315 126.999L111.362 129.272L116.402 131.729L121.418 134.36L126.394 137.156L131.314 140.105L136.161 143.196L140.92 146.417L145.577 149.755L150.114 153.194L154.518 156.721L158.775 160.32L162.871 163.975L166.793 167.671L170.528 171.39L174.065 175.115L177.392 178.829L180.5 182.515L183.378 186.155L186.019 189.731L188.414 193.227L190.557 196.624L192.441 199.905L194.062 203.055L195.416 206.055L196.5 208.89L197.311 211.544L197.848 214.002L198.113 216.251L198.104 218.275L197.825 220.063L197.279 221.602L196.468 222.881L195.398 223.889L194.076 224.618L192.506 225.06L190.697 225.206L188.658 225.052L186.397 224.591L183.923 223.822L181.249 222.74L178.385 221.344L175.343 219.635L172.135 217.614L168.774 215.282L165.275 212.645L161.65 209.706L157.914 206.471L154.082 202.948L150.168 199.145L146.187 195.072L142.154 190.739L138.085 186.159L133.994 181.343L129.897 176.306L125.808 171.063L121.742 165.628L117.714 160.019L113.737 154.252L109.826 148.346L105.994 142.319L102.253 136.19L98.6169 129.979L95.0963 123.705L91.7028 117.389L88.4469 111.052L85.3384 104.714L82.3864 98.396L79.5994 92.1189L76.9847 85.9037L74.5492 79.771L72.2986 73.7411L70.2381 67.8343L68.3716 62.0702L66.7024 56.4683L65.2329 51.0472L63.9644 45.8252L62.8975 40.8197L62.0317 36.0473L61.3658 31.5242L60.8976 27.2652L60.624 23.2846L60.5413 19.5954L60.6445 16.2097L60.9283 13.1386L61.3864 10.3919L62.0117 7.97828L62.7965 5.90531L63.7324 4.17926L64.8104 2.80514L66.0209 1.78673L67.3539 1.12654L68.7986 0.825715L70.3442 0.884184L71.9791 1.30053L73.6917 2.0721L75.4699 3.19491L77.3015 4.66377L79.1742 6.47226L81.0755 8.6127L82.9929 11.0763L84.914 13.8531L86.8262 16.9321L88.7175 20.3011L90.5756 23.9472L92.3887 27.8561L94.1454 32.0131L95.8345 36.4024L97.4451 41.0075L98.9671 45.8111L100.391 50.7955L101.706 55.9422L102.906 61.2325L103.981 66.647L104.924 72.1662L105.729 77.7703L106.389 83.4392L106.901 89.1529L107.258 94.8914L107.458 100.634L107.499 106.362L107.377 112.056L107.093 117.695L106.645 123.261L106.036 128.735L105.266 134.101L104.337 139.339L103.254 144.434L102.019 149.37L100.639 154.131L99.1185 158.703L97.4642 163.073L95.6834 167.228L93.7841 171.158L91.7747 174.85L89.6647 178.297L87.4637 181.49L85.1824 184.421L82.8316 187.086L80.4226 189.478L77.9674 191.595L75.478 193.433L72.9669 194.993L70.447 196.273L67.9311 197.276L65.4323 198.002L62.9637 198.457L60.5386 198.644L58.1701 198.569L55.8712 198.238L53.6548 197.661L51.5337 196.845L49.5202 195.8L47.6264 194.537L45.8641 193.068L44.2445 191.404L42.7784 189.559L41.476 187.547L40.347 185.381L39.4005 183.076L38.6447 180.649L38.0874 178.113L37.7353 175.487L37.5947 172.785L37.6707 170.024L37.9679 167.22L38.4897 164.391L39.2387 161.553L40.2169 158.722L41.4249 155.913L42.8627 153.144L44.5293 150.43L46.4225 147.785L48.5396 145.224L50.8766 142.762L53.4288 140.412L56.1905 138.186L59.155 136.097L62.315 134.155L65.6621 132.372L69.1873 130.757L72.8806 129.318L76.7314 128.063L80.7284 126.999L84.8595 126.13L89.1121 125.463L93.473 125L97.9285 124.743L102.464 124.694L107.066 124.853L111.718 125.219L116.406 125.79L121.113 126.563L125.825 127.534L130.526 128.696L135.198 130.045L139.827 131.572L144.397 133.27L148.892 135.128L153.297 137.138L157.596 139.287L161.774 141.565L165.817 143.958L169.71 146.453L173.44 149.037L176.994 151.695L180.359 154.411L183.523 157.172L186.475 159.96L189.205 162.76L191.703 165.556L193.959 168.331L195.967 171.068L197.718 173.752L199.206 176.366L200.427 178.893L201.375 181.317L202.048 183.623L202.443 185.796L202.558 187.82L202.393 189.681L201.949 191.366L201.227 192.861L200.23 194.154L198.961 195.232L197.426 196.086L195.629 196.706L193.577 197.081L191.277 197.205L188.737 197.071L185.967 196.671L182.976 196.002L179.775 195.06L176.376 193.842L172.79 192.347L169.03 190.574L165.109 188.525L161.041 186.201L156.841 183.607L152.522 180.745L148.1 177.623L143.591 174.247L139.009 170.624L134.371 166.765L129.692 162.678L124.989 158.376L120.276 153.871L115.571 149.175L110.889 144.303L106.244 139.269L101.653 134.09L97.1308 128.782L92.6911 123.362L88.3484 117.848L84.1165 112.258L80.0083 106.611L76.0364 100.926L72.2128 95.2224L68.5486 89.5204L65.0543 83.8399L61.7398 78.2006L58.6139 72.6228L55.6849 67.1263L52.96 61.731L50.4456 56.4565L48.1473 51.322L46.0698 46.3464L44.2166 41.5482L42.5906 36.9453L41.1935 32.5549L40.0264 28.3937L39.089 24.4775L38.3804 20.8214L37.8988 17.4395L37.6412 14.3452L37.604 11.5506L37.7826 9.06692L38.1716 6.90439L38.7647 5.07197L39.5549 3.57752L40.5345 2.42769L41.6949 1.62788L43.0271 1.18228L44.5213 1.09378L46.167 1.36403L47.9536 1.99334L49.8695 2.98073L51.903 4.32399L54.0419 6.01956L56.2739 8.06263L58.5861 10.4471L60.9656 13.1658L63.3994 16.2101L65.8743 19.5703L68.3771 23.2357L70.8947 27.1944L73.414 31.4334L75.9221 35.9387L78.4063 40.6956L80.8542 45.6881L83.2537 50.8997L85.593 56.313L87.8609 61.91L90.0464 67.672L92.1393 73.5797L94.1297 79.6135L96.0087 85.7533L97.7675 91.9787L99.3985 98.2689L100.895 104.603L102.249 110.961L103.457 117.32L104.513 123.662L105.414 129.964L106.156 136.206L106.737 142.369L107.155 148.433L107.411 154.378L107.503 160.186L107.434 165.838L107.206 171.318L106.821 176.609L106.283 181.695L105.596 186.561L104.766 191.193L103.799 195.578L102.702 199.705L101.481 203.562L100.145 207.139L98.7037 210.428L97.1652 213.421L95.5399 216.112L93.838 218.496L92.0705 220.569L90.2485 222.329L88.3836 223.773L86.4877 224.902L84.573 225.718L82.6517 226.221L80.7363 226.416L78.8391 226.308L76.9728 225.901L75.1497 225.204L73.3823 224.224L71.6827 222.97L70.0628 221.452L68.5343 219.682L67.1086 217.671L65.7967 215.432L64.6089 212.979L63.5555 210.326L62.6458 207.487L61.8887 204.479L61.2926 201.317L60.865 198.019L60.6128 194.6L60.5422 191.078L60.6586 187.47L60.9664 183.795L61.4696 180.069L62.1708 176.31L63.0723 172.536L64.175 168.764L65.4793 165.011L66.9844 161.295L68.6888 157.631L70.59 154.035L72.6847 150.524L74.9684 147.111L77.4362 143.812L80.082 140.639L82.899 137.606L85.8793 134.725L89.0147 132.006L92.2958 129.459L95.7127 127.095L99.2547 124.921L102.911 122.944L106.668 121.171L110.516 119.606L114.439 118.254L118.426 117.118L122.462 116.199L126.533 115.498L130.625 115.015L134.722 114.747L138.81 114.692L142.874 114.848L146.898 115.207L150.868 115.766L154.769 116.516L158.585 117.45L162.302 118.56L165.906 119.835L169.382 121.265L172.716 122.838L175.895 124.544L178.907 126.368L181.738 128.297L184.378 130.319L186.814 132.417L189.037 134.578L191.036 136.786L192.803 139.025L194.329 141.28L195.607 143.536L196.631 145.776L197.395 147.984L197.894 150.144L198.126 152.242L198.086 154.261L197.773 156.187L197.187 158.004L196.327 159.699L195.195 161.257L193.794 162.667L192.126 163.914L190.195 164.988L188.007 165.878L185.568 166.572L182.884 167.062L179.964 167.34L176.817 167.398L173.452 167.23L169.879 166.83L166.11 166.193L162.156 165.318L158.031 164.201L153.746 162.841L149.317 161.239L144.758 159.396L140.082 157.315L135.306 154.999L130.444 152.453L125.514 149.682L120.529 146.694L115.508 143.496L110.466 140.099L105.419 136.511L100.384 132.744L95.3774 128.81L90.4148 124.722L85.5123 120.493L80.6854 116.139L75.9496 111.675L71.3197 107.115L66.8102 102.478L62.435 97.7802L58.2077 93.0388L54.1409 88.2722L50.247 83.4985L46.5372 78.7364L43.0225 74.0045L39.7127 69.3218L36.6171 64.707L33.7438 60.179L31.1004 55.7563L28.6934 51.4575L26.5284 47.3006L24.61 43.3035L22.942 39.4834L21.5272 35.8573L20.3672 32.4412L19.463 29.2508L18.8143 26.3009L18.42 23.6055L18.2781 21.1778L18.3855 19.0302L18.7382 17.1738L19.3314 15.619L20.1594 14.375L21.2155 13.4501L22.4924 12.851L23.9817 12.5837L25.6747 12.6528L27.5617 13.0616L29.6322 13.8123L31.8755 14.9057L34.28 16.3415L36.8336 18.118L39.5239 20.2322L42.3381 22.68L45.2628 25.4559L48.2846 28.5531L51.3897 31.9638L54.564 35.679L57.7937 39.6883L61.0645 43.9804L64.3623 48.5428L67.6731 53.3622L70.983 58.424L74.2782 63.7129L77.5451 69.2126L80.7707 74.9061L83.942 80.7756L87.0465 86.8025L90.0724 92.968L93.008 99.2522L95.8425 105.635L98.5655 112.096L101.167 118.615L103.639 125.171L105.972 131.741L108.159 138.307L110.193 144.845L112.068 151.335L113.779 157.756L115.322 164.088L116.693 170.31L117.889 176.403L118.909 182.347L119.752 188.122L120.418 193.712L120.908 199.099L121.224 204.266L121.367 209.196L121.343 213.876L121.154 218.291L120.806 222.429L120.305 226.277L119.658 229.824L118.871 233.061L117.952 235.98L116.911 238.572L115.756 240.833L114.497 242.757L113.144 244.34L111.707 245.58L110.199 246.477L108.629 247.03L107.01 247.241L105.354 247.112L103.673 246.648L101.978 245.854L100.283 244.737L98.5992 243.303L96.9388 241.562L95.3141 239.523L93.7369 237.197L92.2191 234.596L90.7719 231.733L89.4064 228.622L88.1334 225.276L86.963 221.711L85.9051 217.943L84.9688 213.989L84.1628 209.866L83.4951 205.59L82.9731 201.181L82.6035 196.657L82.392 192.036L82.344 187.337L82.4638 182.579L82.7549 177.781L83.2201 172.962L83.8612 168.14L84.6793 163.334L85.6745 158.562L86.8461 153.842L88.1925 149.191L89.7112 144.627L91.3987 140.166L93.251 135.823L95.263 131.614L97.4288 127.552L99.7417 123.651L102.194 119.924L104.778 116.383L107.485 113.037L110.304 109.898L113.226 106.972L116.24 104.269L119.334 101.794L122.497 99.5534L125.715 97.5506L128.977 95.7891L132.269 94.2708L135.578 92.9965L138.89 91.9659L142.19 91.1775L145.465 90.6287L148.702 90.3158L151.885 90.234L155 90.3775L158.035 90.7393L160.974 91.3117L163.805 92.0858L166.513 93.0519L169.087 94.1994L171.513 95.517L173.78 96.9926L175.875 98.6134L177.789 100.366L179.51 102.236L181.028 104.21L182.336 106.272L183.423 108.408L184.284 110.601L184.911 112.836L185.297 115.097L185.44 117.369L185.333 119.635L184.974 121.879L184.362 124.086L183.494 126.241L182.37 128.329L180.991 130.334L179.358 132.242L177.475 134.041L175.344 135.716L172.971 137.256L170.361 138.648L167.519 139.881L164.454 140.946L161.174 141.833L157.688 142.533L154.005 143.04L150.136 143.345L146.093 143.446L141.888 143.336L137.533 143.012L133.041 142.472L128.427 141.716L123.706 140.743L118.891 139.554L113.998 138.151L109.043 136.538L104.041 134.719L99.0092 132.7L93.9632 130.487L88.9194 128.088L83.8941 125.512L78.9037 122.767L73.9643 119.866L69.0921 116.818L64.3029 113.637L59.6123 110.335L55.0354 106.927L50.5871 103.426L46.2817 99.8485L42.1331 96.2093L38.1545 92.5249L34.3586 88.8116L30.7575 85.0866L27.3623 81.367L24.1836 77.6702L21.2311 74.0137L18.5138 70.4151L16.0396 66.8919L13.8158 63.4616L11.8485 60.1414L10.143 56.9483L8.70368 53.899L7.53382 51.0097L6.63581 48.2963L6.011 45.7739L5.65976 43.4571L5.58148 41.3598L5.77453 39.4953L6.23632 37.8759L6.96329 36.513L7.95092 35.4172L9.19378 34.5981L10.6855 34.0642L12.4189 33.8231L14.3859 33.8812L16.5775 34.2436L18.9843 34.9146L21.5957 35.897L24.4007 37.1925L27.3877 38.8017L30.5442 40.7237L33.8575 42.9566L37.3143 45.4972L40.9007 48.341L44.6028 51.4823L48.406 54.9143L52.2956 58.629L56.2568 62.6171L60.2745 66.8684L64.3336 71.3713L68.4192 76.1135L72.516 81.0815L76.6091 86.2608L80.6839 91.6363L84.7256 97.1916L88.7202 102.91L92.6536 108.773L96.5125 114.764L100.284 120.863L103.955 127.05L107.513 133.306L110.949 139.611L114.249 145.943L117.406 152.283L120.409 158.61L123.249 164.902L125.919 171.14L128.413 177.301L130.723 183.366L132.844 189.314L134.773 195.126L136.505 200.781L138.039 206.262L139.371 211.549L140.502 216.626L141.432 221.474L142.162 226.078L142.692 230.423L143.028 234.494L143.171 238.277L143.126 241.761L142.899 244.933L142.496 247.784L141.923 250.305L141.188 252.487L140.299 254.324L139.266 255.811L138.096 256.943L136.801 257.717L135.391 258.133L133.876 258.188L132.269 257.886L130.579 257.227L128.821 256.216L127.005 254.856L125.144 253.155L123.25 251.12L121.337 248.758L119.415 246.08L117.499 243.096L115.6 239.818L113.73 236.259L111.901 232.432L110.125 228.352L108.413 224.035L106.777 219.497L105.225 214.755L103.769 209.826L102.418 204.729L101.181 199.482L100.066 194.105L99.0797 188.617L98.2301 183.038L97.5229 177.387L96.9636 171.686L96.5567 165.953L96.306 160.209L96.2146 154.474L96.2844 148.768L96.5169 143.11L96.9123 137.518L97.4703 132.012L98.1896 126.611L99.068 121.33L100.103 116.187L101.289 111.199L102.624 106.381L104.1 101.747L105.713 97.3113L107.454 93.0863L109.316 89.0839L111.292 85.3147L113.371 81.7887L115.544 78.5142L117.801 75.4989L120.131 72.7489L122.522 70.2695L124.964 68.0647L127.444 66.1372L129.95 64.4886L132.468 63.1193L134.987 62.0286L137.492 61.2144L139.972 60.6737L142.412 60.4022L144.8 60.3945L147.123 60.6442L149.367 61.1439L151.52 61.8849L153.569 62.8578L155.502 64.0524L157.307 65.4573L158.974 67.0605L160.49 68.8492L161.845 70.81L163.031 72.9287L164.036 75.1907L164.854 77.5808L165.475 80.0834L165.893 82.6828L166.102 85.3626L166.095 88.1066L165.869 90.8982L165.419 93.7208L164.743 96.558L163.837 99.3934L162.703 102.211L161.338 104.994L159.744 107.728L157.923 110.396L155.877 112.985L153.609 115.48L151.125 117.868L148.429 120.135L145.529 122.268L142.43 124.258L139.142 126.093L135.672 127.762L132.031 129.258L128.229 130.573L124.278 131.699L120.188 132.63L115.973 133.362L111.645 133.89L107.218 134.213L102.706 134.328L98.124 134.235L93.4863 133.935L88.8082 133.429L84.1052 132.72L79.3929 131.812L74.6873 130.71L70.0041 129.42L65.3593 127.948L60.7687 126.304L56.2481 124.496L51.8131 122.533L47.479 120.427L43.2609 118.189L39.1735 115.831L35.2311 113.367L31.4475 110.81L27.8361 108.174L24.4097 105.475L21.1802 102.726L18.1592 99.9452L15.3575 97.1471L12.7849 94.3482L10.4506 91.5649L8.36299 88.8137L6.52951 86.111L4.95671 83.4734L3.65023 80.9171L2.61471 78.4582L1.85391 76.1127L1.37052 73.8958L1.16629 71.8228L1.24196 69.908L1.59724 68.1656L2.23088 66.609L3.14058 65.2506L4.3231 64.1026L5.7742 63.1759L7.48867 62.4808L9.46039 62.0266L11.6823 61.8216L14.1465 61.8732L16.8442 62.1877L19.7657 62.7703L22.9008 63.6251L26.2382 64.7549L29.7662 66.1617L33.4723 67.846L37.3434 69.8074L41.3659 72.0439L45.5258 74.5528L49.8084 77.3298L54.199 80.3696L58.6822 83.6659L63.2426 87.2109L67.8644 90.9959L72.5319 95.0112L77.2292 99.2459L81.9404 103.688L86.6496 108.325L91.3411 113.142L95.9993 118.126L100.609 123.26L105.155 128.529L109.622 133.916L113.998 139.402L118.266 144.97L122.415 150.601L126.432 156.276L130.304 161.975L134.02 167.68L137.57 173.369L140.942 179.024L144.129 184.624L147.122 190.148L149.912 195.578L152.495 200.893L154.862 206.074L157.011 211.102L158.935 215.959L160.634 220.626L162.104 225.086L163.345 229.322L164.355 233.318L165.136 237.058L165.69 240.529L166.019 243.716L166.126 246.608L166.015 249.191L165.693 251.457L165.164 253.396L164.436 254.999L163.515 256.259L162.412 257.171L161.133 257.73L159.689 257.932L158.091 257.776L156.348 257.261L154.472 256.388L152.475 255.157L150.368 253.574L148.164 251.641L145.876 249.364L143.517 246.751L141.099 243.81L138.636 240.549L136.14 236.979L133.626 233.113L131.106 228.962L128.593 224.539L126.099 219.861L123.639 214.942L121.222 209.798L118.863 204.447L116.571 198.907L114.358 193.195L112.235 187.332L110.21 181.336L108.295 175.228L106.497 169.027L104.825 162.756L103.285 156.433L101.884 150.081L100.629 143.719L99.5241 137.37L98.5736 131.053L97.7809 124.79L97.1486 118.599L96.6783 112.502L96.371 106.517L96.2265 100.663L96.2441 94.9595L96.4219 89.4226L96.7575 84.0698L97.2473 78.917L97.8871 73.9793L98.672 69.2712L99.5962 64.806L100.653 60.5958L101.835 56.6521L103.135 52.9849L104.544 49.6034L106.053 46.5152L107.651 43.7272L109.33 41.2449L111.078 39.0724L112.884 37.2128L114.736 35.6679L116.624 34.4383L118.534 33.5232L120.454 32.9208L122.373 32.6279L124.277 32.6403L126.155 32.9525L127.993 33.558L129.779 34.4489L131.502 35.6166L133.148 37.0513L134.707 38.7423L136.167 40.6779L137.516 42.8456L138.745 45.2321L139.842 47.8233L140.798 50.6045L141.605 53.5603L142.253 56.6749L142.735 59.9318L143.044 63.3143L143.173 66.8053L143.117 70.3875L142.871 74.0433L142.43 77.7551L141.792 81.5054L140.955 85.2765L139.916 89.0509L138.676 92.8116L137.235 96.5415L135.593 100.224L133.755 103.843L131.721 107.383L129.497 110.828L127.087 114.165L124.497 117.38L121.734 120.459L118.805 123.39L115.718 126.162L112.482 128.764L109.108 131.187L105.604 133.423L101.983 135.463L98.2567 137.302L94.4366 138.933L90.5358 140.353L86.5676 141.559L82.5457 142.547L78.4843 143.317L74.3978 143.87L70.3009 144.206L66.2083 144.328L62.1352 144.239L58.0965 143.944L54.1075 143.449L50.1831 142.759L46.3384 141.882L42.5881 140.827L38.9467 139.604L35.4287 138.222L32.0478 136.693L28.8176 135.028L25.7512 133.241L22.8611 131.343L20.1593 129.349L17.6572 127.274L15.3655 125.131L13.2941 122.937L11.4523 120.706L9.84863 118.454L8.4906 116.197L7.38498 113.95L6.53763 111.73L5.95351 109.553L5.63661 107.434L5.58998 105.388L5.81567 103.431L6.31478 101.577L7.08739 99.8421L8.13259 98.2385L9.44848 96.7802L11.0322 95.4799L12.8798 94.3494L14.9865 93.4001L17.3464 92.6425L19.953 92.0862L22.7985 91.7398L25.8744 91.611L29.1714 91.7068L32.6793 92.0326L36.3871 92.5934L40.2833 93.3925L44.3554 94.4325L48.5904 95.7148L52.9748 97.2395L57.4945 99.0057L62.1347 101.011L66.8806 103.253L71.7166 105.727L76.6271 108.427L81.596 111.346L86.6073 114.478L91.6447 117.813L96.6917 121.342L101.732 125.053L106.75 128.935L111.728 132.975L116.651 137.16L121.504 141.476L126.271 145.907L130.936 150.438L135.485 155.052L139.905 159.733L144.18 164.462L148.3 169.223L152.25 173.996L156.02 178.764L159.598 183.508L162.974 188.208L166.138 192.847L169.083 197.404L171.801 201.863L174.284 206.203L176.526 210.407L178.524 214.457L180.272 218.335L181.768 222.025L183.009 225.51L183.995 228.773L184.725 231.802L185.2 234.58L185.422 237.094L185.393 239.332L185.118 241.282L184.601 242.934L183.847 244.278L182.863 245.306L181.656 246.009L180.233 246.383L178.604 246.421L176.778 246.121L174.764 245.479L172.575 244.495L170.221 243.168L167.713 241.5L165.065 239.493L162.289 237.151L159.398 234.479L156.405 231.483L153.325 228.171L150.172 224.552L146.958 220.635L143.699 216.432L140.408 211.954L137.1 207.215L133.788 202.229L130.487 197.011L127.209 191.576L123.969 185.943L120.779 180.127L117.652 174.148L114.6 168.025L111.634 161.776L108.767 155.423L106.007 148.984L103.366 142.481L100.852 135.935L98.4736 129.367L96.2393 122.798L94.1559 116.249L92.2296 109.741L90.4657 103.295L88.869 96.9328L87.4431 90.6735L86.191 84.5376L85.1146 78.5444L84.2151 72.7132L83.4927 67.0621L82.9469 61.6088L82.5761 56.3704L82.378 51.3629L82.3494 46.6015L82.4863 42.1005L82.784 37.8733L83.2368 33.9319L83.8384 30.2878L84.5818 26.9508L85.4593 23.9298L86.4624 21.2327L87.5823 18.8658L88.8094 16.8344L90.1337 15.1424L91.5447 13.7927L93.0315 12.7866L94.5829 12.1243L96.1872 11.8047L97.8327 11.8254L99.5073 12.1829L101.199 12.8723L102.895 13.8876L104.584 15.2216L106.253 16.8659L107.891 18.8112L109.484 21.0468L111.022 23.5613L112.493 26.3423L113.886 29.3763L115.19 32.6492L116.394 36.1459L117.489 39.8508L118.465 43.7474L119.313 47.8189L120.026 52.0477L120.595 56.416L121.014 60.9054L121.276 65.4976L121.377 70.1738L121.311 74.915L121.075 79.7024L120.665 84.5171L120.08 89.3403L119.318 94.1534L118.38 98.9382L117.264 103.677L115.973 108.351L114.509 112.944L112.875 117.44L111.074 121.822L109.113 126.076L106.995 130.186L104.728 134.14L102.32 137.923L99.7765 141.525L97.108 144.934L94.3235 148.14L91.433 151.135L88.4472 153.909L85.3773 156.458L82.2352 158.774L79.033 160.853L75.7834 162.691L72.4995 164.287L69.1947 165.639L65.8826 166.747L62.5771 167.613L59.2921 168.237L56.0418 168.625L52.8403 168.78L49.7016 168.707L46.6399 168.414L43.6689 167.908L40.8023 167.197L38.0534 166.291L35.4354 165.2L32.9609 163.936L30.6421 162.509L28.4908 160.933L26.5182 159.221L24.7348 157.386L23.1507 155.444L21.7752 153.408L20.6167 151.295L19.683 149.118L18.9812 146.895L18.5173 144.64L18.2967 142.37L18.3236 140.101L18.6017 137.848L19.1332 135.627L19.92 133.454L20.9625 131.343L22.2604 129.31L23.8124 127.369L25.6161 125.534L27.6684 123.818L29.9648 122.234L32.5004 120.794L35.2689 119.509L38.2634 118.389L41.4759 117.445L44.8976 116.684L48.5191 116.115L52.3298 115.745L56.3186 115.579L60.4737 115.621L64.7826 115.877L69.2321 116.347L73.8085 117.035L78.4975 117.939L83.2844 119.059L88.154 120.394L93.091 121.941L98.0795 123.695L103.103 125.651L108.147 127.803L113.193 130.143L118.226 132.664L123.229 135.356L128.187 138.209L133.082 141.211L137.899 144.351L142.623 147.616L147.238 150.992L151.729 154.465L156.081 158.02L160.281 161.641L164.315 165.313L168.171 169.019L171.835 172.742L175.297 176.465L178.546 180.171L181.571 183.842L184.365 187.461L186.917 191.01L189.221 194.472L191.271 197.829L193.06 201.065L194.585 204.161L195.841 207.103L196.826 209.875L197.538 212.459L197.976 214.843L198.141 217.012L198.034 218.952L197.658 220.651L197.015 222.097L196.11 223.279L194.947 224.187L193.534 224.812L191.877 225.147L189.983 225.185L187.862 224.92L185.523 224.348L182.976 223.465L180.231 222.269L177.301 220.76L174.197 218.938L170.932 216.803L167.519 214.36L163.973 211.613L160.306 208.565L156.533 205.225L152.67 201.6L148.73 197.697L144.728 193.529L140.681 189.105L136.602 184.437L132.507 179.54L128.411 174.426L124.329 169.111L120.275 163.612L116.264 157.943L112.31 152.124L108.426 146.172L104.625 140.106L100.921 133.944L97.3252 127.708L93.8494 121.417L90.5046 115.091L87.3011 108.751L84.2484 102.417L81.3554 96.112L78.6301 89.855L76.0797 83.6673L73.7107 77.5695L71.5286 71.582L69.538 65.7247L67.7428 60.0173L66.1459 54.4789L64.7492 49.128L63.5539 43.9826L62.56 39.0598L61.767 34.3761L61.1732 29.9472L60.776 25.7876L60.5722 21.9113L60.5575 18.3309L60.727 15.0582L61.0748 12.1037L61.5944 9.47696L62.2785 7.18617L63.1191 5.23845L64.1077 3.63962L65.2349 2.39423L66.4911 1.50563L67.8659 0.975794L69.3485 0.805448L70.9278 0.994033L72.5923 1.53968L74.3301 2.43924L76.1291 3.68833L77.9771 5.28125L79.8616 7.21116L81.7702 9.46999L83.6904 12.0485L85.6097 14.9363L87.5157 18.122L89.3963 21.5931L91.2395 25.3362L93.0334 29.337L94.7668 33.5802L96.4287 38.0497L98.0083 42.7289L99.4956 47.6002L100.881 52.6456L102.156 57.8467L103.311 63.1843L104.339 68.6391L105.232 74.1914L105.986 79.8213L106.592 85.5088L107.048 91.2338L107.349 96.9762L107.492 102.716L107.473 108.434L107.293 114.11L106.949 119.724L106.443 125.259L105.775 130.696L104.947 136.017L103.962 141.206L102.823 146.245L101.535 151.119L100.103 155.813L98.5332 160.313L96.8321 164.607L95.0074 168.681L93.067 172.526L91.02 176.13L88.8758 179.486L86.6445 182.584L84.3367 185.419L81.9634 187.985L79.5362 190.278L77.0672 192.294L74.5685 194.032L72.0527 195.49L69.5327 196.669L67.0215 197.571L64.5321 198.199L62.0778 198.555L59.6717 198.646L57.327 198.478L55.0566 198.057L52.8733 197.392L50.7898 196.492L48.8184 195.367L46.971 194.027L45.2592 192.486L43.6941 190.755L42.2862 188.848L41.0457 186.778L39.9819 184.56L39.1037 182.209L38.4191 179.74L37.9355 177.17L37.6596 174.514L37.597 171.789L37.7528 169.01L38.1311 166.196L38.7351 163.361L39.5672 160.524L40.6287 157.699L41.9202 154.903L43.4412 152.152L45.1903 149.461L47.1652 146.845L49.3626 144.319L51.7783 141.895L54.4072 139.589L57.2433 137.411L60.2797 135.374L63.5086 133.489L66.9215 131.766L70.5089 130.214L74.2606 128.841L78.1658 127.654L82.2129 126.661L86.3896 125.865L90.683 125.271L95.0799 124.883L99.5662 124.701L104.128 124.728L108.749 124.962L113.416 125.403L118.113 126.048L122.824 126.893L127.533 127.934L132.225 129.165L136.884 130.579L141.494 132.169L146.038 133.926L150.502 135.841L154.87 137.902L159.127 140.1L163.257 142.421L167.248 144.852L171.083 147.381L174.751 149.994L178.238 152.675L181.531 155.409L184.62 158.181L187.492 160.976L190.139 163.776L192.55 166.566L194.717 169.33L196.632 172.049L198.289 174.71L199.681 177.294L200.803 179.785L201.652 182.169L202.224 184.428L202.517 186.549L202.53 188.515L202.264 190.314L201.719 191.931L200.897 193.354L199.801 194.57L198.435 195.569L196.804 196.339L194.913 196.871L192.77 197.156L190.382 197.187L187.758 196.956L184.906 196.46L181.838 195.692L178.564 194.65L175.095 193.332L171.445 191.736L167.625 189.862L163.649 187.713L159.531 185.291L155.286 182.599L150.928 179.642L146.473 176.427L141.935 172.96L137.331 169.25L132.677 165.307L127.987 161.141L123.279 156.764L118.567 152.188L113.868 147.426L109.198 142.494L104.571 137.405L100.003 132.178L95.5091 126.827L91.103 121.371L86.799 115.827L82.6104 110.214L78.5503 104.551L74.6309 98.8568L70.8639 93.1517L67.2602 87.4552L63.8301 81.7873L60.583 76.1681L57.5277 70.6175L54.672 65.1554L52.0228 59.8017L49.5862 54.5758L47.3676 49.4968L45.3711 44.5835L43.6001 39.8541L42.057 35.3264L40.7433 31.0173L39.6596 26.9432L38.8055 23.1197L38.1795 19.5616L37.7796 16.2826L37.6025 13.2956L37.6441 10.6126L37.8998 8.24443L38.3636 6.20074L39.0291 4.49013L39.889 3.12005L40.9352 2.09669L42.1591 1.42502L43.5512 1.10877L45.1016 1.15036L46.7998 1.55094L48.6346 2.31039L50.5945 3.42727L52.6677 4.89887L54.8419 6.72118L57.1045 8.88894L59.4426 11.3956L61.8434 14.2335L64.2936 17.3936L66.7801 20.866L69.2898 24.6393L71.8095 28.7012L74.3262 33.0385L76.8272 37.6369L79.2996 42.4811L81.7313 47.5551L84.1103 52.842L86.425 58.3241L88.6642 63.9831L90.8172 69.8003L92.874 75.7561L94.825 81.8307L96.6613 88.0039L98.3747 94.2552L99.9575 100.564L101.403 106.909L102.705 113.27L103.858 119.625L104.858 125.955L105.702 132.237L106.385 138.453L106.907 144.582L107.267 150.605L107.463 156.503L107.497 162.256L107.37 167.848L107.084 173.261L106.643 178.479L106.051 183.487L105.311 188.27L104.431 192.814L103.415 197.107L102.272 201.136L101.009 204.893L99.6339 208.366L98.156 211.549L96.5848 214.433L94.9305 217.013L93.2035 219.285L91.4149 221.244L89.576 222.889L87.6985 224.219L85.7944 225.234L83.8758 225.936L81.9552 226.327L80.0449 226.412L78.1575 226.194L76.3055 225.681L74.5012 224.881L72.757 223.8L71.0849 222.449L69.4969 220.839L68.0044 218.98L66.6187 216.884L65.3507 214.566L64.2106 212.039L63.2082 209.316L62.3529 206.414L61.6533 203.349L61.1175 200.135L60.7528 196.791L60.5659 193.333L60.5626 189.777L60.7479 186.143L61.1263 182.447L61.701 178.707L62.4748 174.941L63.4492 171.166L64.6251 167.399L66.0024 163.657L67.58 159.958L69.3562 156.317L71.3281 152.75L73.4919 149.273L75.8431 145.9L78.3763 142.645L81.085 139.522L83.9622 136.542L86.9998 133.718L90.1892 131.061L93.5208 128.58L96.9844 126.283L100.569 124.18L104.263 122.277L108.055 120.579L111.932 119.091L115.88 117.817L119.886 116.759L123.936 115.919L128.016 115.297L132.112 114.893L136.207 114.703L140.288 114.725L144.34 114.955L148.346 115.387L152.293 116.016L156.164 116.834L159.946 117.833L163.624 119.004L167.183 120.336L170.609 121.82L173.889 123.443L177.009 125.193L179.956 127.057L182.719 129.021L185.286 131.072L187.646 133.195L189.788 135.374L191.704 137.596L193.385 139.843L194.822 142.1L196.008 144.351L196.939 146.582L197.607 148.774L198.01 150.914L198.143 152.985L198.004 154.971L197.592 156.859L196.906 158.634L195.948 160.281L194.718 161.787L193.219 163.139L191.455 164.325L189.43 165.333L187.15 166.153L184.621 166.774L181.851 167.188L178.848 167.387L175.62 167.364L172.178 167.112L168.533 166.626L164.695 165.903L160.678 164.94L156.493 163.735L152.155 162.288L147.677 160.598L143.073 158.668L138.36 156.501L133.551 154.101L128.662 151.473L123.71 148.622L118.71 145.557L113.68 142.286L108.634 138.818L103.59 135.164L98.563 131.335L93.5704 127.343L88.6277 123.203L83.7509 118.927L78.9553 114.531L74.2562 110.03L69.6684 105.44L65.206 100.779L60.883 96.0634L56.7125 91.3108L52.7071 86.5395L48.8787 81.7678L45.2385 77.0145L41.7971 72.2983L38.564 67.6381L35.5481 63.0526L32.7575 58.5607L30.1992 54.1808L27.8794 49.9314L25.8034 45.8305L23.9755 41.8957L22.3991 38.1441L21.0766 34.5923L20.0094 31.2564L19.198 28.1516L18.6419 25.2925L18.3395 22.6928L18.2884 20.3654L18.4854 18.3222L18.926 16.5741L19.6051 15.1311L20.5167 14.0021L21.6538 13.1946L23.0088 12.7154L24.5732 12.5697L26.3377 12.7618L28.2925 13.2945L30.427 14.1695L32.7302 15.3873L35.1902 16.947L37.7949 18.8465L40.5317 21.0823L43.3875 23.6499L46.349 26.5432L49.4026 29.7552L52.5345 33.2775L55.7306 37.1007L58.9768 41.214L62.259 45.6057L65.5632 50.263L68.8752 55.1721L72.1813 60.3181L75.4678 65.6855L78.7213 71.2575L81.9286 77.017L85.0771 82.9458L88.1545 89.0252L91.1489 95.2361L94.049 101.558L96.8442 107.972L99.5243 114.457L102.08 120.991L104.502 127.555L106.783 134.126L108.915 140.684L110.892 147.207L112.708 153.675L114.359 160.066L115.839 166.36L117.147 172.538L118.28 178.578L119.235 184.463L120.014 190.174L120.616 195.692L121.043 201L121.295 206.083L121.378 210.925L121.293 215.51L121.046 219.826L120.642 223.86L120.087 227.599L119.388 231.035L118.552 234.158L117.588 236.959L116.504 239.432L115.31 241.57L114.016 243.371L112.631 244.83L111.167 245.945L109.635 246.717L108.047 247.146L106.413 247.233L104.746 246.982L103.059 246.398L101.363 245.486L99.67 244.253L97.9932 242.706L96.3444 240.856L94.7356 238.711L93.1786 236.284L91.6851 233.587L90.2663 230.632L88.9331 227.433L87.6962 224.006L86.5656 220.366L85.5507 216.529L84.6608 212.511L83.9041 208.33L83.2885 204.005L82.821 199.552L82.5081 194.99L82.3554 190.339L82.3679 185.616L82.5494 180.842L82.9035 176.033L83.4324 171.211L84.1377 166.393L85.0201 161.597L86.0794 156.842L87.3147 152.145L88.7239 147.524L90.3043 142.995L92.0522 138.575L93.9631 134.279L96.0316 130.122L98.2516 126.117L100.616 122.278L103.117 118.617L105.747 115.145L108.495 111.874L111.353 108.811L114.31 105.965L117.354 103.344L120.475 100.954L123.659 98.7988L126.895 96.8833L130.169 95.2099L133.469 93.7801L136.78 92.5944L140.089 91.6519L143.382 90.9508L146.645 90.4881L149.864 90.2597L153.024 90.2604L156.112 90.484L159.113 90.9232L162.015 91.5698L164.802 92.4147L167.464 93.4479L169.985 94.6586L172.355 96.035L174.561 97.5648L176.591 99.235L178.436 101.032L180.085 102.942L181.528 104.949L182.756 107.04L183.762 109.198L184.539 111.408L185.079 113.654L185.378 115.921L185.43 118.193L185.232 120.452L184.782 122.685L184.076 124.875L183.115 127.007L181.899 129.067L180.427 131.038L178.703 132.909L176.73 134.664L174.511 136.291L172.051 137.779L169.356 139.114L166.432 140.288L163.288 141.289L159.932 142.109L156.373 142.74L152.622 143.174L148.688 143.406L144.585 143.43L140.324 143.243L135.917 142.841L131.38 142.223L126.725 141.388L121.968 140.336L117.123 139.069L112.206 137.59L107.232 135.901L102.218 134.009L97.1786 131.919L92.1315 129.637L87.0925 127.173L82.078 124.534L77.1042 121.732L72.1874 118.776L67.3435 115.678L62.5883 112.452L57.9372 109.11L53.4053 105.666L49.0072 102.136L44.7571 98.534L40.6687 94.8765L36.755 91.1796L33.0285 87.4601L29.5008 83.7351L26.183 80.0217L23.0854 76.3375L20.2173 72.7L17.5873 69.1267L15.2032 65.6352L13.0718 62.2429L11.199 58.9669L9.58967 55.8241L8.2478 52.831L7.17638 50.0038L6.37742 47.3579L5.8519 44.9085L5.59986 42.6698L5.62029 40.6556L5.91122 38.8786L6.46972 37.351L7.29188 36.0839L8.37282 35.0874L9.70678 34.3709L11.2871 33.9425L13.1062 33.8093L15.1558 33.9773L17.4267 34.4513L19.909 35.235L22.592 36.3309L25.4644 37.7403L28.5143 39.4632L31.7293 41.4983L35.0962 43.8433L38.6017 46.4945L42.2317 49.447L45.9722 52.6947L49.8084 56.2303L53.7258 60.0453L57.7092 64.1302L61.7437 68.4742L65.8142 73.0654L69.9055 77.8912L74.0027 82.9376L78.0909 88.1899L82.1553 93.6326L86.1816 99.2491L90.1556 105.022L94.0635 110.934L97.892 116.966L101.628 123.099L105.26 129.314L108.775 135.59L112.163 141.907L115.412 148.245L118.514 154.582L121.459 160.899L124.238 167.174L126.845 173.386L129.273 179.514L131.515 185.539L133.567 191.44L135.425 197.197L137.085 202.792L138.546 208.204L139.805 213.417L140.863 218.412L141.72 223.174L142.377 227.686L142.837 231.933L143.102 235.901L143.176 239.577L143.065 242.949L142.773 246.005L142.307 248.738L141.675 251.136L140.883 253.194L139.941 254.904L138.856 256.263L137.64 257.265L136.302 257.91L134.853 258.194L133.303 258.12L131.664 257.688L129.949 256.901L128.168 255.762L126.334 254.278L124.46 252.455L122.557 250.3L120.64 247.822L118.719 245.032L116.807 241.939L114.917 238.558L113.061 234.9L111.25 230.98L109.496 226.812L107.81 222.413L106.203 217.798L104.685 212.986L103.266 207.994L101.956 202.841L100.762 197.545L99.6925 192.125L98.7552 186.602L97.9566 180.994L97.3026 175.323L96.7981 169.608L96.4475 163.869L96.2543 158.126L96.2212 152.399L96.35 146.708L96.6415 141.071L97.0961 135.509L97.7129 130.039L98.4902 124.679L99.4256 119.447L100.516 114.358L101.757 109.43L103.143 104.677L104.67 100.114L106.33 95.7529L108.116 91.6073L110.021 87.6884L112.035 84.0064L114.149 80.5707L116.354 77.3895L118.638 74.4698L120.992 71.8175L123.403 69.4374L125.86 67.333L128.351 65.5066L130.863 63.9594L133.383 62.6913L135.898 61.7013L138.396 60.9868L140.863 60.5443L143.286 60.3692L145.651 60.4558L147.947 60.7971L150.159 61.3854L152.276 62.2117L154.284 63.2664L156.173 64.5386L157.929 66.0169L159.542 67.689L161.001 69.5417L162.296 71.5614L163.417 73.7339L164.355 76.0441L165.102 78.4769L165.651 81.0165L165.993 83.647L166.124 86.352L166.039 89.1151L165.732 91.9199L165.2 94.7497L164.441 97.5882L163.452 100.419L162.234 103.226L160.786 105.993L159.109 108.704L157.206 111.346L155.079 113.902L152.732 116.36L150.171 118.705L147.4 120.925L144.427 123.008L141.258 124.942L137.903 126.718L134.37 128.326L130.669 129.757L126.812 131.004L122.809 132.059L118.672 132.919L114.414 133.577L110.049 134.031L105.59 134.279L101.051 134.318L96.4464 134.15L91.7923 133.775L87.1033 133.195L82.3951 132.413L77.6835 131.434L72.9841 130.263L68.313 128.906L63.6861 127.371L59.1191 125.666L54.6278 123.801L50.2276 121.785L45.9339 119.629L41.7615 117.346L37.7251 114.949L33.8388 112.449L30.1162 109.862L26.5705 107.201L23.2142 104.482L20.0591 101.72L17.1165 98.9308L14.3968 96.1305L11.9097 93.3354L9.664 90.5618L7.66782 87.8263L5.92824 85.1454L4.45149 82.5354L3.24286 80.0126L2.30667 77.593L1.64628 75.2924L1.26406 73.126L1.16139 71.1088L1.33862 69.255L1.79513 67.5785L2.52928 66.0924L3.53842 64.809L4.81896 63.7401L6.3663 62.8963L8.1749 62.2876L10.2383 61.9229L12.5491 61.8103L15.0991 61.9567L17.8792 62.368L20.8795 63.0489L24.0893 64.0032L27.4973 65.2334L31.0914 66.7409L34.8589 68.5259L38.7865 70.5874L42.8606 72.9232L47.0667 75.5299L51.3902 78.403L55.8162 81.5367L60.3292 84.9242L64.9137 88.5574L69.554 92.4272L74.2342 96.5234L78.9383 100.835L83.6506 105.349L88.3552 110.053L93.0364 114.933L97.6787 119.973L102.267 125.158L106.786 130.471L111.222 135.896L115.56 141.414L119.787 147.007L123.889 152.656L127.854 158.342L131.671 164.046L135.328 169.748L138.815 175.427L142.121 181.064L145.238 186.638L148.158 192.131L150.874 197.521L153.379 202.79L155.667 207.918L157.735 212.886L159.578 217.676L161.194 222.269L162.581 226.65L163.738 230.801L164.665 234.706L165.364 238.35L165.835 241.719L166.083 244.801L166.11 247.582L165.922 250.051L165.524 252.199L164.922 254.017L164.123 255.496L163.136 256.63L161.967 257.415L160.628 257.844L159.127 257.917L157.474 257.631L155.682 256.986L153.761 255.982L151.722 254.623L149.579 252.912L147.343 250.854L145.027 248.454L142.645 245.721L140.209 242.662L137.733 239.288L135.229 235.61L132.711 231.638L130.192 227.387L127.685 222.87L125.202 218.103L122.756 213.1L120.359 207.879L118.022 202.457L115.758 196.853L113.576 191.084L111.488 185.17L109.502 179.131L107.628 172.987L105.875 166.758L104.25 160.466L102.76 154.13L101.412 147.772L100.21 141.413L99.1611 135.073L98.2675 128.773L97.5327 122.533L96.9591 116.374L96.5479 110.316L96.2998 104.376L96.2143 98.575L96.2903 92.9297L96.5257 87.4578L96.9176 82.1757L97.4624 77.0992L98.1555 72.2433L98.9917 67.6219L99.9647 63.2478L101.068 59.1331L102.294 55.2887L103.634 51.7242L105.081 48.4482L106.623 45.4683L108.252 42.7907L109.957 40.4204L111.727 38.3612L113.551 36.6157L115.418 35.1852L117.315 34.0699L119.23 33.2686L121.151 32.7789L123.066 32.5974L124.962 32.7193L126.827 33.1388L128.648 33.8487L130.413 34.8412L132.109 36.107L133.725 37.636L135.249 39.4171L136.67 41.4385L137.977 43.6872L139.159 46.1496L140.206 48.8115L141.109 51.6579L141.859 54.6732L142.448 57.8414L142.868 61.1458L143.112 64.5697L143.174 68.0958L143.05 71.7068L142.733 75.3849L142.221 79.1127L141.511 82.8726L140.601 86.6469L139.489 90.4183L138.176 94.1697L136.662 97.8843L134.949 101.546L133.039 105.138L130.936 108.645L128.644 112.053L126.168 115.347L123.514 118.514L120.69 121.54L117.703 124.415L114.56 127.126L111.273 129.665L107.85 132.021L104.303 134.187L100.642 136.154L96.8804 137.918L93.0295 139.473L89.1026 140.816L85.1134 141.942L81.0755 142.852L77.0033 143.543L72.9113 144.017L68.8142 144.275L64.727 144.32L60.6646 144.156L56.6422 143.787L52.6749 143.22L48.7777 142.462L44.9656 141.519L41.2531 140.402L37.6549 139.12L34.185 137.684L30.8573 136.104L27.685 134.393L24.6812 132.564L21.8581 130.63L19.2275 128.605L16.8006 126.503L14.5877 124.34L12.5987 122.131L10.8424 119.89L9.32697 117.634L8.05981 115.379L7.0473 113.141L6.29498 110.934L5.80742 108.776L5.58831 106.682L5.64033 104.667L5.96518 102.745L6.5636 100.933L7.4353 99.2441L8.57901 97.6918L9.99248 96.2894L11.6724 95.0493L13.6147 93.9834L15.814 93.1025L18.2643 92.4169L20.9585 91.9358L23.8887 91.6675L27.0459 91.6195L30.4207 91.7982L34.0025 92.2088L37.7801 92.8557L41.7415 93.742L45.8743 94.8698L50.1652 96.2401L54.6003 97.8527L59.1654 99.7061L63.8458 101.798L68.6261 104.124L73.491 106.681L78.4246 109.461L83.4108 112.459L88.4334 115.666L93.4762 119.072L98.5227 122.668L103.557 126.443L108.562 130.384L113.522 134.478L118.422 138.712L123.245 143.072L127.976 147.541L132.601 152.104L137.105 156.744L141.474 161.445L145.694 166.188L149.754 170.955L153.64 175.728L157.341 180.49L160.847 185.22L164.147 189.9L167.233 194.511L170.096 199.035L172.729 203.452L175.126 207.745L177.28 211.896L179.187 215.885L180.844 219.697L182.248 223.314L183.396 226.721L184.289 229.901L184.926 232.839L185.309 235.523L185.44 237.939L185.322 240.074L184.958 241.917L184.355 243.458L183.516 244.688L182.45 245.599L181.164 246.183L179.665 246.436L177.963 246.351L176.068 245.927L173.99 245.162L171.739 244.053L169.328 242.602L166.768 240.81L164.071 238.681L161.252 236.219L158.323 233.428L155.297 230.317L152.189 226.893L149.011 223.164L145.78 219.142L142.507 214.838L139.209 210.264L135.898 205.433L132.588 200.361L129.294 195.062L126.029 189.554L122.805 183.852L119.637 177.975L116.535 171.942L113.513 165.77L110.582 159.481L107.752 153.094L105.034 146.63L102.438 140.109L99.9724 133.553L97.6457 126.982L95.4654 120.417L93.4383 113.881L91.5704 107.393L89.8667 100.976L88.3316 94.6481L86.9685 88.4313L85.7799 82.3449L84.7676 76.4083L83.9324 70.6404L83.2742 65.0591L82.7922 59.6819L82.4843 54.5255L82.3482 49.6056L82.3802 44.9371L82.5761 40.534L82.9307 36.4091L83.4383 32.5744L84.0922 29.0406L84.8852 25.8174L85.8093 22.9131L86.8559 20.3352L88.0158 18.0895L89.2794 16.1809L90.6364 14.6129L92.0762 13.3877L93.5877 12.5065L95.1596 11.9687L96.7803 11.773L98.4378 11.9164L100.12 12.395L101.815 13.2035L103.51 14.3354L105.193 15.783L106.852 17.5377L108.475 19.5896L110.05 21.9278L111.565 24.5405L113.008 27.4149L114.37 30.5373L115.639 33.8932L116.804 37.4673L117.857 41.2437L118.788 45.2058L119.588 49.3364L120.249 53.6179L120.764 58.0323L121.127 62.5612L121.331 67.1861L121.372 71.888L121.245 76.6482L120.946 81.4476L120.473 86.2676L119.824 91.0893L118.998 95.8942L117.995 100.664L116.816 105.381L115.462 110.028L113.935 114.588L112.24 119.045L110.381 123.382L108.362 127.585L106.189 131.64L103.87 135.533L101.412 139.252L98.822 142.785L96.1103 146.122L93.2861 149.252L90.3598 152.168L87.3421 154.861L84.2446 157.325L81.0793 159.556L77.8584 161.548L74.5948 163.299L71.3018 164.806L67.9927 166.07L64.6814 167.089L61.3817 167.867L58.1077 168.405L54.8735 168.708L51.6932 168.779L48.5808 168.626L45.5504 168.255L42.6157 167.673L39.7903 166.89L37.0874 165.916L34.5201 164.761L32.1007 163.436L29.8414 161.954L27.7536 160.327L25.8485 158.568L24.1364 156.693L22.6269 154.715L21.3292 152.649L20.2514 150.511L19.4012 148.316L18.785 146.079L18.4089 143.817L18.2776 141.546L18.3954 139.28L18.7652 137.037L19.3892 134.832L20.2688 132.68L21.4041 130.596L22.7944 128.594L24.4381 126.69L26.3325 124.897L28.4739 123.227L30.8578 121.694L33.4786 120.309L36.33 119.083L39.4046 118.026L42.6941 117.147L46.1894 116.455L49.8808 115.958L53.7575 115.661L57.8081 115.57L62.0205 115.689L66.382 116.023L70.8791 116.572L75.498 117.338L80.2243 118.321L85.043 119.519L89.9389 120.931L94.8964 122.554L99.8996 124.381L104.933 126.409L109.979 128.631L115.022 131.038L120.046 133.622L125.035 136.373L129.971 139.282L134.84 142.336L139.625 145.522L144.311 148.829L148.883 152.242L153.325 155.746L157.624 159.327L161.765 162.969L165.736 166.655L169.523 170.369L173.116 174.094L176.501 177.813L179.67 181.508L182.612 185.163L185.319 188.758L187.782 192.278L189.995 195.703L191.951 199.018L193.644 202.205L195.072 205.248L196.23 208.13L197.116 210.835L197.728 213.349L198.067 215.656L198.134 217.743L197.929 219.597L197.455 221.205L196.716 222.557L195.717 223.64L194.463 224.447L192.96 224.968L191.216 225.196L189.239 225.124L187.038 224.748L184.622 224.064L182.002 223.067L179.188 221.758L176.194 220.135L173.03 218.199L169.71 215.952L166.247 213.398L162.655 210.541L158.948 207.387L155.141 203.942L151.248 200.215L147.284 196.215L143.264 191.952L139.203 187.438L135.117 182.686L131.02 177.708L126.927 172.52L122.854 167.136L118.814 161.573L114.822 155.848L110.891 149.978L107.036 143.982L103.269 137.879L99.6027 131.689L96.0492 125.43L92.6198 119.124L89.3251 112.79L86.1753 106.45L83.1796 100.125L80.3465 93.8343L77.6839 87.6001L75.1987 81.4427L72.8968 75.3826L70.7838 69.4401L68.8637 63.635L67.1402 57.9867L65.6158 52.5142L64.2921 47.2359L63.1699 42.1693L62.2491 37.3314L61.5286 32.7384L61.0064 28.4056L60.6799 24.3473L60.5452 20.577L60.598 17.107L60.8329 13.9486L61.2439 11.112L61.8241 8.60631L62.5659 6.43929L63.4613 4.61757L64.5013 3.14655L65.6765 2.03034L66.9769 1.27178L68.3921 0.8724L69.9111 0.832469L71.5227 1.15093L73.2152 1.82546L74.9766 2.85245L76.7948 4.22705L78.6575 5.94315L80.5522 7.99341L82.4664 10.3694L84.3877 13.0614L86.3036 16.0587L88.2018 19.3495L90.0702 22.9209L91.8969 26.7593L93.6702 30.8498L95.3788 35.177L97.012 39.7246L98.5593 44.4756L100.011 49.4122L101.357 54.5163L102.589 59.7691L103.699 65.1515L104.679 70.644L105.522 76.2268L106.223 81.8799L106.776 87.5834L107.176 93.317L107.419 99.0608L107.504 104.795L107.427 110.5L107.187 116.155L106.784 121.743L106.219 127.245L105.493 132.642L104.607 137.917L103.566 143.053L102.372 148.033L101.032 152.844L99.5489 157.469L97.9306 161.896L96.1837 166.111L94.316 170.104L92.3359 173.862L90.2525 177.377L88.0755 180.64L85.8152 183.644L83.4823 186.382L81.0881 188.849L78.6443 191.042L76.163 192.957L73.6567 194.593L71.1379 195.95L68.6196 197.029L66.1148 197.83L63.6366 198.359L61.1983 198.619L58.813 198.615L56.4937 198.354L54.2534 197.843L52.105 197.092L50.0607 196.109L48.133 194.905L46.3335 193.491L44.6736 191.879L43.1644 190.082L41.8161 188.114L40.6387 185.989L39.6413 183.721L38.8325 181.325L38.22 178.818L37.811 176.215L37.6119 173.532L37.6281 170.785L37.8642 167.992L38.3241 165.169L39.0107 162.331L39.9259 159.496L41.0709 156.68L42.4458 153.899L44.0498 151.168L45.8811 148.502L47.9372 145.917L50.2144 143.426L52.7081 141.044L55.413 138.783L58.3226 136.655L61.4298 134.672L64.7265 132.845L68.2038 131.182L71.8521 129.694L75.6608 128.388L79.6189 127.271L83.7145 126.349L87.935 125.626L92.2676 125.106L96.6985 124.793L101.214 124.687L105.799 124.789L110.439 125.098L115.118 125.614L119.822 126.331L124.534 127.248L129.239 128.359L133.921 129.657L138.564 131.136L143.151 132.788L147.669 134.603L152.099 136.573L156.429 138.685L160.641 140.928L164.723 143.291L168.658 145.76L172.434 148.321L176.038 150.96L179.456 153.662L182.676 156.412L185.688 159.194L188.48 161.992L191.042 164.791L193.365 167.573L195.442 170.323L197.264 173.023L198.825 175.657L200.119 178.209L201.143 180.664L201.891 183.004L202.362 185.215L202.554 187.281" stroke="url(#paint0_linear_87_1598)" stroke-width="0.961242"/>
<defs>
<linearGradient id="paint0_linear_87_1598" x1="101.859" y1="13.2291" x2="1.15918" y2="187.646" gradientUnits="userSpaceOnUse">
<stop stop-color="#9E00FF"/>
<stop offset="1" stop-color="#000AFF"/>
</linearGradient>
</defs>
</svg>
