<svg width="203" height="262" viewBox="0 0 203 262" fill="none" xmlns="http://www.w3.org/2000/svg">
<path d="M201.867 190.045L201.836 189.363L201.743 188.644L201.588 187.891L201.372 187.103L201.094 186.28L200.754 185.423L200.353 184.533L199.892 183.609L199.369 182.653L198.786 181.663L198.144 180.642L197.441 179.59L196.68 178.507L195.859 177.393L194.981 176.249L194.045 175.076L193.051 173.875L192.002 172.645L190.896 171.388L189.735 170.104L188.52 168.794L187.251 167.459L185.929 166.099L184.555 164.715L183.13 163.308L181.655 161.878L180.13 160.427L178.556 158.954L176.935 157.462L175.268 155.95L173.554 154.42L171.797 152.872L169.996 151.307L168.152 149.726L166.268 148.131L164.344 146.521L162.38 144.898L160.38 143.262L158.343 141.615L156.27 139.958L154.164 138.291L152.026 136.616L149.856 134.933L147.656 133.243L145.428 131.548L143.172 129.848L140.891 128.144L138.586 126.438L136.257 124.73L133.907 123.021L131.537 121.313L129.149 119.606L126.743 117.901L124.322 116.2L121.886 114.503L119.438 112.811L116.978 111.126L114.509 109.448L112.032 107.779L109.548 106.119L107.059 104.469L104.567 102.831L102.072 101.205L99.5773 99.5931L97.0834 97.9954L94.592 96.413L92.1048 94.8471L89.6231 93.2986L87.1487 91.7684L84.6829 90.2575L82.2272 88.7669L79.7833 87.2975L77.3526 85.8502L74.9366 84.426L72.5367 83.0257L70.1545 81.6503L67.7914 80.3007L65.4488 78.9776L63.1282 77.682L60.8311 76.4148L58.5587 75.1767L56.3126 73.9686L54.094 72.7913L51.9044 71.6455L49.7451 70.532L47.6174 69.4516L45.5225 68.4051L43.4619 67.393L41.4367 66.4162L39.4482 65.4753L37.4976 64.571L35.5862 63.7038L33.7149 62.8744L31.8851 62.0835L30.0978 61.3316L28.3541 60.6192L26.6551 59.9469L25.0017 59.3151L23.3951 58.7245L21.8362 58.1753L20.326 57.6682L18.8653 57.2034L17.455 56.7814L16.0961 56.4026L14.7893 56.0672L13.5354 55.7757L12.3352 55.5282L11.1894 55.3251L10.0987 55.1667L9.06372 55.053L8.08516 54.9844L7.16358 54.9609L6.29952 54.9827L5.4935 55.0499L4.74601 55.1626L4.05749 55.3209L3.42836 55.5247L2.85898 55.7741L2.3497 56.0691L1.90081 56.4095L1.51257 56.7953L1.18521 57.2264L0.918912 57.7027L0.71383 58.2239L0.570074 58.79L0.487716 59.4006L0.466795 60.0555L0.507305 60.7545L0.609209 61.4972L0.772429 62.2834L0.996848 63.1126L1.28231 63.9844L1.62864 64.8986L2.03558 65.8545L2.5029 66.8518L3.03027 67.89L3.61736 68.9685L4.26379 70.0869L4.96916 71.2445L5.73301 72.4407L6.55485 73.675L7.43417 74.9467L8.37042 76.2551L9.36299 77.5995L10.4113 78.9793L11.5146 80.3937L12.6723 81.8419L13.8836 83.3232L15.1478 84.8367L16.464 86.3816L17.8315 87.9571L19.2494 89.5623L20.7168 91.1963L22.2328 92.8582L23.7965 94.5472L25.4069 96.2622L27.0629 98.0022L28.7635 99.7664L30.5078 101.554L32.2945 103.363L34.1227 105.193L35.9911 107.044L37.8985 108.913L39.8439 110.801L41.8261 112.705L43.8436 114.624L45.8955 116.559L47.9802 118.507L50.0967 120.467L52.2434 122.438L54.4193 124.419L56.6227 126.41L58.8526 128.408L61.1073 130.412L63.3856 132.422L65.6861 134.436L68.0072 136.452L70.3477 138.471L72.706 140.49L75.0807 142.508L77.4703 144.525L79.8734 146.538L82.2884 148.547L84.7139 150.55L87.1485 152.547L89.5905 154.536L92.0385 156.515L94.491 158.484L96.9465 160.442L99.4034 162.386L101.86 164.317L104.316 166.233L106.768 168.132L109.216 170.013L111.658 171.876L114.092 173.719L116.517 175.541L118.931 177.34L121.334 179.116L123.723 180.868L126.097 182.594L128.455 184.294L130.795 185.966L133.116 187.609L135.416 189.222L137.693 190.804L139.948 192.355L142.177 193.872L144.381 195.356L146.557 196.804L148.704 198.217L150.82 199.593L152.906 200.932L154.958 202.231L156.977 203.492L158.96 204.712L160.907 205.891L162.816 207.028L164.687 208.122L166.518 209.173L168.307 210.18L170.055 211.142L171.76 212.059L173.42 212.929L175.035 213.752L176.605 214.528L178.127 215.256L179.601 215.936L181.026 216.566L182.402 217.147L183.727 217.678L185 218.159L186.222 218.588L187.391 218.967L188.506 219.294L189.567 219.569L190.573 219.792L191.524 219.963L192.419 220.081L193.258 220.146L194.039 220.159L194.764 220.118L195.43 220.025L196.038 219.878L196.588 219.678L197.078 219.425L197.51 219.119L197.882 218.759L198.195 218.347L198.448 217.882L198.641 217.364L198.774 216.794L198.847 216.172L198.86 215.497L198.813 214.771L198.706 213.994L198.54 213.166L198.313 212.287L198.027 211.358L197.682 210.38L197.278 209.352L196.815 208.275L196.293 207.151L195.713 205.979L195.076 204.76L194.381 203.495L193.629 202.184L192.821 200.828L191.956 199.428L191.037 197.985L190.063 196.499L189.035 194.971L187.953 193.402L186.819 191.794L185.632 190.146L184.395 188.459L183.107 186.735L181.769 184.975L180.382 183.18L178.948 181.35L177.466 179.487L175.938 177.591L174.366 175.665L172.749 173.708L171.089 171.722L169.387 169.708L167.643 167.668L165.86 165.602L164.039 163.512L162.179 161.399L160.283 159.264L158.352 157.109L156.386 154.934L154.388 152.741L152.358 150.532L150.298 148.307L148.208 146.068L146.091 143.816L143.947 141.552L141.778 139.279L139.586 136.997L137.371 134.707L135.134 132.412L132.878 130.112L130.604 127.808L128.313 125.503L126.007 123.197L123.686 120.892L121.353 118.59L119.008 116.291L116.654 113.997L114.292 111.71L111.922 109.431L109.548 107.161L107.169 104.902L104.788 102.655L102.406 100.422L100.024 98.2033L97.6448 96.0009L95.2686 93.8161L92.8972 91.6503L90.5321 89.5048L88.1747 87.381L85.8265 85.2801L83.4889 83.2036L81.1634 81.1526L78.8513 79.1285L76.5541 77.1326L74.2731 75.1661L72.0098 73.2303L69.7656 71.3264L67.5417 69.4556L65.3396 67.6191L63.1605 65.818L61.0059 64.0537L58.8769 62.3271L56.775 60.6393L54.7013 58.9916L52.6572 57.3849L50.6438 55.8203L48.6623 54.2989L46.714 52.8216L44.8001 51.3893L42.9216 50.0032L41.0798 48.6639L39.2756 47.3726L37.5102 46.13L35.7847 44.9369L34.1001 43.7943L32.4574 42.7028L30.8575 41.6632L29.3014 40.6763L27.7901 39.7427L26.3244 38.8631L24.9052 38.038L23.5333 37.2682L22.2096 36.5542L20.9347 35.8965L19.7096 35.2956L18.5348 34.7519L17.4111 34.2659L16.3392 33.838L15.3195 33.4686L14.3528 33.1579L13.4396 32.9062L12.5803 32.7139L11.7756 32.581L11.0258 32.5079L10.3313 32.4946L9.69264 32.5413L9.11003 32.648L8.58384 32.8148L8.11434 33.0416L7.70179 33.3285L7.34638 33.6753L7.04829 34.0819L6.80767 34.5482L6.62461 35.0741L6.4992 35.6592L6.43145 36.3033L6.42137 37.0062L6.46892 37.7674L6.57403 38.5867L6.73659 39.4637L6.95646 40.3978L7.23345 41.3886L7.56736 42.4356L7.95793 43.5383L8.40488 44.6961L8.9079 45.9083L9.46663 47.1744L10.0807 48.4936L10.7497 49.8652L11.4731 51.2884L12.2505 52.7625L13.0813 54.2867L13.965 55.8601L14.9011 57.4819L15.8888 59.1511L16.9276 60.8667L18.0168 62.6279L19.1556 64.4336L20.3434 66.2828L21.5794 68.1744L22.8627 70.1074L24.1925 72.0806L25.5681 74.0929L26.9884 76.1431L28.4527 78.2301L29.9599 80.3526L31.5092 82.5094L33.0994 84.6992L34.7297 86.9208L36.399 89.1728L38.1062 91.454L39.8503 93.7629L41.6302 96.0983L43.4446 98.4587L45.2926 100.843L47.1729 103.249L49.0844 105.676L51.0259 108.122L52.996 110.587L54.9937 113.067L57.0177 115.563L59.0667 118.072L61.1394 120.593L63.2346 123.124L65.3509 125.665L67.4871 128.212L69.6417 130.766L71.8135 133.323L74.0012 135.884L76.2033 138.445L78.4185 141.006L80.6454 143.565L82.8827 146.121L85.1291 148.671L87.383 151.215L89.6431 153.751L91.9081 156.276L94.1765 158.791L96.4469 161.292L98.718 163.78L100.988 166.251L103.257 168.704L105.521 171.139L107.781 173.553L110.035 175.945L112.281 178.314L114.518 180.658L116.744 182.975L118.959 185.264L121.161 187.524L123.348 189.753L125.52 191.95L127.674 194.114L129.81 196.242L131.927 198.335L134.023 200.389L136.096 202.405L138.146 204.381L140.171 206.315L142.171 208.207L144.143 210.054L146.088 211.857L148.002 213.613L149.887 215.322L151.739 216.982L153.559 218.593L155.345 220.154L157.095 221.662L158.81 223.118L160.488 224.521L162.128 225.869L163.729 227.161L165.291 228.397L166.811 229.576L168.29 230.697L169.726 231.76L171.118 232.763L172.467 233.706L173.77 234.588L175.028 235.409L176.24 236.168L177.404 236.865L178.52 237.498L179.588 238.068L180.607 238.574L181.576 239.016L182.495 239.393L183.364 239.705L184.181 239.952L184.947 240.133L185.66 240.249L186.321 240.299L186.93 240.283L187.485 240.201L187.987 240.053L188.435 239.838L188.83 239.558L189.17 239.212L189.457 238.8L189.689 238.322L189.866 237.779L189.989 237.171L190.058 236.498L190.073 235.76L190.032 234.958L189.938 234.092L189.79 233.163L189.587 232.171L189.33 231.117L189.02 230.001L188.657 228.824L188.24 227.586L187.771 226.288L187.249 224.932L186.675 223.517L186.049 222.044L185.372 220.514L184.644 218.929L183.866 217.289L183.039 215.595L182.162 213.847L181.236 212.048L180.263 210.197L179.242 208.296L178.174 206.347L177.061 204.35L175.902 202.306L174.699 200.217L173.452 198.083L172.163 195.907L170.831 193.689L169.458 191.431L168.045 189.134L166.592 186.799L165.101 184.427L163.573 182.021L162.007 179.582L160.407 177.11L158.772 174.608L157.103 172.077L155.402 169.519L153.67 166.934L151.907 164.325L150.116 161.693L148.296 159.04L146.45 156.367L144.577 153.676L142.681 150.969L140.761 148.247L138.818 145.512L136.855 142.765L134.872 140.008L132.871 137.243L130.852 134.472L128.818 131.696L126.769 128.917L124.706 126.136L122.631 123.356L120.545 120.577L118.45 117.802L116.346 115.033L114.236 112.271L112.119 109.518L109.998 106.775L107.874 104.044L105.748 101.327L103.622 98.6254L101.497 95.9412L99.3732 93.2758L97.2531 90.631L95.1376 88.0083L93.0281 85.4094L90.9258 82.8359L88.832 80.2893L86.748 77.7714L84.675 75.2836L82.6143 72.8275L80.5671 70.4047L78.5346 68.0167L76.5181 65.6649L74.5188 63.3508L72.5378 61.076L70.5765 58.8418L68.6358 56.6496L66.7171 54.5009L64.8214 52.3969L62.9498 50.3391L61.1036 48.3288L59.2837 46.3671L57.4913 44.4554L55.7273 42.5949L53.993 40.7868L52.2891 39.0322L50.6169 37.3323L48.9772 35.6882L47.371 34.101L45.7993 32.5716L44.2629 31.101L42.7627 29.6903L41.2997 28.3404L39.8747 27.0521L38.4884 25.8263L37.1417 24.6638L35.8353 23.5654L34.5701 22.5318L33.3466 21.5637L32.1657 20.6618L31.0279 19.8267L29.9339 19.0591L28.8843 18.3593L27.8797 17.7279L26.9207 17.1655L26.0077 16.6723L25.1413 16.2487L24.3219 15.8952L23.55 15.6119L22.826 15.3992L22.1502 15.2572L21.523 15.186L20.9448 15.1859L20.4157 15.2568L19.9361 15.3988L19.5062 15.6118L19.1262 15.8959L18.7962 16.2509L18.5164 16.6766L18.2868 17.1729L18.1077 17.7396L17.9789 18.3763L17.9005 19.0827L17.8725 19.8585L17.8948 20.7032L17.9674 21.6165L18.0901 22.5978L18.2628 23.6465L18.4853 24.7622L18.7574 25.9441L19.0789 27.1917L19.4495 28.5041L19.869 29.8808L20.3369 31.3208L20.8529 32.8234L21.4167 34.3877L22.0279 36.0129L22.6859 37.6979L23.3904 39.4417L24.1409 41.2435L24.9368 43.1021L25.7775 45.0164L26.6626 46.9854L27.5913 49.0079L28.5631 51.0826L29.5774 53.2083L30.6333 55.3839L31.7303 57.608L32.8677 59.8792L34.0445 62.1964L35.2602 64.5579L36.5139 66.9626L37.8047 69.4088L39.1318 71.8953L40.4945 74.4204L41.8917 76.9827L43.3226 79.5805L44.7863 82.2125L46.2818 84.877L47.8082 87.5723L49.3644 90.2969L50.9496 93.0491L52.5627 95.8272L54.2027 98.6296L55.8685 101.455L57.5591 104.3L59.2734 107.165L61.0104 110.048L62.769 112.946L64.5479 115.858L66.3463 118.782L68.1628 121.716L69.9964 124.659L71.846 127.609L73.7104 130.563L75.5884 133.521L77.4789 136.48L79.3807 139.439L81.2927 142.395L83.2136 145.347L85.1423 148.293L87.0775 151.232L89.0182 154.161L90.9631 157.078L92.911 159.983L94.8608 162.872L96.8112 165.745L98.7611 168.599L100.709 171.433L102.655 174.245L104.596 177.034L106.532 179.797L108.461 182.532L110.383 185.239L112.296 187.915L114.2 190.559L116.092 193.169L117.972 195.743L119.839 198.28L121.691 200.779L123.528 203.237L125.349 205.654L127.152 208.027L128.936 210.355L130.7 212.637L132.443 214.872L134.165 217.057L135.863 219.192L137.538 221.275L139.188 223.304L140.812 225.28L142.41 227.199L143.98 229.062L145.521 230.867L147.033 232.612L148.514 234.297L149.964 235.92L151.382 237.481L152.768 238.979L154.12 240.412L155.437 241.779L156.719 243.08L157.966 244.315L159.176 245.481L160.349 246.578L161.484 247.607L162.58 248.565L163.637 249.452L164.655 250.268L165.633 251.012L166.569 251.683L167.465 252.282L168.319 252.808L169.13 253.259L169.9 253.637L170.626 253.941L171.309 254.17L171.948 254.324L172.543 254.404L173.094 254.408L173.6 254.338L174.062 254.192L174.478 253.971L174.85 253.676L175.176 253.306L175.457 252.861L175.692 252.342L175.882 251.748L176.026 251.081L176.125 250.341L176.178 249.527L176.185 248.641L176.147 247.683L176.064 246.653L175.935 245.552L175.762 244.381L175.543 243.14L175.28 241.83L174.972 240.452L174.62 239.007L174.225 237.495L173.785 235.917L173.303 234.275L172.778 232.569L172.21 230.8L171.6 228.969L170.949 227.078L170.256 225.127L169.523 223.118L168.75 221.051L167.937 218.929L167.085 216.752L166.195 214.521L165.267 212.239L164.302 209.906L163.3 207.523L162.262 205.093L161.19 202.616L160.082 200.095L158.942 197.53L157.768 194.923L156.562 192.276L155.324 189.59L154.056 186.867L152.758 184.109L151.432 181.318L150.077 178.494L148.695 175.64L147.287 172.757L145.853 169.847L144.395 166.913L142.913 163.955L141.409 160.975L139.883 157.976L138.336 154.96L136.769 151.927L135.184 148.88L133.581 145.821L131.961 142.751L130.326 139.673L128.675 136.589L127.011 133.499L125.335 130.407L123.646 127.314L121.948 124.221L120.239 121.132L118.522 118.047L116.798 114.969L115.067 111.899L113.331 108.84L111.591 105.793L109.847 102.761L108.102 99.7442L106.355 96.7454L104.608 93.7665L102.862 90.8092L101.118 87.8753L99.3777 84.9666L97.6412 82.085L95.91 79.2322L94.185 76.4099L92.4672 73.6201L90.7577 70.8643L89.0576 68.1442L87.3677 65.4617L85.6892 62.8183L84.0229 60.2156L82.3699 57.6554L80.7312 55.1391L79.1077 52.6684L77.5003 50.2448L75.9101 47.8698L74.3378 45.5449L72.7845 43.2716L71.251 41.0512L69.7382 38.8852L68.247 36.7749L66.7783 34.7217L65.3328 32.7267L63.9114 30.7914L62.5149 28.9169L61.1441 27.1043L59.7998 25.3549L58.4827 23.6697L57.1935 22.0498L55.933 20.4962L54.7019 19.0099L53.5009 17.5919L52.3306 16.2431L51.1916 14.9642L50.0847 13.7563L49.0103 12.6199L47.969 11.5559L46.9615 10.5649L45.9883 9.64755L45.0497 8.8045L44.1465 8.03629L43.279 7.34341L42.4476 6.72632L41.6528 6.18544L40.8951 5.72114L40.1747 5.33373L39.492 5.02349L38.8474 4.79064L38.2411 4.63536L37.6735 4.55779L37.1447 4.558L36.6552 4.63602L36.2049 4.79185L35.7942 5.02542L35.4232 5.33663L35.092 5.72531L34.8007 6.19126L34.5495 6.73423L34.3383 7.35392L34.1673 8.04998L34.0365 8.82202L33.9457 9.66959L33.8951 10.5922L33.8845 11.5893L33.9139 12.6604L33.9831 13.8047L34.0921 15.0217L34.2406 16.3106L34.4285 17.6707L34.6556 19.1011L34.9217 20.6009L35.2265 22.1694L35.5698 23.8056L35.9512 25.5084L36.3705 27.2769L36.8273 29.11L37.3212 31.0067L37.8519 32.9656L38.419 34.9858L39.022 37.066L39.6605 39.2048L40.334 41.4011L41.0421 43.6535L41.7843 45.9607L42.56 48.3211L43.3686 50.7335L44.2097 53.1964L45.0827 55.7081L45.9869 58.2674L46.9217 60.8725L47.8865 63.5219L48.8807 66.2139L49.9036 68.947L50.9545 71.7195L52.0327 74.5297L53.1375 77.3759L54.2682 80.2563L55.424 83.1692L56.6043 86.1128L57.8081 89.0853L59.0349 92.085L60.2837 95.1098L61.5537 98.1581L62.8442 101.228L64.1544 104.317L65.4833 107.425L66.8303 110.548L68.1943 113.685L69.5746 116.834L70.9703 119.993L72.3805 123.161L73.8043 126.335L75.241 129.513L76.6894 132.693L78.1489 135.874L79.6184 139.053L81.0971 142.228L82.5841 145.398L84.0784 148.561L85.5792 151.714L87.0855 154.856L88.5965 157.985L90.1111 161.099L91.6285 164.195L93.1478 167.272L94.6681 170.329L96.1885 173.363L97.708 176.372L99.2257 179.355L100.741 182.309L102.252 185.233L103.759 188.125L105.261 190.984L106.757 193.807L108.245 196.592L109.726 199.339L111.197 202.045L112.659 204.708L114.111 207.328L115.551 209.902L116.978 212.429L118.393 214.906L119.794 217.334L121.181 219.71L122.552 222.032L123.906 224.3L125.244 226.512L126.564 228.666L127.866 230.761L129.148 232.796L130.411 234.77L131.653 236.681L132.873 238.528L134.072 240.31L135.248 242.026L136.401 243.675L137.53 245.255L138.635 246.767L139.714 248.208L140.768 249.578L141.795 250.877L142.796 252.102L143.769 253.255L144.715 254.333L145.632 255.336L146.521 256.263L147.38 257.115L148.21 257.89L149.01 258.587L149.779 259.207L150.518 259.75L151.225 260.213L151.901 260.599L152.545 260.905L153.157 261.132L153.736 261.28L154.283 261.349L154.797 261.338L155.277 261.248L155.725 261.078L156.139 260.83L156.519 260.502L156.866 260.095L157.178 259.609L157.457 259.045L157.702 258.403L157.912 257.683L158.089 256.886L158.231 256.012L158.339 255.061L158.413 254.035L158.453 252.934L158.459 251.758L158.431 250.509L158.369 249.187L158.274 247.792L158.145 246.326L157.983 244.79L157.788 243.184L157.559 241.51L157.299 239.768L157.005 237.96L156.68 236.086L156.322 234.148L155.933 232.147L155.513 230.084L155.061 227.961L154.579 225.778L154.067 223.538L153.525 221.241L152.954 218.889L152.353 216.483L151.724 214.024L151.067 211.516L150.382 208.957L149.67 206.352L148.932 203.7L148.167 201.004L147.377 198.265L146.561 195.485L145.721 192.665L144.857 189.808L143.97 186.915L143.06 183.988L142.127 181.028L141.174 178.038L140.199 175.019L139.203 171.974L138.189 168.903L137.155 165.81L136.103 162.695L135.033 159.561L133.946 156.409L132.843 153.242L131.724 150.062L130.59 146.87L129.442 143.669L128.281 140.46L127.107 137.245L125.921 134.027L124.723 130.807L123.515 127.587L122.298 124.37L121.071 121.157L119.836 117.95L118.593 114.751L117.343 111.562L116.088 108.386L114.827 105.224L113.561 102.078L112.292 98.9494L111.02 95.841L109.745 92.7544L108.469 89.6915L107.192 86.6542L105.915 83.6443L104.639 80.6638L103.364 77.7143L102.092 74.7978L100.822 71.9161L99.5564 69.0708L98.2949 66.2638L97.0385 63.4968L95.788 60.7715L94.544 58.0896L93.3073 55.4526L92.0786 52.8623L90.8586 50.3202L89.6479 47.8279L88.4472 45.387L87.2572 42.9988L86.0786 40.6649L84.9119 38.3868L83.7579 36.1658L82.6173 34.0033L81.4905 31.9006L80.3782 29.859L79.281 27.8797L78.1995 25.9641L77.1344 24.1132L76.0861 22.3282L75.0552 20.6102L74.0422 18.9603L73.0478 17.3794L72.0723 15.8686L71.1164 14.4287L70.1804 13.0606L69.265 11.7653L68.3705 10.5434L67.4973 9.39576L66.6461 8.32306L65.8171 7.32593L65.0107 6.40501L64.2274 5.56085L63.4676 4.79397L62.7315 4.10485L62.0196 3.49389L61.3322 2.96148L60.6696 2.50794L60.032 2.13355L59.4199 1.83852L58.8334 1.62304L58.2729 1.48725L57.7384 1.43121L57.2304 1.45496L56.7489 1.55848L56.2942 1.74171L55.8664 2.00452L55.4657 2.34675L55.0922 2.76819L54.7461 3.26857L54.4275 3.84758L54.1364 4.50487L53.8729 5.24001L53.6371 6.05256L53.429 6.942L53.2487 7.9078L53.0961 8.94934L52.9713 10.066L52.8742 11.2571L52.8047 12.5218L52.763 13.8594L52.7487 15.2691L52.7619 16.75L52.8025 18.3012L52.8704 19.9216L52.9653 21.6104L53.0872 23.3665L53.2359 25.1887L53.4112 27.0761L53.613 29.0273L53.8409 31.0412L54.0949 33.1165L54.3746 35.252L54.6797 37.4464L55.0102 39.6982L55.3655 42.0062L55.7456 44.3688L56.1499 46.7847L56.5783 49.2523L57.0304 51.7701L57.5059 54.3365L58.0044 56.9501L58.5255 59.609L59.0689 62.3119L59.6341 65.0568L60.2207 67.8423L60.8285 70.6665L61.4568 73.5277L62.1053 76.4241L62.7736 79.354L63.4611 82.3156L64.1675 85.307L64.8923 88.3264L65.6349 91.3719L66.3948 94.4417L67.1717 97.5338L67.965 100.646L68.7741 103.778L69.5985 106.925L70.4378 110.088L71.2914 113.263L72.1587 116.449L73.0392 119.644L73.9324 122.846L74.8377 126.052L75.7545 129.262L76.6823 132.472L77.6205 135.682L78.5685 138.888L79.5258 142.09L80.4918 145.285L81.4658 148.47L82.4474 151.645L83.4359 154.807L84.4308 157.955L85.4314 161.086L86.4372 164.198L87.4476 167.289L88.462 170.359L89.4797 173.404L90.5003 176.423L91.5232 179.414L92.5476 182.375L93.5731 185.304L94.5992 188.2L95.625 191.061L96.6503 193.885L97.6742 196.67L98.6963 199.415L99.7161 202.118L100.733 204.777L101.746 207.391L102.755 209.958L103.76 212.477L104.759 214.945L105.753 217.362L106.74 219.726L107.721 222.035L108.694 224.289L109.66 226.486L110.617 228.623L111.565 230.701L112.504 232.718L113.433 234.673L114.352 236.564L115.26 238.39L116.157 240.151L117.042 241.845L117.915 243.471L118.775 245.028L119.623 246.515L120.457 247.932L121.277 249.277L122.083 250.55L122.874 251.749L123.65 252.875L124.411 253.926L125.156 254.903L125.886 255.803L126.598 256.627L127.294 257.375L127.973 258.045L128.634 258.638L129.278 259.153L129.904 259.59L130.511 259.949L131.1 260.228L131.67 260.429L132.222 260.551L132.754 260.595L133.266 260.559L133.759 260.444L134.232 260.251L134.686 259.979L135.119 259.628L135.531 259.2L135.923 258.693L136.295 258.109L136.646 257.447L136.976 256.709L137.285 255.894L137.573 255.004L137.841 254.038L138.087 252.998L138.311 251.884L138.515 250.696L138.697 249.437L138.859 248.105L138.999 246.703L139.117 245.23L139.215 243.689L139.291 242.08L139.346 240.403L139.381 238.661L139.394 236.854L139.386 234.983L139.358 233.049L139.309 231.054L139.239 228.999L139.149 226.884L139.038 224.713L138.908 222.485L138.757 220.202L138.586 217.866L138.396 215.479L138.187 213.04L137.958 210.553L137.71 208.018L137.443 205.438L137.157 202.813L136.853 200.146L136.531 197.438L136.191 194.69L135.834 191.905L135.459 189.084L135.067 186.23L134.658 183.342L134.232 180.425L133.791 177.478L133.333 174.505L132.86 171.506L132.372 168.485L131.869 165.442L131.351 162.379L130.818 159.299L130.272 156.204L129.713 153.094L129.14 149.973L128.554 146.841L127.956 143.702L127.346 140.557L126.724 137.407L126.09 134.255L125.446 131.103L124.791 127.953L124.126 124.806L123.451 121.665L122.767 118.531L122.074 115.406L121.372 112.293L120.662 109.193L119.944 106.108L119.219 103.04L118.487 99.9904L117.749 96.9618L117.004 93.9559L116.254 90.9743L115.499 88.0189L114.739 85.0916L113.974 82.194L113.205 79.328L112.433 76.4953L111.658 73.6976L110.879 70.9367L110.099 68.2141L109.317 65.5316L108.533 62.8909L107.748 60.2934L106.962 57.7407L106.176 55.2345L105.391 52.7762L104.605 50.3673L103.821 48.0093L103.039 45.7035L102.257 43.4515L101.479 41.2544L100.702 39.1138L99.929 37.0308L99.159 35.0067L98.3926 33.0426L97.6304 31.1399L96.8726 29.2996L96.1197 27.5228L95.3719 25.8106L94.6297 24.164L93.8934 22.584L93.1633 21.0715L92.4398 19.6274L91.7233 18.2525L91.014 16.9477L90.3123 15.7138L89.6186 14.5514L88.9331 13.4612L88.2561 12.4439L87.5879 11.5L86.929 10.6302L86.2794 9.83477L85.6396 9.11431L85.0098 8.46919L84.3902 7.89976L83.7812 7.40634L83.183 6.98917L82.5958 6.64849L82.02 6.38445L81.4556 6.19718L80.9031 6.08675L80.3625 6.05319L79.8341 6.09646L79.3181 6.21653L78.8147 6.41325L78.3242 6.68647L77.8466 7.03598L77.3822 7.46153L76.9311 7.9628L76.4936 8.53945L76.0697 9.19109L75.6596 9.91726L75.2635 10.7175L74.8815 11.5913L74.5136 12.538L74.1601 13.557L73.8211 14.6476L73.4966 15.8093L73.1867 17.0411L72.8915 18.3423L72.6111 19.712L72.3457 21.1495L72.0951 22.6537L71.8595 24.2236L71.639 25.8584L71.4336 27.5569L71.2433 29.3181L71.0681 31.1409L70.9081 33.024L70.7632 34.9664L70.6336 36.9667L70.5191 39.0238L70.4198 41.1363L70.3356 43.3028L70.2665 45.5221L70.2125 47.7928L70.1736 50.1133L70.1497 52.4823L70.1407 54.8983L70.1466 57.3598L70.1674 59.8652L70.2029 62.4129L70.253 65.0015L70.3178 67.6292L70.397 70.2944L70.4906 72.9955L70.5986 75.7307L70.7207 78.4985L70.8568 81.297L71.0069 84.1246L71.1709 86.9795L71.3484 89.8599L71.5396 92.764L71.7441 95.69L71.9618 98.6362L72.1927 101.601L72.4364 104.582L72.6929 107.577L72.962 110.586L73.2436 113.605L73.5373 116.633L73.8431 119.669L74.1607 122.71L74.49 125.755L74.8308 128.801L75.1828 131.847L75.5458 134.89L75.9197 137.93L76.3043 140.964L76.6992 143.99L77.1044 147.007L77.5195 150.012L77.9443 153.004L78.3786 155.981L78.8222 158.941L79.2749 161.883L79.7363 164.804L80.2063 167.702L80.6846 170.577L81.171 173.426L81.6652 176.248L82.1669 179.04L82.676 181.802L83.1921 184.531L83.715 187.225L84.2444 189.884L84.7801 192.506L85.3218 195.088L85.8693 197.63L86.4222 200.13L86.9804 202.586L87.5435 204.998L88.1114 207.362L88.6836 209.679L89.26 211.947L89.8403 214.164L90.4241 216.329L91.0114 218.44L91.6017 220.497L92.1948 222.499L92.7904 224.443L93.3883 226.329L93.9882 228.156L94.5898 229.923L95.1929 231.629L95.7972 233.272L96.4024 234.852L97.0083 236.368L97.6145 237.819L98.2209 239.204L98.8271 240.522L99.433 241.773L100.038 242.956L100.642 244.069L101.246 245.114L101.847 246.088L102.447 246.992L103.045 247.824L103.641 248.585L104.234 249.274L104.825 249.891L105.413 250.435L105.997 250.906L106.579 251.305L107.156 251.629L107.73 251.881L108.299 252.058L108.864 252.162L109.425 252.193L109.981 252.15L110.531 252.033L111.077 251.843L111.617 251.58L112.151 251.244L112.679 250.836L113.201 250.354L113.717 249.801L114.227 249.176L114.729 248.48L115.225 247.714L115.713 246.877L116.195 245.97L116.668 244.995L117.134 243.951L117.593 242.84L118.043 241.661L118.485 240.417L118.918 239.107L119.343 237.733L119.76 236.295L120.167 234.795L120.565 233.233L120.954 231.61L121.334 229.928L121.705 228.187L122.065 226.389L122.416 224.535L122.758 222.626L123.089 220.662L123.41 218.647L123.72 216.58L124.021 214.462L124.311 212.297L124.59 210.084L124.859 207.825L125.116 205.521L125.363 203.175L125.599 200.787L125.824 198.359L126.038 195.893L126.24 193.389L126.431 190.85L126.611 188.278L126.779 185.673L126.936 183.037L127.081 180.373L127.215 177.681L127.337 174.964L127.447 172.223L127.546 169.459L127.632 166.675L127.707 163.872L127.77 161.052L127.822 158.217L127.861 155.368L127.888 152.508L127.904 149.637L127.907 146.758L127.899 143.872L127.878 140.982L127.846 138.089L127.802 135.195L127.746 132.301L127.678 129.409L127.599 126.522L127.507 123.64L127.404 120.766L127.289 117.902L127.162 115.048L127.024 112.208L126.874 109.382L126.712 106.572L126.539 103.78L126.355 101.008L126.159 98.2577L125.952 95.53L125.734 92.8271L125.504 90.1504L125.264 87.5016L125.013 84.8824L124.75 82.2942L124.477 79.7386L124.194 77.2172L123.9 74.7314L123.595 72.2828L123.28 69.8728L122.955 67.5029L122.62 65.1744L122.275 62.8887L121.92 60.6472L121.555 58.4513L121.181 56.3021L120.797 54.201L120.404 52.1493L120.002 50.148L119.591 48.1984L119.171 46.3017L118.743 44.4588L118.306 42.671L117.86 40.9392L117.407 39.2645L116.946 37.6477L116.476 36.0899L116 34.5919L115.515 33.1545L115.024 31.7787L114.525 30.4651L114.02 29.2145L113.508 28.0276L112.989 26.905L112.465 25.8475L111.934 24.8554L111.397 23.9295L110.855 23.0701L110.308 22.2777L109.755 21.5528L109.197 20.8957L108.635 20.3068L108.068 19.7863L107.497 19.3344L106.921 18.9514L106.342 18.6375L105.76 18.3926L105.174 18.217L104.585 18.1107L103.993 18.0736L103.399 18.1057L102.802 18.2068L102.203 18.3769L101.602 18.6158L101 18.9233L100.396 19.299L99.7918 19.7426L99.1863 20.254L98.5802 20.8325L97.9739 21.4779L97.3675 22.1896L96.7614 22.9671L96.1558 23.8099L95.5509 24.7174L94.9471 25.689L94.3446 26.7239L93.7436 27.8216L93.1445 28.9811L92.5475 30.2019L91.9529 31.483L91.3609 32.8236L90.7718 34.2229L90.1859 35.6798L89.6034 37.1934L89.0247 38.7628L88.45 40.387L87.8795 42.0647L87.3136 43.7951L86.7524 45.5769L86.1963 47.409L85.6456 49.2903L85.1004 51.2195L84.5611 53.1953L84.028 55.2166L83.5012 57.2821L82.981 59.3903L82.4678 61.5401L81.9616 63.73L81.463 65.9586L80.9719 68.2246L80.4888 70.5264L80.0139 72.8628L79.5473 75.2321L79.0894 77.6329L78.6404 80.0637L78.2006 82.523L77.7701 85.0092L77.3492 87.5209L76.9381 90.0564L76.5371 92.6141L76.1464 95.1925L75.7661 97.7899L75.3966 100.405L75.038 103.036L74.6906 105.681L74.3545 108.338L74.0299 111.007L73.7171 113.684L73.4162 116.37L73.1274 119.061L72.8509 121.757L72.5869 124.456L72.3356 127.156L72.0971 129.855L71.8715 132.551L71.6592 135.244L71.4601 137.932L71.2745 140.612L71.1024 143.284L70.9441 145.945L70.7997 148.594L70.6692 151.23L70.5529 153.85L70.4508 156.454L70.363 159.039L70.2896 161.604L70.2308 164.148L70.1866 166.67L70.1571 169.166L70.1424 171.637L70.1426 174.08L70.1576 176.495L70.1877 178.879L70.2327 181.231L70.2928 183.55L70.368 185.835L70.4584 188.084L70.5639 190.296L70.6846 192.47L70.8204 194.603L70.9714 196.696L71.1376 198.747L71.319 200.754L71.5154 202.717L71.727 204.634L71.9537 206.504L72.1954 208.326L72.452 210.1L72.7236 211.823L73.01 213.496L73.3111 215.117L73.627 216.685L73.9574 218.199L74.3024 219.659L74.6618 221.064L75.0354 222.412L75.4232 223.704L75.825 224.938L76.2407 226.114L76.6702 227.231L77.1133 228.288L77.5698 229.286L78.0396 230.223L78.5224 231.099L79.0182 231.914L79.5268 232.666L80.0478 233.357L80.5812 233.985L81.1267 234.55L81.6841 235.052L82.2532 235.49L82.8337 235.865L83.4254 236.177L84.028 236.424L84.6413 236.608L85.2651 236.728L85.899 236.784L86.5428 236.776L87.1963 236.705L87.859 236.57L88.5308 236.372L89.2113 236.111L89.9002 235.787L90.5972 235.4L91.302 234.951L92.0143 234.44L92.7337 233.867L93.4599 233.234L94.1926 232.54L94.9313 231.786L95.6758 230.972L96.4258 230.099L97.1807 229.168L97.9404 228.179L98.7043 227.134L99.4722 226.032L100.244 224.874L101.018 223.662L101.796 222.396L102.575 221.077L103.357 219.705L104.141 218.283L104.925 216.81L105.711 215.287L106.496 213.717L107.282 212.099L108.068 210.435L108.852 208.725L109.635 206.972L110.417 205.175L111.197 203.337L111.974 201.458L112.748 199.54L113.519 197.584L114.286 195.59L115.049 193.562L115.807 191.498L116.561 189.402L117.308 187.274L118.051 185.115L118.786 182.928L119.516 180.713L120.238 178.471L120.952 176.205L121.659 173.915L122.357 171.603L123.047 169.271L123.727 166.92L124.398 164.55L125.059 162.165L125.71 159.765L126.35 157.352L126.978 154.927L127.596 152.491L128.201 150.047L128.794 147.596L129.375 145.139L129.942 142.677L130.497 140.213L131.037 137.748L131.563 135.282L132.075 132.819L132.573 130.358L133.055 127.903L133.522 125.453L133.973 123.012L134.408 120.579L134.826 118.157L135.228 115.747L135.614 113.351L135.981 110.969L136.332 108.604L136.665 106.256L136.979 103.928L137.276 101.62L137.554 99.3342L137.813 97.0715L138.053 94.8334L138.274 92.6212L138.476 90.4361L138.658 88.2796L138.821 86.1528L138.963 84.0569L139.086 81.9932L139.188 79.9629L139.27 77.9672L139.331 76.0071L139.372 74.084L139.392 72.1987L139.391 70.3525L139.369 68.5463L139.326 66.7812L139.263 65.0582L139.178 63.3783L139.071 61.7424L138.944 60.1514L138.796 58.6062L138.626 57.1077L138.435 55.6567L138.222 54.254L137.989 52.9003L137.734 51.5964L137.459 50.343L137.162 49.1408L136.844 47.9904L136.506 46.8924L136.146 45.8473L135.766 44.8558L135.366 43.9183L134.945 43.0352L134.503 42.2071L134.042 41.4344L133.561 40.7173L133.06 40.0563L132.539 39.4516L131.999 38.9036L131.44 38.4123L130.862 37.9781L130.266 37.6011L129.651 37.2813L129.018 37.019L128.367 36.8141L127.698 36.6667L127.013 36.5768L126.31 36.5442L125.591 36.569L124.855 36.651L124.103 36.79L123.336 36.9859L122.554 37.2384L121.756 37.5473L120.945 37.9123L120.119 38.333L119.279 38.8092L118.427 39.3403L117.561 39.926L116.683 40.5659L115.793 41.2594L114.891 42.006L113.979 42.8052L113.056 43.6563L112.123 44.5589L111.18 45.5122L110.228 46.5155L109.267 47.5682L108.298 48.6695L107.322 49.8187L106.339 51.015L105.349 52.2575L104.353 53.5455L103.351 54.878L102.345 56.2543L101.334 57.6732L100.319 59.134L99.301 60.6357L98.2802 62.1772L97.2573 63.7576L96.2328 65.3758L95.2072 67.0308L94.1812 68.7215L93.1553 70.4468L92.1302 72.2057L91.1063 73.9969L90.0843 75.8193L89.0648 77.6719L88.0483 79.5533L87.0355 81.4625L86.0269 83.3981L85.0232 85.359L84.0248 87.344L83.0325 89.3517L82.0467 91.381L81.0681 93.4306L80.0973 95.4992L79.1348 97.5855L78.1812 99.6882L77.2371 101.806L76.3031 103.938L75.3797 106.082L74.4675 108.237L73.5671 110.402L72.679 112.576L71.8038 114.757L70.942 116.944L70.0942 119.135L69.2609 121.329L68.4426 123.526L67.6399 125.723L66.8533 127.919L66.0832 130.113L65.3302 132.304L64.5949 134.49L63.8775 136.67L63.1788 138.842L62.499 141.006L61.8387 143.16L61.1984 145.303L60.5784 147.434L59.9792 149.55L59.4012 151.652L58.8449 153.738L58.3105 155.806L57.7986 157.855L57.3094 159.885L56.8434 161.894L56.4009 163.88L55.9823 165.844L55.5878 167.782L55.2178 169.696L54.8725 171.582L54.5524 173.441L54.2575 175.271L53.9883 177.072L53.7449 178.841L53.5276 180.579L53.3366 182.283L53.1721 183.954L53.0343 185.591L52.9234 187.191L52.8395 188.756L52.7827 190.282L52.7532 191.771L52.7512 193.221L52.7766 194.631L52.8297 196L52.9104 197.328L53.0188 198.614L53.1549 199.857L53.3188 201.057L53.5104 202.213L53.7298 203.325L53.9769 204.391L54.2516 205.412L54.5539 206.386L54.8838 207.314L55.2411 208.195L55.6256 209.028L56.0374 209.814L56.4762 210.551L56.9418 211.239L57.4341 211.879L57.9529 212.469L58.4981 213.01L59.0692 213.501L59.6662 213.943L60.2887 214.334L60.9365 214.675L61.6092 214.966L62.3067 215.207L63.0284 215.398L63.7742 215.538L64.5437 215.628L65.3364 215.668L66.152 215.658L66.9902 215.598L67.8504 215.488L68.7323 215.328L69.6354 215.119L70.5592 214.861L71.5034 214.554L72.4673 214.198L73.4506 213.794L74.4526 213.341L75.473 212.842L76.511 212.295L77.5663 211.702L78.6381 211.062L79.7261 210.376L80.8295 209.646L81.9477 208.87L83.0803 208.051L84.2264 207.188L85.3857 206.282L86.5573 205.334L87.7406 204.344L88.935 203.313L90.1399 202.243L91.3545 201.132L92.5781 199.983L93.8102 198.797L95.0499 197.573L96.2966 196.312L97.5496 195.017L98.8081 193.686L100.072 192.322L101.339 190.926L102.61 189.497L103.883 188.037L105.159 186.548L106.435 185.029L107.712 183.482L108.989 181.909L110.265 180.309L111.538 178.684L112.81 177.035L114.077 175.363L115.341 173.669L116.6 171.955L117.853 170.22L119.1 168.467L120.34 166.696L121.572 164.909L122.795 163.107L124.009 161.29L125.212 159.46L126.405 157.618L127.587 155.765L128.756 153.902L129.912 152.03L131.054 150.151L132.181 148.266L133.294 146.376L134.391 144.481L135.471 142.584L136.533 140.684L137.578 138.784L138.604 136.885L139.611 134.987L140.598 133.092L141.565 131.2L142.51 129.314L143.433 127.433L144.334 125.56L145.212 123.695L146.066 121.84L146.896 119.995L147.702 118.161L148.482 116.34L149.236 114.532L149.964 112.739L150.665 110.962L151.338 109.202L151.984 107.459L152.601 105.735L153.19 104.03L153.749 102.346L154.279 100.684L154.779 99.0443L155.249 97.4278L155.688 95.8357L156.095 94.2687L156.471 92.7278L156.816 91.2137L157.129 89.7274L157.409 88.2695L157.656 86.841L157.871 85.4425L158.053 84.0748L158.202 82.7387L158.317 81.4348L158.399 80.1639L158.446 78.9265L158.461 77.7234L158.441 76.5551L158.387 75.4223L158.299 74.3255L158.177 73.2653L158.021 72.2422L157.831 71.2566L157.606 70.3092L157.348 69.4002L157.055 68.5303L156.729 67.6997L156.368 66.9088L155.974 66.1581L155.547 65.4478L155.086 64.7782L154.591 64.1497L154.064 63.5624L153.504 63.0167L152.911 62.5126L152.286 62.0505L151.629 61.6304L150.941 61.2524L150.221 60.9168L149.47 60.6235L148.688 60.3726L147.876 60.1641L147.034 59.9981L146.163 59.8745L145.262 59.7932L144.333 59.7542L143.376 59.7574L142.391 59.8026L141.38 59.8898L140.342 60.0187L139.277 60.1892L138.188 60.4009L137.073 60.6537L135.934 60.9474L134.772 61.2815L133.587 61.6558L132.379 62.07L131.149 62.5237L129.899 63.0165L128.628 63.5479L127.338 64.1177L126.029 64.7252L124.701 65.3702L123.357 66.052L121.995 66.7701L120.618 67.5241L119.225 68.3133L117.819 69.1372L116.398 69.9953L114.965 70.8868L113.521 71.8112L112.065 72.7679L110.599 73.7562L109.124 74.7753L107.64 75.8247L106.148 76.9035L104.65 78.0112L103.146 79.1468L101.637 80.3098L100.124 81.4993L98.6077 82.7145L97.0892 83.9547L95.5692 85.219L94.0488 86.5067L92.5288 87.8168L91.0101 89.1487L89.4937 90.5013L87.9805 91.874L86.4713 93.2657L84.9672 94.6757L83.4689 96.103L81.9775 97.5467L80.4937 99.006L79.0187 100.48L77.5531 101.968L76.098 103.468L74.6543 104.981L73.2227 106.504L71.8043 108.038L70.4 109.58L69.0104 111.131L67.6367 112.69L66.2795 114.254L64.9398 115.824L63.6184 117.399L62.3161 118.977L61.0338 120.557L59.7724 122.14L58.5325 123.723L57.3149 125.306L56.1206 126.887L54.9502 128.467L53.8045 130.044L52.6843 131.617L51.5902 133.186L50.523 134.749L49.4835 136.305L48.4722 137.854L47.4899 139.394L46.5372 140.926L45.6148 142.447L44.7233 143.958L43.8632 145.457L43.0353 146.943L42.24 148.416L41.4779 149.875L40.7495 151.319L40.0555 152.748L39.3961 154.159L38.772 155.554L38.1836 156.93L37.6313 158.288L37.1155 159.626L36.6367 160.944L36.1951 162.241L35.7913 163.517L35.4253 164.77L35.0977 166L34.8086 167.207L34.5584 168.39L34.3472 169.548L34.1753 170.68L34.0429 171.787L33.9501 172.868L33.8971 173.921L33.884 174.947L33.9109 175.945L33.9778 176.914L34.0849 177.855L34.2321 178.766L34.4195 179.647L34.647 180.498L34.9145 181.319L35.2221 182.108L35.5695 182.867L35.9567 183.593L36.3835 184.288L36.8498 184.951L37.3554 185.581L37.9 186.178L38.4834 186.743L39.1053 187.274L39.7655 187.772L40.4636 188.236L41.1992 188.667L41.9721 189.064L42.7819 189.427L43.628 189.756L44.5101 190.051L45.4278 190.312L46.3805 190.538L47.3678 190.731L48.3891 190.89L49.444 191.014L50.5317 191.104L51.6518 191.161L52.8036 191.183L53.9865 191.172L55.1998 191.127L56.443 191.049L57.7152 190.937L59.0158 190.792L60.3441 190.615L61.6993 190.404L63.0807 190.161L64.4874 189.886L65.9187 189.579L67.3738 189.241L68.8518 188.871L70.3519 188.47L71.8732 188.038L73.4149 187.576L74.976 187.084L76.5557 186.563L78.1531 186.012L79.7671 185.433L81.397 184.826L83.0416 184.19L84.7001 183.528L86.3715 182.838L88.0548 182.122L89.7489 181.38L91.453 180.613L93.166 179.821L94.8868 179.005L96.6145 178.165L98.348 177.302L100.086 176.417L101.828 175.509L103.573 174.58L105.319 173.63L107.066 172.66L108.813 171.67L110.558 170.662L112.3 169.635L114.039 168.591L115.773 167.53L117.501 166.452L119.223 165.359L120.936 164.25L122.641 163.128L124.336 161.992L126.019 160.843L127.691 159.682L129.349 158.509L130.994 157.326L132.623 156.132L134.236 154.929L135.832 153.718L137.41 152.498L138.968 151.271L140.507 150.038L142.024 148.799L143.519 147.555L144.992 146.306L146.44 145.054L147.864 143.799L149.261 142.541L150.632 141.283L151.976 140.023L153.291 138.763L154.576 137.504L155.832 136.246L157.057 134.99L158.25 133.737L159.41 132.487L160.538 131.241L161.631 130L162.689 128.764L163.712 127.534L164.699 126.311L165.649 125.096L166.562 123.888L167.437 122.689L168.273 121.5L169.069 120.32L169.826 119.151L170.543 117.993L171.219 116.846L171.853 115.712L172.446 114.591L172.997 113.483L173.505 112.389L173.969 111.31L174.391 110.246L174.769 109.197L175.103 108.165L175.392 107.149L175.637 106.15L175.838 105.169L175.993 104.205L176.103 103.261L176.168 102.335L176.188 101.428L176.162 100.542L176.09 99.6752L175.973 98.8292L175.81 98.0042L175.602 97.2005L175.348 96.4184L175.049 95.6583L174.704 94.9206L174.314 94.2054L173.879 93.5131L173.399 92.844L172.875 92.1984L172.306 91.5764L171.693 90.9784L171.036 90.4046L170.335 89.8551L169.591 89.3301L168.805 88.83L167.976 88.3547L167.105 87.9044L166.193 87.4794L165.239 87.0796L164.245 86.7053L163.211 86.3565L162.138 86.0332L161.026 85.7357L159.876 85.4638L158.688 85.2176L157.463 84.9972L156.201 84.8025L154.905 84.6336L153.573 84.4904L152.208 84.373L150.809 84.2811L149.377 84.2148L147.914 84.1741L146.42 84.1587L144.897 84.1687L143.344 84.2038L141.762 84.264L140.154 84.3492L138.519 84.4591L136.859 84.5936L135.174 84.7525L133.466 84.9356L131.736 85.1428L129.984 85.3737L128.211 85.6282L126.419 85.9061L124.609 86.207L122.782 86.5308L120.939 86.8771L119.08 87.2457L117.208 87.6362L115.323 88.0485L113.426 88.482L111.518 88.9366L109.601 89.4119L107.676 89.9076L105.744 90.4232L103.806 90.9585L101.863 91.5131L99.916 92.0865L97.967 92.6785L96.0167 93.2886L94.0664 93.9164L92.1173 94.5615L90.1704 95.2235L88.2271 95.902L86.2885 96.5965L84.3557 97.3067L82.4301 98.032L80.5127 98.772L78.6047 99.5263L76.7074 100.294L74.8218 101.076L72.9492 101.87L71.0908 102.677L69.2475 103.496L67.4207 104.326L65.6115 105.167L63.8209 106.019L62.0501 106.881L60.3002 107.752L58.5723 108.632L56.8675 109.521L55.1869 110.418L53.5315 111.323L51.9023 112.234L50.3005 113.152L48.727 114.077L47.1827 115.006L45.6688 115.941L44.1861 116.88L42.7357 117.824L41.3184 118.771L39.9352 119.721L38.5869 120.674L37.2744 121.629L35.9987 122.585L34.7604 123.542L33.5604 124.5L32.3996 125.458L31.2786 126.416L30.1982 127.373L29.1591 128.329L28.1621 129.283L27.2077 130.234L26.2967 131.183L25.4296 132.129L24.6071 133.071L23.8297 134.009L23.0979 134.942L22.4122 135.87L21.7732 136.793L21.1813 137.71L20.6369 138.621L20.1404 139.525L19.6922 140.421L19.2927 141.311L18.942 142.192L18.6406 143.065L18.3887 143.929L18.1864 144.784L18.0341 145.629L17.9318 146.465L17.8797 147.29L17.8778 148.105L17.9264 148.908L18.0253 149.7L18.1746 150.481L18.3743 151.25L18.6243 152.006L18.9245 152.75L19.2749 153.48L19.6753 154.198L20.1255 154.902L20.6253 155.592L21.1744 156.268L21.7726 156.93L22.4196 157.577L23.1151 158.209L23.8587 158.826L24.65 159.428L25.4886 160.014L26.374 160.584L27.3058 161.139L28.2835 161.677L29.3064 162.199L30.3742 162.705L31.4861 163.193L32.6415 163.665L33.8399 164.12L35.0805 164.558L36.3625 164.978L37.6854 165.381L39.0483 165.766L40.4505 166.134L41.8911 166.484L43.3694 166.816L44.8844 167.13L46.4353 167.426L48.0212 167.705L49.6411 167.965L51.2942 168.206L52.9794 168.43L54.6958 168.635L56.4424 168.823L58.218 168.991L60.0218 169.142L61.8525 169.274L63.7092 169.388L65.5907 169.484L67.496 169.562L69.4238 169.621L71.373 169.663L73.3425 169.686L75.331 169.691L77.3375 169.678L79.3606 169.648L81.3993 169.599L83.4521 169.533L85.518 169.45L87.5957 169.348L89.6838 169.23L91.7812 169.094L93.8866 168.941L95.9987 168.771L98.1162 168.584L100.238 168.381L102.362 168.161L104.488 167.924L106.615 167.671L108.74 167.402L110.863 167.118L112.982 166.817L115.096 166.501L117.204 166.17L119.305 165.824L121.396 165.463L123.478 165.087L125.548 164.696L127.605 164.292L129.648 163.873L131.677 163.441L133.688 162.995L135.682 162.535L137.657 162.063L139.612 161.578L141.545 161.08L143.456 160.57L145.343 160.048L147.205 159.514L149.041 158.969L150.849 158.413L152.629 157.845L154.379 157.267L156.099 156.679L157.787 156.08L159.442 155.472L161.063 154.854L162.649 154.227L164.2 153.591L165.713 152.946L167.188 152.294L168.625 151.633L170.022 150.964L171.378 150.288L172.693 149.605L173.965 148.915L175.194 148.219L176.38 147.517L177.52 146.809L178.615 146.095L179.663 145.376L180.665 144.652L181.619 143.924L182.525 143.191L183.382 142.455L184.189 141.715L184.947 140.972L185.654 140.226L186.31 139.477L186.915 138.726L187.468 137.973L187.968 137.218L188.416 136.462L188.811 135.705L189.153 134.947L189.441 134.189L189.676 133.431L189.857 132.673L189.983 131.916L190.055 131.16L190.073 130.405L190.037 129.651L189.946 128.899L189.8 128.15L189.601 127.402L189.347 126.658L189.038 125.917L188.676 125.179L188.259 124.445L187.789 123.714L187.265 122.988L186.688 122.267L186.058 121.55L185.376 120.839L184.641 120.133L183.854 119.432L183.016 118.738L182.127 118.05L181.187 117.369L180.198 116.694L179.159 116.027L178.071 115.366L176.935 114.714L175.752 114.069L174.521 113.433L173.245 112.805L171.923 112.185L170.556 111.575L169.146 110.974L167.692 110.382L166.197 109.799L164.659 109.227L163.082 108.665L161.465 108.113L159.809 107.571L158.116 107.04L156.387 106.521L154.621 106.012L152.821 105.515L150.988 105.029L149.123 104.556L147.226 104.094L145.299 103.644L143.343 103.207L141.36 102.782L139.35 102.37L137.314 101.971L135.254 101.584L133.172 101.211L131.067 100.852L128.943 100.505L126.799 100.173L124.637 99.8542L122.459 99.5493L120.266 99.2585L118.058 98.9819L115.839 98.7196L113.608 98.4717L111.367 98.2383L109.118 98.0196L106.861 97.8155L104.599 97.6263L102.333 97.452L100.064 97.2927L97.7929 97.1484L95.5219 97.0193L93.2521 96.9054L90.9849 96.8068L88.7218 96.7235L86.464 96.6555L84.213 96.603L81.9702 96.5659L79.737 96.5444L77.5146 96.5383L75.3046 96.5478L73.1082 96.5728L70.9269 96.6135L68.7619 96.6696L66.6146 96.7414L64.4864 96.8287L62.3785 96.9316L60.2923 97.0499L58.2291 97.1838L56.1902 97.3332L54.1767 97.498L52.1901 97.6782L50.2315 97.8737L48.3021 98.0846L46.4032 98.3107L44.5359 98.5519L42.7014 98.8082L40.9009 99.0795L39.1355 99.3658L37.4063 99.6668L35.7144 99.9827L34.0609 100.313L32.4468 100.658L30.8731 101.018L29.3408 101.391L27.851 101.779L26.4045 102.181L25.0023 102.597L23.6453 103.026L22.3343 103.469L21.0701 103.926L19.8537 104.396L18.6858 104.879L17.5671 105.375L16.4983 105.883L15.4803 106.405L14.5135 106.938L13.5987 107.484L12.7364 108.042L11.9273 108.612L11.1718 109.193L10.4706 109.785L9.8239 110.389L9.23233 111.003L8.69625 111.629L8.21603 112.264L7.79201 112.91L7.42449 113.566L7.11374 114.231L6.85999 114.906L6.66344 115.59L6.52427 116.283L6.4426 116.984L6.41851 117.694L6.45208 118.412L6.54332 119.137L6.69222 119.87L6.89874 120.61L7.16278 121.357L7.48424 122.11L7.86295 122.87L8.29873 123.636L8.79136 124.407L9.34056 125.183L9.94605 125.965L10.6075 126.751L11.3246 127.541L12.0968 128.335L12.9238 129.133L13.8051 129.934L14.7402 130.738L15.7285 131.545L16.7695 132.354L17.8627 133.164L19.0072 133.976L20.2026 134.79L21.4481 135.604L22.7429 136.418L24.0863 137.233L25.4776 138.047L26.9159 138.86L28.4003 139.672L29.9299 140.483L31.5039 141.292L33.1214 142.099L34.7813 142.904L36.4827 143.705L38.2246 144.503L40.0059 145.297L41.8255 146.087L43.6825 146.873L45.5755 147.654L47.5036 148.43L49.4655 149.2L51.4601 149.964L53.4862 150.721L55.5425 151.472L57.6279 152.216L59.741 152.952L61.8805 153.681L64.0453 154.401L66.2339 155.112L68.445 155.815L70.6774 156.508L72.9296 157.192L75.2002 157.865L77.488 158.528L79.7914 159.181L82.1091 159.822L84.4398 160.451L86.7818 161.069L89.1339 161.675L91.4946 162.268L93.8625 162.848L96.236 163.415L98.6138 163.969L100.994 164.508L103.376 165.034L105.758 165.545L108.138 166.041L110.516 166.523L112.888 166.989L115.255 167.439L117.614 167.873L119.964 168.291L122.305 168.693L124.633 169.078L126.948 169.446L129.248 169.796L131.533 170.129L133.8 170.445L136.048 170.742L138.275 171.021L140.482 171.282L142.665 171.524L144.824 171.747L146.957 171.952L149.063 172.137L151.14 172.302L153.189 172.448L155.206 172.575L157.191 172.681L159.143 172.768L161.06 172.834L162.941 172.88L164.785 172.906L166.591 172.912L168.358 172.896L170.085 172.86L171.77 172.804L173.413 172.726L175.012 172.628L176.566 172.509L178.075 172.369L179.538 172.208L180.953 172.026L182.32 171.823L183.637 171.599L184.905 171.354L186.122 171.089L187.287 170.802L188.4 170.494L189.46 170.166L190.466 169.817L191.418 169.448L192.315 169.058L193.157 168.647L193.942 168.217L194.671 167.766L195.342 167.295L195.956 166.804L196.512 166.293L197.01 165.763L197.45 165.214L197.83 164.645L198.151 164.058L198.413 163.451L198.615 162.826L198.757 162.183L198.84 161.522L198.862 160.843L198.825 160.146L198.727 159.433L198.569 158.702L198.352 157.954L198.075 157.191L197.738 156.411L197.341 155.615L196.886 154.804L196.371 153.979L195.797 153.138L195.165 152.283L194.476 151.415L193.728 150.533L192.923 149.637L192.062 148.729L191.144 147.809L190.17 146.877L189.141 145.933L188.058 144.979L186.921 144.014L185.731 143.039L184.488 142.054L183.193 141.06L181.847 140.058L180.451 139.047L179.006 138.029L177.512 137.003L175.971 135.971L174.383 134.933L172.749 133.889L171.071 132.84L169.348 131.786L167.583 130.728L165.777 129.667L163.93 128.603L162.043 127.537L160.118 126.468L158.156 125.399L156.159 124.328L154.126 123.258L152.06 122.188L149.962 121.119L147.833 120.051L145.674 118.986L143.487 117.924L141.272 116.864L139.032 115.809L136.768 114.758L134.481 113.712L132.173 112.672L129.844 111.638L127.497 110.611L125.132 109.591L122.752 108.579L120.357 107.576L117.949 106.581L115.53 105.597L113.101 104.623L110.664 103.659L108.219 102.707L105.77 101.767L103.316 100.84L100.86 99.9254L98.4025 99.0246L95.946 98.1381L93.4915 97.2663L91.0407 96.4098L88.5949 95.569L86.1558 94.7446L83.7247 93.9371L81.3033 93.1469L78.8929 92.3745L76.4952 91.6206L74.1115 90.8854L71.7433 90.1697L69.3921 89.4737L67.0593 88.798L64.7464 88.143L62.4548 87.5092L60.1859 86.8971L57.9412 86.3069L55.7219 85.7393L53.5295 85.1945L51.3654 84.6729L49.2308 84.175L47.1271 83.7011L45.0556 83.2517L43.0176 82.8269L41.0143 82.4272L39.047 82.053L37.1169 81.7044L35.2252 81.3819L33.3731 81.0856L31.5616 80.816L29.7921 80.5731L28.0654 80.3574L26.3828 80.169L24.7453 80.008L23.1539 79.8749L21.6095 79.7697L20.1132 79.6925L18.6658 79.6437L17.2683 79.6232L15.9216 79.6313L14.6265 79.668L13.3837 79.7335L12.1942 79.8278L11.0586 79.951L9.97758 80.1032L8.95191 80.2843L7.98221 80.4944L7.06908 80.7336L6.21311 81.0017L5.41483 81.2988L4.67474 81.6248L3.99333 81.9797L3.37102 82.3633L2.80821 82.7756L2.30527 83.2164L1.86251 83.6857L1.48023 84.1832L1.15867 84.7089L0.898053 85.2625L0.698546 85.8438L0.560293 86.4527L0.48339 87.0888L0.4679 87.752L0.51385 88.442L0.621223 89.1584L0.789971 89.9011L1.02 90.6697L1.3112 91.4638L1.66338 92.2831L2.07635 93.1274L2.54988 93.996L3.08368 94.8888L3.67744 95.8053L4.33081 96.745L5.0434 97.7075L5.81479 98.6924L6.64451 99.6992L7.53207 100.727L8.47693 101.777L9.47853 102.846L10.5363 103.936L11.6495 105.044L12.8175 106.172L14.0397 107.318L15.3153 108.481L16.6434 109.662L18.0233 110.859L19.4543 112.071L20.9353 113.299L22.4654 114.542L24.0439 115.799L25.6696 117.068L27.3417 118.351L29.059 119.645L30.8206 120.951L32.6254 122.267L34.4722 123.593L36.36 124.928L38.2876 126.271L40.2537 127.622L42.2573 128.98L44.2971 130.344L46.3718 131.713L48.4802 133.087L50.6209 134.465L52.7928 135.847L54.9943 137.23L57.2243 138.615L59.4813 140.001L61.7639 141.386L64.0708 142.771L66.4005 144.155L68.7516 145.535L71.1227 146.913L73.5122 148.287L75.9189 149.655L78.3411 151.019L80.7773 152.375L83.2262 153.725L85.6861 155.066L88.1557 156.399L90.6332 157.722L93.1173 159.035L95.6065 160.336L98.099 161.626L100.594 162.902L103.089 164.166L105.582 165.414L108.074 166.648L110.561 167.866L113.042 169.067L115.516 170.251L117.981 171.417L120.436 172.564L122.88 173.691L125.31 174.798L127.725 175.884L130.124 176.948L132.505 177.99L134.867 179.009L137.209 180.004L139.528 180.975L141.824 181.92L144.094 182.84L146.339 183.734L148.556 184.6L150.743 185.439L152.901 186.25L155.026 187.033L157.119 187.786L159.177 188.509L161.199 189.202L163.185 189.864L165.132 190.495L167.041 191.095L168.908 191.662L170.735 192.196L172.518 192.697L174.258 193.165L175.952 193.599L177.601 193.999L179.203 194.364L180.757 194.695L182.262 194.99L183.717 195.249L185.121 195.473L186.474 195.661L187.774 195.812L189.022 195.927L190.215 196.006L191.353 196.047L192.436 196.052L193.463 196.019L194.433 195.949L195.346 195.842L196.201 195.698L196.997 195.516L197.735 195.297L198.413 195.04L199.031 194.746L199.589 194.415L200.087 194.046L200.524 193.64L200.9 193.198L201.214 192.718L201.467 192.201L201.659 191.648L201.788 191.059L201.856 190.433L201.861 189.771L201.805 189.074L201.687 188.342L201.507 187.574L201.266 186.772L200.963 185.935L200.598 185.065L200.173 184.161L199.686 183.223L199.139 182.254L198.532 181.251L197.865 180.217L197.138 179.152L196.353 178.056L195.509 176.93L194.606 175.775L193.647 174.59L192.631 173.377L191.558 172.136L190.43 170.868L189.247 169.574L188.01 168.253L186.719 166.908L185.376 165.538L183.981 164.145L182.535 162.728L181.039 161.289L179.495 159.829L177.902 158.349L176.261 156.848L174.575 155.329L172.844 153.791L171.068 152.236L169.25 150.665L167.39 149.078L165.489 147.476L163.549 145.861L161.57 144.233L159.554 142.593L157.503 140.941L155.416 139.28L153.297 137.61L151.145 135.931L148.963 134.245L146.752 132.553L144.512 130.856L142.246 129.154L139.955 127.45L137.64 125.742L135.303 124.034L132.944 122.325L130.567 120.617L128.171 118.911L125.758 117.208L123.331 115.508L120.89 113.813L118.437 112.124L115.974 110.441L113.501 108.767L111.021 107.101L108.535 105.445L106.044 103.8L103.551 102.167L101.056 100.547L98.5612 98.9405L96.0681 97.3489L93.5783 95.7731L91.0931 94.2142L88.6142 92.673L86.1431 91.1506L83.6813 89.6478L81.2302 88.1657L78.7915 86.7052L76.3666 85.2672L73.957 83.8527L71.5641 82.4624L69.1895 81.0974L66.8346 79.7585L64.5008 78.4465L62.1896 77.1624L59.9024 75.9069L57.6405 74.6809L55.4055 73.4853L53.1985 72.3207L51.0211 71.188L48.8745 70.0879L46.76 69.0212L44.6789 67.9886L42.6326 66.9908L40.6222 66.0286L38.649 65.1025L36.7142 64.2132L34.819 63.3614L32.9645 62.5476L31.1518 61.7725L29.3822 61.0366L27.6565 60.3405L25.976 59.6846L24.3416 59.0695L22.7543 58.4957L21.2151 57.9636L19.7249 57.4737L18.2847 57.0263L16.8952 56.6219L15.5574 56.2607L14.2721 55.9432L13.04 55.6695L11.8618 55.4401L10.7384 55.2552L9.67032 55.1149L8.65827 55.0196L7.70285 54.9693L6.80463 54.9643L5.96415 55.0046L5.18192 55.0903L4.4584 55.2216L3.79403 55.3984L3.18919 55.6208L2.64426 55.8888L2.15954 56.2023L1.73533 56.5612L1.37186 56.9655L1.06935 57.415L0.827976 57.9096L0.647864 58.4491L0.529112 59.0333L0.471777 59.662L0.475883 60.335L0.541408 61.0518L0.668301 61.8122L0.856466 62.616L1.10577 63.4626L1.41605 64.3517L1.7871 65.2829L2.21867 66.2558L2.71049 67.2698L3.26223 68.3245L3.87354 69.4193L4.54403 70.5537L5.27328 71.7271L6.06081 72.9389L6.90613 74.1885L7.80871 75.4753L8.76798 76.7985L9.78332 78.1574L10.8541 79.5513L11.9797 80.9796L13.1593 82.4413L14.3922 83.9358L15.6777 85.4622L17.0149 87.0197L18.4031 88.6074L19.8412 90.2245L21.3286 91.87L22.8641 93.543L24.4469 95.2427L26.076 96.968L27.7503 98.718L29.4688 100.492L31.2305 102.288L33.0343 104.106L34.8789 105.945L36.7634 107.803L38.6865 109.68L40.647 111.574L42.6437 113.485L44.6754 115.411L46.7408 117.351L48.8386 119.304L50.9675 121.269L53.1263 123.244L55.3136 125.229L57.528 127.223L59.7681 129.223L62.0326 131.23L64.3201 133.242L66.6292 135.257L68.9584 137.274L71.3063 139.293L73.6714 141.312L76.0523 143.33L78.4476 145.345L80.8557 147.357L83.2753 149.364L85.7046 151.365L88.1424 153.358L90.587 155.343L93.0371 157.319L95.491 159.283L97.9472 161.236L100.404 163.175L102.861 165.099L105.315 167.008L107.766 168.9L110.211 170.774L112.65 172.629L115.081 174.463L117.502 176.276L119.912 178.067L122.309 179.833L124.692 181.574L127.06 183.29L129.41 184.978L131.743 186.639L134.055 188.27L136.346 189.87L138.615 191.44L140.859 192.977L143.078 194.481L145.27 195.95L147.435 197.384L149.57 198.782L151.674 200.143L153.746 201.466L155.785 202.75L157.789 203.994L159.758 205.197L161.689 206.359L163.583 207.479L165.438 208.556L167.252 209.589L169.025 210.578L170.755 211.521L172.441 212.419L174.084 213.27L175.68 214.074L177.23 214.831L178.733 215.539L180.187 216.199L181.592 216.809L182.947 217.37L184.252 217.88L185.504 218.34L186.704 218.749L187.851 219.106L188.945 219.412L189.984 219.666L190.967 219.868L191.896 220.017L192.768 220.114L193.583 220.158L194.341 220.149L195.042 220.087L195.685 219.971L196.269 219.803L196.795 219.581L197.261 219.307L197.669 218.979L198.017 218.598L198.305 218.164L198.534 217.677L198.702 217.138L198.811 216.547L198.86 215.903L198.848 215.208L198.777 214.461L198.646 213.663L198.455 212.814L198.204 211.915L197.894 210.966L197.525 209.967L197.096 208.919L196.609 207.823L196.064 206.679L195.46 205.488L194.799 204.25L194.081 202.966L193.306 201.637L192.475 200.263L191.589 198.845L190.647 197.385L189.651 195.882L188.601 194.337L187.497 192.752L186.342 191.127L185.134 189.463L183.876 187.761L182.568 186.023L181.21 184.248L179.803 182.439L178.35 180.595L176.849 178.718L175.303 176.81L173.712 174.871L172.078 172.902L170.4 170.905L168.681 168.88L166.922 166.83L165.123 164.754L163.286 162.654L161.411 160.532L159.501 158.389L157.555 156.225L155.576 154.043L153.565 151.843L151.522 149.627L149.45 147.396L147.349 145.152L145.221 142.895L143.067 140.628L140.888 138.35L138.686 136.065L136.462 133.773L134.218 131.475L131.954 129.174L129.673 126.869L127.375 124.564L125.063 122.258L122.737 119.954L120.399 117.653L118.05 115.356L115.693 113.065L113.327 110.781L110.956 108.505L108.579 106.24L106.199 103.986L103.818 101.744L101.436 99.5163L99.0548 97.3041L96.6764 95.1087L94.3019 92.9315L91.9329 90.7738L89.5708 88.637L87.217 86.5224L84.8729 84.4312L82.5401 82.365L80.2198 80.3248L77.9137 78.312L75.6229 76.3279L73.349 74.3738L71.0933 72.4508L68.8571 70.5602L66.642 68.7033L64.4491 66.8811L62.2798 65.0948L60.1355 63.3457L58.0174 61.6348L55.9268 59.9633L53.865 58.3321L51.8332 56.7425L49.8327 55.1953L47.8646 53.6917L45.9302 52.2327L44.0306 50.8191L42.1669 49.4519L40.3402 48.1321L38.5518 46.8605L36.8025 45.638L35.0935 44.4654L33.4258 43.3435L31.8004 42.273L30.2183 41.2548L28.6803 40.2895L27.1875 39.3778L25.7406 38.5204L24.3406 37.7178L22.9882 36.9706L21.6843 36.2795L20.4297 35.6448L19.2249 35.0672L18.0709 34.5469L16.9682 34.0846L15.9175 33.6804L14.9193 33.3349L13.9743 33.0482L13.083 32.8207L12.2459 32.6526L11.4635 32.544L10.7362 32.4953L10.0644 32.5064L9.44852 32.5775L8.88887 32.7087L8.38574 32.8999L7.9394 33.1512L7.5501 33.4625L7.21802 33.8337L6.94333 34.2647L6.72614 34.7552L6.56656 35.3053L6.46464 35.9144L6.42038 36.5825L6.43379 37.3092L6.5048 38.0942L6.63332 38.937L6.81924 39.8373L7.0624 40.7946L7.36261 41.8084L7.71963 42.8781L8.13321 44.0033L8.60304 45.1834L9.12879 46.4176L9.71011 47.7054L10.3466 49.046L11.0378 50.4387L11.7833 51.8828L12.5825 53.3774L13.4349 54.9218L14.34 56.515L15.2972 58.1562L16.3058 59.8444L17.3653 61.5787L18.4748 63.3581L19.6336 65.1817L20.8411 67.0483L22.0964 68.9569L23.3988 70.9064L24.7474 72.8956L26.1413 74.9235L27.5796 76.9889L29.0615 79.0904L30.586 81.2271L32.1521 83.3975L33.7588 85.6004L35.4051 87.8346L37.0899 90.0986L38.8123 92.3913L40.5711 94.7111L42.3652 97.0569L44.1934 99.4271L46.0547 101.82L47.9479 104.235L49.8717 106.67L51.825 109.124L53.8066 111.595L55.8151 114.082L57.8494 116.584L59.9082 119.098L61.9903 121.623L64.0942 124.158L66.2188 126.702L68.3626 129.252L70.5244 131.807L72.7028 134.366L74.8965 136.927L77.1041 139.488L79.3243 142.049L81.5556 144.607L83.7968 147.16L86.0463 149.708L88.303 152.249L90.5652 154.781L92.8318 157.302L95.1012 159.811L97.372 162.307L99.643 164.788L101.913 167.252L104.18 169.699L106.443 172.125L108.7 174.53L110.951 176.913L113.193 179.272L115.426 181.605L117.648 183.911L119.858 186.188L122.054 188.436L124.235 190.652L126.399 192.836L128.547 194.985L130.675 197.099L132.783 199.176L134.87 201.215L136.934 203.215L138.974 205.174L140.989 207.091L142.978 208.965L144.939 210.794L146.871 212.578L148.774 214.315L150.645 216.004L152.484 217.645L154.29 219.235L156.062 220.774L157.798 222.262L159.498 223.696L161.161 225.076L162.785 226.402L164.37 227.671L165.915 228.884L167.418 230.04L168.88 231.137L170.298 232.176L171.673 233.154L173.003 234.073L174.288 234.93L175.527 235.726L176.72 236.459L177.864 237.13L178.961 237.738L180.009 238.282L181.008 238.762L181.957 239.177L182.855 239.528L183.703 239.814L184.499 240.034L185.244 240.188L185.936 240.277L186.576 240.3L187.162 240.257L187.696 240.148L188.176 239.973L188.603 239.732L188.975 239.425L189.293 239.052L189.558 238.613L189.768 238.109L189.923 237.539L190.024 236.904L190.071 236.205L190.063 235.441L190.001 234.613L189.884 233.721L189.714 232.767L189.489 231.749L189.211 230.67L188.879 229.529L188.494 228.327L188.055 227.065L187.564 225.743L187.021 224.362L186.426 222.924L185.78 221.428L185.082 219.875L184.334 218.268L183.535 216.605L182.687 214.889L181.791 213.12L180.845 211.3L179.853 209.429L178.813 207.508L177.726 205.539L176.594 203.523L175.417 201.46L174.196 199.353L172.932 197.202L171.625 195.009L170.276 192.774L168.887 190.5L167.458 188.187L165.989 185.837L164.483 183.451L162.939 181.032L161.36 178.579L159.745 176.095L158.096 173.581L156.414 171.038L154.7 168.469L152.956 165.874L151.181 163.256L149.378 160.615L147.547 157.954L145.69 155.273L143.808 152.575L141.901 149.862L139.972 147.134L138.021 144.394L136.05 141.643L134.059 138.883L132.051 136.115L130.025 133.342L127.985 130.564L125.93 127.784L123.862 125.003L121.783 122.223L119.693 119.446L117.594 116.674L115.487 113.907L113.374 111.148L111.256 108.399L109.133 105.661L107.008 102.935L104.882 100.224L102.756 97.5298L100.631 94.8531L98.5091 92.1959L96.3907 89.5599L94.2775 86.9467L92.1708 84.3579L90.0718 81.7952L87.9819 79.2601L85.9022 76.7543L83.834 74.2792L81.7786 71.8365L79.7373 69.4277L77.7112 67.0542L75.7015 64.7176L73.7096 62.4194L71.7364 60.1609L69.7834 57.9437L67.8515 55.769L65.942 53.6384L64.056 51.5531L62.1947 49.5144L60.359 47.5237L58.5502 45.5823L56.7692 43.6913L55.0172 41.852L53.2952 40.0656L51.6041 38.3331L49.945 36.6558L48.3188 35.0348L46.7266 33.4709L45.1691 31.9654L43.6474 30.5191L42.1623 29.133L40.7146 27.8081L39.3052 26.5452L37.935 25.345L36.6046 24.2086L35.3149 23.1365L34.0666 22.1295L32.8604 21.1883L31.6969 20.3136L30.5769 19.5059L29.5009 18.7658L28.4696 18.0938L27.4835 17.4905L26.5432 16.9562L25.6491 16.4913L24.8018 16.0963L24.0017 15.7713L23.2493 15.5168L22.5449 15.3328L21.8888 15.2196L21.2815 15.1774L20.7233 15.2062L20.2144 15.306L19.755 15.477L19.3454 15.719L18.9857 16.0319L18.6761 16.4158L18.4168 16.8703L18.2078 17.3953L18.0491 17.9905L17.9409 18.6556L17.883 19.3904L17.8755 20.1943L17.9183 21.067L18.0114 22.008L18.1544 23.0169L18.3475 24.0929L18.5902 25.2357L18.8825 26.4444L19.224 27.7185L19.6145 29.0572L20.0537 30.4598L20.5413 31.9254L21.0768 33.4532L21.66 35.0424L22.2903 36.6921L22.9673 38.4012L23.6906 40.1688L24.4596 41.9938L25.2739 43.8752L26.1327 45.812L27.0356 47.8029L27.982 49.8467L28.9712 51.9424L30.0025 54.0886L31.0753 56.2841L32.1888 58.5275L33.3423 60.8176L34.5351 63.153L35.7663 65.5323L37.0352 67.9541L38.341 70.4169L39.6827 72.9193L41.0595 75.4597L42.4705 78.0367L43.9149 80.6486L45.3917 83.294L46.8999 85.9713L48.4386 88.6787L50.0067 91.4147L51.6034 94.1777L53.2276 96.9659L54.8782 99.7778L56.5542 102.611L58.2546 105.465L59.9783 108.338L61.7242 111.227L63.4912 114.13L65.2782 117.048L67.0841 119.976L68.9077 122.914L70.748 125.86L72.6038 128.812L74.4738 131.768L76.3571 134.726L78.2523 137.685L80.1584 140.643L82.0741 143.598L83.9983 146.548L85.9298 149.491L87.8675 152.426L89.81 155.351L91.7563 158.263L93.7051 161.162L95.6553 164.045L97.6056 166.91L99.555 169.756L101.502 172.582L103.446 175.384L105.385 178.162L107.319 180.914L109.245 183.638L111.164 186.333L113.073 188.996L114.972 191.626L116.859 194.222L118.734 196.781L120.595 199.303L122.442 201.785L124.272 204.227L126.085 206.626L127.881 208.981L129.657 211.291L131.413 213.553L133.147 215.768L134.859 217.933L136.549 220.047L138.213 222.108L139.853 224.116L141.466 226.068L143.053 227.965L144.611 229.804L146.14 231.585L147.64 233.306L149.109 234.966L150.546 236.564L151.951 238.099L153.323 239.57L154.661 240.977L155.964 242.317L157.232 243.591L158.463 244.798L159.658 245.936L160.816 247.006L161.935 248.005L163.016 248.935L164.057 249.793L165.058 250.58L166.019 251.294L166.939 251.936L167.818 252.505L168.655 253.001L169.449 253.422L170.201 253.77L170.909 254.043L171.574 254.242L172.195 254.366L172.773 254.414L173.305 254.388L173.794 254.287L174.237 254.111L174.635 253.86L174.988 253.534L175.296 253.134L175.558 252.658L175.775 252.109L175.946 251.486L176.072 250.788L176.152 250.018L176.186 249.175L176.175 248.259L176.119 247.272L176.017 246.213L175.87 245.083L175.678 243.884L175.441 242.615L175.16 241.277L174.834 239.872L174.464 238.399L174.051 236.86L173.594 235.256L173.094 233.587L172.551 231.856L171.966 230.061L171.34 228.206L170.671 226.29L169.962 224.315L169.213 222.283L168.423 220.193L167.595 218.048L166.727 215.849L165.821 213.598L164.878 211.294L163.898 208.941L162.882 206.539L161.83 204.09L160.743 201.594L159.622 199.055L158.467 196.473L157.28 193.849L156.061 191.186L154.811 188.485L153.531 185.748L152.222 182.976L150.883 180.171L149.517 177.335L148.124 174.469L146.706 171.575L145.262 168.655L143.794 165.71L142.303 162.744L140.79 159.756L139.255 156.75L137.7 153.726L136.126 150.687L134.533 147.635L132.923 144.572L131.297 141.498L129.655 138.417L127.999 135.331L126.33 132.24L124.648 129.147L122.956 126.054L121.253 122.962L119.541 119.875L117.821 116.792L116.094 113.717L114.361 110.652L112.623 107.598L110.881 104.556L109.136 101.53L107.39 98.5204L105.643 95.5295L103.897 92.5591L102.151 89.6111L100.409 86.6873L98.6698 83.7894L96.9353 80.9193L95.2065 78.0788L93.4843 75.2695L91.7698 72.4933L90.064 69.7519L88.3679 67.0469L86.6825 64.3801L85.0089 61.7531L83.3479 59.1675L81.7006 56.625L80.068 54.1271L78.451 51.6754L76.8504 49.2714L75.2674 46.9167L73.7028 44.6126L72.1574 42.3607L70.6322 40.1623L69.1281 38.0188L67.646 35.9316L66.1866 33.9019L64.7508 31.9311L63.3395 30.0204L61.9533 28.171L60.5932 26.384L59.2599 24.6606L57.9541 23.0019L56.6766 21.4089L55.428 19.8826L54.209 18.424L53.0204 17.0341L51.8628 15.7136L50.7368 14.4636L49.6431 13.2847L48.5821 12.1777L47.5545 11.1433L46.5609 10.1823L45.6017 9.29514L44.6775 8.48251L43.7888 7.74493L42.9359 7.08287L42.1194 6.49678L41.3397 5.98705L40.5971 5.55403L39.892 5.19803L39.2248 4.91929L38.5957 4.71802L38.0052 4.59438L37.4534 4.54848L36.9406 4.58039L36.467 4.69011L36.0328 4.87762L35.6383 5.14283L35.2834 5.48561L34.9685 5.9058L34.6935 6.40316L34.4586 6.97742L34.2638 7.62827L34.1092 8.35532L33.9947 9.15818L33.9203 10.0364L33.886 10.9894L33.8917 12.0167L33.9373 13.1177L34.0227 14.2917L34.1478 15.5381L34.3124 16.8561L34.5163 18.2449L34.7593 19.7037L35.0412 21.2316L35.3617 22.8278L35.7206 24.4912L36.1175 26.2209L36.552 28.0159L37.024 29.875L37.5329 31.7972L38.0785 33.7812L38.6603 35.826L39.2778 37.9302L39.9306 40.0926L40.6183 42.3119L41.3404 44.5868L42.0962 46.9158L42.8854 49.2976L43.7074 51.7307L44.5615 54.2137L45.4473 56.745L46.364 59.3231L47.3111 61.9464L48.288 64.6134L49.2939 67.3224L50.3283 70.0718L51.3904 72.8598L52.4795 75.6849L53.595 78.5452L54.736 81.439L55.9019 84.3647L57.0919 87.3203L58.3051 90.3041L59.5409 93.3142L60.7985 96.3488L62.077 99.4061L63.3756 102.484L64.6935 105.581L66.0299 108.695L67.3839 111.824L68.7546 114.967L70.1413 118.12L71.543 121.283L72.9589 124.453L74.388 127.629L75.8296 130.808L77.2827 133.989L78.7463 137.169L80.2197 140.347L81.7019 143.52L83.192 146.688L84.689 149.847L86.1922 152.996L87.7005 156.132L89.2131 159.255L90.7289 162.362L92.2472 165.451L93.7671 168.52L95.2875 171.568L96.8076 174.592L98.3265 177.59L99.8432 180.562L101.357 183.504L102.867 186.415L104.372 189.294L105.871 192.138L107.364 194.946L108.849 197.716L110.326 200.446L111.794 203.135L113.252 205.781L114.699 208.382L116.134 210.937L117.556 213.444L118.966 215.902L120.361 218.308L121.741 220.662L123.105 222.963L124.453 225.208L125.784 227.396L127.097 229.526L128.391 231.597L129.665 233.607L130.919 235.556L132.153 237.441L133.364 239.262L134.554 241.017L135.721 242.706L136.864 244.327L137.983 245.879L139.077 247.362L140.146 248.775L141.189 250.116L142.206 251.385L143.196 252.581L144.158 253.703L145.092 254.75L145.998 255.723L146.875 256.619L147.722 257.44L148.54 258.183L149.327 258.849L150.084 259.438L150.81 259.948L151.504 260.38L152.167 260.733L152.798 261.007L153.397 261.202L153.963 261.318L154.496 261.354L154.997 261.311L155.464 261.189L155.898 260.987L156.298 260.706L156.664 260.345L156.997 259.906L157.296 259.389L157.561 258.793L157.792 258.119L157.988 257.367L158.151 256.539L158.279 255.634L158.373 254.652L158.433 253.596L158.459 252.464L158.452 251.258L158.41 249.979L158.335 248.627L158.226 247.204L158.083 245.709L157.907 244.144L157.699 242.51L157.457 240.808L157.183 239.039L156.876 237.204L156.538 235.304L156.167 233.34L155.765 231.314L155.332 229.227L154.869 227.079L154.374 224.873L153.85 222.609L153.296 220.289L152.713 217.915L152.1 215.488L151.46 213.009L150.791 210.479L150.096 207.902L149.373 205.277L148.623 202.607L147.848 199.893L147.047 197.137L146.222 194.341L145.372 191.506L144.499 188.634L143.602 185.726L142.683 182.786L141.741 179.814L140.779 176.812L139.796 173.782L138.792 170.726L137.77 167.646L136.728 164.543L135.669 161.42L134.592 158.279L133.498 155.121L132.389 151.948L131.264 148.763L130.124 145.567L128.971 142.362L127.804 139.151L126.625 135.934L125.434 132.715L124.232 129.495L123.02 126.276L121.799 123.06L120.569 119.849L119.33 116.646L118.085 113.451L116.833 110.267L115.575 107.096L114.312 103.94L113.045 100.801L111.774 97.6807L110.501 94.5809L109.226 91.5038L107.949 88.4511L106.672 85.4247L105.395 82.4266L104.12 79.4585L102.846 76.5222L101.574 73.6197L100.306 70.7526L99.0419 67.9227L97.7824 65.1318L96.5284 62.3816L95.2804 59.6737L94.0394 57.0099L92.8058 54.3918L91.5806 51.8209L90.3642 49.2989L89.1575 46.8273L87.9611 44.4077L86.7757 42.0415L85.6019 39.7301L84.4403 37.4751L83.2916 35.2778L82.1565 33.1394L81.0356 31.0615L79.9294 29.0451L78.8385 27.0917L77.7637 25.2023L76.7053 23.3781L75.664 21.6203L74.6403 19.9299L73.6349 18.3079L72.6481 16.7555L71.6805 15.2734L70.7327 13.8627L69.805 12.5242L68.898 11.2586L68.0122 10.0669L67.1479 8.94972L66.3057 7.90772L65.4858 6.94156L64.6888 6.05185L63.915 5.23911L63.1648 4.50385L62.4386 3.84652L61.7366 3.26752L61.0593 2.7672L60.4068 2.34587L59.7796 2.00378L59.1779 1.74114L58.6019 1.55811L58.052 1.45479L57.5283 1.43125L57.031 1.4875L56.5604 1.6235L56.1167 1.83916L55.6999 2.13435L55.3103 2.50888L54.9479 2.96251L54.613 3.49496L54.3055 4.1059L54.0257 4.79495L53.7735 5.56168L53.549 6.40561L53.3522 7.32623L53.1832 8.32296L53.0419 9.39518L52.9284 10.5422L52.8425 11.7634L52.7844 13.0579L52.7538 14.425L52.7508 15.8638L52.7752 17.3734L52.8269 18.9529L52.9058 20.6014L53.0117 22.3177L53.1446 24.1009L53.3041 25.9498L53.4902 27.8632L53.7027 29.8401L53.9412 31.8792L54.2057 33.9792L54.4958 36.1389L54.8113 38.3568L55.1519 40.6317L55.5174 42.9621L55.9073 45.3466L56.3216 47.7837L56.7597 50.2719L57.2213 52.8097L57.7062 55.3955L58.214 58.0278L58.7442 60.7048L59.2965 63.425L59.8705 66.1867L60.4658 68.9881L61.0819 71.8276L61.7186 74.7034L62.3752 77.6137L63.0514 80.5567L63.7466 83.5306L64.4606 86.5337L65.1926 89.5639L65.9424 92.6196L66.7093 95.6987L67.4929 98.7994L68.2927 101.92L69.1081 105.058L69.9387 108.212L70.7838 111.38L71.6431 114.56L72.5158 117.75L73.4016 120.948L74.2997 124.151L75.2098 127.36L76.1311 130.57L77.0632 133.78L78.0055 136.989L78.9574 140.193L79.9183 143.392L80.8876 146.584L81.8648 149.765L82.8493 152.935L83.8405 156.091L84.8377 159.232L85.8405 162.356L86.8483 165.46L87.8603 168.542L88.8762 171.602L89.8952 174.637L90.9167 177.644L91.9403 180.623L92.9653 183.572L93.9911 186.488L95.0171 189.37L96.0428 192.216L97.0676 195.024L98.0908 197.793L99.112 200.521L100.131 203.207L101.146 205.848L102.158 208.443L103.165 210.99L104.167 213.488L105.165 215.936L106.156 218.331L107.14 220.673L108.118 222.96L109.088 225.191L110.05 227.364L111.004 229.477L111.949 231.531L112.884 233.522L113.809 235.451L114.723 237.316L115.627 239.116L116.519 240.849L117.399 242.515L118.267 244.113L119.122 245.642L119.964 247.101L120.793 248.488L121.607 249.804L122.407 251.047L123.192 252.217L123.962 253.312L124.717 254.333L125.455 255.279L126.178 256.148L126.884 256.941L127.573 257.657L128.244 258.296L128.899 258.858L129.535 259.341L130.153 259.746L130.753 260.072L131.335 260.32L131.897 260.489L132.441 260.579L132.965 260.59L133.469 260.522L133.954 260.375L134.419 260.15L134.864 259.845L135.289 259.463L135.693 259.002L136.077 258.464L136.441 257.848L136.783 257.156L137.105 256.386L137.405 255.541L137.685 254.619L137.943 253.623L138.181 252.553L138.397 251.409L138.592 250.192L138.766 248.903L138.918 247.542L139.049 246.111L139.16 244.611L139.248 243.042L139.316 241.405L139.363 239.701L139.389 237.933L139.393 236.099L139.377 234.202L139.34 232.243L139.283 230.224L139.205 228.144L139.106 226.007L138.987 223.812L138.849 221.562L138.69 219.257L138.511 216.9L138.313 214.491L138.096 212.033L137.859 209.526L137.603 206.972L137.329 204.374L137.036 201.732L136.724 199.047L136.395 196.323L136.048 193.56L135.683 190.76L135.301 187.925L134.902 185.057L134.487 182.157L134.054 179.228L133.606 176.27L133.142 173.286L132.663 170.278L132.169 167.248L131.659 164.197L131.136 161.127L130.598 158.04L130.046 154.939L129.481 151.824L128.903 148.698L128.312 145.564L127.709 142.421L127.094 139.274L126.467 136.123L125.829 132.971L125.18 129.82L124.521 126.67L123.852 123.525L123.174 120.387L122.486 117.257L121.789 114.136L121.084 111.028L120.371 107.934L119.65 104.856L118.922 101.795L118.187 98.7541L117.446 95.7345L116.7 92.7383L115.947 89.7672L115.19 86.823L114.428 83.9076L113.661 81.0226L112.891 78.17L112.117 75.3513L111.341 72.5684L110.562 69.8229L109.78 67.1165L108.997 64.4508L108.213 61.8275L107.428 59.248L106.642 56.7141L105.856 54.2272L105.071 51.7889L104.286 49.4005L103.502 47.0636L102.72 44.7796L101.94 42.5498L101.162 40.3756L100.387 38.2582L99.6149 36.1991L98.8463 34.1993L98.0816 32.2601L97.3212 30.3827L96.5653 28.5681L95.8144 26.8175L95.0689 25.1319L94.329 23.5123L93.5952 21.9597L92.8678 20.4749L92.1471 19.0589L91.4335 17.7125L90.7272 16.4365L90.0288 15.2316L89.3383 14.0985L88.6562 13.038L87.9828 12.0505L87.3184 11.1367L86.6632 10.2971L86.0176 9.53223L85.3818 8.84241L84.7561 8.22808L84.1409 7.68958L83.5362 7.22719L82.9425 6.84115L82.3599 6.53167L81.7887 6.29889L81.2291 6.14291L80.6814 6.0638L80.1457 6.06154L79.6224 6.13611L79.1115 6.28741L78.6133 6.51532L78.1281 6.81965L77.6558 7.20016L77.1968 7.65659L76.7513 8.18862L76.3193 8.79587L75.901 9.47792L75.4966 10.2343L75.1062 11.0646L74.7299 11.9681L74.3679 12.9444L74.0203 13.9926L73.6871 15.1123L73.3686 16.3026L73.0647 17.5628L72.7755 18.892L72.5012 20.2894L72.2418 21.7542L71.9973 23.2853L71.7679 24.8818L71.5535 26.5427L71.3542 28.2669L71.1701 30.0533L71.0011 31.9008L70.8473 33.8082L70.7086 35.7743L70.5851 37.7979L70.4768 39.8777L70.3836 42.0123L70.3056 44.2006L70.2427 46.441L70.1949 48.7321L70.1621 51.0726L70.1442 53.4609L70.1413 55.8956L70.1533 58.3751L70.1801 60.898L70.2215 63.4625L70.2776 66.0672L70.3483 68.7104L70.4334 71.3904L70.5329 74.1056L70.6466 76.8544L70.7744 79.6349L70.9163 82.4454L71.072 85.2844L71.2415 88.1498L71.4247 91.0401L71.6213 93.9534L71.8312 96.8878L72.0543 99.8417L72.2904 102.813L72.5394 105.8L72.801 108.801L73.0752 111.814L73.3617 114.838L73.6604 117.869L73.971 120.907L74.2934 123.95L74.6274 126.995L74.9728 130.042L75.3293 133.087L75.6968 136.129L76.0751 139.167L76.4639 142.198L76.863 145.22L77.2723 148.232L77.6913 151.233L78.1201 154.219L78.5582 157.189L79.0055 160.142L79.4618 163.075L79.9268 165.987L80.4002 168.876L80.8818 171.741L81.3714 174.579L81.8687 177.389L82.3734 180.169L82.8854 182.917L83.4043 185.632L83.9298 188.313L84.4619 190.957L85.0001 193.563L85.5441 196.129L86.0939 198.654L86.649 201.136L87.2092 203.574L87.7743 205.967L88.3439 208.312L88.9179 210.609L89.4959 212.856L90.0777 215.052L90.663 217.195L91.2515 219.285L91.8429 221.319L92.4371 223.298L93.0337 225.218L93.6325 227.081L94.2331 228.884L94.8353 230.626L95.439 232.306L96.0436 233.924L96.6491 235.478L97.2552 236.967L97.8615 238.391L98.4679 239.749L99.074 241.04L99.6796 242.263L100.284 243.418L100.888 244.503L101.491 245.519L102.092 246.465L102.691 247.339L103.288 248.143L103.883 248.875L104.475 249.534L105.065 250.122L105.651 250.636L106.235 251.078L106.814 251.446L107.39 251.741L107.962 251.962L108.53 252.11L109.093 252.184L109.652 252.184L110.206 252.111L110.754 251.965L111.297 251.745L111.835 251.452L112.367 251.087L112.893 250.648L113.412 250.138L113.926 249.555L114.432 248.901L114.932 248.177L115.425 247.381L115.91 246.516L116.389 245.581L116.859 244.578L117.322 243.507L117.777 242.368L118.224 241.162L118.662 239.891L119.092 238.555L119.514 237.155L119.927 235.692L120.33 234.166L120.725 232.579L121.11 230.932L121.486 229.226L121.853 227.462L122.21 225.641L122.557 223.764L122.894 221.832L123.221 219.848L123.538 217.811L123.844 215.723L124.14 213.586L124.426 211.401L124.701 209.169L124.965 206.892L125.218 204.571L125.461 202.207L125.692 199.803L125.912 197.359L126.121 194.877L126.319 192.359L126.506 189.806L126.681 187.22L126.845 184.603L126.997 181.955L127.137 179.28L127.266 176.577L127.383 173.85L127.489 171.099L127.582 168.327L127.664 165.535L127.734 162.725L127.793 159.899L127.839 157.058L127.873 154.204L127.896 151.339L127.906 148.465L127.905 145.583L127.892 142.696L127.867 139.804L127.83 136.91L127.781 134.016L127.72 131.123L127.647 128.232L127.563 125.347L127.466 122.469L127.358 119.598L127.239 116.738L127.107 113.89L126.964 111.055L126.809 108.235L126.643 105.433L126.465 102.649L126.276 99.8852L126.076 97.1437L125.864 94.4259L125.642 91.7335L125.408 89.068L125.163 86.431L124.907 83.8242L124.641 81.2491L124.363 78.7073L124.075 76.2002L123.777 73.7294L123.468 71.2964L123.149 68.9025L122.82 66.5493L122.48 64.2381L122.131 61.9702L121.772 59.7471L121.404 57.5701L121.026 55.4404L120.638 53.3592L120.241 51.3279L119.836 49.3475L119.421 47.4193L118.998 45.5444L118.566 43.7239L118.125 41.9588L117.677 40.2501L117.22 38.5988L116.755 37.006L116.283 35.4724L115.803 33.999L115.316 32.5866L114.822 31.236L114.32 29.948L113.812 28.7233L113.297 27.5625L112.776 26.4664L112.249 25.4354L111.716 24.4702L111.177 23.5713L110.633 22.7392L110.083 21.9743L109.528 21.277L108.969 20.6476L108.404 20.0865L107.836 19.5939L107.263 19.1701L106.686 18.8152L106.105 18.5294L105.521 18.3128L104.934 18.1654L104.344 18.0872L103.751 18.0783L103.156 18.1386L102.558 18.2678L101.959 18.466L101.357 18.7328L100.754 19.0681L100.15 19.4715L99.5452 19.9428L98.9395 20.4815L98.3333 21.0873L97.7269 21.7598L97.1206 22.4984L96.5146 23.3025L95.9093 24.1718L95.3048 25.1055L94.7015 26.1029L94.0996 27.1635L93.4993 28.2865L92.901 29.4711L92.305 30.7165L91.7114 32.022L91.1205 33.3866L90.5327 34.8094L89.9482 36.2896L89.3672 37.8261L88.7901 39.4179L88.2171 41.064L87.6484 42.7633L87.0844 44.5148L86.5253 46.3172L85.9713 48.1695L85.4228 50.0704L84.88 52.0188L84.3432 54.0133L83.8126 56.0527L83.2885 58.1358L82.7711 60.2611L82.2607 62.4274L81.7576 64.6332L81.262 66.8772L80.7742 69.158L80.2943 71.474L79.8228 73.824L79.3597 76.2063L78.9055 78.6195L78.4601 81.0621L78.0241 83.5326L77.5975 86.0294L77.1805 88.5509L76.7735 91.0956L76.3767 93.662L75.9902 96.2483L75.6143 98.8531L75.2492 101.475L74.8951 104.111L74.5523 106.762L74.2209 109.424L73.901 112.096L73.593 114.778L73.2971 117.466L73.0133 120.159L72.7419 122.856L72.483 125.556L72.2369 128.255L72.0036 130.954L71.7834 133.649L71.5765 136.34L71.3828 139.025L71.2027 141.702L71.0363 144.369L70.8836 147.026L70.7448 149.669L70.6201 152.299L70.5096 154.913L70.4133 157.509L70.3314 160.087L70.2639 162.643L70.211 165.178L70.1728 167.69L70.1494 170.176L70.1407 172.636L70.1469 175.067L70.168 177.469L70.2042 179.841L70.2554 182.18L70.3216 184.485L70.403 186.756L70.4995 188.99L70.6112 191.186L70.7381 193.344L70.8801 195.461L71.0373 197.537L71.2097 199.57L71.3972 201.559L71.5998 203.503L71.8175 205.401L72.0503 207.252L72.2981 209.055L72.5608 210.808L72.8384 212.511L73.1309 214.162L73.438 215.762L73.7598 217.308L74.0962 218.8L74.4471 220.238L74.8122 221.62L75.1916 222.945L75.5852 224.213L75.9927 225.424L76.414 226.576L76.849 227.669L77.2976 228.702L77.7595 229.675L78.2347 230.587L78.7228 231.438L79.2239 232.228L79.7375 232.955L80.2636 233.62L80.802 234.222L81.3523 234.762L81.9145 235.238L82.4883 235.651L83.0733 236L83.6695 236.285L84.2766 236.507L84.8942 236.665L85.5221 236.758L86.1601 236.789L86.8079 236.755L87.4651 236.658L88.1316 236.497L88.8069 236.273L89.4909 235.986L90.1832 235.637L90.8834 235.225L91.5913 234.75L92.3065 234.214L93.0287 233.617L93.7576 232.958L94.4928 232.24L95.2339 231.461L95.9807 230.623L96.7327 229.727L97.4896 228.772L98.2511 227.76L99.0166 226.692L99.786 225.567L100.559 224.387L101.335 223.153L102.113 221.865L102.894 220.524L103.676 219.132L104.46 217.689L105.245 216.196L106.031 214.653L106.816 213.063L107.602 211.427L108.387 209.744L109.171 208.016L109.954 206.245L110.735 204.432L111.514 202.577L112.289 200.682L113.062 198.748L113.832 196.776L114.597 194.768L115.358 192.725L116.115 190.648L116.866 188.539L117.612 186.398L118.351 184.228L119.084 182.029L119.811 179.803L120.53 177.551L121.241 175.275L121.944 172.976L122.639 170.656L123.325 168.315L124.002 165.957L124.669 163.581L125.325 161.189L125.972 158.784L126.607 156.365L127.231 153.936L127.844 151.497L128.444 149.049L129.032 146.596L129.608 144.136L130.17 141.674L130.718 139.209L131.253 136.743L131.774 134.279L132.28 131.816L132.771 129.358L133.247 126.904L133.707 124.458L134.152 122.02L134.58 119.591L134.992 117.174L135.387 114.769L135.766 112.379L136.126 110.003L136.47 107.645L136.795 105.305L137.102 102.985L137.391 100.686L137.662 98.4096L137.913 96.1568L138.146 93.929L138.359 91.7278L138.553 89.5542L138.727 87.4096L138.881 85.2952L139.016 83.2123L139.13 81.1621L139.224 79.1457L139.297 77.1644L139.35 75.2192L139.383 73.3114L139.394 71.4419L139.385 69.6118L139.354 67.8223L139.303 66.0742L139.231 64.3687L139.137 62.7066L139.022 61.0888L138.886 59.5164L138.729 57.9901L138.55 56.5109L138.351 55.0794L138.13 53.6966L137.888 52.3631L137.625 51.0797L137.34 49.8471L137.035 48.6659L136.709 47.5367L136.362 46.4602L135.994 45.4369L135.605 44.4673L135.197 43.5519L134.767 42.6912L134.318 41.8857L133.848 41.1356L133.359 40.4413L132.85 39.8032L132.322 39.2215L131.774 38.6966L131.207 38.2285L130.622 37.8176L130.018 37.4639L129.395 37.1675L128.755 36.9286L128.097 36.7472L127.421 36.6232L126.728 36.5566L126.019 36.5474L125.293 36.5955L124.551 36.7008L123.793 36.863L123.019 37.0819L122.231 37.3575L121.427 37.6892L120.61 38.077L119.778 38.5203L118.933 39.0189L118.075 39.5723L117.205 40.1801L116.322 40.8419L115.427 41.5571L114.521 42.3252L113.604 43.1456L112.677 44.0178L111.74 44.9411L110.793 45.9149L109.838 46.9384L108.874 48.011L107.902 49.1319L106.922 50.3004L105.936 51.5156L104.944 52.7767L103.945 54.083L102.942 55.4334L101.933 56.8271L100.921 58.2633L99.9047 59.7408L98.8855 61.2589L97.8638 62.8163L96.8401 64.4122L95.8151 66.0456L94.7893 67.7152L93.7633 69.4202L92.7376 71.1593L91.7129 72.9315L90.6897 74.7356L89.6687 76.5704L88.6503 78.4349L87.6353 80.3277L86.6241 82.2478L85.6174 84.1939L84.6158 86.1647L83.6198 88.1591L82.6301 90.1758L81.6472 92.2135L80.6717 94.271L79.7042 96.347L78.7452 98.4401L77.7954 100.549L76.8554 102.673L75.9256 104.81L75.0067 106.958L74.0993 109.118L73.2038 111.287L72.3209 113.463L71.4511 115.647L70.5949 117.836L69.753 120.028L68.9257 122.224L68.1137 124.421L67.3175 126.618L66.5375 128.813L65.7744 131.006L65.0285 133.195L64.3005 135.378L63.5906 137.556L62.8996 139.725L62.2277 141.885L61.5755 144.035L60.9434 146.173L60.3318 148.298L59.7412 150.408L59.1719 152.504L58.6245 154.582L58.0993 156.643L57.5966 158.685L57.1168 160.706L56.6603 162.706L56.2275 164.683L55.8186 166.636L55.4341 168.565L55.0741 170.467L54.7391 172.343L54.4292 174.19L54.1448 176.008L53.886 177.796L53.6532 179.553L53.4466 181.277L53.2664 182.968L53.1128 184.625L52.9859 186.247L52.8859 187.833L52.813 189.382L52.7674 190.894L52.7491 192.366L52.7582 193.8L52.7949 195.193L52.8592 196.546L52.9512 197.857L53.0709 199.125L53.2183 200.351L53.3935 201.533L53.5964 202.671L53.8271 203.765L54.0854 204.812L54.3714 205.814L54.685 206.77L55.026 207.679L55.3944 208.54L55.7901 209.354L56.2129 210.12L56.6626 210.837L57.1391 211.506L57.6423 212.125L58.1718 212.695L58.7276 213.216L59.3093 213.687L59.9167 214.108L60.5495 214.479L61.2075 214.8L61.8904 215.071L62.5977 215.291L63.3293 215.461L64.0848 215.581L64.8638 215.651L65.6659 215.67L66.4908 215.639L67.3379 215.559L68.207 215.429L69.0976 215.249L70.0092 215.02L70.9414 214.741L71.8937 214.414L72.8655 214.039L73.8565 213.615L74.8661 213.144L75.8937 212.625L76.9388 212.059L78.0009 211.447L79.0794 210.788L80.1737 210.084L81.2832 209.335L82.4074 208.542L83.5455 207.705L84.6971 206.824L85.8614 205.901L87.0379 204.936L88.2258 203.929L89.4246 202.882L90.6335 201.795L91.8519 200.669L93.079 199.504L94.3143 198.302L95.5569 197.064L96.8063 195.789L98.0616 194.479L99.3222 193.135L100.587 191.757L101.856 190.348L103.128 188.906L104.403 187.434L105.679 185.933L106.956 184.402L108.233 182.845L109.509 181.26L110.784 179.65L112.057 178.015L113.326 176.357L114.593 174.676L115.854 172.973L117.111 171.25L118.362 169.508L119.606 167.748L120.842 165.97L122.071 164.177L123.29 162.368L124.5 160.546L125.7 158.711L126.888 156.864L128.064 155.007L129.228 153.14L130.379 151.266L131.515 149.384L132.637 147.497L133.743 145.604L134.833 143.709L135.906 141.81L136.961 139.91L137.999 138.01L139.017 136.111L140.016 134.214L140.994 132.321L141.952 130.431L142.889 128.547L143.803 126.67L144.695 124.8L145.563 122.938L146.407 121.087L147.227 119.246L148.022 117.418L148.792 115.602L149.536 113.8L150.252 112.014L150.942 110.243L151.605 108.49L152.239 106.754L152.845 105.038L153.421 103.342L153.969 101.667L154.487 100.013L154.974 98.3829L155.431 96.7763L155.857 95.1943L156.252 93.6378L156.616 92.1077L156.947 90.6049L157.247 89.13L157.514 87.684L157.748 86.2676L157.949 84.8816L158.118 83.5267L158.253 82.2037L158.354 80.9131L158.422 79.6558L158.456 78.4323L158.457 77.2433L158.423 76.0894L158.355 74.9712L158.253 73.8892L158.118 72.844L157.947 71.8361L157.743 70.8661L157.505 69.9342L157.233 69.0411L156.926 68.1872L156.586 67.3727L156.212 66.5982L155.804 65.8639L155.363 65.1701L154.888 64.5172L154.381 63.9055L153.84 63.3351L153.266 62.8063L152.661 62.3193L152.023 61.8743L151.353 61.4713L150.651 61.1106L149.918 60.7922L149.155 60.5162L148.361 60.2825L147.536 60.0914L146.682 59.9426L145.799 59.8362L144.887 59.7722L143.947 59.7504L142.978 59.7708L141.983 59.8331L140.96 59.9373L139.911 60.0831L138.836 60.2704L137.737 60.4989L136.612 60.7684L135.464 61.0786L134.292 61.4291L133.097 61.8197L131.881 62.2501L130.643 62.7197L129.384 63.2283L128.105 63.7754L126.807 64.3606L125.49 64.9835L124.156 65.6435L122.804 66.3401L121.436 67.0729L120.052 67.8413L118.654 68.6448L117.242 69.4827L115.816 70.3544L114.378 71.2595L112.929 72.1971L111.469 73.1667L109.999 74.1676L108.52 75.1991L107.033 76.2606L105.539 77.3513L104.038 78.4704L102.532 79.6173L101.021 80.7912L99.5067 81.9912L97.9894 83.2167L96.4701 84.4668L94.9499 85.7408L93.4295 87.0377L91.91 88.3568L90.3921 89.6972L88.8769 91.0581L87.3652 92.4386L85.858 93.8379L84.3561 95.255L82.8605 96.6891L81.3721 98.1393L79.8918 99.6047L78.4205 101.084L76.9591 102.577L75.5085 104.083L74.0696 105.6L72.6433 107.128L71.2305 108.665L69.8321 110.211L68.4489 111.765L67.0818 113.326L65.7316 114.893L64.3993 116.465L63.0856 118.041L61.7913 119.62L60.5174 121.202L59.2646 122.784L58.0338 124.368L56.8256 125.95L55.6409 127.531L54.4805 129.11L53.3451 130.686L52.2354 132.257L51.1522 133.823L50.0962 135.383L49.0681 136.937L48.0685 138.482L47.0982 140.019L46.1578 141.547L45.2479 143.064L44.3691 144.57L43.5221 146.064L42.7073 147.545L41.9255 149.012L41.1771 150.465L40.4626 151.903L39.7827 153.325L39.1376 154.729L38.528 156.117L37.9542 157.485L37.4168 158.835L36.916 160.165L36.4523 161.475L36.0261 162.763L35.6376 164.03L35.2872 165.274L34.9753 166.495L34.702 167.692L34.4677 168.865L34.2725 170.012L34.1166 171.134L34.0003 172.231L33.9237 173.3L33.8869 174.342L33.8901 175.357L33.9333 176.343L34.0166 177.301L34.14 178.229L34.3036 179.128L34.5073 179.997L34.7511 180.836L35.035 181.644L35.3588 182.421L35.7224 183.167L36.1258 183.88L36.5687 184.562L37.0511 185.211L37.5725 185.828L38.133 186.412L38.7321 186.963L39.3696 187.481L40.0453 187.965L40.7587 188.416L41.5096 188.833L42.2975 189.216L43.1222 189.565L43.983 189.88L44.8797 190.161L45.8117 190.408L46.7786 190.621L47.7798 190.8L48.8148 190.944L49.8831 191.055L50.9841 191.131L52.1172 191.174L53.2817 191.183L54.4771 191.158L55.7027 191.099L56.9577 191.007L58.2416 190.882L59.5536 190.724L60.893 190.533L62.2589 190.309L63.6507 190.053L65.0675 189.765L66.5086 189.445L67.9731 189.094L69.4602 188.711L70.9691 188.297L72.4988 187.853L74.0485 187.379L75.6173 186.875L77.2043 186.342L78.8086 185.78L80.4292 185.189L82.0652 184.57L83.7156 183.924L85.3794 183.25L87.0558 182.55L88.7436 181.823L90.442 181.071L92.1498 180.294L93.8661 179.492L95.5898 178.666L97.32 177.817L99.0556 176.944L100.796 176.049L102.539 175.133L104.284 174.195L106.031 173.237L107.778 172.259L109.524 171.262L111.268 170.246L113.009 169.212L114.746 168.161L116.478 167.092L118.203 166.008L119.922 164.909L121.632 163.795L123.332 162.667L125.023 161.525L126.702 160.371L128.368 159.205L130.021 158.028L131.659 156.841L133.282 155.643L134.888 154.437L136.477 153.222L138.047 151.999L139.598 150.77L141.127 149.534L142.636 148.293L144.122 147.047L145.585 145.796L147.023 144.543L148.436 143.287L149.823 142.029L151.183 140.769L152.515 139.51L153.818 138.25L155.092 136.991L156.335 135.734L157.547 134.479L158.727 133.227L159.874 131.979L160.987 130.735L162.066 129.496L163.11 128.262L164.119 127.035L165.091 125.815L166.026 124.603L166.923 123.399L167.782 122.204L168.602 121.018L169.383 119.842L170.123 118.678L170.823 117.524L171.482 116.383L172.1 115.254L172.676 114.138L173.209 113.036L173.699 111.948L174.146 110.875L174.55 109.817L174.91 108.775L175.226 107.749L175.498 106.74L175.724 105.748L175.906 104.774L176.043 103.818L176.135 102.881L176.182 101.963L176.183 101.065L176.138 100.186L176.048 99.3281L175.912 98.4906L175.731 97.6742L175.504 96.8793L175.232 96.1061L174.914 95.3551L174.551 94.6265L174.142 93.9206L173.689 93.2377L173.191 92.5782L172.648 91.9421L172.061 91.3299L171.43 90.7417L170.756 90.1778L170.037 89.6383L169.276 89.1234L168.472 88.6333L167.626 88.1682L166.738 87.7282L165.809 87.3135L164.839 86.9241L163.829 86.5601L162.779 86.2217L161.69 85.9089L160.562 85.6218L159.396 85.3604L158.193 85.1247L156.953 84.9148L155.677 84.7306L154.366 84.5722L153.021 84.4395L151.642 84.3324L150.23 84.251L148.785 84.1952L147.309 84.1648L145.803 84.1597L144.267 84.18L142.703 84.2253L141.11 84.2957L139.491 84.391L137.846 84.5109L136.176 84.6554L134.481 84.8242L132.764 85.0171L131.024 85.234L129.264 85.4746L127.484 85.7386L125.684 86.0259L123.867 86.3362L122.033 86.6692L120.183 87.0246L118.319 87.4022L116.441 87.8016L114.551 88.2225L112.65 88.6647L110.738 89.1278L108.818 89.6114L106.89 90.1152L104.955 90.6389L103.015 91.1821L101.07 91.7444L99.1223 92.3255L97.1726 92.9249L95.2222 93.5422L93.2722 94.1771L91.3239 94.8292L89.3783 95.4979L87.4368 96.183L85.5004 96.8839L83.5704 97.6003L81.648 98.3317L79.7343 99.0776L77.8305 99.8376L75.9378 100.611L74.0574 101.398L72.1904 102.197L70.338 103.009L68.5013 103.833L66.6815 104.667L64.8798 105.513L63.0971 106.369L61.3347 107.235L59.5936 108.11L57.875 108.993L56.18 109.886L54.5095 110.786L52.8646 111.693L51.2465 112.607L49.656 113.528L48.0943 114.455L46.5623 115.387L45.061 116.323L43.5914 117.264L42.1543 118.209L40.7508 119.158L39.3817 120.109L38.0479 121.062L36.7503 122.018L35.4897 122.975L34.2669 123.932L33.0828 124.891L31.9381 125.849L30.8335 126.806L29.7699 127.763L28.7479 128.718L27.7682 129.671L26.8314 130.621L25.9382 131.569L25.0892 132.513L24.285 133.453L23.526 134.389L22.813 135.321L22.1463 136.247L21.5264 137.167L20.9538 138.082L20.4289 138.99L19.952 139.891L19.5236 140.785L19.1439 141.671L18.8133 142.548L18.532 143.418L18.3003 144.278L18.1184 145.129L17.9864 145.971L17.9045 146.802L17.8729 147.623L17.8915 148.433L17.9606 149.232L18.08 150.02L18.2498 150.796L18.47 151.559L18.7405 152.31L19.0612 153.049L19.432 153.774L19.8527 154.486L20.3231 155.184L20.843 155.869L21.4122 156.539L22.0303 157.195L22.6971 157.836L23.4122 158.462L24.1753 159.073L24.9859 159.668L25.8436 160.248L26.748 160.812L27.6985 161.36L28.6947 161.892L29.736 162.407L30.8218 162.906L31.9515 163.388L33.1245 163.852L34.3402 164.3L35.5977 164.731L36.8965 165.144L38.2358 165.54L39.6148 165.918L41.0328 166.279L42.4888 166.621L43.9821 166.946L45.5119 167.253L47.0771 167.542L48.677 167.813L50.3106 168.065L51.9769 168.3L53.6749 168.516L55.4037 168.714L57.1622 168.894L58.9494 169.055L60.7643 169.198L62.6058 169.323L64.4727 169.43L66.364 169.518L68.2786 169.588L70.2152 169.64L72.1729 169.674L74.1503 169.69L76.1463 169.688L78.1597 169.668L80.1893 169.63L82.2339 169.575L84.2922 169.501L86.363 169.41L88.4451 169.302L90.5372 169.177L92.638 169.034L94.7462 168.874L96.8607 168.697L98.98 168.503L101.103 168.293L103.228 168.066L105.354 167.823L107.48 167.564L109.605 167.288L111.726 166.997L113.844 166.691L115.956 166.368L118.061 166.031L120.158 165.679L122.245 165.311L124.322 164.93L126.387 164.533L128.439 164.123L130.477 163.699L132.498 163.261L134.503 162.809L136.489 162.345L138.456 161.867L140.402 161.377L142.327 160.874L144.228 160.359L146.105 159.832L147.956 159.294L149.781 158.744L151.578 158.183L153.346 157.611L155.084 157.029L156.79 156.436L158.465 155.834L160.106 155.221L161.713 154.6L163.285 153.969L164.821 153.329L166.319 152.681L167.778 152.025L169.199 151.361L170.579 150.69L171.919 150.011L173.216 149.325L174.471 148.632L175.683 147.934L176.85 147.229L177.971 146.518L179.048 145.803L180.077 145.082L181.059 144.356L181.994 143.626L182.88 142.892L183.717 142.154L184.504 141.413L185.241 140.668L185.928 139.921L186.563 139.171L187.146 138.419L187.678 137.666L188.157 136.91L188.584 136.154L188.957 135.397L189.277 134.639L189.543 133.88L189.756 133.122L189.915 132.365L190.019 131.608L190.069 130.852L190.065 130.097L190.006 129.345L189.893 128.594L189.726 127.845L189.504 127.099L189.227 126.356L188.897 125.616L188.513 124.879L188.074 124.147L187.582 123.418L187.037 122.694L186.438 121.974L185.787 121.26L185.083 120.55L184.327 119.847L183.519 119.149L182.66 118.457L181.75 117.772L180.79 117.093L179.781 116.421L178.722 115.757L177.614 115.1L176.459 114.45L175.256 113.809L174.007 113.176L172.712 112.551L171.372 111.936L169.987 111.329L168.559 110.731L167.088 110.143L165.575 109.565L164.022 108.997L162.428 108.439L160.795 107.891L159.124 107.354L157.416 106.827L155.672 106.312L153.892 105.808L152.079 105.316L150.232 104.835L148.354 104.366L146.445 103.909L144.506 103.464L142.539 103.032L140.544 102.612L138.523 102.206L136.478 101.812L134.409 101.431L132.317 101.063L130.204 100.709L128.071 100.368L125.92 100.041L123.752 99.7283L121.567 99.4292L119.368 99.1441L117.156 98.8733L114.931 98.6169L112.696 98.3749L110.452 98.1474L108.199 97.9347L105.941 97.7367L103.677 97.5535L101.409 97.3853L99.1388 97.2321L96.8678 97.094L94.5971 96.9711L92.3282 96.8634L90.0625 96.771L87.8014 96.6939L85.5462 96.6322L83.2984 96.586L81.0593 96.5553L78.8303 96.54L76.6128 96.5403L74.4082 96.5561L72.2178 96.5875L70.0429 96.6345L67.885 96.697L65.7453 96.7751L63.6252 96.8687L61.526 96.9779L59.4491 97.1026L57.3956 97.2428L55.3669 97.3985L53.3642 97.5696L51.3888 97.756L49.4419 97.9578L47.5248 98.1748L45.6386 98.4071L43.7846 98.6544L41.9638 98.9169L40.1775 99.1943L38.4267 99.4866L36.7125 99.7937L35.0361 100.116L33.3985 100.452L31.8008 100.803L30.2439 101.168L28.7288 101.548L27.2565 101.941L25.8279 102.349L24.444 102.77L23.1056 103.205L21.8136 103.654L20.5688 104.116L19.3721 104.591L18.2241 105.079L17.1257 105.58L16.0775 106.094L15.0802 106.621L14.1346 107.159L13.2411 107.71L12.4004 108.273L11.6131 108.847L10.8796 109.433L10.2005 110.03L9.57625 110.638L9.00724 111.257L8.49387 111.886L8.0365 112.526L7.63546 113.176L7.29103 113.836L7.00348 114.505L6.77301 115.183L6.59982 115.871L6.48406 116.567L6.42583 117.272L6.42523 117.985L6.48228 118.706L6.59702 119.435L6.76939 120.171L6.99936 120.913L7.2868 121.663L7.6316 122.419L8.03359 123.181L8.49255 123.949L9.00826 124.723L9.58043 125.501L10.2088 126.284L10.8929 127.072L11.6325 127.864L12.4271 128.66L13.2763 129.459L14.1795 130.261L15.1364 131.067L16.1462 131.874L17.2086 132.684L18.3227 133.495L19.4881 134.308L20.7039 135.121L21.9696 135.935L23.2843 136.75L24.6473 137.564L26.0578 138.378L27.515 139.191L29.0179 140.003L30.5658 140.813L32.1576 141.621L33.7925 142.427L35.4694 143.23L37.1875 144.03L38.9455 144.827L40.7426 145.62L42.5775 146.408L44.4493 147.192L46.3567 147.971L48.2987 148.744L50.2741 149.512L52.2817 150.273L54.3203 151.028L56.3886 151.776L58.4854 152.517L60.6094 153.25L62.7594 153.975L64.934 154.692L67.1319 155.4L69.3519 156.099L71.5925 156.788L73.8523 157.467L76.1301 158.137L78.4244 158.795L80.7339 159.443L83.057 160.08L85.3925 160.704L87.7388 161.317L90.0946 161.918L92.4584 162.506L94.8287 163.081L97.2042 163.642L99.5833 164.19L101.965 164.724L104.347 165.244L106.728 165.749L109.107 166.239L111.483 166.714L113.853 167.174L116.217 167.618L118.573 168.045L120.919 168.457L123.254 168.852L125.578 169.23L127.887 169.591L130.181 169.934L132.458 170.26L134.718 170.568L136.958 170.858L139.177 171.13L141.374 171.383L143.547 171.617L145.696 171.833L147.818 172.029L149.913 172.206L151.978 172.364L154.014 172.502L156.018 172.621L157.99 172.719L159.928 172.797L161.83 172.856L163.697 172.893L165.526 172.911L167.316 172.908L169.067 172.884L170.776 172.84L172.444 172.775L174.069 172.689L175.65 172.582L177.186 172.454L178.677 172.306L180.12 172.136L181.515 171.946L182.862 171.734L184.16 171.502L185.407 171.249L186.603 170.974L187.747 170.679L188.838 170.363L189.876 170.027L190.861 169.669L191.79 169.291L192.665 168.893L193.483 168.474L194.246 168.035L194.951 167.576L195.599 167.097L196.19 166.598L196.722 166.08L197.196 165.542L197.612 164.985L197.968 164.408L198.265 163.813L198.502 163.199L198.68 162.567L198.798 161.916L198.856 161.247L198.854 160.561L198.792 159.858L198.67 159.137L198.488 158.399L198.246 157.645L197.945 156.875L197.583 156.089L197.163 155.287L196.683 154.47L196.144 153.638L195.547 152.792L194.891 151.931L194.178 151.057L193.407 150.169L192.579 149.269L191.694 148.356L190.754 147.431L189.758 146.494L188.707 145.546L187.601 144.587L186.442 143.618L185.231 142.639L183.967 141.65L182.651 140.653L181.285 139.647L179.869 138.633L178.403 137.612L176.89 136.583L175.33 135.549L173.723 134.508L172.071 133.462L170.374 132.411L168.635 131.356L166.853 130.296L165.029 129.234L163.166 128.169L161.264 127.102L159.324 126.033L157.347 124.963L155.335 123.892L153.288 122.822L151.209 121.752L149.098 120.684L146.957 119.617L144.786 118.553L142.588 117.492L140.363 116.434L138.113 115.38L135.839 114.331L133.543 113.288L131.226 112.25L128.89 111.218L126.535 110.194L124.164 109.178L121.778 108.169L119.378 107.169L116.965 106.179L114.542 105.199L112.109 104.229L109.669 103.27L107.222 102.323L104.77 101.388L102.316 100.466L99.8588 99.5568L97.4017 98.6618L94.9458 97.7812L92.4927 96.9155L90.0437 96.0653L87.6005 95.2312L85.1644 94.4136L82.7371 93.613L80.32 92.8301L77.9146 92.0652L75.5224 91.3188L73.1448 90.5915L70.7834 89.8837L68.4395 89.196L66.1147 88.5287L63.8103 87.8823L61.5278 87.2572L59.2685 86.654L57.034 86.0729L54.8255 85.5145L52.6445 84.9792L50.4922 84.4672L48.3701 83.9791L46.2793 83.5151L44.2213 83.0756L42.1973 82.6611L40.2085 82.2717L38.2562 81.9079L36.3416 81.5699L34.4659 81.258L32.6302 80.9726L30.8357 80.7138L29.0835 80.482L27.3747 80.2773L25.7103 80.1001L24.0914 79.9504L22.519 79.8286L20.9941 79.7348L19.5176 79.6692L18.0905 79.6319L16.7136 79.623L15.3878 79.6428L14.1139 79.6912L12.8927 79.7684L11.725 79.8745L10.6116 80.0095L9.55306 80.1734L8.55011 80.3664L7.60339 80.5884L6.71347 80.8393L5.88094 81.1192L5.1063 81.4281L4.39007 81.7659L3.73268 82.1325L3.13456 82.5278L2.5961 82.9517L2.11763 83.4041L1.69948 83.885L1.3419 84.394L1.04514 84.931L0.809399 85.4959L0.63483 86.0885L0.521556 86.7085L0.469664 87.3557L0.479202 88.0298L0.550176 88.7306L0.682559 89.4578L0.876283 90.2111L1.13125 90.9901L1.4473 91.7945L1.82428 92.6241L2.26195 93.4783L2.76006 94.3568L3.31833 95.2593L3.93642 96.1853L4.61396 97.1343L5.35055 98.106L6.14576 99.0999L6.9991 100.115L7.91007 101.152L8.87812 102.21L9.90266 103.288L10.9831 104.385L12.1187 105.501L13.3089 106.636L14.5529 107.789L15.85 108.96L17.1993 110.147L18.6001 111.351L20.0515 112.57L21.5527 113.804L23.1026 115.052L24.7005 116.314L26.3452 117.589L28.0358 118.877L29.7713 120.176L31.5506 121.485L33.3727 122.806L35.2363 124.135L37.1404 125.474L39.0839 126.82L41.0654 128.174L43.0839 129.535L45.1381 130.901L47.2266 132.273L49.3484 133.648L51.5019 135.028L53.686 136.41L55.8993 137.794L58.1405 139.179L60.4081 140.565L62.7007 141.951L65.0171 143.335L67.3557 144.717L69.7151 146.097L72.0939 147.473L74.4906 148.845L76.9038 150.211L79.3319 151.572L81.7734 152.926L84.227 154.272L86.691 155.61L89.164 156.939L91.6444 158.258L94.1308 159.566L96.6215 160.863L99.115 162.147L101.61 163.419L104.105 164.676L106.598 165.919L109.087 167.146L111.572 168.357L114.051 169.552L116.521 170.728L118.983 171.886L121.433 173.025L123.871 174.144L126.295 175.243L128.704 176.32L131.096 177.375L133.47 178.408L135.823 179.417L138.156 180.402L140.466 181.363L142.752 182.298L145.012 183.207L147.245 184.09L149.45 184.945L151.626 185.773L153.77 186.572L155.883 187.343L157.961 188.084L160.005 188.795L162.013 189.476L163.983 190.125L165.914 190.743L167.806 191.33L169.657 191.883L171.466 192.404L173.232 192.892L174.953 193.346L176.63 193.766L178.259 194.152L179.842 194.503L181.376 194.819L182.861 195.1L184.295 195.345L185.679 195.554L187.01 195.727L188.289 195.864L189.514 195.964L190.685 196.027L191.801 196.054L192.861 196.043L193.865 195.995L194.812 195.91L195.701 195.788L196.532 195.628L197.305 195.431L198.018 195.197L198.672 194.925L199.266 194.616L199.799 194.269L200.272 193.885L200.684 193.465L201.035 193.007L201.325 192.512L201.553 191.98L201.719 191.412L201.823 190.808L201.865 190.168" stroke="url(#paint0_linear_87_1591)" stroke-width="0.961242"/>
<defs>
<linearGradient id="paint0_linear_87_1591" x1="101.167" y1="15.6286" x2="0.466793" y2="190.046" gradientUnits="userSpaceOnUse">
<stop stop-color="#9E00FF"/>
<stop offset="1" stop-color="#000AFF"/>
</linearGradient>
</defs>
</svg>
