<svg width="235" height="235" viewBox="0 0 235 235" fill="none" xmlns="http://www.w3.org/2000/svg">
<path d="M233.556 117.278L233.521 116.613L233.413 115.948L233.235 115.284L232.985 114.621L232.664 113.959L232.272 113.298L231.809 112.639L231.276 111.982L230.673 111.327L230 110.674L229.258 110.024L228.447 109.377L227.567 108.733L226.62 108.093L225.605 107.457L224.524 106.825L223.377 106.196L222.165 105.573L220.889 104.954L219.548 104.341L218.145 103.732L216.68 103.13L215.154 102.533L213.567 101.942L211.922 101.358L210.218 100.78L208.457 100.209L206.64 99.6448L204.768 99.0882L202.842 98.5392L200.864 97.998L198.835 97.4648L196.755 96.9398L194.627 96.4233L192.451 95.9156L190.229 95.4168L187.962 94.9272L185.652 94.4469L183.299 93.9762L180.906 93.5153L178.474 93.0645L176.005 92.6238L173.5 92.1936L170.96 91.774L168.387 91.3652L165.782 90.9674L163.148 90.5808L160.486 90.2055L157.797 89.8419L155.084 89.4899L152.347 89.1498L149.589 88.8218L146.811 88.5061L144.015 88.2027L141.203 87.9118L138.376 87.6337L135.536 87.3684L132.685 87.1161L129.824 86.8769L126.956 86.6509L124.082 86.4384L121.204 86.2393L118.324 86.0538L115.443 85.8821L112.563 85.7242L109.686 85.5803L106.814 85.4504L103.949 85.3347L101.092 85.2331L98.2443 85.1459L95.4088 85.073L92.5868 85.0146L89.7801 84.9707L86.9903 84.9413L84.2192 84.9266L81.4684 84.9266L78.7397 84.9413L76.0348 84.9707L73.3552 85.0149L70.7027 85.074L68.0788 85.1478L65.4852 85.2365L62.9234 85.3401L60.395 85.4585L57.9017 85.5917L55.4448 85.7398L53.0259 85.9026L50.6465 86.0803L48.308 86.2727L46.0119 86.4799L43.7595 86.7017L41.5523 86.9381L39.3916 87.1891L37.2787 87.4547L35.2149 87.7346L33.2015 88.029L31.2396 88.3376L29.3305 88.6604L27.4754 88.9973L25.6753 89.3482L23.9314 89.713L22.2447 90.0915L20.6163 90.4837L19.0472 90.8895L17.5382 91.3086L16.0903 91.741L14.7044 92.1865L13.3814 92.645L12.1219 93.1162L10.9269 93.6001L9.79693 94.0964L8.73278 94.605L7.73505 95.1257L6.80434 95.6583L5.94121 96.2025L5.14618 96.7583L4.41972 97.3254L3.76226 97.9035L3.17419 98.4925L2.65586 99.0921L2.20756 99.702L1.82955 100.322L1.52206 100.952L1.28525 101.592L1.11926 102.241L1.02416 102.899L1 103.566L1.04678 104.242L1.16445 104.926L1.35292 105.617L1.61205 106.317L1.94168 107.024L2.34158 107.738L2.81148 108.459L3.35109 109.187L3.96004 109.92L4.63796 110.66L5.38439 111.405L6.19888 112.156L7.0809 112.911L8.02988 113.671L9.04524 114.435L10.1263 115.202L11.2724 115.974L12.4829 116.748L13.7569 117.526L15.0937 118.306L16.4924 119.087L17.9521 119.871L19.472 120.656L21.0511 121.442L22.6883 122.229L24.3827 123.015L26.1333 123.802L27.9388 124.588L29.7983 125.374L31.7105 126.157L33.6743 126.94L35.6883 127.72L37.7515 128.498L39.8624 129.273L42.0199 130.044L44.2225 130.813L46.4688 131.577L48.7576 132.336L51.0873 133.091L53.4565 133.841L55.8638 134.585L58.3076 135.323L60.7865 136.055L63.2989 136.781L65.8433 137.499L68.4181 138.209L71.0216 138.912L73.6524 139.606L76.3087 140.292L78.989 140.968L81.6915 141.636L84.4146 142.293L87.1567 142.94L89.916 143.577L92.6908 144.203L95.4794 144.818L98.2802 145.421L101.091 146.012L103.911 146.591L106.738 147.157L109.57 147.71L112.405 148.25L115.242 148.776L118.079 149.288L120.914 149.786L123.746 150.269L126.573 150.737L129.392 151.19L132.203 151.628L135.003 152.049L137.791 152.455L140.565 152.844L143.324 153.217L146.066 153.572L148.788 153.91L151.49 154.231L154.17 154.535L156.825 154.82L159.456 155.087L162.059 155.336L164.633 155.566L167.178 155.777L169.69 155.97L172.169 156.143L174.613 156.297L177.021 156.431L179.391 156.546L181.722 156.641L184.012 156.716L186.26 156.771L188.465 156.806L190.625 156.82L192.739 156.814L194.806 156.788L196.824 156.741L198.792 156.673L200.709 156.585L202.574 156.476L204.386 156.346L206.144 156.195L207.846 156.023L209.492 155.831L211.08 155.618L212.61 155.384L214.081 155.129L215.491 154.853L216.841 154.557L218.129 154.24L219.354 153.903L220.516 153.545L221.614 153.166L222.648 152.768L223.616 152.349L224.518 151.91L225.355 151.452L226.124 150.973L226.826 150.475L227.461 149.958L228.028 149.422L228.526 148.866L228.956 148.292L229.317 147.699L229.609 147.088L229.832 146.459L229.985 145.812L230.07 145.147L230.085 144.465L230.031 143.767L229.907 143.051L229.715 142.319L229.453 141.571L229.123 140.807L228.725 140.028L228.258 139.233L227.723 138.424L227.121 137.601L226.451 136.764L225.715 135.913L224.912 135.049L224.044 134.172L223.111 133.283L222.113 132.382L221.052 131.47L219.927 130.546L218.74 129.612L217.491 128.668L216.181 127.714L214.811 126.751L213.382 125.779L211.894 124.799L210.349 123.811L208.748 122.816L207.092 121.815L205.381 120.807L203.617 119.793L201.801 118.774L199.934 117.751L198.017 116.724L196.052 115.693L194.039 114.659L191.98 113.623L189.876 112.585L187.729 111.545L185.54 110.505L183.31 109.465L181.04 108.424L178.733 107.385L176.389 106.348L174.01 105.312L171.597 104.28L169.152 103.25L166.677 102.225L164.173 101.203L161.641 100.187L159.083 99.1764L156.501 98.1719L153.896 97.1742L151.27 96.1838L148.624 95.2012L145.961 94.2272L143.281 93.2622L140.587 92.3068L137.88 91.3617L135.162 90.4272L132.434 89.5041L129.698 88.5929L126.956 87.6941L124.209 86.8083L121.46 85.936L118.709 85.0778L115.959 84.2341L113.212 83.4056L110.468 82.5928L107.729 81.7961L104.998 81.0161L102.276 80.2533L99.5649 79.5082L96.8657 78.7812L94.1804 78.0729L91.5106 77.3837L88.858 76.7141L86.2242 76.0645L83.6108 75.4354L81.0193 74.8272L78.4514 74.2404L75.9086 73.6752L73.3925 73.1323L70.9045 72.6119L68.4462 72.1144L66.0191 71.6403L63.6246 71.1898L61.2643 70.7633L58.9394 70.3612L56.6514 69.9837L54.4017 69.6312L52.1917 69.304L50.0226 69.0023L47.8958 68.7265L45.8126 68.4768L43.7741 68.2534L41.7817 68.0566L39.8364 67.8866L37.9395 67.7435L36.0921 67.6277L34.2953 67.5391L32.5502 67.4781L30.8578 67.4447L29.219 67.439L27.6349 67.4613L26.1064 67.5115L24.6344 67.5898L23.2197 67.6962L21.8632 67.8308L20.5656 67.9936L19.3278 68.1846L18.1505 68.4038L17.0342 68.6513L15.9797 68.9269L14.9875 69.2306L14.0583 69.5624L13.1925 69.9222L12.3906 70.3098L11.6531 70.7253L10.9804 71.1683L10.3728 71.6389L9.83063 72.1368L9.35425 72.6618L8.94386 73.2138L8.59965 73.7926L8.32181 74.3978L8.11043 75.0293L7.96562 75.6869L7.88739 76.3701L7.87575 77.0788L7.93066 77.8126L8.05203 78.5712L8.23974 79.3543L8.49362 80.1615L8.81346 80.9924L9.19902 81.8466L9.65002 82.7238L10.1661 83.6236L10.747 84.5454L11.3921 85.4888L12.1012 86.4535L12.8736 87.4389L13.709 88.4444L14.6066 89.4697L15.566 90.5143L16.5864 91.5774L17.6673 92.6588L18.8078 93.7577L20.0073 94.8736L21.265 96.0059L22.58 97.1541L23.9516 98.3175L25.3787 99.4956L26.8605 100.688L28.3961 101.893L29.9845 103.111L31.6245 104.341L33.3153 105.583L35.0557 106.835L36.8446 108.098L38.6809 109.369L40.5634 110.65L42.491 111.938L44.4623 113.233L46.4762 114.535L48.5314 115.843L50.6265 117.156L52.7604 118.473L54.9316 119.794L57.1388 121.117L59.3806 122.443L61.6556 123.769L63.9623 125.097L66.2994 126.424L68.6654 127.75L71.0587 129.074L73.478 130.396L75.9217 131.714L78.3883 133.029L80.8763 134.338L83.3841 135.642L85.9102 136.939L88.4529 138.229L91.0108 139.511L93.5823 140.785L96.1657 142.048L98.7596 143.302L101.362 144.544L103.972 145.775L106.587 146.993L109.207 148.198L111.828 149.389L114.451 150.565L117.072 151.725L119.691 152.869L122.307 153.996L124.916 155.106L127.518 156.197L130.112 157.269L132.695 158.321L135.266 159.353L137.823 160.363L140.365 161.352L142.891 162.318L145.399 163.262L147.886 164.181L150.353 165.076L152.797 165.947L155.217 166.791L157.611 167.61L159.978 168.402L162.317 169.167L164.626 169.904L166.903 170.613L169.148 171.293L171.359 171.944L173.535 172.565L175.674 173.156L177.775 173.716L179.837 174.245L181.859 174.743L183.839 175.209L185.777 175.643L187.671 176.044L189.519 176.412L191.322 176.747L193.078 177.048L194.785 177.315L196.443 177.549L198.051 177.748L199.609 177.912L201.114 178.042L202.566 178.137L203.965 178.196L205.309 178.22L206.598 178.209L207.831 178.163L209.008 178.081L210.127 177.963L211.188 177.809L212.191 177.62L213.135 177.395L214.019 177.134L214.843 176.838L215.606 176.506L216.309 176.139L216.95 175.736L217.53 175.298L218.047 174.825L218.503 174.317L218.896 173.774L219.227 173.197L219.495 172.585L219.7 171.94L219.842 171.26L219.921 170.548L219.938 169.802L219.892 169.023L219.783 168.211L219.611 167.368L219.377 166.493L219.081 165.587L218.723 164.65L218.303 163.683L217.822 162.685L217.28 161.659L216.677 160.604L216.015 159.52L215.292 158.408L214.51 157.27L213.67 156.105L212.772 154.914L211.816 153.697L210.803 152.456L209.735 151.191L208.61 149.902L207.432 148.591L206.199 147.258L204.913 145.904L203.575 144.529L202.186 143.134L200.746 141.721L199.257 140.289L197.719 138.84L196.134 137.374L194.502 135.893L192.825 134.397L191.103 132.886L189.338 131.363L187.531 129.827L185.683 128.279L183.795 126.721L181.868 125.154L179.904 123.577L177.904 121.993L175.869 120.401L173.8 118.804L171.699 117.201L169.566 115.595L167.405 113.985L165.214 112.372L162.997 110.759L160.755 109.145L158.488 107.531L156.198 105.92L153.887 104.31L151.556 102.704L149.207 101.103L146.841 99.5067L144.459 97.9169L142.063 96.3345L139.655 94.7603L137.235 93.1954L134.806 91.6406L132.369 90.097L129.925 88.5655L127.476 87.047L125.023 85.5425L122.569 84.0529L120.114 82.5791L117.659 81.1221L115.207 79.6827L112.759 78.2619L110.316 76.8606L107.881 75.4796L105.453 74.1198L103.035 72.7821L100.629 71.4674L98.2353 70.1765L95.8557 68.9102L93.4918 67.6693L91.1449 66.4547L88.8165 65.2671L86.5079 64.1074L84.2205 62.9763L81.9557 61.8744L79.7148 60.8027L77.4992 59.7618L75.3103 58.7523L73.1492 57.775L71.0173 56.8306L68.9159 55.9196L66.8462 55.0428L64.8094 54.2007L62.8067 53.394L60.8393 52.6231L58.9084 51.8887L57.015 51.1912L55.1603 50.5313L53.3454 49.9094L51.5714 49.3259L49.8392 48.7813L48.1498 48.276L46.5043 47.8104L44.9036 47.385L43.3485 47L41.8401 46.6558L40.3791 46.3527L38.9663 46.091L37.6027 45.871L36.2889 45.6928L35.0256 45.5567L33.8137 45.4629L32.6537 45.4116L31.5463 45.4028L30.4921 45.4367L29.4916 45.5134L28.5455 45.6329L27.6542 45.7953L26.8182 46.0006L26.0378 46.2487L25.3136 46.5397L24.6459 46.8734L24.035 47.2498L23.4812 47.6686L22.9848 48.1299L22.546 48.6334L22.165 49.1789L21.8419 49.7662L21.5768 50.395L21.3699 51.0651L21.2212 51.7762L21.1307 52.5278L21.0984 53.3198L21.1242 54.1517L21.208 55.023L21.3497 55.9334L21.5491 56.8825L21.806 57.8697L22.1202 58.8945L22.4914 59.9564L22.9194 61.0549L23.4037 62.1894L23.944 63.3593L24.5399 64.564L25.1909 65.8028L25.8966 67.0751L26.6565 68.3801L27.4699 69.7173L28.3365 71.0858L29.2555 72.4849L30.2263 73.9138L31.2483 75.3718L32.3207 76.858L33.4428 78.3716L34.614 79.9118L35.8333 81.4777L37.1 83.0684L38.4133 84.6831L39.7722 86.3207L41.176 87.9805L42.6236 89.6613L44.1141 91.3623L45.6466 93.0825L47.22 94.8209L48.8333 96.5765L50.4856 98.3482L52.1757 100.135L53.9026 101.936L55.6651 103.75L57.4621 105.576L59.2926 107.413L61.1552 109.26L63.0489 111.116L64.9724 112.979L66.9245 114.849L68.9041 116.724L70.9098 118.604L72.9403 120.486L74.9945 122.371L77.0711 124.257L79.1686 126.142L81.2859 128.027L83.4216 129.908L85.5744 131.787L87.743 133.66L89.9259 135.528L92.122 137.388L94.3297 139.241L96.5477 141.084L98.7748 142.916L101.009 144.738L103.25 146.546L105.496 148.341L107.745 150.121L109.997 151.884L112.249 153.631L114.5 155.36L116.75 157.069L118.996 158.758L121.238 160.425L123.473 162.07L125.701 163.692L127.92 165.289L130.13 166.861L132.327 168.405L134.513 169.923L136.683 171.412L138.839 172.871L140.978 174.3L143.099 175.698L145.201 177.064L147.283 178.396L149.343 179.694L151.38 180.958L153.393 182.186L155.381 183.377L157.343 184.531L159.276 185.647L161.182 186.724L163.057 187.762L164.902 188.759L166.714 189.715L168.494 190.63L170.24 191.503L171.95 192.332L173.625 193.118L175.262 193.86L176.862 194.558L178.423 195.211L179.944 195.817L181.425 196.378L182.864 196.893L184.262 197.361L185.616 197.781L186.926 198.154L188.192 198.479L189.413 198.756L190.588 198.984L191.717 199.164L192.799 199.295L193.833 199.376L194.819 199.409L195.756 199.392L196.644 199.326L197.483 199.21L198.271 199.045L199.009 198.83L199.696 198.566L200.332 198.252L200.917 197.889L201.45 197.477L201.931 197.016L202.36 196.506L202.737 195.948L203.061 195.341L203.333 194.686L203.552 193.983L203.719 193.233L203.832 192.435L203.893 191.591L203.902 190.7L203.858 189.764L203.762 188.782L203.613 187.756L203.413 186.685L203.161 185.57L202.857 184.412L202.501 183.212L202.095 181.97L201.638 180.686L201.131 179.362L200.574 177.998L199.967 176.596L199.312 175.154L198.608 173.676L197.855 172.16L197.056 170.609L196.209 169.023L195.316 167.403L194.378 165.75L193.394 164.065L192.366 162.349L191.295 160.602L190.18 158.826L189.024 157.022L187.825 155.191L186.587 153.333L185.308 151.451L183.991 149.545L182.635 147.616L181.243 145.665L179.814 143.694L178.35 141.703L176.851 139.694L175.319 137.668L173.755 135.627L172.159 133.57L170.533 131.501L168.878 129.419L167.194 127.326L165.483 125.224L163.746 123.113L161.984 120.995L160.197 118.871L158.389 116.743L156.558 114.612L154.707 112.478L152.837 110.343L150.948 108.21L149.043 106.078L147.121 103.949L145.185 101.825L143.236 99.7062L141.274 97.5947L139.301 95.4916L137.319 93.3982L135.328 91.3156L133.329 89.2453L131.324 87.1885L129.315 85.1464L127.302 83.1204L125.286 81.1117L123.269 79.1215L121.252 77.1511L119.236 75.2017L117.222 73.2746L115.212 71.3709L113.207 69.4918L111.208 67.6385L109.216 65.8122L107.233 64.0141L105.259 62.2453L103.296 60.5068L101.345 58.7999L99.4063 57.1256L97.4823 55.485L95.5736 53.8791L93.6814 52.3089L91.8067 50.7756L89.9507 49.28L88.1144 47.8231L86.2989 46.406L84.5053 45.0294L82.7346 43.6944L80.9878 42.4018L79.2659 41.1525L77.5699 39.9472L75.9008 38.7868L74.2595 37.6721L72.647 36.6039L71.0641 35.5827L69.5118 34.6095L67.9909 33.6847L66.5024 32.8091L65.0469 31.9832L63.6254 31.2077L62.2385 30.4832L60.8872 29.81L59.572 29.1887L58.2938 28.6199L57.0532 28.1038L55.8509 27.6409L54.6875 27.2316L53.5637 26.8762L52.48 26.575L51.437 26.3283L50.4352 26.1363L49.4753 25.9992L48.5575 25.9172L47.6825 25.8904L46.8507 25.9189L46.0624 26.0028L45.3181 26.1421L44.618 26.3369L43.9626 26.587L43.352 26.8925L42.7867 27.2532L42.2668 27.6689L41.7926 28.1396L41.3641 28.6651L40.9817 29.245L40.6454 29.8791L40.3553 30.5671L40.1115 31.3087L39.914 32.1035L39.7629 32.9511L39.6581 33.851L39.5997 34.8029L39.5875 35.8061L39.6214 36.8602L39.7013 37.9646L39.8271 39.1187L39.9986 40.3218L40.2156 41.5733L40.4779 42.8726L40.7851 44.2189L41.1371 45.6114L41.5335 47.0493L41.9739 48.532L42.458 50.0584L42.9855 51.6278L43.5558 53.2393L44.1686 54.8918L44.8234 56.5846L45.5197 58.3166L46.257 60.0869L47.0347 61.8943L47.8524 63.7378L48.7093 65.6165L49.605 67.5291L50.5388 69.4746L51.51 71.4519L52.518 73.4597L53.562 75.4968L54.6415 77.5622L55.7556 79.6546L56.9036 81.7727L58.0847 83.9152L59.2981 86.081L60.5431 88.2687L61.8189 90.477L63.1245 92.7046L64.4592 94.9501L65.822 97.2123L67.2121 99.4898L68.6286 101.781L70.0706 104.085L71.5371 106.4L73.0273 108.725L74.5401 111.058L76.0746 113.398L77.6299 115.743L79.205 118.093L80.7988 120.445L82.4104 122.799L84.0388 125.152L85.6829 127.504L87.3418 129.852L89.0143 132.196L90.6996 134.534L92.3964 136.865L94.1039 139.187L95.8209 141.498L97.5464 143.798L99.2794 146.085L101.019 148.357L102.763 150.614L104.512 152.853L106.265 155.073L108.019 157.274L109.774 159.452L111.53 161.608L113.284 163.74L115.037 165.847L116.786 167.926L118.532 169.978L120.272 172L122.006 173.991L123.733 175.951L125.452 177.877L127.161 179.769L128.86 181.625L130.549 183.445L132.225 185.226L133.887 186.969L135.536 188.671L137.17 190.332L138.788 191.951L140.388 193.526L141.971 195.057L143.536 196.543L145.081 197.982L146.605 199.374L148.108 200.718L149.589 202.012L151.047 203.257L152.481 204.451L153.89 205.593L155.274 206.683L156.632 207.72L157.963 208.704L159.267 209.632L160.542 210.506L161.789 211.324L163.005 212.086L164.192 212.791L165.347 213.439L166.472 214.029L167.563 214.561L168.623 215.035L169.649 215.449L170.641 215.805L171.599 216.1L172.523 216.336L173.411 216.512L174.264 216.628L175.081 216.684L175.861 216.679L176.605 216.613L177.311 216.487L177.98 216.301L178.611 216.054L179.205 215.746L179.76 215.379L180.277 214.951L180.755 214.463L181.194 213.915L181.594 213.308L181.955 212.642L182.277 211.917L182.559 211.134L182.802 210.292L183.006 209.393L183.17 208.437L183.295 207.424L183.381 206.355L183.427 205.231L183.434 204.052L183.401 202.819L183.33 201.532L183.22 200.193L183.071 198.801L182.884 197.358L182.659 195.865L182.395 194.323L182.094 192.732L181.755 191.093L181.379 189.407L180.966 187.675L180.517 185.899L180.031 184.079L179.51 182.216L178.954 180.312L178.362 178.367L177.737 176.383L177.077 174.361L176.383 172.301L175.657 170.206L174.898 168.077L174.108 165.914L173.285 163.719L172.433 161.494L171.55 159.239L170.637 156.957L169.695 154.647L168.725 152.313L167.728 149.955L166.703 147.574L165.652 145.172L164.576 142.751L163.474 140.312L162.348 137.856L161.199 135.385L160.028 132.9L158.834 130.403L157.619 127.896L156.383 125.379L155.128 122.855L153.854 120.325L152.563 117.791L151.254 115.254L149.928 112.715L148.587 110.177L147.231 107.64L145.862 105.106L144.479 102.578L143.084 100.055L141.678 97.5411L140.261 95.0363L138.835 92.5425L137.4 90.0613L135.957 87.5943L134.508 85.1429L133.052 82.7086L131.59 80.2929L130.125 77.8975L128.656 75.5237L127.184 73.1729L125.71 70.8468L124.236 68.5467L122.761 66.2741L121.288 64.0303L119.816 61.8169L118.346 59.6351L116.881 57.4863L115.419 55.3719L113.962 53.2933L112.511 51.2516L111.067 49.2483L109.631 47.2846L108.203 45.3616L106.784 43.4807L105.375 41.643L103.977 39.8497L102.591 38.102L101.217 36.4008L99.856 34.7475L98.5088 33.1429L97.1763 31.5881L95.8592 30.0842L94.5581 28.632L93.2737 27.2326L92.0068 25.8868L90.758 24.5956L89.5281 23.3597L88.3176 22.1799L87.1272 21.0571L85.9576 19.992L84.8093 18.9853L83.6829 18.0376L82.5791 17.1496L81.4984 16.322L80.4413 15.5551L79.4084 14.8497L78.4002 14.2062L77.4172 13.6249L76.46 13.1064L75.5289 12.6511L74.6244 12.2591L73.747 11.931L72.8971 11.6668L72.0751 11.4669L71.2813 11.3313L70.5162 11.2604L69.78 11.254L69.0732 11.3124L68.396 11.4356L67.7487 11.6234L67.1316 11.8759L66.5449 12.193L65.989 12.5745L65.4639 13.0203L64.9699 13.53L64.5072 14.1036L64.076 14.7407L63.6764 15.4409L63.3084 16.2039L62.9723 17.0292L62.668 17.9165L62.3958 18.8652L62.1555 19.8748L61.9473 20.9447L61.7711 22.0743L61.6269 23.263L61.5148 24.5101L61.4347 25.815L61.3864 27.1767L61.37 28.5946L61.3852 30.0679L61.4321 31.5956L61.5104 33.1769L61.6201 34.8109L61.7608 36.4966L61.9325 38.233L62.135 40.0191L62.3679 41.8538L62.6311 43.7361L62.9244 45.6648L63.2473 47.6389L63.5997 49.657L63.9812 51.7181L64.3916 53.8209L64.8304 55.9641L65.2973 58.1465L65.792 60.3668L66.3141 62.6235L66.8631 64.9155L67.4387 67.2412L68.0404 69.5993L68.6678 71.9884L69.3205 74.4071L69.9979 76.8538L70.6997 79.3271L71.4252 81.8256L72.1741 84.3476L72.9457 86.8917L73.7396 89.4563L74.5553 92.0398L75.3921 94.6408L76.2496 97.2576L77.1272 99.8886L78.0242 102.532L78.9402 105.187L79.8745 107.851L80.8265 110.523L81.7956 113.201L82.7812 115.883L83.7827 118.568L84.7994 121.255L85.8308 123.941L86.8761 126.625L87.9347 129.305L89.0061 131.98L90.0894 134.648L91.1841 137.307L92.2895 139.956L93.4049 142.593L94.5296 145.216L95.6631 147.824L96.8045 150.416L97.9533 152.989L99.1087 155.542L100.27 158.073L101.437 160.582L102.608 163.065L103.783 165.523L104.962 167.952L106.143 170.353L107.326 172.722L108.51 175.06L109.695 177.363L110.879 179.632L112.063 181.864L113.245 184.058L114.426 186.213L115.603 188.327L116.777 190.399L117.947 192.428L119.113 194.412L120.272 196.351L121.426 198.242L122.574 200.086L123.714 201.88L124.846 203.623L125.97 205.315L127.085 206.954L128.19 208.539L129.285 210.069L130.369 211.544L131.442 212.962L132.503 214.323L133.552 215.625L134.587 216.868L135.609 218.051L136.618 219.173L137.611 220.233L138.59 221.231L139.553 222.166L140.5 223.038L141.43 223.845L142.344 224.588L143.24 225.265L144.119 225.878L144.979 226.424L145.821 226.903L146.644 227.316L147.447 227.662L148.231 227.94L148.995 228.151L149.738 228.295L150.461 228.37L151.162 228.378L151.842 228.318L152.501 228.189L153.137 227.993L153.752 227.729L154.344 227.398L154.913 226.998L155.459 226.532L155.982 225.998L156.482 225.398L156.959 224.731L157.412 223.997L157.841 223.199L158.246 222.334L158.627 221.406L158.984 220.412L159.317 219.356L159.626 218.236L159.91 217.054L160.169 215.81L160.404 214.505L160.615 213.14L160.801 211.715L160.963 210.232L161.1 208.691L161.212 207.093L161.301 205.44L161.364 203.732L161.404 201.969L161.419 200.154L161.41 198.288L161.378 196.371L161.321 194.404L161.24 192.389L161.136 190.327L161.009 188.219L160.858 186.067L160.684 183.871L160.487 181.634L160.267 179.355L160.025 177.038L159.761 174.683L159.474 172.292L159.166 169.865L158.837 167.405L158.486 164.913L158.114 162.391L157.721 159.84L157.308 157.262L156.875 154.657L156.423 152.029L155.95 149.378L155.459 146.705L154.949 144.014L154.421 141.305L153.875 138.58L153.311 135.84L152.73 133.087L152.132 130.324L151.517 127.551L150.887 124.771L150.24 121.984L149.579 119.194L148.903 116.401L148.212 113.607L147.507 110.814L146.789 108.023L146.057 105.237L145.314 102.457L144.557 99.6846L143.789 96.9217L143.01 94.17L142.22 91.4311L141.42 88.7068L140.609 85.9986L139.79 83.3084L138.961 80.6377L138.124 77.9882L137.279 75.3616L136.426 72.7594L135.566 70.1833L134.7 67.6348L133.828 65.1156L132.95 62.6272L132.067 60.1711L131.179 57.7489L130.287 55.3621L129.392 53.0121L128.493 50.7004L127.592 48.4285L126.689 46.1977L125.784 44.0095L124.877 41.8652L123.97 39.7661L123.063 37.7136L122.156 35.7089L121.249 33.7533L120.344 31.848L119.44 29.9942L118.538 28.1931L117.638 26.4457L116.742 24.7533L115.849 23.1167L114.96 21.5372L114.075 20.0156L113.195 18.553L112.32 17.1502L111.45 15.8081L110.587 14.5276L109.73 13.3096L108.88 12.1546L108.037 11.0636L107.201 10.0372L106.374 9.07605L105.555 8.18077L104.745 7.35193L103.944 6.59007L103.152 5.89568L102.37 5.26923L101.599 4.71111L100.838 4.2217L100.088 3.80133L99.3491 3.45028L98.6218 3.16878L97.9064 2.95705L97.2032 2.81524L96.5124 2.74345L95.8344 2.74176L95.1695 2.8102L94.5178 2.94875L93.8798 3.15735L93.2556 3.4359L92.6454 3.78425L92.0496 4.20221L91.4684 4.68955L90.9019 5.246L90.3505 5.87123L89.8143 6.56489L89.2934 7.32659L88.7882 8.15586L88.2987 9.05222L87.8252 10.0152L87.3678 11.0441L86.9267 12.1384L86.5019 13.2975L86.0938 14.5206L85.7022 15.807L85.3275 17.156L84.9697 18.5667L84.6289 20.0383L84.3051 21.57L83.9986 23.1607L83.7092 24.8095L83.4372 26.5155L83.1826 28.2776L82.9454 30.0947L82.7256 31.9658L82.5234 33.8897L82.3386 35.8652L82.1713 37.8912L82.0216 39.9664L81.8894 42.0896L81.7747 44.2594L81.6775 46.4746L81.5978 48.7337L81.5355 51.0355L81.4905 53.3786L81.4629 55.7614L81.4525 58.1826L81.4593 60.6406L81.4833 63.134L81.5243 65.6613L81.5822 68.2209L81.657 70.8112L81.7485 73.4306L81.8566 76.0777L81.9812 78.7506L82.1222 81.4479L82.2794 84.1678L82.4527 86.9088L82.642 89.669L82.8471 92.4468L83.0678 95.2406L83.3039 98.0486L83.5554 100.869L83.8219 103.7L84.1034 106.54L84.3996 109.388L84.7103 112.241L85.0354 115.098L85.3745 117.957L85.7276 120.816L86.0944 123.673L86.4746 126.528L86.8681 129.377L87.2746 132.22L87.6938 135.054L88.1256 137.878L88.5696 140.69L89.0256 143.488L89.4934 146.271L89.9727 149.036L90.4633 151.783L90.9648 154.509L91.4771 157.213L91.9998 159.893L92.5326 162.548L93.0753 165.175L93.6276 167.774L94.1892 170.342L94.7598 172.878L95.3392 175.381L95.927 177.849L96.5229 180.28L97.1267 182.672L97.738 185.026L98.3566 187.338L98.9821 189.608L99.6143 191.834L100.253 194.014L100.897 196.148L101.548 198.234L102.203 200.271L102.864 202.258L103.53 204.192L104.2 206.074L104.874 207.902L105.552 209.675L106.233 211.391L106.918 213.05L107.606 214.65L108.297 216.192L108.989 217.672L109.684 219.092L110.38 220.449L111.078 221.744L111.777 222.974L112.476 224.14L113.177 225.241L113.877 226.276L114.577 227.244L115.276 228.145L115.975 228.978L116.673 229.743L117.369 230.439L118.064 231.066L118.757 231.624L119.447 232.111L120.135 232.528L120.821 232.875L121.503 233.15L122.181 233.355L122.856 233.489L123.527 233.551L124.194 233.543L124.857 233.463L125.514 233.312L126.167 233.09L126.814 232.796L127.456 232.433L128.092 231.998L128.721 231.493L129.345 230.918L129.962 230.274L130.572 229.56L131.175 228.777L131.77 227.926L132.359 227.008L132.939 226.021L133.511 224.969L134.075 223.85L134.631 222.665L135.178 221.416L135.716 220.103L136.245 218.728L136.765 217.289L137.275 215.79L137.776 214.23L138.267 212.61L138.747 210.932L139.218 209.197L139.678 207.405L140.127 205.557L140.566 203.656L140.994 201.701L141.41 199.695L141.815 197.638L142.209 195.531L142.592 193.377L142.962 191.176L143.321 188.929L143.668 186.639L144.003 184.306L144.325 181.932L144.635 179.518L144.933 177.065L145.218 174.576L145.49 172.052L145.75 169.495L145.997 166.905L146.231 164.284L146.451 161.635L146.659 158.959L146.853 156.257L147.034 153.531L147.202 150.782L147.356 148.014L147.497 145.226L147.624 142.421L147.738 139.6L147.838 136.766L147.925 133.92L147.997 131.064L148.057 128.199L148.102 125.328L148.134 122.451L148.151 119.572L148.155 116.691L148.146 113.81L148.122 110.932L148.085 108.057L148.034 105.188L147.969 102.327L147.891 99.4742L147.799 96.6328L147.693 93.804L147.574 90.9898L147.441 88.1916L147.295 85.4113L147.135 82.6507L146.962 79.9112L146.776 77.1948L146.576 74.5029L146.363 71.8374L146.137 69.1997L145.898 66.5916L145.646 64.0146L145.381 61.4704L145.103 58.9604L144.813 56.4863L144.51 54.0495L144.195 51.6515L143.868 49.2938L143.528 46.9779L143.176 44.7051L142.813 42.477L142.437 40.2947L142.05 38.1598L141.652 36.0734L141.242 34.0369L140.821 32.0515L140.388 30.1184L139.945 28.2388L139.492 26.4139L139.027 24.6448L138.553 22.9325L138.068 21.2781L137.573 19.6827L137.069 18.1472L136.555 16.6725L136.031 15.2595L135.498 13.9092L134.956 12.6222L134.406 11.3995L133.847 10.2417L133.279 9.14964L132.703 8.12387L132.12 7.16505L131.529 6.27376L130.93 5.45054L130.324 4.6959L129.711 4.0103L129.092 3.39413L128.466 2.84779L127.833 2.37158L127.195 1.96581L126.551 1.63071L125.902 1.36647L125.247 1.17326L124.587 1.05119L123.923 1.00031L123.255 1.02066L122.582 1.1122L121.905 1.27489L121.225 1.5086L120.542 1.81319L119.855 2.18845L119.166 2.63416L118.475 3.15002L117.781 3.73571L117.086 4.39086L116.389 5.11506L115.691 5.90785L114.991 6.76874L114.292 7.69718L113.591 8.69261L112.891 9.75439L112.191 10.8819L111.492 12.0743L110.794 13.331L110.096 14.6512L109.401 16.034L108.707 17.4786L108.015 18.9841L107.326 20.5496L106.639 22.174L105.955 23.8564L105.275 25.5958L104.599 27.3909L103.926 29.2409L103.258 31.1444L102.594 33.1003L101.936 35.1075L101.282 37.1646L100.634 39.2704L99.992 41.4235L99.356 43.6228L98.7265 45.8667L98.1038 48.1539L97.4881 50.4831L96.8798 52.8527L96.2792 55.2612L95.6866 57.7073L95.1022 60.1894L94.5263 62.7059L93.9593 65.2554L93.4015 67.8362L92.853 70.4467L92.3143 73.0854L91.7856 75.7506L91.2671 78.4406L90.7592 81.1539L90.2621 83.8887L89.7761 86.6433L89.3015 89.4161L88.8384 92.2054L88.3872 95.0093L87.9482 97.8263L87.5215 100.655L87.1074 103.492L86.7062 106.338L86.3181 109.19L85.9434 112.045L85.5821 114.904L85.2347 117.763L84.9012 120.621L84.582 123.477L84.2772 126.328L83.9869 129.173L83.7115 132.009L83.4511 134.836L83.2059 137.652L82.976 140.454L82.7616 143.242L82.563 146.013L82.3802 148.765L82.2134 151.498L82.0628 154.209L81.9285 156.896L81.8105 159.559L81.7092 162.195L81.6245 164.803L81.5566 167.381L81.5055 169.927L81.4715 172.441L81.4545 174.92L81.4547 177.363L81.472 179.769L81.5067 182.136L81.5587 184.462L81.6281 186.747L81.715 188.988L81.8193 191.185L81.9412 193.336L82.0805 195.44L82.2374 197.495L82.4117 199.501L82.6036 201.455L82.813 203.358L83.0399 205.207L83.2842 207.002L83.546 208.741L83.825 210.424L84.1214 212.049L84.4349 213.616L84.7656 215.124L85.1134 216.57L85.4781 217.956L85.8597 219.28L86.258 220.54L86.673 221.738L87.1044 222.87L87.5522 223.938L88.0162 224.94L88.4962 225.876L88.9921 226.745L89.5037 227.547L90.0308 228.281L90.5733 228.947L91.1309 229.544L91.7034 230.072L92.2906 230.532L92.8922 230.921L93.5082 231.241L94.138 231.491L94.7817 231.671L95.4388 231.781L96.1091 231.821L96.7923 231.791L97.4882 231.691L98.1964 231.52L98.9166 231.28L99.6486 230.97L100.392 230.591L101.147 230.142L101.912 229.625L102.688 229.039L103.473 228.385L104.269 227.663L105.074 226.874L105.887 226.018L106.71 225.095L107.541 224.108L108.379 223.055L109.225 221.938L110.078 220.757L110.938 219.513L111.804 218.208L112.676 216.841L113.553 215.414L114.435 213.927L115.322 212.381L116.212 210.779L117.107 209.119L118.004 207.404L118.905 205.635L119.808 203.812L120.712 201.937L121.618 200.011L122.525 198.035L123.432 196.011L124.34 193.94L125.247 191.822L126.153 189.659L127.057 187.454L127.96 185.206L128.86 182.918L129.757 180.59L130.651 178.225L131.541 175.824L132.427 173.387L133.308 170.918L134.184 168.417L135.054 165.886L135.917 163.326L136.774 160.739L137.624 158.126L138.466 155.49L139.299 152.832L140.125 150.153L140.941 147.455L141.747 144.74L142.543 142.01L143.329 139.266L144.104 136.509L144.867 133.742L145.618 130.967L146.357 128.184L147.083 125.396L147.796 122.604L148.495 119.81L149.18 117.016L149.85 114.224L150.505 111.435L151.145 108.651L151.769 105.873L152.377 103.104L152.969 100.345L153.543 97.5976L154.099 94.8636L154.638 92.1447L155.159 89.4425L155.662 86.7587L156.145 84.095L156.609 81.4529L157.054 78.834L157.479 76.24L157.884 73.6725L158.268 71.1329L158.631 68.6229L158.973 66.1439L159.294 63.6975L159.594 61.2852L159.871 58.9083L160.126 56.5685L160.359 54.2669L160.57 52.0052L160.757 49.7846L160.922 47.6064L161.063 45.472L161.181 43.3827L161.276 41.3397L161.347 39.3442L161.394 37.3975L161.417 35.5008L161.416 33.655L161.391 31.8614L161.341 30.121L161.268 28.4349L161.169 26.8041L161.047 25.2295L160.9 23.712L160.728 22.2526L160.532 20.8522L160.312 19.5115L160.066 18.2313L159.797 17.0124L159.503 15.8555L159.184 14.7613L158.842 13.7304L158.475 12.7634L158.084 11.8608L157.669 11.0233L157.23 10.2511L156.768 9.5449L156.282 8.90493L155.772 8.33158L155.239 7.82518L154.684 7.38598L154.105 7.01422L153.504 6.71009L152.881 6.47372L152.235 6.30522L151.568 6.20466L150.879 6.17205L150.169 6.20737L149.438 6.31055L148.686 6.48149L147.914 6.72005L147.122 7.02603L146.311 7.3992L145.48 7.8393L144.631 8.346L143.763 8.91896L142.877 9.55778L141.974 10.262L141.053 11.0312L140.116 11.8649L139.162 12.7624L138.193 13.7232L137.208 14.7467L136.209 15.8322L135.195 16.979L134.167 18.1863L133.126 19.4534L132.073 20.7794L131.007 22.1635L129.929 23.6049L128.84 25.1025L127.741 26.6554L126.632 28.2627L125.513 29.9234L124.386 31.6362L123.25 33.4003L122.107 35.2144L120.957 37.0774L119.801 38.9882L118.638 40.9455L117.471 42.9481L116.299 44.9948L115.124 47.0842L113.945 49.2151L112.764 51.386L111.581 53.5958L110.397 55.8429L109.212 58.126L108.028 60.4436L106.844 62.7943L105.661 65.1766L104.481 67.5891L103.304 70.0303L102.13 72.4986L100.961 74.9925L99.7963 77.5104L98.6373 80.0509L97.4845 82.6122L96.3386 85.1929L95.2004 87.7914L94.0704 90.4059L92.9493 93.035L91.8379 95.677L90.7368 98.3303L89.6467 100.993L88.5682 103.664L87.5019 106.341L86.4487 109.023L85.4089 111.708L84.3835 114.395L83.3729 117.081L82.3778 119.765L81.3988 122.446L80.4366 125.122L79.4917 127.79L78.5648 130.451L77.6565 133.101L76.7673 135.74L75.8979 138.365L75.0487 140.976L74.2204 143.57L73.4136 146.146L72.6286 148.702L71.8662 151.238L71.1268 153.75L70.4109 156.239L69.719 158.701L69.0516 161.137L68.4092 163.544L67.7922 165.92L67.2011 168.265L66.6362 170.577L66.0981 172.855L65.5872 175.097L65.1038 177.302L64.6482 179.469L64.221 181.596L63.8223 183.682L63.4526 185.725L63.1122 187.726L62.8013 189.681L62.5203 191.591L62.2694 193.454L62.0488 195.27L61.8589 197.036L61.6998 198.751L61.5716 200.416L61.4747 202.029L61.4092 203.588L61.3752 205.094L61.3728 206.545L61.4022 207.94L61.4635 209.279L61.5566 210.56L61.6818 211.783L61.839 212.948L62.0282 214.054L62.2495 215.099L62.5028 216.084L62.7881 217.008L63.1053 217.87L63.4545 218.67L63.8353 219.407L64.2479 220.082L64.6919 220.693L65.1674 221.24L65.674 221.724L66.2117 222.144L66.7802 222.499L67.3793 222.79L68.0087 223.016L68.6682 223.178L69.3576 223.274L70.0764 223.306L70.8244 223.274L71.6012 223.176L72.4065 223.015L73.24 222.788L74.1011 222.498L74.9896 222.144L75.905 221.726L76.8468 221.245L77.8146 220.701L78.8079 220.094L79.8262 219.425L80.869 218.695L81.9358 217.903L83.026 217.051L84.1391 216.139L85.2744 215.167L86.4315 214.136L87.6097 213.048L88.8083 211.901L90.0268 210.699L91.2645 209.44L92.5207 208.127L93.7948 206.759L95.0861 205.338L96.3938 203.865L97.7173 202.34L99.0559 200.765L100.409 199.14L101.775 197.467L103.154 195.747L104.546 193.98L105.948 192.169L107.361 190.313L108.784 188.415L110.215 186.475L111.655 184.495L113.102 182.476L114.555 180.42L116.014 178.326L117.477 176.198L118.945 174.035L120.415 171.84L121.888 169.614L123.362 167.359L124.837 165.075L126.311 162.764L127.784 160.427L129.254 158.067L130.722 155.684L132.186 153.281L133.645 150.857L135.099 148.416L136.546 145.958L137.986 143.485L139.417 140.998L140.84 138.5L142.252 135.991L143.654 133.473L145.044 130.948L146.421 128.417L147.785 125.882L149.135 123.345L150.47 120.806L151.789 118.268L153.091 115.731L154.376 113.198L155.642 110.671L156.889 108.15L158.116 105.637L159.323 103.134L160.508 100.642L161.67 98.1623L162.81 95.6972L163.926 93.2479L165.017 90.8157L166.083 88.4023L167.124 86.0089L168.137 83.6371L169.124 81.2883L170.082 78.9639L171.012 76.6653L171.913 74.3939L172.784 72.1509L173.624 69.9379L174.433 67.756L175.211 65.6066L175.957 63.491L176.67 61.4104L177.35 59.3661L177.996 57.3591L178.607 55.3909L179.185 53.4624L179.727 51.5749L180.233 49.7294L180.704 47.9271L181.139 46.1689L181.537 44.4559L181.897 42.7892L182.221 41.1695L182.507 39.598L182.755 38.0755L182.965 36.6028L183.137 35.1809L183.27 33.8105L183.364 32.4924L183.419 31.2274L183.436 30.0161L183.413 28.8593L183.35 27.7576L183.249 26.7115L183.108 25.7218L182.928 24.7888L182.708 23.9131L182.449 23.0952L182.15 22.3356L181.813 21.6345L181.436 20.9924L181.02 20.4096L180.565 19.8863L180.071 19.4229L179.538 19.0195L178.968 18.6763L178.359 18.3935L177.712 18.1711L177.028 18.0093L176.306 17.9079L175.548 17.8671L174.752 17.8868L173.921 17.9668L173.054 18.1072L172.151 18.3076L171.213 18.568L170.241 18.888L169.235 19.2675L168.195 19.7061L167.123 20.2034L166.017 20.7592L164.88 21.3729L163.712 22.0442L162.513 22.7725L161.285 23.5574L160.026 24.3983L158.739 25.2945L157.424 26.2456L156.082 27.2509L154.713 28.3096L153.319 29.421L151.899 30.5845L150.456 31.7992L148.988 33.0643L147.498 34.3791L145.986 35.7425L144.454 37.1538L142.901 38.612L141.329 40.1162L139.738 41.6654L138.131 43.2585L136.506 44.8946L134.866 46.5726L133.212 48.2915L131.543 50.0501L129.862 51.8472L128.17 53.6819L126.466 55.5528L124.753 57.4588L123.03 59.3988L121.301 61.3714L119.564 63.3754L117.821 65.4096L116.074 67.4726L114.323 69.5633L112.57 71.6802L110.815 73.8221L109.059 75.9876L107.304 78.1753L105.55 80.384L103.799 82.6121L102.052 84.8584L100.309 87.1215L98.5726 89.3999L96.8426 91.6922L95.1204 93.997L93.4072 96.313L91.7039 98.6386L90.0116 100.972L88.3314 103.313L86.6643 105.659L85.0113 108.009L83.3735 110.362L81.7519 112.715L80.1474 115.068L78.5611 117.42L76.9939 119.768L75.447 122.111L73.9212 124.448L72.4175 126.778L70.9368 129.099L69.4802 131.41L68.0485 133.709L66.6426 135.995L65.2635 138.266L63.912 140.522L62.5891 142.76L61.2955 144.98L60.0322 147.18L58.8 149.359L57.5996 151.516L56.4319 153.648L55.2976 155.756L54.1976 157.838L53.1324 159.892L52.103 161.917L51.1099 163.912L50.1539 165.877L49.2355 167.809L48.3555 169.708L47.5145 171.573L46.7131 173.401L45.9517 175.194L45.2311 176.949L44.5516 178.665L43.9139 180.341L43.3183 181.977L42.7654 183.572L42.2556 185.124L41.7892 186.632L41.3667 188.097L40.9883 189.517L40.6546 190.89L40.3656 192.217L40.1218 193.497L39.9233 194.729L39.7704 195.913L39.6632 197.046L39.602 198.13L39.5869 199.164L39.6179 200.146L39.6952 201.077L39.8189 201.956L39.9889 202.782L40.2052 203.555L40.4679 204.275L40.7768 204.941L41.1319 205.553L41.5331 206.111L41.9802 206.614L42.4731 207.062L43.0115 207.456L43.5953 207.794L44.2241 208.077L44.8978 208.304L45.6159 208.476L46.3782 208.593L47.1843 208.655L48.0338 208.66L48.9262 208.611L49.8612 208.507L50.8383 208.347L51.8569 208.133L52.9165 207.864L54.0166 207.541L55.1567 207.163L56.336 206.732L57.554 206.248L58.81 205.71L60.1033 205.12L61.4333 204.477L62.7992 203.783L64.2003 203.038L65.6357 202.242L67.1048 201.395L68.6066 200.5L70.1404 199.555L71.7052 198.562L73.3003 197.522L74.9246 196.434L76.5774 195.301L78.2576 194.122L79.9642 192.899L81.6964 191.632L83.4531 190.322L85.2332 188.97L87.0359 187.577L88.86 186.143L90.7044 184.671L92.5682 183.159L94.4501 181.611L96.3492 180.026L98.2643 178.406L100.194 176.751L102.138 175.064L104.094 173.344L106.062 171.593L108.04 169.812L110.027 168.002L112.022 166.165L114.024 164.301L116.031 162.412L118.042 160.498L120.057 158.562L122.073 156.604L124.091 154.625L126.107 152.627L128.122 150.611L130.134 148.579L132.142 146.53L134.144 144.468L136.14 142.393L138.127 140.305L140.106 138.208L142.074 136.101L144.031 133.987L145.975 131.866L147.906 129.739L149.821 127.609L151.72 125.476L153.601 123.342L155.463 121.208L157.306 119.075L159.128 116.945L160.928 114.818L162.704 112.696L164.456 110.581L166.183 108.474L167.883 106.375L169.555 104.287L171.199 102.21L172.813 100.145L174.396 98.095L175.947 96.0596L177.466 94.0405L178.95 92.039L180.4 90.0561L181.815 88.093L183.192 86.151L184.532 84.2311L185.834 82.3344L187.096 80.4622L188.318 78.6153L189.5 76.795L190.639 75.0023L191.736 73.2381L192.79 71.5036L193.8 69.7997L194.766 68.1275L195.686 66.4877L196.56 64.8815L197.387 63.3096L198.168 61.773L198.9 60.2726L199.585 58.8091L200.22 57.3835L200.807 55.9964L201.344 54.6487L201.83 53.3411L202.267 52.0743L202.652 50.849L202.987 49.6659L203.27 48.5256L203.501 47.4287L203.68 46.3758L203.807 45.3674L203.882 44.4042L203.905 43.4864L203.875 42.6148L203.792 41.7895L203.657 41.0112L203.469 40.2802L203.229 39.5967L202.935 38.9612L202.59 38.3739L202.192 37.8351L201.742 37.3451L201.239 36.9039L200.685 36.5119L200.08 36.1691L199.423 35.8756L198.715 35.6316L197.956 35.4371L197.147 35.292L196.288 35.1965L195.38 35.1504L194.423 35.1537L193.417 35.2062L192.364 35.3079L191.263 35.4587L190.115 35.6582L188.921 35.9063L187.682 36.2028L186.398 36.5473L185.069 36.9396L183.698 37.3793L182.283 37.8661L180.827 38.3996L179.33 38.9793L177.792 39.6049L176.215 40.2759L174.6 40.9917L172.947 41.7518L171.258 42.5557L169.533 43.4029L167.773 44.2926L165.98 45.2244L164.154 46.1975L162.297 47.2113L160.409 48.265L158.492 49.358L156.547 50.4896L154.574 51.6589L152.576 52.8652L150.553 54.1076L148.507 55.3855L146.438 56.6978L144.348 58.0438L142.238 59.4225L140.109 60.8331L137.963 62.2747L135.801 63.7463L133.624 65.2469L131.434 66.7757L129.231 68.3316L127.018 69.9136L124.795 71.5208L122.563 73.152L120.325 74.8064L118.082 76.4827L115.834 78.18L113.583 79.8973L111.332 81.6333L109.08 83.3871L106.829 85.1576L104.581 86.9436L102.337 88.7441L100.098 90.5579L97.8666 92.3839L95.6431 94.2209L93.429 96.068L91.2259 97.9238L89.0351 99.7874L86.8578 101.658L84.6955 103.533L82.5495 105.413L80.4212 107.296L78.3117 109.181L76.2226 111.066L74.155 112.952L72.1103 114.836L70.0897 116.718L68.0945 118.596L66.126 120.469L64.1853 122.336L62.2738 124.196L60.3926 126.048L58.543 127.891L56.726 129.724L54.9429 131.545L53.1948 133.354L51.4828 135.15L49.8079 136.93L48.1714 138.696L46.5742 140.444L45.0173 142.176L43.5018 143.888L42.0287 145.581L40.5988 147.253L39.2132 148.904L37.8728 150.533L36.5784 152.138L35.3309 153.718L34.1311 155.274L32.9798 156.803L31.8778 158.306L30.8258 159.781L29.8246 161.227L28.8748 162.644L27.9771 164.031L27.1321 165.386L26.3404 166.711L25.6026 168.002L24.9191 169.261L24.2904 170.486L23.7172 171.677L23.1996 172.832L22.7382 173.952L22.3334 175.036L21.9853 176.083L21.6944 177.092L21.4609 178.064L21.285 178.997L21.1668 179.892L21.1067 180.747L21.1045 181.563L21.1606 182.338L21.2748 183.074L21.4472 183.768L21.6778 184.421L21.9665 185.033L22.3132 185.603L22.7178 186.132L23.1801 186.618L23.6999 187.062L24.277 187.464L24.9111 187.823L25.6018 188.139L26.3489 188.413L27.152 188.643L28.0106 188.831L28.9243 188.976L29.8926 189.078L30.9151 189.137L31.991 189.154L33.1199 189.128L34.3012 189.059L35.5341 188.948L36.818 188.795L38.1522 188.6L39.5359 188.362L40.9684 188.084L42.4488 187.764L43.9764 187.403L45.5501 187.002L47.1692 186.56L48.8327 186.078L50.5396 185.557L52.289 184.996L54.0799 184.397L55.9111 183.76L57.7816 183.084L59.6904 182.372L61.6364 181.622L63.6183 180.837L65.635 180.016L67.6854 179.159L69.7682 178.269L71.8821 177.344L74.0261 176.386L76.1986 175.395L78.3986 174.373L80.6246 173.32L82.8754 172.235L85.1496 171.122L87.4458 169.979L89.7626 168.808L92.0988 167.609L94.4528 166.383L96.8232 165.132L99.2087 163.856L101.608 162.555L104.019 161.231L106.441 159.884L108.872 158.516L111.311 157.126L113.756 155.717L116.206 154.288L118.659 152.842L121.114 151.378L123.569 149.897L126.023 148.402L128.474 146.891L130.921 145.367L133.362 143.831L135.797 142.282L138.222 140.723L140.637 139.155L143.041 137.577L145.431 135.991L147.807 134.399L150.166 132.801L152.508 131.197L154.831 129.59L157.133 127.979L159.414 126.367L161.671 124.753L163.904 123.139L166.11 121.526L168.289 119.914L170.439 118.306L172.558 116.701L174.647 115.1L176.702 113.505L178.723 111.916L180.709 110.335L182.658 108.762L184.569 107.198L186.441 105.644L188.272 104.101L190.062 102.57L191.81 101.052L193.514 99.5472L195.173 98.0569L196.786 96.5818L198.352 95.1228L199.87 93.6808L201.339 92.2564L202.758 90.8505L204.127 89.4639L205.443 88.0973L206.708 86.7515L207.918 85.4273L209.075 84.1252L210.177 82.8461L211.223 81.5907L212.212 80.3595L213.145 79.1533L214.019 77.9727L214.836 76.8183L215.593 75.6907L216.292 74.5905L216.93 73.5183L217.508 72.4746L218.025 71.4599L218.482 70.4748L218.876 69.5198L219.209 68.5953L219.48 67.7017L219.689 66.8396L219.835 66.0093L219.918 65.2112L219.939 64.4457L219.897 63.7132L219.792 63.0139L219.624 62.3482L219.393 61.7164L219.1 61.1188L218.743 60.5555L218.325 60.0269L217.844 59.533L217.301 59.0742L216.696 58.6506L216.03 58.2622L215.303 57.9094L214.514 57.592L213.666 57.3102L212.758 57.0641L211.79 56.8537L210.763 56.6791L209.678 56.5401L208.536 56.4368L207.336 56.3691L206.08 56.337L204.768 56.3403L203.402 56.379L201.981 56.4529L200.507 56.5619L198.981 56.7057L197.402 56.8843L195.774 57.0973L194.095 57.3446L192.368 57.6259L190.593 57.9409L188.772 58.2893L186.905 58.6709L184.993 59.0852L183.038 59.532L181.041 60.0109L179.002 60.5215L176.924 61.0635L174.807 61.6362L172.653 62.2395L170.463 62.8728L168.238 63.5356L165.98 64.2274L163.689 64.9478L161.368 65.6963L159.017 66.4723L156.639 67.2753L154.234 68.1047L151.804 68.9599L149.351 69.8404L146.876 70.7456L144.379 71.6749L141.864 72.6277L139.332 73.6032L136.783 74.6009L134.22 75.6202L131.644 76.6603L129.056 77.7206L126.459 78.8005L123.854 79.8991L121.242 81.0158L118.625 82.15L116.005 83.3008L113.383 84.4677L110.76 85.6497L108.139 86.8463L105.521 88.0566L102.908 89.2799L100.301 90.5155L97.7018 91.7626L95.112 93.0204L92.5333 94.2882L89.9672 95.5652L87.4152 96.8507L84.8791 98.1438L82.3603 99.4438L79.8604 100.75L77.3809 102.061L74.9235 103.377L72.4895 104.697L70.0806 106.02L67.6982 107.345L65.3438 108.672L63.0189 109.999L60.7249 111.326L58.4633 112.653L56.2354 113.977L54.0427 115.3L51.8866 116.619L49.7683 117.935L47.6893 119.245L45.6508 120.551L43.6541 121.85L41.7004 123.143L39.7911 124.428L37.9273 125.705L36.1101 126.973L34.3409 128.231L32.6205 129.479L30.9503 130.716L29.3311 131.942L27.7642 133.155L26.2504 134.355L24.7907 135.541L23.3861 136.713L22.0375 137.871L20.7457 139.012L19.5116 140.138L18.3361 141.247L17.2197 142.339L16.1634 143.413L15.1678 144.469L14.2335 145.505L13.3611 146.523L12.5513 147.52L11.8047 148.497L11.1216 149.453L10.5026 150.388L9.94805 151.301L9.45843 152.191L9.03405 153.059L8.67523 153.904L8.38222 154.725L8.15528 155.523L7.99457 156.296L7.90026 157.044L7.87245 157.768L7.91121 158.466L8.01657 159.139L8.18851 159.786L8.42697 160.407L8.73186 161.002L9.10305 161.569L9.54035 162.11L10.0435 162.624L10.6124 163.111L11.2465 163.571L11.9457 164.002L12.7095 164.407L13.5375 164.783L14.4292 165.131L15.3841 165.452L16.4017 165.744L17.4815 166.008L18.6227 166.244L19.8248 166.452L21.087 166.631L22.4087 166.783L23.789 166.906L25.2271 167.001L26.7222 167.067L28.2735 167.106L29.88 167.117L31.5407 167.1L33.2548 167.056L35.0211 166.983L36.8386 166.884L38.7063 166.757L40.623 166.603L42.5876 166.422L44.599 166.214L46.6558 165.98L48.757 165.719L50.9011 165.433L53.0871 165.121L55.3134 164.783L57.5789 164.421L59.882 164.033L62.2215 163.621L64.596 163.185L67.0039 162.725L69.4439 162.241L71.9145 161.734L74.4141 161.204L76.9413 160.652L79.4945 160.078L82.0722 159.483L84.6728 158.866L87.2947 158.228L89.9364 157.571L92.5962 156.893L95.2724 156.196L97.9636 155.48L100.668 154.746L103.384 153.993L106.11 153.223L108.844 152.436L111.585 151.633L114.33 150.814L117.079 149.979L119.83 149.13L122.58 148.265L125.328 147.388L128.073 146.496L130.813 145.592L133.546 144.676L136.27 143.749L138.984 142.81L141.686 141.86L144.375 140.901L147.048 139.932L149.704 138.955L152.342 137.969L154.96 136.975L157.555 135.975L160.128 134.968L162.675 133.955L165.196 132.936L167.689 131.913L170.152 130.886L172.584 129.855L174.983 128.821L177.348 127.785L179.677 126.747L181.969 125.707L184.223 124.667L186.437 123.626L188.609 122.586L190.739 121.547L192.824 120.51L194.864 119.475L196.858 118.442L198.804 117.412L200.701 116.387L202.547 115.365L204.342 114.348L206.084 113.337L207.773 112.332L209.407 111.333L210.986 110.341L212.507 109.356L213.971 108.379L215.376 107.411L216.722 106.452L218.007 105.502L219.231 104.561L220.393 103.632L221.492 102.712L222.527 101.805L223.499 100.908L224.406 100.024L225.247 99.1526L226.023 98.2939L226.732 97.4486L227.374 96.6169L227.949 95.7994L228.456 94.9963L228.895 94.2081L229.266 93.4351L229.568 92.6776L229.802 91.9361L229.966 91.2107L230.061 90.5019L230.087 89.8099L230.044 89.135L229.931 88.4775L229.749 87.8377L229.498 87.2158L229.178 86.6121L228.789 86.0269L228.331 85.4603L227.805 84.9125L227.211 84.3839L226.548 83.8745L225.819 83.3846L225.022 82.9142L224.159 82.4637L223.229 82.0331L222.235 81.6226L221.175 81.2323L220.05 80.8623L218.863 80.5127L217.612 80.1836L216.299 79.8751L214.924 79.5872L213.489 79.3201L211.994 79.0737L210.44 78.8481L208.828 78.6434L207.16 78.4594L205.435 78.2963L203.655 78.1541L201.821 78.0326L199.935 77.9319L197.996 77.8519L196.008 77.7926L193.97 77.754L191.884 77.7359L189.751 77.7382L187.572 77.7609L185.35 77.8039L183.084 77.867L180.777 77.9502L178.43 78.0532L176.045 78.176L173.622 78.3184L171.163 78.4803L168.67 78.6614L166.145 78.8616L163.588 79.0806L161.002 79.3184L158.387 79.5747L155.747 79.8493L153.081 80.1419L150.392 80.4523L147.681 80.7804L144.951 81.1257L142.202 81.4882L139.437 81.8675L136.657 82.2633L133.864 82.6755L131.059 83.1036L128.245 83.5475L125.422 84.0067L122.593 84.4811L119.76 84.9703L116.924 85.474L114.086 85.9919L111.25 86.5237L108.416 87.0689L105.586 87.6274L102.762 88.1987L99.9451 88.7826L97.138 89.3786L94.3419 89.9864L91.5587 90.6057L88.79 91.2361L86.0375 91.8772L83.303 92.5287L80.5881 93.1902L77.8944 93.8613L75.2237 94.5417L72.5776 95.2309L69.9577 95.9287L67.3657 96.6346L64.8031 97.3482L62.2716 98.0692L59.7726 98.7971L57.3078 99.5316L54.8787 100.272L52.4867 101.019L50.1334 101.771L47.8202 102.528L45.5486 103.289L43.3199 104.055L41.1355 104.825L38.9969 105.598L36.9052 106.374L34.8619 107.153L32.8682 107.934L30.9253 108.717L29.0344 109.501L27.1968 110.287L25.4135 111.073L23.6857 111.86L22.0144 112.647L20.4007 113.433L18.8457 114.219L17.3502 115.003L15.9152 115.786L14.5416 116.568L13.2303 117.346L11.9821 118.123L10.7978 118.896L9.67805 119.666L8.62367 120.432L7.63527 121.195L6.7135 121.953L5.85892 122.706L5.07209 123.454L4.35351 124.197L3.70364 124.934L3.12289 125.665L2.61164 126.39L2.17021 127.109L1.79891 127.82L1.49797 128.524L1.2676 129.22L1.10796 129.909L1.01916 130.59L1.00128 131.262L1.05434 131.925L1.17832 132.58L1.37317 133.225L1.63879 133.861L1.97503 134.487L2.3817 135.103L2.85856 135.709L3.40534 136.304L4.02172 136.888L4.70734 137.462L5.46178 138.025L6.28461 138.576L7.17533 139.115L8.13341 139.643L9.15828 140.159L10.2493 140.662L11.4059 141.154L12.6272 141.632L13.9127 142.098L15.2614 142.552L16.6727 142.992L18.1455 143.419L19.6791 143.833L21.2726 144.233L22.9248 144.619L24.6349 144.992L26.4018 145.352L28.2245 145.697L30.1017 146.028L32.0325 146.345L34.0155 146.648L36.0496 146.936L38.1336 147.21L40.2661 147.47L42.4459 147.715L44.6717 147.946L46.942 148.161L49.2555 148.363L51.6109 148.549L54.0065 148.721L56.4411 148.877L58.913 149.019L61.4208 149.147L63.963 149.259L66.5379 149.357L69.144 149.439L71.7798 149.507L74.4436 149.56L77.1337 149.598L79.8485 149.622L82.5864 149.63L85.3456 149.624L88.1246 149.604L90.9215 149.568L93.7346 149.518L96.5623 149.454L99.4028 149.375L102.254 149.282L105.115 149.175L107.984 149.053L110.858 148.918L113.736 148.768L116.616 148.605L119.497 148.427L122.377 148.236L125.254 148.032L128.125 147.814L130.991 147.582L133.847 147.338L136.694 147.08L139.529 146.81L142.35 146.526L145.156 146.23L147.945 145.922L150.715 145.601L153.465 145.268L156.192 144.923L158.896 144.567L161.574 144.198L164.225 143.818L166.847 143.427L169.439 143.025L171.998 142.611L174.524 142.188L177.015 141.753L179.47 141.308L181.886 140.853L184.262 140.388L186.598 139.914L188.891 139.43L191.139 138.936L193.343 138.434L195.5 137.922L197.608 137.403L199.668 136.874L201.676 136.338L203.633 135.793L205.537 135.241L207.387 134.681L209.181 134.115L210.919 133.541L212.599 132.96L214.221 132.373L215.783 131.78L217.284 131.181L218.724 130.576L220.102 129.965L221.416 129.349L222.667 128.729L223.853 128.103L224.973 127.474L226.027 126.839L227.014 126.201L227.934 125.56L228.785 124.915L229.568 124.267L230.282 123.616L230.927 122.962L231.502 122.306L232.006 121.648L232.44 120.988L232.803 120.327L233.095 119.664L233.316 119.001L233.466 118.336L233.544 117.672L233.55 117.007L233.486 116.342L233.349 115.678L233.142 115.014L232.863 114.351L232.513 113.689L232.092 113.029L231.6 112.371L231.039 111.715L230.407 111.06L229.706 110.409L228.936 109.76L228.097 109.115L227.189 108.472L226.215 107.834L225.173 107.199L224.065 106.568L222.892 105.942L221.653 105.32L220.35 104.704L218.984 104.092L217.556 103.486L216.065 102.886L214.515 102.291L212.904 101.703L211.234 101.121L209.507 100.546L207.723 99.9782L205.884 99.4172L203.99 98.8637L202.043 98.3178L200.044 97.7798L197.994 97.2499L195.894 96.7284L193.746 96.2155L191.551 95.7113L189.311 95.2162L187.026 94.7304L184.698 94.254L182.329 93.7873L179.92 93.3305L177.473 92.8837L174.989 92.4473L172.469 92.0214L169.915 91.6062L167.329 91.2018L164.713 90.8086L162.067 90.4265L159.394 90.056L156.695 89.6971L153.972 89.3499L151.226 89.0147L148.46 88.6917L145.674 88.381L142.871 88.0827L140.053 87.797L137.22 87.5241L134.376 87.264L131.521 87.0171L128.657 86.7832L125.786 86.5627L122.91 86.3556L120.031 86.1621L117.15 85.9822L114.27 85.8161L111.391 85.6639L108.516 85.5257L105.646 85.4015L102.784 85.2916L99.9305 85.1958L97.0878 85.1144L94.2576 85.0475L91.4416 84.9949L88.6415 84.957L85.8592 84.9336L83.0961 84.9249L80.3542 84.9308L77.6349 84.9515L74.9401 84.987L72.2713 85.0372L69.6303 85.1023L67.0185 85.1822L64.4377 85.2769L61.8893 85.3865L59.3751 85.5109L56.8964 85.6502L54.4548 85.8043L52.0518 85.9732L49.6889 86.1569L47.3675 86.3553L45.089 86.5685L42.8549 86.7962L40.6665 87.0386L38.5251 87.2955L36.432 87.567L34.3886 87.8528L32.396 88.1529L30.4555 88.4673L28.5683 88.7959L26.7354 89.1385L24.9581 89.4951L23.2374 89.8655L21.5743 90.2496L19.9699 90.6474L18.4252 91.0586L16.941 91.4832L15.5182 91.9209L14.1578 92.3717L12.8606 92.8354L11.6273 93.3118L10.4587 93.8007L9.35548 94.3021L8.3183 94.8156L7.3478 95.3412L6.44456 95.8786L5.60911 96.4275L4.84196 96.9879L4.14356 97.5595L3.51432 98.1421L2.95461 98.7354L2.46477 99.3393L2.04508 99.9534L1.69577 100.578L1.41706 101.212L1.20908 101.855L1.07196 102.508L1.00575 103.17L1.01049 103.84L1.08616 104.519L1.23268 105.206L1.44995 105.901L1.73783 106.604L2.09611 107.314L2.52456 108.031L3.02289 108.755L3.59079 109.485L4.22789 110.221L4.93377 110.963L5.70799 111.71L6.55005 112.463L7.45941 113.22L8.43551 113.981L9.47772 114.747L10.5854 115.516L11.7578 116.289L12.9942 117.065L14.2939 117.843L15.656 118.624L17.0797 119.406L18.564 120.191L20.1081 120.976L21.711 121.762L23.3717 122.549L25.0891 123.336L26.8622 124.122L28.6898 124.908L30.5709 125.693L32.5043 126.476L34.4887 127.258L36.5229 128.037L38.6057 128.814L40.7357 129.587L42.9117 130.358L45.1323 131.124L47.3961 131.887L49.7017 132.644L52.0477 133.397L54.4326 134.145L56.8549 134.887L59.3132 135.622L61.806 136.352L64.3316 137.074L66.8885 137.789L69.4752 138.496L72.0901 139.196L74.7314 139.886L77.3977 140.568L80.0872 141.241L82.7984 141.905L85.5294 142.558L88.2787 143.201L91.0445 143.833L93.8252 144.455L96.619 145.065L99.4242 145.663L102.239 146.249L105.062 146.823L107.891 147.384L110.724 147.931L113.561 148.466L116.398 148.986L119.234 149.493L122.068 149.984L124.898 150.462L127.722 150.924L130.538 151.37L133.345 151.802L136.14 152.217L138.923 152.616L141.691 152.998L144.443 153.363L147.177 153.712L149.891 154.043L152.584 154.357L155.254 154.653L157.9 154.931L160.519 155.191L163.111 155.432L165.673 155.654L168.205 155.858L170.704 156.043L173.169 156.208L175.599 156.354L177.991 156.481L180.345 156.587L182.66 156.674L184.933 156.741L187.164 156.788L189.35 156.814L191.492 156.82L193.587 156.806L195.634 156.771L197.632 156.716L199.579 156.64L201.475 156.543L203.319 156.425L205.109 156.287L206.844 156.127L208.523 155.947L210.146 155.747L211.711 155.525L213.216 155.282L214.663 155.019L216.049 154.735L217.373 154.43L218.636 154.105L219.835 153.759L220.971 153.393L222.043 153.006L223.05 152.6L223.991 152.173L224.867 151.726L225.676 151.259L226.418 150.773L227.093 150.267L227.7 149.742L228.239 149.198L228.709 148.635L229.111 148.053L229.444 147.453L229.708 146.834L229.903 146.198L230.028 145.543L230.084 144.872L230.071 144.183L229.989 143.477L229.837 142.755L229.617 142.016L229.327 141.262L228.969 140.491L228.543 139.706L228.048 138.906L227.486 138.091L226.856 137.262L226.159 136.419L225.396 135.563L224.567 134.693L223.672 133.812L222.712 132.918L221.688 132.012L220.601 131.095L219.451 130.167L218.238 129.229L216.964 128.28L215.63 127.323L214.236 126.356L212.783 125.381L211.272 124.397L209.704 123.407L208.08 122.409L206.401 121.405L204.669 120.394L202.884 119.379L201.047 118.358L199.159 117.333L197.222 116.304L195.237 115.272L193.206 114.237L191.128 113.2L189.007 112.161L186.842 111.121L184.636 110.081L182.39 109.041L180.105 108.001L177.782 106.963L175.424 105.926L173.031 104.891L170.605 103.86L168.148 102.832L165.66 101.808L163.144 100.789L160.602 99.7746L158.034 98.7664L155.442 97.7646L152.829 96.7698L150.194 95.7826L147.541 94.8034L144.871 93.833L142.185 92.8718L139.486 91.9206L136.774 90.9797L134.051 90.0498L131.32 89.1315L128.581 88.2252L125.837 87.3317L123.089 86.4513L120.339 85.5847L117.589 84.7323L114.84 83.8948L112.093 83.0726L109.351 82.2663L106.616 81.4763L103.888 80.7033L101.17 79.9476L98.4638 79.2098L95.7701 78.4904L93.0909 77.7898L90.4279 77.1086L87.7828 76.447L85.1571 75.8057L82.5524 75.1851L79.9704 74.5855L77.4125 74.0075L74.8804 73.4514L72.3755 72.9176L69.8995 72.4065L67.4537 71.9185L65.0397 71.4539L62.6589 71.0131L60.3129 70.5965L58.0028 70.2044L55.7303 69.8371L53.4966 69.4949L51.3031 69.178L49.1511 68.8869L47.0419 68.6216L44.9767 68.3826L42.9569 68.17L40.9835 67.9841L39.0578 67.825L37.181 67.693L35.3541 67.5883L33.5782 67.5109L31.8544 67.4611L30.1837 67.439L28.5671 67.4447L27.0055 67.4784L25.4999 67.54L24.0511 67.6298L22.66 67.7476L21.3275 67.8937L20.0542 68.068L18.8409 68.2705L17.6883 68.5012L16.5971 68.7601L15.568 69.0472L14.6014 69.3624L13.6979 69.7056L12.8581 70.0767L12.0824 70.4757L11.3712 70.9024L10.725 71.3567L10.144 71.8384L9.62863 72.3474L9.1791 72.8835L8.79565 73.4464L8.47846 74.0359L8.22767 74.6519L8.04341 75.2941L7.92571 75.9621L7.87461 76.6557L7.89009 77.3747L7.97208 78.1186L8.12049 78.8873L8.33518 79.6802L8.61595 80.4971L8.9626 81.3376L9.37485 82.2012L9.85241 83.0876L10.3949 83.9964L11.002 84.9271L11.6733 85.8793L12.4082 86.8524L13.2063 87.8461L14.0671 88.8597L14.99 89.8929L15.9743 90.9451L17.0194 92.0158L18.1247 93.1043L19.2894 94.2102L20.5127 95.3329L21.7938 96.4717L23.1319 97.6262L24.5262 98.7957L25.9758 99.9795L27.4796 101.177L29.0368 102.388L30.6464 103.611L32.3072 104.846L34.0183 106.092L35.7786 107.348L37.587 108.614L39.4422 109.89L41.3432 111.173L43.2887 112.465L45.2776 113.763L47.3084 115.067L49.3801 116.377L51.4912 117.692L53.6404 119.011L55.8264 120.333L58.0479 121.657L60.3033 122.983L62.5914 124.31L64.9107 125.637L67.2598 126.964L69.6371 128.29L72.0412 129.613L74.4706 130.933L76.9238 132.25L79.3993 133.563L81.8955 134.87L84.411 136.171L86.944 137.465L89.4932 138.752L92.0568 140.031L94.6333 141.3L97.2212 142.56L99.8187 143.809L102.424 145.047L105.037 146.273L107.654 147.486L110.274 148.685L112.897 149.87L115.519 151.039L118.14 152.193L120.757 153.33L123.37 154.45L125.977 155.552L128.576 156.636L131.165 157.7L133.743 158.744L136.309 159.767L138.861 160.769L141.396 161.748L143.915 162.705L146.414 163.639L148.894 164.549L151.352 165.434L153.786 166.294L156.195 167.128L158.579 167.936L160.935 168.717L163.261 169.471L165.558 170.196L167.822 170.894L170.053 171.562L172.25 172.201L174.411 172.809L176.535 173.388L178.62 173.936L180.666 174.452L182.671 174.937L184.634 175.39L186.554 175.81L188.429 176.198L190.259 176.552L192.043 176.873L193.779 177.161L195.466 177.415L197.104 177.634L198.692 177.819L200.228 177.969L201.712 178.085L203.142 178.165L204.519 178.21L205.841 178.22L207.107 178.195L208.318 178.134L209.471 178.037L210.567 177.905L211.604 177.736L212.583 177.533L213.502 177.293L214.362 177.018L215.161 176.707L215.9 176.361L216.577 175.979L217.194 175.562L217.748 175.11L218.24 174.622L218.671 174.1L219.038 173.543L219.343 172.952L219.586 172.327L219.765 171.667L219.882 170.974L219.936 170.248L219.927 169.488L219.855 168.696L219.72 167.872L219.523 167.016L219.264 166.128L218.943 165.209L218.559 164.26L218.115 163.28L217.609 162.271L217.042 161.232L216.415 160.165L215.727 159.07L214.981 157.948L214.175 156.798L213.311 155.623L212.389 154.421L211.41 153.194L210.375 151.943L209.283 150.669L208.137 149.371L206.936 148.051L205.682 146.709L204.375 145.346L203.016 143.963L201.606 142.561L200.146 141.14L198.637 139.701L197.079 138.245L195.475 136.773L193.824 135.285L192.129 133.783L190.389 132.267L188.607 130.738L186.783 129.198L184.919 127.646L183.015 126.084L181.073 124.512L179.094 122.932L177.079 121.345L175.03 119.751L172.948 118.152L170.834 116.547L168.689 114.939L166.516 113.328L164.314 111.715L162.087 110.101L159.834 108.487L157.558 106.875L155.259 105.264L152.94 103.656L150.601 102.051L148.245 100.452L145.872 98.8583L143.485 97.2714L141.083 95.6922L138.67 94.1217L136.247 92.5608L133.814 91.0105L131.374 89.4717L128.928 87.9453L126.477 86.4324L124.024 84.9339L121.569 83.4506L119.114 81.9835L116.66 80.5336L114.209 79.1017L111.763 77.6887L109.323 76.2955L106.891 74.9231L104.467 73.5722L102.054 72.2438L99.6523 70.9386L97.2642 69.6576L94.8908 68.4016L92.5337 67.1713L90.1941 65.9676L87.8736 64.7913L85.5735 63.6431L83.2951 62.5238L81.0399 61.4342L78.8092 60.3749L76.6043 59.3467L74.4265 58.3503L72.2772 57.3863L70.1576 56.4554L68.0689 55.5583L66.0125 54.6956L63.9894 53.8678L62.001 53.0756L60.0483 52.3195L58.1325 51.6001L56.2548 50.9179L54.4162 50.2733L52.6178 49.667L50.8606 49.0993L49.1458 48.5707L47.4742 48.0815L45.8468 47.6323L44.2645 47.2233L42.7284 46.8549L41.2392 46.5274L39.7977 46.2411L38.4049 45.9964L37.0615 45.7933L35.7682 45.6323L34.5257 45.5134L33.3349 45.4369L32.1962 45.4029L31.1104 45.4115L30.078 45.4628L29.0997 45.5569L28.1758 45.6939L27.3069 45.8738L26.4935 46.0965L25.736 46.3621L25.0348 46.6705L24.3902 47.0216L23.8025 47.4153L23.2721 47.8514L22.7991 48.3299L22.3838 48.8506L22.0263 49.4131L21.7269 50.0174L21.4855 50.663L21.3023 51.3498L21.1773 52.0775L21.1105 52.8456L21.1019 53.6539L21.1513 54.5019L21.2587 55.3892L21.4239 56.3154L21.6468 57.28L21.9271 58.2826L22.2646 59.3226L22.6589 60.3995L23.1099 61.5128L23.617 62.6617L24.18 63.8459L24.7984 65.0645L25.4718 66.317L26.1996 67.6028L26.9814 68.921L27.8166 70.271L28.7045 71.652L29.6447 73.0634L30.6365 74.5042L31.6791 75.9738L32.7718 77.4713L33.914 78.9959L35.1049 80.5466L36.3436 82.1228L37.6294 83.7233L38.9614 85.3474L40.3387 86.9942L41.7604 88.6626L43.2256 90.3518L44.7333 92.0608L46.2826 93.7885L47.8724 95.534L49.5018 97.2963L51.1696 99.0744L52.8748 100.867L54.6163 102.674L56.393 104.493L58.2038 106.323L60.0475 108.164L61.9229 110.015L63.8289 111.874L65.7642 113.74L67.7277 115.612L69.718 117.489L71.734 119.37L73.7743 121.254L75.8378 123.139L77.923 125.025L80.0288 126.91L82.1538 128.794L84.2966 130.674L86.456 132.55L88.6305 134.422L90.819 136.286L93.0199 138.144L95.232 139.993L97.4539 141.832L99.6842 143.66L101.922 145.476L104.165 147.279L106.412 149.068L108.662 150.841L110.914 152.598L113.166 154.338L115.417 156.058L117.666 157.759L119.91 159.44L122.149 161.098L124.382 162.734L126.606 164.346L128.822 165.932L131.026 167.493L133.219 169.027L135.399 170.533L137.564 172.01L139.713 173.457L141.845 174.874L143.958 176.258L146.052 177.61L148.125 178.929L150.176 180.213L152.203 181.462L154.206 182.675L156.183 183.852L158.134 184.99L160.056 186.091L161.949 187.152L163.812 188.173L165.644 189.154L167.443 190.093L169.209 190.991L170.941 191.846L172.637 192.658L174.296 193.426L175.919 194.15L177.503 194.829L179.048 195.463L180.552 196.052L182.016 196.594L183.439 197.089L184.818 197.538L186.155 197.939L187.447 198.292L188.695 198.598L189.897 198.855L191.054 199.063L192.163 199.223L193.226 199.334L194.24 199.395L195.206 199.408L196.124 199.371L196.992 199.285L197.81 199.149L198.578 198.963L199.295 198.728L199.962 198.444L200.577 198.11L201.141 197.728L201.652 197.295L202.112 196.814L202.52 196.285L202.875 195.706L203.178 195.08L203.429 194.405L203.626 193.683L203.771 192.913L203.864 192.097L203.903 191.234L203.891 190.324L203.825 189.37L203.708 188.37L203.538 187.325L203.316 186.236L203.043 185.104L202.718 183.929L202.342 182.711L201.915 181.452L201.438 180.152L200.91 178.811L200.333 177.432L199.706 176.013L199.031 174.557L198.307 173.063L197.535 171.533L196.717 169.968L195.851 168.368L194.94 166.734L193.983 165.068L192.981 163.37L191.935 161.641L190.846 159.882L189.714 158.094L188.54 156.279L187.326 154.437L186.071 152.57L184.776 150.677L183.443 148.762L182.073 146.824L180.665 144.864L179.222 142.885L177.744 140.887L176.231 138.871L174.686 136.839L173.109 134.791L171.5 132.729L169.862 130.654L168.195 128.568L166.5 126.471L164.778 124.365L163.031 122.251L161.259 120.131L159.463 118.005L157.645 115.875L155.806 113.743L153.947 111.608L152.069 109.474L150.174 107.341L148.262 105.21L146.334 103.083L144.393 100.961L142.438 98.8452L140.472 96.737L138.495 94.6376L136.509 92.5485L134.514 90.4708L132.513 88.4058L130.506 86.3548L128.495 84.3191L126.481 82.3L124.464 80.2987L122.447 78.3164L120.43 76.3544L118.415 74.414L116.403 72.4962L114.395 70.6024L112.392 68.7337L110.396 66.8913L108.407 65.0763L106.428 63.29L104.458 61.5334L102.499 59.8077L100.553 58.1139L98.6208 56.4532L96.7029 54.8266L94.8008 53.2351L92.9156 51.6798L91.0484 50.1617L89.2002 48.6818L87.3723 47.241L85.5656 45.8403L83.7812 44.4806L82.0201 43.1627L80.2833 41.8876L78.5718 40.6561L76.8867 39.4691L75.2288 38.3272L73.5991 37.2313L71.9986 36.1822L70.428 35.1805L68.8884 34.2269L67.3806 33.3221L65.9054 32.4666L64.4637 31.6612L63.0562 30.9064L61.6837 30.2027L60.347 29.5506L59.0468 28.9507L57.7839 28.4032L56.5588 27.9088L55.3722 27.4677L54.2249 27.0803L53.1173 26.747L52.0501 26.4679L51.0239 26.2435L50.0391 26.0738L49.0963 25.9591L48.1959 25.8996L47.3385 25.8953L46.5243 25.9464L45.7539 26.0529L45.0275 26.2148L44.3456 26.4321L43.7084 26.7048L43.1163 27.0327L42.5694 27.4159L42.0681 27.8541L41.6125 28.3471L41.2028 28.8947L40.8391 29.4967L40.5216 30.1528L40.2504 30.8627L40.0255 31.626L39.8469 32.4424L39.7146 33.3114L39.6287 34.2325L39.5891 35.2053L39.5957 36.2294L39.6484 37.304L39.747 38.4287L39.8915 39.6029L40.0816 40.8258L40.317 42.0969L40.5976 43.4154L40.9231 44.7806L41.2932 46.1917L41.7076 47.6479L42.1658 49.1485L42.6677 50.6926L43.2126 52.2792L43.8003 53.9075L44.4303 55.5766L45.102 57.2855L45.8151 59.0332L46.5689 60.8187L47.363 62.6409L48.1967 64.4989L49.0695 66.3916L49.9808 68.3177L50.9299 70.2763L51.9162 72.2661L52.939 74.286L53.9975 76.3348L55.0912 78.4113L56.2191 80.5143L57.3807 82.6425L58.5751 84.7947L59.8015 86.9696L61.0591 89.1658L62.3472 91.3821L63.6647 93.6172L65.0109 95.8697L66.385 98.1383L67.786 100.422L69.213 102.718L70.665 105.027L72.1413 107.346L73.6408 109.674L75.1626 112.01L76.7057 114.353L78.2692 116.7L79.852 119.051L81.4532 121.404L83.0718 123.758L84.7067 126.11L86.3569 128.461L88.0215 130.808L89.6993 133.149L91.3894 135.485L93.0907 137.812L94.8022 140.13L96.5228 142.437L98.2515 144.731L99.9872 147.013L101.729 149.279L103.475 151.528L105.226 153.76L106.979 155.972L108.734 158.164L110.49 160.333L112.245 162.48L113.999 164.601L115.75 166.697L117.498 168.765L119.241 170.805L120.979 172.815L122.71 174.793L124.434 176.739L126.149 178.652L127.855 180.529L129.55 182.371L131.233 184.175L132.904 185.941L134.561 187.667L136.203 189.353L137.831 190.997L139.442 192.598L141.035 194.155L142.611 195.668L144.167 197.135L145.704 198.555L147.22 199.927L148.714 201.251L150.185 202.525L151.634 203.749L153.058 204.922L154.457 206.044L155.831 207.112L157.178 208.127L158.498 209.088L159.79 209.995L161.054 210.846L162.288 211.641L163.492 212.38L164.666 213.062L165.809 213.687L166.92 214.253L167.999 214.761L169.045 215.211L170.057 215.601L171.036 215.932L171.98 216.204L172.889 216.415L173.763 216.567L174.601 216.658L175.403 216.689L176.168 216.659L176.897 216.569L177.588 216.419L178.242 216.207L178.858 215.936L179.436 215.604L179.975 215.212L180.476 214.759L180.938 214.247L181.361 213.675L181.746 213.044L182.091 212.354L182.397 211.605L182.663 210.798L182.89 209.933L183.078 209.011L183.226 208.031L183.335 206.996L183.404 205.904L183.434 204.757L183.425 203.556L183.377 202.301L183.29 200.993L183.164 199.632L183 198.22L182.797 196.756L182.556 195.243L182.277 193.68L181.96 192.07L181.606 190.412L181.215 188.707L180.787 186.957L180.323 185.163L179.823 183.325L179.288 181.446L178.717 179.525L178.112 177.564L177.472 175.564L176.798 173.526L176.091 171.452L175.352 169.343L174.58 167.2L173.776 165.024L172.942 162.817L172.077 160.579L171.181 158.313L170.257 156.019L169.304 153.699L168.322 151.355L167.314 148.987L166.278 146.598L165.217 144.188L164.13 141.759L163.018 139.313L161.883 136.851L160.725 134.374L159.544 131.884L158.341 129.383L157.118 126.872L155.874 124.352L154.612 121.826L153.33 119.294L152.031 116.758L150.716 114.22L149.384 111.681L148.037 109.143L146.675 106.607L145.3 104.076L143.912 101.549L142.513 99.0301L141.102 96.5195L139.682 94.019L138.252 91.5302L136.813 89.0546L135.368 86.5937L133.915 84.1491L132.457 81.7222L130.994 79.3146L129.527 76.9278L128.056 74.5632L126.584 72.2224L125.11 69.9067L123.635 67.6176L122.161 65.3565L120.688 63.125L119.217 60.9242L117.749 58.7557L116.285 56.6208L114.825 54.5208L113.37 52.4571L111.922 50.4309L110.481 48.4435L109.048 46.4963L107.624 44.5903L106.209 42.7268L104.805 40.9071L103.411 39.1322L102.03 37.4033L100.661 35.7215L99.3055 34.0879L97.9642 32.5035L96.6379 30.9693L95.3272 29.4863L94.0328 28.0556L92.7555 26.6779L91.4959 25.3542L90.2547 24.0854L89.0326 22.8723L87.8302 21.7156L86.6482 20.6162L85.4872 19.5748L84.3478 18.5921L83.2305 17.6687L82.136 16.8052L81.0649 16.0022L80.0176 15.2604L78.9947 14.5801L77.9967 13.9619L77.0242 13.4061L76.0775 12.9133L75.1572 12.4837L74.2637 12.1177L73.3975 11.8156L72.5589 11.5776L71.7483 11.4039L70.9661 11.2946L70.2128 11.25L69.4885 11.27L68.7937 11.3548L68.1287 11.5043L67.4937 11.7185L66.8889 11.9973L66.3147 12.3406L65.7713 12.7483L65.2589 13.2202L64.7777 13.756L64.3278 14.3555L63.9094 15.0183L63.5226 15.7441L63.1676 16.5326L62.8445 17.3832L62.5533 18.2956L62.294 19.2691L62.0668 20.3033L61.8716 21.3976L61.7085 22.5514L61.5774 23.764L61.4783 25.0347L61.4112 26.3628L61.3759 27.7476L61.3724 29.1881L61.4005 30.6837L61.4602 32.2333L61.5513 33.8362L61.6737 35.4914L61.8271 37.1978L62.0113 38.9546L62.2262 40.7606L62.4715 42.6149L62.747 44.5162L63.0523 46.4636L63.3873 48.4557L63.7516 50.4915L64.1449 52.5697L64.5669 54.6891L65.0172 56.8485L65.4955 59.0464L66.0014 61.2817L66.5345 63.553L67.0944 65.8588L67.6807 68.198L68.2929 70.5689L68.9307 72.9702L69.5935 75.4005L70.2809 77.8582L70.9924 80.3419L71.7275 82.8501L72.4857 85.3813L73.2664 87.934L74.0693 90.5065L74.8936 93.0973L75.739 95.7049L76.6047 98.3277L77.4903 100.964L78.3951 103.612L79.3186 106.271L80.2602 108.938L81.2192 111.613L82.1951 114.293L83.1873 116.977L84.1951 119.663L85.2178 122.349L86.2549 125.035L87.3058 127.717L88.3697 130.395L89.4459 133.068L90.534 135.732L91.6331 138.387L92.7426 141.031L93.8619 143.663L94.9903 146.28L96.1271 148.882L97.2716 151.466L98.4232 154.031L99.5811 156.576L100.745 159.098L101.913 161.596L103.086 164.069L104.263 166.516L105.443 168.934L106.625 171.322L107.808 173.678L108.993 176.002L110.177 178.292L111.362 180.546L112.545 182.762L113.727 184.941L114.906 187.079L116.082 189.176L117.254 191.231L118.423 193.242L119.586 195.208L120.743 197.127L121.895 198.999L123.039 200.822L124.176 202.596L125.305 204.318L126.425 205.989L127.536 207.606L128.637 209.169L129.728 210.677L130.808 212.129L131.876 213.524L132.932 214.86L133.975 216.139L135.005 217.357L136.022 218.515L137.024 219.612L138.012 220.647L138.984 221.619L139.94 222.529L140.881 223.374L141.804 224.155L142.711 224.872L143.6 225.523L144.472 226.108L145.324 226.627L146.159 227.079L146.974 227.465L147.769 227.783L148.545 228.035L149.3 228.218L150.035 228.334L150.749 228.382L151.442 228.362L152.113 228.274L152.763 228.118L153.39 227.894L153.996 227.602L154.578 227.243L155.138 226.816L155.675 226.322L156.189 225.761L156.679 225.134L157.146 224.44L157.59 223.68L158.009 222.854L158.404 221.964L158.776 221.009L159.123 219.99L159.446 218.907L159.744 217.762L160.018 216.554L160.268 215.285L160.493 213.956L160.694 212.566L160.87 211.118L161.021 209.611L161.149 208.047L161.251 206.427L161.33 204.751L161.383 203.02L161.413 201.236L161.419 199.4L161.4 197.513L161.357 195.575L161.291 193.589L161.201 191.555L161.087 189.474L160.95 187.348L160.79 185.177L160.606 182.965L160.4 180.71L160.171 178.416L159.92 176.083L159.647 173.713L159.351 171.307L159.034 168.867L158.696 166.394L158.337 163.89L157.956 161.355L157.555 158.793L157.134 156.204L156.693 153.589L156.233 150.951L155.753 148.292L155.254 145.611L154.736 142.912L154.201 140.197L153.647 137.465L153.076 134.72L152.488 131.963L151.883 129.196L151.262 126.42L150.625 123.636L149.973 120.848L149.305 118.056L148.623 115.263L147.926 112.469L147.216 109.677L146.492 106.888L145.756 104.104L145.007 101.327L144.246 98.5579L143.473 95.7994L142.69 93.0527L141.895 90.3195L141.091 87.6016L140.276 84.9005L139.453 82.2181L138.621 79.5558L137.78 76.9154L136.932 74.2986L136.076 71.7068L135.214 69.1418L134.345 66.605L133.471 64.0982L132.591 61.6228L131.706 59.1803L130.816 56.7723L129.923 54.4003L129.026 52.0658L128.127 49.7701L127.224 47.5148L126.32 45.3012L125.415 43.1306L124.508 41.0046L123.601 38.9243L122.693 36.8911L121.786 34.9063L120.88 32.971L119.975 31.0866L119.072 29.2541L118.171 27.4747L117.273 25.7496L116.378 24.0798L115.486 22.4664L114.599 20.9103L113.716 19.4127L112.838 17.9743L111.965 16.5961L111.098 15.279L110.237 14.0239L109.383 12.8314L108.535 11.7025L107.695 10.6377L106.863 9.63778L106.039 8.70338L105.224 7.83509L104.417 7.03347L103.62 6.29904L102.832 5.63227L102.055 5.03361L101.288 4.50344L100.531 4.04211L99.7856 3.64995L99.0514 3.3272L98.3289 3.07411L97.6185 2.89084L96.9203 2.77754L96.2347 2.7343L95.562 2.76118L94.9024 2.85818L94.2563 3.02527L93.6238 3.26238L93.0053 3.56938L92.401 3.94611L91.8111 4.39236L91.2359 4.90789L90.6755 5.4924L90.1302 6.14555L89.6002 6.86698L89.0857 7.65625L88.5869 8.51292L88.1039 9.43647L87.6369 10.4264L87.1861 11.482L86.7517 12.6028L86.3337 13.788L85.9322 15.037L85.5476 16.349L85.1797 17.7232L84.8288 19.1589L84.4949 20.655L84.1782 22.2109L83.8786 23.8254L83.5963 25.4976L83.3314 27.2266L83.0839 29.0112L82.8538 30.8505L82.6411 32.7432L82.446 34.6883L82.2684 36.6845L82.1082 38.7307L81.9657 40.8256L81.8406 42.9679L81.733 45.1563L81.6429 47.3896L81.5703 49.6663L81.515 51.9851L81.4772 54.3445L81.4566 56.7431L81.4532 59.1795L81.467 61.6521L81.4979 64.1595L81.5458 66.7001L81.6106 69.2724L81.6922 71.8748L81.7905 74.5057L81.9054 77.1635L82.0367 79.8465L82.1843 82.5532L82.3481 85.2819L82.5279 88.0309L82.7236 90.7985L82.9351 93.583L83.1621 96.3828L83.4045 99.1961L83.6621 102.021L83.9348 104.856L84.2223 107.7L84.5244 110.55L84.841 113.404L85.1718 116.262L85.5167 119.121L85.8754 121.98L86.2477 124.837L86.6333 127.689L87.0321 130.536L87.4438 133.375L87.8682 136.205L88.305 139.025L88.7539 141.831L89.2148 144.623L89.6873 147.399L90.1712 150.157L90.6663 152.896L91.1722 155.613L91.6887 158.308L92.2156 160.978L92.7525 163.621L93.2991 166.237L93.8553 168.824L94.4206 171.379L94.9948 173.902L95.5776 176.391L96.1688 178.843L96.7679 181.259L97.3748 183.636L97.9892 185.973L98.6106 188.268L99.2389 190.52L99.8737 192.727L100.515 194.889L101.162 197.004L101.814 199.07L102.472 201.087L103.135 203.052L103.802 204.966L104.474 206.825L105.15 208.631L105.829 210.381L106.512 212.074L107.198 213.709L107.887 215.285L108.578 216.802L109.272 218.258L109.967 219.652L110.664 220.984L111.363 222.253L112.062 223.457L112.762 224.597L113.462 225.671L114.162 226.679L114.862 227.619L115.561 228.493L116.26 229.298L116.957 230.035L117.653 230.703L118.346 231.302L119.038 231.831L119.728 232.289L120.415 232.678L121.099 232.995L121.78 233.242L122.457 233.418L123.13 233.523L123.8 233.556L124.465 233.519L125.125 233.41L125.781 233.23L126.431 232.979L127.076 232.657L127.715 232.264L128.349 231.801L128.976 231.268L129.597 230.664L130.211 229.991L130.818 229.25L131.418 228.439L132.011 227.56L132.596 226.614L133.173 225.601L133.742 224.521L134.303 223.375L134.855 222.164L135.398 220.889L135.933 219.551L136.458 218.149L136.974 216.686L137.481 215.162L137.977 213.577L138.464 211.934L138.94 210.232L139.406 208.473L139.862 206.659L140.307 204.789L140.741 202.866L141.165 200.89L141.577 198.863L141.977 196.786L142.366 194.66L142.744 192.486L143.11 190.266L143.464 188.002L143.806 185.694L144.135 183.344L144.453 180.953L144.758 178.523L145.051 176.056L145.33 173.552L145.598 171.014L145.852 168.443L146.094 165.841L146.322 163.209L146.537 160.548L146.74 157.861L146.929 155.149L147.104 152.414L147.266 149.657L147.415 146.88L147.551 144.085L147.672 141.274L147.781 138.448L147.875 135.608L147.956 132.758L148.023 129.898L148.077 127.03L148.116 124.157L148.142 121.279L148.155 118.398L148.153 115.517L148.138 112.637L148.109 109.76L148.066 106.888L148.009 104.021L147.939 101.163L147.855 98.3153L147.758 95.4789L147.647 92.6558L147.522 89.8479L147.383 87.0568L147.232 84.2843L147.066 81.5321L146.888 78.8018L146.696 76.0952L146.491 73.4139L146.272 70.7595L146.041 68.1337L145.797 65.5381L145.539 62.9742L145.269 60.4437L144.987 57.9482L144.691 55.489L144.384 53.0679L144.063 50.6861L143.731 48.3453L143.386 46.0468L143.03 43.7921L142.661 41.5824L142.281 39.4193L141.889 37.304L141.486 35.2377L141.072 33.2219L140.646 31.2576L140.209 29.3462L139.762 27.4888L139.304 25.6865L138.835 23.9404L138.357 22.2516L137.868 20.6211L137.369 19.0499L136.86 17.5391L136.342 16.0894L135.815 14.7019L135.278 13.3772L134.733 12.1164L134.179 10.92L133.616 9.78891L133.046 8.72376L132.467 7.72518L131.88 6.7938L131.286 5.93018L130.684 5.13484L130.075 4.40827L129.46 3.7509L128.837 3.16313L128.209 2.64532L127.574 2.19778L126.933 1.82076L126.287 1.51451L125.636 1.27919L124.979 1.11494L124.317 1.02186L123.651 1L122.981 1.04935L122.307 1.16989L121.629 1.36152L120.947 1.62413L120.263 1.95753L119.575 2.36152L118.885 2.83584L118.193 3.38019L117.498 3.99422L116.802 4.67755L116.105 5.42975L115.406 6.25034L114.706 7.13882L114.006 8.09462L113.306 9.11715L112.606 10.2058L111.906 11.3598L111.208 12.5785L110.51 13.8612L109.813 15.207L109.118 16.6151L108.425 18.0846L107.734 19.6146L107.046 21.2042L106.36 22.8524L105.678 24.5581L104.999 26.3203L104.324 28.138L103.653 30.0099L102.987 31.9349L102.325 33.9118L101.669 35.9395L101.017 38.0166L100.372 40.1418L99.7322 42.3139L99.0988 44.5315L98.472 46.7933L97.8521 49.0977L97.2394 51.4435L96.6342 53.8292L96.0368 56.2532L95.4475 58.7141L94.8665 61.2104L94.2943 63.7406L93.731 66.303L93.1769 68.8961L92.6324 71.5183L92.0977 74.1679L91.5732 76.8435L91.059 79.5431L90.5554 82.2654L90.0628 85.0085L89.5814 87.7707L89.1114 90.5504L88.6532 93.3459L88.2069 96.1554L87.7729 98.9771L87.3513 101.81L86.9425 104.651L86.5466 107.499L86.1638 110.353L85.7946 113.21L85.4389 116.069L85.0972 118.928L84.7695 121.785L84.4561 124.639L84.1572 127.487L83.8729 130.329L83.6036 133.162L83.3494 135.985L83.1104 138.795L82.8868 141.592L82.6788 144.373L82.4866 147.136L82.3103 149.881L82.1501 152.605L82.0061 155.306L81.8784 157.984L81.7672 160.636L81.6727 163.261L81.5948 165.857L81.5337 168.422L81.4896 170.955L81.4625 173.455L81.4525 175.92L81.4597 178.348L81.4841 180.738L81.5258 183.088L81.5849 185.398L81.6614 187.665L81.7554 189.889L81.8668 192.067L81.9958 194.199L82.1423 196.283L82.3063 198.318L82.4878 200.303L82.6868 202.237L82.9034 204.118L83.1373 205.945L83.3887 207.717L83.6575 209.434L83.9436 211.093L84.247 212.695L84.5676 214.237L84.9052 215.72L85.2599 217.142L85.6315 218.503L86.0199 219.801L86.425 221.036L86.8467 222.207L87.2848 223.313L87.7392 224.354L88.2098 225.329L88.6963 226.238L89.1986 227.08L89.7166 227.854L90.25 228.561L90.7986 229.198L91.3623 229.768L91.9408 230.268L92.5339 230.699L93.1414 231.06L93.7631 231.351L94.3986 231.573L95.0477 231.725L95.7102 231.806L96.3858 231.817L97.0742 231.758L97.7752 231.63L98.4883 231.431L99.2134 231.162L99.9501 230.824L100.698 230.417L101.457 229.94L102.227 229.394L103.006 228.781L103.796 228.099L104.596 227.349L105.404 226.533L106.222 225.65L107.047 224.701L107.881 223.687L108.723 222.607L109.572 221.464L110.428 220.258L111.29 218.989L112.158 217.658L113.032 216.267L113.912 214.815L114.796 213.304L115.684 211.735L116.576 210.109L117.472 208.427L118.371 206.69L119.272 204.899L120.176 203.055L121.081 201.159L121.987 199.212L122.895 197.217L123.802 195.173L124.709 193.082L125.616 190.946L126.521 188.766L127.425 186.543L128.327 184.279L129.226 181.974L130.122 179.631L131.014 177.251L131.903 174.835L132.786 172.386L133.665 169.903L134.539 167.389L135.406 164.846L136.267 162.275L137.121 159.678L137.968 157.055L138.806 154.41L139.637 151.743L140.458 149.056L141.27 146.351L142.072 143.63L142.864 140.894L143.646 138.144L144.416 135.383L145.174 132.613L145.921 129.834L146.654 127.049L147.375 124.259L148.082 121.466L148.776 118.672L149.455 115.879L150.119 113.088L150.768 110.3L151.402 107.519L152.019 104.744L152.62 101.979L153.204 99.2244L153.772 96.4822L154.321 93.7542L154.853 91.0419L155.366 88.347L155.861 85.6712L156.337 83.016L156.793 80.3832L157.23 77.7743L157.646 75.1909L158.043 72.6345L158.418 70.1068L158.773 67.6092L159.107 65.1434L159.419 62.7107L159.709 60.3126L159.978 57.9507L160.224 55.6262L160.448 53.3408L160.649 51.0956L160.827 48.8921L160.982 46.7316L161.114 44.6154L161.223 42.5448L161.308 40.5211L161.369 38.5453L161.406 36.6188L161.419 34.7427L161.409 32.918L161.374 31.146L161.314 29.4276L161.231 27.7639L161.122 26.1558L160.99 24.6044L160.833 23.1105L160.651 21.675L160.445 20.2988L160.215 18.9826L159.96 17.7273L159.68 16.5336L159.376 15.4022L159.048 14.3337L158.695 13.3287L158.319 12.3879L157.918 11.5118L157.493 10.7008L157.045 9.95548L156.573 9.27619L156.077 8.66332L155.558 8.11721L155.016 7.63815L154.451 7.2264L153.863 6.88216L153.253 6.60562L152.62 6.39689L151.966 6.25605L151.29 6.18317L150.592 6.17824L149.874 6.24121L149.134 6.37201L148.374 6.57052L147.594 6.83656L146.794 7.16994L145.975 7.57041L145.137 8.03768L144.28 8.57142L143.404 9.17126L142.511 9.83679L141.601 10.5676L140.673 11.3631L139.729 12.2228L138.769 13.1462L137.794 14.1326L136.803 15.1814L135.797 16.292L134.778 17.4635L133.745 18.6953L132.698 19.9865L131.64 21.3363L130.569 22.7438L129.487 24.2082L128.394 25.7285L127.29 27.3037L126.177 28.9328L125.055 30.6148L123.924 32.3487L122.786 34.1333L121.64 35.9675L120.487 37.8501L119.328 39.78L118.164 41.7559L116.994 43.7766L115.821 45.8408L114.644 47.9473L113.464 50.0946L112.282 52.2816L111.099 54.5067L109.914 56.7686L108.729 59.0659L107.545 61.3972L106.362 63.761L105.18 66.1558L104.001 68.5802L102.826 71.0326L101.654 73.5115L100.486 76.0153L99.3235 78.5426L98.1669 81.0918L97.0169 83.6612L95.874 86.2493L94.739 88.8545L93.6126 91.4752L92.4954 94.1098L91.3881 96.7565L90.2914 99.4139L89.2059 102.08L88.1323 104.754L87.0713 107.433L86.0235 110.117L84.9895 112.802L83.97 115.489L82.9656 118.175L81.977 120.858L81.0048 123.537L80.0496 126.21L79.1119 128.875L78.1925 131.532L77.2919 134.178L76.4107 136.811L75.5495 139.431L74.7088 142.035L73.8891 144.621L73.0911 147.19L72.3153 149.738L71.5622 152.264L70.8323 154.767L70.1261 157.245L69.4442 159.697L68.7869 162.121L68.1548 164.515L67.5482 166.879L66.9678 169.211L66.4138 171.51L65.8867 173.773L65.3869 176L64.9148 178.189L64.4708 180.34L64.0551 182.45L63.6682 184.519L63.3104 186.546L62.982 188.528L62.6832 190.465L62.4144 192.356L62.1759 194.2L61.9677 195.995L61.7903 197.741L61.6438 199.436L61.5284 201.079L61.4443 202.671L61.3915 204.208L61.3704 205.692L61.3809 207.12L61.4233 208.492L61.4976 209.808L61.6038 211.065L61.742 212.265L61.9122 213.406L62.1145 214.487L62.3488 215.507L62.6152 216.467L62.9135 217.366L63.2437 218.203L63.6058 218.978L63.9996 219.689L64.425 220.338L64.8818 220.924L65.37 221.445L65.8893 221.903L66.4396 222.296L67.0206 222.625L67.632 222.89L68.2738 223.09L68.9454 223.225L69.6468 223.295L70.3776 223.301L71.1373 223.242L71.9258 223.118L72.7426 222.93L73.5874 222.678L74.4598 222.362L75.3593 221.981L76.2855 221.538L77.2379 221.031L78.2161 220.461L79.2197 219.829L80.248 219.135L81.3007 218.38L82.3771 217.563L83.4767 216.687L84.5989 215.75L85.7432 214.754L86.9089 213.7L88.0955 212.588L89.3023 211.418L90.5287 210.193L91.774 208.912L93.0376 207.576L94.3188 206.186L95.6168 204.744L96.9311 203.25L98.2608 201.704L99.6053 200.109L100.964 198.464L102.335 196.772L103.72 195.033L105.116 193.248L106.522 191.418L107.939 189.545L109.366 187.63L110.801 185.674L112.243 183.678L113.693 181.643L115.148 179.571L116.609 177.463L118.075 175.321L119.543 173.145L121.015 170.937L122.488 168.699L123.963 166.432L125.437 164.137L126.911 161.815L128.383 159.469L129.853 157.099L131.319 154.708L132.781 152.296L134.238 149.865L135.689 147.416L137.133 144.952L138.57 142.473L139.998 139.982L141.416 137.479L142.825 134.966L144.222 132.445L145.607 129.918L146.979 127.385L148.337 124.849L149.681 122.311L151.009 119.772L152.321 117.234L153.616 114.699L154.894 112.168L156.152 109.643L157.391 107.125L158.61 104.616L159.808 102.117L160.984 99.63L162.137 97.1563L163.267 94.6975L164.373 92.255L165.455 89.8303L166.51 87.4248L167.54 85.0401L168.543 82.6775L169.518 80.3385L170.465 78.0244L171.383 75.7367L172.271 73.4767L173.13 71.2458L173.958 69.0453L174.754 66.8765L175.519 64.7407L176.251 62.6392L176.951 60.5732L177.617 58.544L178.249 56.5527L178.847 54.6005L179.41 52.6886L179.938 50.818L180.43 48.99L180.886 47.2055L181.305 45.4656L181.688 43.7713L182.034 42.1237L182.342 40.5235L182.613 38.9719L182.845 37.4695L183.04 36.0175L183.195 34.6164L183.313 33.2673L183.391 31.9707L183.431 30.7275L183.431 29.5383L183.392 28.4038L183.314 27.3247L183.196 26.3015L183.039 25.3348L182.843 24.4251L182.607 23.573L182.332 22.7787L182.017 22.0429L181.664 21.3658L181.271 20.7478L180.839 20.1892L180.368 19.6903L179.859 19.2513L179.311 18.8725L178.724 18.5538L178.1 18.2956L177.438 18.0979L176.738 17.9607L176.002 17.884L175.228 17.8678L174.418 17.9121L173.572 18.0167L172.69 18.1816L171.773 18.4064L170.821 18.6912L169.835 19.0354L168.815 19.439L167.762 19.9016L166.676 20.4228L165.558 21.0022L164.408 21.6394L163.228 22.334L162.016 23.0854L160.776 23.8932L159.505 24.7567L158.207 25.6754L156.881 26.6486L155.528 27.6757L154.149 28.756L152.744 29.8887L151.314 31.0732L149.861 32.3085L148.384 33.5939L146.885 34.9286L145.365 36.3117L143.824 37.7422L142.263 39.2192L140.683 40.7419L139.085 42.3091L137.471 43.9199L135.84 45.5732L134.194 47.2679L132.534 49.0031L130.86 50.7775L129.174 52.5901L127.477 54.4397L125.769 56.3251L124.052 58.2451L122.327 60.1984L120.594 62.184L118.855 64.2004L117.11 66.2466L115.361 68.321L113.609 70.4225L111.855 72.5498L110.1 74.7014L108.344 76.8761L106.589 79.0726L104.837 81.2893L103.087 83.525L101.342 85.7783L99.6012 88.0478L97.867 90.332L96.14 92.6296L94.4214 94.9392L92.7121 97.2592L91.0132 99.5883L89.3257 101.925L87.6507 104.268L85.9892 106.616L84.3423 108.967L82.7109 111.32L81.0961 113.674L79.4989 116.026L77.9203 118.377L76.3613 120.723L74.8229 123.064L73.3059 125.399L71.8115 127.725L70.3405 130.042L68.8939 132.348L67.4726 134.642L66.0775 136.922L64.7096 139.187L63.3696 141.436L62.0586 143.667L60.7773 145.879L59.5265 148.07L58.3071 150.24L57.12 152.387L55.9658 154.51L54.8453 156.607L53.7594 158.678L52.7087 160.72L51.694 162.733L50.7159 164.716L49.7752 166.668L48.8724 168.587L48.0082 170.472L47.1832 172.322L46.398 174.136L45.6532 175.913L44.9493 177.652L44.2868 179.353L43.6662 181.013L43.0879 182.632L42.5525 184.209L42.0603 185.744L41.6118 187.234L41.2072 188.681L40.847 190.082L40.5314 191.437L40.2608 192.745L40.0354 194.005L39.8555 195.217L39.7212 196.38L39.6327 197.494L39.5903 198.558L39.5939 199.57L39.6438 200.532L39.74 201.441L39.8825 202.299L40.0714 203.103L40.3066 203.855L40.5881 204.553L40.9159 205.197L41.2898 205.787L41.7097 206.322L42.1755 206.803L42.6869 207.229L43.2439 207.6L43.846 207.916L44.4932 208.176L45.185 208.381L45.9211 208.531L46.7013 208.625L47.5251 208.664L48.3922 208.647L49.302 208.575L50.2542 208.448L51.2482 208.267L52.2836 208.03L53.3598 207.739L54.4762 207.393L55.6323 206.994L56.8275 206.541L58.061 206.035L59.3323 205.476L60.6407 204.864L61.9854 204.201L63.3657 203.486L64.7809 202.719L66.2301 201.903L67.7126 201.036L69.2276 200.121L70.7741 199.156L72.3514 198.144L73.9585 197.084L75.5945 195.978L77.2585 194.826L78.9496 193.629L80.6668 192.388L82.4091 191.103L84.1754 189.776L85.9649 188.407L87.7764 186.998L89.6089 185.548L91.4613 184.06L93.3326 182.533L95.2217 180.97L97.1274 179.37L99.0487 177.736L100.984 176.068L102.933 174.367L104.894 172.634L106.866 170.871L108.848 169.078L110.839 167.257L112.836 165.409L114.841 163.534L116.85 161.635L118.863 159.712L120.878 157.767L122.895 155.8L124.912 153.814L126.928 151.808L128.942 149.785L130.952 147.746L132.958 145.692L134.958 143.624L136.95 141.544L138.935 139.452L140.909 137.351L142.873 135.241L144.825 133.123L146.763 131L148.688 128.872L150.596 126.741L152.488 124.607L154.362 122.473L156.217 120.339L158.051 118.207L159.864 116.078L161.654 113.953L163.421 111.834L165.163 109.722L166.879 107.618L168.568 105.523L170.228 103.439L171.86 101.367L173.462 99.3084L175.032 97.264L176.57 95.2351L178.075 93.223L179.545 91.2289L180.981 89.254L182.38 87.2994L183.743 85.3662L185.067 83.4556L186.353 81.5688L187.599 79.7067L188.805 77.8706L189.969 76.0613L191.091 74.2801L192.171 72.528L193.207 70.8058L194.199 69.1147L195.146 67.4555L196.047 65.8293L196.902 64.237L197.711 62.6794L198.472 61.1574L199.185 59.6719L199.85 58.2238L200.465 56.8138L201.032 55.4426L201.548 54.1112L202.014 52.8201L202.43 51.5702L202.795 50.362L203.108 49.1962L203.37 48.0735L203.58 46.9945L203.738 45.9596L203.844 44.9696L203.898 44.0248L203.899 43.1258L203.848 42.273L203.744 41.4668L203.587 40.7077L203.377 39.996L203.116 39.332L202.801 38.7161L202.434 38.1486L202.015 37.6296L201.543 37.1595L201.02 36.7383L200.445 36.3663L199.818 36.0436L199.14 35.7703L198.412 35.5464L197.633 35.372L196.803 35.2471L195.924 35.1717L194.996 35.1458L194.019 35.1691L192.994 35.2417L191.921 35.3634L190.801 35.5341L189.634 35.7534L188.422 36.0212L187.164 36.3373L185.862 36.7013L184.516 37.113L183.126 37.5719L181.695 38.0778L180.222 38.6302L178.708 39.2287L177.154 39.8728L175.562 40.5621L173.931 41.296L172.263 42.074L170.559 42.8956L168.82 43.7602L167.047 44.6671L165.24 45.6158L163.401 46.6056L161.531 47.6357L159.632 48.7055L157.703 49.8143L155.747 50.9614L153.763 52.1458L151.755 53.367L149.722 54.6239L147.666 55.9159L145.589 57.242L143.49 58.6015L141.373 59.9933L139.237 61.4167L137.084 62.8706L134.916 64.3541L132.733 65.8663L130.538 67.4063L128.331 68.9729L126.113 70.5653L123.887 72.1824L121.652 73.8232L119.412 75.4866L117.167 77.1716L114.918 78.8772L112.666 80.6022L110.414 82.3457L108.162 84.1064L105.913 85.8833L103.666 87.6753L101.424 89.4814L99.1884 91.3003L96.9598 93.1309L94.74 94.9722L92.5302 96.823L90.3319 98.6821L88.1465 100.548L85.9751 102.421L83.8193 104.298L81.6803 106.18L79.5595 108.063L77.4582 109.949L75.3777 111.835L73.3193 113.72L71.2842 115.603L69.2738 117.483L67.2893 119.359L65.332 121.23L63.4031 123.095L61.5038 124.952L59.6353 126.8L57.7988 128.639L55.9955 130.467L54.2265 132.284L52.493 134.087L50.796 135.877L49.1366 137.652L47.516 139.41L45.9351 141.152L44.3949 142.875L42.8966 144.58L41.4409 146.265L40.029 147.928L38.6617 149.57L37.3399 151.189L36.0645 152.784L34.8363 154.355L33.6562 155.9L32.5249 157.419L31.4432 158.91L30.4118 160.373L29.4315 161.808L28.5028 163.212L27.6265 164.587L26.8032 165.93L26.0333 167.241L25.3175 168.519L24.6564 169.764L24.0502 170.975L23.4996 172.152L23.0049 173.293L22.5665 174.398L22.1847 175.467L21.8599 176.498L21.5924 177.493L21.3823 178.449L21.2299 179.366L21.1353 180.245L21.0988 181.084L21.1203 181.884L21.2001 182.643L21.338 183.361L21.5341 184.039L21.7884 184.676L22.1007 185.271L22.471 185.824L22.8991 186.335L23.3849 186.804L23.9281 187.231L24.5284 187.615L25.1856 187.957L25.8994 188.256L26.6693 188.512L27.4951 188.725L28.3762 188.895L29.3122 189.023L30.3026 189.107L31.3469 189.149L32.4445 189.148L33.5948 189.105L34.7972 189.019L36.051 188.891L37.3554 188.72L38.7099 188.508L40.1136 188.254L41.5657 187.959L43.0654 187.622L44.6119 187.245L46.2043 186.827L47.8415 186.368L49.5228 185.87L51.2472 185.333L53.0136 184.757L54.821 184.142L56.6684 183.489L58.5546 182.798L60.4787 182.071L62.4394 181.307L64.4357 180.507L66.4662 179.671L68.53 178.801L70.6256 177.896L72.7519 176.958L74.9077 175.986L77.0916 174.983L79.3023 173.948L81.5386 172.882L83.799 171.785L86.0823 170.66L88.3871 169.505L90.712 168.323L93.0556 167.113L95.4165 165.877L97.7932 164.615L100.184 163.329L102.589 162.018L105.004 160.685L107.43 159.329L109.865 157.952L112.306 156.554L114.753 155.137L117.205 153.701L119.659 152.247L122.114 150.777L124.569 149.29L127.022 147.788L129.472 146.272L131.916 144.743L134.355 143.201L136.786 141.649L139.207 140.086L141.618 138.513L144.016 136.932L146.401 135.344L148.77 133.749L151.122 132.148L153.457 130.543L155.771 128.934L158.065 127.323L160.336 125.709L162.584 124.095L164.806 122.482L167.001 120.869L169.168 119.259L171.306 117.651L173.413 116.048L175.488 114.449L177.529 112.857L179.536 111.271L181.507 109.693L183.441 108.124L185.336 106.564L187.192 105.014L189.007 103.476L190.779 101.95L192.509 100.437L194.195 98.9384L195.835 97.4541L197.429 95.9855L198.976 94.5333L200.474 93.0984L201.923 91.6814L203.322 90.2833L204.669 88.9048L205.965 87.5466L207.207 86.2095L208.396 84.8942L209.53 83.6014L210.609 82.3318L211.632 81.0862L212.599 79.8651L213.508 78.6692L214.359 77.4992L215.152 76.3557L215.885 75.2392L216.559 74.1503L217.173 73.0896L217.726 72.0577L218.219 71.055L218.65 70.0821L219.019 69.1395L219.327 68.2275L219.572 67.3467L219.756 66.4975L219.876 65.6803L219.934 64.8954L219.929 64.1433L219.861 63.4243L219.731 62.7387L219.537 62.0868L219.281 61.4688L218.962 60.8852L218.58 60.336L218.136 59.8215L217.63 59.3419L217.062 58.8974L216.432 58.4881L215.741 58.1142L214.989 57.7758L214.176 57.4729L213.303 57.2057L212.37 56.9741L211.379 56.7783L210.328 56.6181L209.22 56.4937L208.054 56.4049L206.831 56.3517L205.552 56.334L204.218 56.3518L202.829 56.4048L201.387 56.493L199.891 56.6163L198.344 56.7743L196.745 56.9669L195.096 57.1939L193.398 57.4551L191.651 57.7501L189.857 58.0788L188.017 58.4407L186.131 58.8357L184.202 59.2633L182.229 59.7233L180.215 60.2151L178.16 60.7385L176.066 61.2931L173.934 61.8783L171.765 62.4939L169.561 63.1392L167.322 63.8139L165.05 64.5175L162.747 65.2494L160.414 66.0091L158.052 66.7962L155.663 67.61L153.247 68.4499L150.808 69.3156L148.345 70.2062L145.861 71.1213L143.357 72.0602L140.835 73.0223L138.295 74.007L135.741 75.0136L133.172 76.0414L130.591 77.0898L128 78.1582L125.399 79.2457L122.791 80.3518L120.176 81.4758L117.558 82.6168L114.937 83.7742L112.314 84.9474L109.692 86.1354L107.072 87.3377L104.456 88.5534L101.845 89.7818L99.2412 91.0221L96.6457 92.2737L94.0602 93.5357L91.4864 94.8073L88.9258 96.0879L86.3801 97.3765L83.8509 98.6726L81.3396 99.9752L78.8478 101.284L76.3771 102.597L73.9291 103.915L71.5052 105.236L69.1069 106.56L66.7357 107.885L64.3931 109.212L62.0807 110.54L59.7997 111.867L57.5516 113.192L55.3379 114.516L53.16 115.838L51.0191 117.155L48.9166 118.469L46.8539 119.778L44.8323 121.081L42.853 122.378L40.9173 123.667L39.0263 124.949L37.1814 126.223L35.3836 127.487L33.6341 128.741L31.9341 129.985L30.2845 131.217L28.6865 132.437L27.1411 133.645L25.6492 134.84L24.2118 136.02L22.8299 137.187L21.5044 138.338L20.236 139.473L19.0257 140.592L17.8741 141.694L16.7822 142.779L15.7505 143.845L14.7797 144.893L13.8706 145.922L13.0237 146.931L12.2395 147.921L11.5187 148.889L10.8617 149.837L10.2689 150.762L9.74075 151.666L9.27767 152.548L8.87996 153.406L8.54791 154.241L8.28179 155.053L8.08181 155.841L7.94814 156.604L7.8809 157.342L7.8802 158.056L7.94609 158.744L8.07857 159.406L8.27762 160.042L8.54316 160.652L8.87507 161.236L9.27321 161.793L9.73738 162.323L10.2673 162.826L10.8628 163.302L11.5235 163.75L12.2491 164.17L13.039 164.563L13.893 164.928L14.8105 165.265L15.7911 165.574L16.8341 165.855L17.939 166.108L19.1051 166.332L20.3317 166.528L21.6183 166.696L22.9639 166.836L24.3679 166.948L25.8293 167.031L27.3474 167.087L28.9213 167.114L30.55 167.114L32.2326 167.085L33.968 167.029L35.7553 166.946L37.5934 166.835L39.4812 166.697L41.4176 166.532L43.4014 166.34L45.4314 166.122L47.5064 165.877L49.6253 165.606L51.7866 165.309L53.9891 164.986L56.2316 164.639L58.5126 164.266L60.8307 163.868L63.1846 163.446L65.5729 163L67.9941 162.53L70.4467 162.037L72.9293 161.521L75.4403 160.982L77.9783 160.421L80.5416 159.838L83.1289 159.234L85.7383 158.609L88.3685 157.963L91.0177 157.297L93.6844 156.611L96.367 155.907L99.0637 155.183L101.773 154.441L104.493 153.682L107.223 152.905L109.96 152.111L112.703 151.301L115.45 150.476L118.2 149.635L120.95 148.779L123.7 147.91L126.447 147.026L129.19 146.13L131.927 145.221L134.657 144.3L137.377 143.367L140.086 142.424L142.783 141.471L145.465 140.507L148.132 139.535L150.781 138.554L153.411 137.565L156.02 136.569L158.606 135.565L161.169 134.556L163.705 133.541L166.215 132.52L168.696 131.495L171.146 130.466L173.565 129.434L175.951 128.399L178.301 127.362L180.616 126.323L182.892 125.283L185.13 124.243L187.327 123.203L189.482 122.163L191.594 121.125L193.661 120.088L195.682 119.054L197.657 118.022L199.583 116.994L201.459 115.97L203.285 114.95L205.058 113.936L206.779 112.927L208.446 111.924L210.057 110.928L211.612 109.939L213.11 108.957L214.55 107.984L215.931 107.019L217.252 106.063L218.513 105.117L219.711 104.181L220.848 103.256L221.921 102.341L222.931 101.438L223.876 100.547L224.756 99.6677L225.571 98.8013L226.32 97.9479L227.002 97.1081L227.616 96.2822L228.164 95.4705L228.643 94.6734L229.055 93.8914L229.398 93.1247L229.672 92.3736L229.877 91.6386L230.013 90.92L230.08 90.2179L230.078 89.5329L230.006 88.865L229.865 88.2147L229.655 87.5822L229.376 86.9677L229.028 86.3715L228.611 85.7938L228.125 85.2349L227.571 84.6949L226.949 84.174L226.259 83.6726L225.502 83.1906L224.678 82.7283L223.788 82.2859L222.832 81.8635L221.811 81.4612L220.724 81.0791L219.574 80.7174L218.361 80.3761L217.084 80.0554L215.746 79.7553L214.347 79.4759L212.887 79.2172L211.368 78.9793L209.791 78.7622L208.155 78.5659L206.464 78.3905L204.716 78.2359L202.914 78.1021L201.059 77.9891L199.151 77.8968L197.192 77.8253L195.183 77.7744L193.126 77.7441L191.02 77.7344L188.869 77.745L186.672 77.776L184.432 77.8272L182.15 77.8985L179.826 77.9898L177.463 78.1009L175.062 78.2317L172.625 78.382L170.152 78.5517L167.646 78.7406L165.107 78.9485L162.538 79.1753L159.94 79.4206L157.315 79.6843L154.664 79.9663L151.988 80.2662L149.29 80.5838L146.572 80.919L143.833 81.2713L141.078 81.6407L138.306 82.0267L135.521 82.4293L132.723 82.8479L129.914 83.2825L127.096 83.7327L124.27 84.1982L121.44 84.6786L118.605 85.1738L115.768 85.6833L112.931 86.2069L110.095 86.7442L107.262 87.2948L104.435 87.8586L101.613 88.4351L98.8004 89.0239L95.9976 89.6248L93.2066 90.2373L90.429 90.8611L87.6667 91.4959L84.9214 92.1413L82.1946 92.7969L79.4881 93.4624L76.8036 94.1373L74.1428 94.8214L71.5071 95.5142L68.8984 96.2153L66.3182 96.9244L63.7681 97.641L61.2496 98.3649L58.7644 99.0955L56.3139 99.8326L53.8998 100.576L51.5234 101.324L49.1862 102.078L46.8898 102.837L44.6355 103.601L42.4247 104.368L40.2588 105.139L38.1391 105.914L36.067 106.691L34.0437 107.471L32.0705 108.253L30.1487 109.036L28.2794 109.821L26.4637 110.607L24.7029 111.394L22.998 112.181L21.3501 112.967L19.7602 113.753L18.2293 114.539L16.7583 115.323L15.3482 116.105L13.9999 116.885L12.7142 117.663L11.4919 118.438L10.3338 119.21L9.24063 119.979L8.21304 120.743L7.25172 121.504L6.35724 122.26L5.5302 123.011L4.77112 123.757L4.08047 124.498L3.45871 125.233L2.90622 125.962L2.42338 126.684L2.01049 127.399L1.66782 128.108L1.39561 128.809L1.19403 129.502L1.06323 130.187L1.00331 130.865L1.01433 131.533L1.09628 132.193L1.24914 132.844L1.47284 133.485L1.76724 134.117L2.1322 134.739L2.56749 135.351L3.07287 135.952L3.64804 136.543L4.29267 137.123L5.00638 137.693L5.78873 138.25L6.63928 138.797L7.55751 139.332L8.54286 139.855L9.59476 140.365L10.7126 140.864L11.8956 141.35L13.1432 141.824L14.4545 142.285L15.8288 142.733L17.2652 143.167L18.763 143.589L20.3211 143.997L21.9386 144.392L23.6145 144.773L25.3479 145.14L27.1376 145.494L28.9826 145.833L30.8818 146.159L32.834 146.47L34.838 146.767L36.8925 147.05L38.9964 147.318L41.1484 147.572L43.3471 147.811L45.5912 148.035L47.8793 148.245L50.21 148.44L52.5819 148.621L54.9936 148.786L57.4436 148.937L59.9303 149.073L62.4523 149.194L65.008 149.301L67.5958 149.392L70.2142 149.469L72.8616 149.53L75.5363 149.577L78.2367 149.609L80.9611 149.627L83.7079 149.63L86.4753 149.618L89.2618 149.591L92.0655 149.55L94.8848 149.494L97.718 149.424L100.563 149.339L103.419 149.24L106.283 149.127L109.154 149L112.03 148.859L114.909 148.703L117.79 148.534L120.671 148.351L123.549 148.155L126.424 147.945L129.293 147.721L132.155 147.484L135.008 147.234L137.85 146.972L140.68 146.696L143.495 146.407L146.294 146.106L149.076 145.793L151.838 145.467L154.579 145.129L157.296 144.779L159.99 144.418L162.657 144.045L165.296 143.66L167.906 143.264L170.485 142.858L173.031 142.44L175.543 142.012L178.02 141.573L180.459 141.124L182.859 140.665L185.219 140.196L187.537 139.718L189.812 139.23L192.043 138.733L194.227 138.227L196.364 137.712L198.453 137.188L200.492 136.657L202.48 136.117L204.415 135.569L206.297 135.014L208.124 134.451L209.896 133.882L211.61 133.305L213.267 132.722L214.864 132.132L216.402 131.537L217.878 130.935L219.293 130.328L220.645 129.715L221.934 129.097L223.158 128.475L224.317 127.847L225.41 127.216L226.437 126.58L227.397 125.941L228.289 125.297L229.113 124.651L229.868 124.002L230.553 123.35L231.17 122.695L231.716 122.038L232.191 121.379L232.597 120.719L232.931 120.057L233.194 119.394L233.386 118.73L233.506 118.066L233.555 117.401" stroke="url(#paint0_linear_832_1654)" stroke-width="0.961242"/>
<defs>
<linearGradient id="paint0_linear_832_1654" x1="117.278" y1="1" x2="117.278" y2="233.556" gradientUnits="userSpaceOnUse">
<stop stop-color="#9E00FF"/>
<stop offset="1" stop-color="#000AFF"/>
</linearGradient>
</defs>
</svg>
