<svg width="203" height="263" viewBox="0 0 203 263" fill="none" xmlns="http://www.w3.org/2000/svg">
<path d="M0.441404 72.7966L0.4518 71.3449L0.48298 69.9057L0.53494 68.4793L0.607654 67.0663L0.701097 65.667L0.815237 64.2819L0.950031 62.9113L1.10543 61.5558L1.28138 60.2157L1.4778 58.8914L1.69465 57.5834L1.93182 56.2919L2.18924 55.0174L2.46681 53.7603L2.76444 52.5209L3.08201 51.2996L3.4194 50.0967L3.77649 48.9127L4.15316 47.7478L4.54927 46.6024L4.96466 45.4769L5.3992 44.3715L5.85272 43.2865L6.32504 42.2223L6.81603 41.1791L7.32547 40.1573L7.85318 39.1572L8.39899 38.1789L8.96269 37.2229L9.54407 36.2893L10.1429 35.3783L10.759 34.4903L11.3922 33.6255L12.0421 32.784L12.7086 31.9661L13.3914 31.1721L14.0903 30.402L14.8051 29.6562L15.5354 28.9347L16.2809 28.2378L17.0416 27.5656L17.8169 26.9182L18.6067 26.2959L19.4108 25.6986L20.2287 25.1267L21.0602 24.5801L21.905 24.059L22.7628 23.5634L23.6333 23.0935L24.5162 22.6494L25.4111 22.231L26.3177 21.8385L27.2358 21.472L28.1649 21.1313L29.1048 20.8167L30.0551 20.528L31.0154 20.2653L31.9855 20.0286L32.9649 19.8179L33.9533 19.6331L34.9504 19.4743L35.9559 19.3414L36.9692 19.2343L37.9902 19.153L39.0184 19.0974L40.0534 19.0674L41.095 19.063L42.1427 19.084L43.1961 19.1304L44.2549 19.2019L45.3186 19.2986L46.3871 19.4202L47.4597 19.5667L48.5363 19.7378L49.6163 19.9334L50.6994 20.1533L51.7853 20.3974L52.8735 20.6654L53.9637 20.9572L55.0555 21.2725L56.1484 21.6111L57.2422 21.9729L58.3364 22.3575L59.4307 22.7647L60.5247 23.1943L61.618 23.6461L62.7102 24.1197L63.8009 24.6148L64.8898 25.1313L65.9765 25.6688L67.0606 26.2269L68.1418 26.8055L69.2196 27.4042L70.2937 28.0226L71.3638 28.6605L72.4295 29.3175L73.4904 29.9932L74.5462 30.6874L75.5964 31.3996L76.6408 32.1296L77.6791 32.8769L78.7107 33.6411L79.7355 34.422L80.753 35.219L81.763 36.0318L82.7651 36.8601L83.7589 37.7034L84.7442 38.5613L85.7206 39.4333L86.6878 40.3192L87.6455 41.2184L88.5934 42.1306L89.5311 43.0552L90.4584 43.9919L91.375 44.9403L92.2806 45.8998L93.1749 46.8701L94.0576 47.8507L94.9285 48.8411L95.7872 49.8409L96.6335 50.8497L97.4672 51.8669L98.288 52.8921L99.0957 53.9249L99.8899 54.9647L100.671 56.0111L101.437 57.0637L102.19 58.1219L102.928 59.1853L103.652 60.2534L104.361 61.3258L105.056 62.4019L105.735 63.4812L106.399 64.5634L107.047 65.6479L107.68 66.7342L108.297 67.8219L108.897 68.9104L109.482 69.9994L110.051 71.0883L110.603 72.1766L111.138 73.2639L111.657 74.3497L112.159 75.4336L112.645 76.515L113.113 77.5934L113.564 78.6685L113.998 79.7398L114.415 80.8067L114.814 81.8689L115.196 82.9259L115.561 83.9772L115.908 85.0223L116.237 86.0609L116.549 87.0925L116.843 88.1166L117.12 89.1329L117.379 90.1408L117.62 91.1399L117.844 92.1299L118.05 93.1103L118.238 94.0807L118.409 95.0407L118.562 95.9898L118.698 96.9277L118.816 97.854L118.917 98.7684L119 99.6703L119.066 100.559L119.115 101.436L119.146 102.298L119.161 103.147L119.158 103.981L119.139 104.801L119.103 105.606L119.05 106.396L118.981 107.171L118.896 107.929L118.794 108.671L118.676 109.397L118.542 110.106L118.392 110.798L118.227 111.473L118.046 112.13L117.85 112.769L117.639 113.39L117.413 113.993L117.173 114.577L116.918 115.143L116.648 115.689L116.365 116.216L116.068 116.724L115.757 117.211L115.433 117.679L115.095 118.127L114.745 118.555L114.382 118.963L114.007 119.35L113.619 119.716L113.22 120.061L112.809 120.386L112.387 120.689L111.954 120.972L111.51 121.233L111.056 121.472L110.591 121.691L110.117 121.888L109.633 122.063L109.14 122.217L108.638 122.349L108.127 122.46L107.608 122.549L107.081 122.616L106.546 122.662L106.004 122.685L105.455 122.688L104.9 122.668L104.338 122.627L103.77 122.565L103.196 122.481L102.617 122.376L102.034 122.249L101.445 122.101L100.852 121.932L100.256 121.742L99.6559 121.531L99.0526 121.299L98.4466 121.046L97.838 120.773L97.2274 120.48L96.6151 120.166L96.0013 119.832L95.3866 119.479L94.7712 119.105L94.1556 118.712L93.54 118.3L92.9249 117.869L92.3105 117.419L91.6974 116.95L91.0858 116.463L90.4761 115.957L89.8687 115.434L89.2638 114.893L88.662 114.334L88.0636 113.759L87.4688 113.167L86.8781 112.558L86.2919 111.933L85.7104 111.292L85.134 110.635L84.5631 109.964L83.998 109.277L83.4391 108.575L82.8868 107.86L82.3412 107.13L81.8029 106.387L81.2721 105.63L80.7491 104.861L80.2344 104.079L79.7281 103.285L79.2307 102.48L78.7425 101.663L78.2637 100.835L77.7947 99.997L77.3358 99.1486L76.8872 98.2904L76.4494 97.423L76.0226 96.5467L75.607 95.662L75.203 94.7692L74.8108 93.8688L74.4308 92.9614L74.0632 92.0471L73.7082 91.1267L73.3661 90.2004L73.0372 89.2687L72.7218 88.3322L72.42 87.3911L72.1321 86.4461L71.8584 85.4975L71.599 84.5459L71.3543 83.5916L71.1244 82.6352L70.9095 81.6771L70.7098 80.7178L70.5256 79.7578L70.3569 78.7975L70.2041 77.8374L70.0673 76.878L69.9467 75.9197L69.8424 74.9631L69.7545 74.0085L69.6833 73.0566L69.6289 72.1077L69.5914 71.1623L69.571 70.221L69.5678 69.2841L69.5818 68.3521L69.6133 67.4255L69.6623 66.5049L69.7289 65.5905L69.8133 64.683L69.9154 63.7828L70.0353 62.8903L70.1733 62.0059L70.3292 61.1302L70.5031 60.2637L70.6952 59.4066L70.9053 58.5596L71.1337 57.723L71.3802 56.8973L71.6449 56.0829L71.9279 55.2803L72.229 54.4898L72.5484 53.7119L72.8859 52.947L73.2417 52.1956L73.6155 51.458L74.0075 50.7347L74.4175 50.0261L74.8456 49.3324L75.2916 48.6542L75.7554 47.9919L76.2371 47.3457L76.7366 46.7161L77.2536 46.1034L77.7882 45.5081L78.3403 44.9304L78.9097 44.3706L79.4963 43.8293L80.1 43.3066L80.7207 42.8029L81.3582 42.3185L82.0123 41.8538L82.683 41.409L83.3701 40.9845L84.0733 40.5805L84.7926 40.1973L85.5277 39.8352L86.2785 39.4945L87.0447 39.1754L87.8262 38.8782L88.6228 38.603L89.4342 38.3503L90.2602 38.1201L91.1007 37.9127L91.9553 37.7283L92.8238 37.5672L93.706 37.4294L94.6017 37.3152L95.5106 37.2248L96.4324 37.1583L97.3668 37.1159L98.3136 37.0977L99.2726 37.1039L100.243 37.1345L101.226 37.1898L102.219 37.2699L103.224 37.3747L104.239 37.5044L105.265 37.6592L106.3 37.839L107.345 38.044L108.4 38.2742L109.464 38.5295L110.536 38.8102L111.617 39.1161L112.706 39.4474L113.803 39.8039L114.907 40.1858L116.019 40.5929L117.137 41.0253L118.261 41.483L119.391 41.9658L120.527 42.4738L121.668 43.0068L122.815 43.5648L123.965 44.1477L125.12 44.7555L126.279 45.388L127.441 46.0451L128.606 46.7267L129.774 47.4326L130.944 48.1628L132.116 48.917L133.29 49.6952L134.465 50.4971L135.641 51.3225L136.817 52.1714L137.993 53.0434L139.169 53.9385L140.344 54.8563L141.517 55.7966L142.69 56.7593L143.86 57.7441L145.028 58.7507L146.194 59.7788L147.356 60.8283L148.515 61.8989L149.671 62.9902L150.822 64.102L151.968 65.2339L153.11 66.3858L154.246 67.5572L155.376 68.7478L156.501 69.9574L157.618 71.1855L158.73 72.4319L159.833 73.6962L160.93 74.978L162.018 76.277L163.098 77.5928L164.17 78.925L165.233 80.2733L166.286 81.6372L167.329 83.0164L168.363 84.4105L169.386 85.819L170.398 87.2415L171.4 88.6777L172.39 90.1271L173.368 91.5893L174.334 93.0639L175.288 94.5503L176.229 96.0482L177.158 97.5572L178.073 99.0767L178.974 100.606L179.862 102.146L180.735 103.694L181.594 105.251L182.439 106.817L183.268 108.39L184.082 109.971L184.88 111.558L185.663 113.152L186.43 114.751L187.18 116.356L187.914 117.966L188.631 119.581L189.331 121.199L190.014 122.82L190.679 124.445L191.327 126.072L191.957 127.701L192.569 129.331L193.162 130.962L193.738 132.594L194.294 134.226L194.832 135.857L195.351 137.487L195.851 139.115L196.332 140.742L196.793 142.366L197.235 143.986L197.657 145.604L198.059 147.217L198.441 148.826L198.804 150.429L199.146 152.027L199.468 153.62L199.77 155.205L200.052 156.784L200.313 158.356L200.554 159.919L200.774 161.474L200.974 163.02L201.153 164.557L201.311 166.084L201.449 167.601L201.566 169.107L201.662 170.602L201.738 172.086L201.793 173.557L201.827 175.016L201.841 176.462L201.834 177.895L201.806 179.314L201.758 180.719L201.69 182.109L201.601 183.484L201.491 184.844L201.361 186.188L201.211 187.516L201.041 188.828L200.851 190.122L200.641 191.4L200.411 192.659L200.162 193.901L199.893 195.124L199.604 196.329L199.296 197.514L198.969 198.681L198.623 199.827L198.259 200.954L197.875 202.06L197.473 203.146L197.053 204.211L196.614 205.254L196.158 206.277L195.684 207.277L195.192 208.256L194.683 209.213L194.157 210.147L193.614 211.058L193.054 211.947L192.478 212.813L191.886 213.655L191.277 214.474L190.654 215.269L190.014 216.04L189.36 216.788L188.691 217.511L188.007 218.21L187.309 218.884L186.596 219.534L185.871 220.16L185.131 220.76L184.379 221.336L183.613 221.886L182.835 222.412L182.045 222.912L181.243 223.387L180.43 223.837L179.605 224.262L178.769 224.661L177.923 225.035L177.066 225.384L176.199 225.707L175.323 226.005L174.438 226.278L173.544 226.525L172.641 226.747L171.73 226.944L170.812 227.115L169.885 227.262L168.952 227.383L168.012 227.48L167.066 227.551L166.113 227.598L165.156 227.62L164.192 227.618L163.224 227.591L162.252 227.54L161.275 227.465L160.295 227.366L159.311 227.243L158.324 227.096L157.334 226.926L156.343 226.733L155.349 226.517L154.354 226.278L153.358 226.016L152.361 225.732L151.364 225.426L150.366 225.098L149.37 224.749L148.373 224.378L147.379 223.985L146.385 223.572L145.394 223.139L144.404 222.685L143.418 222.212L142.434 221.718L141.454 221.205L140.477 220.674L139.505 220.123L138.537 219.555L137.573 218.968L136.615 218.363L135.663 217.742L134.716 217.103L133.776 216.448L132.842 215.777L131.915 215.089L130.995 214.387L130.082 213.669L129.178 212.937L128.281 212.19L127.394 211.43L126.515 210.656L125.645 209.869L124.785 209.07L123.934 208.258L123.093 207.435L122.263 206.6L121.444 205.755L120.635 204.899L119.837 204.033L119.051 203.157L118.277 202.273L117.515 201.38L116.765 200.478L116.027 199.569L115.303 198.653L114.591 197.73L113.892 196.801L113.207 195.865L112.536 194.925L111.878 193.979L111.235 193.029L110.606 192.075L109.991 191.118L109.391 190.157L108.806 189.194L108.236 188.229L107.681 187.262L107.142 186.294L106.618 185.326L106.11 184.357L105.618 183.389L105.142 182.421L104.682 181.454L104.238 180.49L103.81 179.527L103.399 178.567L103.005 177.61L102.627 176.657L102.266 175.708L101.922 174.763L101.594 173.823L101.284 172.889L100.991 171.961L100.714 171.038L100.455 170.123L100.213 169.214L99.9882 168.314L99.7806 167.421L99.5902 166.537L99.417 165.661L99.261 164.795L99.1222 163.939L99.0006 163.093L98.8962 162.257L98.8089 161.433L98.7388 160.62L98.6856 159.818L98.6495 159.028L98.6303 158.252L98.628 157.487L98.6424 156.737L98.6736 155.999L98.7214 155.276L98.7857 154.567L98.8664 153.873L98.9634 153.193L99.0767 152.529L99.2059 151.881L99.3511 151.248L99.5121 150.632L99.6887 150.032L99.8808 149.449L100.088 148.884L100.311 148.335L100.548 147.804L100.801 147.292L101.068 146.797L101.349 146.321L101.645 145.863L101.955 145.425L102.278 145.005L102.615 144.605L102.966 144.224L103.329 143.863L103.706 143.522L104.095 143.201L104.496 142.9L104.91 142.62L105.336 142.36L105.773 142.121L106.222 141.903L106.682 141.705L107.153 141.529L107.634 141.374L108.125 141.24L108.627 141.127L109.138 141.036L109.658 140.966L110.188 140.918L110.727 140.891L111.273 140.886L111.828 140.903L112.391 140.941L112.962 141.001L113.539 141.083L114.123 141.186L114.714 141.311L115.311 141.457L115.914 141.625L116.523 141.815L117.136 142.026L117.754 142.258L118.377 142.512L119.004 142.786L119.635 143.082L120.269 143.399L120.906 143.737L121.546 144.096L122.188 144.475L122.832 144.875L123.478 145.295L124.125 145.736L124.773 146.196L125.421 146.676L126.069 147.176L126.718 147.695L127.365 148.234L128.012 148.791L128.657 149.368L129.301 149.962L129.943 150.576L130.582 151.207L131.219 151.856L131.852 152.523L132.482 153.207L133.108 153.908L133.73 154.626L134.347 155.36L134.959 156.11L135.566 156.876L136.168 157.658L136.763 158.455L137.352 159.266L137.934 160.092L138.509 160.933L139.077 161.787L139.638 162.654L140.19 163.535L140.733 164.429L141.268 165.334L141.794 166.252L142.311 167.181L142.818 168.122L143.315 169.073L143.801 170.034L144.277 171.006L144.742 171.987L145.196 172.977L145.638 173.976L146.069 174.983L146.487 175.998L146.893 177.021L147.286 178.05L147.667 179.086L148.034 180.128L148.388 181.176L148.727 182.229L149.053 183.286L149.365 184.348L149.662 185.414L149.945 186.483L150.212 187.555L150.465 188.629L150.702 189.705L150.923 190.783L151.129 191.861L151.318 192.94L151.492 194.019L151.649 195.098L151.789 196.176L151.913 197.252L152.02 198.327L152.11 199.399L152.182 200.468L152.237 201.534L152.275 202.596L152.295 203.654L152.297 204.707L152.282 205.755L152.248 206.798L152.196 207.834L152.126 208.863L152.038 209.885L151.931 210.9L151.806 211.907L151.663 212.905L151.5 213.894L151.319 214.874L151.12 215.844L150.901 216.804L150.664 217.752L150.408 218.69L150.134 219.616L149.84 220.53L149.528 221.431L149.197 222.32L148.847 223.195L148.478 224.056L148.09 224.903L147.684 225.735L147.259 226.552L146.815 227.354L146.353 228.14L145.873 228.91L145.374 229.663L144.856 230.399L144.32 231.118L143.766 231.819L143.195 232.502L142.605 233.167L141.997 233.813L141.371 234.44L140.728 235.047L140.068 235.634L139.39 236.202L138.695 236.749L137.983 237.275L137.254 237.78L136.509 238.264L135.747 238.727L134.968 239.167L134.174 239.585L133.364 239.981L132.538 240.355L131.696 240.705L130.84 241.033L129.968 241.337L129.081 241.618L128.18 241.875L127.265 242.107L126.335 242.316L125.392 242.501L124.435 242.661L123.465 242.796L122.482 242.907L121.486 242.992L120.477 243.053L119.457 243.088L118.424 243.098L117.38 243.083L116.325 243.042L115.258 242.976L114.181 242.883L113.094 242.766L111.996 242.622L110.889 242.452L109.773 242.257L108.647 242.035L107.513 241.788L106.37 241.515L105.219 241.216L104.061 240.89L102.895 240.539L101.722 240.162L100.543 239.76L99.3574 239.331L98.1659 238.877L96.9688 238.396L95.7666 237.891L94.5596 237.36L93.3481 236.803L92.1326 236.221L90.9134 235.614L89.6909 234.982L88.4655 234.325L87.2375 233.643L86.0074 232.936L84.7755 232.205L83.5421 231.45L82.3078 230.67L81.0729 229.867L79.8377 229.04L78.6027 228.189L77.3682 227.315L76.1346 226.418L74.9023 225.498L73.6717 224.556L72.4432 223.591L71.2172 222.604L69.994 221.595L68.7741 220.565L67.5577 219.513L66.3454 218.44L65.1375 217.347L63.9343 216.233L62.7362 215.1L61.5437 213.946L60.3571 212.774L59.1767 211.582L58.003 210.371L56.8363 209.142L55.6769 207.895L54.5253 206.631L53.3817 205.349L52.2467 204.05L51.1204 202.735L50.0033 201.404L48.8956 200.057L47.7979 198.694L46.7103 197.317L45.6332 195.925L44.567 194.52L43.5121 193.1L42.4686 191.668L41.437 190.222L40.4175 188.765L39.4105 187.295L38.4162 185.814L37.4351 184.322L36.4674 182.819L35.5133 181.306L34.5732 179.784L33.6473 178.253L32.736 176.713L31.8395 175.164L30.958 173.608L30.0919 172.045L29.2414 170.475L28.4067 168.899L27.5881 167.317L26.7858 165.729L26.0001 164.137L25.2312 162.541L24.4793 160.94L23.7446 159.337L23.0273 157.73L22.3277 156.121L21.6459 154.511L20.9821 152.899L20.3365 151.286L19.7093 149.673L19.1006 148.06L18.5106 146.447L17.9395 144.836L17.3874 143.227L16.8544 141.619L16.3407 140.014L15.8465 138.413L15.3717 136.815L14.9166 135.221L14.4812 133.631L14.0656 132.047L13.67 130.468L13.2944 128.896L12.9389 127.329L12.6035 125.77L12.2883 124.219L11.9934 122.675L11.7188 121.14L11.4645 119.613L11.2306 118.096L11.0171 116.589L10.824 115.092L10.6514 113.605L10.4991 112.13L10.3673 110.666L10.2558 109.215L10.1647 107.775L10.0939 106.349L10.0435 104.936L10.0133 103.536L10.0033 102.151L10.0134 100.78L10.0436 99.4241L10.0938 98.0833L10.1639 96.7583L10.2538 95.4492L10.3634 94.1565L10.4927 92.8807L10.6414 91.6219L10.8096 90.3806L10.997 89.1571L11.2035 87.9518L11.429 86.765L11.6733 85.5969L11.9363 84.448L12.2178 83.3184L12.5177 82.2087L12.8358 81.1189L13.1718 80.0493L13.5256 79.0004L13.8971 77.9723L14.2859 76.9652L14.692 75.9795L15.115 75.0154L15.5548 74.0731L16.0112 73.1528L16.4838 72.2547L16.9726 71.3791L17.4771 70.5262L17.9973 69.696L18.5327 68.8889L19.0832 68.105L19.6486 67.3444L20.2284 66.6073L20.8225 65.8938L21.4306 65.2041L22.0523 64.5382L22.6875 63.8964L23.3357 63.2787L23.9967 62.6852L24.6703 62.1159L25.356 61.571L26.0536 61.0506L26.7627 60.5546L27.4831 60.0832L28.2144 59.6362L28.9563 59.2139L29.7084 58.8162L30.4704 58.4431L31.242 58.0946L32.0229 57.7708L32.8126 57.4715L33.6109 57.1967L34.4173 56.9464L35.2316 56.7206L36.0534 56.5192L36.8823 56.3421L37.718 56.1893L38.56 56.0606L39.4081 55.956L40.2619 55.8753L41.121 55.8185L41.985 55.7853L42.8536 55.7758L43.7264 55.7897L44.6031 55.8268L45.4831 55.8871L46.3663 55.9702L47.2522 56.0762L48.1403 56.2047L49.0305 56.3556L49.9222 56.5287L50.8152 56.7237L51.709 56.9404L52.6032 57.1786L53.4975 57.4381L54.3916 57.7186L55.285 58.0198L56.1773 58.3415L57.0683 58.6834L57.9575 59.0453L58.8445 59.4267L59.7291 59.8276L60.6108 60.2474L61.4893 60.686L62.3642 61.143L63.2352 61.6181L64.1018 62.111L64.9639 62.6212L65.8209 63.1486L66.6725 63.6927L67.5185 64.2531L68.3585 64.8295L69.192 65.4216L70.0189 66.0289L70.8387 66.6511L71.6512 67.2878L72.456 67.9386L73.2527 68.6031L74.0412 69.2808L74.8209 69.9715L75.5918 70.6747L76.3534 71.3899L77.1054 72.1167L77.8475 72.8548L78.5796 73.6036L79.3012 74.3629L80.012 75.132L80.7119 75.9106L81.4006 76.6982L82.0777 77.4944L82.743 78.2987L83.3963 79.1108L84.0373 79.93L84.6658 80.7561L85.2815 81.5884L85.8842 82.4266L86.4737 83.2702L87.0497 84.1187L87.612 84.9717L88.1605 85.8286L88.6949 86.6891L89.215 87.5526L89.7207 88.4187L90.2117 89.2869L90.688 90.1568L91.1492 91.0278L91.5952 91.8995L92.026 92.7714L92.4413 93.643L92.841 94.514L93.225 95.3838L93.5931 96.2519L93.9452 97.1179L94.2813 97.9813L94.6011 98.8417L94.9046 99.6986L95.1917 100.551L95.4624 101.4L95.7165 102.243L95.9539 103.082L96.1747 103.914L96.3787 104.74L96.5659 105.56L96.7362 106.372L96.8897 107.177L97.0263 107.974L97.1459 108.763L97.2487 109.542L97.3344 110.313L97.4033 111.073L97.4552 111.824L97.4902 112.564L97.5084 113.293L97.5097 114.011L97.4942 114.717L97.4619 115.411L97.413 116.093L97.3474 116.762L97.2652 117.417L97.1665 118.06L97.0515 118.688L96.9201 119.301L96.7725 119.901L96.6088 120.485L96.4291 121.054L96.2335 121.607L96.0221 122.144L95.7952 122.665L95.5528 123.17L95.295 123.658L95.0221 124.128L94.7342 124.581L94.4314 125.017L94.1139 125.434L93.782 125.833L93.4358 126.214L93.0755 126.576L92.7012 126.919L92.3133 127.243L91.9119 127.547L91.4972 127.832L91.0695 128.097L90.629 128.342L90.1758 128.567L89.7104 128.772L89.2329 128.956L88.7435 129.119L88.2426 129.262L87.7304 129.383L87.2071 129.484L86.673 129.563L86.1285 129.621L85.5737 129.658L85.009 129.673L84.4347 129.666L83.8511 129.638L83.2584 129.588L82.657 129.516L82.0473 129.423L81.4294 129.308L80.8037 129.17L80.1705 129.011L79.5303 128.83L78.8832 128.627L78.2296 128.402L77.5699 128.156L76.9044 127.887L76.2334 127.597L75.5573 127.285L74.8764 126.951L74.1911 126.596L73.5017 126.219L72.8086 125.821L72.1121 125.401L71.4127 124.96L70.7105 124.498L70.0061 124.016L69.2997 123.512L68.5917 122.987L67.8826 122.442L67.1726 121.877L66.4621 121.292L65.7516 120.686L65.0412 120.061L64.3315 119.415L63.6228 118.751L62.9155 118.067L62.2099 117.365L61.5064 116.643L60.8053 115.903L60.1071 115.145L59.4121 114.369L58.7206 113.575L58.0331 112.764L57.3498 111.935L56.6713 111.09L55.9977 110.228L55.3295 109.35L54.667 108.455L54.0106 107.546L53.3607 106.62L52.7175 105.68L52.0815 104.725L51.453 103.756L50.8323 102.773L50.2198 101.777L49.6158 100.767L49.0206 99.7441L48.4347 98.709L47.8582 97.6618L47.2916 96.603L46.7351 95.5328L46.1891 94.4518L45.654 93.3603L45.1299 92.2588L44.6172 91.1476L44.1163 90.0272L43.6274 88.898L43.1508 87.7604L42.6868 86.6149L42.2357 85.462L41.7977 84.302L41.3732 83.1354L40.9624 81.9626L40.5656 80.7842L40.1831 79.6006L39.815 78.4121L39.4617 77.2194L39.1233 76.0229L38.8002 74.8229L38.4926 73.6201L38.2007 72.4148L37.9246 71.2076L37.6647 69.9989L37.4212 68.7893L37.1941 67.5791L36.9838 66.3688L36.7905 65.1591L36.6142 63.9502L36.4552 62.7427L36.3137 61.5372L36.1898 60.334L36.0837 59.1337L35.9955 57.9367L35.9254 56.7435L35.8735 55.5547L35.8399 54.3706L35.8248 53.1919L35.8283 52.0188L35.8505 50.852L35.8914 49.6919L35.9512 48.539L36.03 47.3937L36.1279 46.2565L36.2448 45.1279L36.381 44.0084L36.5364 42.8984L36.7111 41.7983L36.9051 40.7087L37.1185 39.63L37.3513 38.5626L37.6035 37.507L37.8751 36.4636L38.1661 35.4329L38.4766 34.4153L38.8066 33.4112L39.1559 32.421L39.5246 31.4453L39.9126 30.4843L40.32 29.5385L40.7466 28.6084L41.1924 27.6942L41.6573 26.7964L42.1413 25.9155L42.6443 25.0517L43.1662 24.2055L43.7069 23.3772L44.2664 22.5671L44.8444 21.7758L45.4409 21.0034L46.0558 20.2504L46.6889 19.5171L47.3402 18.8038L48.0094 18.1108L48.6964 17.4385L49.401 16.7872L50.1232 16.1571L50.8627 15.5487L51.6193 14.962L52.3928 14.3975L53.1832 13.8555L53.9901 13.3361L54.8133 12.8396L55.6527 12.3663L56.5081 11.9164L57.3791 11.4901L58.2656 11.0877L59.1674 10.7094L60.0842 10.3554L61.0157 10.0258L61.9618 9.72089L62.9221 9.44084L63.8964 9.18578L64.8843 8.95589L65.8857 8.7513L66.9003 8.57219L67.9277 8.41865L68.9677 8.29083L70.02 8.18883L71.0843 8.11275L72.1602 8.0627L73.2475 8.03872L74.3458 8.04094L75.4549 8.06941L76.5744 8.12415L77.7039 8.20524L78.8432 8.31271L79.9919 8.44657L81.1496 8.60686L82.3161 8.79357L83.4909 9.0067L84.6738 9.24624L85.8644 9.51216L87.0623 9.80444L88.2671 10.123L89.4785 10.4679L90.6962 10.8389L91.9197 11.2361L93.1487 11.6593L94.3828 12.1084L95.6217 12.5834L96.865 13.0842L98.1122 13.6105L99.3631 14.1624L100.617 14.7396L101.874 15.342L103.133 15.9695L104.395 16.6219L105.658 17.299L106.923 18.0006L108.188 18.7265L109.454 19.4765L110.72 20.2505L111.986 21.0482L113.251 21.8693L114.515 22.7137L115.778 23.581L117.039 24.4711L118.298 25.3837L119.554 26.3184L120.808 27.2751L122.058 28.2534L123.304 29.253L124.546 30.2736L125.784 31.315L127.017 32.3768L128.244 33.4586L129.466 34.5602L130.682 35.6812L131.892 36.8213L133.095 37.98L134.291 39.1571L135.48 40.3522L136.66 41.5648L137.833 42.7947L138.997 44.0414L140.152 45.3045L141.298 46.5837L142.434 47.8785L143.56 49.1885L144.677 50.5134L145.782 51.8526L146.877 53.2058L147.961 54.5725L149.033 55.9523L150.093 57.3447L151.141 58.7494L152.176 60.1658L153.199 61.5936L154.208 63.0322L155.205 64.4811L156.187 65.9401L157.156 67.4084L158.111 68.8858L159.051 70.3716L159.976 71.8655L160.886 73.367L161.781 74.8755L162.66 76.3906L163.524 77.9118L164.372 79.4387L165.203 80.9707L166.018 82.5073L166.817 84.0481L167.598 85.5925L168.362 87.14L169.11 88.6903L169.839 90.2427L170.551 91.7968L171.245 93.352L171.921 94.908L172.579 96.4641L173.219 98.0199L173.84 99.5749L174.443 101.129L175.026 102.681L175.591 104.23L176.137 105.777L176.664 107.321L177.171 108.86L177.659 110.396L178.128 111.927L178.577 113.453L179.006 114.973L179.416 116.487L179.806 117.994L180.177 119.494L180.527 120.987L180.858 122.471L181.168 123.948L181.459 125.415L181.73 126.873L181.98 128.321L182.211 129.758L182.422 131.185L182.613 132.601L182.784 134.006L182.935 135.398L183.066 136.778L183.177 138.145L183.268 139.499L183.34 140.839L183.392 142.166L183.424 143.477L183.437 144.774L183.431 146.056L183.405 147.323L183.36 148.573L183.295 149.807L183.212 151.025L183.11 152.225L182.989 153.409L182.849 154.574L182.691 155.722L182.514 156.852L182.32 157.963L182.107 159.055L181.877 160.128L181.628 161.181L181.363 162.215L181.08 163.229L180.78 164.222L180.463 165.195L180.129 166.148L179.779 167.079L179.412 167.989L179.03 168.878L178.632 169.745L178.218 170.59L177.789 171.414L177.345 172.215L176.886 172.994L176.412 173.75L175.925 174.484L175.423 175.195L174.907 175.882L174.378 176.547L173.836 177.189L173.281 177.807L172.714 178.402L172.134 178.974L171.542 179.522L170.939 180.046L170.324 180.547L169.698 181.024L169.062 181.477L168.415 181.906L167.758 182.312L167.091 182.694L166.415 183.052L165.73 183.386L165.036 183.696L164.334 183.983L163.624 184.246L162.906 184.485L162.18 184.701L161.448 184.893L160.709 185.061L159.964 185.207L159.213 185.329L158.457 185.427L157.695 185.503L156.929 185.556L156.158 185.586L155.383 185.593L154.604 185.577L153.822 185.54L153.037 185.48L152.249 185.398L151.459 185.294L150.668 185.169L149.875 185.022L149.08 184.854L148.285 184.665L147.49 184.455L146.694 184.225L145.899 183.975L145.105 183.704L144.312 183.414L143.52 183.104L142.73 182.775L141.942 182.427L141.157 182.06L140.375 181.675L139.596 181.272L138.821 180.851L138.05 180.413L137.283 179.958L136.52 179.486L135.763 178.998L135.011 178.493L134.265 177.973L133.525 177.438L132.791 176.887L132.064 176.323L131.344 175.743L130.632 175.15L129.927 174.544L129.23 173.925L128.542 173.292L127.862 172.648L127.191 171.992L126.53 171.324L125.878 170.646L125.236 169.957L124.604 169.257L123.982 168.549L123.371 167.83L122.771 167.103L122.183 166.368L121.606 165.624L121.04 164.873L120.487 164.115L119.946 163.35L119.417 162.58L118.901 161.803L118.398 161.021L117.909 160.235L117.432 159.444L116.97 158.649L116.521 157.851L116.086 157.05L115.666 156.247L115.26 155.441L114.868 154.635L114.491 153.827L114.129 153.018L113.783 152.209L113.451 151.401L113.135 150.594L112.835 149.787L112.55 148.983L112.281 148.181L112.028 147.381L111.79 146.585L111.569 145.792L111.365 145.004L111.176 144.22L111.004 143.44L110.849 142.667L110.71 141.899L110.587 141.138L110.482 140.383L110.392 139.636L110.32 138.896L110.265 138.164L110.226 137.441L110.204 136.727L110.199 136.022L110.211 135.327L110.24 134.643L110.285 133.969L110.348 133.306L110.427 132.654L110.523 132.014L110.635 131.387L110.764 130.772L110.91 130.17L111.072 129.581L111.251 129.007L111.446 128.446L111.657 127.9L111.885 127.368L112.129 126.852L112.388 126.351L112.664 125.866L112.955 125.397L113.262 124.945L113.584 124.509L113.922 124.091L114.275 123.689L114.643 123.306L115.026 122.94L115.423 122.593L115.835 122.264L116.262 121.954L116.702 121.663L117.157 121.391L117.625 121.138L118.107 120.905L118.602 120.692L119.11 120.5L119.631 120.327L120.165 120.175L120.711 120.043L121.269 119.933L121.839 119.843L122.421 119.775L123.014 119.728L123.619 119.702L124.234 119.698L124.86 119.716L125.496 119.755L126.142 119.816L126.798 119.9L127.464 120.005L128.138 120.132L128.821 120.282L129.513 120.454L130.213 120.648L130.921 120.865L131.637 121.104L132.36 121.365L133.089 121.648L133.826 121.954L134.568 122.283L135.317 122.633L136.071 123.006L136.83 123.401L137.594 123.818L138.363 124.258L139.136 124.719L139.913 125.203L140.693 125.708L141.477 126.235L142.263 126.784L143.052 127.354L143.842 127.946L144.635 128.559L145.428 129.193L146.223 129.848L147.018 130.524L147.814 131.221L148.609 131.938L149.404 132.675L150.198 133.432L150.99 134.21L151.781 135.006L152.57 135.823L153.357 136.658L154.141 137.512L154.922 138.385L155.699 139.276L156.472 140.186L157.241 141.113L158.006 142.058L158.766 143.02L159.52 143.999L160.268 144.995L161.011 146.007L161.747 147.036L162.477 148.08L163.199 149.139L163.914 150.213L164.621 151.302L165.32 152.405L166.01 153.523L166.692 154.653L167.364 155.797L168.027 156.954L168.68 158.123L169.322 159.305L169.954 160.498L170.576 161.702L171.186 162.917L171.785 164.142L172.372 165.377L172.947 166.622L173.509 167.876L174.059 169.139L174.595 170.41L175.119 171.688L175.629 172.975L176.125 174.268L176.607 175.567L177.075 176.872L177.528 178.183L177.966 179.499L178.388 180.82L178.796 182.145L179.188 183.473L179.564 184.805L179.923 186.139L180.267 187.476L180.594 188.814L180.904 190.153L181.197 191.494L181.473 192.834L181.732 194.175L181.973 195.514L182.196 196.853L182.401 198.19L182.589 199.525L182.758 200.857L182.908 202.186L183.04 203.511L183.154 204.833L183.248 206.149L183.324 207.461L183.38 208.767L183.418 210.067L183.436 211.361L183.434 212.647L183.413 213.926L183.373 215.197L183.313 216.46L183.233 217.714L183.134 218.959L183.015 220.193L182.875 221.418L182.716 222.631L182.537 223.834L182.339 225.024L182.12 226.203L181.881 227.369L181.622 228.522L181.343 229.662L181.044 230.788L180.725 231.9L180.387 232.996L180.028 234.078L179.65 235.145L179.252 236.195L178.834 237.229L178.396 238.246L177.939 239.246L177.463 240.229L176.967 241.193L176.451 242.14L175.917 243.068L175.363 243.977L174.791 244.866L174.2 245.736L173.589 246.586L172.961 247.415L172.314 248.224L171.648 249.012L170.965 249.778L170.263 250.523L169.544 251.246L168.807 251.947L168.053 252.625L167.282 253.281L166.493 253.914L165.688 254.523L164.867 255.109L164.028 255.671L163.174 256.209L162.304 256.723L161.418 257.213L160.517 257.678L159.601 258.118L158.669 258.534L157.723 258.924L156.763 259.289L155.789 259.628L154.801 259.942L153.799 260.23L152.784 260.492L151.756 260.729L150.715 260.939L149.662 261.123L148.597 261.28L147.521 261.411L146.432 261.516L145.333 261.594L144.223 261.646L143.103 261.671L141.972 261.67L140.832 261.642L139.682 261.587L138.524 261.505L137.356 261.397L136.18 261.262L134.996 261.101L133.805 260.913L132.606 260.698L131.4 260.457L130.188 260.189L128.969 259.895L127.745 259.575L126.515 259.229L125.28 258.856L124.041 258.458L122.797 258.034L121.549 257.584L120.298 257.108L119.043 256.608L117.786 256.081L116.526 255.53L115.264 254.954L114.001 254.353L112.736 253.728L111.47 253.078L110.204 252.404L108.938 251.706L107.673 250.985L106.407 250.24L105.143 249.472L103.881 248.682L102.62 247.868L101.362 247.032L100.106 246.174L98.8531 245.295L97.6037 244.393L96.358 243.471L95.1165 242.528L93.8795 241.564L92.6474 240.58L91.4206 239.576L90.1994 238.552L88.9843 237.509L87.7755 236.448L86.5734 235.368L85.3785 234.269L84.191 233.153L83.0114 232.02L81.8399 230.87L80.6769 229.703L79.5228 228.52L78.3779 227.321L77.2426 226.107L76.1171 224.877L75.0018 223.633L73.8971 222.376L72.8032 221.104L71.7205 219.819L70.6493 218.522L69.5899 217.212L68.5426 215.89L67.5077 214.557L66.4854 213.212L65.4762 211.857L64.4802 210.492L63.4978 209.118L62.5292 207.734L61.5747 206.342L60.6345 204.941L59.709 203.533L58.7982 202.117L57.9027 200.695L57.0224 199.266L56.1577 197.832L55.3088 196.392L54.476 194.948L53.6594 193.499L52.8592 192.046L52.0757 190.59L51.309 189.132L50.5594 187.67L49.8269 186.207L49.1119 184.743L48.4144 183.278L47.7346 181.812L47.0727 180.346L46.4288 178.881L45.8031 177.418L45.1957 175.955L44.6067 174.495L44.0362 173.037L43.4844 171.583L42.9513 170.131L42.4371 168.684L41.9419 167.241L41.4656 165.804L41.0085 164.371L40.5705 162.945L40.1517 161.525L39.7522 160.111L39.372 158.705L39.0112 157.307L38.6698 155.917L38.3478 154.536L38.0452 153.163L37.7621 151.8L37.4984 150.447L37.2541 149.105L37.0292 147.773L36.8237 146.453L36.6376 145.144L36.4708 143.847L36.3232 142.563L36.1949 141.291L36.0857 140.033L35.9956 138.788L35.9246 137.558L35.8725 136.342L35.8392 135.14L35.8246 133.954L35.8287 132.784L35.8514 131.629L35.8924 130.49L35.9518 129.368L36.0293 128.263L36.1248 127.175L36.2382 126.104L36.3692 125.051L36.5179 124.016L36.6839 123L36.8672 122.002L37.0675 121.024L37.2846 120.064L37.5184 119.124L37.7687 118.204L38.0351 117.303L38.3177 116.423L38.616 115.563L38.93 114.724L39.2593 113.906L39.6038 113.108L39.9632 112.332L40.3372 111.577L40.7256 110.844L41.1281 110.133L41.5445 109.444L41.9745 108.776L42.4178 108.131L42.8742 107.508L43.3434 106.907L43.8251 106.329L44.3189 105.774L44.8247 105.241L45.342 104.731L45.8706 104.244L46.4103 103.78L46.9605 103.339L47.5212 102.921L48.0919 102.525L48.6722 102.153L49.262 101.804L49.8608 101.478L50.4683 101.175L51.0842 100.895L51.7081 100.638L52.3397 100.404L52.9787 100.193L53.6246 100.005L54.2772 99.8394L54.9361 99.6967L55.601 99.5766L56.2714 99.4791L56.9471 99.404L57.6276 99.3513L58.3126 99.3207L59.0018 99.3123L59.6948 99.3257L60.3912 99.3609L61.0906 99.4178L61.7927 99.4961L62.4971 99.5957L63.2034 99.7164L63.9114 99.8579L64.6205 100.02L65.3305 100.203L66.041 100.406L66.7516 100.629L67.4619 100.872L68.1716 101.134L68.8803 101.416L69.5876 101.717L70.2933 102.036L70.9968 102.374L71.6979 102.731L72.3962 103.105L73.0914 103.497L73.783 103.906L74.4708 104.332L75.1543 104.774L75.8333 105.234L76.5074 105.709L77.1761 106.2L77.8393 106.706L78.4966 107.227L79.1476 107.763L79.7919 108.313L80.4293 108.877L81.0595 109.454L81.682 110.044L82.2967 110.648L82.903 111.263L83.5009 111.891L84.0899 112.53L84.6698 113.18L85.2402 113.841L85.8009 114.512L86.3515 115.193L86.8918 115.884L87.4215 116.584L87.9404 117.292L88.448 118.008L88.9443 118.732L89.4289 119.464L89.9015 120.202L90.3619 120.946L90.8099 121.697L91.2453 122.453L91.6677 123.214L92.077 123.979L92.473 124.749L92.8553 125.522L93.2239 126.298L93.5785 127.077L93.919 127.859L94.245 128.642L94.5565 129.426L94.8532 130.212L95.1351 130.997L95.4018 131.783L95.6534 132.568L95.8895 133.352L96.1101 134.134L96.315 134.915L96.5042 135.693L96.6774 136.468L96.8346 137.24L96.9755 138.008L97.1003 138.772L97.2087 139.531L97.3007 140.285L97.3761 141.033L97.4349 141.775L97.4771 142.51L97.5025 143.239L97.5112 143.96L97.503 144.673L97.478 145.378L97.4361 146.074L97.3773 146.76L97.3015 147.438L97.2088 148.105L97.0992 148.762L96.9727 149.407L96.8292 150.042L96.6689 150.665L96.4916 151.275L96.2976 151.874L96.0868 152.459L95.8592 153.031L95.615 153.59L95.3541 154.134L95.0768 154.664L94.783 155.179L94.4728 155.68L94.1464 156.164L93.8037 156.633L93.4451 157.086L93.0705 157.522L92.6801 157.942L92.274 158.344L91.8524 158.729L91.4154 159.097L90.9631 159.446L90.4958 159.777L90.0135 160.089L89.5165 160.383L89.0049 160.657L88.4789 160.912L87.9388 161.147L87.3846 161.363L86.8167 161.558L86.2352 161.733L85.6403 161.888L85.0322 162.022L84.4113 162.134L83.7777 162.226L83.1317 162.297L82.4734 162.345L81.8033 162.373L81.1214 162.378L80.4282 162.362L79.7238 162.323L79.0085 162.262L78.2826 162.179L77.5464 162.074L76.8002 161.945L76.0443 161.795L75.2789 161.621L74.5044 161.425L73.721 161.206L72.9292 160.964L72.1291 160.699L71.3212 160.411L70.5057 160.101L69.6829 159.767L68.8533 159.41L68.0171 159.03L67.1746 158.627L66.3263 158.201L65.4724 157.753L64.6133 157.281L63.7493 156.787L62.8809 156.27L62.0083 155.73L61.1319 155.167L60.252 154.582L59.3691 153.975L58.4835 153.345L57.5955 152.694L56.7055 152.02L55.814 151.324L54.9211 150.606L54.0274 149.867L53.1332 149.107L52.2389 148.325L51.3448 147.522L50.4513 146.698L49.5588 145.854L48.6677 144.989L47.7783 144.103L46.891 143.198L46.0062 142.273L45.1242 141.329L44.2455 140.365L43.3704 139.382L42.4993 138.381L41.6325 137.361L40.7705 136.322L39.9135 135.266L39.062 134.193L38.2163 133.102L37.3768 131.994L36.5438 130.869L35.7178 129.728L34.899 128.572L34.0878 127.399L33.2847 126.212L32.4898 125.009L31.7037 123.792L30.9266 122.561L30.1588 121.316L29.4008 120.057L28.6528 118.786L27.9152 117.502L27.1883 116.206L26.4725 114.898L25.768 113.578L25.0752 112.248L24.3944 110.907L23.7259 109.556L23.0701 108.195L22.4271 106.825L21.7974 105.446L21.1812 104.059L20.5788 102.664L19.9905 101.262L19.4165 99.8524L18.8572 98.4364L18.3128 97.0143L17.7835 95.5867L17.2697 94.1539L16.7716 92.7165L16.2894 91.275L15.8233 89.8297L15.3737 88.3812L14.9407 86.9299L14.5245 85.4765L14.1254 84.0213L13.7437 82.5647L13.3794 81.1075L13.0327 79.6499L12.704 78.1925L12.3933 76.7358L12.1009 75.2802L11.8269 73.8264L11.5715 72.3747L11.3348 70.9257L11.1171 69.4798L10.9183 68.0375L10.7387 66.5994L10.5785 65.1659L10.4377 63.7375L10.3164 62.3147L10.2148 60.898L10.1329 59.4879L10.0709 58.0848L10.0289 56.6892L10.0069 55.3016L10.0049 53.9226L10.0231 52.5524L10.0616 51.1918L10.1203 49.841L10.1993 48.5005L10.2987 47.1709L10.4185 45.8525L10.5587 44.5459L10.7192 43.2515L10.9002 41.9697L11.1016 40.701L11.3234 39.4457L11.5656 38.2044L11.8282 36.9775L12.1111 35.7654L12.4142 34.5684L12.7377 33.3871L13.0813 32.2218L13.445 31.073L13.8288 29.9409L14.2325 28.8261L14.6561 27.7289L15.0996 26.6496L15.5627 25.5887L16.0454 24.5465L16.5476 23.5234L17.0692 22.5197L17.61 21.5358L18.1699 20.5719L18.7487 19.6285L19.3463 18.7059L19.9625 17.8043L20.5973 16.9242L21.2503 16.0656L21.9214 15.2291L22.6105 14.4148L23.3174 13.6231L24.0417 12.8542L24.7835 12.1083L25.5424 11.3858L26.3181 10.6868L27.1106 10.0116L27.9196 9.36039L28.7448 8.73346L29.5859 8.13096L30.4428 7.55312L31.3152 7.00012L32.2029 6.47212L33.1054 5.96933L34.0227 5.49189L34.9544 5.03997L35.9003 4.6137L36.8599 4.21322L37.8332 3.83866L38.8197 3.49013L39.8191 3.16775L40.8313 2.8716L41.8557 2.60178L42.8922 2.35837L43.9404 2.14143L45 1.95102L46.0707 1.78721L47.1521 1.65002L48.2438 1.53946L49.3456 1.4556L50.4572 1.39842L51.5781 1.36792L52.708 1.36409L53.8466 1.38693L54.9934 1.43639L56.1483 1.51244L57.3107 1.61504L58.4803 1.74411L59.6568 1.89961L60.8397 2.08145L62.0288 2.28954L63.2236 2.52379L64.4238 2.78409L65.629 3.07033L66.8387 3.38238L68.0527 3.72012L69.2706 4.08338L70.4919 4.47202L71.7163 4.8859L72.9434 5.32481L74.1728 5.78859L75.4041 6.27706L76.6369 6.79001L77.8709 7.32722L79.1057 7.8885L80.3408 8.4736L81.576 9.08232L82.8107 9.7144L84.0447 10.3696L85.2775 11.0476L86.5087 11.7482L87.738 12.4712L88.965 13.2161L90.1893 13.9828L91.4105 14.7709L92.6282 15.5802L93.8421 16.4102L95.0518 17.2608L96.257 18.1316L97.4571 19.0221L98.6519 19.9322L99.8411 20.8614L101.024 21.8094L102.201 22.7758L103.371 23.7603L104.534 24.7625L105.689 25.7819L106.836 26.8183L107.976 27.8711L109.107 28.9401L110.229 30.0249L111.341 31.1249L112.445 32.2398L113.538 33.3691L114.621 34.5125L115.694 35.6695L116.756 36.8397L117.807 38.0227L118.846 39.2179L119.874 40.425L120.89 41.6435L121.893 42.8729L122.884 44.1128L123.862 45.3628L124.827 46.6223L125.778 47.8909L126.716 49.1681L127.64 50.4535L128.549 51.7465L129.444 53.0468L130.325 54.3537L131.191 55.6669L132.041 56.9859L132.876 58.3102L133.696 59.6392L134.5 60.9725L135.287 62.3097L136.059 63.6501L136.814 64.9935L137.553 66.3391L138.275 67.6866L138.98 69.0356L139.668 70.3854L140.339 71.7355L140.992 73.0856L141.628 74.4352L142.247 75.7837L142.847 77.1306L143.43 78.4755L143.994 79.8179L144.541 81.1573L145.069 82.4933L145.579 83.8254L146.071 85.153L146.544 86.4758L146.998 87.7932L147.434 89.1048L147.852 90.4102L148.25 91.7088L148.63 93.0003L148.991 94.2841L149.334 95.5599L149.657 96.8271L149.962 98.0855L150.248 99.3344L150.515 100.574L150.763 101.802L150.993 103.021L151.203 104.228L151.395 105.424L151.569 106.607L151.723 107.779L151.859 108.938L151.977 110.084L152.076 111.216L152.157 112.335L152.22 113.439L152.264 114.529L152.29 115.604L152.299 116.664L152.289 117.708L152.262 118.736L152.217 119.748L152.155 120.744L152.075 121.722L151.979 122.684L151.865 123.628L151.734 124.554L151.587 125.462L151.423 126.352L151.243 127.223L151.047 128.076L150.835 128.909L150.607 129.723L150.364 130.518L150.105 131.292L149.832 132.047L149.543 132.782L149.24 133.496L148.922 134.189L148.591 134.862L148.245 135.514L147.886 136.144L147.513 136.754L147.128 137.342L146.729 137.908L146.318 138.453L145.895 138.976L145.46 139.478L145.013 139.957L144.554 140.414L144.085 140.849L143.604 141.262L143.114 141.653L142.613 142.021L142.102 142.367L141.581 142.691L141.052 142.992L140.513 143.271L139.966 143.527L139.41 143.761L138.847 143.973L138.276 144.162L137.698 144.329L137.113 144.474L136.521 144.596L135.923 144.696L135.32 144.775L134.71 144.831L134.096 144.865L133.477 144.878L132.853 144.869L132.226 144.838L131.594 144.786L130.96 144.713L130.322 144.619L129.682 144.503L129.039 144.367L128.395 144.21L127.749 144.033L127.102 143.836L126.454 143.618L125.805 143.381L125.157 143.124L124.509 142.848L123.861 142.552L123.215 142.238L122.569 141.905L121.926 141.553L121.285 141.184L120.646 140.797L120.01 140.392L119.378 139.969L118.748 139.53L118.123 139.075L117.502 138.602L116.886 138.114L116.274 137.61L115.668 137.091L115.067 136.557L114.473 136.008L113.885 135.445L113.303 134.868L112.728 134.277L112.161 133.673L111.601 133.056L111.05 132.427L110.506 131.786L109.971 131.133L109.445 130.468L108.929 129.793L108.421 129.107L107.924 128.412L107.436 127.706L106.96 126.992L106.493 126.268L106.038 125.537L105.594 124.797L105.161 124.05L104.74 123.296L104.331 122.535L103.935 121.768L103.551 120.995L103.179 120.217L102.821 119.434L102.476 118.647L102.145 117.856L101.827 117.062L101.523 116.264L101.233 115.465L100.957 114.663L100.696 113.859L100.45 113.054L100.218 112.249L100.002 111.444L99.8007 110.639L99.6149 109.834L99.4446 109.031L99.29 108.23L99.1513 107.431L99.0286 106.634L98.922 105.84L98.8316 105.051L98.7575 104.265L98.6999 103.483L98.6589 102.707L98.6345 101.936L98.6269 101.171L98.6361 100.412L98.6622 99.6602L98.7052 98.9154L98.7653 98.1784L98.8424 97.4495L98.9367 96.7292L99.0481 96.0179L99.1767 95.316L99.3224 94.6241L99.4854 93.9424L99.6656 93.2715L99.8631 92.6118L100.078 91.9636L100.31 91.3274L100.559 90.7036L100.825 90.0926L101.108 89.4948L101.408 88.9106L101.726 88.3403L102.06 87.7844L102.411 87.2432L102.779 86.7171L103.163 86.2065L103.565 85.7117L103.982 85.2331L104.417 84.7709L104.867 84.3256L105.334 83.8975L105.817 83.487L106.315 83.0942L106.83 82.7196L107.36 82.3634L107.906 82.0259L108.466 81.7075L109.043 81.4084L109.634 81.1289L110.24 80.8692L110.86 80.6296L111.495 80.4104L112.144 80.2117L112.807 80.0339L113.485 79.8772L114.175 79.7417L114.879 79.6277L115.596 79.5354L116.326 79.4649L117.069 79.4165L117.824 79.3903L118.591 79.3865L119.37 79.4053L120.161 79.4467L120.963 79.511L121.776 79.5982L122.6 79.7085L123.435 79.842L124.279 79.9988L125.134 80.1789L125.998 80.3825L126.872 80.6096L127.754 80.8603L128.646 81.1347L129.545 81.4327L130.453 81.7544L131.368 82.0999L132.291 82.4692L133.221 82.8622L134.158 83.2789L135.101 83.7194L136.05 84.1836L137.005 84.6715L137.965 85.183L138.93 85.7181L139.9 86.2767L140.874 86.8588L141.853 87.4642L142.834 88.0929L143.819 88.7447L144.807 89.4197L145.797 90.1175L146.79 90.8382L147.784 91.5816L148.779 92.3474L149.776 93.1357L150.773 93.9461L151.77 94.7786L152.767 95.6329L153.764 96.5088L154.759 97.4062L155.754 98.3248L156.747 99.2644L157.738 100.225L158.726 101.206L159.712 102.207L160.694 103.228L161.673 104.269L162.648 105.33L163.619 106.41L164.585 107.509L165.546 108.626L166.502 109.762L167.452 110.915L168.396 112.087L169.333 113.276L170.263 114.482L171.187 115.704L172.102 116.943L173.01 118.198L173.909 119.469L174.8 120.755L175.681 122.056L176.554 123.371L177.416 124.701L178.269 126.044L179.111 127.401L179.942 128.771L180.762 130.153L181.571 131.547L182.369 132.953L183.154 134.37L183.927 135.799L184.687 137.237L185.434 138.686L186.168 140.144L186.888 141.611L187.595 143.087L188.287 144.571L188.965 146.062L189.628 147.561L190.277 149.067L190.91 150.579L191.527 152.097L192.129 153.62L192.715 155.148L193.284 156.681L193.837 158.217L194.373 159.757L194.892 161.3L195.394 162.845L195.879 164.393L196.346 165.941L196.795 167.491L197.226 169.041L197.639 170.591L198.034 172.141L198.409 173.69L198.767 175.237L199.105 176.782L199.424 178.325L199.724 179.865L200.005 181.401L200.266 182.933L200.507 184.461L200.729 185.984L200.931 187.502L201.113 189.013L201.275 190.518L201.417 192.017L201.538 193.508L201.639 194.991L201.72 196.465L201.78 197.931L201.82 199.388L201.839 200.834L201.838 202.271L201.816 203.697L201.773 205.112L201.71 206.515L201.626 207.906L201.521 209.285L201.395 210.65L201.249 212.003L201.082 213.341L200.895 214.666L200.687 215.975L200.458 217.27L200.209 218.549L199.94 219.812L199.65 221.059L199.34 222.289L199.009 223.502L198.659 224.698L198.288 225.876L197.897 227.036L197.487 228.177L197.057 229.299L196.607 230.402L196.138 231.485L195.65 232.548L195.142 233.591L194.615 234.613L194.07 235.615L193.506 236.595L192.923 237.554L192.322 238.491L191.702 239.405L191.065 240.298L190.41 241.167L189.738 242.014L189.048 242.838L188.341 243.638L187.617 244.415L186.876 245.168L186.119 245.896L185.346 246.601L184.557 247.281L183.752 247.936L182.932 248.567L182.096 249.172L181.246 249.753L180.381 250.308L179.502 250.837L178.609 251.341L177.702 251.819L176.781 252.272L175.848 252.698L174.901 253.099L173.942 253.473L172.971 253.821L171.988 254.143L170.993 254.438L169.987 254.707L168.97 254.95L167.943 255.167L166.905 255.357L165.858 255.52L164.801 255.657L163.735 255.768L162.66 255.852L161.576 255.909L160.484 255.941L159.385 255.946L158.278 255.925L157.164 255.878L156.043 255.804L154.916 255.705L153.784 255.58L152.645 255.429L151.502 255.252L150.353 255.05L149.2 254.822L148.044 254.569L146.883 254.291L145.719 253.988L144.553 253.661L143.384 253.308L142.212 252.932L141.039 252.531L139.865 252.106L138.69 251.657L137.514 251.185L136.338 250.69L135.162 250.171L133.986 249.63L132.812 249.066L131.639 248.48L130.467 247.872L129.298 247.242L128.131 246.591L126.967 245.918L125.806 245.225L124.649 244.511L123.496 243.777L122.347 243.023L121.203 242.25L120.064 241.457L118.93 240.646L117.802 239.816L116.68 238.968L115.565 238.103L114.457 237.22L113.356 236.32L112.262 235.403L111.176 234.47L110.099 233.522L109.03 232.557L107.969 231.578L106.918 230.585L105.877 229.577L104.846 228.556L103.824 227.521L102.813 226.473L101.813 225.413L100.824 224.341L99.8465 223.257L98.8805 222.162L97.9265 221.057L96.9847 219.941L96.0553 218.816L95.1388 217.682L94.2352 216.538L93.345 215.386L92.4683 214.227L91.6054 213.06L90.7566 211.886L89.922 210.705L89.1019 209.519L88.2965 208.327L87.506 207.13L86.7307 205.929L85.9708 204.723L85.2264 203.514L84.4977 202.302L83.7849 201.087L83.0882 199.871L82.4078 198.652L81.7438 197.432L81.0965 196.212L80.4658 194.992L79.852 193.771L79.2553 192.552L78.6757 191.334L78.1133 190.117L77.5683 188.903L77.0409 187.692L76.531 186.483L76.0388 185.279L75.5643 184.078L75.1077 182.882L74.669 181.691L74.2483 180.505L73.8456 179.325L73.461 178.152L73.0946 176.986L72.7462 175.827L72.4161 174.675L72.1042 173.532L71.8104 172.397L71.5349 171.272L71.2776 170.155L71.0385 169.049L70.8175 167.953L70.6147 166.868L70.4301 165.794L70.2635 164.731L70.1149 163.68L69.9843 162.642L69.8716 161.616L69.7768 160.603L69.6997 159.604L69.6402 158.618L69.5984 157.646L69.574 156.69L69.567 155.747L69.5773 154.82L69.6046 153.909L69.649 153.013L69.7103 152.134L69.7883 151.271L69.8829 150.425L69.9939 149.596L70.1211 148.784L70.2645 147.989L70.4237 147.213L70.5987 146.455L70.7893 145.715L70.9952 144.994L71.2162 144.292L71.4522 143.609L71.7029 142.945L71.9682 142.301L72.2477 141.676L72.5412 141.072L72.8486 140.488L73.1696 139.924L73.5039 139.38L73.8512 138.857L74.2114 138.355L74.5841 137.874L74.9691 137.414L75.3662 136.975L75.7749 136.557L76.1951 136.161L76.6265 135.787L77.0687 135.434L77.5215 135.102L77.9845 134.793L78.4575 134.505L78.9402 134.239L79.4322 133.994L79.9333 133.772L80.4431 133.572L80.9612 133.393L81.4874 133.237L82.0213 133.102L82.5626 132.99L83.111 132.899L83.666 132.83L84.2275 132.783L84.795 132.757L85.3681 132.753L85.9466 132.771L86.5301 132.81L87.1182 132.871L87.7106 132.953L88.3069 133.056L88.9068 133.18L89.5099 133.325L90.1158 133.491L90.7242 133.678L91.3347 133.884L91.947 134.112L92.5607 134.359L93.1754 134.626L93.7907 134.913L94.4064 135.22L95.022 135.546L95.6371 135.891L96.2515 136.254L96.8647 136.637L97.4764 137.038L98.0862 137.457L98.6938 137.893L99.2987 138.348L99.9007 138.819L100.499 139.308L101.094 139.814L101.685 140.336L102.272 140.874L102.854 141.427L103.43 141.997L104.002 142.581L104.567 143.181L105.127 143.795L105.68 144.422L106.226 145.064L106.765 145.719L107.297 146.388L107.82 147.069L108.336 147.762L108.843 148.467L109.342 149.184L109.831 149.911L110.311 150.65L110.782 151.399L111.242 152.157L111.692 152.926L112.132 153.703L112.56 154.489L112.978 155.283L113.384 156.085L113.779 156.895L114.161 157.711L114.531 158.534L114.889 159.363L115.234 160.197L115.566 161.037L115.885 161.881L116.19 162.729L116.482 163.582L116.76 164.437L117.023 165.296L117.273 166.156L117.507 167.019L117.727 167.883L117.932 168.749L118.122 169.614L118.296 170.48L118.455 171.345L118.598 172.21L118.726 173.073L118.837 173.934L118.932 174.793L119.011 175.649L119.074 176.502L119.12 177.351L119.149 178.196L119.161 179.036L119.157 179.871L119.135 180.701L119.097 181.524L119.041 182.341L118.968 183.152L118.878 183.954L118.77 184.749L118.645 185.535L118.502 186.313L118.341 187.082L118.164 187.84L117.968 188.589L117.755 189.327L117.524 190.054L117.275 190.77L117.009 191.474L116.726 192.166L116.424 192.845L116.105 193.511L115.768 194.164L115.414 194.803L115.043 195.427L114.654 196.037L114.247 196.632L113.823 197.211L113.382 197.775L112.924 198.323L112.449 198.854L111.957 199.368L111.448 199.865L110.922 200.344L110.38 200.806L109.821 201.249L109.246 201.674L108.655 202.08L108.047 202.467L107.424 202.834L106.785 203.182L106.13 203.51L105.46 203.817L104.775 204.104L104.074 204.37L103.359 204.614L102.629 204.838L101.885 205.04L101.127 205.22L100.354 205.378L99.568 205.514L98.7683 205.628L97.9552 205.719L97.1292 205.787L96.2903 205.832L95.4389 205.854L94.5752 205.853L93.6995 205.828L92.812 205.78L91.9131 205.708L91.003 205.612L90.082 205.492L89.1504 205.348L88.2085 205.18L87.2566 204.988L86.295 204.772L85.324 204.531L84.3439 204.265L83.3551 203.976L82.3579 203.661L81.3525 203.322L80.3394 202.959L79.3189 202.571L78.2913 202.159L77.2569 201.722L76.2161 201.26L75.1693 200.774L74.1167 200.264L73.0589 199.729L71.996 199.17L70.9285 198.586L69.8567 197.979L68.781 197.347L67.7017 196.691L66.6193 196.012L65.5341 195.308L64.4465 194.581L63.3568 193.831L62.2654 193.057L61.1727 192.26L60.0791 191.44L58.985 190.597L57.8907 189.732L56.7966 188.844L55.7031 187.933L54.6106 187.001L53.5194 186.047L52.43 185.071L51.3427 184.074L50.2579 183.055L49.1759 182.016L48.0973 180.956L47.0223 179.876L45.9513 178.776L44.8847 177.656L43.8229 176.516L42.7663 175.357L41.7152 174.18L40.67 172.983L39.631 171.769L38.5987 170.537L37.5734 169.287L36.5555 168.019L35.5453 166.735L34.5432 165.435L33.5496 164.118L32.5648 162.786L31.5892 161.438L30.623 160.075L29.6668 158.697L28.7207 157.306L27.7851 155.9L26.8605 154.481L25.947 153.049L25.0451 151.605L24.1551 150.148L23.2772 148.68L22.4119 147.2L21.5593 145.71L20.7199 144.209L19.8938 142.698L19.0816 141.178L18.2833 139.649L17.4993 138.111L16.7299 136.565L15.9754 135.012L15.236 133.451L14.512 131.883L13.8037 130.31L13.1113 128.731L12.4351 127.146L11.7753 125.557L11.1322 123.963L10.506 122.366L9.89689 120.765L9.30513 119.161L8.73092 117.555L8.17449 115.948L7.63602 114.339L7.11572 112.729L6.61379 111.119L6.13038 109.509L5.66569 107.9L5.21989 106.292L4.79313 104.685L4.38558 103.081L3.99737 101.479L3.62866 99.8808L3.27958 98.286L2.95024 96.6953L2.64079 95.1092L2.35132 93.5283L2.08194 91.953L1.83276 90.3838L1.60386 88.8212L1.39532 87.2657L1.20722 85.7177L1.03964 84.1778L0.892632 82.6464L0.766246 81.1239L0.660534 79.6109L0.575527 78.1078L0.511267 76.6151L0.467773 75.1332L0.445055 73.6626L0.443129 72.2038L0.461991 70.7571L0.501641 69.3231L0.562054 67.9021L0.643218 66.4946L0.745094 65.101L0.867653 63.7218L1.01085 62.3574L1.17462 61.008L1.35892 59.6744L1.56368 58.3566L1.78881 57.0552L2.03424 55.7706L2.29988 54.5032L2.58564 53.2532L2.8914 52.0212L3.21705 50.8074L3.56249 49.6121L3.92757 48.4359L4.31217 47.2789L4.71616 46.1415L5.13937 45.0242L5.58166 43.927L6.04285 42.8505L6.52281 41.7948L7.02133 40.7603L7.53824 39.7473L8.07335 38.756L8.62647 37.7868L9.19739 36.8398L9.78592 35.9154L10.3918 35.0138L11.0149 34.1352L11.6549 33.2799L12.3116 32.448L12.9848 31.6398L13.6742 30.8555L14.3796 30.0953L15.1007 29.3593L15.8372 28.6479L16.589 27.961L17.3556 27.2989L18.1369 26.6617L18.9326 26.0495L19.7423 25.4626L20.5658 24.9009L21.4027 24.3647L22.2529 23.854L23.1159 23.3689L23.9915 22.9095L24.8793 22.4759L25.779 22.068L26.6904 21.6861L27.613 21.3301L28.5465 21L29.4907 20.6959L30.4451 20.4178L31.4094 20.1657L32.3833 19.9396L33.3665 19.7395L34.3585 19.5653L35.359 19.417L36.3677 19.2946L37.3842 19.1981L38.4082 19.1272L39.4392 19.0821L40.477 19.0625L41.521 19.0685L42.5711 19.0998L43.6267 19.1565L44.6876 19.2383L45.7533 19.3452L46.8235 19.4769L47.8978 19.6334L48.9758 19.8145L50.0572 20.02L51.1415 20.2498L52.2283 20.5037L53.3174 20.7814L54.4082 21.0828L55.5005 21.4076L56.5939 21.7557L57.6879 22.1268L58.7822 22.5207L59.8764 22.937L60.9701 23.3757L62.063 23.8364L63.1547 24.3188L64.2447 24.8227L65.3327 25.3477L66.4184 25.8937L67.5014 26.4602L68.5812 27.047L69.6576 27.6537L70.7302 28.2801L71.7985 28.9258L72.8623 29.5905L73.9211 30.2738L74.9747 30.9754L76.0226 31.6949L77.0645 32.4319L78.1001 33.1862L79.129 33.9572L80.1509 34.7447L81.1654 35.5482L82.1722 36.3674L83.1709 37.2018L84.1613 38.0511L85.143 38.9148L86.1157 39.7926L87.0791 40.6839L88.0328 41.5884L88.9766 42.5057L89.9101 43.4354L90.8331 44.3769L91.7453 45.3298L92.6463 46.2938L93.5359 47.2684L94.4138 48.253L95.2797 49.2473L96.1335 50.2508L96.9747 51.2631L97.8031 52.2836L98.6186 53.3119L99.4208 54.3476L100.21 55.3902L100.985 56.4392L101.746 57.4941L102.492 58.5545L103.225 59.6199L103.943 60.6898L104.646 61.7637L105.334 62.8412L106.007 63.9217L106.665 65.0049L107.307 66.0902L107.933 67.1771L108.543 68.2652L109.138 69.354L109.716 70.443L110.278 71.5317L110.823 72.6197L111.352 73.7064L111.864 74.7915L112.359 75.8744L112.837 76.9546L113.299 78.0318L113.743 79.1054L114.17 80.175L114.58 81.24L114.972 82.3001L115.347 83.3548L115.704 84.4037L116.044 85.4462L116.366 86.482L116.671 87.5106L116.958 88.5316L117.228 89.5445L117.479 90.5489L117.713 91.5443L117.93 92.5305L118.129 93.5068L118.31 94.473L118.473 95.4286L118.619 96.3732L118.748 97.3065L118.859 98.228L118.953 99.1373L119.029 100.034L119.088 100.918L119.13 101.789L119.154 102.645L119.162 103.488L119.153 104.317L119.126 105.131L119.084 105.93L119.024 106.714L118.948 107.481L118.856 108.233L118.748 108.969L118.623 109.688L118.483 110.39L118.327 111.075L118.155 111.743L117.968 112.393L117.766 113.025L117.549 113.638L117.317 114.233L117.071 114.81L116.81 115.368L116.535 115.906L116.245 116.425L115.943 116.925L115.626 117.405L115.297 117.864L114.954 118.304L114.599 118.724L114.231 119.123L113.85 119.501L113.458 119.859L113.054 120.196L112.639 120.512L112.212 120.807L111.774 121.08L111.326 121.333L110.868 121.564L110.399 121.774L109.921 121.962L109.433 122.128L108.936 122.273L108.431 122.397L107.916 122.499L107.394 122.579L106.864 122.637L106.326 122.674L105.781 122.689L105.23 122.682L104.671 122.654L104.107 122.605L103.537 122.533L102.961 122.441L102.38 122.327L101.794 122.191L101.204 122.035L100.61 121.857L100.012 121.659L99.4105 121.439L98.8061 121.199L98.199 120.938L97.5895 120.656L96.9782 120.355L96.3652 120.033L95.751 119.691L95.136 119.329L94.5204 118.948L93.9048 118.547L93.2893 118.127L92.6745 117.688L92.0606 117.23L91.448 116.754L90.8372 116.259L90.2284 115.746L89.6219 115.216L89.0183 114.667L88.4178 114.102L87.8208 113.52L87.2277 112.921L86.6388 112.305L86.0544 111.674L85.4749 111.026L84.9008 110.364L84.3322 109.686L83.7696 108.993L83.2133 108.286L82.6637 107.564L82.1211 106.829L81.5857 106.08L81.0581 105.319L80.5384 104.544L80.0271 103.757L79.5244 102.959L79.0307 102.149L78.5463 101.327L78.0714 100.495L77.6065 99.6526L77.1518 98.8002L76.7076 97.9382L76.2742 97.0671L75.8519 96.1873L75.441 95.2992L75.0418 94.4033L74.6546 93.5L74.2795 92.5897L73.917 91.6729L73.5673 90.75L73.2305 89.8215L72.9071 88.8878L72.5972 87.9493L72.301 87.0066L72.0189 86.0601L71.751 85.1102L71.4976 84.1574L71.2588 83.2022L71.035 82.2451L70.8263 81.2865L70.6329 80.3268L70.455 79.3666L70.2928 78.4063L70.1465 77.4465L70.0162 76.4875L69.9022 75.5298L69.8046 74.574L69.7235 73.6204L69.6591 72.6697L69.6116 71.7221L69.581 70.7784L69.5676 69.8387L69.5714 68.9038L69.5925 67.974L69.6311 67.0498L69.6873 66.1316L69.7611 65.22L69.8527 64.3154L69.9621 63.4182L70.0894 62.529L70.2346 61.6482L70.3978 60.7761L70.5791 59.9134L70.7786 59.0604L70.9961 58.2175L71.2319 57.3853L71.4858 56.5642L71.758 55.7545L72.0483 54.9568L72.3569 54.1714L72.6837 53.3987L73.0286 52.6393L73.3918 51.8935L73.773 51.1617L74.1723 50.4443L74.5897 49.7417L75.0251 49.0543L75.4784 48.3825L75.9495 47.7267L76.4384 47.0872L76.9451 46.4645L77.4693 45.8588L78.011 45.2706L78.5702 44.7002L79.1466 44.1479L79.7402 43.6141L80.3508 43.0991L80.9783 42.6032L81.6226 42.1268L82.2835 41.6702L82.9609 41.2336L83.6546 40.8174L84.3644 40.4219L85.0901 40.0473L85.8317 39.6938L86.5887 39.3619L87.3612 39.0517L88.1489 38.7634L88.9515 38.4974L89.7689 38.2538L90.6008 38.0329L91.4471 37.8348L92.3074 37.6599L93.1815 37.5082L94.0693 37.38L94.9704 37.2755L95.8845 37.1948L96.8115 37.1381L97.751 37.1055L98.7028 37.0973L99.6666 37.1134L100.642 37.1541L101.629 37.2194L102.627 37.3096L103.636 37.4245L104.656 37.5645L105.685 37.7294L106.725 37.9195L107.774 38.1347L108.832 38.3751L109.9 38.6408L110.976 38.9318L112.06 39.248L113.152 39.5896L114.252 39.9564L115.359 40.3486L116.473 40.766L117.594 41.2087L118.721 41.6766L119.853 42.1697L120.991 42.6879L122.135 43.2311L123.283 43.7993L124.435 44.3923L125.592 45.0102L126.752 45.6527L127.915 46.3198L129.082 47.0113L130.25 47.7271L131.422 48.4671L132.594 49.2311L133.769 50.019L134.944 50.8305L136.12 51.6655L137.296 52.5238L138.472 53.4053L139.647 54.3096L140.822 55.2366L141.995 56.1861L143.167 57.1578L144.336 58.1515L145.503 59.1669L146.668 60.2038L147.829 61.2619L148.986 62.3409L150.14 63.4406L151.289 64.5606L152.434 65.7007L153.573 66.8606L154.707 68.0399L155.835 69.2383L156.957 70.4554L158.072 71.691L159.18 72.9448L160.281 74.2162L161.374 75.5051L162.459 76.811L163.536 78.1335L164.604 79.4723L165.663 80.827L166.712 82.1972L167.752 83.5825L168.781 84.9825L169.8 86.3968L170.808 87.825L171.804 89.2666L172.79 90.7213L173.763 92.1885L174.724 93.668L175.673 95.1591L176.609 96.6616L177.532 98.1749L178.442 99.6986L179.337 101.232L180.219 102.775L181.087 104.327L181.94 105.888L182.778 107.457L183.601 109.033L184.409 110.616L185.201 112.206L185.977 113.803L186.737 115.405L187.481 117.012L188.208 118.623L188.918 120.239L189.611 121.859L190.287 123.482L190.945 125.107L191.586 126.735L192.208 128.365L192.813 129.995L193.399 131.627L193.967 133.259L194.516 134.89L195.046 136.521L195.557 138.15L196.049 139.778L196.522 141.404L196.975 143.026L197.409 144.646L197.823 146.261L198.217 147.873L198.591 149.479L198.946 151.081L199.28 152.677L199.594 154.266L199.888 155.849L200.161 157.425L200.414 158.993L200.646 160.553L200.858 162.105L201.049 163.647L201.22 165.18L201.37 166.703L201.499 168.216L201.608 169.718L201.696 171.208L201.763 172.687L201.809 174.153L201.835 175.607L201.841 177.047L201.825 178.475L201.789 179.888L201.733 181.287L201.656 182.671L201.558 184.04L201.441 185.394L201.303 186.731L201.145 188.053L200.966 189.357L200.768 190.645L200.55 191.915L200.312 193.167L200.055 194.401L199.778 195.617L199.481 196.814L199.166 197.992L198.831 199.15L198.477 200.288L198.105 201.407L197.714 202.505L197.304 203.582L196.876 204.638L196.43 205.673L195.967 206.687L195.485 207.679L194.987 208.648L194.471 209.596L193.938 210.521L193.388 211.423L192.821 212.302L192.239 213.159L191.64 213.991L191.025 214.801L190.395 215.586L189.75 216.348L189.089 217.085L188.414 217.799L187.724 218.488L187.02 219.152L186.302 219.792L185.571 220.407L184.826 220.998L184.068 221.563L183.298 222.103L182.515 222.619L181.72 223.109L180.913 223.574L180.095 224.013L179.266 224.428L178.425 224.817L177.575 225.18L176.714 225.519L175.844 225.832L174.964 226.119L174.075 226.382L173.177 226.618L172.271 226.83L171.357 227.017L170.435 227.178L169.506 227.314L168.57 227.425L167.627 227.512L166.679 227.573L165.724 227.61L164.764 227.622L163.799 227.61L162.829 227.573L161.854 227.512L160.876 227.427L159.894 227.319L158.909 227.186L157.921 227.03L156.931 226.851L155.938 226.648L154.944 226.422L153.948 226.174L152.952 225.903L151.955 225.61L150.957 225.295L149.96 224.958L148.964 224.6L147.968 224.22L146.974 223.82L145.981 223.398L144.99 222.957L144.002 222.495L143.017 222.013L142.034 221.512L141.055 220.991L140.081 220.452L139.11 219.894L138.144 219.318L137.183 218.724L136.227 218.112L135.276 217.484L134.332 216.838L133.394 216.176L132.463 215.499L131.539 214.805L130.622 214.096L129.713 213.372L128.812 212.634L127.919 211.882L127.035 211.116L126.159 210.337L125.293 209.545L124.437 208.74L123.59 207.924L122.754 207.096L121.928 206.257L121.113 205.407L120.309 204.547L119.516 203.677L118.735 202.798L117.965 201.91L117.208 201.013L116.463 200.109L115.731 199.197L115.011 198.278L114.305 197.352L113.611 196.42L112.932 195.483L112.266 194.54L111.614 193.593L110.977 192.641L110.353 191.685L109.745 190.727L109.151 189.765L108.572 188.801L108.008 187.835L107.46 186.868L106.927 185.9L106.409 184.931L105.908 183.962L105.422 182.994L104.952 182.027L104.499 181.061L104.062 180.097L103.641 179.136L103.237 178.177L102.849 177.222L102.478 176.27L102.124 175.323L101.786 174.38L101.466 173.442L101.162 172.51L100.876 171.584L100.607 170.665L100.354 169.752L100.119 168.847L99.9016 167.949L99.7009 167.06L99.5175 166.179L99.3513 165.308L99.2024 164.445L99.0706 163.593L98.956 162.751L98.8586 161.92L98.7783 161.1L98.7151 160.292L98.6689 159.495L98.6397 158.71L98.6273 157.939L98.6318 157.18L98.6531 156.435L98.6911 155.703L98.7456 154.985L98.8166 154.282L98.904 153.594L99.0076 152.921L99.1274 152.263L99.2631 151.621L99.4148 150.995L99.5821 150.386L99.7651 149.793L99.9635 149.217L100.177 148.658L100.406 148.117L100.649 147.593L100.908 147.088L101.181 146.601L101.468 146.132L101.769 145.682L102.085 145.251L102.414 144.84L102.756 144.447L103.112 144.075L103.481 143.722L103.863 143.389L104.257 143.076L104.664 142.784L105.082 142.512L105.513 142.26L105.955 142.029L106.408 141.82L106.872 141.631L107.347 141.463L107.833 141.316L108.328 141.191L108.834 141.087L109.349 141.005L109.873 140.944L110.406 140.904L110.948 140.887L111.498 140.89L112.057 140.916L112.623 140.963L113.196 141.032L113.776 141.122L114.363 141.234L114.957 141.368L115.556 141.523L116.161 141.7L116.772 141.898L117.387 142.118L118.008 142.359L118.632 142.621L119.261 142.904L119.893 143.209L120.528 143.535L121.166 143.881L121.807 144.248L122.45 144.636L123.095 145.044L123.741 145.472L124.389 145.921L125.037 146.389L125.685 146.877L126.333 147.385L126.982 147.912L127.629 148.459L128.275 149.024L128.92 149.608L129.563 150.21L130.204 150.831L130.842 151.469L131.477 152.126L132.109 152.799L132.737 153.49L133.362 154.198L133.982 154.923L134.597 155.664L135.207 156.42L135.812 157.193L136.411 157.981L137.004 158.784L137.59 159.601L138.169 160.433L138.742 161.279L139.306 162.139L139.863 163.012L140.412 163.898L140.952 164.796L141.484 165.707L142.006 166.629L142.519 167.563L143.022 168.508L143.514 169.463L143.997 170.429L144.468 171.404L144.929 172.389L145.378 173.383L145.815 174.385L146.241 175.396L146.654 176.414L147.055 177.439L147.443 178.472L147.818 179.51L148.18 180.554L148.528 181.604L148.862 182.659L149.182 183.718L149.488 184.782L149.779 185.849L150.056 186.919L150.317 187.992L150.563 189.067L150.794 190.144L151.009 191.222L151.208 192.301L151.391 193.38L151.558 194.459L151.708 195.537L151.842 196.615L151.959 197.69L152.059 198.764L152.141 199.835L152.207 200.903L152.255 201.967L152.285 203.028L152.298 204.084L152.293 205.135L152.27 206.181L152.229 207.22L152.17 208.254L152.093 209.28L151.997 210.3L151.883 211.311L151.75 212.315L151.599 213.309L151.429 214.295L151.24 215.27L151.033 216.236L150.807 217.191L150.562 218.136L150.299 219.069L150.016 219.99L149.715 220.899L149.395 221.795L149.056 222.678L148.699 223.547L148.322 224.402L147.927 225.244L147.513 226.07L147.081 226.881L146.629 227.676L146.16 228.456L145.672 229.219L145.165 229.965L144.64 230.694L144.097 231.406L143.536 232.1L142.956 232.775L142.359 233.432L141.744 234.07L141.112 234.689L140.461 235.288L139.794 235.868L139.109 236.427L138.407 236.965L137.688 237.483L136.952 237.98L136.2 238.455L135.432 238.909L134.647 239.34L133.846 239.749L133.029 240.136L132.197 240.5L131.349 240.842L130.486 241.16L129.609 241.454L128.716 241.725L127.809 241.972L126.888 242.195L125.953 242.394L125.004 242.569L124.042 242.719L123.066 242.844L122.078 242.945L121.076 243.02L120.063 243.07L119.037 243.095L118 243.095L116.951 243.069L115.892 243.018L114.821 242.941L113.739 242.839L112.648 242.71L111.546 242.556L110.435 242.376L109.315 242.17L108.186 241.938L107.048 241.68L105.902 241.396L104.748 241.086L103.587 240.751L102.418 240.389L101.243 240.001L100.061 239.588L98.8727 239.149L97.6789 238.684L96.4797 238.194L95.2755 237.677L94.0666 237.136L92.8534 236.569L91.6364 235.977L90.4158 235.359L89.1921 234.717L87.9656 234.05L86.7366 233.358L85.5057 232.641L84.2732 231.9L83.0394 231.135L81.8048 230.346L80.5697 229.533L79.3346 228.696L78.0997 227.836L76.8655 226.952L75.6324 226.046L74.4008 225.117L73.171 224.165L71.9435 223.191L70.7186 222.195L69.4966 221.178L68.2781 220.139L67.0634 219.079L65.8528 217.998L64.6468 216.896L63.4456 215.774L62.2498 214.632L61.0596 213.471L59.8755 212.29L58.6978 211.091L57.5269 209.873L56.3631 208.637L55.2068 207.382L54.0585 206.111L52.9183 204.822L51.7868 203.517L50.6642 202.195L49.5509 200.857L48.4473 199.504L47.3536 198.135L46.2703 196.752L45.1976 195.354L44.1359 193.943L43.0856 192.518L42.0469 191.08L41.0202 189.63L40.0058 188.167L39.0039 186.693L38.015 185.207L37.0393 183.711L36.0771 182.204L35.1286 180.687L34.1943 179.161L33.2743 177.626L32.369 176.083L31.4786 174.531L30.6033 172.972L29.7435 171.406L28.8994 169.834L28.0713 168.255L27.2593 166.671L26.4637 165.081L25.6848 163.487L24.9228 161.889L24.1779 160.287L23.4503 158.683L22.7402 157.075L22.0478 155.466L21.3733 153.854L20.7169 152.242L20.0788 150.629L19.4591 149.016L18.858 147.403L18.2757 145.791L17.7123 144.18L17.168 142.571L16.6428 140.965L16.137 139.361L15.6507 137.761L15.1839 136.165L14.7368 134.573L14.3095 132.985L13.9021 131.403L13.5146 129.827L13.1471 128.257L12.7998 126.693L12.4726 125.137L12.1657 123.589L11.8791 122.048L11.6127 120.517L11.3668 118.994L11.1412 117.481L10.936 115.978L10.7512 114.485L10.5869 113.003L10.4429 111.532L10.3194 110.074L10.2162 108.627L10.1334 107.193L10.0709 105.772L10.0287 104.364L10.0068 102.97L10.005 101.591L10.0233 100.226L10.0616 98.8761L10.1199 97.5417L10.1981 96.2231L10.2961 94.9207L10.4137 93.6348L10.5509 92.3658L10.7076 91.1141L10.8836 89.8801L11.0788 88.6639L11.293 87.4661L11.5262 86.2869L11.7782 85.1266L12.0488 83.9855L12.3378 82.864L12.6451 81.7623L12.9705 80.6807L13.3138 79.6195L13.6748 78.5791L14.0534 77.5595L14.4493 76.5611L14.8623 75.5842L15.2922 74.6289L15.7387 73.6955L16.2018 72.7843L16.681 71.8953L17.1762 71.0289L17.6871 70.1852L18.2135 69.3645L18.7552 68.5668L19.3118 67.7923L19.883 67.0413L20.4687 66.3138L21.0685 65.61L21.6822 64.93L22.3094 64.2739L22.95 63.6419L23.6034 63.034L24.2696 62.4504L24.9481 61.891L25.6387 61.3561L26.3411 60.8456L27.0548 60.3596L27.7797 59.8981L28.5153 59.4613L29.2614 59.049L30.0176 58.6613L30.7836 58.2982L31.559 57.9597L32.3435 57.6459L33.1367 57.3566L33.9384 57.0918L34.7481 56.8515L35.5655 56.6357L36.3902 56.4442L37.2219 56.277L38.0602 56.134L38.9048 56.0151L39.7553 55.9202L40.6113 55.8493L41.4724 55.8021L42.3383 55.7786L43.2087 55.7786L44.0831 55.802L44.9612 55.8486L45.8425 55.9182L46.7268 56.0107L47.6137 56.1258L48.5027 56.2635L49.3936 56.4234L50.2858 56.6055L51.1792 56.8093L52.0732 57.0349L52.9675 57.2818L53.8618 57.5498L54.7556 57.8388L55.6486 58.1484L56.5404 58.4784L57.4307 58.8284L58.3191 59.1983L59.2052 59.5877L60.0886 59.9963L60.9691 60.4238L61.8461 60.87L62.7195 61.3344L63.5887 61.8167L64.4536 62.3167L65.3136 62.834L66.1685 63.3682L67.0179 63.919L67.8614 64.486L68.6988 65.0688L69.5297 65.6672L70.3537 66.2806L71.1706 66.9087L71.98 67.5512L72.7815 68.2076L73.5749 68.8776L74.3599 69.5607L75.136 70.2565L75.9031 70.9646L76.6609 71.6846L77.4089 72.416L78.147 73.1586L78.8748 73.9117L79.592 74.675L80.2985 75.448L80.9938 76.2303L81.6778 77.0215L82.3501 77.8211L83.0106 78.6286L83.6589 79.4437L84.2948 80.2657L84.9182 81.0944L85.5286 81.9292L86.1259 82.7696L86.7099 83.6153L87.2804 84.4657L87.8371 85.3203L88.3799 86.1787L88.9085 87.0405L89.4228 87.9051L89.9225 88.7721L90.4075 89.6411L90.8777 90.5114L91.3327 91.3828L91.7726 92.2546L92.1971 93.1265L92.606 93.998L92.9994 94.8685L93.3769 95.7376L93.7385 96.605L94.0841 97.47L94.4135 98.3322L94.7267 99.1912L95.0236 100.046L95.304 100.898L95.5679 101.744L95.8152 102.586L96.0459 103.422L96.2598 104.252L96.4569 105.075L96.6373 105.892L96.8008 106.701L96.9474 107.503L97.0771 108.296L97.1898 109.081L97.2856 109.857L97.3645 110.624L97.4265 111.38L97.4715 112.127L97.4997 112.862L97.511 113.587L97.5054 114.3L97.4831 115.002L97.444 115.691L97.3883 116.367L97.3159 117.031L97.227 117.681L97.1216 118.317L96.9999 118.939L96.8619 119.547L96.7077 120.14L96.5375 120.718L96.3513 121.281L96.1493 121.828L95.9316 122.359L95.6983 122.873L95.4496 123.371L95.1857 123.851L94.9066 124.315L94.6126 124.761L94.3038 125.189L93.9805 125.599L93.6427 125.991L93.2907 126.364L92.9247 126.718L92.5449 127.053L92.1514 127.369L91.7446 127.666L91.3245 127.943L90.8916 128.2L90.4459 128.437L89.9877 128.653L89.5173 128.849L89.035 129.025L88.5409 129.18L88.0353 129.314L87.5185 129.427L86.9908 129.519L86.4524 129.589L85.9037 129.639L85.3449 129.667L84.7762 129.673L84.1981 129.657L83.6108 129.62L83.0145 129.562L82.4096 129.481L81.7965 129.379L81.1754 129.254L80.5467 129.108L79.9106 128.94L79.2675 128.75L78.6177 128.538L77.9616 128.305L77.2995 128.049L76.6317 127.772L75.9586 127.472L75.2805 127.152L74.5978 126.809L73.9108 126.445L73.2198 126.059L72.5253 125.652L71.8275 125.224L71.1269 124.775L70.4238 124.304L69.7185 123.813L69.0115 123.301L68.303 122.768L67.5935 122.215L66.8832 121.641L66.1727 121.047L65.4622 120.434L64.752 119.8L64.0427 119.147L63.3345 118.475L62.6278 117.783L61.923 117.073L61.2205 116.344L60.5205 115.597L59.8236 114.831L59.13 114.048L58.4401 113.247L57.7542 112.428L57.0728 111.593L56.3963 110.741L55.7248 109.872L55.0589 108.987L54.3989 108.087L53.7451 107.171L53.0978 106.239L52.4576 105.293L51.8246 104.332L51.1992 103.358L50.5818 102.369L49.9727 101.367L49.3723 100.352L48.7808 99.324L48.1987 98.2839L47.6262 97.2319L47.0637 96.1684L46.5114 95.0938L45.9698 94.0084L45.4391 92.9128L44.9197 91.8073L44.4118 90.6923L43.9157 89.5682L43.4317 88.4356L42.9602 87.2947L42.5014 86.1462L42.0557 84.9903L41.6232 83.8275L41.2042 82.6584L40.7991 81.4833L40.4081 80.3027L40.0314 79.117L39.6693 77.9268L39.322 76.7324L38.9899 75.5344L38.6731 74.3333L38.3718 73.1294L38.0863 71.9233L37.8168 70.7154L37.5635 69.5063L37.3267 68.2963L37.1064 67.0861L36.903 65.876L36.7166 64.6665L36.5474 63.4581L36.3955 62.2514L36.2611 61.0468L36.1444 59.8447L36.0456 58.6457L35.9648 57.4502L35.9021 56.2587L35.8576 55.0718L35.8315 53.8898L35.824 52.7133L35.8351 51.5427L35.8649 50.3786L35.9135 49.2214L35.981 48.0715L36.0676 46.9294L36.1732 45.7957L36.298 44.6708L36.442 43.5551L36.6052 42.4491L36.7878 41.3532L36.9897 40.268L37.211 39.1938L37.4517 38.1312L37.7118 37.0805L37.9913 36.0422L38.2903 35.0168L38.6087 34.0046L38.9465 33.0061L39.3037 32.0218L39.6803 31.052L40.0762 30.0972L40.4914 29.1577L40.9258 28.234L41.3795 27.3265L41.8522 26.4355L42.3439 25.5615L42.8546 24.7048L43.3842 23.8659L43.9326 23.045L44.4996 22.2425L45.0852 21.4588L45.6892 20.6943L46.3115 19.9493L46.952 19.2241L47.6106 18.519L48.2871 17.8345L48.9813 17.1707L49.6931 16.528L50.4223 15.9067L51.1688 15.3071L51.9323 14.7294L52.7128 14.174L53.5099 13.6411L54.3234 13.131L55.1533 12.644L55.9992 12.1802L56.861 11.7399L57.7384 11.3233L58.6311 10.9307L59.5391 10.5622L60.4619 10.2182L61.3994 9.89861L62.3512 9.6038L63.3173 9.33391L64.2972 9.08908L65.2906 8.86949L66.2974 8.67527L67.3173 8.50655L68.3499 8.36348L69.3949 8.24615L70.4521 8.1547L71.5211 8.08921L72.6017 8.04977L73.6936 8.03646L74.7963 8.04937L75.9097 8.08853L77.0333 8.15399L78.1668 8.24583L79.31 8.36406L80.4624 8.50867L81.6237 8.67973L82.7937 8.87721L83.9718 9.10109L85.1579 9.35139L86.3515 9.62804L87.5522 9.93103L88.7598 10.2603L89.9738 10.6158L91.1939 10.9975L92.4197 11.4053L93.6508 11.8391L94.8869 12.2988L96.1276 12.7843L97.3726 13.2955L98.6213 13.8323L99.8735 14.3945L101.129 14.982L102.387 15.5946L103.647 16.2323L104.909 16.8947L106.173 17.5818L107.438 18.2933L108.704 19.0291L109.97 19.7889L111.236 20.5726L112.501 21.3798L113.766 22.2105L115.03 23.0642L116.292 23.9409L117.552 24.8402L118.81 25.7618L120.065 26.7055L121.317 27.671L122.566 28.658L123.811 29.6662L125.051 30.6954L126.287 31.7451L127.518 32.8151L128.743 33.905L129.963 35.0145L131.176 36.1433L132.383 37.291L133.583 38.4573L134.776 39.6417L135.961 40.844L137.139 42.0637L138.308 43.3005L139.468 44.5539L140.62 45.8237L141.762 47.1093L142.894 48.4103L144.016 49.7264L145.128 51.0572L146.23 52.4021L147.32 53.7609L148.399 55.133L149.466 56.518L150.521 57.9155L151.564 59.325L152.594 60.7461L153.612 62.1783L154.616 63.6212L155.607 65.0743L156.584 66.5371L157.547 68.0091L158.495 69.49L159.429 70.9792L160.348 72.4762L161.252 73.9806L162.141 75.4919L163.014 77.0096L163.871 78.5332L164.712 80.0622L165.537 81.5961L166.345 83.1344L167.137 84.6768L167.912 86.2225L168.669 87.7712L169.409 89.3224L170.131 90.8756L170.836 92.4302L171.523 93.9858L172.192 95.5418L172.842 97.0979L173.474 98.6534L174.088 100.208L174.683 101.761L175.259 103.312L175.816 104.861L176.354 106.406L176.873 107.948L177.372 109.487L177.852 111.02L178.313 112.549L178.754 114.073L179.176 115.59L179.578 117.101L179.96 118.606L180.322 120.103L180.664 121.593L180.987 123.074L181.289 124.546L181.572 126.01L181.834 127.464L182.077 128.908L182.299 130.341L182.502 131.764L182.685 133.175L182.848 134.574L182.99 135.962L183.113 137.336L183.216 138.698L183.3 140.047L183.363 141.381L183.407 142.702L183.432 144.008L183.437 145.298L183.422 146.574L183.389 147.834L183.336 149.078L183.264 150.305L183.172 151.516L183.063 152.71L182.934 153.886L182.787 155.044L182.621 156.185L182.437 157.306L182.235 158.41L182.015 159.494L181.778 160.559L181.522 161.605L181.25 162.63L180.96 163.636L180.653 164.621L180.329 165.586L179.988 166.529L179.632 167.452L179.259 168.354L178.87 169.234L178.465 170.092L178.045 170.928L177.61 171.743L177.16 172.535L176.695 173.305L176.215 174.052L175.722 174.776L175.215 175.478L174.694 176.156L174.159 176.811L173.612 177.444L173.052 178.053L172.479 178.638L171.894 179.2L171.298 179.738L170.69 180.253L170.07 180.744L169.44 181.211L168.799 181.655L168.148 182.075L167.487 182.47L166.817 182.843L166.137 183.191L165.448 183.515L164.751 183.816L164.045 184.093L163.332 184.346L162.611 184.576L161.883 184.782L161.148 184.964L160.407 185.123L159.659 185.259L158.906 185.372L158.147 185.461L157.383 185.527L156.615 185.571L155.842 185.591L155.066 185.589L154.286 185.565L153.502 185.518L152.716 185.449L151.928 185.358L151.137 185.246L150.345 185.112L149.551 184.956L148.756 184.78L147.961 184.582L147.166 184.364L146.37 184.125L145.576 183.867L144.782 183.588L143.989 183.29L143.198 182.972L142.409 182.635L141.622 182.28L140.838 181.905L140.057 181.513L139.28 181.103L138.506 180.675L137.737 180.23L136.971 179.768L136.211 179.289L135.456 178.794L134.706 178.283L133.963 177.757L133.225 177.215L132.494 176.659L131.77 176.088L131.053 175.503L130.344 174.905L129.642 174.293L128.949 173.669L128.264 173.031L127.588 172.382L126.921 171.721L126.263 171.049L125.615 170.366L124.977 169.673L124.349 168.97L123.732 168.257L123.126 167.535L122.53 166.805L121.946 166.066L121.374 165.319L120.813 164.565L120.265 163.804L119.729 163.037L119.205 162.264L118.695 161.485L118.197 160.702L117.713 159.913L117.242 159.121L116.785 158.325L116.342 157.525L115.913 156.723L115.499 155.919L115.098 155.113L114.713 154.306L114.342 153.497L113.986 152.689L113.646 151.88L113.321 151.072L113.011 150.265L112.717 149.46L112.438 148.656L112.176 147.855L111.929 147.057L111.698 146.262L111.484 145.471L111.286 144.684L111.104 143.902L110.939 143.125L110.79 142.353L110.658 141.588L110.542 140.829L110.443 140.078L110.361 139.333L110.296 138.597L110.247 137.869L110.215 137.149L110.2 136.439L110.202 135.738L110.221 135.047L110.256 134.367L110.309 133.697L110.378 133.039L110.464 132.392L110.566 131.757L110.686 131.135L110.822 130.525L110.974 129.929L111.143 129.346L111.328 128.777L111.53 128.222L111.748 127.681L111.982 127.156L112.233 126.646L112.499 126.152L112.781 125.673L113.078 125.211L113.392 124.765L113.72 124.337L114.064 123.925L114.423 123.531L114.797 123.155L115.186 122.797L115.589 122.457L116.007 122.135L116.439 121.833L116.886 121.55L117.346 121.286L117.819 121.041L118.307 120.816L118.807 120.611L119.321 120.427L119.847 120.263L120.386 120.119L120.937 119.996L121.5 119.894L122.075 119.813L122.661 119.753L123.259 119.715L123.868 119.698L124.488 119.703L125.118 119.729L125.758 119.777L126.408 119.848L127.068 119.94L127.737 120.054L128.415 120.191L129.102 120.349L129.797 120.53L130.501 120.734L131.212 120.959L131.93 121.207L132.656 121.478L133.388 121.77L134.127 122.085L134.872 122.423L135.623 122.782L136.38 123.164L137.141 123.568L137.907 123.995L138.678 124.443L139.452 124.914L140.23 125.406L141.012 125.92L141.797 126.456L142.584 127.014L143.374 127.593L144.165 128.193L144.958 128.815L145.752 129.458L146.547 130.121L147.342 130.806L148.138 131.51L148.933 132.236L149.727 132.981L150.521 133.747L151.313 134.532L152.103 135.337L152.891 136.161L153.677 137.004L154.459 137.866L155.239 138.746L156.014 139.645L156.786 140.562L157.553 141.496L158.316 142.448L159.073 143.417L159.826 144.403L160.572 145.406L161.312 146.424L162.045 147.459L162.772 148.509L163.491 149.575L164.203 150.655L164.907 151.75L165.602 152.859L166.289 153.982L166.967 155.118L167.635 156.267L168.294 157.429L168.943 158.603L169.581 159.789L170.209 160.987L170.826 162.195L171.431 163.415L172.025 164.644L172.607 165.883L173.177 167.132L173.734 168.389L174.279 169.656L174.81 170.93L175.328 172.211L175.833 173.5L176.323 174.796L176.799 176.098L177.261 177.406L177.708 178.719L178.14 180.037L178.556 181.359L178.957 182.686L179.343 184.015L179.712 185.348L180.065 186.683L180.402 188.021L180.722 189.359L181.025 190.699L181.312 192.04L181.58 193.38L181.832 194.721L182.066 196.06L182.282 197.398L182.48 198.734L182.66 200.068L182.821 201.399L182.964 202.726L183.089 204.05L183.194 205.369L183.281 206.684L183.349 207.994L183.398 209.297L183.427 210.595L183.437 211.886L183.428 213.169L183.399 214.445L183.351 215.713L183.283 216.972L183.195 218.222L183.088 219.463L182.96 220.693L182.813 221.913L182.646 223.122L182.459 224.32L182.252 225.506L182.025 226.68L181.778 227.841L181.511 228.988L181.224 230.122L180.917 231.243L180.59 232.348L180.243 233.439L179.877 234.515L179.49 235.574L179.084 236.618L178.658 237.645L178.213 238.655L177.748 239.648L177.263 240.624L176.759 241.581L176.236 242.52L175.694 243.44L175.132 244.341L174.552 245.223L173.953 246.084L173.336 246.926L172.699 247.747L172.045 248.547L171.372 249.327L170.681 250.084L169.972 250.82L169.246 251.534L168.502 252.226L167.741 252.895L166.963 253.541L166.167 254.165L165.356 254.764L164.527 255.341L163.682 255.893L162.822 256.422L161.945 256.926L161.053 257.405L160.146 257.86L159.223 258.291L158.286 258.696L157.334 259.076L156.368 259.43L155.388 259.759L154.394 260.063L153.387 260.34L152.367 260.592L151.333 260.817L150.288 261.017L149.23 261.19L148.16 261.337L147.079 261.457L145.986 261.551L144.882 261.619L143.768 261.66L142.643 261.674L141.509 261.662L140.365 261.622L139.211 261.557L138.049 261.464L136.878 261.345L135.699 261.2L134.512 261.027L133.317 260.828L132.116 260.603L130.907 260.351L129.692 260.073L128.471 259.768L127.245 259.437L126.013 259.08L124.776 258.697L123.535 258.288L122.289 257.854L121.04 257.393L119.787 256.907L118.531 256.396L117.273 255.86L116.012 255.298L114.75 254.712L113.486 254.101L112.221 253.466L110.955 252.806L109.689 252.123L108.423 251.416L107.157 250.685L105.892 249.93L104.629 249.153L103.367 248.353L102.107 247.53L100.85 246.686L99.5952 245.819L98.3437 244.93L97.0958 244.02L95.8518 243.089L94.612 242.138L93.377 241.165L92.147 240.173L90.9225 239.161L89.7037 238.13L88.4911 237.079L87.285 236.01L86.0858 234.922L84.8939 233.817L83.7095 232.694L82.5332 231.554L81.3651 230.396L80.2057 229.223L79.0553 228.033L77.9143 226.828L76.7829 225.608L75.6616 224.372L74.5505 223.123L73.4502 221.859L72.3608 220.582L71.2828 219.292L70.2163 217.99L69.1618 216.675L68.1195 215.348L67.0897 214.01L66.0727 212.662L65.0689 211.302L64.0784 209.934L63.1016 208.555L62.1387 207.168L61.19 205.772L60.2557 204.368L59.3362 202.957L58.4316 201.539L57.5422 200.114L56.6683 198.683L55.81 197.246L54.9676 195.805L54.1414 194.358L53.3314 192.908L52.538 191.454L51.7613 189.997L51.0016 188.537L50.2589 187.075L49.5335 185.611L48.8256 184.146L48.1353 182.681L47.4628 181.215L46.8083 179.75L46.1718 178.285L45.5535 176.822L44.9535 175.36L44.3721 173.901L43.8092 172.444L43.265 170.991L42.7396 169.541L42.2331 168.096L41.7456 166.655L41.2771 165.22L40.8277 163.79L40.3976 162.366L39.9866 160.948L39.595 159.538L39.2227 158.135L38.8698 156.74L38.5363 155.353L38.2222 153.975L37.9276 152.607L37.6523 151.248L37.3965 149.899L37.1601 148.561L36.9432 147.234L36.7456 145.918L36.5673 144.614L36.4083 143.322L36.2686 142.043L36.1481 140.777L36.0467 139.524L35.9644 138.285L35.9011 137.061L35.8566 135.851L35.831 134.655L35.8241 133.476L35.8357 132.311L35.8659 131.163L35.9144 130.031L35.9812 128.916L36.066 127.817L36.1688 126.736L36.2894 125.673L36.4277 124.627L36.5834 123.6L36.7565 122.591L36.9467 121.601L37.1539 120.63L37.3778 119.679L37.6184 118.747L37.8753 117.834L38.1483 116.942L38.4373 116.07L38.7421 115.219L39.0623 114.388L39.3978 113.578L39.7484 112.79L40.1138 112.022L40.4936 111.276L40.8878 110.552L41.296 109.85L41.718 109.169L42.1535 108.511L42.6022 107.874L43.0638 107.261L43.5381 106.669L44.0248 106.1L44.5235 105.554L45.034 105.031L45.556 104.53L46.0892 104.052L46.6332 103.597L47.1877 103.166L47.7524 102.757L48.3271 102.371L48.9113 102.008L49.5048 101.668L50.1072 101.352L50.7182 101.058L51.3374 100.788L51.9645 100.54L52.5991 100.315L53.241 100.114L53.8897 99.9347L54.5449 99.7785L55.2063 99.6451L55.8734 99.5342L56.546 99.4458L57.2237 99.3799L57.9061 99.3362L58.5929 99.3146L59.2837 99.3151L59.9781 99.3374L60.6757 99.3815L61.3763 99.4471L62.0793 99.5341L62.7846 99.6423L63.4916 99.7715L64.2001 99.9216L64.9097 100.092L65.6199 100.283L66.3305 100.494L67.041 100.726L67.7511 100.976L68.4604 101.247L69.1686 101.536L69.8753 101.845L70.5801 102.172L71.2827 102.517L71.9827 102.881L72.6798 103.262L73.3736 103.661L74.0637 104.077L74.7497 104.51L75.4315 104.96L76.1085 105.425L76.7805 105.907L77.447 106.404L78.1078 106.916L78.7625 107.443L79.4109 107.985L80.0524 108.541L80.6869 109.11L81.314 109.693L81.9334 110.289L82.5447 110.897L83.1476 111.518L83.7419 112.15L84.3273 112.794L84.9033 113.448L85.4698 114.113L86.0264 114.789L86.5729 115.474L87.1089 116.168L87.6342 116.871L88.1485 117.583L88.6516 118.302L89.1431 119.029L89.6228 119.763L90.0905 120.504L90.5459 121.251L90.9888 122.004L91.4189 122.762L91.836 123.525L92.2399 124.292L92.6304 125.063L93.0072 125.838L93.3701 126.615L93.7189 127.395L94.0535 128.178L94.3737 128.961L94.6792 129.746L94.9698 130.532L95.2456 131.317L95.5062 132.103L95.7514 132.887L95.9813 133.671L96.1955 134.453L96.394 135.232L96.5767 136.009L96.7433 136.783L96.8939 137.553L97.0283 138.32L97.1464 139.082L97.2482 139.838L97.3334 140.59L97.4021 141.336L97.4541 142.075L97.4895 142.808L97.5081 143.533L97.5099 144.251L97.4949 144.961L97.463 145.662L97.4142 146.355L97.3485 147.037L97.2658 147.711L97.1662 148.374L97.0497 149.026L96.9163 149.667L96.7659 150.297L96.5987 150.915L96.4146 151.521L96.2137 152.114L95.9961 152.694L95.7617 153.26L95.5107 153.813L95.2431 154.352L94.9591 154.876L94.6586 155.385L94.3418 155.879L94.0087 156.357L93.6596 156.82L93.2944 157.266L92.9134 157.695L92.5166 158.108L92.1041 158.503L91.6762 158.881L91.233 159.241L90.7746 159.583L90.3011 159.906L89.8128 160.211L89.3098 160.497L88.7924 160.763L88.2606 161.01L87.7147 161.238L87.1549 161.445L86.5814 161.632L85.9944 161.799L85.3942 161.945L84.7809 162.07L84.1547 162.174L83.516 162.257L82.865 162.319L82.2019 162.359L81.5269 162.378L80.8404 162.374L80.1426 162.349L79.4337 162.301L78.7141 162.231L77.984 162.139L77.2436 162.024L76.4934 161.887L75.7336 161.727L74.9645 161.544L74.1863 161.339L73.3995 161.11L72.6042 160.859L71.8009 160.585L70.9899 160.287L70.1714 159.967L69.3458 159.624L68.5134 159.258L67.6746 158.869L66.8297 158.457L65.9791 158.021L65.123 157.563L64.2619 157.083L63.3961 156.579L62.5259 156.052L61.6517 155.503L60.7739 154.932L59.8927 154.338L59.0087 153.721L58.122 153.083L57.2332 152.422L56.3425 151.739L55.4504 151.034L54.5572 150.308L53.6632 149.56L52.7689 148.791L51.8746 148L50.9807 147.189L50.0876 146.357L49.1956 145.504L48.3052 144.63L47.4166 143.737L46.5303 142.824L45.6466 141.891L44.7659 140.938L43.8886 139.967L43.0151 138.976L42.1457 137.967L41.2808 136.94L40.4207 135.894L39.5659 134.831L38.7168 133.75L37.8735 132.652L37.0366 131.538L36.2065 130.407L35.3833 129.259L34.5676 128.096L33.7597 126.917L32.9599 125.724L32.1685 124.515L31.386 123.292L30.6127 122.055L29.8489 120.805L29.0949 119.541L28.3511 118.264L27.6178 116.975L26.8954 115.674L26.1841 114.361L25.4844 113.038L24.7964 111.703L24.1206 110.358L23.4572 109.003L22.8066 107.638L22.169 106.265L21.5448 104.882L20.9341 103.492L20.3374 102.094L19.7549 100.688L19.1869 99.2763L18.6336 97.8578L18.0953 96.4334L17.5723 95.0037L17.0649 93.569L16.5732 92.1298L16.0975 90.6866L15.6382 89.24L15.1953 87.7903L14.7691 86.3381L14.3599 84.8839L13.9678 83.4281L13.5931 81.9712L13.236 80.5137L12.8967 79.0561L12.5753 77.599L12.272 76.1427L11.9871 74.6878L11.7206 73.2347L11.4728 71.7841L11.2438 70.3363L11.0338 68.8918L10.8428 67.4512L10.6711 66.0149L10.5188 64.5834L10.3859 63.1572L10.2726 61.7369L10.1791 60.3228L10.1053 58.9154L10.0514 57.5154L10.0175 56.123L10.0036 54.7388L10.0099 53.3633L10.0364 51.997L10.0831 50.6403L10.1501 49.2936L10.2374 47.9576L10.3451 46.6325L10.4731 45.3189L10.6216 44.0172L10.7905 42.7278L10.9798 41.4513L11.1895 40.188L11.4196 38.9384L11.6701 37.7029L11.941 36.4819L12.2321 35.2759L12.5435 34.0853L12.8752 32.9105L13.227 31.7518L13.5989 30.6098L13.9908 29.4847L14.4027 28.377L14.8344 27.287L15.2859 26.2152L15.757 25.1619L16.2477 24.1274L16.7578 23.1122L17.2872 22.1165L17.8358 21.1407L18.4034 20.1852L18.9898 19.2502L19.5951 18.3361L20.2189 17.4432L20.8611 16.5718L21.5215 15.7222L22.2 14.8947L22.8963 14.0896L23.6103 13.3071L24.3418 12.5475L25.0905 11.8111L25.8563 11.0982L26.639 10.4088L27.4382 9.7434L28.2538 9.10207L29.0855 8.48507L29.9331 7.8926L30.7964 7.32484L31.675 6.78201L32.5687 6.26426L33.4773 5.77178L34.4005 5.30472L35.338 4.86322L36.2895 4.44744L37.2548 4.05751L38.2334 3.69354L39.2253 3.35564L40.2299 3.04394L41.2471 2.75851L42.2765 2.49943L43.3178 2.26679L44.3707 2.06066L45.4348 1.88109L46.5099 1.72811L47.5955 1.60176L48.6915 1.50208L49.7973 1.42909L50.9127 1.38277L52.0373 1.36314L53.1708 1.37018L54.3128 1.40386L55.4629 1.46416L56.6209 1.55103L57.7863 1.66443L58.9587 1.80427L60.1379 1.97051L61.3234 2.16305L62.5148 2.38181L63.7119 2.62668L64.9141 2.89757L66.1212 3.19433L67.3328 3.51687L68.5484 3.86502L69.7677 4.23864L70.9903 4.63758L72.2158 5.06167L73.4439 5.51073L74.6741 5.9846L75.9061 6.48305L77.1395 7.00592L78.3738 7.55296L79.6088 8.12398L80.844 8.71873L82.079 9.33699L83.3135 9.97851L84.547 10.643L85.7792 11.3303L87.0097 12.04L88.2381 12.772L89.464 13.5258L90.6871 14.3013L91.9069 15.098L93.1232 15.9158L94.3354 16.7543L95.5433 17.6131L96.7464 18.492L97.9445 19.3905L99.1371 20.3084L100.324 21.2453L101.504 22.2009L102.678 23.1747L103.845 24.1664L105.005 25.1757L106.157 26.2021L107.302 27.2452L108.437 28.3047L109.565 29.3801L110.683 30.4711L111.792 31.5772L112.891 32.6981L113.98 33.8332L115.059 34.9822L116.128 36.1447L117.185 37.3201L118.232 38.5081L119.266 39.7082L120.289 40.92L121.3 42.143L122.298 43.3767L123.284 44.6208L124.256 45.8747L125.216 47.138L126.162 48.4101L127.094 49.6907L128.012 50.9793L128.916 52.2753L129.805 53.5784L130.679 54.8879L131.539 56.2035L132.383 57.5247L133.212 58.851L134.025 60.1818L134.822 61.5168L135.604 62.8553L136.369 64.197L137.117 65.5413L137.849 66.8878L138.564 68.236L139.262 69.5853L139.943 70.9353L140.607 72.2855L141.254 73.6355L141.882 74.9846L142.493 76.3325L143.087 77.6787L143.662 79.0227L144.219 80.3639L144.758 81.702L145.279 83.0364L145.782 84.3667L146.266 85.6924L146.731 87.0131L147.178 88.3282L147.607 89.6373L148.016 90.94L148.407 92.2358L148.78 93.5242L149.133 94.8048L149.468 96.0771L149.784 97.3408L150.081 98.5954L150.359 99.8404L150.618 101.075L150.859 102.3L151.081 103.514L151.284 104.716L151.468 105.907L151.634 107.086L151.781 108.253L151.91 109.406L152.02 110.547L152.111 111.673L152.185 112.786L152.24 113.885L152.277 114.969L152.296 116.038L152.297 117.091L152.28 118.129L152.246 119.15L152.194 120.156L152.124 121.144L152.038 122.116L151.934 123.07L151.814 124.007L151.676 124.926L151.522 125.827L151.352 126.709L151.165 127.573L150.963 128.418L150.744 129.243L150.51 130.049L150.26 130.836L149.996 131.602L149.716 132.349L149.421 133.075L149.112 133.781L148.789 134.466L148.452 135.13L148.1 135.773L147.736 136.395L147.358 136.996L146.967 137.575L146.563 138.133L146.147 138.669L145.719 139.183L145.279 139.676L144.827 140.146L144.364 140.594L143.89 141.02L143.406 141.424L142.911 141.806L142.406 142.165L141.891 142.502L141.367 142.816L140.833 143.108L140.291 143.378L139.74 143.625L139.182 143.85L138.615 144.053L138.041 144.233L137.46 144.391L136.872 144.526L136.278 144.64L135.678 144.731L135.072 144.8L134.461 144.848L133.844 144.873L133.223 144.877L132.598 144.859L131.969 144.82L131.336 144.759L130.7 144.677L130.062 144.574L129.42 144.45L128.777 144.306L128.132 144.141L127.485 143.955L126.838 143.749L126.189 143.524L125.541 143.279L124.893 143.014L124.245 142.729L123.598 142.426L122.952 142.104L122.307 141.764L121.665 141.405L121.024 141.028L120.387 140.634L119.752 140.222L119.121 139.793L118.493 139.347L117.87 138.884L117.25 138.406L116.636 137.911L116.027 137.401L115.423 136.875L114.824 136.335L114.232 135.78L113.647 135.212L113.068 134.629L112.496 134.033L111.932 133.423L111.376 132.801L110.827 132.167L110.287 131.521L109.756 130.863L109.234 130.194L108.721 129.515L108.217 128.825L107.724 128.125L107.241 127.416L106.768 126.698L106.306 125.971L105.856 125.236L105.416 124.493L104.988 123.743L104.572 122.986L104.168 122.223L103.777 121.454L103.398 120.679L103.032 119.899L102.679 119.114L102.339 118.325L102.013 117.533L101.701 116.737L101.403 115.939L101.119 115.138L100.849 114.335L100.594 113.531L100.354 112.726L100.128 111.921L99.9181 111.116L99.7231 110.311L99.5436 109.507L99.3798 108.705L99.2316 107.904L99.0994 107.106L98.9832 106.31L98.8832 105.518L98.7994 104.73L98.7321 103.946L98.6812 103.166L98.647 102.392L98.6294 101.624L98.6286 100.861L98.6447 100.105L98.6777 99.3559L98.7276 98.6142L98.7947 97.8805L98.8788 97.155L98.98 96.4383L99.0984 95.7308L99.234 95.033L99.3868 94.3451L99.5568 93.6678L99.744 93.0014L99.9484 92.3463L100.17 91.703L100.409 91.0718L100.665 90.4532L100.938 89.8475L101.228 89.2551L101.535 88.6766L101.86 88.1121L102.201 87.5622L102.559 87.0271L102.933 86.5072L103.325 86.003L103.733 85.5147L104.157 85.0428L104.598 84.5875L105.055 84.1492L105.529 83.7282L106.018 83.3248L106.523 82.9394L107.044 82.5722L107.58 82.2237L108.132 81.8939L108.699 81.5833L109.282 81.2922L109.879 81.0207L110.491 80.7692L111.117 80.5378L111.758 80.327L112.413 80.1368L113.082 79.9675L113.764 79.8194L114.46 79.6927L115.17 79.5875L115.892 79.504L116.627 79.4425L117.375 79.4032L118.135 79.3861L118.907 79.3915L119.691 79.4194L120.486 79.4701L121.293 79.5438L122.111 79.6404L122.939 79.7601L123.777 79.9031L124.626 80.0693L125.485 80.259L126.353 80.4722L127.23 80.7089L128.116 80.9692L129.011 81.2532L129.914 81.5609L130.825 81.8923L131.743 82.2475L132.669 82.6264L133.602 83.029L134.541 83.4555L135.487 83.9056L136.438 84.3795L137.396 84.877L138.358 85.3981L139.325 85.9428L140.297 86.511L141.272 87.1025L142.252 87.7175L143.235 88.3556L144.221 89.0169L145.21 89.7012L146.201 90.4084L147.194 91.1383L148.189 91.8908L149.185 92.6658L150.182 93.4631L151.179 94.2826L152.176 95.1239L153.173 95.9871L154.169 96.8718L155.165 97.7779L156.159 98.705L157.151 99.6532L158.141 100.622L159.128 101.611L160.112 102.621L161.094 103.65L162.071 104.699L163.044 105.768L164.013 106.855L164.977 107.961L165.936 109.086L166.89 110.229L167.837 111.39L168.778 112.569L169.713 113.765L170.64 114.978L171.561 116.207L172.473 117.453L173.377 118.714L174.273 119.991L175.16 121.283L176.038 122.59L176.906 123.911L177.765 125.247L178.613 126.595L179.451 127.957L180.278 129.332L181.093 130.719L181.897 132.118L182.69 133.529L183.47 134.951L184.238 136.383L184.993 137.826L185.735 139.279L186.463 140.74L187.178 142.211L187.879 143.69L188.565 145.177L189.237 146.672L189.894 148.174L190.536 149.682L191.163 151.197L191.774 152.717L192.369 154.242L192.949 155.772L193.511 157.306L194.057 158.844L194.587 160.385L195.099 161.929L195.594 163.475L196.071 165.023L196.531 166.572L196.973 168.122L197.397 169.673L197.802 171.223L198.189 172.772L198.557 174.32L198.907 175.867L199.237 177.411L199.549 178.953L199.841 180.491L200.114 182.026L200.367 183.556L200.6 185.082L200.814 186.603L201.008 188.118L201.181 189.627L201.335 191.13L201.469 192.625L201.582 194.113L201.675 195.592L201.747 197.063L201.799 198.526L201.83 199.978L201.841 201.421L201.831 202.853L201.801 204.275L201.75 205.685L201.678 207.083L201.585 208.469L201.472 209.843L201.338 211.203L201.184 212.55L201.009 213.882L200.813 215.201L200.596 216.504L200.359 217.793L200.102 219.065L199.824 220.322L199.526 221.562L199.208 222.786L198.869 223.992L198.51 225.18L198.131 226.35L197.733 227.503L197.314 228.636L196.876 229.75L196.419 230.845L195.941 231.92L195.445 232.975L194.93 234.01L194.395 235.024L193.842 236.017L193.27 236.988L192.68 237.938L192.072 238.866L191.445 239.772L190.801 240.655L190.138 241.515L189.459 242.353L188.762 243.167L188.048 243.957L187.317 244.724L186.57 245.467L185.806 246.186L185.026 246.881L184.231 247.551L183.42 248.196L182.593 248.816L181.752 249.412L180.896 249.982L180.025 250.526L179.14 251.045L178.241 251.539L177.328 252.007L176.402 252.448L175.464 252.864L174.512 253.254L173.548 253.618L172.572 253.955L171.584 254.266L170.585 254.551L169.574 254.81L168.553 255.042L167.522 255.247L166.48 255.426L165.428 255.579L164.368 255.705L163.298 255.805L162.219 255.878L161.132 255.925L160.037 255.946L158.935 255.941L157.825 255.909L156.708 255.851L155.585 255.767L154.456 255.657L153.32 255.521L152.18 255.36L151.034 255.173L149.884 254.96L148.73 254.722L147.571 254.459L146.41 254.171L145.245 253.858L144.077 253.52L142.907 253.158L141.735 252.771L140.561 252.361L139.386 251.926L138.211 251.468L137.035 250.986L135.859 250.481L134.683 249.954L133.508 249.403L132.334 248.83L131.161 248.235L129.991 247.618L128.822 246.979L127.657 246.319L126.494 245.638L125.335 244.937L124.179 244.214L123.027 243.472L121.88 242.711L120.738 241.929L119.601 241.129L118.47 240.31L117.344 239.473L116.225 238.618L115.113 237.745L114.007 236.855L112.909 235.948L111.819 235.025L110.736 234.086L109.662 233.131L108.597 232.16L107.54 231.175L106.493 230.176L105.456 229.163L104.428 228.136L103.411 227.096L102.405 226.043L101.409 224.978L100.425 223.901L99.4516 222.813L98.4904 221.713L97.5413 220.604L96.6046 219.484L95.6804 218.355L94.7691 217.217L93.871 216.07L92.9863 214.915L92.1152 213.752L91.2579 212.582L90.4149 211.406L89.5862 210.223L88.772 209.034L87.9727 207.84L87.1884 206.641L86.4193 205.438L85.6656 204.231L84.9276 203.021L84.2054 201.808L83.4992 200.592L82.8091 199.374L82.1354 198.155L81.4781 196.935L80.8375 195.715L80.2137 194.495L79.6069 193.275L79.0171 192.056L78.4445 190.838L77.8892 189.623L77.3514 188.409L76.831 187.199L76.3283 185.992L75.8434 184.789L75.3762 183.59L74.9269 182.396L74.4955 181.207L74.0821 180.024L73.6868 178.847L73.3096 177.676L72.9505 176.513L72.6096 175.357L72.2868 174.208L71.9823 173.069L71.696 171.938L71.4279 170.816L71.178 169.704L70.9463 168.601L70.7327 167.51L70.5373 166.429L70.36 165.359L70.2008 164.301L70.0595 163.256L69.9362 162.222L69.8308 161.202L69.7432 160.194L69.6733 159.2L69.6211 158.22L69.5863 157.255L69.5691 156.304L69.5691 155.368L69.5863 154.447L69.6207 153.542L69.672 152.653L69.7401 151.78L69.8248 150.924L69.9261 150.085L70.0437 149.263L70.1776 148.458L70.3274 147.671L70.4931 146.902L70.6745 146.151L70.8713 145.419L71.0834 144.706L71.3106 144.011L71.5526 143.336L71.8092 142.68L72.0803 142.044L72.3656 141.428L72.6648 140.831L72.9778 140.255L73.3042 139.7L73.6438 139.165L73.9964 138.65L74.3617 138.157L74.7395 137.684L75.1294 137.233L75.5313 136.802L75.9447 136.394L76.3695 136.006L76.8053 135.64L77.2519 135.296L77.7089 134.973L78.176 134.673L78.653 134.394L79.1395 134.137L79.6353 133.901L80.1399 133.688L80.6531 133.497L81.1746 133.327L81.704 133.179L82.2409 133.054L82.7851 132.95L83.3363 132.868L83.894 132.808L84.4579 132.77L85.0278 132.753L85.6032 132.758L86.1837 132.785L86.7692 132.833L87.359 132.902L87.9531 132.992L88.5509 133.104L89.1521 133.237L89.7564 133.39L90.3634 133.565L90.9726 133.759L91.5839 133.975L92.1968 134.21L92.8109 134.465L93.4259 134.741L94.0415 135.036L94.6572 135.35L95.2726 135.684L95.8875 136.036L96.5014 136.408L97.1141 136.798L97.725 137.206L98.334 137.632L98.9405 138.076L99.5443 138.538L100.145 139.017L100.742 139.512L101.336 140.024L101.925 140.553L102.51 141.097L103.089 141.658L103.664 142.233L104.233 142.824L104.796 143.429L105.353 144.049L105.903 144.682L106.446 145.33L106.982 145.99L107.511 146.663L108.031 147.349L108.544 148.048L109.047 148.757L109.542 149.479L110.028 150.211L110.504 150.954L110.97 151.707L111.427 152.469L111.873 153.241L112.308 154.022L112.732 154.812L113.145 155.609L113.546 156.414L113.936 157.226L114.313 158.045L114.679 158.871L115.031 159.702L115.371 160.538L115.698 161.38L116.011 162.226L116.311 163.076L116.597 163.93L116.869 164.787L117.127 165.646L117.37 166.508L117.599 167.371L117.812 168.236L118.011 169.101L118.195 169.967L118.363 170.832L118.515 171.698L118.652 172.561L118.773 173.424L118.878 174.284L118.966 175.142L119.039 175.997L119.094 176.848L119.134 177.696L119.156 178.539L119.162 179.377L119.15 180.21L119.122 181.037L119.076 181.858L119.013 182.672L118.933 183.479L118.836 184.279L118.721 185.07L118.589 185.853L118.439 186.627L118.271 187.392L118.086 188.147L117.883 188.891L117.663 189.625L117.425 190.347L117.169 191.059L116.896 191.758L116.605 192.444L116.296 193.118L115.97 193.779L115.626 194.426L115.265 195.059L114.886 195.678L114.49 196.281L114.077 196.87L113.646 197.443L113.198 198L112.733 198.541L112.251 199.065L111.752 199.572L111.236 200.062L110.703 200.535L110.154 200.989L109.589 201.425L109.007 201.842L108.409 202.24L107.795 202.619L107.165 202.978L106.52 203.318L105.859 203.637L105.183 203.936L104.491 204.215L103.785 204.472L103.064 204.708L102.328 204.923L101.578 205.116L100.814 205.287L100.036 205.436L99.2439 205.563L98.4387 205.668L97.6203 205.749L96.789 205.808L95.945 205.844L95.0885 205.857L94.2199 205.846L93.3393 205.811L92.4472 205.753L91.5437 205.672L90.6291 205.566L89.7037 205.437L88.7679 205.283L87.8219 205.105L86.866 204.903L85.9005 204.676L84.9258 204.426L83.9422 204.15L82.9499 203.85L81.9493 203.526L80.9408 203.177L79.9246 202.804L78.9011 202.406L77.8707 201.984L76.8337 201.537L75.7904 201.065L74.7412 200.569L73.6865 200.049L72.6265 199.504L71.5617 198.935L70.4924 198.342L69.4189 197.724L68.3417 197.083L67.2612 196.417L66.1776 195.728L65.0913 195.015L64.0028 194.279L62.9124 193.519L61.8204 192.735L60.7273 191.929L59.6335 191.1L58.5392 190.248L57.445 189.373L56.3511 188.476L55.2579 187.556L54.1659 186.615L53.0754 185.652L51.9868 184.667L50.9005 183.662L49.8168 182.635L48.7362 181.587L47.6589 180.519L46.5855 179.43L45.5163 178.322L44.4516 177.194L43.3919 176.046L42.3374 174.88L41.2887 173.695L40.246 172.491L39.2097 171.269L38.1802 170.029L37.1579 168.772L36.1431 167.498L35.1361 166.207L34.1375 164.9L33.1474 163.577L32.1663 162.238L31.1944 160.884L30.2323 159.515L29.2801 158.132L28.3383 156.735L27.4071 155.324L26.487 153.899L25.5782 152.462L24.6811 151.013L23.796 149.551L22.9232 148.078L22.063 146.594L21.2157 145.1L20.3817 143.595L19.5613 142.08L18.7547 140.556L17.9622 139.023L17.1841 137.482L16.4208 135.933L15.6724 134.377L14.9392 132.813L14.2216 131.243L13.5198 129.667L12.8339 128.086L12.1644 126.499L11.5114 124.908L10.8751 123.313L10.2558 121.714L9.65373 120.112L9.0691 118.507L8.5021 116.901L7.95297 115.293L7.42188 113.683L6.90903 112.073L6.41462 110.463L5.93882 108.853L5.4818 107.244L5.04374 105.637L4.62479 104.031L4.2251 102.428L3.84482 100.828L3.48408 99.2307L3.14303 97.6375L2.82178 96.0486L2.52046 94.4646L2.23916 92.8859L1.978 91.3131L1.73707 89.7465L1.51645 88.1867L1.31623 86.6342L1.13648 85.0894L0.97727 83.5529L0.838658 82.0251L0.720688 80.5064L0.623405 78.9974L0.546847 77.4985L0.491044 76.0101L0.456008 74.5328L0.44176 73.0669" stroke="url(#paint0_linear_87_1579)" stroke-width="0.815987"/>
<defs>
<linearGradient id="paint0_linear_87_1579" x1="101.141" y1="14.6579" x2="0.441402" y2="189.075" gradientUnits="userSpaceOnUse">
<stop stop-color="#9E00FF"/>
<stop offset="1" stop-color="#000AFF"/>
</linearGradient>
</defs>
</svg>
