<svg width="234" height="234" viewBox="0 0 234 234" fill="none" xmlns="http://www.w3.org/2000/svg">
<path d="M1 117.278L1.012 115.82L1.04801 114.363L1.10801 112.907L1.19197 111.451L1.29987 109.998L1.43167 108.547L1.58731 107.099L1.76675 105.654L1.96992 104.212L2.19673 102.774L2.44712 101.341L2.72098 99.9126L3.01822 98.4895L3.33874 97.0721L3.68241 95.6609L4.0491 94.2562L4.43869 92.8586L4.85103 91.4684L5.28597 90.086L5.74335 88.712L6.22301 87.3466L6.72477 85.9903L7.24844 84.6435L7.79384 83.3066L8.36078 81.9799L8.94903 80.664L9.55839 79.3592L10.1886 78.0658L10.8395 76.7843L11.5109 75.515L12.2024 74.2583L12.9138 73.0146L13.6449 71.7842L14.3953 70.5675L15.165 69.3649L15.9534 68.1766L16.7604 67.003L17.5857 65.8445L18.429 64.7014L19.2899 63.574L20.1682 62.4627L21.0635 61.3677L21.9755 60.2893L22.9039 59.2279L23.8484 58.1837L24.8085 57.157L25.784 56.1481L26.7746 55.1573L27.7797 54.1849L28.7992 53.231L29.8325 52.296L30.8794 51.38L31.9395 50.4834L33.0124 49.6063L34.0976 48.749L35.1949 47.9117L36.3038 47.0946L37.4239 46.2978L38.5549 45.5216L39.6962 44.7662L40.8476 44.0317L42.0086 43.3183L43.1787 42.6261L44.3576 41.9554L45.5449 41.3061L46.74 40.6786L47.9427 40.0728L49.1525 39.489L50.3688 38.9271L51.5914 38.3874L52.8198 37.8699L54.0535 37.3747L55.2921 36.9018L56.5352 36.4514L57.7823 36.0235L59.033 35.618L60.2868 35.2352L61.5434 34.8749L62.8022 34.5373L64.0629 34.2222L65.3249 33.9299L66.5879 33.6601L67.8514 33.413L69.115 33.1884L70.3782 32.9864L71.6406 32.807L72.9018 32.65L74.1612 32.5154L75.4186 32.4032L76.6734 32.3133L77.9252 32.2455L79.1736 32.1999L80.4182 32.1763L81.6585 32.1746L82.8942 32.1946L84.1247 32.2363L85.3497 32.2996L86.5688 32.3842L87.7815 32.4901L88.9875 32.617L90.1864 32.7649L91.3776 32.9335L92.5609 33.1227L93.7359 33.3323L94.9021 33.562L96.0592 33.8117L97.2068 34.0812L98.3445 34.3702L99.4719 34.6786L100.589 35.006L101.695 35.3523L102.789 35.7172L103.872 36.1005L104.943 36.5018L106.001 36.9209L107.047 37.3577L108.079 37.8116L109.099 38.2826L110.104 38.7702L111.096 39.2742L112.073 39.7943L113.036 40.3302L113.984 40.8816L114.916 41.448L115.833 42.0293L116.735 42.625L117.62 43.2349L118.489 43.8586L119.342 44.4957L120.178 45.1458L120.996 45.8088L121.798 46.484L122.582 47.1713L123.349 47.8702L124.097 48.5804L124.828 49.3014L125.54 50.0329L126.234 50.7745L126.91 51.5258L127.566 52.2865L128.204 53.0561L128.822 53.8341L129.421 54.6204L130.001 55.4143L130.561 56.2155L131.102 57.0237L131.623 57.8383L132.124 58.659L132.605 59.4854L133.066 60.317L133.507 61.1534L133.928 61.9942L134.329 62.8391L134.709 63.6874L135.07 64.539L135.409 65.3932L135.729 66.2497L136.028 67.1081L136.306 67.9679L136.565 68.8288L136.802 69.6903L137.02 70.5519L137.217 71.4133L137.394 72.274L137.551 73.1336L137.687 73.9917L137.803 74.8479L137.9 75.7017L137.976 76.5528L138.032 77.4007L138.069 78.245L138.085 79.0853L138.083 79.9212L138.06 80.7523L138.019 81.5782L137.958 82.3985L137.878 83.2128L137.779 84.0207L137.661 84.8218L137.525 85.6157L137.371 86.4021L137.198 87.1805L137.007 87.9506L136.799 88.7121L136.572 89.4645L136.329 90.2074L136.068 90.9406L135.79 91.6637L135.495 92.3763L135.184 93.0781L134.857 93.7688L134.514 94.4479L134.155 95.1153L133.78 95.7705L133.391 96.4133L132.986 97.0432L132.567 97.6602L132.134 98.2637L131.687 98.8536L131.226 99.4296L130.751 99.9913L130.264 100.538L129.764 101.071L129.251 101.588L128.726 102.09L128.19 102.577L127.642 103.048L127.083 103.503L126.514 103.941L125.934 104.363L125.345 104.769L124.745 105.157L124.137 105.529L123.519 105.883L122.893 106.22L122.26 106.539L121.618 106.841L120.969 107.124L120.313 107.39L119.651 107.637L118.983 107.866L118.308 108.076L117.629 108.268L116.945 108.441L116.256 108.595L115.563 108.731L114.866 108.847L114.167 108.944L113.464 109.023L112.759 109.082L112.052 109.121L111.343 109.142L110.633 109.143L109.923 109.125L109.212 109.088L108.501 109.031L107.791 108.955L107.081 108.859L106.373 108.744L105.667 108.61L104.963 108.457L104.262 108.284L103.563 108.092L102.868 107.881L102.177 107.652L101.491 107.403L100.809 107.135L100.132 106.848L99.4601 106.543L98.7946 106.219L98.1354 105.877L97.4829 105.517L96.8375 105.138L96.1997 104.741L95.5698 104.326L94.9482 103.894L94.3352 103.444L93.7314 102.977L93.137 102.492L92.5524 101.99L91.9781 101.472L91.4143 100.937L90.8614 100.386L90.3199 99.8183L89.7899 99.2348L89.272 98.6356L88.7665 98.021L88.2736 97.3911L87.7938 96.7463L87.3273 96.0868L86.8744 95.4128L86.4356 94.7248L86.0111 94.0228L85.6012 93.3073L85.2062 92.5785L84.8264 91.8367L84.4622 91.0823L84.1137 90.3155L83.7813 89.5367L83.4652 88.7461L83.1658 87.9442L82.8832 87.1312L82.6177 86.3076L82.3695 85.4736L82.139 84.6295L81.9262 83.7759L81.7315 82.9129L81.5551 82.041L81.3971 81.1606L81.2578 80.272L81.1373 79.3756L81.0359 78.4718L80.9537 77.561L80.8908 76.6435L80.8476 75.7197L80.824 74.7902L80.8202 73.8551L80.8365 72.915L80.8728 71.9703L80.9294 71.0214L81.0063 70.0686L81.1037 69.1123L81.2216 68.1532L81.3602 67.1914L81.5194 66.2274L81.6994 65.2617L81.9003 64.2947L82.122 63.3268L82.3647 62.3584L82.6284 61.39L82.9131 60.422L83.2188 59.4547L83.5455 58.4887L83.8932 57.5244L84.262 56.5621L84.6517 55.6024L85.0625 54.6456L85.4942 53.6922L85.9468 52.7425L86.4203 51.7971L86.9145 50.8564L87.4295 49.9207L87.9652 48.9905L88.5214 48.0662L89.0981 47.1483L89.6951 46.2371L90.3124 45.333L90.9499 44.4366L91.6074 43.5482L92.2847 42.6681L92.9818 41.7969L93.6985 40.9348L94.4346 40.0824L95.19 39.24L95.9644 38.408L96.7578 37.5868L97.5698 36.7768L98.4003 35.9783L99.2492 35.1918L100.116 34.4176L101.001 33.6562L101.903 32.9077L102.823 32.1727L103.76 31.4515L104.714 30.7444L105.684 30.0518L106.671 29.374L107.674 28.7114L108.693 28.0642L109.727 27.4329L110.776 26.8178L111.841 26.2191L112.92 25.6372L114.013 25.0723L115.12 24.5249L116.241 23.995L117.376 23.4832L118.523 22.9896L119.683 22.5144L120.855 22.0581L122.039 21.6207L123.235 21.2027L124.442 20.8041L125.66 20.4254L126.888 20.0666L128.127 19.728L129.375 19.4098L130.633 19.1123L131.899 18.8356L133.174 18.58L134.457 18.3456L135.748 18.1325L137.046 17.941L138.351 17.7713L139.663 17.6234L140.981 17.4975L142.304 17.3938L143.633 17.3124L144.967 17.2534L146.305 17.2169L147.646 17.2031L148.992 17.2119L150.34 17.2436L151.692 17.2981L153.045 17.3756L154.4 17.4761L155.757 17.5997L157.115 17.7464L158.473 17.9163L159.831 18.1093L161.188 18.3255L162.545 18.5649L163.901 18.8276L165.254 19.1134L166.606 19.4224L167.955 19.7545L169.3 20.1098L170.643 20.4882L171.981 20.8895L173.315 21.3139L174.644 21.7611L175.968 22.2312L177.286 22.724L178.598 23.2394L179.903 23.7774L181.202 24.3378L182.492 24.9205L183.775 25.5254L185.05 26.1523L186.316 26.8011L187.573 27.4717L188.82 28.1639L190.058 28.8774L191.284 29.6122L192.501 30.3681L193.706 31.1448L194.899 31.9422L196.08 32.76L197.249 33.598L198.406 34.4561L199.549 35.3339L200.678 36.2313L201.794 37.148L202.896 38.0837L203.983 39.0381L205.055 40.0111L206.111 41.0024L207.152 42.0115L208.177 43.0384L209.185 44.0826L210.177 45.1438L211.152 46.2219L212.11 47.3163L213.05 48.4269L213.972 49.5533L214.875 50.6952L215.761 51.8522L216.627 53.024L217.474 54.2102L218.302 55.4105L219.111 56.6245L219.899 57.8519L220.668 59.0923L221.416 60.3452L222.143 61.6105L222.85 62.8875L223.535 64.1761L224.199 65.4756L224.842 66.7859L225.463 68.1065L226.062 69.4369L226.64 70.7767L227.194 72.1257L227.727 73.4832L228.237 74.849L228.725 76.2226L229.189 77.6035L229.631 78.9914L230.049 80.3859L230.445 81.7864L230.817 83.1925L231.165 84.6039L231.491 86.0201L231.792 87.4406L232.07 88.8651L232.324 90.293L232.555 91.7239L232.762 93.1574L232.945 94.5931L233.104 96.0305L233.239 97.4691L233.35 98.9085L233.437 100.348L233.501 101.788L233.54 103.227L233.556 104.665L233.548 106.102L233.516 107.537L233.461 108.97L233.381 110.4L233.279 111.826L233.152 113.249L233.002 114.668L232.829 116.083L232.633 117.493L232.413 118.897L232.171 120.295L231.906 121.688L231.617 123.073L231.307 124.452L230.973 125.823L230.618 127.186L230.24 128.542L229.841 129.888L229.42 131.225L228.977 132.553L228.513 133.871L228.027 135.178L227.521 136.475L226.994 137.761L226.446 139.035L225.879 140.298L225.291 141.549L224.683 142.786L224.056 144.011L223.41 145.223L222.745 146.421L222.061 147.606L221.359 148.776L220.638 149.931L219.9 151.072L219.144 152.197L218.372 153.306L217.582 154.4L216.776 155.478L215.953 156.539L215.115 157.583L214.261 158.611L213.392 159.621L212.509 160.613L211.61 161.588L210.698 162.544L209.772 163.483L208.832 164.402L207.88 165.303L206.915 166.185L205.938 167.048L204.949 167.891L203.948 168.714L202.936 169.518L201.914 170.302L200.881 171.065L199.839 171.809L198.787 172.531L197.726 173.233L196.657 173.914L195.579 174.575L194.494 175.214L193.401 175.832L192.302 176.428L191.196 177.004L190.083 177.557L188.965 178.089L187.842 178.6L186.715 179.089L185.582 179.556L184.446 180.001L183.307 180.424L182.164 180.825L181.019 181.205L179.872 181.562L178.723 181.898L177.573 182.211L176.422 182.503L175.27 182.773L174.118 183.02L172.967 183.246L171.817 183.45L170.668 183.633L169.521 183.793L168.376 183.932L167.234 184.049L166.095 184.145L164.959 184.22L163.827 184.273L162.699 184.305L161.576 184.316L160.459 184.306L159.346 184.276L158.24 184.225L157.14 184.153L156.047 184.061L154.961 183.949L153.883 183.816L152.812 183.665L151.75 183.493L150.696 183.302L149.652 183.092L148.617 182.863L147.592 182.615L146.577 182.349L145.573 182.064L144.579 181.761L143.597 181.441L142.626 181.103L141.668 180.747L140.721 180.375L139.788 179.986L138.867 179.581L137.959 179.159L137.065 178.721L136.185 178.268L135.319 177.8L134.467 177.317L133.63 176.819L132.808 176.307L132.002 175.781L131.211 175.241L130.435 174.688L129.676 174.122L128.933 173.544L128.207 172.953L127.497 172.35L126.804 171.736L126.129 171.111L125.471 170.475L124.83 169.828L124.207 169.172L123.603 168.506L123.016 167.83L122.447 167.146L121.898 166.453L121.366 165.753L120.854 165.044L120.36 164.328L119.885 163.606L119.43 162.877L118.994 162.142L118.577 161.401L118.179 160.655L117.801 159.904L117.443 159.149L117.104 158.39L116.785 157.627L116.486 156.861L116.206 156.092L115.947 155.322L115.707 154.549L115.487 153.774L115.287 152.999L115.107 152.223L114.947 151.447L114.806 150.671L114.686 149.896L114.585 149.121L114.504 148.349L114.443 147.578L114.401 146.809L114.379 146.043L114.376 145.281L114.393 144.521L114.429 143.766L114.484 143.015L114.558 142.269L114.651 141.528L114.763 140.793L114.894 140.063L115.043 139.34L115.211 138.624L115.397 137.915L115.601 137.213L115.823 136.519L116.062 135.834L116.319 135.157L116.594 134.489L116.885 133.83L117.193 133.182L117.518 132.543L117.86 131.915L118.217 131.297L118.591 130.691L118.98 130.096L119.385 129.513L119.805 128.942L120.239 128.384L120.689 127.838L121.152 127.305L121.63 126.786L122.122 126.28L122.627 125.789L123.145 125.311L123.676 124.848L124.219 124.4L124.775 123.967L125.343 123.549L125.922 123.147L126.512 122.761L127.113 122.391L127.725 122.037L128.346 121.699L128.978 121.378L129.619 121.075L130.269 120.788L130.927 120.519L131.594 120.267L132.269 120.033L132.951 119.816L133.64 119.618L134.337 119.438L135.039 119.276L135.747 119.133L136.461 119.008L137.181 118.902L137.905 118.815L138.633 118.747L139.365 118.698L140.101 118.668L140.839 118.658L141.581 118.666L142.325 118.694L143.07 118.741L143.817 118.808L144.565 118.895L145.314 119L146.063 119.126L146.811 119.271L147.559 119.435L148.306 119.619L149.051 119.823L149.794 120.046L150.535 120.289L151.274 120.551L152.009 120.833L152.74 121.134L153.467 121.454L154.19 121.794L154.908 122.153L155.621 122.531L156.328 122.927L157.029 123.343L157.723 123.778L158.41 124.231L159.091 124.702L159.763 125.192L160.427 125.7L161.083 126.227L161.73 126.771L162.367 127.333L162.995 127.912L163.613 128.509L164.22 129.123L164.817 129.754L165.402 130.402L165.976 131.066L166.538 131.747L167.087 132.443L167.624 133.156L168.148 133.884L168.659 134.628L169.156 135.386L169.639 136.16L170.108 136.948L170.562 137.75L171.001 138.567L171.425 139.397L171.833 140.24L172.226 141.097L172.602 141.966L172.962 142.848L173.305 143.742L173.632 144.648L173.941 145.566L174.232 146.494L174.506 147.433L174.761 148.383L174.999 149.343L175.218 150.313L175.418 151.292L175.599 152.28L175.762 153.276L175.905 154.281L176.028 155.294L176.132 156.314L176.215 157.342L176.279 158.376L176.322 159.416L176.346 160.463L176.348 161.515L176.33 162.571L176.291 163.633L176.231 164.699L176.151 165.769L176.049 166.842L175.925 167.919L175.781 168.998L175.615 170.079L175.428 171.162L175.219 172.246L174.988 173.331L174.736 174.417L174.462 175.502L174.167 176.588L173.85 177.672L173.511 178.756L173.15 179.837L172.768 180.917L172.363 181.994L171.938 183.068L171.49 184.139L171.021 185.206L170.53 186.268L170.018 187.326L169.485 188.379L168.929 189.426L168.353 190.468L167.756 191.503L167.137 192.531L166.498 193.552L165.837 194.565L165.156 195.57L164.454 196.567L163.732 197.555L162.989 198.533L162.227 199.502L161.444 200.461L160.641 201.409L159.819 202.346L158.978 203.272L158.117 204.187L157.237 205.089L156.338 205.979L155.421 206.856L154.486 207.72L153.532 208.57L152.56 209.407L151.571 210.229L150.564 211.036L149.541 211.828L148.5 212.606L147.443 213.367L146.37 214.113L145.281 214.842L144.176 215.554L143.055 216.25L141.92 216.928L140.77 217.589L139.605 218.231L138.427 218.856L137.235 219.462L136.029 220.05L134.81 220.618L133.579 221.167L132.335 221.697L131.08 222.207L129.812 222.697L128.534 223.166L127.245 223.616L125.945 224.044L124.635 224.452L123.316 224.838L121.987 225.203L120.649 225.547L119.303 225.869L117.949 226.169L116.587 226.447L115.218 226.703L113.843 226.936L112.46 227.148L111.072 227.336L109.678 227.502L108.279 227.644L106.876 227.764L105.468 227.861L104.056 227.935L102.641 227.985L101.223 228.012L99.8031 228.016L98.3806 227.996L96.9565 227.953L95.5312 227.886L94.1052 227.795L92.6789 227.681L91.2529 227.544L89.8274 227.383L88.403 227.198L86.98 226.989L85.5591 226.757L84.1405 226.502L82.7248 226.223L81.3124 225.92L79.9037 225.594L78.4993 225.245L77.0994 224.872L75.7046 224.476L74.3153 224.057L72.9319 223.615L71.5549 223.15L70.1847 222.663L68.8217 222.152L67.4664 221.619L66.1192 221.064L64.7805 220.486L63.4507 219.887L62.1302 219.265L60.8196 218.622L59.519 217.957L58.2291 217.27L56.9501 216.563L55.6825 215.834L54.4267 215.085L53.183 214.315L51.9519 213.525L50.7337 212.715L49.5288 211.884L48.3376 211.035L47.1604 210.166L45.9976 209.277L44.8496 208.37L43.7167 207.445L42.5992 206.501L41.4975 205.539L40.412 204.559L39.3429 203.563L38.2906 202.549L37.2554 201.518L36.2375 200.471L35.2374 199.408L34.2553 198.329L33.2915 197.234L32.3463 196.125L31.4199 195.001L30.5126 193.862L29.6248 192.709L28.7565 191.543L27.9082 190.364L27.0799 189.171L26.2721 187.967L25.4848 186.75L24.7183 185.521L23.9729 184.281L23.2486 183.03L22.5458 181.768L21.8645 180.496L21.2051 179.215L20.5675 177.924L19.9521 176.624L19.359 175.316L18.7882 174L18.24 172.676L17.7145 171.345L17.2117 170.007L16.7319 168.662L16.2751 167.312L15.8414 165.956L15.4308 164.595L15.0435 163.23L14.6796 161.86L14.3391 160.487L14.022 159.11L13.7284 157.73L13.4583 156.348L13.2118 154.964L12.9888 153.579L12.7894 152.192L12.6136 150.804L12.4614 149.417L12.3327 148.03L12.2275 146.643L12.1458 145.257L12.0875 143.873L12.0527 142.491L12.0411 141.112L12.0528 139.735L12.0877 138.361L12.1456 136.992L12.2266 135.626L12.3304 134.265L12.457 132.909L12.6062 131.559L12.778 130.214L12.9721 128.876L13.1885 127.544L13.427 126.22L13.6874 124.902L13.9695 123.593L14.2732 122.293L14.5982 121.001L14.9445 119.718L15.3118 118.444L15.6998 117.181L16.1084 115.927L16.5373 114.685L16.9863 113.453L17.4552 112.233L17.9436 111.025L18.4515 109.829L18.9784 108.645L19.5242 107.474L20.0885 106.316L20.6712 105.172L21.2718 104.041L21.89 102.925L22.5257 101.823L23.1785 100.736L23.8481 99.6644L24.5341 98.608L25.2362 97.5672L25.9541 96.5424L26.6875 95.5339L27.4361 94.5419L28.1994 93.5667L28.9771 92.6086L29.7689 91.6678L30.5744 90.7446L31.3932 89.8392L32.2251 88.9518L33.0695 88.0827L33.9261 87.2321L34.7946 86.4001L35.6745 85.5871L36.5655 84.7931L37.4671 84.0184L38.379 83.2632L39.3008 82.5275L40.232 81.8116L41.1723 81.1157L42.1212 80.4398L43.0783 79.7842L44.0433 79.1489L45.0156 78.534L45.9949 77.9397L46.9808 77.3661L47.9728 76.8133L48.9705 76.2813L49.9734 75.7703L50.9813 75.2802L51.9935 74.8113L53.0097 74.3634L54.0295 73.9367L55.0524 73.5312L56.078 73.1469L57.1059 72.7839L58.1355 72.4421L59.1666 72.1216L60.1987 71.8223L61.2313 71.5442L62.2639 71.2873L63.2963 71.0516L64.3279 70.8371L65.3583 70.6436L66.3871 70.4711L67.4138 70.3195L68.4381 70.1889L69.4595 70.079L70.4777 69.9898L71.492 69.9212L72.5023 69.8731L73.508 69.8453L74.5087 69.8378L75.5041 69.8504L76.4937 69.8829L77.4771 69.9353L78.454 70.0073L79.4239 70.0988L80.3864 70.2096L81.3412 70.3395L82.2879 70.4884L83.226 70.656L84.1553 70.8422L85.0753 71.0466L85.9857 71.2692L86.8861 71.5097L87.7762 71.7678L88.6556 72.0433L89.5239 72.336L90.3809 72.6455L91.2262 72.9718L92.0594 73.3144L92.8803 73.673L93.6884 74.0475L94.4836 74.4376L95.2655 74.8429L96.0337 75.2631L96.7881 75.698L97.5283 76.1471L98.254 76.6103L98.9649 77.0872L99.6608 77.5774L100.341 78.0807L101.007 78.5966L101.656 79.1249L102.289 79.6652L102.906 80.2171L103.507 80.7803L104.091 81.3545L104.658 81.9392L105.208 82.5341L105.74 83.1388L106.255 83.753L106.753 84.3762L107.232 85.0081L107.694 85.6483L108.137 86.2964L108.562 86.952L108.969 87.6146L109.357 88.2841L109.726 88.9598L110.077 89.6414L110.408 90.3285L110.721 91.0207L111.014 91.7176L111.288 92.4187L111.543 93.1237L111.779 93.8322L111.995 94.5437L112.192 95.2577L112.369 95.974L112.527 96.692L112.665 97.4115L112.783 98.1318L112.882 98.8526L112.962 99.5735L113.022 100.294L113.062 101.014L113.083 101.733L113.085 102.45L113.067 103.165L113.03 103.878L112.973 104.588L112.897 105.294L112.802 105.997L112.689 106.696L112.556 107.391L112.404 108.081L112.234 108.765L112.045 109.444L111.837 110.116L111.611 110.783L111.367 111.442L111.105 112.094L110.825 112.739L110.528 113.375L110.212 114.003L109.88 114.623L109.53 115.233L109.164 115.833L108.78 116.424L108.381 117.005L107.965 117.575L107.532 118.134L107.085 118.682L106.621 119.218L106.142 119.742L105.648 120.254L105.14 120.754L104.616 121.24L104.079 121.714L103.528 122.173L102.963 122.619L102.384 123.051L101.793 123.468L101.188 123.871L100.572 124.259L99.9429 124.631L99.3023 124.988L98.6503 125.329L97.9871 125.654L97.3132 125.963L96.6289 126.255L95.9344 126.53L95.2303 126.789L94.5168 127.03L93.7944 127.254L93.0633 127.461L92.3239 127.649L91.5768 127.82L90.8221 127.973L90.0603 128.107L89.2918 128.222L88.5171 128.32L87.7364 128.398L86.9502 128.457L86.1588 128.498L85.3628 128.519L84.5625 128.521L83.7582 128.503L82.9505 128.466L82.1398 128.41L81.3264 128.334L80.5107 128.238L79.6932 128.122L78.8744 127.986L78.0545 127.831L77.2342 127.656L76.4137 127.46L75.5935 127.245L74.774 127.01L73.9556 126.754L73.1389 126.479L72.3241 126.184L71.5118 125.869L70.7022 125.533L69.896 125.178L69.0935 124.804L68.295 124.409L67.5011 123.994L66.7122 123.56L65.9286 123.107L65.1509 122.634L64.3793 122.141L63.6143 121.629L62.8564 121.099L62.1059 120.549L61.3633 119.98L60.6289 119.392L59.9031 118.786L59.1864 118.161L58.4791 117.518L57.7817 116.857L57.0945 116.178L56.4178 115.481L55.7522 114.767L55.0979 114.035L54.4554 113.286L53.8249 112.521L53.207 111.738L52.6018 110.939L52.0099 110.124L51.4314 109.293L50.8669 108.446L50.3165 107.583L49.7808 106.706L49.2598 105.813L48.7542 104.906L48.264 103.985L47.7896 103.049L47.3315 102.1L46.8897 101.137L46.4647 100.161L46.0567 99.1722L45.6661 98.171L45.293 97.1576L44.9378 96.1324L44.6007 95.0957L44.2819 94.0479L43.9818 92.9892L43.7006 91.9202L43.4384 90.8411L43.1956 89.7523L42.9723 88.6541L42.7688 87.547L42.5852 86.4313L42.4218 85.3075L42.2787 84.1758L42.1562 83.0368L42.0544 81.8907L41.9734 80.7381L41.9135 79.5792L41.8747 78.4145L41.8573 77.2444L41.8613 76.0694L41.8869 74.8898L41.9341 73.706L42.0032 72.5185L42.0942 71.3278L42.2072 70.1341L42.3423 68.938L42.4995 67.7399L42.6789 66.5401L42.8806 65.3392L43.1046 64.1376L43.351 62.9357L43.6198 61.7339L43.911 60.5327L44.2247 59.3325L44.5608 58.1337L44.9193 56.9368L45.3003 55.7423L45.7036 54.5504L46.1294 53.3618L46.5774 52.1768L47.0478 50.9958L47.5404 49.8194L48.0552 48.6478L48.592 47.4816L49.1509 46.3212L49.7317 45.167L50.3344 44.0195L50.9587 42.879L51.6047 41.746L52.2722 40.6209L52.961 39.5041L53.671 38.3961L54.4021 37.2973L55.154 36.208L55.9268 35.1286L56.72 34.0597L57.5337 33.0015L58.3676 31.9546L59.2214 30.9191L60.0951 29.8957L60.9883 28.8846L61.9009 27.8862L62.8326 26.9009L63.7833 25.9292L64.7525 24.9712L65.7402 24.0275L66.746 23.0983L67.7697 22.1841L68.811 21.2851L69.8696 20.4018L70.9452 19.5344L72.0376 18.6833L73.1465 17.8488L74.2715 17.0313L75.4123 16.231L76.5686 15.4482L77.7401 14.6833L78.9265 13.9366L80.1274 13.2083L81.3425 12.4988L82.5714 11.8083L83.8137 11.137L85.0692 10.4853L86.3375 9.85341L87.6181 9.24155L88.9108 8.64997L90.215 8.07893L91.5306 7.52863L92.857 6.9993L94.1938 6.49116L95.5407 6.00441L96.8974 5.53923L98.2632 5.09583L99.638 4.67439L101.021 4.27507L102.412 3.89804L103.811 3.54346L105.217 3.21149L106.63 2.90225L108.049 2.61588L109.474 2.35251L110.905 2.11225L112.34 1.8952L113.781 1.70148L115.225 1.53116L116.673 1.38433L118.124 1.26106L119.579 1.16142L121.035 1.08546L122.494 1.03323L123.954 1.00477L125.415 1.00011L126.877 1.01927L128.339 1.06225L129.801 1.12908L131.262 1.21973L132.721 1.33421L134.18 1.47247L135.636 1.6345L137.089 1.82025L138.54 2.02969L139.987 2.26274L141.43 2.51933L142.87 2.79941L144.304 3.10288L145.733 3.42966L147.157 3.77965L148.574 4.15273L149.985 4.54878L151.389 4.96769L152.786 5.40931L154.175 5.87352L155.556 6.36015L156.929 6.86905L158.292 7.40006L159.646 7.95299L160.99 8.52767L162.324 9.1239L163.647 9.74149L164.959 10.3802L166.26 11.0399L167.549 11.7203L168.825 12.4212L170.089 13.1423L171.34 13.8834L172.578 14.6443L173.802 15.4247L175.013 16.2244L176.208 17.043L177.389 17.8802L178.555 18.7359L179.705 19.6097L180.84 20.5013L181.959 21.4104L183.061 22.3367L184.146 23.2798L185.214 24.2395L186.265 25.2155L187.299 26.2073L188.314 27.2147L189.312 28.2372L190.29 29.2747L191.251 30.3266L192.192 31.3927L193.114 32.4725L194.016 33.5657L194.899 34.672L195.761 35.7909L196.604 36.922L197.426 38.065L198.227 39.2195L199.008 40.3851L199.768 41.5613L200.506 42.7479L201.224 43.9443L201.919 45.1501L202.593 46.365L203.246 47.5885L203.876 48.8203L204.484 50.0598L205.07 51.3067L205.634 52.5605L206.175 53.8209L206.693 55.0873L207.189 56.3594L207.662 57.6366L208.113 58.9187L208.54 60.2051L208.945 61.4954L209.327 62.7892L209.685 64.086L210.021 65.3854L210.334 66.6869L210.623 67.9902L210.89 69.2947L211.133 70.6001L211.353 71.9058L211.551 73.2115L211.725 74.5167L211.876 75.821L212.005 77.1239L212.11 78.4251L212.193 79.724L212.253 81.0202L212.29 82.3134L212.305 83.603L212.298 84.8887L212.268 86.17L212.216 87.4465L212.141 88.7178L212.045 89.9835L211.927 91.2431L211.787 92.4963L211.626 93.7426L211.444 94.9816L211.24 96.213L211.015 97.4363L210.769 98.6512L210.503 99.8571L210.217 101.054L209.91 102.241L209.583 103.418L209.237 104.585L208.871 105.741L208.485 106.886L208.081 108.02L207.658 109.141L207.216 110.251L206.757 111.348L206.279 112.432L205.783 113.503L205.27 114.561L204.741 115.605L204.194 116.634L203.631 117.65L203.051 118.65L202.456 119.636L201.845 120.606L201.219 121.561L200.578 122.499L199.923 123.422L199.254 124.328L198.57 125.218L197.873 126.091L197.164 126.946L196.441 127.785L195.706 128.605L194.959 129.408L194.2 130.193L193.431 130.96L192.65 131.708L191.859 132.438L191.058 133.149L190.247 133.841L189.427 134.514L188.598 135.168L187.76 135.802L186.915 136.417L186.061 137.012L185.201 137.587L184.334 138.143L183.46 138.678L182.581 139.194L181.696 139.689L180.806 140.164L179.911 140.619L179.012 141.053L178.109 141.467L177.202 141.86L176.293 142.233L175.381 142.585L174.466 142.917L173.551 143.228L172.633 143.519L171.715 143.789L170.797 144.038L169.878 144.267L168.96 144.476L168.043 144.664L167.127 144.831L166.213 144.978L165.301 145.105L164.391 145.212L163.485 145.299L162.582 145.365L161.682 145.412L160.787 145.439L159.896 145.446L159.011 145.434L158.13 145.402L157.256 145.351L156.388 145.281L155.526 145.191L154.672 145.083L153.824 144.956L152.985 144.811L152.154 144.648L151.331 144.466L150.517 144.267L149.713 144.049L148.918 143.815L148.133 143.563L147.358 143.294L146.594 143.008L145.842 142.706L145.1 142.388L144.37 142.054L143.653 141.703L142.947 141.338L142.254 140.957L141.575 140.561L140.908 140.151L140.255 139.727L139.616 139.288L138.992 138.836L138.381 138.37L137.786 137.892L137.205 137.4L136.64 136.896L136.09 136.38L135.555 135.853L135.037 135.314L134.535 134.764L134.05 134.203L133.581 133.632L133.129 133.052L132.693 132.461L132.276 131.861L131.875 131.253L131.493 130.636L131.128 130.011L130.781 129.378L130.452 128.738L130.141 128.092L129.849 127.438L129.575 126.779L129.32 126.114L129.083 125.443L128.866 124.768L128.667 124.088L128.487 123.404L128.327 122.717L128.185 122.026L128.063 121.333L127.961 120.637L127.877 119.939L127.813 119.239L127.768 118.538L127.743 117.837L127.738 117.135L127.751 116.433L127.784 115.732L127.837 115.031L127.909 114.332L128 113.635L128.111 112.94L128.241 112.248L128.39 111.558L128.558 110.872L128.746 110.19L128.952 109.512L129.177 108.839L129.421 108.17L129.684 107.507L129.965 106.85L130.265 106.2L130.583 105.556L130.92 104.919L131.274 104.289L131.646 103.667L132.036 103.054L132.444 102.449L132.869 101.853L133.311 101.266L133.77 100.689L134.245 100.123L134.738 99.5663L135.246 99.0208L135.771 98.4864L136.312 97.9635L136.868 97.4525L137.44 96.9537L138.027 96.4675L138.628 95.9941L139.244 95.5339L139.875 95.0872L140.52 94.6543L141.178 94.2355L141.85 93.8312L142.535 93.4415L143.233 93.0669L143.943 92.7076L144.666 92.3639L145.401 92.036L146.147 91.7242L146.904 91.4287L147.672 91.1499L148.451 90.888L149.24 90.6431L150.039 90.4156L150.848 90.2056L151.665 90.0133L152.491 89.8391L153.326 89.683L154.169 89.5452L155.019 89.4261L155.876 89.3256L156.741 89.2441L157.611 89.1816L158.488 89.1383L159.371 89.1143L160.258 89.1099L161.151 89.1251L162.048 89.1601L162.949 89.2149L163.854 89.2896L164.762 89.3845L165.672 89.4995L166.585 89.6347L167.5 89.7902L168.417 89.9661L169.334 90.1624L170.253 90.3792L171.171 90.6165L172.089 90.8744L173.007 91.1528L173.924 91.4517L174.839 91.7713L175.752 92.1114L176.663 92.4721L177.572 92.8533L178.477 93.255L179.378 93.6772L180.276 94.1198L181.169 94.5827L182.057 95.0659L182.94 95.5694L183.817 96.093L184.688 96.6367L185.552 97.2003L186.41 97.7837L187.26 98.3869L188.102 99.0097L188.936 99.6519L189.762 100.313L190.578 100.994L191.385 101.694L192.182 102.413L192.969 103.15L193.745 103.906L194.511 104.68L195.265 105.472L196.007 106.282L196.737 107.11L197.454 107.956L198.159 108.818L198.85 109.698L199.528 110.594L200.192 111.507L200.841 112.437L201.476 113.382L202.096 114.343L202.7 115.32L203.289 116.311L203.862 117.318L204.419 118.339L204.958 119.374L205.481 120.424L205.987 121.487L206.476 122.563L206.946 123.653L207.398 124.755L207.833 125.87L208.248 126.996L208.645 128.135L209.022 129.284L209.38 130.445L209.719 131.616L210.037 132.797L210.336 133.988L210.614 135.189L210.872 136.398L211.109 137.617L211.325 138.843L211.521 140.078L211.694 141.32L211.847 142.569L211.978 143.825L212.087 145.087L212.174 146.355L212.24 147.628L212.283 148.907L212.304 150.19L212.302 151.477L212.278 152.769L212.231 154.063L212.162 155.36L212.07 156.66L211.955 157.962L211.817 159.266L211.657 160.57L211.473 161.876L211.266 163.182L211.037 164.487L210.784 165.792L210.508 167.096L210.209 168.399L209.887 169.7L209.542 170.998L209.174 172.294L208.783 173.586L208.369 174.875L207.932 176.16L207.472 177.44L206.99 178.715L206.485 179.985L205.957 181.249L205.407 182.507L204.834 183.758L204.239 185.002L203.622 186.238L202.983 187.466L202.321 188.687L201.639 189.898L200.934 191.1L200.208 192.292L199.461 193.475L198.693 194.647L197.903 195.808L197.093 196.958L196.263 198.096L195.412 199.222L194.541 200.336L193.651 201.437L192.74 202.525L191.811 203.599L190.862 204.659L189.894 205.705L188.908 206.737L187.903 207.753L186.88 208.754L185.839 209.74L184.781 210.709L183.706 211.662L182.614 212.598L181.505 213.518L180.38 214.42L179.239 215.304L178.082 216.17L176.91 217.019L175.723 217.848L174.521 218.659L173.305 219.451L172.076 220.224L170.832 220.976L169.576 221.709L168.307 222.422L167.025 223.115L165.731 223.787L164.426 224.438L163.109 225.068L161.782 225.677L160.444 226.265L159.095 226.83L157.738 227.374L156.371 227.896L154.995 228.396L153.611 228.874L152.218 229.329L150.818 229.761L149.411 230.171L147.998 230.558L146.577 230.921L145.152 231.262L143.72 231.579L142.284 231.873L140.843 232.144L139.398 232.391L137.949 232.614L136.497 232.814L135.043 232.99L133.586 233.142L132.127 233.271L130.667 233.376L129.205 233.457L127.743 233.514L126.281 233.547L124.82 233.556L123.359 233.542L121.9 233.504L120.442 233.442L118.986 233.356L117.533 233.247L116.083 233.114L114.636 232.958L113.193 232.778L111.755 232.575L110.321 232.348L108.893 232.099L107.47 231.826L106.054 231.53L104.644 231.212L103.24 230.87L101.845 230.507L100.457 230.121L99.0769 229.712L97.7057 229.282L96.3436 228.829L94.9909 228.355L93.648 227.86L92.3154 227.343L90.9934 226.805L89.6824 226.247L88.3828 225.667L87.095 225.067L85.8193 224.447L84.5562 223.807L83.306 223.147L82.0691 222.468L80.8458 221.77L79.6365 221.053L78.4415 220.317L77.2611 219.563L76.0957 218.791L74.9457 218.001L73.8113 217.193L72.6928 216.369L71.5906 215.528L70.505 214.67L69.4363 213.796L68.3847 212.906L67.3505 212.001L66.3341 211.081L65.3357 210.145L64.3555 209.196L63.3938 208.232L62.4508 207.255L61.5269 206.264L60.6221 205.261L59.7368 204.244L58.8712 203.216L58.0255 202.176L57.1998 201.124L56.3944 200.062L55.6095 198.989L54.8452 197.905L54.1017 196.812L53.3792 195.709L52.6778 194.598L51.9977 193.477L51.339 192.349L50.7018 191.213L50.0863 190.069L49.4925 188.919L48.9206 187.762L48.3707 186.6L47.8428 185.431L47.337 184.258L46.8535 183.079L46.3922 181.897L45.9532 180.71L45.5366 179.52L45.1424 178.327L44.7706 177.131L44.4212 175.934L44.0942 174.734L43.7897 173.534L43.5076 172.332L43.248 171.13L43.0107 169.928L42.7957 168.727L42.6031 167.527L42.4328 166.327L42.2846 165.13L42.1585 163.935L42.0545 162.742L41.9724 161.553L41.9123 160.367L41.8738 159.185L41.857 158.007L41.8618 156.834L41.8879 155.666L41.9353 154.504L42.0039 153.347L42.0933 152.197L42.2036 151.054L42.3345 149.918L42.4859 148.789L42.6575 147.669L42.8493 146.557L43.0609 145.453L43.2921 144.359L43.5429 143.274L43.8128 142.199L44.1018 141.134L44.4095 140.08L44.7358 139.036L45.0803 138.004L45.4428 136.984L45.8231 135.975L46.2208 134.979L46.6358 133.995L47.0677 133.025L47.5161 132.068L47.9809 131.124L48.4618 130.194L48.9583 129.278L49.4702 128.377L49.9972 127.491L50.539 126.619L51.0952 125.763L51.6654 124.922L52.2494 124.098L52.8468 123.289L53.4572 122.497L54.0803 121.721L54.7157 120.962L55.363 120.22L56.022 119.496L56.6921 118.788L57.3731 118.099L58.0646 117.427L58.7661 116.773L59.4772 116.138L60.1977 115.52L60.927 114.922L61.6648 114.342L62.4107 113.781L63.1643 113.238L63.9251 112.715L64.6928 112.211L65.467 111.727L66.2471 111.262L67.033 110.816L67.824 110.39L68.6197 109.984L69.4199 109.597L70.224 109.23L71.0316 108.883L71.8423 108.556L72.6557 108.249L73.4714 107.962L74.2888 107.695L75.1077 107.448L75.9275 107.22L76.7479 107.013L77.5684 106.826L78.3886 106.659L79.2081 106.511L80.0264 106.384L80.8432 106.276L81.658 106.189L82.4704 106.12L83.28 106.072L84.0863 106.043L84.889 106.033L85.6876 106.043L86.4818 106.072L87.2711 106.12L88.0551 106.187L88.8334 106.273L89.6057 106.378L90.3714 106.501L91.1304 106.643L91.882 106.803L92.6261 106.981L93.3621 107.177L94.0897 107.39L94.8086 107.621L95.5183 107.87L96.2185 108.135L96.9089 108.418L97.589 108.717L98.2586 109.032L98.9172 109.364L99.5647 109.711L100.2 110.074L100.824 110.453L101.436 110.847L102.035 111.255L102.621 111.679L103.194 112.116L103.754 112.568L104.3 113.033L104.831 113.512L105.349 114.004L105.851 114.508L106.339 115.025L106.812 115.554L107.269 116.095L107.71 116.648L108.136 117.212L108.545 117.786L108.939 118.371L109.315 118.966L109.675 119.57L110.017 120.184L110.343 120.807L110.651 121.439L110.941 122.079L111.214 122.726L111.469 123.381L111.705 124.043L111.924 124.712L112.124 125.388L112.305 126.069L112.468 126.755L112.612 127.447L112.737 128.143L112.843 128.844L112.931 129.549L112.998 130.257L113.047 130.968L113.077 131.682L113.087 132.398L113.077 133.115L113.048 133.835L113 134.555L112.932 135.276L112.844 135.997L112.737 136.717L112.611 137.437L112.465 138.156L112.299 138.874L112.114 139.589L111.909 140.302L111.685 141.012L111.442 141.719L111.179 142.423L110.897 143.122L110.596 143.817L110.276 144.508L109.936 145.193L109.578 145.872L109.201 146.545L108.806 147.212L108.391 147.872L107.959 148.524L107.508 149.169L107.039 149.806L106.552 150.434L106.048 151.054L105.525 151.664L104.986 152.265L104.429 152.856L103.855 153.436L103.264 154.006L102.657 154.565L102.033 155.112L101.393 155.647L100.738 156.171L100.066 156.681L99.3792 157.179L98.6771 157.664L97.9601 158.136L97.2285 158.593L96.4825 159.036L95.7224 159.465L94.9486 159.88L94.1613 160.279L93.3608 160.662L92.5474 161.031L91.7215 161.383L90.8833 161.719L90.0332 162.038L89.1716 162.341L88.2987 162.627L87.4149 162.895L86.5205 163.146L85.616 163.379L84.7017 163.594L83.7778 163.791L82.8449 163.97L81.9032 164.13L80.9532 164.271L79.9952 164.393L79.0297 164.496L78.0569 164.58L77.0773 164.644L76.0913 164.688L75.0993 164.713L74.1017 164.717L73.0989 164.701L72.0913 164.665L71.0793 164.609L70.0634 164.532L69.0439 164.434L68.0212 164.316L66.9959 164.177L65.9682 164.017L64.9387 163.836L63.9078 163.634L62.8758 163.41L61.8433 163.166L60.8106 162.901L59.7782 162.614L58.7465 162.306L57.7159 161.977L56.6869 161.626L55.6599 161.255L54.6354 160.862L53.6137 160.448L52.5953 160.012L51.5807 159.556L50.5702 159.078L49.5643 158.58L48.5634 158.06L47.568 157.52L46.5784 156.958L45.5952 156.376L44.6187 155.774L43.6493 155.15L42.6875 154.507L41.7336 153.843L40.7882 153.159L39.8516 152.455L38.9241 151.731L38.0063 150.987L37.0986 150.224L36.2012 149.441L35.3147 148.64L34.4394 147.819L33.5757 146.979L32.724 146.121L31.8847 145.244L31.0581 144.35L30.2446 143.437L29.4447 142.507L28.6586 141.559L27.8867 140.594L27.1293 139.612L26.3869 138.613L25.6598 137.598L24.9483 136.566L24.2527 135.519L23.5733 134.456L22.9106 133.378L22.2647 132.285L21.6361 131.178L21.025 130.055L20.4317 128.919L19.8564 127.77L19.2996 126.606L18.7615 125.43L18.2423 124.241L17.7423 123.04L17.2618 121.827L16.801 120.602L16.3601 119.366L15.9395 118.119L15.5392 116.861L15.1596 115.594L14.8009 114.317L14.4633 113.03L14.1469 111.734L13.8519 110.43L13.5787 109.118L13.3272 107.797L13.0977 106.47L12.8904 105.135L12.7053 103.794L12.5427 102.447L12.4027 101.095L12.2853 99.7366L12.1908 98.3737L12.1192 97.0064L12.0707 95.6351L12.0452 94.2602L12.043 92.8823L12.064 91.5016L12.1084 90.1187L12.1762 88.734L12.2675 87.348L12.3823 85.961L12.5206 84.5735L12.6824 83.1859L12.8678 81.7988L13.0768 80.4125L13.3094 79.0275L13.5655 77.6442L13.8451 76.2631L14.1483 74.8845L14.475 73.5091L14.825 72.1371L15.1985 70.7691L15.5952 69.4054L16.0152 68.0465L16.4584 66.6929L16.9246 65.345L17.4138 64.0032L17.9258 62.6679L18.4606 61.3396L19.018 60.0187L19.5979 58.7057L20.2001 57.4008L20.8246 56.1047L21.471 54.8176L22.1394 53.54L22.8295 52.2724L23.5411 51.015L24.274 49.7684L25.028 48.5328L25.803 47.3088L26.5987 46.0967L27.4149 44.8969L28.2513 43.7097L29.1078 42.5356L29.9841 41.3749L30.8799 40.228L31.795 39.0953L32.7291 37.9771L33.6819 36.8737L34.6532 35.7856L35.6427 34.713L36.65 33.6563L37.675 32.6158L38.7172 31.5919L39.7764 30.5849L40.8522 29.5951L41.9444 28.6227L43.0525 27.6682L44.1763 26.7317L45.3154 25.8136L46.4695 24.9142L47.6382 24.0337L48.8211 23.1724L50.018 22.3306L51.2283 21.5085L52.4519 20.7063L53.6881 19.9243L54.9368 19.1628L56.1975 18.4219L57.4698 17.7019L58.7532 17.003L60.0475 16.3253L61.3523 15.6692L62.667 15.0346L63.9913 14.422L65.3247 13.8313L66.667 13.2628L68.0175 12.7165L69.376 12.1928L70.742 11.6917L72.115 11.2132L73.4947 10.7577L74.8805 10.325L76.2721 9.91548L77.669 9.52907L79.0708 9.1659L80.4771 8.82604L81.8873 8.50956L83.3012 8.21652L84.7181 7.94698L86.1376 7.70097L87.5594 7.47854L88.983 7.27969L90.4079 7.10446L91.8337 6.95285L93.2599 6.82484L94.6861 6.72045L96.1119 6.63965L97.5367 6.58241L98.9602 6.54869L100.382 6.53845L101.801 6.55164L103.218 6.5882L104.632 6.64805L106.042 6.73111L107.448 6.83731L108.85 6.96652L110.247 7.11868L111.638 7.29365L113.024 7.49131L114.404 7.71153L115.777 7.95418L117.143 8.21911L118.502 8.50617L119.853 8.81518L121.195 9.14599L122.529 9.49842L123.854 9.87227L125.17 10.2674L126.476 10.6835L127.771 11.1204L129.056 11.578L130.33 12.0559L131.593 12.554L132.843 13.072L134.082 13.6097L135.308 14.1668L136.522 14.743L137.722 15.3381L138.909 15.9518L140.082 16.5839L141.24 17.234L142.384 17.9019L143.514 18.5872L144.628 19.2897L145.726 20.009L146.809 20.7448L147.876 21.4968L148.926 22.2647L149.96 23.0481L150.977 23.8467L151.976 24.6601L152.958 25.488L153.923 26.3301L154.869 27.1859L155.797 28.0552L156.707 28.9375L157.598 29.8325L158.47 30.7397L159.323 31.6589L160.157 32.5896L160.971 33.5314L161.765 34.484L162.54 35.4469L163.294 36.4197L164.029 37.4021L164.742 38.3936L165.436 39.3939L166.109 40.4024L166.761 41.4188L167.392 42.4427L168.002 43.4737L168.591 44.5113L169.158 45.5551L169.704 46.6047L170.229 47.6597L170.733 48.7196L171.215 49.784L171.675 50.8525L172.114 51.9246L172.531 52.9999L172.926 54.0781L173.3 55.1586L173.651 56.2409L173.982 57.3248L174.29 58.4098L174.577 59.4953L174.842 60.5811L175.085 61.6666L175.307 62.7515L175.507 63.8353L175.685 64.9175L175.842 65.9978L175.978 67.0758L176.093 68.1509L176.186 69.2228L176.258 70.2912L176.31 71.3554L176.34 72.4152L176.35 73.4702L176.339 74.5198L176.307 75.5638L176.255 76.6017L176.184 77.6332L176.092 78.6577L175.98 79.675L175.849 80.6847L175.698 81.6863L175.528 82.6795L175.339 83.6639L175.131 84.6391L174.904 85.6048L174.659 86.5606L174.396 87.5061L174.115 88.4411L173.817 89.3651L173.501 90.2778L173.168 91.1789L172.818 92.068L172.451 92.9448L172.068 93.809L171.669 94.6603L171.254 95.4984L170.824 96.3229L170.379 97.1337L169.919 97.9302L169.444 98.7124L168.955 99.48L168.453 100.233L167.937 100.97L167.407 101.692L166.865 102.398L166.31 103.088L165.744 103.762L165.165 104.42L164.575 105.061L163.974 105.685L163.363 106.292L162.741 106.882L162.109 107.454L161.467 108.009L160.817 108.545L160.158 109.064L159.49 109.565L158.814 110.048L158.131 110.512L157.441 110.957L156.744 111.384L156.04 111.792L155.331 112.181L154.616 112.551L153.896 112.902L153.171 113.234L152.442 113.546L151.71 113.84L150.973 114.113L150.234 114.368L149.492 114.602L148.748 114.818L148.002 115.013L147.255 115.19L146.506 115.346L145.758 115.483L145.009 115.601L144.26 115.699L143.513 115.777L142.766 115.836L142.021 115.875L141.279 115.895L140.538 115.896L139.801 115.877L139.066 115.84L138.336 115.783L137.609 115.707L136.887 115.612L136.17 115.499L135.458 115.366L134.752 115.216L134.052 115.046L133.359 114.859L132.672 114.653L131.993 114.43L131.321 114.188L130.658 113.929L130.003 113.653L129.356 113.359L128.719 113.048L128.092 112.721L127.474 112.377L126.867 112.016L126.27 111.639L125.684 111.246L125.11 110.838L124.547 110.414L123.997 109.975L123.458 109.52L122.932 109.052L122.419 108.568L121.92 108.071L121.434 107.56L120.962 107.035L120.504 106.497L120.06 105.946L119.632 105.382L119.218 104.807L118.82 104.219L118.437 103.619L118.07 103.008L117.719 102.386L117.384 101.754L117.066 101.111L116.764 100.458L116.48 99.7958L116.212 99.1242L115.963 98.4437L115.73 97.7548L115.516 97.0577L115.319 96.3529L115.141 95.6407L114.98 94.9216L114.839 94.1959L114.716 93.4639L114.611 92.7262L114.526 91.9831L114.459 91.235L114.412 90.4822L114.384 89.7253L114.375 88.9647L114.385 88.2006L114.416 87.4336L114.465 86.664L114.535 85.8923L114.624 85.1188L114.733 84.3441L114.861 83.5685L115.01 82.7924L115.178 82.0163L115.366 81.2405L115.574 80.4656L115.802 79.6918L116.05 78.9197L116.318 78.1497L116.605 77.3821L116.913 76.6175L117.24 75.8561L117.586 75.0985L117.953 74.3451L118.339 73.5962L118.744 72.8523L119.169 72.1138L119.613 71.3811L120.076 70.6547L120.559 69.9348L121.06 69.222L121.58 68.5166L122.119 67.8191L122.677 67.1298L123.253 66.4491L123.847 65.7774L124.459 65.1152L125.089 64.4627L125.737 63.8204L126.402 63.1887L127.084 62.5679L127.784 61.9584L128.501 61.3605L129.234 60.7747L129.983 60.2012L130.749 59.6405L131.531 59.0929L132.328 58.5587L133.141 58.0383L133.969 57.5319L134.812 57.04L135.67 56.5628L136.542 56.1007L137.428 55.654L138.327 55.2229L139.24 54.8078L140.166 54.409L141.105 54.0268L142.057 53.6614L143.02 53.3131L143.996 52.9822L144.982 52.6689L145.98 52.3735L146.989 52.0963L148.008 51.8374L149.037 51.5972L150.076 51.3758L151.124 51.1734L152.182 50.9904L153.247 50.8268L154.321 50.6829L155.403 50.5588L156.492 50.4548L157.587 50.371L158.69 50.3076L159.799 50.2648L160.913 50.2426L162.033 50.2412L163.158 50.2609L164.288 50.3016L165.421 50.3635L166.558 50.4467L167.699 50.5514L168.842 50.6775L169.988 50.8253L171.136 50.9947L172.286 51.1858L173.436 51.3988L174.587 51.6336L175.739 51.8902L176.891 52.1688L178.041 52.4693L179.191 52.7918L180.34 53.1362L181.486 53.5026L182.63 53.891L183.771 54.3013L184.91 54.7334L186.044 55.1875L187.175 55.6633L188.301 56.1609L189.421 56.6802L190.537 57.2212L191.647 57.7837L192.75 58.3677L193.847 58.973L194.937 59.5996L196.019 60.2473L197.094 60.9161L198.16 61.6057L199.217 62.3162L200.265 63.0472L201.303 63.7987L202.332 64.5705L203.35 65.3623L204.357 66.1742L205.353 67.0058L206.337 67.8569L207.31 68.7274L208.27 69.6171L209.217 70.5256L210.151 71.4529L211.071 72.3987L211.978 73.3626L212.87 74.3446L213.748 75.3443L214.611 76.3614L215.459 77.3957L216.29 78.447L217.106 79.5149L217.906 80.5991L218.688 81.6993L219.454 82.8153L220.203 83.9468L220.934 85.0934L221.647 86.2547L222.342 87.4305L223.018 88.6205L223.675 89.8243L224.314 91.0415L224.933 92.2718L225.533 93.5149L226.112 94.7704L226.672 96.0378L227.211 97.317L227.73 98.6074L228.227 99.9087L228.704 101.22L229.16 102.542L229.594 103.874L230.006 105.215L230.397 106.565L230.766 107.923L231.112 109.29L231.436 110.664L231.738 112.046L232.016 113.434L232.272 114.829L232.506 116.23L232.716 117.637L232.903 119.048L233.066 120.465L233.207 121.885L233.323 123.31L233.417 124.738L233.486 126.169L233.532 127.603L233.554 129.039L233.553 130.476L233.527 131.915L233.478 133.354L233.405 134.794L233.308 136.233L233.187 137.673L233.042 139.111L232.873 140.548L232.68 141.982L232.464 143.415L232.224 144.845L231.96 146.271L231.672 147.694L231.361 149.113L231.026 150.527L230.668 151.936L230.286 153.34L229.882 154.738L229.454 156.13L229.003 157.515L228.529 158.893L228.032 160.264L227.513 161.626L226.971 162.98L226.407 164.326L225.821 165.662L225.213 166.988L224.583 168.305L223.931 169.611L223.258 170.906L222.564 172.19L221.849 173.462L221.113 174.722L220.357 175.97L219.58 177.205L218.784 178.427L217.967 179.636L217.132 180.83L216.276 182.011L215.402 183.176L214.509 184.327L213.598 185.463L212.669 186.583L211.722 187.687L210.757 188.775L209.775 189.846L208.777 190.9L207.761 191.938L206.73 192.957L205.683 193.959L204.62 194.943L203.542 195.908L202.449 196.855L201.341 197.783L200.22 198.692L199.085 199.582L197.936 200.451L196.775 201.301L195.601 202.131L194.414 202.941L193.216 203.73L192.007 204.498L190.786 205.245L189.555 205.971L188.313 206.676L187.062 207.36L185.802 208.021L184.532 208.661L183.254 209.279L181.968 209.875L180.674 210.449L179.372 211L178.064 211.529L176.75 212.035L175.429 212.519L174.103 212.979L172.772 213.417L171.436 213.832L170.096 214.224L168.753 214.593L167.406 214.939L166.056 215.262L164.703 215.561L163.349 215.838L161.993 216.091L160.635 216.321L159.278 216.528L157.919 216.711L156.562 216.872L155.204 217.009L153.848 217.123L152.494 217.214L151.141 217.282L149.791 217.328L148.443 217.35L147.099 217.35L145.759 217.327L144.423 217.281L143.091 217.213L141.765 217.122L140.443 217.009L139.128 216.875L137.819 216.718L136.517 216.539L135.221 216.339L133.933 216.117L132.654 215.874L131.382 215.61L130.119 215.325L128.865 215.019L127.621 214.692L126.387 214.345L125.163 213.978L123.949 213.591L122.747 213.185L121.556 212.759L120.376 212.314L119.209 211.85L118.054 211.367L116.912 210.866L115.783 210.347L114.668 209.81L113.566 209.255L112.479 208.683L111.405 208.095L110.347 207.489L109.304 206.867L108.276 206.23L107.264 205.576L106.267 204.907L105.287 204.223L104.323 203.525L103.376 202.812L102.446 202.085L101.534 201.345L100.638 200.591L99.7608 199.824L98.9012 199.045L98.0598 198.253L97.2368 197.45L96.4323 196.636L95.6467 195.81L94.88 194.974L94.1324 194.127L93.4042 193.271L92.6955 192.405L92.0064 191.53L91.3372 190.646L90.6878 189.755L90.0585 188.855L89.4495 187.948L88.8607 187.034L88.2923 186.114L87.7445 185.187L87.2172 184.254L86.7107 183.317L86.2249 182.374L85.7599 181.427L85.3158 180.475L84.8926 179.521L84.4904 178.563L84.1092 177.602L83.749 176.639L83.4098 175.674L83.0917 174.707L82.7946 173.739L82.5185 172.771L82.2633 171.803L82.0292 170.834L81.816 169.867L81.6236 168.9L81.452 167.935L81.3012 166.972L81.1711 166.011L81.0616 165.053L80.9725 164.098L80.9039 163.147L80.8556 162.2L80.8274 161.257L80.8194 160.319L80.8312 159.386L80.8628 158.459L80.9141 157.538L80.9848 156.623L81.0749 155.715L81.1841 154.814L81.3123 153.921L81.4592 153.035L81.6247 152.158L81.8086 151.29L82.0107 150.431L82.2307 149.581L82.4685 148.741L82.7237 147.911L82.9962 147.092L83.2857 146.283L83.592 145.486L83.9147 144.7L84.2537 143.926L84.6087 143.164L84.9793 142.415L85.3653 141.679L85.7664 140.955L86.1823 140.245L86.6126 139.549L87.0572 138.866L87.5157 138.198L87.9876 137.545L88.4728 136.906L88.9709 136.282L89.4815 135.674L90.0044 135.081L90.5391 134.504L91.0853 133.943L91.6426 133.399L92.2108 132.87L92.7893 132.359L93.3779 131.864L93.9762 131.387L94.5838 130.926L95.2004 130.483L95.8254 130.058L96.4586 129.651L97.0995 129.261L97.7478 128.89L98.4031 128.537L99.065 128.202L99.7329 127.886L100.407 127.588L101.086 127.309L101.77 127.049L102.458 126.808L103.151 126.586L103.847 126.383L104.547 126.199L105.25 126.034L105.955 125.888L106.662 125.762L107.37 125.655L108.08 125.568L108.79 125.499L109.501 125.45L110.212 125.421L110.923 125.411L111.632 125.42L112.34 125.448L113.046 125.496L113.75 125.563L114.452 125.649L115.151 125.754L115.846 125.878L116.537 126.021L117.224 126.183L117.906 126.364L118.584 126.563L119.256 126.781L119.922 127.017L120.581 127.272L121.234 127.545L121.88 127.836L122.519 128.144L123.149 128.471L123.772 128.815L124.386 129.176L124.99 129.554L125.586 129.95L126.172 130.362L126.747 130.791L127.312 131.236L127.867 131.698L128.41 132.175L128.942 132.668L129.461 133.176L129.969 133.7L130.464 134.238L130.946 134.791L131.415 135.359L131.871 135.941L132.312 136.536L132.74 137.145L133.153 137.767L133.551 138.403L133.935 139.05L134.303 139.711L134.655 140.383L134.992 141.067L135.313 141.762L135.617 142.468L135.905 143.185L136.176 143.912L136.43 144.65L136.667 145.396L136.886 146.153L137.087 146.918L137.271 147.691L137.436 148.473L137.583 149.262L137.712 150.059L137.822 150.863L137.913 151.674L137.985 152.49L138.038 153.313L138.072 154.141L138.086 154.974L138.081 155.812L138.056 156.654L138.012 157.5L137.947 158.349L137.863 159.201L137.758 160.056L137.634 160.913L137.489 161.772L137.324 162.632L137.139 163.493L136.934 164.355L136.708 165.216L136.462 166.078L136.195 166.938L135.908 167.797L135.601 168.655L135.273 169.511L134.925 170.364L134.557 171.214L134.168 172.061L133.759 172.904L133.33 173.743L132.881 174.578L132.412 175.407L131.922 176.232L131.413 177.05L130.884 177.862L130.335 178.667L129.767 179.466L129.179 180.256L128.572 181.039L127.946 181.814L127.301 182.58L126.637 183.337L125.954 184.084L125.252 184.822L124.533 185.549L123.795 186.266L123.039 186.971L122.265 187.666L121.474 188.348L120.665 189.018L119.839 189.676L118.996 190.321L118.137 190.953L117.261 191.571L116.369 192.175L115.462 192.765L114.538 193.34L113.599 193.9L112.645 194.446L111.677 194.975L110.694 195.489L109.696 195.986L108.685 196.467L107.66 196.931L106.622 197.378L105.571 197.807L104.508 198.219L103.432 198.613L102.345 198.989L101.246 199.347L100.135 199.685L99.0139 200.005L97.8823 200.305L96.7405 200.587L95.589 200.848L94.4281 201.09L93.2583 201.311L92.0799 201.512L90.8933 201.693L89.6989 201.853L88.4971 201.993L87.2883 202.111L86.073 202.208L84.8514 202.284L83.6241 202.339L82.3914 202.372L81.1538 202.383L79.9117 202.372L78.6655 202.34L77.4157 202.285L76.1626 202.208L74.9067 202.109L73.6484 201.988L72.3882 201.844L71.1265 201.678L69.8637 201.49L68.6003 201.278L67.3367 201.045L66.0734 200.788L64.8107 200.509L63.5492 200.208L62.2892 199.884L61.0312 199.537L59.7757 199.167L58.5231 198.775L57.2738 198.361L56.0283 197.923L54.787 197.464L53.5503 196.982L52.3187 196.478L51.0927 195.951L49.8726 195.402L48.6588 194.831L47.4519 194.239L46.2523 193.624L45.0603 192.988L43.8764 192.33L42.701 191.65L41.5345 190.949L40.3774 190.227L39.2301 189.484L38.0929 188.72L36.9663 187.936L35.8507 187.131L34.7465 186.305L33.6541 185.46L32.5738 184.594L31.5061 183.709L30.4514 182.805L29.4099 181.881L28.3822 180.938L27.3685 179.977L26.3693 178.997L25.3848 177.999L24.4155 176.982L23.4617 175.949L22.5238 174.897L21.602 173.829L20.6968 172.744L19.8084 171.642L18.9371 170.524L18.0834 169.39L17.2474 168.241L16.4295 167.076L15.63 165.897L14.8492 164.703L14.0873 163.494L13.3447 162.272L12.6216 161.036L11.9183 159.787L11.235 158.525L10.5719 157.251L9.9294 155.964L9.30763 154.666L8.70684 153.357L8.12726 152.036L7.56907 150.706L7.03249 149.365L6.51772 148.014L6.02494 146.654L5.55434 145.285L5.10608 143.907L4.68032 142.522L4.27724 141.129L3.89696 139.728L3.53963 138.321L3.20538 136.907L2.89433 135.487L2.6066 134.062L2.34228 132.631L2.10149 131.196L1.88429 129.757L1.69079 128.314L1.52103 126.867L1.3751 125.418L1.25303 123.966L1.15487 122.512L1.08067 121.056L1.03045 119.599L1.00422 118.142L1.00199 116.684L1.02377 115.226L1.06956 113.769L1.13931 112.314L1.23303 110.859L1.35067 109.407L1.49219 107.957L1.65753 106.51L1.84665 105.066L2.05946 103.626L2.29589 102.19L2.55585 100.759L2.83925 99.3322L3.14598 97.9114L3.47595 96.4965L3.82901 95.0879L4.20504 93.686L4.60392 92.2914L5.02548 90.9043L5.46958 89.5253L5.93606 88.1547L6.42474 86.793L6.93545 85.4405L7.468 84.0977L8.0222 82.7649L8.59784 81.4426L9.19472 80.1312L9.81261 78.8309L10.4513 77.5424L11.1105 76.2658L11.7901 75.0016L12.4898 73.7501L13.2092 72.5118L13.9482 71.2869L14.7065 70.0759L15.4839 68.8791L16.2799 67.6967L17.0944 66.5293L17.9271 65.377L18.7776 64.2403L19.6456 63.1194L20.5309 62.0146L21.433 60.9264L22.3518 59.8549L23.2867 58.8004L24.2376 57.7633L25.2041 56.7439L26.1857 55.7423L27.1823 54.759L28.1933 53.7941L29.2184 52.8478L30.2574 51.9206L31.3097 51.0125L32.375 50.1238L33.453 49.2547L34.5432 48.4055L35.6452 47.5764L36.7588 46.7675L37.8833 45.9791L39.0186 45.2114L40.1641 44.4645L41.3194 43.7385L42.4841 43.0338L43.6579 42.3503L44.8403 41.6883L46.0308 41.0479L47.2291 40.4292L48.4347 39.8323L49.6472 39.2575L50.8661 38.7046L52.0911 38.1739L53.3217 37.6655L54.5575 37.1794L55.7979 36.7157L57.0427 36.2744L58.2913 35.8556L59.5434 35.4593L60.7984 35.0857L62.0559 34.7346L63.3155 34.4062L64.5768 34.1004L65.8393 33.8172L67.1026 33.5567L68.3662 33.3188L69.6296 33.1034L70.8926 32.9106L72.1545 32.7403L73.415 32.5925L74.6737 32.467L75.9301 32.3639L77.1837 32.283L78.4342 32.2243L79.6811 32.1876L80.924 32.1729L82.1625 32.1801L83.3961 32.209L84.6244 32.2595L85.8471 32.3315L87.0636 32.4248L88.2736 32.5393L89.4768 32.6748L90.6725 32.8311L91.8606 33.0081L93.0406 33.2056L94.212 33.4234L95.3746 33.6613L96.5278 33.9191L97.6714 34.1966L98.805 34.4935L99.9282 34.8097L101.041 35.1448L102.142 35.4987L103.232 35.8711L104.31 36.2618L105.375 36.6704L106.429 37.0967L107.469 37.5405L108.496 38.0014L109.51 38.4792L110.51 38.9736L111.496 39.4842L112.467 40.0107L113.424 40.553L114.365 41.1105L115.292 41.683L116.202 42.2702L117.097 42.8718L117.976 43.4873L118.838 44.1165L119.684 44.759L120.513 45.4144L121.325 46.0824L122.12 46.7626L122.897 47.4546L123.656 48.1581L124.397 48.8728L125.12 49.5981L125.825 50.3338L126.512 51.0794L127.179 51.8346L127.828 52.5989L128.458 53.372L129.068 54.1535L129.66 54.9429L130.232 55.7398L130.784 56.5439L131.316 57.3548L131.829 58.1719L132.322 58.995L132.795 59.8235L133.248 60.6571L133.681 61.4954L134.094 62.3379L134.486 63.1842L134.859 64.0339L135.21 64.8866L135.542 65.7418L135.853 66.5992L136.144 67.4582L136.414 68.3185L136.664 69.1797L136.894 70.0412L137.103 70.9028L137.292 71.764L137.46 72.6243L137.609 73.4834L137.737 74.3407L137.845 75.196L137.933 76.0488L138.001 76.8986L138.049 77.7451L138.078 78.5878L138.087 79.4264L138.076 80.2604L138.046 81.0894L137.996 81.9131L137.928 82.731L137.84 83.5427L137.733 84.3478L137.608 85.1461L137.465 85.937L137.303 86.7201L137.122 87.4952L136.924 88.2619L136.708 89.0196L136.475 89.7683L136.224 90.5073L135.957 91.2364L135.672 91.9553L135.371 92.6635L135.053 93.3608L134.719 94.0469L134.369 94.7212L134.004 95.3837L133.623 96.0339L133.228 96.6714L132.817 97.2961L132.393 97.9077L131.953 98.5057L131.5 99.0899L131.034 99.6601L130.554 100.216L130.062 100.757L129.556 101.284L129.039 101.795L128.509 102.291L127.968 102.771L127.416 103.235L126.853 103.683L126.279 104.115L125.695 104.53L125.102 104.929L124.498 105.311L123.886 105.675L123.265 106.022L122.636 106.352L121.999 106.664L121.355 106.958L120.703 107.234L120.044 107.492L119.379 107.732L118.709 107.954L118.032 108.156L117.351 108.341L116.665 108.506L115.974 108.653L115.28 108.78L114.582 108.889L113.881 108.979L113.177 109.049L112.471 109.1L111.763 109.132L111.054 109.145L110.344 109.138L109.633 109.112L108.922 109.067L108.212 109.002L107.502 108.918L106.793 108.815L106.085 108.692L105.38 108.55L104.677 108.389L103.977 108.208L103.28 108.009L102.586 107.79L101.897 107.552L101.212 107.296L100.532 107.02L99.8574 106.726L99.1883 106.413L98.5253 106.082L97.8688 105.732L97.2191 105.364L96.5768 104.978L95.9421 104.574L95.3155 104.152L94.6974 103.713L94.0881 103.256L93.4881 102.781L92.8977 102.29L92.3172 101.781L91.7471 101.256L91.1877 100.715L90.6394 100.157L90.1026 99.5825L89.5775 98.9926L89.0646 98.3871L88.5642 97.7662L88.0766 97.1302L87.6021 96.4794L87.1411 95.814L86.694 95.1342L86.2609 94.4405L85.8423 93.733L85.4385 93.012L85.0496 92.2779L84.6762 91.5309L84.3183 90.7714L83.9764 89.9997L83.6506 89.216L83.3412 88.4208L83.0486 87.6143L82.7729 86.797L82.5145 85.9691L82.2735 85.1309L82.0501 84.2829L81.8447 83.4255L81.6574 82.5588L81.4885 81.6834L81.3381 80.7996L81.2064 79.9078L81.0937 79.0083L81.0001 78.1016L80.9257 77.188L80.8708 76.2679L80.8356 75.3418L80.8201 74.4099L80.8244 73.4728L80.8489 72.5307L80.8934 71.5842L80.9583 70.6337L81.0435 69.6794L81.1493 68.722L81.2755 67.7617L81.4225 66.7989L81.5902 65.8342L81.7787 64.868L81.9881 63.9005L82.2184 62.9324L82.4696 61.9639L82.7418 60.9956L83.035 60.0278L83.3493 59.0611L83.6846 58.0957L84.0409 57.1321L84.4182 56.1708L84.8165 55.2123L85.2358 54.2568L85.676 53.3049L86.1371 52.3569L86.6191 51.4133L87.1218 50.4746L87.6452 49.5411L88.1892 48.6132L88.7538 47.6915L89.3388 46.7763L89.9441 45.8679L90.5697 44.9669L91.2153 44.0737L91.8809 43.1886L92.5663 42.3121L93.2714 41.4446L93.996 40.5864L94.74 39.738L95.5032 38.8998L96.2853 38.0722L97.0863 37.2555L97.9059 36.4501L98.7439 35.6565L99.6002 34.875L100.474 34.1059L101.366 33.3497L102.276 32.6067L103.203 31.8772L104.147 31.1617L105.107 30.4605L106.084 29.7739L107.078 29.1022L108.087 28.4459L109.112 27.8052L110.153 27.1804L111.208 26.5719L112.279 25.98L113.363 25.405L114.463 24.8472L115.575 24.3069L116.702 23.7844L117.841 23.2799L118.994 22.7938L120.159 22.3263L121.336 21.8776L122.525 21.4481L123.725 21.0379L124.937 20.6474L126.159 20.2768L127.392 19.9262L128.634 19.5959L129.886 19.2861L131.147 18.9971L132.417 18.729L133.696 18.4819L134.982 18.2562L136.276 18.0519L137.577 17.8693L138.885 17.7084L140.199 17.5695L141.519 17.4526L142.845 17.358L144.176 17.2857L145.511 17.2358L146.851 17.2085L148.194 17.2039L149.541 17.2221L150.891 17.263L152.243 17.3269L153.597 17.4138L154.953 17.5237L156.31 17.6567L157.668 17.8128L159.026 17.9921L160.384 18.1946L161.741 18.4202L163.097 18.6691L164.452 18.9412L165.805 19.2365L167.156 19.5549L168.503 19.8965L169.848 20.2611L171.188 20.6489L172.525 21.0596L173.857 21.4933L175.184 21.9498L176.506 22.4292L177.821 22.9312L179.13 23.4558L180.433 24.003L181.728 24.5725L183.016 25.1642L184.296 25.7781L185.567 26.414L186.829 27.0717L188.082 27.7511L189.325 28.452L190.559 29.1742L191.781 29.9176L192.993 30.682L194.193 31.4671L195.382 32.2728L196.558 33.0989L197.722 33.9452L198.873 34.8113L200.011 35.6971L201.135 36.6024L202.245 37.5268L203.34 38.4702L204.421 39.4323L205.487 40.4127L206.537 41.4113L207.571 42.4277L208.59 43.4616L209.592 44.5128L210.576 45.581L211.544 46.6657L212.495 47.7668L213.427 48.8839L214.342 50.0166L215.238 51.1647L216.116 52.3278L216.975 53.5055L217.814 54.6975L218.634 55.9034L219.434 57.1229L220.215 58.3556L220.975 59.6012L221.714 60.8592L222.433 62.1293L223.131 63.411L223.808 64.7041L224.464 66.0081L225.098 67.3226L225.71 68.6472L226.3 69.9815L226.868 71.3252L227.414 72.6776L227.938 74.0386L228.438 75.4076L228.917 76.7842L229.372 78.1681L229.804 79.5587L230.213 80.9556L230.599 82.3585L230.962 83.7669L231.301 85.1803L231.616 86.5983L231.908 88.0204L232.177 89.4463L232.421 90.8755L232.642 92.3076L232.839 93.742L233.012 95.1784L233.161 96.6163L233.287 98.0553L233.388 99.4949L233.466 100.935L233.52 102.374L233.55 103.813L233.556 105.251L233.538 106.687L233.496 108.121L233.431 109.552L233.342 110.981L233.23 112.406L233.094 113.828L232.935 115.245L232.752 116.658L232.546 118.065L232.317 119.467L232.066 120.863L231.791 122.253L231.494 123.636L231.174 125.011L230.831 126.38L230.467 127.739L230.08 129.091L229.672 130.434L229.242 131.767L228.79 133.091L228.317 134.405L227.823 135.708L227.309 137L226.773 138.282L226.217 139.551L225.641 140.809L225.046 142.054L224.43 143.287L223.795 144.507L223.141 145.713L222.468 146.906L221.777 148.084L221.067 149.248L220.34 150.397L219.594 151.532L218.832 152.651L218.052 153.754L217.256 154.841L216.443 155.912L215.614 156.966L214.769 158.004L213.909 159.024L213.034 160.027L212.144 161.012L211.24 161.98L210.322 162.929L209.391 163.859L208.446 164.772L207.488 165.665L206.518 166.539L205.536 167.394L204.542 168.229L203.537 169.044L202.521 169.84L201.495 170.615L200.458 171.371L199.412 172.105L198.356 172.82L197.292 173.513L196.219 174.186L195.138 174.838L194.05 175.468L192.954 176.077L191.852 176.665L190.743 177.232L189.629 177.777L188.509 178.3L187.384 178.802L186.254 179.282L185.12 179.74L183.983 180.176L182.842 180.59L181.698 180.983L180.552 181.353L179.404 181.702L178.255 182.028L177.104 182.333L175.952 182.615L174.801 182.876L173.649 183.115L172.499 183.332L171.349 183.527L170.201 183.701L169.055 183.852L167.911 183.982L166.77 184.091L165.632 184.178L164.497 184.244L163.367 184.289L162.241 184.312L161.121 184.315L160.005 184.296L158.895 184.257L157.791 184.198L156.694 184.118L155.604 184.018L154.521 183.897L153.446 183.757L152.378 183.597L151.32 183.418L150.27 183.219L149.229 183.001L148.198 182.764L147.177 182.509L146.167 182.235L145.167 181.943L144.178 181.633L143.2 181.305L142.234 180.96L141.281 180.598L140.339 180.219L139.411 179.823L138.495 179.411L137.593 178.983L136.705 178.539L135.83 178.08L134.97 177.605L134.124 177.116L133.294 176.612L132.478 176.094L131.678 175.563L130.893 175.018L130.124 174.459L129.371 173.888L128.635 173.305L127.916 172.709L127.213 172.102L126.527 171.483L125.859 170.853L125.208 170.213L124.574 169.562L123.959 168.902L123.361 168.232L122.782 167.553L122.221 166.865L121.679 166.169L121.155 165.465L120.65 164.753L120.164 164.035L119.698 163.31L119.25 162.578L118.821 161.841L118.412 161.098L118.023 160.35L117.653 159.597L117.302 158.84L116.972 158.079L116.661 157.315L116.37 156.548L116.098 155.779L115.847 155.007L115.615 154.233L115.403 153.459L115.211 152.683L115.039 151.907L114.887 151.131L114.755 150.355L114.642 149.58L114.55 148.807L114.477 148.034L114.423 147.264L114.39 146.497L114.375 145.732L114.381 144.971L114.405 144.213L114.449 143.46L114.512 142.711L114.594 141.967L114.695 141.228L114.814 140.495L114.953 139.768L115.11 139.048L115.285 138.334L115.478 137.628L115.689 136.929L115.918 136.239L116.165 135.557L116.429 134.884L116.71 134.219L117.009 133.565L117.324 132.92L117.655 132.286L118.003 131.662L118.368 131.049L118.747 130.447L119.143 129.857L119.554 129.279L119.98 128.713L120.421 128.16L120.876 127.619L121.345 127.092L121.829 126.578L122.326 126.078L122.836 125.592L123.36 125.121L123.896 124.664L124.444 124.222L125.005 123.795L125.577 123.384L126.161 122.988L126.755 122.608L127.361 122.245L127.977 121.897L128.602 121.567L129.238 121.253L129.882 120.956L130.536 120.676L131.198 120.414L131.868 120.169L132.546 119.942L133.231 119.733L133.923 119.543L134.622 119.37L135.327 119.216L136.038 119.08L136.754 118.963L137.475 118.865L138.201 118.785L138.931 118.725L139.664 118.684L140.401 118.662L141.141 118.659L141.884 118.675L142.628 118.711L143.374 118.766L144.122 118.841L144.87 118.935L145.619 119.049L146.368 119.182L147.116 119.335L147.863 119.508L148.61 119.7L149.354 119.912L150.097 120.143L150.836 120.394L151.573 120.664L152.307 120.953L153.037 121.262L153.762 121.591L154.483 121.938L155.199 122.304L155.909 122.69L156.614 123.095L157.312 123.518L158.004 123.96L158.688 124.421L159.365 124.9L160.035 125.397L160.695 125.913L161.348 126.446L161.991 126.998L162.624 127.567L163.248 128.153L163.862 128.757L164.465 129.378L165.057 130.016L165.637 130.67L166.206 131.341L166.763 132.029L167.308 132.732L167.839 133.451L168.358 134.185L168.863 134.935L169.355 135.7L169.832 136.479L170.295 137.273L170.743 138.081L171.176 138.903L171.593 139.739L171.995 140.588L172.381 141.45L172.751 142.324L173.104 143.211L173.44 144.11L173.76 145.02L174.061 145.942L174.346 146.875L174.612 147.819L174.86 148.773L175.09 149.737L175.302 150.71L175.494 151.693L175.668 152.685L175.822 153.685L175.957 154.693L176.072 155.709L176.168 156.732L176.244 157.762L176.299 158.799L176.334 159.842L176.349 160.89L176.343 161.944L176.317 163.003L176.269 164.067L176.201 165.134L176.112 166.206L176.001 167.28L175.869 168.358L175.716 169.438L175.541 170.52L175.345 171.603L175.128 172.688L174.888 173.773L174.627 174.859L174.345 175.945L174.04 177.03L173.714 178.114L173.366 179.197L172.997 180.277L172.606 181.356L172.193 182.432L171.758 183.505L171.302 184.574L170.824 185.639L170.324 186.7L169.803 187.756L169.261 188.806L168.697 189.851L168.112 190.89L167.506 191.922L166.879 192.948L166.231 193.965L165.562 194.975L164.873 195.977L164.162 196.97L163.432 197.954L162.681 198.929L161.91 199.894L161.119 200.848L160.309 201.792L159.479 202.725L158.629 203.646L157.761 204.556L156.873 205.453L155.967 206.338L155.042 207.21L154.099 208.068L153.138 208.913L152.159 209.743L151.163 210.559L150.149 211.361L149.119 212.147L148.072 212.918L147.008 213.673L145.928 214.411L144.832 215.134L143.721 215.839L142.595 216.528L141.453 217.199L140.297 217.853L139.127 218.488L137.943 219.105L136.745 219.704L135.534 220.283L134.31 220.844L133.074 221.385L131.825 221.907L130.565 222.409L129.293 222.891L128.01 223.352L126.717 223.793L125.413 224.213L124.099 224.612L122.776 224.989L121.443 225.346L120.102 225.681L118.753 225.994L117.395 226.285L116.031 226.554L114.659 226.801L113.28 227.025L111.896 227.227L110.505 227.406L109.109 227.563L107.708 227.696L106.303 227.807L104.893 227.894L103.48 227.958L102.064 227.999L100.645 228.016L99.2238 228.011L97.8006 227.981L96.376 227.928L94.9504 227.852L93.5242 227.752L92.098 227.628L90.6721 227.481L89.247 227.31L87.8231 227.116L86.401 226.898L84.9809 226.656L83.5635 226.391L82.1491 226.102L80.7381 225.79L79.3311 225.454L77.9284 225.096L76.5306 224.713L75.138 224.308L73.751 223.88L72.3702 223.428L70.9959 222.954L69.6286 222.457L68.2687 221.938L66.9166 221.396L65.5728 220.831L64.2377 220.245L62.9117 219.636L61.5951 219.006L60.2885 218.353L58.9923 217.68L57.7068 216.985L56.4324 216.269L55.1695 215.532L53.9186 214.774L52.68 213.996L51.4541 213.197L50.2413 212.379L49.0419 211.541L47.8563 210.683L46.685 209.806L45.5282 208.91L44.3862 207.995L43.2596 207.062L42.1485 206.111L41.0534 205.142L39.9745 204.155L38.9122 203.152L37.8668 202.131L36.8386 201.093L35.828 200.04L34.8352 198.97L33.8605 197.885L32.9042 196.784L31.9666 195.669L31.048 194.539L30.1486 193.394L29.2687 192.236L28.4085 191.064L27.5683 189.88L26.7484 188.682L25.9489 187.472L25.17 186.25L24.4121 185.017L23.6753 183.772L22.9597 182.517L22.2656 181.251L21.5933 179.975L20.9427 178.69L20.3142 177.396L19.7078 176.092L19.1238 174.781L18.5622 173.461L18.0232 172.134L17.5069 170.8L17.0135 169.46L16.543 168.113L16.0956 166.76L15.6713 165.402L15.2702 164.04L14.8925 162.672L14.5381 161.301L14.2071 159.926L13.8996 158.548L13.6155 157.167L13.355 155.785L13.1181 154.4L12.9048 153.014L12.715 151.627L12.5488 150.239L12.4061 148.852L12.287 147.465L12.1914 146.078L12.1192 144.693L12.0705 143.31L12.0451 141.929L12.0431 140.55L12.0642 139.175L12.1085 137.803L12.1758 136.435L12.2661 135.071L12.3792 133.712L12.515 132.358L12.6735 131.01L12.8544 129.668L13.0576 128.332L13.283 127.004L13.5304 125.682L13.7997 124.368L14.0906 123.062L14.403 121.765L14.7367 120.477L15.0916 119.198L15.4673 117.928L15.8637 116.669L16.2806 115.42L16.7178 114.182L17.1749 112.955L17.6518 111.739L18.1482 110.536L18.6638 109.345L19.1985 108.166L19.7519 107.001L20.3237 105.848L20.9137 104.71L21.5215 103.585L22.1469 102.475L22.7896 101.379L23.4492 100.298L24.1255 99.2322L24.8181 98.1821L25.5268 97.1478L26.251 96.1296L26.9906 95.1278L27.7452 94.1426L28.5144 93.1743L29.2979 92.2233L30.0954 91.2896L30.9064 90.3736L31.7305 89.4755L32.5675 88.5956L33.417 87.734L34.2785 86.8909L35.1517 86.0666L36.0361 85.2613L36.9315 84.4752L37.8374 83.7084L38.7533 82.9611L39.679 82.2335L40.6139 81.5257L41.5578 80.838L42.5101 80.1703L43.4705 79.5229L44.4385 78.8959L45.4137 78.2895L46.3957 77.7036L47.3842 77.1384L48.3785 76.5941L49.3784 76.0706L50.3834 75.5681L51.3931 75.0866L52.407 74.6263L53.4247 74.187L54.4458 73.769L55.4699 73.3721L56.4964 72.9965L57.5251 72.6421L58.5554 72.309L59.5869 71.9971L60.6192 71.7064L61.6519 71.437L62.6845 71.1888L63.7166 70.9617L64.7478 70.7557L65.7776 70.5708L66.8056 70.4068L67.8314 70.2638L68.8546 70.1416L69.8747 70.0402L70.8913 69.9594L71.9041 69.8991L72.9125 69.8593L73.9163 69.8398L74.9149 69.8405L75.9079 69.8612L76.8951 69.9019L77.8759 69.9623L78.8499 70.0422L79.8169 70.1416L80.7763 70.2602L81.7278 70.3979L82.671 70.5544L83.6056 70.7296L84.5312 70.9232L85.4473 71.1351L86.3537 71.365L87.2499 71.6127L88.1357 71.8779L89.0106 72.1605L89.8744 72.46L90.7267 72.7764L91.567 73.1094L92.3953 73.4585L93.211 73.8237L94.0139 74.2046L94.8037 74.6009L95.5801 75.0123L96.3427 75.4385L97.0913 75.8792L97.8256 76.3341L98.5453 76.8029L99.2502 77.2853L99.94 77.7809L100.614 78.2893L101.273 78.8103L101.916 79.3436L102.543 79.8886L103.153 80.4452L103.747 81.0129L104.324 81.5914L104.884 82.1803L105.427 82.7792L105.952 83.3879L106.46 84.0057L106.95 84.6326L107.423 85.2679L107.877 85.9113L108.313 86.5625L108.73 87.2211L109.129 87.8865L109.51 88.5586L109.871 89.2367L110.214 89.9206L110.538 90.6099L110.843 91.304L111.128 92.0027L111.395 92.7055L111.642 93.4119L111.869 94.1217L112.077 94.8342L112.266 95.5493L112.435 96.2663L112.585 96.9849L112.715 97.7048L112.826 98.4254L112.917 99.1463L112.989 99.8671L113.041 100.587L113.073 101.307L113.086 102.025L113.08 102.741L113.054 103.456L113.009 104.167L112.945 104.876L112.861 105.581L112.758 106.283L112.637 106.98L112.496 107.672L112.337 108.36L112.159 109.042L111.962 109.719L111.747 110.389L111.514 111.052L111.263 111.709L110.993 112.358L110.706 112.999L110.401 113.632L110.079 114.257L109.74 114.872L109.383 115.479L109.01 116.075L108.62 116.662L108.213 117.238L107.791 117.804L107.352 118.359L106.898 118.902L106.428 119.433L105.943 119.953L105.443 120.459L104.928 120.954L104.399 121.435L103.856 121.903L103.299 122.357L102.728 122.797L102.145 123.223L101.548 123.634L100.939 124.031L100.317 124.412L99.6834 124.778L99.0381 125.129L98.3815 125.463L97.7139 125.782L97.0357 126.084L96.3472 126.369L95.6488 126.638L94.9408 126.889L94.2236 127.124L93.4976 127.341L92.7631 127.54L92.0205 127.721L91.2702 127.884L90.5126 128.029L89.7481 128.156L88.977 128.264L88.1997 128.354L87.4167 128.424L86.6284 128.476L85.8351 128.509L85.0373 128.522L84.2353 128.516L83.4296 128.491L82.6206 128.446L81.8087 128.381L80.9943 128.297L80.1779 128.193L79.3598 128.069L78.5405 127.926L77.7204 127.762L76.8999 127.578L76.0795 127.375L75.2595 127.152L74.4405 126.908L73.6227 126.645L72.8067 126.361L71.9929 126.058L71.1816 125.734L70.3734 125.391L69.5686 125.028L68.7677 124.645L67.9711 124.242L67.1791 123.82L66.3924 123.378L65.6111 122.916L64.8358 122.435L64.0669 121.935L63.3047 121.415L62.5498 120.877L61.8024 120.319L61.0631 119.743L60.3322 119.147L59.61 118.534L58.8971 117.902L58.1938 117.251L57.5005 116.583L56.8175 115.896L56.1453 115.192L55.4843 114.471L54.8348 113.732L54.1971 112.976L53.5717 112.204L52.9589 111.415L52.3591 110.609L51.7726 109.787L51.1998 108.95L50.641 108.096L50.0965 107.228L49.5668 106.344L49.052 105.445L48.5526 104.532L48.0688 103.605L47.601 102.664L47.1495 101.709L46.7145 100.741L46.2964 99.7598L45.8955 98.7659L45.5119 97.7597L45.1461 96.7414L44.7982 95.7115L44.4686 94.6702L44.1574 93.6179L43.8649 92.555L43.5914 91.4818L43.3371 90.3987L43.1023 89.306L42.887 88.2042L42.6916 87.0936L42.5162 85.9745L42.361 84.8474L42.2263 83.7127L42.1122 82.5708L42.0188 81.422L41.9464 80.2667L41.8951 79.1054L41.865 77.9385L41.8563 76.7664L41.8691 75.5894L41.9035 74.4081L41.9597 73.2227L42.0376 72.0339L42.1376 70.8419L42.2595 69.6471L42.4036 68.4502L42.5699 67.2513L42.7584 66.0511L42.9692 64.8498L43.2023 63.648L43.4578 62.4461L43.7358 61.2445L44.0361 60.0436L44.3589 58.844L44.7041 57.6459L45.0718 56.4499L45.4619 55.2564L45.8743 54.0658L46.3092 52.8786L46.7663 51.6952L47.2458 50.516L47.7474 49.3415L48.2712 48.1721L48.817 47.0082L49.3849 45.8503L49.9746 44.6988L50.5861 43.554L51.2193 42.4165L51.874 41.2867L52.5502 40.165L53.2476 39.0517L53.9663 37.9474L54.7059 36.8524L55.4663 35.7671L56.2474 34.6919L57.0491 33.6273L57.871 32.5737L58.713 31.5314L59.5749 30.5008L60.4566 29.4823L61.3578 28.4763L62.2782 27.4833L63.2176 26.5034L64.1758 25.5372L65.1526 24.585L66.1477 23.6472L67.1608 22.7241L68.1917 21.816L69.2401 20.9234L70.3057 20.0465L71.3882 19.1857L72.4873 18.3413L73.6028 17.5137L74.7343 16.7031L75.8814 15.91L77.044 15.1345L78.2216 14.3769L79.4139 13.6377L80.6206 12.917L81.8414 12.2152L83.0758 11.5325L84.3236 10.8692L85.5843 10.2255L86.8577 9.60174L88.1432 8.99811L89.4407 8.41487L90.7496 7.85225L92.0696 7.31047L93.4003 6.78974L94.7413 6.29029L96.0922 5.8123L97.4526 5.35598L98.8222 4.9215L100.2 4.50904L101.587 4.11879L102.981 3.75089L104.383 3.4055L105.792 3.08277L107.207 2.78283L108.629 2.50582L110.056 2.25185L111.489 2.02103L112.926 1.81348L114.368 1.62927L115.814 1.46851L117.264 1.33127L118.716 1.21762L120.172 1.12762L121.629 1.06132L123.088 1.01877L124.549 1L126.011 1.00504L127.472 1.0339L128.934 1.0866L130.396 1.16313L131.856 1.26349L133.316 1.38766L134.773 1.53561L136.228 1.70731L137.681 1.90271L139.13 2.12177L140.576 2.36443L142.017 2.6306L143.454 2.92022L144.887 3.2332L146.314 3.56943L147.735 3.92884L149.15 4.31129L150.558 4.71667L151.959 5.14485L153.353 5.59569L154.739 6.06905L156.116 6.56477L157.485 7.0827L158.845 7.62265L160.194 8.18447L161.534 8.76794L162.864 9.3729L164.183 9.99914L165.49 10.6464L166.786 11.3146L168.07 12.0033L169.342 12.7125L170.601 13.4418L171.846 14.191L173.079 14.9599L174.297 15.7482L175.501 16.5555L176.691 17.3818L177.866 18.2266L179.025 19.0897L180.169 19.9707L181.298 20.8695L182.409 21.7856L183.505 22.7188L184.583 23.6688L185.645 24.6351L186.689 25.6176L187.715 26.6158L188.723 27.6294L189.713 28.6581L190.684 29.7014L191.636 30.7592L192.57 31.8309L193.483 32.9162L194.378 34.0148L195.252 35.1262L196.107 36.2502L196.941 37.3862L197.755 38.5339L198.548 39.693L199.32 40.863L200.071 42.0434L200.801 43.234L201.51 44.4343L202.197 45.6439L202.862 46.8624L203.505 48.0893L204.126 49.3243L204.725 50.5669L205.302 51.8166L205.857 53.0732L206.389 54.336L206.898 55.6048L207.385 56.8791L207.849 58.1583L208.29 59.4422L208.708 60.7303L209.103 62.022L209.476 63.3171L209.825 64.615L210.151 65.9153L210.454 67.2176L210.735 68.5215L210.992 69.8264L211.226 71.1319L211.437 72.4377L211.624 73.7433L211.789 75.0482L211.931 76.3519L212.05 77.6542L212.147 78.9545L212.22 80.2523L212.271 81.5474L212.299 82.8391L212.305 84.1272L212.288 85.4112L212.249 86.6906L212.188 87.965L212.105 89.2341L212 90.4973L211.873 91.7544L211.724 93.0048L211.554 94.2482L211.363 95.4842L211.151 96.7123L210.918 97.9322L210.664 99.1435L210.389 100.346L210.094 101.539L209.779 102.722L209.444 103.895L209.09 105.057L208.716 106.209L208.323 107.349L207.911 108.478L207.48 109.595L207.031 110.699L206.564 111.791L206.079 112.87L205.576 113.936L205.057 114.988L204.52 116.026L203.966 117.05L203.396 118.059L202.811 119.053L202.209 120.033L201.592 120.997L200.96 121.945L200.313 122.877L199.652 123.793L198.977 124.693L198.288 125.575L197.586 126.441L196.871 127.29L196.143 128.121L195.403 128.935L194.651 129.73L193.888 130.508L193.114 131.267L192.329 132.008L191.534 132.73L190.728 133.433L189.914 134.117L189.09 134.783L188.257 135.428L187.417 136.055L186.568 136.662L185.712 137.249L184.849 137.816L183.979 138.363L183.103 138.891L182.221 139.398L181.334 139.885L180.442 140.352L179.545 140.798L178.644 141.224L177.74 141.629L176.832 142.014L175.921 142.379L175.008 142.723L174.094 143.046L173.177 143.349L172.259 143.631L171.341 143.893L170.423 144.134L169.504 144.355L168.587 144.555L167.67 144.734L166.755 144.894L165.841 145.033L164.93 145.151L164.022 145.25L163.116 145.328L162.215 145.387L161.317 145.425L160.423 145.444L159.535 145.444L158.651 145.423L157.773 145.383L156.901 145.325L156.036 145.246L155.177 145.15L154.326 145.034L153.482 144.899L152.645 144.747L151.818 144.576L150.998 144.387L150.188 144.18L149.388 143.956L148.597 143.714L147.816 143.455L147.046 143.18L146.286 142.887L145.538 142.579L144.801 142.254L144.076 141.913L143.364 141.556L142.663 141.185L141.976 140.798L141.302 140.396L140.641 139.98L139.993 139.55L139.36 139.105L138.741 138.648L138.137 138.177L137.547 137.693L136.973 137.196L136.414 136.688L135.87 136.167L135.342 135.635L134.831 135.091L134.335 134.537L133.857 133.972L133.394 133.397L132.949 132.812L132.521 132.218L132.11 131.615L131.717 131.003L131.342 130.382L130.984 129.754L130.644 129.119L130.323 128.476L130.02 127.826L129.735 127.17L129.469 126.509L129.221 125.841L128.992 125.169L128.782 124.492L128.591 123.81L128.42 123.125L128.267 122.436L128.133 121.744L128.019 121.049L127.924 120.352L127.849 119.654L127.793 118.954L127.756 118.253L127.739 117.551L127.741 116.849L127.762 116.147L127.803 115.446L127.864 114.747L127.944 114.048L128.043 113.352L128.161 112.658L128.299 111.966L128.456 111.278L128.632 110.594L128.827 109.913L129.041 109.237L129.274 108.566L129.526 107.9L129.796 107.239L130.085 106.585L130.393 105.936L130.718 105.295L131.062 104.661L131.424 104.035L131.803 103.416L132.2 102.806L132.615 102.205L133.047 101.613L133.496 101.03L133.961 100.457L134.444 99.8947L134.943 99.3427L135.458 98.8017L135.989 98.272L136.536 97.7539L137.099 97.2479L137.677 96.7542L138.27 96.2731L138.877 95.805L139.5 95.3503L140.136 94.9091L140.786 94.482L141.45 94.069L142.128 93.6707L142.818 93.2871L143.521 92.9187L144.236 92.5657L144.964 92.2284L145.703 91.907L146.454 91.6018L147.216 91.3131L147.989 91.0412L148.772 90.7861L149.565 90.5483L150.367 90.3279L151.18 90.1251L152.001 89.9402L152.83 89.7733L153.668 89.6247L154.514 89.4945L155.367 89.3829L156.228 89.2901L157.095 89.2163L157.968 89.1616L158.847 89.1262L159.732 89.1102L160.621 89.1137L161.516 89.1369L162.415 89.18L163.317 89.2429L164.223 89.3258L165.132 89.4289L166.044 89.5521L166.958 89.6956L167.873 89.8594L168.79 90.0436L169.708 90.2483L170.627 90.4734L171.545 90.7191L172.463 90.9853L173.381 91.2721L174.297 91.5794L175.211 91.9073L176.124 92.2558L177.034 92.6249L177.941 93.0144L178.844 93.4245L179.744 93.855L180.64 94.3059L181.531 94.7771L182.417 95.2686L183.298 95.7803L184.173 96.312L185.041 96.8638L185.903 97.4356L186.757 98.027L187.604 98.6382L188.443 99.2689L189.274 99.9191L190.095 100.588L190.908 101.277L191.711 101.984L192.504 102.711L193.287 103.456L194.059 104.219L194.819 105.001L195.568 105.8L196.306 106.618L197.031 107.453L197.743 108.305L198.442 109.175L199.128 110.061L199.8 110.964L200.458 111.884L201.102 112.82L201.73 113.772L202.344 114.739L202.942 115.722L203.524 116.719L204.091 117.732L204.64 118.759L205.174 119.8L205.69 120.855L206.188 121.924L206.669 123.006L207.133 124.1L207.578 125.208L208.004 126.327L208.412 127.459L208.801 128.601L209.17 129.755L209.52 130.92L209.851 132.096L210.161 133.281L210.452 134.476L210.722 135.68L210.971 136.893L211.2 138.115L211.407 139.345L211.594 140.583L211.759 141.828L211.903 143.08L212.025 144.338L212.125 145.603L212.204 146.873L212.26 148.149L212.294 149.429L212.306 150.714L212.295 152.003L212.262 153.295L212.206 154.591L212.127 155.89L212.026 157.19L211.902 158.493L211.755 159.797L211.585 161.102L211.392 162.408L211.176 163.714L210.937 165.019L210.674 166.324L210.389 167.627L210.081 168.929L209.749 170.229L209.395 171.526L209.018 172.821L208.617 174.112L208.194 175.399L207.748 176.682L207.279 177.96L206.787 179.233L206.272 180.5L205.735 181.762L205.176 183.017L204.594 184.265L203.99 185.506L203.364 186.739L202.716 187.964L202.046 189.181L201.354 190.389L200.641 191.587L199.906 192.775L199.151 193.953L198.374 195.121L197.576 196.277L196.758 197.423L195.919 198.556L195.06 199.677L194.181 200.786L193.282 201.881L192.364 202.964L191.426 204.032L190.47 205.087L189.494 206.127L188.501 207.153L187.488 208.163L186.458 209.157L185.41 210.136L184.345 211.099L183.263 212.045L182.164 212.975L181.048 213.887L179.917 214.782L178.769 215.659L177.606 216.518L176.428 217.359L175.235 218.181L174.028 218.984L172.806 219.768L171.571 220.533L170.322 221.277L169.06 222.002L167.786 222.707L166.499 223.391L165.201 224.055L163.891 224.697L162.57 225.319L161.238 225.919L159.896 226.498L158.544 227.055L157.182 227.59L155.811 228.103L154.432 228.594L153.044 229.062L151.649 229.508L150.246 229.931L148.836 230.331L147.42 230.709L145.997 231.063L144.569 231.394L143.136 231.702L141.697 231.986L140.255 232.247L138.808 232.484L137.358 232.698L135.905 232.888L134.45 233.055L132.992 233.198L131.532 233.316L130.071 233.411L128.61 233.483L127.148 233.53L125.686 233.554L124.225 233.553L122.764 233.529L121.305 233.482L119.848 233.41L118.394 233.315L116.942 233.196L115.493 233.053L114.048 232.887L112.607 232.698L111.17 232.485L109.739 232.249L108.313 231.99L106.893 231.708L105.479 231.403L104.071 231.075L102.671 230.725L101.278 230.352L99.8936 229.957L98.5173 229.539L97.1498 229.1L95.7914 228.639L94.4427 228.156L93.1039 227.652L91.7755 227.127L90.458 226.58L89.1516 226.013L87.8568 225.425L86.5739 224.817L85.3033 224.189L84.0454 223.541L82.8006 222.873L81.5691 222.186L80.3515 221.48L79.1479 220.755L77.9588 220.012L76.7846 219.25L75.6254 218.471L74.4817 217.674L73.3537 216.86L72.2419 216.028L71.1464 215.18L70.0676 214.316L69.0058 213.435L67.9613 212.539L66.9343 211.628L65.9252 210.701L64.9342 209.76L63.9615 208.805L63.0074 207.836L62.0721 206.853L61.156 205.857L60.2592 204.848L59.3819 203.827L58.5243 202.794L57.6867 201.749L56.8693 200.693L56.0722 199.626L55.2957 198.548L54.5398 197.461L53.8049 196.364L53.0909 195.257L52.3982 194.142L51.7268 193.019L51.0768 191.887L50.4484 190.748L49.8418 189.602L49.2569 188.449L48.6939 187.289L48.153 186.124L47.6341 184.954L47.1374 183.778L46.6629 182.598L46.2107 181.414L45.7808 180.226L45.3733 179.034L44.9882 177.84L44.6255 176.644L44.2853 175.445L43.9675 174.245L43.6721 173.044L43.3992 171.843L43.1486 170.641L42.9204 169.439L42.7146 168.238L42.531 167.038L42.3697 165.839L42.2306 164.643L42.1135 163.449L42.0184 162.257L41.9453 161.069L41.894 159.885L41.8644 158.704L41.8564 157.529L41.8699 156.357L41.9047 155.192L41.9607 154.032L42.0378 152.878L42.1357 151.731L42.2545 150.59L42.3937 149.457L42.5534 148.332L42.7332 147.215L42.9331 146.106L43.1527 145.006L43.3919 143.916L43.6505 142.835L43.9283 141.764L44.2249 140.703L44.5402 139.653L44.8739 138.614L45.2258 137.587L45.5956 136.571L45.983 135.568L46.3878 134.577L46.8097 133.599L47.2483 132.633L47.7035 131.681L48.1749 130.743L48.6621 129.819L49.165 128.909L49.6831 128.014L50.2161 127.134L50.7638 126.268L51.3258 125.419L51.9016 124.585L52.4911 123.766L53.0939 122.964L53.7095 122.179L54.3376 121.41L54.978 120.658L55.6301 119.923L56.2936 119.205L56.9683 118.505L57.6535 117.823L58.3491 117.158L59.0546 116.512L59.7696 115.884L60.4937 115.274L61.2265 114.683L61.9677 114.111L62.7168 113.557L63.4733 113.023L64.237 112.508L65.0074 112.012L65.7841 111.535L66.5666 111.078L67.3546 110.64L68.1476 110.222L68.9452 109.824L69.747 109.445L70.5526 109.086L71.3615 108.748L72.1734 108.429L72.9877 108.13L73.8041 107.851L74.6222 107.592L75.4415 107.353L76.2616 107.134L77.0821 106.935L77.9026 106.756L78.7225 106.596L79.5416 106.457L80.3593 106.338L81.1754 106.238L81.9892 106.158L82.8005 106.098L83.6088 106.058L84.4137 106.037L85.2148 106.035L86.0117 106.053L86.8039 106.089L87.5911 106.145L88.3728 106.22L89.1487 106.314L89.9184 106.426L90.6814 106.557L91.4375 106.706L92.1861 106.873L92.9269 107.058L93.6595 107.262L94.3836 107.482L95.0988 107.721L95.8047 107.976L96.5009 108.248L97.1872 108.537L97.8631 108.843L98.5282 109.165L99.1823 109.503L99.8251 109.857L100.456 110.227L101.075 110.612L101.682 111.011L102.275 111.426L102.856 111.855L103.424 112.298L103.978 112.756L104.518 113.226L105.044 113.711L105.555 114.208L106.052 114.717L106.533 115.239L107 115.773L107.451 116.319L107.886 116.876L108.305 117.444L108.708 118.023L109.094 118.612L109.464 119.211L109.816 119.819L110.152 120.437L110.47 121.063L110.771 121.698L111.055 122.341L111.32 122.992L111.567 123.65L111.797 124.315L112.007 124.987L112.2 125.664L112.374 126.348L112.529 127.036L112.665 127.73L112.783 128.428L112.881 129.131L112.961 129.837L113.021 130.546L113.061 131.258L113.083 131.973L113.085 132.69L113.068 133.408L113.031 134.128L112.975 134.848L112.899 135.569L112.803 136.29L112.688 137.011L112.554 137.73L112.4 138.449L112.226 139.165L112.033 139.88L111.82 140.592L111.588 141.301L111.337 142.006L111.066 142.708L110.777 143.406L110.468 144.099L110.14 144.787L109.793 145.47L109.427 146.147L109.042 146.817L108.639 147.481L108.217 148.138L107.777 148.788L107.319 149.429L106.843 150.063L106.349 150.688L105.837 151.304L105.308 151.91L104.761 152.507L104.197 153.094L103.616 153.67L103.019 154.235L102.405 154.789L101.775 155.331L101.128 155.862L100.466 156.38L99.7881 156.886L99.095 157.379L98.3868 157.858L97.6638 158.324L96.9263 158.775L96.1746 159.213L95.4089 159.636L94.6295 160.044L93.8368 160.437L93.031 160.814L92.2125 161.176L91.3815 161.522L90.5384 161.851L89.6836 162.163L88.8173 162.459L87.9399 162.738L87.0518 162.999L86.1533 163.243L85.2447 163.469L84.3265 163.677L83.3989 163.866L82.4623 164.038L81.5172 164.19L80.5639 164.323L79.6028 164.438L78.6342 164.533L77.6587 164.608L76.6764 164.664L75.6879 164.701L74.6936 164.717L73.6938 164.713L72.689 164.689L71.6796 164.645L70.6659 164.58L69.6485 164.495L68.6276 164.389L67.6038 164.262L66.5775 164.114L65.5491 163.946L64.5189 163.756L63.4875 163.545L62.4553 163.314L61.4226 163.061L60.39 162.786L59.3578 162.491L58.3265 162.174L57.2965 161.837L56.2683 161.478L55.2423 161.097L54.2188 160.696L53.1984 160.273L52.1815 159.829L51.1685 159.364L50.1598 158.878L49.1559 158.371L48.1572 157.842L47.1642 157.293L46.1771 156.724L45.1966 156.133L44.2229 155.522L43.2566 154.891L42.2979 154.239L41.3475 153.567L40.4056 152.874L39.4726 152.162L38.5491 151.43L37.6353 150.679L36.7318 149.907L35.8388 149.117L34.9568 148.308L34.0862 147.479L33.2273 146.632L32.3806 145.766L31.5464 144.882L30.7251 143.98L29.9171 143.06L29.1228 142.123L28.3424 141.168L27.5764 140.196L26.8251 139.207L26.0889 138.201L25.3681 137.18L24.663 136.142L23.974 135.088L23.3013 134.019L22.6454 132.935L22.0065 131.836L21.385 130.722L20.7811 129.594L20.1951 128.453L19.6274 127.297L19.0782 126.129L18.5477 124.947L18.0363 123.753L17.5442 122.547L17.0717 121.329L16.619 120.1L16.1863 118.859L15.774 117.608L15.3821 116.346L15.011 115.075L14.6608 113.793L14.3318 112.503L14.0241 111.204L13.738 109.896L13.4736 108.581L13.231 107.257L13.0105 105.927L12.8123 104.59L12.6363 103.246L12.4829 101.897L12.3521 100.542L12.2441 99.1819L12.1589 97.8172L12.0967 96.4482L12.0575 95.0754L12.0415 93.6993L12.0488 92.3202L12.0793 90.9386L12.1332 89.5549L12.2106 88.1696L12.3114 86.7831L12.4358 85.3958L12.5836 84.0083L12.7551 82.6208L12.9501 81.234L13.1687 79.8481L13.4108 78.4638L13.6766 77.0813L13.9658 75.7012L14.2785 74.3239L14.6147 72.9498L14.9743 71.5793L15.3573 70.213L15.7635 68.8513L16.193 67.4945L16.6455 66.1431L17.1211 64.7977L17.6196 63.4585L18.1409 62.126L18.6849 60.8006L19.2515 59.4829L19.8405 58.1731L20.4518 56.8718L21.0853 55.5793L21.7407 54.296L22.4179 53.0224L23.1168 51.7589L23.837 50.5059L24.5786 49.2637L25.3412 48.0328L26.1246 46.8136L26.9287 45.6064L27.7532 44.4117L28.5978 43.2298L29.4624 42.0612L30.3466 40.9061L31.2503 39.7649L32.1732 38.638L33.115 37.5258L34.0753 36.4286L35.0541 35.3468L36.0509 34.2806L37.0654 33.2305L38.0974 32.1967L39.1466 31.1797L40.2126 30.1796L41.2951 29.1969L42.3938 28.2317L43.5084 27.2845L44.6385 26.3555L45.7837 25.445L46.9438 24.5532L48.1184 23.6805L49.307 22.8271L50.5094 21.9933L51.7252 21.1793L52.9539 20.3853L54.1953 19.6117L55.4489 18.8585L56.7144 18.1261L57.9912 17.4147L59.2792 16.7244L60.5778 16.0554L61.8866 15.4081L63.2053 14.7824L64.5334 14.1787L65.8705 13.597L67.2161 13.0376L68.57 12.5005L69.9316 11.9859L71.3004 11.494L72.6762 11.0249L74.0585 10.5787L75.4467 10.1554L76.8405 9.75527L78.2395 9.37832L79.6432 9.02464L81.0511 8.69429L82.4628 8.38736L83.878 8.10389L85.296 7.84393L86.7166 7.60751L88.1391 7.39469L89.5633 7.20546L90.9886 7.03985L92.4147 6.89785L93.8409 6.77947L95.267 6.6847L96.6924 6.61349L98.1168 6.56583L99.5396 6.54169L100.96 6.541L102.379 6.56372L103.794 6.60976L105.207 6.67908L106.615 6.77158L108.02 6.88717L109.419 7.02575L110.814 7.1872L112.203 7.37143L113.587 7.57829L114.964 7.80767L116.334 8.05941L117.697 8.33338L119.053 8.62939L120.401 8.94731L121.74 9.28695L123.07 9.64813L124.391 10.0307L125.703 10.4343L127.005 10.859L128.296 11.3043L129.576 11.7702L130.846 12.2564L132.104 12.7626L133.35 13.2887L134.583 13.8343L135.804 14.3992L137.012 14.9831L138.207 15.5859L139.388 16.2071L140.555 16.8466L141.708 17.5039L142.846 18.1789L143.969 18.8713L145.077 19.5806L146.169 20.3067L147.246 21.0492L148.306 21.8077L149.349 22.5819L150.376 23.3715L151.386 24.1762L152.378 24.9956L153.353 25.8293L154.31 26.6771L155.249 27.5384L156.17 28.413L157.072 29.3006L157.955 30.2006L158.82 31.1127L159.665 32.0366L160.491 32.9719L161.297 33.9182L162.083 34.875L162.849 35.842L163.596 36.8188L164.322 37.8049L165.027 38.8L165.712 39.8037L166.377 40.8155L167.02 41.835L167.643 42.8619L168.244 43.8956L168.824 44.9358L169.383 45.982L169.921 47.0338L170.437 48.0909L170.932 49.1526L171.405 50.2188L171.856 51.2888L172.286 52.3623L172.694 53.4388L173.081 54.5179L173.446 55.5992L173.789 56.6823L174.11 57.7667L174.409 58.8519L174.687 59.9376L174.943 61.0233L175.178 62.1086L175.391 63.1931L175.582 64.2763L175.752 65.3578L175.9 66.4372L176.027 67.5141L176.133 68.588L176.218 69.6585L176.282 70.7252L176.324 71.7877L176.346 72.8456L176.348 73.8984L176.328 74.9458L176.289 75.9874L176.229 77.0227L176.149 78.0514L176.049 79.073L175.929 80.0873L175.79 81.0937L175.631 82.0919L175.453 83.0815L175.256 84.0622L175.041 85.0336L174.807 85.9953L174.555 86.947L174.284 87.8883L173.996 88.8188L173.69 89.7382L173.367 90.6463L173.027 91.5425L172.67 92.4267L172.297 93.2984L171.907 94.1574L171.502 95.0033L171.081 95.8359L170.645 96.6549L170.193 97.4599L169.727 98.2506L169.247 99.0269L168.752 99.7883L168.244 100.535L167.723 101.266L167.188 101.981L166.641 102.681L166.081 103.365L165.509 104.032L164.926 104.683L164.332 105.317L163.726 105.934L163.11 106.534L162.484 107.117L161.849 107.682L161.204 108.229L160.549 108.759L159.887 109.271L159.216 109.764L158.537 110.239L157.851 110.695L157.158 111.133L156.458 111.552L155.752 111.953L155.041 112.334L154.323 112.696L153.602 113.04L152.875 113.364L152.144 113.668L151.41 113.953L150.672 114.219L149.932 114.466L149.189 114.692L148.444 114.9L147.698 115.088L146.95 115.256L146.201 115.404L145.453 115.533L144.704 115.643L143.956 115.733L143.209 115.803L142.463 115.854L141.719 115.886L140.977 115.898L140.237 115.891L139.501 115.864L138.768 115.819L138.039 115.754L137.314 115.671L136.594 115.568L135.879 115.447L135.17 115.307L134.466 115.149L133.769 114.972L133.078 114.777L132.395 114.564L131.718 114.334L131.05 114.085L130.39 113.819L129.738 113.535L129.096 113.235L128.463 112.917L127.839 112.583L127.226 112.232L126.623 111.864L126.03 111.481L125.449 111.082L124.879 110.667L124.321 110.237L123.776 109.791L123.242 109.331L122.722 108.856L122.214 108.367L121.72 107.864L121.24 107.348L120.774 106.817L120.321 106.274L119.884 105.718L119.461 105.149L119.054 104.568L118.662 103.976L118.285 103.372L117.925 102.756L117.58 102.13L117.252 101.493L116.941 100.846L116.646 100.189L116.369 99.5233L116.109 98.8481L115.866 98.1641L115.641 97.4718L115.433 96.7715L115.244 96.0636L115.073 95.3486L114.92 94.6267L114.786 93.8984L114.671 93.1641L114.574 92.4241L114.496 91.6789L114.438 90.9289L114.398 90.1744L114.378 89.4159L114.377 88.6538L114.395 87.8885L114.433 87.1204L114.491 86.3499L114.569 85.5774L114.666 84.8034L114.783 84.0282L114.919 83.2524L115.076 82.4762L115.252 81.7002L115.449 80.9247L115.665 80.1502L115.901 79.3771L116.157 78.6058L116.433 77.8367L116.728 77.0703L117.044 76.3069L117.379 75.5471L117.733 74.7911L118.108 74.0395L118.502 73.2926L118.915 72.5508L119.348 71.8146L119.8 71.0844L120.271 70.3606L120.761 69.6436L121.27 68.9337L121.798 68.2315L122.344 67.5373L122.909 66.8514L123.492 66.1744L124.094 65.5065L124.713 64.8482L125.351 64.1998L126.005 63.5618L126.678 62.9345L127.367 62.3182L128.074 61.7134L128.797 61.1204L129.537 60.5396L130.293 59.9713L131.066 59.4159L131.854 58.8737L132.658 58.345L133.477 57.8303L134.311 57.3298L135.16 56.8438L136.023 56.3728L136.901 55.9169L137.792 55.4765L138.697 55.0519L139.616 54.6434L140.547 54.2513L141.491 53.8759L142.448 53.5174L143.416 53.1762L144.396 52.8524L145.388 52.5464L146.39 52.2584L147.403 51.9886L148.426 51.7373L149.459 51.5047L150.502 51.291L151.554 51.0965L152.615 50.9214L153.684 50.7658L154.761 50.6299L155.845 50.514L156.937 50.4182L158.036 50.3427L159.141 50.2877L160.252 50.2532L161.369 50.2395L162.491 50.2467L163.618 50.2749L164.749 50.3242L165.884 50.3948L167.023 50.4868L168.164 50.6002L169.309 50.7351L170.456 50.8917L171.604 51.0699L172.754 51.27L173.905 51.4918L175.057 51.7355L176.208 52.0011L177.359 52.2886L178.51 52.598L179.659 52.9295L180.807 53.2828L181.952 53.6582L183.095 54.0555L184.236 54.4747L185.372 54.9157L186.505 55.3787L187.634 55.8634L188.758 56.3698L189.877 56.898L190.99 57.4477L192.097 58.019L193.198 58.6117L194.292 59.2257L195.379 59.8609L196.458 60.5172L197.529 61.1945L198.591 61.8926L199.645 62.6115L200.689 63.3508L201.723 64.1106L202.748 64.8906L203.761 65.6906L204.764 66.5105L205.755 67.3501L206.735 68.2092L207.702 69.0875L208.657 69.9849L209.599 70.9011L210.527 71.836L211.442 72.7892L212.343 73.7605L213.23 74.7497L214.101 75.7565L214.958 76.7807L215.799 77.8219L216.625 78.88L217.434 79.9545L218.227 81.0453L219.002 82.1521L219.761 83.2744L220.503 84.412L221.226 85.5647L221.932 86.732L222.619 87.9136L223.288 89.1092L223.938 90.3185L224.568 91.5411L225.18 92.7767L225.771 94.0248L226.343 95.2852L226.894 96.5575L227.425 97.8413L227.935 99.1362L228.424 100.442L228.892 101.758L229.339 103.084L229.764 104.419L230.168 105.764L230.55 107.117L230.909 108.479L231.247 109.849L231.562 111.226L231.854 112.611L232.124 114.002L232.37 115.399L232.594 116.802L232.795 118.211L232.972 119.625L233.126 121.043L233.257 122.465L233.364 123.891L233.448 125.321L233.508 126.753L233.544 128.187L233.556 129.624L233.545 131.062L233.51 132.501L233.451 133.94L233.368 135.38L233.261 136.82L233.13 138.259L232.976 139.696L232.797 141.132L232.595 142.566L232.369 143.998L232.119 145.426L231.845 146.851L231.548 148.273L231.227 149.69L230.883 151.102L230.515 152.509L230.124 153.911L229.71 155.306L229.273 156.695L228.812 158.078L228.329 159.453L227.823 160.82L227.295 162.179L226.744 163.53L226.171 164.871L225.576 166.203L224.959 167.526L224.32 168.838L223.66 170.14L222.978 171.43L222.275 172.709L221.552 173.977L220.808 175.232L220.043 176.475L219.258 177.705L218.454 178.921L217.629 180.124L216.786 181.313L215.923 182.487L215.041 183.647L214.14 184.792L213.222 185.921L212.285 187.035L211.331 188.132L210.359 189.213L209.371 190.278L208.365 191.325L207.343 192.355L206.305 193.368L205.251 194.362L204.182 195.339L203.098 196.296L201.999 197.236L200.886 198.156L199.759 199.057L198.619 199.938L197.465 200.8L196.298 201.642L195.119 202.463L193.928 203.265L192.725 204.045L191.511 204.805L190.286 205.544L189.05 206.261L187.805 206.957L186.55 207.632L185.285 208.285L184.012 208.916L182.731 209.525L181.441 210.111L180.144 210.676L178.84 211.218L177.53 211.738L176.213 212.235L174.89 212.709L173.562 213.161L172.229 213.589L170.891 213.995L169.549 214.377L168.204 214.737L166.856 215.073L165.505 215.387L164.152 215.677L162.796 215.944L161.44 216.187L160.082 216.408L158.724 216.605L157.366 216.779L156.009 216.93L154.652 217.058L153.296 217.163L151.942 217.245L150.591 217.304L149.242 217.34L147.896 217.353L146.553 217.343L145.214 217.311L143.88 217.256L142.55 217.179L141.226 217.079L139.907 216.957L138.594 216.813L137.288 216.648L135.988 216.46L134.696 216.251L133.411 216.021L132.135 215.769L130.867 215.496L129.607 215.202L128.357 214.888L127.117 214.553L125.887 214.198L124.667 213.823L123.458 213.428L122.26 213.014L121.074 212.58L119.899 212.127L118.737 211.655L117.587 211.165L116.451 210.657L115.327 210.13L114.217 209.586L113.121 209.024L112.04 208.446L110.973 207.85L109.92 207.238L108.883 206.61L107.862 205.965L106.856 205.306L105.866 204.631L104.892 203.941L103.936 203.236L102.995 202.518L102.072 201.785L101.167 201.039L100.279 200.28L99.4085 199.508L98.5563 198.724L97.7223 197.928L96.9068 197.12L96.11 196.301L95.3321 195.471L94.5732 194.63L93.8335 193.779L93.1132 192.919L92.4124 192.05L91.7314 191.171L91.0702 190.284L90.429 189.389L89.808 188.487L89.2072 187.577L88.6267 186.66L88.0667 185.737L87.5272 184.808L87.0084 183.873L86.5103 182.933L86.033 181.989L85.5765 181.04L85.1409 180.087L84.7263 179.131L84.3326 178.171L83.9599 177.21L83.6083 176.246L83.2777 175.28L82.9681 174.313L82.6796 173.345L82.412 172.377L82.1654 171.408L81.9398 170.44L81.7351 169.473L81.5512 168.507L81.3881 167.543L81.2457 166.58L81.124 165.621L81.0228 164.664L80.9421 163.711L80.8818 162.761L80.8417 161.815L80.8217 160.874L80.8218 159.938L80.8417 159.008L80.8813 158.083L80.9406 157.164L81.0192 156.252L81.1171 155.347L81.234 154.449L81.3699 153.559L81.5244 152.677L81.6974 151.804L81.8888 150.939L82.0982 150.084L82.3255 149.238L82.5704 148.402L82.8327 147.576L83.1121 146.761L83.4085 145.957L83.7215 145.165L84.0509 144.384L84.3964 143.614L84.7578 142.858L85.1347 142.114L85.5269 141.382L85.934 140.664L86.3559 139.96L86.7921 139.269L87.2423 138.593L87.7063 137.93L88.1837 137.283L88.6742 136.65L89.1774 136.033L89.6931 135.431L90.2208 134.844L90.7602 134.274L91.311 133.719L91.8728 133.181L92.4452 132.66L93.0279 132.155L93.6205 131.667L94.2226 131.197L94.8339 130.744L95.4539 130.308L96.0824 129.89L96.7188 129.49L97.3628 129.108L98.0139 128.744L98.6719 128.398L99.3363 128.071L100.007 127.762L100.683 127.472L101.364 127.201L102.05 126.949L102.74 126.715L103.434 126.501L104.132 126.305L104.833 126.129L105.536 125.972L106.242 125.835L106.95 125.716L107.659 125.617L108.369 125.537L109.08 125.477L109.791 125.436L110.502 125.414L111.212 125.412L111.921 125.429L112.628 125.465L113.333 125.521L114.037 125.595L114.737 125.689L115.434 125.802L116.128 125.934L116.817 126.085L117.503 126.254L118.183 126.443L118.858 126.649L119.528 126.875L120.191 127.119L120.848 127.381L121.498 127.661L122.141 127.959L122.777 128.275L123.404 128.609L124.023 128.96L124.633 129.328L125.234 129.714L125.826 130.116L126.407 130.535L126.979 130.97L127.54 131.422L128.089 131.89L128.628 132.374L129.155 132.873L129.67 133.388L130.172 133.917L130.662 134.462L131.139 135.021L131.602 135.594L132.052 136.181L132.488 136.783L132.91 137.397L133.317 138.025L133.709 138.665L134.087 139.318L134.448 139.983L134.795 140.66L135.125 141.349L135.439 142.048L135.737 142.759L136.017 143.48L136.282 144.212L136.528 144.953L136.758 145.703L136.97 146.463L137.164 147.232L137.34 148.009L137.498 148.794L137.638 149.586L137.759 150.386L137.861 151.193L137.944 152.006L138.009 152.825L138.054 153.65L138.08 154.48L138.086 155.315L138.073 156.155L138.04 156.998L137.988 157.845L137.915 158.696L137.823 159.549L137.71 160.405L137.577 161.263L137.425 162.122L137.251 162.983L137.058 163.844L136.844 164.706L136.61 165.567L136.356 166.428L136.081 167.288L135.786 168.147L135.47 169.004L135.134 169.859L134.778 170.711L134.401 171.56L134.004 172.405L133.587 173.247L133.15 174.084L132.692 174.916L132.215 175.744L131.717 176.566L131.2 177.381L130.663 178.191L130.106 178.993L129.53 179.789L128.934 180.576L128.32 181.356L127.686 182.127L127.033 182.889L126.361 183.643L125.67 184.386L124.961 185.119L124.234 185.842L123.489 186.555L122.726 187.256L121.945 187.945L121.146 188.623L120.331 189.288L119.498 189.94L118.648 190.58L117.782 191.206L116.9 191.819L116.001 192.417L115.087 193.001L114.158 193.57L113.213 194.124L112.253 194.663L111.278 195.186L110.289 195.693L109.286 196.184L108.269 196.658L107.239 197.115L106.196 197.555L105.14 197.977L104.071 198.382L102.991 198.769L101.898 199.137L100.795 199.487L99.6797 199.818L98.5542 200.13L97.4184 200.422L96.2726 200.695L95.1172 200.949L93.9527 201.182L92.7793 201.396L91.5975 201.589L90.4077 201.761L89.2102 201.913L88.0055 202.044L86.794 202.153L85.5761 202.242L84.3522 202.309L83.1226 202.355L81.8879 202.379L80.6484 202.381L79.4046 202.362L78.1568 202.32L76.9056 202.257L75.6513 202.171L74.3944 202.063L73.1353 201.932L71.8744 201.779L70.6122 201.604L69.3491 201.406L68.0856 201.186L66.822 200.943L65.5589 200.677L64.2967 200.389L63.0357 200.078L61.7765 199.745L60.5195 199.389L59.2651 199.01L58.0138 198.609L56.766 198.185L55.5221 197.739L54.2826 197.27L53.048 196.779L51.8186 196.266L50.5949 195.73L49.3774 195.172L48.1664 194.593L46.9624 193.991L45.7658 193.367L44.577 192.722L43.3965 192.055L42.2247 191.367L41.062 190.658L39.9089 189.927L38.7656 189.176L37.6327 188.403L36.5106 187.61L35.3995 186.797L34.3001 185.963L33.2126 185.11L32.1374 184.236L31.0749 183.343L30.0255 182.431L28.9896 181.499L27.9676 180.549L26.9597 179.58L25.9665 178.592L24.9882 177.587L24.0251 176.563L23.0778 175.523L22.1464 174.464L21.2313 173.389L20.3328 172.297L19.4514 171.189L18.5872 170.064L17.7407 168.924L16.912 167.768L16.1016 166.598L15.3097 165.412L14.5365 164.212L13.7825 162.998L13.0478 161.77L12.3327 160.529L11.6375 159.274L10.9624 158.007L10.3077 156.728L9.67361 155.437L9.06036 154.134L8.46818 152.82L7.89728 151.496L7.34787 150.161L6.82015 148.816L6.31433 147.461L5.83056 146.097L5.36904 144.725L4.92993 143.344L4.51338 141.955L4.11957 140.559L3.74862 139.156L3.40068 137.745L3.07587 136.329L2.77431 134.907L2.4961 133.48L2.24136 132.047L2.01016 130.61L1.80261 129.169L1.61877 127.725L1.45871 126.277L1.32249 124.826L1.21016 123.374L1.12176 121.919L1.05732 120.463L1.01686 119.006L1.00041 117.548" stroke="url(#paint0_linear_832_1655)" stroke-width="0.815987"/>
<defs>
<linearGradient id="paint0_linear_832_1655" x1="117.278" y1="1" x2="117.278" y2="233.556" gradientUnits="userSpaceOnUse">
<stop stop-color="#9E00FF"/>
<stop offset="1" stop-color="#000AFF"/>
</linearGradient>
</defs>
</svg>
