<svg width="235" height="235" viewBox="0 0 235 235" fill="none" xmlns="http://www.w3.org/2000/svg">
<path d="M233.556 117.279L233.395 119.236L232.911 121.179L232.105 123.094L230.982 124.966L229.545 126.783L227.799 128.53L225.75 130.195L223.407 131.765L220.776 133.227L217.868 134.569L214.692 135.781L211.261 136.852L207.586 137.772L203.681 138.531L199.558 139.122L195.234 139.536L190.722 139.767L186.039 139.809L181.202 139.657L176.227 139.307L171.131 138.755L165.932 138.001L160.648 137.042L155.297 135.878L149.898 134.511L144.469 132.942L139.028 131.175L133.593 129.212L128.183 127.06L122.816 124.724L117.509 122.211L112.279 119.529L107.143 116.686L102.118 113.692L97.2193 110.557L92.4622 107.293L87.8614 103.911L83.4305 100.424L79.1826 96.845L75.1299 93.1881L71.2837 89.4675L67.6545 85.6979L64.2518 81.8948L61.0841 78.0736L58.1589 74.2501L55.4827 70.4405L53.0609 66.661L50.8979 62.9278L48.9969 59.2573L47.3602 55.6657L45.9889 52.1692L44.883 48.7836L44.0414 45.5245L43.4621 42.4074L43.1419 39.4472L43.0765 36.6581L43.2608 34.0543L43.6887 31.6489L44.3529 29.4547L45.2455 27.4837L46.3576 25.7469L47.6795 24.2549L49.2006 23.0172L50.9097 22.0423L52.7951 21.338L54.844 20.9109L57.0436 20.7668L59.3802 20.9103L61.8398 21.3449L64.4081 22.0732L67.0704 23.0965L69.8118 24.4152L72.6171 26.0282L75.4713 27.9338L78.359 30.1287L81.2651 32.6087L84.1746 35.3686L87.0725 38.402L89.944 41.7013L92.775 45.2581L95.5511 49.0628L98.2591 53.105L100.886 57.3731L103.418 61.855L105.845 66.5373L108.154 71.406L110.336 76.4465L112.379 81.6433L114.276 86.9802L116.018 92.4406L117.597 98.0073L119.007 103.663L120.242 109.389L121.298 115.167L122.171 120.979L122.858 126.806L123.358 132.63L123.67 138.43L123.794 144.189L123.731 149.888L123.483 155.507L123.054 161.03L122.449 166.438L121.671 171.713L120.727 176.838L119.624 181.797L118.369 186.574L116.972 191.154L115.441 195.522L113.787 199.664L112.02 203.567L110.152 207.219L108.194 210.61L106.159 213.728L104.061 216.565L101.911 219.112L99.7245 221.363L97.5149 223.31L95.2965 224.951L93.0835 226.279L90.8904 227.294L88.7316 227.993L86.6215 228.377L84.5744 228.445L82.6043 228.2L80.7251 227.645L78.9503 226.784L77.293 225.623L75.7659 224.167L74.3812 222.425L73.1505 220.404L72.0849 218.114L71.1947 215.566L70.4895 212.769L69.9781 209.738L69.6686 206.484L69.5682 203.02L69.6832 199.362L70.0188 195.524L70.5796 191.521L71.369 187.37L72.3893 183.087L73.6419 178.688L75.1273 174.19L76.8447 169.611L78.7924 164.967L80.9677 160.278L83.3668 155.559L85.9847 150.828L88.8157 146.102L91.8528 141.399L95.0883 136.736L98.5134 132.127L102.118 127.591L105.893 123.142L109.825 118.795L113.902 114.565L118.113 110.465L122.442 106.509L126.876 102.709L131.399 99.0762L135.997 95.6218L140.653 92.3555L145.351 89.2862L150.074 86.4219L154.805 83.7696L159.527 81.3354L164.223 79.1242L168.874 77.1399L173.465 75.3857L177.977 73.8633L182.393 72.5736L186.696 71.5163L190.869 70.6903L194.897 70.0934L198.762 69.7221L202.45 69.5723L205.945 69.6388L209.233 69.9155L212.301 70.3952L215.136 71.0701L217.724 71.9315L220.056 72.9699L222.121 74.175L223.908 75.5359L225.41 77.0411L226.619 78.6785L227.528 80.4355L228.132 82.299L228.426 84.2555L228.408 86.2913L228.075 88.3923L227.426 90.5443L226.461 92.7329L225.182 94.9437L223.592 97.1623L221.692 99.3742L219.49 101.565L216.989 103.722L214.198 105.829L211.124 107.875L207.776 109.846L204.165 111.73L200.301 113.514L196.196 115.186L191.864 116.738L187.317 118.157L182.57 119.434L177.639 120.562L172.539 121.532L167.287 122.337L161.899 122.97L156.393 123.427L150.788 123.704L145.101 123.797L139.35 123.703L133.555 123.421L127.734 122.951L121.906 122.294L116.091 121.45L110.306 120.423L104.57 119.216L98.9021 117.833L93.32 116.281L87.8415 114.564L82.4839 112.692L77.2637 110.671L72.1973 108.511L67.3002 106.221L62.5873 103.812L58.0726 101.296L53.7696 98.6836L49.6906 95.9878L45.8474 93.2216L42.2505 90.3984L38.9096 87.5324L35.8333 84.6377L33.0294 81.7291L30.5044 78.8214L28.2638 75.9297L26.3119 73.0692L24.6521 70.255L23.2865 67.5025L22.2162 64.8266L21.441 62.2423L20.9597 59.7644L20.7701 57.4073L20.8687 55.185L21.251 53.1111L21.9116 51.1989L22.8438 49.4608L24.0403 47.909L25.4924 46.5547L27.1908 45.4085L29.1253 44.4803L31.2847 43.7792L33.6573 43.3132L36.2304 43.0896L38.9908 43.1148L41.9248 43.3942L45.0179 43.932L48.2553 44.7316L51.6218 45.7954L55.1017 47.1244L58.6792 48.7189L62.3382 50.5779L66.0625 52.6993L69.8357 55.0802L73.6416 57.7162L77.464 60.6022L81.2866 63.7318L85.0937 67.0976L88.8695 70.6913L92.599 74.5036L96.267 78.5242L99.8593 82.7418L103.362 87.1444L106.761 91.7191L110.045 96.4522L113.201 101.329L116.219 106.335L119.086 111.454L121.795 116.67L124.335 121.967L126.7 127.326L128.882 132.73L130.875 138.162L132.673 143.603L134.274 149.036L135.673 154.441L136.869 159.801L137.861 165.096L138.648 170.31L139.232 175.423L139.614 180.419L139.798 185.28L139.786 189.988L139.585 194.528L139.199 198.883L138.636 203.039L137.903 206.98L137.009 210.692L135.961 214.163L134.771 217.38L133.448 220.332L132.005 223.007L130.451 225.398L128.801 227.494L127.066 229.288L125.259 230.775L123.394 231.949L121.485 232.805L119.546 233.34L117.59 233.553L115.632 233.443L113.686 233.01L111.766 232.256L109.885 231.183L108.059 229.796L106.299 228.098L104.621 226.097L103.035 223.8L101.555 221.214L100.193 218.35L98.9591 215.216L97.8651 211.825L96.9207 208.188L96.1352 204.318L95.5172 200.229L95.0744 195.936L94.8137 191.453L94.7413 186.797L94.8622 181.983L95.1807 177.028L95.6998 171.95L96.4221 166.767L97.3486 161.495L98.4796 156.154L99.8144 150.761L101.351 145.336L103.087 139.895L105.019 134.458L107.141 129.043L109.448 123.668L111.933 118.35L114.589 113.106L117.407 107.954L120.378 102.911L123.491 97.9908L126.736 93.2102L130.1 88.5835L133.571 84.1247L137.136 79.8468L140.781 75.7622L144.493 71.8824L148.256 68.218L152.054 64.7786L155.874 61.573L159.698 58.6087L163.511 55.8924L167.296 53.4298L171.038 51.2253L174.719 49.2824L178.325 47.6035L181.837 46.1899L185.242 45.0417L188.522 44.1582L191.663 43.5373L194.649 43.176L197.466 43.0704L200.1 43.2153L202.538 43.6048L204.767 44.2319L206.774 45.0888L208.549 46.1665L210.081 47.4557L211.359 48.9458L212.377 50.6258L213.125 52.4839L213.596 54.5076L213.786 56.6841L213.688 58.9998L213.3 61.4408L212.619 63.9928L211.643 66.6411L210.371 69.3709L208.805 72.167L206.946 75.0144L204.797 77.8979L202.362 80.8021L199.646 83.7121L196.656 86.6128L193.398 89.4895L189.882 92.3278L186.116 95.1137L182.111 97.8334L177.878 100.474L173.429 103.022L168.778 105.466L163.938 107.795L158.924 109.998L153.751 112.064L148.435 113.985L142.993 115.751L137.442 117.357L131.8 118.794L126.084 120.058L120.313 121.143L114.505 122.045L108.679 122.762L102.853 123.292L97.0481 123.633L91.2813 123.787L85.5718 123.754L79.9383 123.535L74.3989 123.135L68.9718 122.557L63.6745 121.806L58.5242 120.888L53.5374 119.81L48.7303 118.58L44.1182 117.204L39.7158 115.694L35.537 114.059L31.595 112.309L27.9019 110.456L24.469 108.512L21.3068 106.489L18.4246 104.399L15.8308 102.257L13.5326 100.075L11.5362 97.8682L9.84672 95.6502L8.46811 93.4354L7.40321 91.2382L6.6537 89.073L6.22008 86.9542L6.10175 84.8961L6.29694 82.9128L6.80276 81.0182L7.61519 79.2258L8.72912 77.5489L10.1384 76.0003L11.8357 74.5921L13.8128 73.3361L16.0605 72.2435L18.5686 71.3247L21.3261 70.5894L24.321 70.0466L27.5407 69.7045L30.9716 69.5703L34.5996 69.6506L38.4101 69.9508L42.3875 70.4755L46.5161 71.2282L50.7797 72.2116L55.1615 73.4272L59.6447 74.8756L64.2121 76.5561L68.8462 78.4673L73.5298 80.6066L78.2454 82.9703L82.9755 85.5537L87.7029 88.3512L92.4106 91.3561L97.0817 94.5605L101.7 97.956L106.249 101.533L110.713 105.281L115.077 109.189L119.327 113.244L123.448 117.434L127.428 121.745L131.253 126.164L134.913 130.674L138.397 135.261L141.694 139.909L144.795 144.601L147.692 149.321L150.379 154.052L152.848 158.777L155.095 163.478L157.116 168.138L158.907 172.739L160.466 177.265L161.793 181.697L162.887 186.019L163.75 190.215L164.383 194.266L164.79 198.158L164.975 201.876L164.942 205.402L164.699 208.725L164.251 211.829L163.607 214.701L162.774 217.33L161.763 219.703L160.584 221.811L159.247 223.643L157.764 225.191L156.147 226.447L154.408 227.404L152.561 228.057L150.618 228.401L148.594 228.433L146.503 228.15L144.358 227.551L142.174 226.637L139.966 225.408L137.748 223.866L135.534 222.016L133.338 219.861L131.175 217.408L129.059 214.663L127.002 211.633L125.019 208.328L123.121 204.758L121.32 200.934L119.629 196.866L118.057 192.569L116.617 188.055L115.316 183.34L114.164 178.437L113.168 173.362L112.337 168.133L111.676 162.766L111.19 157.278L110.884 151.687L110.762 146.012L110.826 140.27L111.078 134.481L111.518 128.663L112.146 122.835L112.96 117.016L113.958 111.225L115.137 105.48L116.492 99.7999L118.018 94.203L119.708 88.7069L121.556 83.3288L123.554 78.0856L125.693 72.9937L127.963 68.0686L130.353 63.3253L132.853 58.7782L135.451 54.4406L138.134 50.3251L140.89 46.4436L143.705 42.8067L146.565 39.4244L149.456 36.3055L152.364 33.4578L155.273 30.8879L158.168 28.6017L161.034 26.6036L163.857 24.8971L166.62 23.4845L169.309 22.3671L171.909 21.545L174.405 21.017L176.782 20.7811L179.027 20.8341L181.126 21.1716L183.064 21.7883L184.831 22.6777L186.413 23.8326L187.8 25.2447L188.98 26.9045L189.943 28.8021L190.681 30.9265L191.185 33.2659L191.448 35.808L191.463 38.5395L191.224 41.4468L190.728 44.5155L189.97 47.731L188.948 51.078L187.662 54.5409L186.109 58.1039L184.292 61.7511L182.212 65.466L179.873 69.2326L177.277 73.0344L174.43 76.8552L171.339 80.6788L168.01 84.4894L164.452 88.2714L160.674 92.0092L156.686 95.688L152.499 99.2933L148.125 102.811L143.577 106.228L138.868 109.531L134.013 112.708L129.027 115.748L123.924 118.64L118.723 121.375L113.438 123.943L108.088 126.336L102.69 128.547L97.2608 130.571L91.8198 132.401L86.3848 134.033L80.974 135.465L75.606 136.693L70.2989 137.717L65.0711 138.537L59.9405 139.153L54.9248 139.567L50.0416 139.782L45.3078 139.801L40.74 139.63L36.3542 139.273L32.1658 138.738L28.1898 138.032L24.4399 137.162L20.9297 136.138L17.6716 134.97L14.677 133.668L11.9568 132.243L9.5206 130.706L7.3771 129.07L5.53396 127.348L3.99782 125.552L2.77412 123.695L1.8673 121.792L1.28058 119.857L1.01609 117.903L1.07474 115.944L1.45637 113.995L2.15956 112.07L3.18182 110.182L4.51948 108.346L6.16774 106.575L8.12071 104.883L10.3714 103.281L12.9117 101.784L15.7327 100.402L18.8242 99.147L22.1752 98.03L25.7739 97.0611L29.6074 96.2497L33.6622 95.6045L37.9239 95.1333L42.3776 94.8432L47.0075 94.7405L51.7975 94.8303L56.7308 95.117L61.7902 95.6041L66.9582 96.2938L72.2169 97.1878L77.5482 98.2863L82.9338 99.5887L88.3555 101.094L93.7948 102.798L99.2334 104.699L104.653 106.791L110.036 109.069L115.365 111.527L120.621 114.156L125.789 116.949L130.851 119.896L135.791 122.987L140.595 126.211L145.247 129.557L149.734 133.012L154.041 136.563L158.157 140.197L162.07 143.899L165.77 147.654L169.246 151.448L172.489 155.265L175.492 159.09L178.248 162.906L180.752 166.697L182.998 170.446L184.982 174.138L186.703 177.757L188.159 181.285L189.35 184.708L190.275 188.009L190.938 191.173L191.34 194.185L191.486 197.03L191.381 199.694L191.03 202.164L190.44 204.427L189.619 206.471L188.576 208.283L187.32 209.854L185.861 211.174L184.21 212.233L182.38 213.025L180.382 213.541L178.229 213.775L175.934 213.724L173.512 213.382L170.977 212.748L168.343 211.819L165.625 210.594L162.839 209.075L159.998 207.262L157.12 205.159L154.218 202.769L151.308 200.098L148.405 197.151L145.523 193.935L142.678 190.459L139.883 186.733L137.151 182.765L134.498 178.567L131.934 174.152L129.472 169.532L127.124 164.721L124.901 159.734L122.812 154.585L120.868 149.291L119.076 143.868L117.444 138.333L115.98 132.704L114.688 126.999L113.575 121.235L112.643 115.432L111.896 109.607L111.337 103.781L110.965 97.971L110.782 92.1968L110.785 86.477L110.974 80.8301L111.346 75.2745L111.896 69.8283L112.619 64.5092L113.511 59.3343L114.564 54.3204L115.771 49.4836L117.124 44.8394L118.613 40.4026L120.229 36.1873L121.961 32.2067L123.799 28.4732L125.729 24.9982L127.741 21.7922L129.821 18.8648L131.956 16.2245L134.132 13.8788L136.336 11.834L138.553 10.0953L140.769 8.66697L142.97 7.55197L145.141 6.75214L147.269 6.26822L149.337 6.09977L151.334 6.24519L153.243 6.70179L155.053 7.4657L156.749 8.53199L158.319 9.89466L159.75 11.5466L161.031 13.4798L162.15 15.685L163.098 18.1524L163.863 20.871L164.437 23.8289L164.811 27.0137L164.979 30.4119L164.933 34.0095L164.668 37.7919L164.18 41.7438L163.464 45.8495L162.517 50.0927L161.339 54.4568L159.927 58.925L158.284 63.4801L156.409 68.1048L154.306 72.7817L151.978 77.4933L149.429 82.2223L146.665 86.9513L143.693 91.6633L140.519 96.3413L137.154 100.969L133.605 105.53L129.884 110.008L126 114.39L121.968 118.658L117.798 122.801L113.505 126.804L109.103 130.655L104.607 134.343L100.031 137.855L95.3916 141.182L90.7053 144.315L85.9886 147.246L81.2581 149.966L76.5313 152.47L71.8254 154.753L67.1577 156.81L62.5458 158.638L58.007 160.234L53.5586 161.598L49.2177 162.729L45.0012 163.629L40.9256 164.298L37.007 164.741L33.261 164.961L29.7028 164.963L26.347 164.752L23.2074 164.336L20.2972 163.723L17.6289 162.92L15.214 161.937L13.0634 160.783L11.1868 159.471L9.59318 158.01L8.29035 156.414L7.28518 154.693L6.5835 152.862L6.19001 150.934L6.10834 148.922L6.34095 146.84L6.8892 144.703L7.75331 142.524L8.93231 140.319L10.4241 138.102L12.2255 135.886L14.3321 133.687L16.7384 131.518L19.4378 129.393L22.4226 127.326L25.6842 125.33L29.2127 123.417L32.9975 121.6L37.027 119.891L41.2885 118.3L45.7686 116.838L50.4532 115.514L55.3274 114.337L60.3754 113.317L65.581 112.459L70.9274 111.77L76.3973 111.256L81.973 110.921L87.6362 110.77L93.3686 110.804L99.1516 111.026L104.966 111.436L110.794 112.034L116.616 112.818L122.412 113.787L128.166 114.938L133.857 116.265L139.468 117.764L144.982 119.429L150.38 121.252L155.646 123.227L160.763 125.344L165.715 127.593L170.488 129.965L175.068 132.449L179.44 135.032L183.591 137.702L187.511 140.448L191.187 143.254L194.611 146.108L197.772 148.995L200.664 151.901L203.278 154.811L205.61 157.709L207.654 160.581L209.407 163.412L210.867 166.185L212.031 168.887L212.9 171.502L213.475 174.016L213.757 176.413L213.75 178.68L213.457 180.802L212.885 182.767L212.038 184.562L210.925 186.175L209.553 187.593L207.932 188.807L206.072 189.805L203.983 190.58L201.677 191.122L199.166 191.423L196.464 191.478L193.584 191.28L190.54 190.825L187.347 190.109L184.02 189.129L180.574 187.885L177.026 186.375L173.391 184.6L169.686 182.562L165.927 180.263L162.129 177.708L158.311 174.901L154.486 171.848L150.672 168.557L146.885 165.035L143.139 161.291L139.45 157.336L135.832 153.179L132.299 148.834L128.866 144.313L125.544 139.629L122.346 134.796L119.283 129.829L116.367 124.745L113.606 119.558L111.011 114.285L108.59 108.944L106.349 103.552L104.296 98.1272L102.434 92.6869L100.77 87.2496L99.3065 81.8338L98.0455 76.4577L96.9886 71.1397L96.1364 65.898L95.488 60.7507L95.042 55.7156L94.7957 50.8101L94.7455 46.0513L94.8869 41.456L95.2144 37.0402L95.7216 32.8194L96.4013 28.8085L97.2456 25.0217L98.2454 21.4725L99.3912 18.1734L100.673 15.1361L102.079 12.3715L103.599 9.88946L105.22 7.69878L106.929 5.80734L108.715 4.22189L110.562 2.94812L112.459 1.99058L114.39 1.35271L116.342 1.0368L118.301 1.04398L120.253 1.37421L122.183 2.02634L124.077 2.998L125.922 4.28573L127.704 5.88489L129.41 7.78977L131.027 9.99355L132.542 12.4884L133.943 15.2653L135.219 18.3144L136.358 21.6249L137.351 25.1849L138.189 28.9819L138.861 33.0024L139.36 37.2322L139.68 41.6564L139.812 46.2593L139.754 51.0249L139.499 55.9366L139.044 60.9771L138.386 66.1289L137.525 71.3744L136.459 76.6954L135.189 82.0736L133.716 87.4908L132.043 92.9285L130.173 98.3685L128.111 103.793L125.863 109.183L123.433 114.521L120.831 119.79L118.063 124.973L115.14 130.053L112.071 135.014L108.868 139.84L105.54 144.517L102.102 149.031L98.5652 153.368L94.9437 157.516L91.2517 161.462L87.5037 165.196L83.7147 168.708L79.9002 171.989L76.0758 175.031L72.2576 177.827L68.4617 180.371L64.7043 182.658L61.0019 184.684L57.3706 186.448L53.8266 187.946L50.386 189.178L47.0646 190.146L43.8778 190.85L40.8408 191.294L37.9681 191.481L35.2741 191.415L32.7723 191.102L30.4757 190.55L28.3966 189.766L26.5466 188.757L24.9364 187.534L23.576 186.107L22.4745 184.486L21.6401 182.684L21.0797 180.711L20.7998 178.582L20.8054 176.309L21.1005 173.907L21.6882 171.388L22.5705 168.769L23.7481 166.064L25.2206 163.287L26.9867 160.454L29.0438 157.581L31.3882 154.681L34.0151 151.772L36.9187 148.866L40.0919 145.98L43.5268 143.128L47.2143 140.324L51.1444 137.582L55.306 134.915L59.6874 132.336L64.2756 129.857L69.057 127.491L74.0173 125.247L79.1414 123.136L84.4133 121.168L89.8168 119.351L95.3349 117.694L100.95 116.202L106.645 114.883L112.4 113.74L118.199 112.78L124.021 112.003L129.848 111.414L135.662 111.012L141.443 110.799L147.173 110.773L152.833 110.932L158.404 111.275L163.869 111.797L169.209 112.493L174.408 113.359L179.449 114.386L184.315 115.569L188.991 116.9L193.462 118.368L197.713 119.964L201.732 121.679L205.506 123.5L209.023 125.417L212.272 127.416L215.244 129.486L217.931 131.613L220.324 133.784L222.417 135.984L224.205 138.2L225.683 140.417L226.848 142.622L227.698 144.799L228.232 146.934L228.451 149.013L228.355 151.022L227.948 152.946L227.233 154.772L226.214 156.487L224.898 158.078L223.292 159.532L221.403 160.838L219.24 161.984L216.814 162.959L214.135 163.754L211.214 164.359L208.065 164.766L204.699 164.967L201.133 164.956L197.379 164.726L193.453 164.273L189.371 163.594L185.148 162.684L180.802 161.542L176.349 160.168L171.807 158.561L167.192 156.724L162.522 154.657L157.815 152.364L153.088 149.85L148.358 147.12L143.642 144.18L138.957 141.038L134.321 137.703L129.748 134.183L125.255 130.488L120.858 126.63L116.57 122.62L112.406 118.471L108.38 114.197L104.504 109.812L100.79 105.329L97.249 100.765L93.8916 96.1345L90.7272 91.4546L87.764 86.7416L85.0096 82.0122L82.4705 77.2836L80.1521 72.5731L78.0591 67.8982L76.1946 63.2762L74.5613 58.7246L73.1604 54.2607L71.9921 49.9015L71.0559 45.6641L70.3498 41.5649L69.8712 37.6202L69.6162 33.8457L69.5801 30.2566L69.7571 26.8676L70.1408 23.6926L70.7235 20.7451L71.4969 18.0374L72.4519 15.5815L73.5786 13.3881L74.8665 11.4672L76.3043 9.82795L77.8801 8.47831L79.5815 7.42532L81.3958 6.67495L83.3095 6.2321L85.3092 6.10057L87.3808 6.28301L89.5102 6.78096L91.6831 7.5948L93.8851 8.72376L96.1018 10.166L98.3186 11.9183L100.521 13.9766L102.696 16.3356L104.829 18.9888L106.906 21.9287L108.914 25.1468L110.841 28.6336L112.674 32.3783L114.401 36.3696L116.012 40.5951L117.495 45.0413L118.842 49.6944L120.042 54.5394L121.088 59.5608L121.973 64.7424L122.689 70.0676L123.231 75.519L123.594 81.079L123.775 86.7296L123.77 92.4522L123.579 98.2284L123.199 104.039L122.631 109.866L121.876 115.69L120.936 121.492L119.814 127.254L118.515 132.956L117.043 138.581L115.404 144.112L113.605 149.529L111.654 154.817L109.559 159.959L107.33 164.939L104.977 169.742L102.511 174.353L99.9426 178.758L97.285 182.946L94.5507 186.903L91.7531 190.619L88.9058 194.083L86.023 197.287L83.1192 200.222L80.2092 202.881L77.308 205.258L74.4307 207.349L71.5925 209.148L68.8086 210.655L66.0942 211.866L63.4644 212.782L60.9338 213.404L58.5172 213.732L56.2287 213.771L54.0823 213.524L52.0912 212.995L50.2684 212.192L48.6262 211.121L47.1761 209.79L45.9292 208.208L44.8957 206.385L44.085 204.331L43.5057 202.059L43.1654 199.58L43.0711 196.907L43.2284 194.055L43.6422 191.036L44.3164 187.865L45.2537 184.559L46.4559 181.131L47.9236 177.598L49.6564 173.976L51.6528 170.281L53.9102 166.529L56.4249 162.737L59.1921 158.92L62.2061 155.096L65.4601 151.279L68.946 147.486L72.6551 143.733L76.5775 140.034L80.7024 136.403L85.0182 132.856L89.5123 129.406L94.1715 126.065L98.9816 122.847L103.928 119.762L108.995 116.821L114.167 114.036L119.427 111.414L124.758 108.964L130.143 106.694L135.564 104.61L141.003 102.718L146.442 101.022L151.862 99.5266L157.246 98.2331L162.574 97.1437L167.829 96.2589L172.993 95.5781L178.047 95.1001L182.974 94.8221L187.758 94.741L192.38 94.8522L196.826 95.1504L201.079 95.6295L205.124 96.2823L208.947 97.1009L212.535 98.0766L215.875 99.1998L218.955 100.461L221.763 101.848L224.291 103.35L226.529 104.956L228.468 106.652L230.103 108.426L231.426 110.265L232.435 112.154L233.124 114.081L233.491 116.031L233.535 117.99L233.256 119.943L232.655 121.878L231.734 123.779L230.497 125.633L228.947 127.426L227.09 129.145L224.933 130.776L222.484 132.308L219.752 133.728L216.745 135.025L213.476 136.187L209.955 137.204L206.195 138.067L202.209 138.766L198.011 139.293L193.617 139.642L189.042 139.805L184.301 139.777L179.411 139.553L174.39 139.13L169.255 138.505L164.023 137.676L158.713 136.643L153.343 135.405L147.93 133.965L142.495 132.323L137.054 130.485L131.626 128.453L126.229 126.234L120.882 123.832L115.601 121.257L110.403 118.515L105.306 115.616L100.325 112.57L95.4756 109.387L90.7736 106.078L86.2329 102.657L81.8669 99.1349L77.6885 95.5261L73.7095 91.8443L69.9409 88.1042L66.3929 84.3207L63.0746 80.5092L59.9941 76.6853L57.1585 72.865L54.5741 69.0645L52.2458 65.2999L50.1775 61.5876L48.3723 57.9438L46.8318 54.3849L45.5569 50.9268L44.5471 47.5853L43.801 44.376L43.3161 41.3141L43.0889 38.4144L43.1148 35.691L43.3883 33.1577L43.9028 30.8275L44.6509 28.7129L45.6243 26.8257L46.8137 25.1766L48.2091 23.7758L49.7998 22.6326L51.5743 21.755L53.5205 21.1506L55.6257 20.8257L57.8765 20.7854L60.2594 21.0342L62.7602 21.5752L65.3643 22.4105L68.057 23.541L70.8233 24.9667L73.6481 26.6861L76.5163 28.6971L79.4124 30.9961L82.3215 33.5784L85.2285 36.4383L88.1185 39.5691L90.9769 42.9629L93.7896 46.6108L96.5426 50.503L99.2224 54.6286L101.816 58.9757L104.312 63.5319L106.697 68.2835L108.961 73.2164L111.094 78.3154L113.085 83.5649L114.926 88.9486L116.61 94.4496L118.128 100.051L119.476 105.734L120.646 111.481L121.636 117.274L122.442 123.093L123.062 128.921L123.493 134.739L123.737 140.526L123.792 146.265L123.662 151.937L123.348 157.524L122.855 163.007L122.186 168.369L121.347 173.591L120.344 178.658L119.186 183.553L117.878 188.26L116.432 192.765L114.855 197.052L113.158 201.109L111.353 204.922L109.451 208.481L107.464 211.774L105.404 214.791L103.286 217.523L101.121 219.964L98.9245 222.105L96.71 223.942L94.4919 225.469L92.2845 226.684L90.1022 227.585L87.9594 228.169L85.8705 228.438L83.8497 228.392L81.911 228.034L80.0682 227.368L78.3345 226.397L76.723 225.128L75.2462 223.568L73.9161 221.723L72.7441 219.603L71.741 217.218L70.9169 214.579L70.281 211.696L69.842 208.582L69.6077 205.25L69.5847 201.714L69.7792 197.989L70.1961 194.09L70.8395 190.031L71.7125 185.83L72.817 181.503L74.1541 177.066L75.7238 172.536L77.5251 167.932L79.5558 163.27L81.8128 158.567L84.2919 153.842L86.9879 149.111L89.8945 144.392L93.0046 139.701L96.31 135.056L99.8015 130.472L103.469 125.965L107.302 121.552L111.288 117.245L115.416 113.061L119.671 109.012L124.04 105.111L128.508 101.37L133.06 97.8013L137.681 94.4141L142.354 91.2183L147.063 88.2225L151.791 85.4344L156.521 82.8606L161.235 80.5068L165.917 78.3776L170.548 76.4765L175.112 74.8063L179.591 73.3683L183.968 72.163L188.226 71.1899L192.349 70.4474L196.319 69.9327L200.122 69.6424L203.741 69.5718L207.163 69.7153L210.373 70.0665L213.358 70.6181L216.104 71.3617L218.601 72.2884L220.837 73.3885L222.802 74.6515L224.487 76.0661L225.883 77.6208L226.983 79.3031L227.782 81.1002L228.274 82.999L228.456 84.986L228.323 87.0471L227.876 89.1682L227.112 91.3352L226.033 93.5335L224.641 95.7488L222.938 97.9666L220.928 100.173L218.616 102.353L216.01 104.493L213.115 106.58L209.94 108.6L206.496 110.541L202.791 112.389L198.838 114.134L194.649 115.764L190.237 117.268L185.616 118.637L180.801 119.862L175.807 120.933L170.649 121.843L165.346 122.587L159.913 123.157L154.37 123.549L148.732 123.759L143.02 123.784L137.251 123.622L131.444 123.272L125.619 122.734L119.793 122.009L113.986 121.098L108.217 120.005L102.504 118.734L96.8653 117.289L91.3188 115.676L85.8822 113.902L80.5725 111.975L75.4063 109.903L70.3996 107.694L65.5676 105.36L60.9251 102.911L56.4857 100.358L52.2626 97.7142L48.268 94.9913L44.5129 92.2028L41.0078 89.3625L37.7621 86.4843L34.7838 83.5829L32.0804 80.6729L29.6581 77.7693L27.5218 74.8871L25.6756 72.0417L24.1224 69.2481L22.8639 66.5216L21.9007 63.8773L21.2324 61.33L20.8573 58.8942L20.7727 56.5844L20.9749 54.4144L21.4589 52.3977L22.2189 50.5473L23.248 48.8755L24.5382 47.3941L26.0809 46.1141L27.8662 45.046L29.8836 44.1992L32.1218 43.5825L34.5686 43.2037L37.2113 43.0697L40.0363 43.1866L43.0298 43.5593L46.177 44.1918L49.463 45.0871L52.8725 46.247L56.3897 47.6724L59.9987 49.3631L63.6832 51.3176L67.4272 53.5337L71.2141 56.0077L75.0278 58.7351L78.8521 61.7102L82.671 64.9264L86.4685 68.376L90.2293 72.0502L93.9381 75.9393L97.5803 80.0327L101.142 84.3189L104.608 88.7855L107.967 93.4194L111.206 98.2064L114.313 103.132L117.277 108.181L120.088 113.337L122.737 118.584L125.214 123.905L127.513 129.283L129.627 134.699L131.55 140.137L133.277 145.577L134.805 151.002L136.131 156.392L137.253 161.731L138.17 166.999L138.884 172.178L139.394 177.251L139.703 182.2L139.816 187.007L139.735 191.656L139.466 196.131L139.015 200.415L138.39 204.495L137.597 208.354L136.646 211.981L135.545 215.361L134.306 218.483L132.938 221.335L131.453 223.908L129.863 226.193L128.18 228.18L126.418 229.864L124.588 231.237L122.706 232.296L120.784 233.036L118.837 233.455L116.879 233.551L114.924 233.323L112.985 232.773L111.078 231.903L109.215 230.716L107.412 229.215L105.68 227.407L104.034 225.298L102.485 222.895L101.046 220.206L99.7295 217.243L98.5454 214.014L97.5045 210.533L96.6168 206.81L95.8911 202.859L95.3358 198.694L94.9584 194.33L94.7654 189.782L94.7626 185.067L94.9548 180.2L95.3458 175.199L95.9384 170.08L96.7347 164.863L97.7354 159.564L98.9406 154.202L100.349 148.795L101.958 143.362L103.766 137.921L105.767 132.489L107.957 127.087L110.33 121.73L112.878 116.437L115.594 111.225L118.468 106.11L121.492 101.11L124.654 96.2389L127.943 91.5125L131.348 86.9451L134.855 82.5505L138.45 78.3413L142.122 74.3298L145.853 70.527L149.631 66.9432L153.439 63.5877L157.262 60.4688L161.084 57.5938L164.889 54.969L168.66 52.5996L172.382 50.4897L176.038 48.6424L179.611 47.0597L183.086 45.7425L186.447 44.6905L189.679 43.9026L192.765 43.3763L195.692 43.1084L198.444 43.0943L201.009 43.3288L203.372 43.8054L205.522 44.5168L207.446 45.4549L209.134 46.6105L210.574 47.9738L211.759 49.5342L212.68 51.2802L213.328 53.1999L213.698 55.2806L213.784 57.5092L213.581 59.872L213.087 62.3549L212.299 64.9436L211.215 67.6232L209.837 70.3788L208.164 73.1954L206.199 76.0576L203.946 78.9503L201.408 81.8584L198.592 84.7667L195.504 87.6604L192.151 90.5248L188.543 93.3457L184.689 96.1091L180.6 98.8015L176.287 101.41L171.764 103.922L167.042 106.325L162.137 108.61L157.064 110.764L151.837 112.778L146.474 114.644L140.99 116.353L135.404 117.898L129.733 119.273L123.995 120.472L118.208 121.491L112.391 122.327L106.563 122.976L100.743 123.438L94.9496 123.711L89.2015 123.796L83.5174 123.696L77.916 123.411L72.4153 122.946L67.0333 122.304L61.7874 121.492L56.6945 120.515L51.7711 119.381L47.033 118.097L42.4954 116.671L38.1726 115.115L34.0783 113.437L30.2252 111.648L26.6253 109.76L23.2895 107.786L20.2279 105.737L17.4495 103.627L14.9622 101.469L12.7728 99.2763L10.8873 97.0638L9.31026 94.8453L8.04525 92.6352L7.09467 90.4479L6.4598 88.2978L6.14075 86.1994L6.13648 84.1668L6.44481 82.2141L7.06242 80.3551L7.98492 78.6032L9.2068 76.9714L10.7215 75.4723L12.5213 74.1181L14.5978 72.9201L16.9412 71.8894L19.5412 71.0361L22.3863 70.3697L25.4643 69.8988L28.7622 69.6314L32.2663 69.5744L35.9623 69.7339L39.8351 70.1151L43.8693 70.7221L48.0488 71.5584L52.3573 72.6259L56.7778 73.926L61.2936 75.4587L65.8872 77.2232L70.5413 79.2175L75.2385 81.4388L79.9613 83.8828L84.6925 86.5447L89.4147 89.4182L94.111 92.4964L98.7647 95.7713L103.359 99.2338L107.879 102.874L112.309 106.681L116.633 110.644L120.838 114.75L124.909 118.986L128.835 123.337L132.602 127.791L136.199 132.331L139.616 136.942L142.842 141.607L145.871 146.312L148.692 151.038L151.301 155.768L153.69 160.487L155.855 165.175L157.793 169.815L159.5 174.391L160.975 178.885L162.217 183.28L163.227 187.557L164.006 191.702L164.557 195.698L164.883 199.529L164.988 203.178L164.878 206.633L164.56 209.877L164.039 212.899L163.326 215.684L162.428 218.221L161.354 220.5L160.117 222.508L158.725 224.238L157.192 225.681L155.529 226.829L153.75 227.676L151.866 228.218L149.892 228.449L147.842 228.366L145.73 227.969L143.569 227.256L141.375 226.227L139.161 224.884L136.943 223.23L134.734 221.269L132.549 219.005L130.401 216.445L128.305 213.596L126.273 210.465L124.319 207.063L122.455 203.399L120.693 199.485L119.044 195.333L117.519 190.955L116.128 186.366L114.88 181.581L113.784 176.614L112.847 171.482L112.077 166.2L111.479 160.787L111.058 155.26L110.819 149.636L110.764 143.934L110.896 138.173L111.216 132.371L111.724 126.548L112.42 120.721L113.301 114.91L114.365 109.133L115.608 103.41L117.026 97.7581L118.612 92.1957L120.361 86.7404L122.265 81.4094L124.315 76.2192L126.502 71.1861L128.817 66.3253L131.248 61.6516L133.785 57.179L136.416 52.9206L139.127 48.8887L141.906 45.0948L144.739 41.5493L147.612 38.2616L150.511 35.2402L153.42 32.4926L156.326 30.0251L159.212 27.843L162.065 25.9504L164.868 24.3504L167.606 23.0448L170.264 22.0346L172.828 21.3194L175.282 20.8978L177.613 20.7672L179.806 20.9239L181.848 21.3634L183.726 22.0799L185.427 23.0666L186.94 24.3159L188.252 25.8189L189.355 27.5663L190.238 29.5475L190.892 31.7513L191.309 34.1658L191.482 36.7782L191.405 39.5751L191.074 42.5427L190.483 45.6664L189.63 48.9313L188.512 52.3222L187.129 55.8233L185.48 59.4188L183.568 63.0924L181.393 66.828L178.96 70.6092L176.273 74.4197L173.336 78.2434L170.158 82.0642L166.745 85.8662L163.106 89.6338L159.251 93.3519L155.189 97.0057L150.933 100.581L146.494 104.064L141.886 107.441L137.122 110.699L132.218 113.828L127.187 116.816L122.047 119.652L116.813 122.327L111.503 124.832L106.133 127.16L100.722 129.304L95.2865 131.257L89.8455 133.016L84.4172 134.576L79.0199 135.934L73.6719 137.089L68.3915 138.039L63.1968 138.784L58.1059 139.327L53.1363 139.668L48.3054 139.811L43.6299 139.761L39.1263 139.522L34.8105 139.099L30.6975 138.501L26.8019 137.734L23.1376 136.808L19.7175 135.731L16.5537 134.512L13.6575 133.164L11.0393 131.697L8.70838 130.123L6.67306 128.454L4.94063 126.704L3.5173 124.884L2.40818 123.009L1.61722 121.093L1.14726 119.149L1 117.192L1.17597 115.235L1.67451 113.293L2.49387 111.379L3.63108 109.509L5.08208 107.695L6.84166 105.951L8.90355 104.29L11.2604 102.725L13.9036 101.268L16.824 99.9311L20.011 98.7251L23.4533 97.6607L27.1388 96.748L31.0542 95.9959L35.1858 95.413L39.5189 95.0068L44.0384 94.784L48.7284 94.7505L53.5723 94.9114L58.5534 95.2705L63.6542 95.8309L68.8572 96.5946L74.1444 97.5628L79.4975 98.7355L84.8984 100.112L90.3285 101.689L95.7697 103.465L101.204 105.436L106.612 107.597L111.977 109.941L117.282 112.461L122.508 115.151L127.639 118.001L132.659 121.001L137.551 124.142L142.302 127.412L146.895 130.799L151.318 134.29L155.558 137.873L159.602 141.533L163.438 145.256L167.058 149.027L170.45 152.832L173.607 156.653L176.521 160.477L179.186 164.285L181.597 168.063L183.748 171.794L185.637 175.461L187.262 179.049L188.622 182.541L189.716 185.921L190.546 189.174L191.114 192.285L191.423 195.238L191.477 198.019L191.281 200.614L190.843 203.01L190.168 205.195L189.266 207.156L188.144 208.882L186.813 210.363L185.284 211.589L183.566 212.552L181.673 213.244L179.618 213.659L177.412 213.79L175.069 213.634L172.604 213.186L170.032 212.445L167.366 211.408L164.621 210.077L161.813 208.45L158.957 206.532L156.068 204.324L153.162 201.832L150.252 199.06L147.355 196.014L144.485 192.703L141.657 189.135L138.883 185.32L136.179 181.267L133.556 176.989L131.028 172.498L128.606 167.808L126.302 162.931L124.127 157.883L122.09 152.68L120.199 147.337L118.465 141.871L116.893 136.3L115.491 130.642L114.263 124.913L113.215 119.132L112.35 113.319L111.671 107.492L111.18 101.669L110.877 95.8702L110.761 90.1136L110.833 84.4181L111.088 78.8022L111.525 73.2843L112.139 67.8822L112.924 62.6134L113.875 57.495L114.985 52.5436L116.246 47.775L117.649 43.2044L119.186 38.8464L120.845 34.7148L122.617 30.8225L124.489 27.1815L126.451 23.803L128.489 20.6971L130.59 17.873L132.742 15.3388L134.929 13.1015L137.14 11.1673L139.358 9.54084L141.571 8.22594L143.762 7.22517L145.919 6.53999L148.027 6.17067L150.071 6.11638L152.037 6.37511L153.912 6.94374L155.682 7.81803L157.334 8.99265L158.855 10.4612L160.233 12.2162L161.456 14.2492L162.515 16.5508L163.397 19.1107L164.094 21.9175L164.596 24.9593L164.896 28.223L164.987 31.6953L164.863 35.3617L164.517 39.2074L163.946 43.217L163.147 47.3744L162.116 51.6635L160.853 56.0673L159.357 60.5691L157.63 65.1515L155.672 69.7971L153.487 74.4886L151.078 79.2086L148.45 83.9396L145.61 88.6644L142.564 93.3659L139.32 98.0275L135.886 102.633L132.274 107.166L128.492 111.611L124.553 115.953L120.47 120.177L116.254 124.271L111.92 128.22L107.481 132.013L102.954 135.638L98.3536 139.084L93.6954 142.342L88.9961 145.403L84.2724 148.258L79.5413 150.9L74.82 153.325L70.126 155.526L65.4765 157.5L60.8891 159.244L56.3811 160.756L51.9698 162.035L47.6722 163.082L43.5049 163.898L39.4844 164.485L35.6267 164.846L31.9471 164.986L28.4607 164.91L25.1818 164.625L22.124 164.136L19.3002 163.453L16.7226 162.583L14.4024 161.537L12.3502 160.325L10.5753 158.957L9.08633 157.446L7.89079 155.803L6.99516 154.041L6.40484 152.173L6.12416 150.213L6.15632 148.174L6.50341 146.07L7.16633 143.916L8.1449 141.726L9.43774 139.515L11.0423 137.296L12.9551 135.085L15.1711 132.895L17.6846 130.741L20.4885 128.635L23.5749 126.593L26.9345 124.625L30.5573 122.746L34.4323 120.967L38.5475 119.299L42.8899 117.754L47.446 116.341L52.2011 115.069L57.1402 113.949L62.2473 112.986L67.506 112.189L72.8993 111.563L78.4097 111.114L84.0192 110.845L89.7097 110.761L95.4626 110.863L101.259 111.153L107.081 111.631L112.908 112.297L118.723 113.149L124.506 114.184L130.239 115.399L135.904 116.789L141.482 118.349L146.955 120.073L152.307 121.952L157.521 123.979L162.58 126.145L167.469 128.441L172.174 130.854L176.679 133.375L180.973 135.992L185.041 138.691L188.874 141.46L192.46 144.285L195.789 147.153L198.853 150.048L201.645 152.957L204.157 155.865L206.385 158.755L208.324 161.614L209.971 164.426L211.323 167.175L212.381 169.847L213.143 172.427L213.611 174.9L213.788 177.252L213.676 179.468L213.282 181.534L212.609 183.439L211.665 185.169L210.457 186.713L208.993 188.058L207.284 189.195L205.34 190.113L203.17 190.804L200.789 191.259L198.207 191.472L195.439 191.435L192.497 191.145L189.397 190.595L186.154 189.784L182.782 188.708L179.297 187.368L175.716 185.761L172.054 183.891L168.327 181.758L164.552 179.365L160.745 176.718L156.922 173.821L153.1 170.681L149.294 167.305L145.52 163.701L141.793 159.879L138.128 155.85L134.539 151.624L131.041 147.213L127.646 142.631L124.368 137.891L121.218 133.008L118.207 127.997L115.346 122.873L112.645 117.653L110.112 112.354L107.755 106.992L105.582 101.586L103.598 96.1535L101.807 90.7122L100.216 85.2806L98.8253 79.8771L97.6383 74.5199L96.6557 69.2276L95.8776 64.018L95.3029 58.9094L94.9297 53.9193L94.755 49.0651L94.7749 44.3638L94.9845 39.8317L95.378 35.4849L95.9487 31.3386L96.6892 27.4075L97.5909 23.7054L98.6449 20.2456L99.8412 17.0402L101.169 14.1007L102.618 11.4375L104.176 9.06025L105.831 6.97734L107.569 5.19622L109.379 3.7233L111.246 2.56383L113.156 1.72197L115.097 1.20074L117.053 1.00202L119.011 1.12653L120.956 1.57379L122.875 2.34222L124.753 3.42904L126.577 4.83039L128.333 6.54123L130.008 8.55544L131.589 10.8658L133.064 13.4641L134.421 16.341L135.649 19.4863L136.736 22.8888L137.674 26.5363L138.452 30.416L139.062 34.5142L139.497 38.8163L139.75 43.3071L139.814 47.971L139.684 52.7916L139.357 57.752L138.829 62.8349L138.097 68.0229L137.162 73.2978L136.022 78.6417L134.678 84.0362L133.132 89.4629L131.387 94.9036L129.447 100.34L127.317 105.754L125.001 111.127L122.508 116.442L119.845 121.682L117.02 126.829L114.043 131.868L110.924 136.782L107.674 141.556L104.305 146.175L100.829 150.626L97.2599 154.896L93.6112 158.972L89.8971 162.842L86.1325 166.497L82.3324 169.926L78.5125 173.121L74.6885 176.074L70.8765 178.779L67.0927 181.231L63.3533 183.424L59.6748 185.355L56.0734 187.022L52.5651 188.424L49.166 189.56L45.8916 190.432L42.7575 191.041L39.7784 191.391L36.969 191.486L34.3432 191.33L31.9144 190.929L29.6953 190.292L27.6981 189.425L25.9339 188.338L24.4133 187.039L23.1459 185.541L22.1404 183.853L21.4047 181.987L20.9454 179.956L20.7686 177.773L20.8788 175.451L21.2799 173.005L21.9743 170.449L22.9637 167.796L24.2484 165.063L25.8278 162.265L27.6998 159.415L29.8617 156.531L32.3093 153.626L35.0373 150.716L38.0396 147.816L41.3088 144.941L44.8365 142.104L48.6132 139.321L52.6287 136.605L56.8715 133.968L61.3294 131.424L65.9893 128.985L70.8374 126.662L75.8589 124.465L81.0385 122.405L86.3602 120.491L91.8072 118.731L97.3626 117.133L103.009 115.703L108.728 114.447L114.501 113.371L120.31 112.476L126.136 111.768L131.961 111.246L137.765 110.913L143.53 110.768L149.236 110.809L154.866 111.036L160.401 111.444L165.822 112.03L171.114 112.788L176.257 113.713L181.236 114.798L186.035 116.036L190.638 117.417L195.031 118.933L199.199 120.573L203.131 122.328L206.812 124.185L210.233 126.134L213.383 128.16L216.253 130.252L218.834 132.397L221.119 134.58L223.102 136.787L224.777 139.005L226.142 141.22L227.193 143.416L227.928 145.579L228.348 147.696L228.452 149.751L228.243 151.731L227.724 153.621L226.898 155.408L225.771 157.08L224.348 158.622L222.639 160.024L220.649 161.273L218.39 162.358L215.87 163.269L213.102 163.996L210.097 164.53L206.867 164.863L203.427 164.988L199.791 164.898L195.973 164.588L191.988 164.053L187.853 163.29L183.584 162.296L179.198 161.071L174.71 159.612L170.14 157.921L165.503 156L160.817 153.85L156.101 151.477L151.371 148.884L146.644 146.077L141.937 143.063L137.268 139.85L132.653 136.446L128.107 132.861L123.647 129.106L119.288 125.191L115.044 121.13L110.928 116.934L106.955 112.618L103.137 108.195L99.4841 103.681L96.0088 99.091L92.7204 94.4409L89.628 89.7471L86.7398 85.0261L84.0629 80.295L81.6033 75.571L79.3662 70.8714L77.3558 66.2137L75.575 61.6152L74.0259 57.0934L72.7095 52.6656L71.6256 48.3487L70.7732 44.1595L70.15 40.1146L69.753 36.2298L69.5781 32.5209L69.62 29.0027L69.8729 25.6898L70.3297 22.5959L70.9826 19.734L71.823 17.1164L72.8416 14.7545L74.028 12.6589L75.3716 10.8393L76.8609 9.30424L78.4837 8.06151L80.2276 7.11772L82.0795 6.47845L84.0261 6.14821L86.0535 6.13038L88.1477 6.42722L90.2946 7.03983L92.4797 7.96818L94.6887 9.21112L96.9071 10.7663L99.1205 12.6302L101.315 14.7983L103.476 17.2649L105.59 20.0231L107.643 23.065L109.624 26.3818L111.518 29.9634L113.314 33.7991L115 37.8768L116.565 42.184L118 46.707L119.295 51.4314L120.44 56.3423L121.428 61.4237L122.252 66.6594L122.906 72.0325L123.383 77.5254L123.681 83.1203L123.795 88.7992L123.722 94.5434L123.462 100.334L123.014 106.153L122.378 111.981L121.556 117.799L120.55 123.589L119.363 129.331L118 135.008L116.467 140.6L114.769 146.092L112.914 151.464L110.91 156.701L108.765 161.786L106.49 166.703L104.094 171.438L101.59 175.976L98.9877 180.304L96.3008 184.409L93.542 188.28L90.7247 191.906L87.8629 195.277L84.9708 198.384L82.063 201.219L79.1544 203.777L76.2602 206.05L73.3953 208.036L70.575 209.729L67.8146 211.129L65.1292 212.233L62.5337 213.042L60.0428 213.557L57.6711 213.78L55.4326 213.714L53.341 213.364L51.4095 212.735L49.6509 211.834L48.0771 210.667L46.6995 209.244L45.5289 207.573L44.5753 205.665L43.8476 203.531L43.3542 201.183L43.1024 198.632L43.0988 195.892L43.3487 192.977L43.8567 189.902L44.6261 186.68L45.6594 183.328L46.9579 179.86L48.5219 176.293L50.3506 172.642L52.4421 168.925L54.7933 165.156L57.4003 161.353L60.2578 157.532L63.3598 153.709L66.6989 149.899L70.2669 146.119L74.0545 142.383L78.0517 138.707L82.2473 135.106L86.6293 131.592L91.1849 128.18L95.9005 124.882L100.762 121.711L105.754 118.677L110.861 115.792L116.066 113.065L121.354 110.504L126.707 108.119L132.107 105.916L137.537 103.901L142.978 102.08L148.412 100.456L153.822 99.0336L159.187 97.8141L164.491 96.799L169.715 95.9883L174.841 95.3813L179.851 94.9762L184.728 94.7702L189.455 94.7594L194.015 94.9391L198.392 95.3037L202.571 95.8467L206.538 96.5607L210.277 97.4373L213.777 98.4677L217.023 99.6421L220.006 100.95L222.714 102.38L225.137 103.922L227.267 105.562L229.097 107.288L230.619 109.087L231.829 110.945L232.722 112.85L233.294 114.787L233.544 116.741L233.471 118.7L233.075 120.648L232.358 122.572L231.322 124.458L229.97 126.291L228.308 128.059L226.342 129.748L224.078 131.345L221.525 132.837L218.692 134.214L215.589 135.463L212.226 136.573L208.617 137.535L204.773 138.34L200.709 138.977L196.438 139.441L191.977 139.722L187.339 139.817L182.542 139.718L177.603 139.423L172.539 138.927L167.366 138.228L162.104 137.325L156.77 136.217L151.382 134.906L145.959 133.392L140.52 131.679L135.081 129.769L129.663 127.669L124.282 125.383L118.956 122.917L113.704 120.281L108.54 117.481L103.483 114.527L98.5486 111.43L93.7513 108.2L89.1062 104.849L84.6274 101.39L80.3281 97.8344L76.2207 94.1975L72.3169 90.4929L68.6272 86.7353L65.1616 82.9398L61.9286 79.1219L58.9363 75.2975L56.1912 71.4825L53.6992 67.6931L51.4649 63.9456L49.4918 60.2563L47.7825 56.6415L46.3384 53.1173L45.1598 49.6997L44.2459 46.4044L43.595 43.2469L43.2041 40.2422L43.0693 37.4048L43.1858 34.7488L43.5476 32.2878L44.1478 30.0345L44.9786 28.0011L46.0315 26.1991L47.2968 24.639L48.7644 23.3307L50.4232 22.2829L52.2614 21.5037L54.2668 21.0001L56.4265 20.7779L58.7269 20.8421L61.1542 21.1967L63.6941 21.8443L66.3321 22.7866L69.0533 24.0244L71.8426 25.5569L74.6849 27.3825L77.5649 29.4984L80.4675 31.9008L83.3776 34.5846L86.2801 37.5437L89.1603 40.7709L92.0038 44.258L94.7964 47.9958L97.5243 51.9739L100.174 56.1813L102.734 60.6059L105.191 65.2346L107.533 70.0537L109.751 75.0486L111.833 80.2041L113.771 85.5042L115.556 90.9324L117.18 96.4717L118.637 102.105L119.921 107.813L121.027 113.579L121.95 119.384L122.689 125.209L123.24 131.035L123.603 136.843L123.778 142.616L123.766 148.333L123.569 153.976L123.19 159.527L122.632 164.968L121.901 170.281L121.002 175.449L119.942 180.455L118.728 185.284L117.369 189.919L115.874 194.346L114.252 198.552L112.515 202.522L110.673 206.244L108.739 209.707L106.724 212.901L104.641 215.816L102.505 218.443L100.327 220.776L98.1221 222.807L95.9047 224.532L93.6887 225.946L91.4888 227.047L89.3191 227.833L87.1943 228.303L85.1285 228.458L83.1359 228.298L81.2304 227.828L79.4256 227.05L77.7348 225.971L76.1708 224.595L74.7459 222.931L73.4719 220.985L72.36 218.768L71.4207 216.289L70.6639 213.56L70.0985 210.592L69.733 207.397L69.5746 203.99L69.6299 200.383L69.9046 196.593L70.4033 192.634L71.1297 188.522L72.0865 184.273L73.2754 179.904L74.697 175.432L76.3509 170.873L78.2357 166.246L80.349 161.567L82.6871 156.854L85.2456 152.125L88.0188 147.396L91.0002 142.685L94.1821 138.009L97.5562 133.384L101.113 128.827L104.842 124.352L108.732 119.976L112.771 115.712L116.946 111.575L121.244 107.578L125.651 103.734L130.151 100.055L134.73 96.5504L139.372 93.2316L144.06 90.1075L148.777 87.1863L153.508 84.4752L158.234 81.9807L162.939 79.7078L167.605 77.6611L172.214 75.8436L176.749 74.2575L181.193 72.904L185.528 71.7831L189.739 70.8939L193.808 70.2344L197.719 69.8017L201.457 69.5916L205.007 69.5994L208.353 69.8191L211.483 70.2439L214.383 70.8662L217.04 71.6774L219.443 72.6682L221.582 73.8287L223.446 75.148L225.027 76.6148L226.317 78.2172L227.309 79.9427L227.997 81.7783L228.376 83.7107L228.444 85.7262L228.198 87.8107L227.635 89.9502L226.757 92.1302L225.564 94.3363L224.059 96.5542L222.244 98.7693L220.123 100.968L217.704 103.135L214.992 105.257L211.994 107.321L208.721 109.314L205.181 111.223L201.385 113.035L197.345 114.74L193.073 116.325L188.584 117.781L183.89 119.099L179.008 120.268L173.953 121.282L168.741 122.133L163.388 122.814L157.913 123.32L152.333 123.646L146.667 123.79L140.932 123.747L135.147 123.517L129.331 123.099L123.503 122.492L117.683 121.7L111.887 120.723L106.136 119.564L100.448 118.229L94.8406 116.723L89.332 115.051L83.9395 113.22L78.68 111.239L73.5699 109.116L68.6249 106.861L63.86 104.484L59.2897 101.996L54.9274 99.4086L50.7858 96.7344L46.8768 93.9861L43.2114 91.1772L39.7994 88.3215L36.6498 85.4332L33.7705 82.527L31.1685 79.6175L28.8494 76.7199L26.818 73.8494L25.0779 71.021L23.6315 68.25L22.4802 65.5516L21.6241 62.9408L21.0625 60.4323L20.7932 58.0406L20.8132 55.78L21.1183 53.6641L21.7032 51.7063L22.5617 49.9192L23.6865 48.3152L25.0694 46.9057L26.7013 45.7014L28.5721 44.7126L30.671 43.9483L32.9864 43.4171L35.5058 43.1264L38.2163 43.0828L41.1041 43.2921L44.155 43.7586L47.3544 44.4862L50.687 45.4774L54.1374 46.7336L57.6898 48.2554L61.3281 50.0421L65.0361 52.0918L68.7975 54.402L72.596 56.9685L76.4154 59.7866L80.2396 62.85L84.0525 66.1519L87.8385 69.684L91.5821 73.4374L95.2684 77.4019L98.8829 81.5667L102.411 85.9199L105.841 90.4487L109.157 95.1398L112.35 99.9789L115.406 104.951L118.316 110.041L121.069 115.232L123.656 120.508L126.07 125.851L128.302 131.245L130.347 136.671L132.2 142.112L133.855 147.549L135.31 152.963L136.562 158.337L137.61 163.652L138.453 168.89L139.092 174.033L139.529 179.062L139.767 183.962L139.808 188.713L139.659 193.301L139.323 197.709L138.808 201.92L138.121 205.922L137.269 209.698L136.263 213.237L135.111 216.524L133.823 219.55L132.412 222.302L130.887 224.771L129.262 226.949L127.549 228.827L125.761 230.398L123.911 231.658L122.012 232.602L120.08 233.225L118.127 233.527L116.168 233.505L114.217 233.161L112.289 232.494L110.396 231.509L108.553 230.207L106.774 228.594L105.072 226.676L103.46 224.459L101.95 221.951L100.554 219.162L99.2838 216.101L98.1505 212.779L97.1641 209.209L96.3342 205.401L95.6694 201.371L95.1779 197.132L94.8667 192.7L94.7421 188.09L94.8096 183.317L95.0735 178.399L95.5374 173.354L96.2038 168.197L97.0742 162.948L98.1493 157.624L99.4283 152.244L100.91 146.825L102.592 141.387L104.47 135.947L106.541 130.524L108.798 125.136L111.235 119.801L113.845 114.535L116.619 109.357L119.549 104.282L122.624 99.3262L125.834 94.506L129.166 89.8357L132.609 85.3295L136.15 81.0007L139.775 76.8619L143.47 72.9249L147.22 69.2005L151.01 65.6985L154.826 62.428L158.65 59.3968L162.468 56.612L166.262 54.0793L170.018 51.8037L173.717 49.7888L177.345 48.0374L180.885 46.5509L184.32 45.3301L187.636 44.3741L190.816 43.6815L193.847 43.2494L196.712 43.0742L199.397 43.151L201.89 43.4741L204.177 44.0368L206.247 44.8315L208.086 45.8496L209.686 47.0818L211.035 48.5179L212.124 50.147L212.947 51.9575L213.495 53.9371L213.762 56.0731L213.744 58.352L213.436 60.76L212.835 63.283L211.94 65.9064L210.749 68.6153L209.263 71.3948L207.484 74.2297L205.414 77.1047L203.057 80.0048L200.418 82.9147L197.502 85.8194L194.317 88.7041L190.871 91.5544L187.172 94.356L183.232 97.0952L179.06 99.7586L174.669 102.333L170.072 104.807L165.282 107.169L160.315 109.407L155.184 111.511L149.906 113.473L144.497 115.283L138.974 116.933L133.355 118.417L127.657 119.729L121.899 120.863L116.099 121.816L110.276 122.584L104.449 123.165L98.6364 123.559L92.8571 123.764L87.1301 123.781L81.474 123.613L75.907 123.263L70.4473 122.733L65.1127 122.029L59.9204 121.156L54.8872 120.121L50.0293 118.932L45.3622 117.595L40.9009 116.121L36.6595 114.519L32.6513 112.8L28.8888 110.974L25.3835 109.053L22.1462 107.05L19.1864 104.978L16.5127 102.848L14.1328 100.676L12.0531 98.4749L10.2791 96.2586L8.81491 94.0414L7.66381 91.8379L6.82773 89.6625L6.30753 87.5295L6.1029 85.4534L6.21239 83.4482L6.63342 81.5279L7.36226 79.7062L8.39411 77.9963L9.72306 76.4113L11.3422 74.9635L13.2435 73.6646L15.418 72.5262L17.8558 71.5587L20.5461 70.7722L23.4771 70.1758L26.6365 69.7779L30.0109 69.586L33.5863 69.6069L37.3483 69.8463L41.2815 70.3091L45.3703 70.999L49.5985 71.919L53.9496 73.0708L58.4067 74.4554L62.9527 76.0724L67.5703 77.9206L72.242 79.9977L76.9505 82.3003L81.6784 84.824L86.4083 87.5635L91.1231 90.5122L95.8058 93.6627L100.44 97.0068L105.009 100.535L109.498 104.237L113.891 108.102L118.174 112.118L122.332 116.273L126.352 120.552L130.221 124.943L133.927 129.429L137.46 133.997L140.809 138.629L143.965 143.311L146.919 148.025L149.664 152.755L152.193 157.483L154.502 162.192L156.585 166.865L158.439 171.485L160.062 176.033L161.453 180.492L162.61 184.846L163.536 189.078L164.232 193.171L164.701 197.108L164.946 200.875L164.973 204.455L164.786 207.835L164.394 211L163.802 213.937L163.021 216.634L162.058 219.079L160.924 221.26L159.629 223.169L158.185 224.795L156.603 226.132L154.896 227.172L153.077 227.908L151.16 228.337L149.156 228.455L147.082 228.259L144.95 227.747L142.776 226.919L140.573 225.776L138.356 224.32L136.139 222.554L133.937 220.482L131.764 218.11L129.634 215.444L127.559 212.491L125.555 209.261L123.632 205.763L121.803 202.007L120.081 198.005L118.476 193.769L116.998 189.313L115.658 184.652L114.464 179.798L113.425 174.77L112.548 169.581L111.84 164.25L111.305 158.793L110.95 153.229L110.777 147.575L110.79 141.849L110.99 136.071L111.379 130.259L111.955 124.432L112.718 118.609L113.666 112.808L114.796 107.049L116.103 101.349L117.583 95.728L119.229 90.2025L121.035 84.7903L122.992 79.5085L125.093 74.3735L127.328 69.4012L129.686 64.6066L132.157 60.0044L134.73 55.608L137.391 51.4305L140.128 47.4837L142.929 43.7788L145.778 40.3258L148.662 37.1338L151.566 34.211L154.476 31.5644L157.377 29.1999L160.252 27.1224L163.089 25.3357L165.87 23.8424L168.581 22.6441L171.206 21.741L173.732 21.1326L176.143 20.8169L178.426 20.7911L180.566 21.051L182.55 21.5918L184.365 22.4072L185.999 23.4901L187.44 24.8325L188.677 26.4254L189.701 28.2589L190.502 30.3222L191.071 32.6039L191.4 35.0917L191.483 37.7727L191.315 40.6332L190.89 43.6591L190.204 46.8358L189.255 50.1483L188.041 53.581L186.561 57.1182L184.817 60.7439L182.809 64.4419L180.54 68.1959L178.014 71.9896L175.235 75.8068L172.211 79.6313L168.946 83.4471L165.45 87.2384L161.731 90.9898L157.8 94.6863L153.666 98.3131L149.342 101.856L144.84 105.302L140.174 108.638L135.358 111.85L130.406 114.929L125.334 117.863L120.158 120.642L114.894 123.256L109.56 125.698L104.173 127.96L98.7509 130.035L93.3115 131.918L87.873 133.605L82.4538 135.092L77.0722 136.377L71.7466 137.457L66.4953 138.333L61.3362 139.004L56.2873 139.474L51.366 139.743L46.5896 139.815L41.9747 139.696L37.5374 139.389L33.2935 138.902L29.2578 138.242L25.4446 137.416L21.8674 136.434L18.5389 135.304L15.471 134.038L12.6746 132.645L10.1596 131.138L7.9351 129.528L6.00893 127.828L4.38804 126.05L3.07821 124.209L2.08416 122.318L1.40944 120.39L1.05646 118.439L1.02651 116.481L1.31968 114.527L1.93493 112.594L2.87004 110.695L4.12167 108.843L5.68533 107.053L7.55542 105.338L9.72524 103.71L12.1871 102.183L14.932 100.768L17.9504 99.4777L21.2315 98.3219L24.7635 97.3115L28.5339 96.456L32.5295 95.7644L36.7359 95.2447L41.1385 94.9044L45.7217 94.7497L50.4695 94.7862L55.3652 95.0186L60.3918 95.4505L65.5317 96.0845L70.7673 96.9224L76.0805 97.9648L81.4531 99.2115L86.8668 100.661L92.3031 102.311L97.7437 104.159L103.17 106.199L108.565 108.426L113.91 110.835L119.188 113.418L124.382 116.167L129.474 119.073L134.45 122.126L139.293 125.315L143.988 128.628L148.521 132.055L152.879 135.581L157.049 139.193L161.019 142.878L164.778 146.62L168.315 150.405L171.623 154.218L174.693 158.042L177.518 161.861L180.091 165.661L182.408 169.423L184.464 173.133L186.258 176.773L187.787 180.328L189.05 183.781L190.048 187.117L190.782 190.32L191.256 193.375L191.471 196.268L191.434 198.983L191.15 201.507L190.625 203.828L189.867 205.933L188.884 207.81L187.685 209.448L186.28 210.838L184.681 211.969L182.899 212.835L180.945 213.427L178.834 213.739L176.576 213.767L174.188 213.505L171.682 212.951L169.074 212.103L166.378 210.959L163.608 209.52L160.781 207.788L157.912 205.764L155.015 203.452L152.105 200.858L149.199 197.985L146.31 194.843L143.453 191.438L140.643 187.779L137.893 183.876L135.217 179.74L132.627 175.383L130.136 170.818L127.756 166.058L125.497 161.118L123.371 156.012L121.386 150.756L119.552 145.367L117.875 139.861L116.364 134.256L115.025 128.569L113.862 122.82L112.88 117.025L112.082 111.205L111.471 105.377L111.048 99.5609L110.813 93.775L110.766 88.0384L110.904 82.3697L111.226 76.7873L111.727 71.3093L112.404 65.9536L113.25 60.7375L114.26 55.6778L115.425 50.7909L116.739 46.0924L118.192 41.5974L119.774 37.32L121.476 33.2738L123.285 29.4714L125.192 25.9244L127.182 22.6437L129.245 19.6391L131.366 16.9193L133.532 14.4921L135.73 12.3642L137.945 10.5412L140.163 9.02744L142.369 7.82631L144.55 6.93997L146.691 6.36945L148.777 6.11463L150.794 6.17424L152.729 6.54586L154.567 7.22597L156.296 8.20994L157.902 9.49202L159.372 11.0654L160.695 12.9224L161.86 15.054L162.856 17.4506L163.672 20.1014L164.299 22.995L164.729 26.1188L164.954 29.4599L164.967 33.0043L164.763 36.7376L164.336 40.6445L163.683 44.7096L162.8 48.9168L161.685 53.2494L160.337 57.6908L158.757 62.2238L156.946 66.8311L154.905 71.4955L152.638 76.1993L150.149 80.9253L147.444 85.656L144.528 90.3743L141.409 95.0633L138.095 99.7063L134.595 104.287L130.92 108.79L127.08 113.199L123.087 117.5L118.954 121.679L114.694 125.722L110.32 129.616L105.848 133.349L101.292 136.91L96.6687 140.289L91.9937 143.476L87.2836 146.463L82.5553 149.242L77.8257 151.806L73.1123 154.15L68.4324 156.269L63.8035 158.16L59.2429 159.82L54.768 161.247L50.396 162.442L46.1438 163.405L42.0279 164.137L38.0646 164.642L34.2698 164.922L30.6587 164.983L27.246 164.831L24.0457 164.47L21.0714 163.91L18.3356 163.158L15.8502 162.223L13.6261 161.116L11.6735 159.846L10.0014 158.425L8.61814 156.864L7.53075 155.177L6.74537 153.375L6.26698 151.472L6.09953 149.481L6.24581 147.417L6.70748 145.294L7.48505 143.125L8.5779 140.926L9.98423 138.71L11.7011 136.492L13.7246 134.287L16.0493 132.108L18.6691 129.97L21.5765 127.886L24.7631 125.869L28.2195 123.932L31.9352 122.088L35.8988 120.348L40.098 118.724L44.5196 117.225L49.1496 115.862L53.9733 114.645L58.9752 113.581L64.1393 112.677L69.4488 111.942L74.8866 111.379L80.4351 110.995L86.0761 110.793L91.7914 110.776L97.5624 110.946L103.37 111.305L109.196 111.851L115.021 112.585L120.827 113.503L126.594 114.604L132.304 115.884L137.939 117.336L143.481 118.956L148.913 120.737L154.216 122.671L159.376 124.75L164.375 126.964L169.199 129.303L173.833 131.757L178.263 134.314L182.476 136.962L186.46 139.688L190.204 142.479L193.698 145.322L196.932 148.201L199.898 151.103L202.589 154.013L204.999 156.916L207.122 159.797L208.956 162.641L210.496 165.432L211.741 168.155L212.691 170.795L213.347 173.338L213.709 175.768L213.78 178.072L213.566 180.236L213.069 182.245L212.297 184.088L211.256 185.752L209.955 187.224L208.401 188.495L206.605 189.554L204.578 190.39L202.33 190.997L199.874 191.365L197.223 191.488L194.39 191.359L191.39 190.975L188.236 190.331L184.944 189.424L181.53 188.252L178.008 186.815L174.395 185.113L170.708 183.147L166.962 180.919L163.173 178.434L159.359 175.695L155.534 172.709L151.716 169.482L147.92 166.023L144.161 162.339L140.455 158.44L136.816 154.338L133.259 150.044L129.796 145.569L126.442 140.928L123.209 136.135L120.108 131.203L117.151 126.149L114.347 120.989L111.706 115.738L109.236 110.414L106.945 105.034L104.839 99.6166L102.925 94.1786L101.207 88.7388L99.6877 83.3152L98.3709 77.9264L97.258 72.5907L96.3497 67.3263L95.6456 62.1513L95.1443 57.0837L94.8435 52.1409L94.74 47.3403L94.8293 42.6985L95.1064 38.2319L95.565 33.9561L96.1983 29.8862L96.9983 26.0367L97.9563 22.421L99.0632 19.0522L100.309 15.942L101.682 13.1016L103.172 10.5412L104.766 8.26984L106.453 6.29565L108.218 4.62572L110.05 3.26599L111.935 2.22138L113.858 1.49561L115.806 1.09128L117.764 1.00984L119.719 1.25159L121.656 1.81567L123.562 2.70004L125.422 3.90153L127.223 5.41585L128.951 7.23755L130.593 9.36014L132.137 11.776L133.571 14.4765L134.882 17.4521L136.06 20.6921L137.094 24.1849L137.975 27.9183L138.693 31.8789L139.241 36.0528L139.61 40.4252L139.795 44.9807L139.789 49.7033L139.588 54.5766L139.188 59.5835L138.587 64.7066L137.781 69.9282L136.771 75.2303L135.557 80.5946L134.14 86.003L132.522 91.4369L130.705 96.8781L128.696 102.308L126.497 107.709L124.117 113.064L121.561 118.353L118.838 123.562L115.956 128.671L112.927 133.666L109.759 138.531L106.464 143.251L103.055 147.811L99.5437 152.198L95.9441 156.398L92.27 160.401L88.5359 164.194L84.7566 167.768L80.9475 171.113L77.1242 174.221L73.3027 177.085L69.4991 179.699L65.7295 182.057L62.0104 184.155L58.358 185.991L54.7885 187.562L51.318 188.867L47.9623 189.907L44.7371 190.683L41.6575 191.198L38.7384 191.455L35.9941 191.458L33.4382 191.212L31.0841 190.725L28.9442 190.003L27.0303 189.055L25.3533 187.89L23.9235 186.518L22.7502 184.949L21.8418 183.195L21.2057 181.268L20.8483 179.181L20.7752 176.946L20.9906 174.577L21.4979 172.089L22.2993 169.496L23.3959 166.813L24.7877 164.054L26.4735 161.236L28.4512 158.372L30.7172 155.478L33.2673 152.57L36.0956 149.662L39.1957 146.769L42.5597 143.906L46.1789 141.087L50.0435 138.327L54.1429 135.638L58.4652 133.034L62.998 130.526L67.7279 128.128L72.6406 125.849L77.7213 123.701L82.9544 121.693L88.3235 119.834L93.8119 118.132L99.4023 116.594L105.077 115.227L110.818 114.036L116.606 113.025L122.424 112.198L128.252 111.557L134.071 111.103L139.863 110.839L145.609 110.761L151.289 110.87L156.887 111.163L162.382 111.636L167.759 112.285L172.998 113.105L178.084 114.089L182.999 115.23L187.729 116.521L192.257 117.952L196.57 119.514L200.654 121.198L204.496 122.991L208.085 124.883L211.408 126.861L214.458 128.913L217.223 131.025L219.698 133.185L221.874 135.379L223.745 137.592L225.309 139.81L226.56 142.02L227.496 144.206L228.117 146.354L228.422 148.449L228.413 150.479L228.09 152.428L227.459 154.282L226.523 156.029L225.288 157.655L223.761 159.148L221.948 160.496L219.86 161.686L217.505 162.709L214.894 163.555L212.038 164.213L208.95 164.675L205.643 164.933L202.13 164.98L198.425 164.811L194.545 164.42L190.504 163.803L186.319 162.956L182.005 161.878L177.58 160.568L173.06 159.025L168.463 157.25L163.807 155.246L159.108 153.015L154.385 150.561L149.654 147.889L144.932 145.007L140.237 141.919L135.586 138.636L130.994 135.165L126.478 131.517L122.053 127.703L117.734 123.734L113.535 119.622L109.469 115.381L105.551 111.024L101.791 106.567L98.2018 102.023L94.7932 97.4094L91.5749 92.7415L88.5558 88.0359L85.7435 83.3093L83.1448 78.5787L80.7654 73.8616L78.6102 69.1752L76.6828 64.5369L74.9859 59.9643L73.5212 55.4746L72.2892 51.0851L71.2895 46.8126L70.5206 42.6739L69.98 38.6853L69.6641 34.8626L69.5685 31.2212L69.6877 27.7759L70.0155 24.5409L70.5444 21.5297L71.2664 18.7551L72.1726 16.229L73.2533 13.9626L74.4981 11.9661L75.8959 10.2488L77.4351 8.81904L79.1033 7.68409L80.888 6.85023L82.7758 6.32267L84.7533 6.10549L86.8066 6.20165L88.9216 6.61302L91.084 7.3403L93.2794 8.38302L95.4935 9.7396L97.7117 11.4073L99.9198 13.3822L102.104 15.6594L104.249 18.2326L106.343 21.0948L108.371 24.2375L110.322 27.6516L112.181 31.3268L113.939 35.2517L115.583 39.4142L117.102 43.8013L118.487 48.3991L119.728 53.193L120.817 58.1677L121.747 63.307L122.509 68.5946L123.1 74.0131L123.512 79.5451L123.744 85.1727L123.79 90.8774L123.65 96.6408L123.322 102.444L122.805 108.268L122.101 114.095L121.212 119.905L120.14 125.679L118.889 131.4L117.463 137.048L115.869 142.606L114.114 148.056L112.204 153.381L110.147 158.565L107.954 163.591L105.634 168.443L103.197 173.109L100.656 177.572L98.0217 181.82L95.3071 185.842L92.5255 189.625L89.6904 193.159L86.8159 196.435L83.9164 199.445L81.0067 202.18L78.1016 204.635L75.2162 206.804L72.3657 208.684L69.5655 210.271L66.8305 211.563L64.176 212.561L61.6168 213.263L59.1675 213.671L56.8425 213.789L54.6558 213.62L52.6208 213.168L50.7506 212.439L49.0577 211.441L47.5538 210.18L46.2502 208.666L45.1572 206.908L44.2846 204.916L43.641 202.703L43.2345 200.279L43.0721 197.659L43.1599 194.854L43.503 191.879L44.1055 188.749L44.9705 185.478L46.1 182.082L47.4949 178.576L49.1551 174.977L51.0795 171.3L53.2656 167.562L55.7102 163.779L58.4088 159.968L61.3558 156.144L64.5447 152.324L67.9678 148.523L71.6167 144.757L75.4816 141.041L79.5521 137.391L83.8168 133.82L88.2633 130.341L92.8786 126.969L97.6488 123.716L102.559 120.593L107.595 117.612L112.74 114.783L117.977 112.116L123.29 109.618L128.662 107.298L134.075 105.163L139.511 103.218L144.952 101.468L150.379 99.9166L155.775 98.5674L161.12 97.422L166.397 96.4811L171.588 95.7445L176.674 95.2111L181.637 94.8786L186.462 94.7439L191.13 94.8029L195.626 95.0504L199.933 95.4806L204.036 96.0865L207.922 96.8605L211.576 97.794L214.985 98.8778L218.137 100.102L221.021 101.456L223.626 102.928L225.944 104.506L227.966 106.179L229.685 107.933L231.095 109.755L232.19 111.632L232.967 113.55L233.422 115.495L233.555 117.453L233.365 119.409L232.852 121.35L232.018 123.262L230.867 125.13L229.402 126.941L227.629 128.682L225.554 130.339L223.184 131.899L220.529 133.351L217.596 134.682L214.398 135.882L210.944 136.94L207.248 137.846L203.323 138.591L199.182 139.166L194.84 139.564L190.313 139.779L185.616 139.804L180.765 139.634L175.779 139.266L170.673 138.697L165.466 137.924L160.175 136.947L154.82 135.765L149.417 134.38L143.986 132.793L138.545 131.008L133.112 129.029L127.705 126.86L122.342 124.508L117.041 121.98L111.818 119.283L106.692 116.426L101.677 113.419L96.7908 110.272L92.0471 106.997L87.4608 103.605L83.0456 100.11L78.8146 96.5232L74.7797 92.86L70.9524 89.1344L67.343 85.3613L63.9609 81.5559L60.8144 77.7338L57.9111 73.911L55.2573 70.1034L52.8583 66.3273L50.7184 62.599L48.8409 58.9349L47.2277 55.3511L45.88 51.8638L44.7976 48.4888L43.9794 45.2417L43.4232 42.138L43.1258 39.1923L43.0829 36.4192L43.2891 33.8324L43.7382 31.4453L44.4231 29.2705L45.3356 27.3198L46.4667 25.6044L47.8067 24.1346L49.3449 22.9198L51.0702 21.9687L52.9706 21.2888L55.0335 20.8866L57.2458 20.7679L59.5939 20.9371L62.0638 21.3977L64.641 22.1522L67.3109 23.2017L70.0586 24.5465L72.8688 26.1857L75.7266 28.1171L78.6166 30.3375L81.5236 32.8426L84.4327 35.6271L87.3288 38.6844L90.1973 42.0069L93.0239 45.5861L95.7946 49.4124L98.4958 53.4751L101.115 57.7628L103.638 62.2629L106.055 66.9624L108.353 71.847L110.523 76.902L112.554 82.1118L114.437 87.4604L116.165 92.9309L117.729 98.5063L119.124 104.169L120.343 109.9L121.383 115.682L122.24 121.497L122.91 127.324L123.394 133.146L123.688 138.944L123.796 144.698L123.716 150.39L123.452 156.002L123.008 161.515L122.386 166.912L121.593 172.174L120.635 177.286L119.518 182.229L118.251 186.989L116.842 191.551L115.299 195.899L113.635 200.02L111.858 203.902L109.981 207.531L108.016 210.898L105.975 213.992L103.871 216.803L101.718 219.324L99.5289 221.548L97.318 223.469L95.0995 225.081L92.8877 226.382L90.697 227.369L88.542 228.04L86.4369 228.396L84.3961 228.436L82.4335 228.163L80.563 227.581L78.7981 226.693L77.1519 225.505L75.637 224.024L74.2655 222.256L73.0491 220.211L71.9986 217.898L71.1244 215.327L70.4361 212.509L69.9423 209.458L69.6512 206.184L69.5696 202.703L69.704 199.028L70.0595 195.175L70.6404 191.159L71.4502 186.995L72.4911 182.7L73.7644 178.292L75.2704 173.786L77.0084 169.201L78.9765 164.553L81.1718 159.859L83.5905 155.139L86.2276 150.408L89.0772 145.683L92.1323 140.983L95.385 136.324L98.8264 131.721L102.447 127.192L106.236 122.751L110.181 118.414L114.271 114.195L118.492 110.108L122.832 106.165L127.274 102.379L131.805 98.762L136.408 95.324L141.069 92.0748L145.769 89.0234L150.494 86.1777L155.225 83.5445L159.945 81.1299L164.638 78.9387L169.285 76.9748L173.869 75.2411L178.373 73.7393L182.78 72.4703L187.072 71.4336L191.233 70.6281L195.247 70.0513L199.097 69.6999L202.768 69.5696L206.246 69.655L209.515 69.95L212.563 70.4474L215.376 71.1392L217.942 72.0167L220.251 73.0703L222.291 74.2897L224.053 75.6639L225.529 77.1814L226.712 78.8299L227.594 80.5969L228.17 82.4692L228.437 84.4333L228.391 86.4755L228.03 88.5816L227.353 90.7374L226.36 92.9286L225.054 95.1407L223.435 97.3592L221.509 99.5699L219.28 101.758L216.753 103.911L213.936 106.014L210.838 108.054L207.466 110.017L203.832 111.892L199.946 113.667L195.821 115.329L191.468 116.869L186.903 118.276L182.139 119.541L177.193 120.655L172.078 121.61L166.813 122.4L161.414 123.018L155.899 123.459L150.286 123.72L144.592 123.796L138.837 123.685L133.039 123.387L127.216 122.9L121.389 122.226L115.575 121.366L109.794 120.323L104.064 119.1L98.4026 117.702L92.829 116.135L87.3606 114.404L82.0144 112.518L76.8073 110.485L71.7553 108.313L66.874 106.012L62.1781 103.593L57.6817 101.068L53.3981 98.4474L49.3396 95.7448L45.5178 92.9729L41.9433 90.1454L38.6255 87.2762L35.5732 84.3797L32.7938 81.4706L30.2938 78.5637L28.0787 75.6742L26.1527 72.8172L24.5189 70.0078L23.1795 67.2615L22.1354 64.5931L21.3864 62.0177L20.9311 59.55L20.7672 57.2042L20.8912 54.9946L21.2985 52.9346L21.9835 51.0373L22.9395 49.3153L24.159 47.7806L25.6334 46.4443L27.3532 45.3171L29.3081 44.4088L31.487 43.7282L33.8779 43.2834L36.4682 43.0817L39.2446 43.1293L42.1933 43.4314L45.2998 43.9924L48.5493 44.8154L51.9265 45.9027L55.4158 47.2553L59.0012 48.8733L62.6666 50.7557L66.3959 52.9004L70.1727 55.3041L73.9807 57.9625L77.8037 60.8704L81.6256 64.0213L85.4305 67.4077L89.2029 71.0212L92.9274 74.8524L96.5893 78.8909L100.174 83.1255L103.668 87.5439L107.058 92.1333L110.331 96.8798L113.475 101.769L116.479 106.786L119.333 111.914L122.027 117.138L124.553 122.44L126.901 127.804L129.066 133.212L131.042 138.645L132.824 144.086L134.406 149.517L135.788 154.919L136.966 160.274L137.939 165.563L138.708 170.768L139.274 175.872L139.638 180.856L139.804 185.704L139.776 190.398L139.558 194.922L139.156 199.261L138.578 203.398L137.83 207.319L136.922 211.011L135.861 214.459L134.659 217.653L133.325 220.581L131.871 223.231L130.308 225.596L128.65 227.665L126.908 229.433L125.096 230.892L123.226 232.037L121.314 232.865L119.373 233.372L117.416 233.556L115.459 233.418L113.514 232.956L111.597 232.173L109.721 231.072L107.9 229.657L106.147 227.933L104.476 225.905L102.899 223.582L101.429 220.971L100.078 218.082L98.8561 214.925L97.775 211.512L96.8444 207.853L96.0734 203.964L95.4706 199.856L95.0438 195.545L94.7996 191.046L94.7442 186.375L94.8824 181.548L95.2186 176.582L95.7558 171.494L96.4961 166.302L97.4408 161.023L98.5899 155.677L99.9428 150.281L101.497 144.853L103.251 139.412L105.2 133.976L107.339 128.564L109.662 123.193L112.163 117.881L114.833 112.645L117.665 107.502L120.649 102.468L123.774 97.5604L127.03 92.7929L130.404 88.1805L133.884 83.7372L137.457 79.476L141.109 75.4091L144.825 71.5481L148.592 67.9033L152.393 64.4843L156.214 61.2998L160.037 58.3573L163.848 55.6633L167.631 53.2235L171.368 51.0421L175.043 49.1226L178.641 47.4672L182.144 46.0772L185.538 44.9525L188.807 44.0924L191.934 43.4947L194.906 43.1563L197.708 43.0732L200.325 43.2401L202.745 43.651L204.954 44.2989L206.941 45.1757L208.695 46.2726L210.205 47.58L211.461 49.0875L212.454 50.7838L213.178 52.6571L213.625 54.695L213.789 56.8844L213.666 59.2118L213.252 61.6632L212.544 64.2243L211.542 66.8805L210.244 69.6167L208.651 72.4181L206.766 75.2693L204.592 78.1552L202.132 81.0606L199.391 83.9703L196.377 86.8694L193.096 89.7433L189.557 92.5776L185.77 95.3581L181.744 98.0713L177.491 100.704L173.024 103.244L168.355 105.678L163.499 107.996L158.47 110.187L153.284 112.24L147.957 114.148L142.504 115.901L136.945 117.491L131.295 118.914L125.573 120.161L119.798 121.23L113.988 122.116L108.161 122.817L102.337 123.33L96.534 123.655L90.7716 123.792L85.0681 123.742L79.4422 123.507L73.9121 123.091L68.4958 122.497L63.2109 121.732L58.0744 120.799L53.103 119.707L48.3126 118.463L43.7185 117.076L39.3354 115.554L35.1771 113.908L31.2567 112.149L27.5863 110.287L24.1771 108.335L21.0394 106.305L18.1825 104.211L15.6146 102.064L13.343 99.8799L11.3737 97.6715L9.71164 95.4532L8.3608 93.2393L7.32387 91.0444L6.6024 88.8827L6.19683 86.7687L6.10643 84.7167L6.32935 82.7407L6.86257 80.8546L7.70201 79.072L8.84243 77.406L10.2776 75.8693L12.0001 74.4742L14.0016 73.2323L16.2729 72.1548L18.8036 71.2519L21.5827 70.5333L24.5981 70.008L27.837 69.6841L31.286 69.5687L34.9309 69.6683L38.7568 69.9883L42.7483 70.5331L46.8896 71.3062L51.1643 72.3102L55.5559 73.5464L60.0472 75.0154L64.6212 76.7165L69.2605 78.6482L73.9476 80.8075L78.6651 83.1909L83.3957 85.7937L88.1221 88.6098L92.8272 91.6327L97.4942 94.8545L102.107 98.2666L106.649 101.859L111.105 105.622L115.459 109.543L119.698 113.611L123.807 117.812L127.774 122.134L131.585 126.561L135.23 131.078L138.697 135.671L141.977 140.324L145.061 145.019L147.94 149.741L150.607 154.472L153.057 159.195L155.284 163.894L157.284 168.549L159.055 173.145L160.594 177.662L161.9 182.086L162.973 186.397L163.816 190.58L164.429 194.619L164.816 198.496L164.981 202.197L164.929 205.706L164.667 209.009L164.202 212.093L163.54 214.945L162.692 217.551L161.665 219.901L160.472 221.985L159.121 223.792L157.626 225.314L155.997 226.544L154.248 227.474L152.392 228.1L150.442 228.416L148.411 228.42L146.314 228.109L144.165 227.483L141.979 226.54L139.769 225.284L137.551 223.715L135.338 221.837L133.145 219.656L130.985 217.176L128.874 214.405L126.823 211.351L124.847 208.022L122.957 204.429L121.165 200.582L119.484 196.494L117.924 192.177L116.495 187.645L115.207 182.911L114.069 177.993L113.088 172.904L112.271 167.662L111.625 162.283L111.156 156.785L110.866 151.186L110.761 145.504L110.841 139.757L111.11 133.965L111.566 128.145L112.211 122.317L113.041 116.5L114.055 110.712L115.25 104.972L116.62 99.2992L118.161 93.7106L119.866 88.2242L121.728 82.8574L123.739 77.627L125.889 72.5493L128.17 67.6397L130.571 62.9133L133.08 58.3842L135.686 54.0659L138.376 49.9708L141.138 46.1105L143.958 42.4959L146.821 39.1367L149.714 36.0415L152.622 33.2182L155.531 30.6733L158.424 28.4125L161.287 26.4402L164.105 24.7597L166.862 23.3733L169.544 22.2822L172.135 21.4862L174.621 20.9843L176.987 20.7742L179.22 20.8526L181.304 21.2151L183.228 21.8563L184.979 22.7697L186.544 23.9478L187.913 25.3822L189.074 27.0636L190.018 28.9818L190.735 31.1257L191.218 33.4837L191.459 36.0431L191.452 38.7908L191.19 41.713L190.671 44.7954L189.89 48.0232L188.845 51.3811L187.534 54.8535L185.959 58.4247L184.118 62.0785L182.015 65.7987L179.652 69.5691L177.034 73.3732L174.166 77.1949L171.053 81.018L167.704 84.8267L164.126 88.6053L160.328 92.3385L156.322 96.0114L152.118 99.6094L147.728 103.119L143.165 106.526L138.443 109.818L133.575 112.984L128.578 116.011L123.466 118.89L118.256 121.61L112.965 124.163L107.61 126.54L102.208 128.735L96.7778 130.741L91.3366 132.554L85.9029 134.168L80.4953 135.582L75.1319 136.792L69.8312 137.799L64.6112 138.6L59.4901 139.198L54.4855 139.594L49.6149 139.792L44.8951 139.794L40.3428 139.606L35.974 139.233L31.8039 138.682L27.8473 137.961L24.1183 137.077L20.63 136.04L17.3948 134.86L14.4242 133.546L11.7288 132.111L9.31825 130.565L7.20113 128.921L5.38502 127.191L3.87642 125.389L2.6807 123.528L1.80221 121.622L1.24403 119.684L1.00821 117.729L1.09559 115.77L1.50584 113.823L2.23749 111.9L3.28792 110.017L4.65339 108.186L6.32897 106.421L8.30867 104.736L10.5854 103.144L13.1511 101.656L15.9965 100.285L19.1115 99.042L22.485 97.9379L26.105 96.9826L29.9588 96.1856L34.0325 95.5555L38.3119 95.1001L42.7819 94.8265L47.4267 94.7406L52.2301 94.8477L57.1753 95.1521L62.2451 95.6571L67.4218 96.365L72.6877 97.2771L78.0246 98.3937L83.4142 99.7142L88.8381 101.237L94.2781 102.959L99.7158 104.877L105.133 106.986L110.512 109.28L115.835 111.753L121.084 114.397L126.243 117.204L131.295 120.165L136.224 123.268L141.014 126.503L145.652 129.859L150.124 133.324L154.415 136.883L158.513 140.523L162.408 144.23L166.088 147.99L169.543 151.787L172.766 155.605L175.747 159.429L178.481 163.244L180.962 167.031L183.184 170.777L185.146 174.463L186.843 178.074L188.276 181.594L189.443 185.006L190.345 188.296L190.984 191.447L191.363 194.445L191.487 197.274L191.359 199.922L190.987 202.374L190.376 204.618L189.535 206.641L188.473 208.433L187.198 209.982L185.722 211.279L184.055 212.315L182.209 213.082L180.197 213.573L178.03 213.782L175.724 213.705L173.291 213.338L170.747 212.677L168.105 211.722L165.38 210.471L162.588 208.925L159.744 207.087L156.863 204.958L153.959 202.543L151.049 199.847L148.148 196.876L145.269 193.637L142.427 190.138L139.637 186.39L136.912 182.401L134.266 178.184L131.711 173.75L129.259 169.112L126.922 164.285L124.71 159.283L122.634 154.121L120.702 148.814L118.924 143.381L117.307 137.837L115.858 132.2L114.582 126.489L113.484 120.721L112.569 114.915L111.839 109.09L111.296 103.264L110.941 97.4565L110.774 91.6863L110.795 85.9722L111 80.3327L111.387 74.7861L111.953 69.3505L112.692 64.0434L113.598 58.8822L114.665 53.8834L115.886 49.0631L117.251 44.4367L118.752 40.0191L120.379 35.8241L122.121 31.865L123.967 28.1539L125.905 24.7024L127.923 21.5208L130.008 18.6186L132.148 16.0042L134.327 13.6849L136.532 11.6671L138.75 9.95583L140.966 8.55522L143.164 7.46815L145.332 6.69637L147.455 6.24052L149.518 6.10002L151.507 6.2732L153.408 6.75726L155.208 7.54825L156.894 8.64113L158.452 10.0298L159.87 11.7071L161.137 13.6648L162.242 15.8937L163.173 18.3839L163.922 21.1242L164.478 24.1028L164.835 27.307L164.984 30.7235L164.919 34.3382L164.634 38.1363L164.125 42.1025L163.389 46.221L162.422 50.4756L161.223 54.8497L159.791 59.3263L158.126 63.8883L156.231 68.5183L154.108 73.199L151.76 77.9129L149.192 82.6426L146.409 87.3708L143.419 92.0804L140.228 96.7546L136.846 101.377L133.281 105.931L129.545 110.402L125.648 114.773L121.603 119.032L117.422 123.163L113.119 127.153L108.707 130.99L104.203 134.662L99.6211 138.158L94.9771 141.468L90.2874 144.584L85.5687 147.496L80.838 150.197L76.1122 152.682L71.409 154.945L66.7456 156.982L62.1394 158.789L57.608 160.365L53.1685 161.708L48.838 162.818L44.6333 163.697L40.571 164.347L36.6671 164.77L32.9372 164.97L29.3964 164.952L26.0592 164.723L22.9394 164.29L20.0503 163.659L17.404 162.84L15.0122 161.841L12.8855 160.673L11.0337 159.347L9.46559 157.874L8.18894 156.266L7.2105 154.535L6.53602 152.695L6.1701 150.759L6.11625 148.74L6.37686 146.652L6.95318 144.511L7.84531 142.329L9.0522 140.122L10.5717 137.904L12.4003 135.69L14.5338 133.493L16.9664 131.327L19.6914 129.207L22.7012 127.146L25.9869 125.156L29.5387 123.252L33.3457 121.444L37.3963 119.745L41.6777 118.165L46.1766 116.714L50.8787 115.403L55.7689 114.24L60.8316 113.234L66.0504 112.391L71.4085 111.717L76.8885 111.219L82.4727 110.9L88.1428 110.765L93.8805 110.816L99.667 111.055L105.484 111.481L111.311 112.096L117.132 112.897L122.925 113.882L128.674 115.048L134.359 116.391L139.962 117.905L145.466 119.584L150.853 121.422L156.106 123.409L161.209 125.538L166.147 127.799L170.903 130.181L175.465 132.674L179.817 135.266L183.949 137.943L187.847 140.695L191.502 143.506L194.902 146.363L198.04 149.253L200.907 152.159L203.497 155.069L205.803 157.965L207.822 160.834L209.549 163.661L210.982 166.429L212.12 169.123L212.963 171.73L213.512 174.234L213.768 176.62L213.735 178.874L213.418 180.983L212.821 182.934L211.95 184.713L210.814 186.309L209.419 187.709L207.777 188.904L205.896 189.883L203.787 190.637L201.462 191.158L198.934 191.438L196.215 191.47L193.32 191.25L190.262 190.772L187.056 190.032L183.718 189.03L180.263 187.762L176.706 186.228L173.065 184.43L169.354 182.368L165.591 180.047L161.791 177.469L157.971 174.64L154.147 171.565L150.335 168.253L146.55 164.711L142.809 160.948L139.126 156.974L135.515 152.801L131.99 148.44L128.566 143.903L125.254 139.205L122.068 134.36L119.018 129.382L116.115 124.288L113.369 119.093L110.789 113.813L108.383 108.467L106.159 103.072L104.122 97.6443L102.279 92.2036L100.632 86.7675L99.1863 81.3545L97.9434 75.9828L96.9047 70.6708L96.0706 65.4368L95.4403 60.2987L95.0121 55.2744L94.7834 50.3813L94.7504 45.6364L94.9085 41.0563L95.2522 36.6572L95.7751 32.4544L96.4698 28.4629L97.3282 24.6967L98.3414 21.1692L99.4997 17.8929L100.793 14.8794L102.21 12.1395L103.739 9.68297L105.368 7.51858L107.085 5.65406L108.876 4.09608L110.729 2.85022L112.629 1.92095L114.563 1.3116L116.516 1.02435L118.475 1.06025L120.425 1.41914L122.352 2.09975L124.243 3.09965L126.083 4.41522L127.859 6.0418L129.558 7.97352L131.166 10.2035L132.671 12.7237L134.061 15.5252L135.326 18.598L136.453 21.9311L137.432 25.5128L138.255 29.3302L138.912 33.3699L139.396 37.6175L139.699 42.0582L139.815 46.6762L139.739 51.4555L139.466 56.3793L138.993 61.4304L138.318 66.5913L137.438 71.8442L136.354 77.171L135.066 82.5534L133.576 87.9732L131.885 93.4119L129.998 98.8512L127.919 104.273L125.654 109.659L123.209 114.992L120.591 120.254L117.81 125.428L114.873 130.498L111.792 135.448L108.577 140.262L105.239 144.925L101.792 149.424L98.2467 153.744L94.6185 157.874L90.9209 161.802L87.1686 165.517L83.3767 169.009L79.5607 172.269L75.7362 175.289L71.9193 178.063L68.1262 180.584L64.373 182.848L60.6762 184.852L57.052 186.591L53.5166 188.066L50.086 189.275L46.7759 190.219L43.6018 190.9L40.5788 191.321L37.7214 191.485L35.044 191.397L32.5599 191.063L30.2821 190.49L28.2228 189.685L26.3937 188.657L24.8053 187.416L23.4676 185.971L22.3895 184.333L21.5791 182.515L21.0435 180.528L20.7887 178.386L20.8198 176.101L21.1408 173.687L21.7547 171.16L22.6631 168.532L23.8669 165.82L25.3656 163.038L27.1577 160.201L29.2405 157.324L31.6102 154.423L34.2619 151.513L37.1897 148.609L40.3865 145.726L43.8442 142.877L47.5537 140.078L51.5048 137.342L55.6865 134.682L60.0867 132.112L64.6926 129.642L69.4906 127.286L74.466 125.054L79.6038 122.955L84.8882 121L90.3026 119.198L95.83 117.554L101.453 116.078L107.154 114.774L112.914 113.648L118.715 112.703L124.539 111.943L130.366 111.37L136.177 110.986L141.955 110.789L147.679 110.779L153.331 110.955L158.894 111.314L164.348 111.852L169.677 112.563L174.863 113.443L179.889 114.485L184.738 115.682L189.396 117.025L193.848 118.505L198.08 120.112L202.077 121.836L205.829 123.667L209.322 125.591L212.547 127.598L215.495 129.673L218.155 131.804L220.522 133.978L222.588 136.18L224.349 138.397L225.799 140.614L226.936 142.817L227.758 144.99L228.264 147.121L228.455 149.194L228.332 151.196L227.897 153.112L227.154 154.929L226.109 156.634L224.767 158.213L223.135 159.655L221.222 160.947L219.035 162.078L216.586 163.037L213.885 163.816L210.943 164.403L207.774 164.792L204.391 164.975L200.807 164.944L197.037 164.695L193.096 164.222L189.001 163.522L184.767 162.592L180.411 161.43L175.949 160.035L171.4 158.408L166.779 156.549L162.106 154.462L157.396 152.149L152.668 149.616L147.938 146.867L143.224 143.909L138.543 140.75L133.912 137.397L129.346 133.861L124.861 130.152L120.472 126.28L116.195 122.257L112.043 118.097L108.029 113.812L104.167 109.417L100.468 104.927L96.9432 100.356L93.6027 95.7207L90.4557 91.0371L87.5108 86.3219L84.7753 81.5919L82.2556 76.8643L79.9571 72.1562L77.8842 67.4853L76.0402 62.8689L74.4275 58.3243L73.0472 53.869L71.8996 49.52L70.9839 45.2942L70.2982 41.2081L69.8396 37.2779L69.6042 33.5192L69.5873 29.9473L69.783 26.5768L70.1846 23.4215L70.7846 20.4947L71.5745 17.809L72.5452 15.3759L73.6867 13.2063L74.9883 11.3101L76.4388 9.69626L78.0263 8.37269L79.7383 7.34635L81.5619 6.62311L83.4839 6.20778L85.4905 6.10404L87.5678 6.31446L89.7017 6.84046L91.8777 7.68233L94.0816 8.83922L96.2988 10.3091L98.515 12.0888L100.716 14.174L102.887 16.5594L105.016 19.2384L107.087 22.2034L109.089 25.4458L111.008 28.9559L112.832 32.723L114.549 36.7356L116.149 40.9812L117.621 45.4465L118.954 50.1172L120.141 54.9784L121.173 60.0147L122.043 65.2098L122.744 70.5469L123.27 76.0087L123.618 81.5775L123.782 87.2352L123.761 92.9633L123.552 98.7434L123.156 104.556L122.571 110.384L121.8 116.206L120.844 122.006L119.706 127.763L118.391 133.459L116.904 139.077L115.251 144.598L113.438 150.004L111.474 155.28L109.367 160.408L107.126 165.373L104.762 170.159L102.286 174.752L99.71 179.139L97.0451 183.307L94.3046 187.243L91.502 190.937L88.651 194.379L85.7657 197.559L82.8608 200.47L79.951 203.104L77.0513 205.456L74.1768 207.52L71.3428 209.294L68.5645 210.774L65.857 211.959L63.2354 212.849L60.7144 213.445L58.3086 213.748L56.0322 213.761L53.899 213.488L51.9223 212.935L50.1151 212.107L48.4894 211.013L47.057 209.659L45.8287 208.055L44.8146 206.211L44.0241 204.138L43.4657 201.847L43.147 199.35L43.0748 196.661L43.2547 193.793L43.6915 190.76L44.389 187.577L45.3498 184.259L46.5755 180.821L48.0668 177.28L49.8231 173.65L51.8428 169.95L54.1232 166.194L56.6605 162.398L59.4499 158.581L62.4856 154.756L65.7604 150.941L69.2665 147.151L72.995 143.402L76.9358 139.708L81.0781 136.085L85.4103 132.546L89.9196 129.105L94.5928 125.774L99.4156 122.567L104.373 119.494L109.45 116.567L114.631 113.796L119.898 111.189L125.234 108.755L130.623 106.501L136.047 104.434L141.486 102.56L146.924 100.881L152.342 99.4035L157.722 98.1281L163.044 97.0569L168.292 96.1902L173.447 95.5275L178.49 95.0673L183.405 94.807L188.175 94.7432L192.782 94.8712L197.211 95.1858L201.446 95.6806L205.473 96.3484L209.276 97.1813L212.842 98.1705L216.159 99.3064L219.215 100.579L221.999 101.977L224.501 103.489L226.713 105.103L228.626 106.807L230.233 108.587L231.529 110.431L232.509 112.324L233.169 114.254L233.508 116.205L233.523 118.164L233.216 120.116L232.586 122.048L231.637 123.946L230.372 125.795L228.794 127.582L226.911 129.293L224.728 130.917L222.253 132.439L219.496 133.849L216.465 135.134L213.173 136.283L209.63 137.287L205.849 138.135L201.844 138.82L197.629 139.331L193.218 139.664L188.627 139.81L183.872 139.765L178.97 139.524L173.938 139.083L168.794 138.44L163.554 137.593L158.238 136.541L152.863 135.286L147.448 133.827L142.011 132.168L136.571 130.312L131.145 128.263L125.752 126.028L120.41 123.611L115.135 121.02L109.946 118.264L104.858 115.352L99.8883 112.293L95.0518 109.098L90.3636 105.779L85.8379 102.348L81.4881 98.8177L77.3269 95.2018L73.3661 91.5143L69.6168 87.7697L66.0888 83.9831L62.7912 80.1698L59.7322 76.3456L56.9188 72.5264L54.3569 68.7284L52.0515 64.9678L50.0065 61.2609L48.2247 57.6241L46.7079 54.0734L45.4565 50.625L44.4702 47.2947L43.7474 44.0979L43.2856 41.0498L43.0811 38.1651L43.1292 35.4581L43.4244 32.9423L43.96 30.6308L44.7284 28.536L45.7213 26.6694L46.9294 25.042L48.3426 23.6637L49.9501 22.5437L51.7404 21.6902L53.7012 21.1104L55.8199 20.8105L58.083 20.7958L60.477 21.0704L62.9875 21.6375L65.6001 22.4989L68.2999 23.6557L71.0721 25.1075L73.9014 26.853L76.7726 28.8897L79.6705 31.214L82.58 33.8212L85.4861 36.7055L88.3739 39.86L91.2288 43.2768L94.0367 46.9468L96.7837 50.8601L99.4564 55.0059L102.042 59.3721L104.528 63.9462L106.903 68.7145L109.156 73.6627L111.276 78.7757L113.255 84.0378L115.082 89.4326L116.752 94.9432L118.255 100.552L119.587 106.242L120.742 111.994L121.715 117.79L122.505 123.611L123.108 129.439L123.522 135.254L123.749 141.038L123.788 146.772L123.641 152.437L123.312 158.015L122.802 163.488L122.118 168.838L121.264 174.048L120.248 179.1L119.075 183.979L117.755 188.669L116.297 193.154L114.709 197.422L113.002 201.457L111.188 205.249L109.278 208.784L107.284 212.053L105.218 215.045L103.095 217.752L100.927 220.166L98.7283 222.28L96.513 224.09L94.2952 225.59L92.0894 226.777L89.91 227.649L87.7715 228.206L85.6881 228.447L83.674 228.373L81.7433 227.988L79.9096 227.294L78.1863 226.297L76.5862 225.001L75.122 223.415L73.8055 221.546L72.6481 219.402L71.6604 216.994L70.8526 214.332L70.234 211.428L69.8128 208.294L69.597 204.944L69.5931 201.391L69.8072 197.65L70.2441 193.735L70.9077 189.664L71.8012 185.451L72.9263 181.113L74.2841 176.667L75.8745 172.13L77.6962 167.52L79.7472 162.854L82.0241 158.148L84.5226 153.422L87.2376 148.691L90.1626 143.974L93.2904 139.287L96.6127 134.646L100.12 130.068L103.803 125.569L107.65 121.165L111.649 116.869L115.789 112.696L120.054 108.659L124.433 104.772L128.909 101.046L133.468 97.493L138.094 94.1224L142.771 90.944L147.482 87.9664L152.211 85.1971L156.94 82.6426L161.652 80.3086L166.33 78.1995L170.957 76.3188L175.514 74.6692L179.985 73.2518L184.352 72.0672L188.598 71.1147L192.708 70.3925L196.664 69.8979L200.451 69.6273L204.053 69.5759L207.457 69.7382L210.647 70.1075L213.611 70.6764L216.336 71.4367L218.81 72.3793L221.023 73.4943L222.963 74.7711L224.622 76.1987L225.993 77.7652L227.067 79.4582L227.839 81.265L228.303 83.1721L228.457 85.1662L228.297 87.2332L227.821 89.359L227.029 91.5294L225.922 93.7298L224.502 95.9459L222.772 98.1632L220.735 100.367L218.397 102.545L215.764 104.681L212.844 106.762L209.645 108.776L206.177 110.709L202.45 112.549L198.476 114.284L194.266 115.903L189.835 117.396L185.196 118.752L180.364 119.963L175.355 121.02L170.184 121.916L164.868 122.644L159.425 123.199L153.872 123.575L148.228 123.769L142.509 123.777L136.736 123.599L130.927 123.232L125.101 122.677L119.276 121.935L113.472 121.009L107.707 119.9L102 118.613L96.3687 117.153L90.8313 115.525L85.4052 113.737L80.1076 111.797L74.955 109.712L69.9631 107.492L65.1474 105.147L60.5224 102.688L56.1017 100.127L51.8984 97.4753L47.9246 94.7461L44.1914 91.9524L40.7089 89.1082L37.4866 86.2274L34.5325 83.3246L31.8538 80.4145L29.4567 77.5122L27.346 74.6327L25.5258 71.7912L23.9987 69.003L22.7664 66.2832L21.8295 63.6469L21.1873 61.1089L20.8381 58.6838L20.7792 56.3858L21.0065 54.2289L21.5153 52.2265L22.2995 50.3914L23.3521 48.736L24.6652 47.2721L26.2298 46.0105L28.0361 44.9617L30.0736 44.135L32.3309 43.5391L34.7956 43.1818L37.455 43.0699L40.2956 43.2093L43.3033 43.6049L46.4634 44.2606L49.7611 45.1794L53.1808 46.3629L56.7068 47.8119L60.3231 49.526L64.0136 51.5039L67.762 53.743L71.552 56.2397L75.3673 58.9894L79.1918 61.9862L83.0093 65.2235L86.8042 68.6934L90.561 72.387L94.2645 76.2948L97.9001 80.4058L101.453 84.7085L104.911 89.1905L108.26 93.8385L111.488 98.6385L114.582 103.576L117.533 108.635L120.33 113.8L122.964 119.054L125.426 124.381L127.709 129.763L129.806 135.182L131.711 140.62L133.421 146.06L134.931 151.482L136.239 156.869L137.343 162.202L138.242 167.463L138.937 172.633L139.429 177.696L139.721 182.633L139.816 187.426L139.718 192.061L139.433 196.519L138.967 200.786L138.326 204.847L137.519 208.686L136.554 212.291L135.441 215.649L134.189 218.747L132.81 221.575L131.316 224.123L129.717 226.381L128.027 228.342L126.258 229.998L124.423 231.344L122.537 232.375L120.612 233.086L118.664 233.476L116.705 233.543L114.751 233.287L112.814 232.709L110.91 231.81L109.053 230.595L107.255 229.067L105.53 227.232L103.892 225.096L102.353 222.667L100.924 219.954L99.6188 216.967L98.447 213.715L97.4194 210.211L96.5456 206.468L95.8347 202.497L95.295 198.314L94.9337 193.933L94.7574 189.37L94.7717 184.64L94.9814 179.761L95.3902 174.748L96.0009 169.621L96.8153 164.395L97.8342 159.09L99.0575 153.723L100.484 148.313L102.111 142.879L103.936 137.438L105.954 132.008L108.161 126.609L110.549 121.257L113.113 115.971L115.843 110.766L118.731 105.661L121.767 100.672L124.941 95.813L128.241 91.1002L131.655 86.5476L135.171 82.1689L138.774 77.9769L142.451 73.9834L146.187 70.1997L149.968 66.6358L153.778 63.301L157.602 60.2035L161.423 57.3505L165.225 54.7482L168.993 52.4017L172.709 50.315L176.359 48.4911L179.924 46.932L183.39 45.6383L186.74 44.6099L189.959 43.8453L193.032 43.3421L195.943 43.0969L198.68 43.1052L201.227 43.3614L203.572 43.8592L205.702 44.5911L207.605 45.5488L209.272 46.7233L210.69 48.1046L211.852 49.6819L212.748 51.4438L213.372 53.3784L213.717 55.4728L213.778 57.7138L213.549 60.0879L213.029 62.5808L212.214 65.1781L211.105 67.8651L209.7 70.6267L208.001 73.4479L206.01 76.3135L203.732 79.2082L201.169 82.1169L198.329 85.0245L195.217 87.9162L191.841 90.7773L188.211 93.5937L184.335 96.3513L180.226 99.0368L175.894 101.637L171.352 104.14L166.614 106.533L161.693 108.806L156.606 110.948L151.366 112.95L145.991 114.802L140.498 116.497L134.904 118.027L129.226 119.387L123.482 120.57L117.692 121.573L111.874 122.392L106.046 123.025L100.227 123.469L94.437 123.726L88.6938 123.795L83.0163 123.678L77.4231 123.377L71.9322 122.896L66.5616 122.239L61.3286 121.412L56.2501 120.421L51.3426 119.273L46.6217 117.976L42.1026 116.538L37.7995 114.97L33.7261 113.282L29.8951 111.484L26.3182 109.588L23.0064 107.607L19.9696 105.552L17.2167 103.437L14.7556 101.275L12.593 99.0804L10.7347 96.8668L9.18523 94.6484L7.94807 92.4398L7.0255 90.2552L6.41869 88.1092L6.12766 86.016L6.15125 83.99L6.48719 82.0451L7.13209 80.195L8.08143 78.4532L9.32959 76.8327L10.8699 75.346L12.6947 74.0052L14.7953 72.8217L17.1619 71.8063L19.7841 70.9693L22.6504 70.3199L25.7485 69.8667L29.0653 69.6177L32.587 69.5797L36.2993 69.7587L40.1871 70.1598L44.2349 70.7871L48.4265 71.6438L52.7456 72.7319L57.1753 74.0527L61.6987 75.6061L66.2983 77.3911L70.957 79.4057L75.6572 81.6469L80.3815 84.1105L85.1125 86.7914L89.8331 89.6834L94.5263 92.7795L99.1754 96.0714L103.764 99.5501L108.277 103.206L112.697 107.027L117.012 111.003L121.205 115.121L125.264 119.368L129.176 123.729L132.928 128.191L136.51 132.738L139.91 137.354L143.12 142.024L146.13 146.731L148.933 151.458L151.522 156.188L153.891 160.904L156.036 165.589L157.954 170.225L159.64 174.794L161.095 179.28L162.316 183.664L163.306 187.931L164.064 192.064L164.595 196.045L164.901 199.86L164.987 203.493L164.858 206.929L164.521 210.155L163.984 213.156L163.253 215.92L162.339 218.434L161.251 220.689L159.999 222.673L158.595 224.378L157.05 225.795L155.376 226.916L153.586 227.737L151.694 228.251L149.713 228.454L147.657 228.344L145.539 227.919L143.375 227.177L141.179 226.121L138.964 224.75L136.746 223.069L134.539 221.08L132.356 218.79L130.213 216.203L128.122 213.329L126.096 210.174L124.15 206.748L122.294 203.061L120.542 199.126L118.903 194.953L117.39 190.556L116.011 185.949L114.776 181.147L113.694 176.165L112.772 171.018L112.017 165.725L111.434 160.301L111.029 154.764L110.806 149.133L110.768 143.425L110.917 137.659L111.254 131.855L111.778 126.03L112.491 120.204L113.388 114.395L114.468 108.623L115.727 102.905L117.16 97.2602L118.761 91.7066L120.524 86.2617L122.441 80.9425L124.503 75.7656L126.703 70.7471L129.028 65.9024L131.47 61.246L134.015 56.7919L136.653 52.5532L139.371 48.542L142.155 44.7697L144.993 41.2467L147.869 37.9823L150.769 34.985L153.679 32.2621L156.583 29.8197L159.467 27.6631L162.316 25.7964L165.114 24.2225L167.845 22.9432L170.496 21.9592L173.051 21.2701L175.495 20.8744L177.814 20.7695L179.994 20.9516L182.022 21.416L183.885 22.1567L185.569 23.1671L187.064 24.4392L188.359 25.9644L189.442 27.733L190.305 29.7344L190.938 31.9574L191.334 34.39L191.485 37.0193L191.386 39.832L191.032 42.814L190.418 45.9509L189.541 49.2276L188.4 52.6289L186.993 56.1391L185.321 59.7421L183.385 63.4219L181.187 67.1622L178.731 70.9467L176.022 74.7591L173.064 78.5831L169.864 82.4029L166.431 86.2024L162.772 89.9663L158.898 93.6793L154.819 97.3266L150.546 100.894L146.091 104.368L141.469 107.735L136.692 110.983L131.776 114.099L126.735 117.074L121.586 119.896L116.345 122.556L111.028 125.046L105.654 127.358L100.24 129.485L94.8032 131.422L89.3627 133.163L83.9363 134.705L78.5426 136.045L73.1998 137.181L67.9263 138.113L62.7402 138.841L57.6593 139.365L52.7014 139.689L47.8836 139.815L43.2227 139.747L38.7352 139.491L34.4367 139.053L30.3425 138.44L26.4669 137.659L22.8237 136.718L19.4259 135.628L16.2855 134.398L13.4136 133.039L10.8205 131.562L8.51553 129.979L6.50684 128.302L4.80164 126.545L3.40602 124.72L2.32501 122.841L1.56246 120.921L1.12111 118.975L1.00255 117.018L1.20721 115.061L1.73434 113.121L2.58205 111.211L3.74731 109.345L5.22595 107.537L7.01266 105.8L9.10105 104.147L11.4836 102.591L14.1519 101.144L17.0964 99.8185L20.3066 98.6247L23.771 97.5734L27.4774 96.6745L31.4126 95.9372L35.5627 95.3696L39.913 94.9794L44.4483 94.7733L49.1526 94.7569L54.0094 94.9352L59.0018 95.3121L64.1125 95.8905L69.3237 96.6724L74.6174 97.6587L79.9755 98.8495L85.3797 100.244L90.8116 101.839L96.2529 103.633L101.685 105.621L107.091 107.797L112.451 110.157L117.749 112.694L122.967 115.398L128.089 118.261L133.098 121.275L137.979 124.428L142.716 127.708L147.295 131.105L151.702 134.605L155.925 138.195L159.951 141.861L163.769 145.589L167.368 149.364L170.74 153.171L173.876 156.993L176.768 160.816L179.411 164.622L181.798 168.397L183.927 172.122L185.793 175.783L187.394 179.363L188.73 182.846L189.8 186.215L190.607 189.456L191.152 192.553L191.438 195.492L191.469 198.257L191.252 200.835L190.792 203.213L190.097 205.378L189.175 207.319L188.034 209.023L186.685 210.482L185.138 211.685L183.405 212.624L181.497 213.292L179.427 213.682L177.209 213.788L174.855 213.606L172.38 213.132L169.798 212.365L167.125 211.302L164.374 209.944L161.561 208.292L158.702 206.348L155.811 204.114L152.903 201.597L149.994 198.8L147.099 195.731L144.232 192.397L141.408 188.806L138.64 184.969L135.942 180.896L133.327 176.599L130.808 172.09L128.397 167.382L126.104 162.489L123.94 157.427L121.916 152.211L120.039 146.856L118.319 141.381L116.762 135.801L115.375 130.135L114.163 124.401L113.131 118.617L112.283 112.802L111.62 106.974L111.145 101.153L110.859 95.357L110.76 89.605L110.848 83.9158L111.12 78.3079L111.572 72.7995L112.201 67.4086L113.002 62.1525L113.967 57.0483L115.091 52.1124L116.365 47.3608L117.78 42.8085L119.328 38.4701L120.998 34.3593L122.779 30.4888L124.66 26.8707L126.629 23.5159L128.673 20.4347L130.779 17.636L132.935 15.1279L135.125 12.9174L137.337 11.0103L139.555 9.4114L141.766 8.12432L143.956 7.15153L146.109 6.49441L148.211 6.15313L150.249 6.12673L152.208 6.41313L154.074 7.00909L155.834 7.91029L157.474 9.11129L158.983 10.6056L160.348 12.3856L161.557 14.4429L162.6 16.7679L163.466 19.3501L164.146 22.1783L164.631 25.2403L164.913 28.5232L164.985 32.0133L164.841 35.6963L164.476 39.5571L163.885 43.5805L163.065 47.7503L162.013 52.0502L160.73 56.4635L159.213 60.9731L157.465 65.5618L155.487 70.2122L153.282 74.9069L150.853 79.6286L148.206 84.3597L145.348 89.0831L142.284 93.7818L139.022 98.4391L135.573 103.039L131.945 107.564L128.149 112.001L124.196 116.333L120.1 120.546L115.873 124.628L111.529 128.564L107.083 132.342L102.548 135.952L97.9419 139.382L93.2795 142.622L88.5773 145.665L83.8522 148.501L79.1213 151.125L74.4018 153.529L69.7109 155.711L65.0663 157.664L60.4853 159.388L55.9852 160.879L51.5833 162.138L47.2965 163.164L43.1416 163.959L39.135 164.526L35.2924 164.868L31.6294 164.988L28.1609 164.893L24.9011 164.589L21.8635 164.083L19.0611 163.383L16.5059 162.497L14.2092 161.436L12.1812 160.21L10.4314 158.829L8.96817 157.305L7.79902 155.651L6.93031 153.879L6.36733 152.003L6.11432 150.035L6.17439 147.989L6.5495 145.881L7.24049 143.723L8.24704 141.531L9.56769 139.318L11.1998 137.099L13.1397 134.89L15.3824 132.702L17.922 130.552L20.7513 128.451L23.8623 126.415L27.2458 124.455L30.8915 122.584L34.7883 120.814L38.9242 119.157L43.2861 117.623L47.8605 116.222L52.6326 114.964L57.5872 113.857L62.7085 112.908L67.9799 112.126L73.3842 111.516L78.9041 111.082L84.5216 110.83L90.2184 110.762L95.9759 110.881L101.776 111.188L107.598 111.683L113.426 112.365L119.238 113.233L125.018 114.285L130.746 115.515L136.403 116.921L141.972 118.496L147.436 120.233L152.776 122.126L157.977 124.166L163.021 126.344L167.895 128.65L172.582 131.074L177.069 133.604L181.343 136.228L185.391 138.934L189.202 141.709L192.766 144.538L196.072 147.409L199.112 150.306L201.879 153.216L204.367 156.122L206.569 159.011L208.482 161.866L210.103 164.673L211.429 167.416L212.46 170.08L213.196 172.651L213.638 175.114L213.789 177.454L213.653 179.657L213.233 181.71L212.536 183.6L211.568 185.314L210.337 186.84L208.851 188.167L207.121 189.285L205.156 190.183L202.967 190.854L200.567 191.288L197.969 191.479L195.184 191.42L192.228 191.106L189.115 190.534L185.859 189.699L182.477 188.6L178.983 187.236L175.394 185.606L171.725 183.712L167.993 181.555L164.215 179.14L160.406 176.471L156.583 173.552L152.761 170.39L148.957 166.994L145.187 163.37L141.465 159.53L137.806 155.482L134.225 151.239L130.735 146.813L127.35 142.216L124.083 137.463L120.945 132.568L117.947 127.546L115.1 122.413L112.413 117.185L109.895 111.88L107.555 106.514L105.398 101.104L103.431 95.6703L101.658 90.2291L100.084 84.7993L98.7116 79.3991L97.5427 74.047L96.5783 68.7612L95.8183 63.56L95.2616 58.4611L94.9062 53.4824L94.749 48.6411L94.7859 43.9542L95.0121 39.4379L95.4216 35.1083L96.0078 30.9806L96.7629 27.0692L97.6785 23.3882L98.7455 19.9504L99.954 16.7682L101.293 13.8528L102.752 11.2147L104.319 8.86323L105.982 6.80682L107.727 5.05284L109.542 3.60756L111.414 2.47615L113.328 1.66267L115.27 1.17003L117.227 1L119.184 1.15321L121.128 1.62906L123.044 2.42591L124.918 3.54085L126.736 4.9699L128.485 6.70795L130.152 8.74877L131.725 11.0851L133.19 13.7085L134.535 16.6096L135.751 19.7782L136.826 23.203L137.749 26.8717L138.513 30.7714L139.108 34.8882L139.527 39.2077L139.763 43.7146L139.81 48.3931L139.663 53.2267L139.318 58.1987L138.772 63.2917L138.022 68.4881L137.069 73.7699L135.91 79.119L134.549 84.5171L132.985 89.9459L131.223 95.3869L129.265 100.822L127.118 106.233L124.787 111.602L122.278 116.911L119.6 122.143L116.762 127.281L113.771 132.309L110.64 137.212L107.379 141.972L104 146.578L100.515 151.013L96.9388 155.266L93.2838 159.324L89.5646 163.176L85.7962 166.811L81.9937 170.219L78.1728 173.393L74.3492 176.325L70.539 179.008L66.7585 181.436L63.0239 183.606L59.3516 185.514L55.7578 187.157L52.2586 188.536L48.8699 189.648L45.6074 190.497L42.4864 191.083L39.5218 191.41L36.7282 191.482L34.1193 191.304L31.7086 190.882L29.5088 190.224L27.5318 189.337L25.7888 188.231L24.2903 186.914L23.0458 185.398L22.064 183.694L21.3526 181.813L20.9182 179.768L20.7667 177.572L20.9026 175.239L21.3296 172.782L22.0503 170.217L23.0659 167.557L24.3768 164.817L25.9822 162.013L27.8802 159.16L30.0676 156.273L32.5403 153.367L35.293 150.458L38.3193 147.559L41.6118 144.687L45.162 141.855L48.9603 139.077L52.9965 136.367L57.2589 133.738L61.7353 131.203L66.4125 128.774L71.2766 126.461L76.3128 124.276L81.5057 122.229L86.8391 120.328L92.2965 118.582L97.8607 116.999L103.514 115.584L109.238 114.344L115.016 113.284L120.827 112.406L126.654 111.714L132.478 111.209L138.279 110.892L144.039 110.764L149.74 110.822L155.362 111.065L160.887 111.489L166.298 112.09L171.577 112.864L176.706 113.803L181.67 114.902L186.452 116.153L191.037 117.546L195.41 119.074L199.558 120.725L203.468 122.489L207.127 124.355L210.524 126.311L213.65 128.343L216.494 130.441L219.049 132.589L221.307 134.775L223.263 136.984L224.911 139.202L226.248 141.416L227.271 143.61L227.978 145.769L228.37 147.881L228.446 149.93L228.21 151.902L227.663 153.784L226.81 155.562L225.656 157.222L224.208 158.753L222.473 160.141L220.459 161.376L218.176 162.446L215.634 163.341L212.844 164.051L209.819 164.568L206.57 164.883L203.112 164.989L199.459 164.879L195.625 164.55L191.627 163.995L187.479 163.211L183.199 162.197L178.803 160.95L174.307 159.471L169.73 157.76L165.088 155.818L160.4 153.648L155.681 151.255L150.95 148.643L146.225 145.817L141.521 142.786L136.856 139.555L132.246 136.135L127.708 132.534L123.256 128.764L118.906 124.836L114.673 120.762L110.57 116.555L106.61 112.229L102.805 107.798L99.1681 103.276L95.709 98.6802L92.4377 94.0255L89.3631 89.3286L86.4934 84.606L83.8355 79.8749L81.3955 75.1523L79.1785 70.4558L77.1883 65.8026L75.428 61.2102L73.8996 56.6961L72.6038 52.2774L71.5405 47.9712L70.7086 43.7942L70.1057 39.7628L69.7286 35.8931L69.5731 32.2005L69.634 28.7L69.9053 25.406L70.3798 22.3321L71.0498 19.4915L71.9064 16.8961L72.9403 14.5575L74.1412 12.486L75.4982 10.6913L76.9998 9.18193L78.6339 7.96549L80.3879 7.04854L82.2488 6.43657L84.2031 6.13395L86.237 6.144L88.3365 6.46884L90.4873 7.10951L92.6752 8.06587L94.8855 9.33665L97.1041 10.9194L99.3164 12.8106L101.508 15.0054L103.666 17.4982L105.775 20.2819L107.822 23.3486L109.795 26.6893L111.681 30.294L113.468 34.1516L115.144 38.2503L116.698 42.5772L118.121 47.1186L119.403 51.8603L120.534 56.7869L121.508 61.8828L122.317 67.1313L122.955 72.5157L123.417 78.0184L123.699 83.6216L123.796 89.307L123.707 95.0561L123.43 100.85L122.965 106.671L122.313 112.499L121.474 118.315L120.451 124.101L119.249 129.838L117.871 135.508L116.323 141.093L114.611 146.574L112.742 151.935L110.725 157.159L108.568 162.23L106.282 167.131L103.876 171.849L101.362 176.369L98.7523 180.678L96.0585 184.763L93.2939 188.612L90.4721 192.216L87.607 195.564L84.7129 198.647L81.8045 201.458L78.8966 203.99L76.0043 206.238L73.1428 208.198L70.3272 209.865L67.5729 211.239L64.8948 212.317L62.308 213.099L59.8271 213.588L57.4667 213.786L55.2407 213.694L53.1628 213.319L51.2462 212.666L49.5035 211.741L47.9466 210.551L46.587 209.105L45.4353 207.413L44.5014 205.485L43.7942 203.331L43.3219 200.964L43.092 198.396L43.1107 195.64L43.3833 192.711L43.9144 189.621L44.7071 186.388L45.764 183.024L47.0861 179.547L48.6737 175.972L50.5258 172.315L52.6405 168.592L55.0146 164.82L57.644 161.015L60.5236 157.192L63.6469 153.37L67.0066 149.562L70.5945 145.785L74.4012 142.054L78.4165 138.384L82.6291 134.79L87.0271 131.285L91.5975 127.882L96.3266 124.595L101.2 121.436L106.203 118.415L111.319 115.543L116.533 112.83L121.827 110.285L127.185 107.916L132.588 105.729L138.02 103.731L143.461 101.928L148.894 100.322L154.3 98.9171L159.661 97.7157L164.959 96.7187L170.175 95.9262L175.291 95.3372L180.29 94.9499L185.154 94.7614L189.867 94.7677L194.411 94.9641L198.772 95.3449L202.933 95.9034L206.879 96.6321L210.598 97.5227L214.075 98.5663L217.299 99.753L220.258 101.072L222.94 102.513L225.338 104.064L227.442 105.712L229.245 107.445L230.739 109.25L231.921 111.113L232.786 113.021L233.329 114.96L233.551 116.915" stroke="url(#paint0_linear_832_1653)" stroke-width="0.961242"/>
<defs>
<linearGradient id="paint0_linear_832_1653" x1="117.278" y1="1" x2="117.278" y2="233.556" gradientUnits="userSpaceOnUse">
<stop stop-color="#9E00FF"/>
<stop offset="1" stop-color="#000AFF"/>
</linearGradient>
</defs>
</svg>
