<svg width="685" height="685" viewBox="0 0 685 685" fill="none" xmlns="http://www.w3.org/2000/svg">
<path d="M1 342.5L1.25652 330.021L2.02561 317.563L3.3058 305.149L5.09465 292.8L7.38878 280.537L10.1838 268.382L13.4745 256.356L17.2546 244.48L21.5168 232.774L26.2532 221.259L31.4547 209.953L37.1115 198.878L43.2128 188.051L49.7472 177.491L56.7023 167.216L64.0648 157.244L71.821 147.591L79.956 138.273L88.4546 129.307L97.3008 120.706L106.478 112.485L115.968 104.657L125.755 97.2343L135.818 90.2295L146.14 83.6532L156.702 77.5155L167.482 71.8256L178.461 66.5919L189.619 61.8219L200.935 57.5222L212.387 53.6983L223.955 50.3552L235.617 47.4964L247.35 45.1249L259.135 43.2426L270.947 41.8504L282.767 40.9482L294.572 40.5351L306.341 40.6092L318.052 41.1676L329.683 42.2064L341.214 43.721L352.623 45.7057L363.89 48.1539L374.995 51.0581L385.918 54.41L396.639 58.2005L407.139 62.4193L417.401 67.0558L427.404 72.0982L437.133 77.534L446.57 83.3502L455.7 89.5329L464.506 96.0673L472.973 102.938L481.089 110.13L488.838 117.626L496.208 125.409L503.189 133.462L509.768 141.766L515.935 150.303L521.681 159.055L526.999 168.001L531.879 177.123L536.316 186.399L540.304 195.811L543.838 205.338L546.914 214.958L549.53 224.652L551.683 234.399L553.373 244.177L554.6 253.966L555.364 263.745L555.668 273.493L555.513 283.19L554.906 292.816L553.849 302.349L552.348 311.771L550.411 321.061L548.044 330.2L545.257 339.169L542.057 347.949L538.456 356.523L534.464 364.872L530.092 372.98L525.354 380.83L520.262 388.405L514.831 395.691L509.074 402.673L503.007 409.337L496.646 415.668L490.008 421.656L483.11 427.287L475.968 432.552L468.601 437.439L461.028 441.938L453.267 446.043L445.338 449.744L437.26 453.035L429.053 455.911L420.738 458.365L412.334 460.394L403.862 461.994L395.342 463.164L386.796 463.902L378.244 464.208L369.707 464.081L361.206 463.525L352.76 462.54L344.391 461.13L336.118 459.3L327.962 457.054L319.943 454.399L312.079 451.342L304.391 447.89L296.897 444.052L289.614 439.837L282.562 435.257L275.757 430.321L269.216 425.042L262.955 419.433L256.991 413.507L251.337 407.277L246.009 400.759L241.02 393.968L236.383 386.919L232.109 379.63L228.212 372.118L224.7 364.399L221.584 356.493L218.873 348.417L216.575 340.19L214.697 331.831L213.245 323.361L212.224 314.798L211.64 306.163L211.494 297.476L211.791 288.757L212.532 280.027L213.717 271.306L215.346 262.615L217.418 253.973L219.931 245.403L222.881 236.923L226.265 228.555L230.077 220.317L234.311 212.23L238.961 204.314L244.02 196.587L249.477 189.068L255.325 181.776L261.552 174.728L268.147 167.943L275.099 161.437L282.394 155.226L290.019 149.327L297.961 143.754L306.203 138.523L314.731 133.647L323.528 129.14L332.577 125.014L341.861 121.281L351.362 117.952L361.061 115.037L370.94 112.545L380.979 110.486L391.158 108.866L401.458 107.692L411.857 106.971L422.336 106.708L432.873 106.905L443.447 107.567L454.038 108.696L464.623 110.293L475.182 112.358L485.692 114.891L496.133 117.889L506.484 121.352L516.723 125.274L526.829 129.651L536.782 134.48L546.56 139.752L556.145 145.46L565.515 151.598L574.651 158.156L583.534 165.123L592.146 172.49L600.468 180.245L608.483 188.375L616.173 196.869L623.521 205.711L630.513 214.887L637.133 224.383L643.365 234.182L649.197 244.268L654.616 254.623L659.608 265.231L664.163 276.072L668.27 287.128L671.919 298.38L675.101 309.809L677.808 321.394L680.033 333.114L681.769 344.951L683.012 356.881L683.757 368.885L684 380.941L683.739 393.028L682.974 405.124L681.702 417.207L679.925 429.256L677.643 441.25L674.861 453.166L671.58 464.984L667.805 476.682L663.541 488.239L658.796 499.634L653.574 510.848L647.886 521.859L641.74 532.648L635.145 543.195L628.112 553.482L620.654 563.491L612.781 573.202L604.508 582.599L595.849 591.665L586.817 600.383L577.429 608.739L567.7 616.717L557.648 624.303L547.289 631.484L536.642 638.247L525.725 644.58L514.557 650.472L503.157 655.913L491.546 660.893L479.743 665.405L467.77 669.44L455.647 672.992L443.396 676.055L431.038 678.625L418.595 680.697L406.089 682.268L393.541 683.337L380.974 683.902L368.41 683.964L355.87 683.523L343.376 682.582L330.952 681.142L318.617 679.208L306.394 676.784L294.303 673.877L282.367 670.492L270.604 666.637L259.037 662.321L247.683 657.552L236.564 652.34L225.697 646.698L215.102 640.635L204.796 634.165L194.796 627.301L185.12 620.057L175.782 612.448L166.799 604.488L158.185 596.195L149.953 587.584L142.118 578.673L134.691 569.479L127.683 560.022L121.106 550.318L114.968 540.389L109.28 530.252L104.048 519.929L99.2808 509.439L94.9834 498.803L91.1613 488.042L87.8188 477.176L84.9592 466.226L82.5847 455.215L80.6969 444.162L79.296 433.09L78.3816 422.019L77.9522 410.971L78.0052 399.967L78.5372 389.027L79.5439 378.173L81.0199 367.425L82.959 356.803L85.3541 346.328L88.1972 336.018L91.4793 325.893L95.1907 315.971L99.3207 306.272L103.858 296.812L108.79 287.609L114.105 278.68L119.787 270.041L125.824 261.706L132.2 253.692L138.898 246.011L145.903 238.678L153.199 231.705L160.766 225.103L168.588 218.884L176.645 213.057L184.92 207.633L193.392 202.619L202.043 198.024L210.851 193.854L219.797 190.114L228.861 186.81L238.021 183.945L247.257 181.524L256.549 179.547L265.874 178.015L275.213 176.931L284.543 176.291L293.845 176.095L303.098 176.341L312.28 177.024L321.372 178.14L330.353 179.684L339.204 181.65L347.905 184.031L356.436 186.818L364.779 190.002L372.916 193.575L380.828 197.526L388.498 201.842L395.91 206.513L403.046 211.525L409.893 216.866L416.433 222.52L422.654 228.473L428.542 234.71L434.084 241.214L439.267 247.969L444.08 254.957L448.514 262.162L452.557 269.565L456.203 277.148L459.441 284.891L462.266 292.776L464.672 300.783L466.652 308.892L468.204 317.084L469.323 325.338L470.006 333.634L470.254 341.952L470.064 350.271L469.437 358.571L468.376 366.832L466.881 375.033L464.957 383.154L462.607 391.176L459.837 399.078L456.652 406.841L453.06 414.446L449.069 421.873L444.686 429.105L439.922 436.124L434.787 442.91L429.292 449.448L423.449 455.721L417.271 461.713L410.772 467.407L403.965 472.789L396.866 477.846L389.489 482.562L381.852 486.926L373.971 490.926L365.863 494.549L357.546 497.785L349.038 500.625L340.359 503.059L331.527 505.08L322.562 506.681L313.483 507.854L304.312 508.594L295.067 508.897L285.771 508.76L276.442 508.179L267.104 507.153L257.775 505.68L248.478 503.762L239.234 501.399L230.062 498.592L220.985 495.346L212.022 491.663L203.194 487.549L194.522 483.01L186.025 478.051L177.723 472.68L169.636 466.906L161.782 460.738L154.18 454.186L146.848 447.261L139.804 439.974L133.064 432.339L126.645 424.368L120.563 416.075L114.832 407.474L109.469 398.582L104.485 389.415L99.8952 379.988L95.7109 370.319L91.9438 360.426L88.6046 350.326L85.7032 340.04L83.2486 329.585L81.2489 318.981L79.7115 308.248L78.6427 297.407L78.0479 286.478L77.9316 275.481L78.2974 264.437L79.1478 253.368L80.4845 242.295L82.3082 231.239L84.6187 220.22L87.4145 209.262L90.6936 198.383L94.4528 187.607L98.6879 176.953L103.394 166.443L108.565 156.097L114.193 145.935L120.272 135.977L126.792 126.242L133.743 116.751L141.116 107.522L148.899 98.5726L157.079 89.9212L165.643 81.5849L174.579 73.5806L183.87 65.9241L193.503 58.6311L203.461 51.7163L213.728 45.1937L224.286 39.0768L235.118 33.378L246.205 28.1093L257.529 23.2815L269.069 18.9048L280.807 14.9887L292.722 11.5414L304.793 8.57067L317 6.08306L329.322 4.08431L341.736 2.57927L354.221 1.57179L366.756 1.06483L379.319 1.06036L391.887 1.55938L404.438 2.562L416.951 4.0673L429.404 6.07343L441.774 8.57759L454.041 11.576L466.182 15.064L478.176 19.036L490.002 23.4853L501.64 28.4046L513.068 33.7855L524.268 39.6187L535.219 45.8942L545.903 52.601L556.301 59.7274L566.395 67.2608L576.167 75.1879L585.601 83.4947L594.68 92.1664L603.39 101.187L611.714 110.542L619.64 120.213L627.154 130.183L634.243 140.434L640.897 150.949L647.103 161.707L652.852 172.69L658.135 183.878L662.944 195.25L667.271 206.787L671.111 218.468L674.457 230.271L677.306 242.176L679.653 254.16L681.497 266.203L682.835 278.283L683.667 290.379L683.995 302.468L683.817 314.529L683.139 326.541L681.961 338.483L680.289 350.333L678.128 362.07L675.485 373.674L672.365 385.124L668.777 396.401L664.73 407.484L660.233 418.354L655.298 428.994L649.935 439.383L644.157 449.505L637.976 459.343L631.407 468.88L624.463 478.099L617.16 486.986L609.514 495.526L601.542 503.705L593.259 511.51L584.685 518.929L575.836 525.95L566.732 532.562L557.391 538.755L547.834 544.521L538.08 549.851L528.149 554.738L518.062 559.175L507.839 563.158L497.502 566.681L487.072 569.741L476.569 572.335L466.015 574.461L455.433 576.12L444.842 577.31L434.264 578.034L423.721 578.293L413.233 578.089L402.822 577.428L392.508 576.314L382.312 574.753L372.253 572.751L362.352 570.315L352.628 567.456L343.1 564.18L333.786 560.5L324.705 556.425L315.874 551.967L307.31 547.139L299.029 541.954L291.047 536.426L283.38 530.569L276.04 524.398L269.042 517.93L262.399 511.18L256.123 504.166L250.225 496.905L244.716 489.415L239.604 481.715L234.9 473.822L230.61 465.757L226.742 457.538L223.302 449.185L220.294 440.719L217.724 432.16L215.594 423.526L213.906 414.841L212.663 406.122L211.864 397.392L211.508 388.671L211.595 379.978L212.122 371.335L213.085 362.762L214.481 354.278L216.304 345.904L218.547 337.658L221.204 329.561L224.267 321.631L227.727 313.887L231.574 306.346L235.799 299.027L240.389 291.946L245.332 285.12L250.616 278.565L256.228 272.297L262.152 266.329L268.375 260.677L274.88 255.354L281.651 250.373L288.672 245.745L295.925 241.482L303.393 237.594L311.056 234.09L318.898 230.98L326.898 228.272L335.037 225.972L343.295 224.087L351.653 222.622L360.09 221.581L368.585 220.967L377.119 220.784L385.67 221.032L394.218 221.713L402.742 222.827L411.221 224.371L419.635 226.343L427.964 228.742L436.186 231.562L444.282 234.798L452.232 238.446L460.016 242.498L467.615 246.946L475.01 251.783L482.182 256.998L489.114 262.581L495.788 268.523L502.186 274.81L508.292 281.431L514.091 288.371L519.566 295.618L524.703 303.156L529.489 310.971L533.909 319.045L537.952 327.364L541.606 335.909L544.859 344.663L547.701 353.609L550.124 362.726L552.118 371.997L553.676 381.403L554.792 390.923L555.459 400.537L555.673 410.226L555.43 419.969L554.727 429.745L553.561 439.534L551.932 449.315L549.84 459.067L547.285 468.769L544.269 478.4L540.795 487.94L536.867 497.368L532.489 506.664L527.667 515.807L522.406 524.777L516.716 533.556L510.604 542.122L504.078 550.458L497.15 558.545L489.83 566.365L482.13 573.9L474.063 581.132L465.641 588.046L456.878 594.626L447.791 600.856L438.393 606.721L428.702 612.208L418.733 617.303L408.505 621.993L398.035 626.268L387.342 630.115L376.445 633.526L365.363 636.489L354.115 638.998L342.724 641.044L331.208 642.621L319.588 643.723L307.887 644.345L296.125 644.483L284.323 644.134L272.504 643.296L260.689 641.968L248.9 640.151L237.158 637.844L225.486 635.049L213.905 631.769L202.436 628.009L191.101 623.771L179.921 619.063L168.917 613.89L158.109 608.259L147.518 602.18L137.163 595.661L127.065 588.712L117.241 581.344L107.71 573.569L98.4909 565.399L89.6002 556.847L81.0548 547.928L72.871 538.655L65.0641 529.046L57.6489 519.114L50.6394 508.879L44.0489 498.355L37.8899 487.562L32.1739 476.519L26.9118 465.243L22.1137 453.754L17.7885 442.071L13.9445 430.216L10.589 418.209L7.72837 406.07L5.36799 393.82L3.51236 381.481L2.16504 369.075L1.32852 356.621L1.00444 344.144L1.19341 331.663L1.89505 319.202L3.10806 306.781L4.83009 294.422L7.0579 282.147L9.78727 269.976L13.013 257.932L16.729 246.035L20.9282 234.305L25.6026 222.764L30.7434 211.43L36.3408 200.323L42.3843 189.462L48.8623 178.866L55.7627 168.553L63.0724 158.539L70.7775 148.844L78.8635 139.481L87.3151 130.467L96.1165 121.817L105.251 113.545L114.701 105.665L124.45 98.1882L134.478 91.1278L144.767 84.4945L155.298 78.2984L166.05 72.549L177.005 67.2548L188.14 62.4233L199.436 58.0613L210.872 54.1746L222.426 50.7678L234.076 47.8451L245.802 45.4093L257.58 43.4625L269.391 42.0057L281.211 41.039L293.019 40.5616L304.794 40.5717L316.513 41.0665L328.156 42.0423L339.702 43.4946L351.128 45.4177L362.415 47.8052L373.543 50.6498L384.491 53.9433L395.239 57.6765L405.77 61.8396L416.063 66.4217L426.102 71.4113L435.868 76.7961L445.345 82.563L454.516 88.6982L463.365 95.1871L471.878 102.015L480.04 109.165L487.839 116.622L495.26 124.368L502.292 132.386L508.925 140.659L515.147 149.166L520.949 157.891L526.323 166.812L531.262 175.912L535.757 185.169L539.805 194.565L543.399 204.077L546.535 213.687L549.212 223.372L551.426 233.113L553.177 242.888L554.465 252.677L555.29 262.458L555.654 272.212L555.56 281.917L555.012 291.553L554.013 301.1L552.571 310.537L550.691 319.846L548.38 329.006L545.648 337.998L542.502 346.804L538.953 355.406L535.011 363.786L530.689 371.927L525.999 379.811L520.952 387.424L515.565 394.749L509.85 401.771L503.823 408.478L497.5 414.854L490.898 420.888L484.032 426.567L476.922 431.88L469.583 436.817L462.036 441.368L454.299 445.525L446.391 449.28L438.332 452.626L430.141 455.556L421.838 458.066L413.445 460.151L404.981 461.808L396.466 463.035L387.923 463.83L379.37 464.192L370.83 464.123L362.322 463.622L353.868 462.694L345.488 461.34L337.201 459.565L329.029 457.373L320.991 454.772L313.105 451.767L305.393 448.367L297.872 444.579L290.561 440.414L283.477 435.881L276.638 430.991L270.061 425.757L263.763 420.19L257.759 414.305L252.063 408.114L246.692 401.633L241.657 394.877L236.973 387.862L232.651 380.603L228.703 373.119L225.14 365.427L221.972 357.544L219.207 349.489L216.854 341.281L214.92 332.939L213.411 324.482L212.334 315.93L211.691 307.304L211.488 298.622L211.727 289.907L212.409 281.177L213.536 272.453L215.106 263.757L217.12 255.108L219.575 246.527L222.468 238.034L225.794 229.65L229.55 221.394L233.73 213.286L238.326 205.346L243.33 197.593L248.736 190.046L254.533 182.723L260.71 175.642L267.258 168.821L274.163 162.277L281.414 156.026L288.997 150.085L296.897 144.469L305.101 139.192L313.592 134.269L322.354 129.712L331.371 125.535L340.625 121.75L350.099 118.367L359.773 115.397L369.629 112.849L379.648 110.732L389.81 109.054L400.095 107.821L410.482 107.04L420.952 106.716L431.483 106.853L442.053 107.454L452.643 108.521L463.23 110.056L473.793 112.059L484.311 114.53L494.763 117.468L505.127 120.869L515.382 124.731L525.506 129.049L535.48 133.818L545.283 139.032L554.894 144.684L564.294 150.765L573.462 157.268L582.38 164.182L591.028 171.497L599.389 179.202L607.445 187.284L615.179 195.73L622.574 204.527L629.613 213.66L636.283 223.115L642.567 232.875L648.453 242.924L653.926 253.244L658.976 263.82L663.589 274.631L667.755 285.66L671.465 296.888L674.709 308.294L677.479 319.86L679.767 331.564L681.568 343.386L682.877 355.305L683.687 367.301L683.997 379.351L683.803 391.435L683.103 403.531L681.898 415.617L680.188 427.672L677.973 439.674L675.256 451.602L672.04 463.434L668.33 475.149L664.131 486.725L659.448 498.143L654.289 509.382L648.662 520.421L642.575 531.24L636.039 541.821L629.063 552.143L621.66 562.189L613.841 571.941L605.62 581.38L597.011 590.49L588.027 599.256L578.685 607.66L569.001 615.689L558.99 623.327L548.67 630.562L538.06 637.38L527.177 643.77L516.041 649.721L504.671 655.222L493.086 660.264L481.308 664.838L469.356 668.936L457.252 672.552L445.016 675.68L432.671 678.315L420.238 680.452L407.739 682.09L395.195 683.225L382.629 683.857L370.063 683.985L357.519 683.61L345.018 682.734L332.583 681.36L320.235 679.491L307.996 677.131L295.887 674.287L283.929 670.965L272.143 667.171L260.548 662.915L249.166 658.205L238.014 653.052L227.113 647.465L216.481 641.457L206.136 635.04L196.095 628.227L186.375 621.032L176.992 613.47L167.961 605.556L159.298 597.306L151.015 588.736L143.127 579.863L135.645 570.706L128.581 561.282L121.947 551.61L115.751 541.709L110.003 531.598L104.711 521.299L99.882 510.83L95.5223 500.212L91.6374 489.466L88.2315 478.612L85.3081 467.673L82.8696 456.668L80.9177 445.62L79.4527 434.549L78.4743 423.476L77.9811 412.424L77.9707 401.413L78.4399 390.464L79.3843 379.597L80.7989 368.834L82.6774 358.194L85.0129 347.698L87.7975 337.365L91.0223 327.215L94.6777 317.266L98.7533 307.536L103.238 298.044L108.119 288.806L113.383 279.84L119.018 271.161L125.009 262.786L131.341 254.728L137.998 247.003L144.964 239.623L152.222 232.602L159.754 225.951L167.544 219.68L175.571 213.802L183.819 208.324L192.266 203.256L200.894 198.605L209.683 194.378L218.612 190.582L227.661 187.22L236.81 184.297L246.037 181.817L255.323 179.781L264.645 178.192L273.983 177.048L283.316 176.35L292.623 176.096L301.883 176.283L311.076 176.909L320.181 177.968L329.178 179.457L338.047 181.368L346.768 183.694L355.323 186.428L363.692 189.561L371.856 193.083L379.799 196.984L387.502 201.253L394.949 205.878L402.123 210.846L409.008 216.144L415.59 221.758L421.854 227.672L427.786 233.873L433.374 240.342L438.605 247.065L443.468 254.024L447.952 261.202L452.047 268.58L455.746 276.14L459.038 283.863L461.918 291.73L464.379 299.722L466.416 307.819L468.024 316.001L469.2 324.248L469.941 332.54L470.246 340.856L470.114 349.176L469.545 357.48L468.541 365.747L467.103 373.957L465.235 382.09L462.941 390.126L460.226 398.045L457.095 405.827L453.557 413.454L449.617 420.906L445.285 428.165L440.571 435.212L435.484 442.03L430.036 448.602L424.238 454.911L418.104 460.94L411.646 466.674L404.879 472.099L397.817 477.199L390.476 481.961L382.872 486.372L375.022 490.42L366.943 494.093L358.653 497.381L350.169 500.274L341.511 502.762L332.698 504.838L323.749 506.494L314.685 507.724L305.524 508.521L296.288 508.883L286.997 508.803L277.672 508.281L268.333 507.313L259.003 505.9L249.7 504.04L240.447 501.735L231.265 498.987L222.174 495.799L213.195 492.173L204.348 488.116L195.654 483.632L187.133 478.728L178.805 473.411L170.688 467.689L162.802 461.573L155.166 455.071L147.798 448.194L140.714 440.954L133.933 433.364L127.471 425.436L121.344 417.185L115.566 408.624L110.154 399.77L105.119 390.637L100.477 381.244L96.2384 371.606L92.4157 361.741L89.0195 351.668L86.0599 341.405L83.546 330.971L81.486 320.385L79.8873 309.669L78.7565 298.84L78.099 287.921L77.9194 276.932L78.2216 265.894L79.008 254.827L80.2806 243.753L82.0402 232.693L84.2866 221.669L87.0186 210.701L90.2342 199.811L93.9304 189.02L98.1031 178.349L102.747 167.818L107.857 157.449L113.426 147.262L119.446 137.276L125.908 127.511L132.804 117.987L140.121 108.722L147.851 99.7346L155.979 91.0429L164.494 82.6642L173.381 74.6152L182.627 66.912L192.216 59.5703L202.132 52.6049L212.359 46.0299L222.88 39.8588L233.676 34.1042L244.731 28.7782L256.024 23.8917L267.538 19.4551L279.251 15.4778L291.143 11.9684L303.195 8.93444L315.386 6.38284L327.693 4.31942L340.096 2.7491L352.574 1.67592L365.103 1.1029L377.663 1.03217L390.232 1.46486L402.787 2.40119L415.306 3.84036L427.768 5.78068L440.151 8.21943L452.432 11.153L464.591 14.5768L476.605 18.4854L488.455 22.8723L500.118 27.7302L511.576 33.0508L522.807 38.825L533.792 45.0428L544.512 51.6935L554.949 58.7653L565.083 66.2459L574.899 74.1219L584.378 82.3795L593.505 91.004L602.264 99.98L610.64 109.291L618.62 118.922L626.189 128.853L633.335 139.069L640.046 149.55L646.311 160.277L652.121 171.231L657.466 182.393L662.338 193.743L666.729 205.259L670.633 216.922L674.045 228.71L676.959 240.603L679.373 252.578L681.283 264.615L682.688 276.691L683.587 288.786L683.98 300.877L683.87 312.943L683.257 324.963L682.145 336.915L680.538 348.778L678.441 360.531L675.86 372.154L672.803 383.626L669.276 394.926L665.289 406.036L660.851 416.936L655.973 427.606L650.665 438.03L644.941 448.188L638.813 458.064L632.294 467.642L625.398 476.904L618.142 485.835L610.54 494.422L602.61 502.649L594.367 510.504L585.83 517.974L577.016 525.048L567.945 531.715L558.634 537.964L549.104 543.787L539.375 549.174L529.466 554.12L519.399 558.617L509.193 562.66L498.869 566.243L488.45 569.364L477.956 572.02L467.407 574.208L456.827 575.928L446.236 577.18L435.655 577.965L425.107 578.285L414.61 578.142L404.188 577.541L393.86 576.487L383.647 574.984L373.569 573.039L363.646 570.661L353.898 567.856L344.343 564.635L335 561.007L325.887 556.984L317.022 552.576L308.422 547.796L300.103 542.657L292.081 537.173L284.371 531.359L276.987 525.228L269.944 518.798L263.254 512.085L256.928 505.105L250.98 497.875L245.419 490.414L240.255 482.74L235.496 474.872L231.151 466.828L227.227 458.628L223.73 450.292L220.666 441.84L218.037 433.291L215.849 424.667L214.103 415.987L212.801 407.272L211.943 398.542L211.53 389.818L211.559 381.121L212.028 372.47L212.934 363.886L214.273 355.39L216.039 347L218.228 338.736L220.831 330.619L223.841 322.666L227.249 314.896L231.046 307.327L235.221 299.978L239.764 292.864L244.661 286.004L249.901 279.412L255.471 273.105L261.355 267.097L267.539 261.403L274.008 256.036L280.745 251.009L287.734 246.334L294.957 242.022L302.397 238.084L310.037 234.529L317.856 231.367L325.836 228.606L333.958 226.252L342.201 224.311L350.547 222.79L358.975 221.693L367.464 221.023L375.993 220.783L384.543 220.975L393.093 221.599L401.621 222.655L410.108 224.143L418.532 226.059L426.873 228.402L435.11 231.166L443.224 234.349L451.194 237.942L459.001 241.941L466.626 246.338L474.049 251.124L481.251 256.29L488.216 261.825L494.924 267.72L501.36 273.963L507.505 280.54L513.345 287.439L518.864 294.647L524.047 302.147L528.879 309.926L533.349 317.968L537.442 326.255L541.147 334.771L544.454 343.499L547.351 352.42L549.829 361.516L551.88 370.768L553.496 380.157L554.671 389.663L555.397 399.266L555.671 408.946L555.489 418.683L554.846 428.456L553.741 438.245L552.173 448.028L550.142 457.785L547.648 467.494L544.693 477.136L541.279 486.69L537.41 496.134L533.091 505.448L528.327 514.612L523.124 523.606L517.49 532.411L511.432 541.007L504.961 549.374L498.085 557.495L490.816 565.351L483.166 572.924L475.146 580.198L466.77 587.155L458.051 593.779L449.006 600.056L439.648 605.97L429.994 611.507L420.061 616.655L409.866 621.399L399.427 625.729L388.762 629.633L377.891 633.102L366.832 636.125L355.605 638.694L344.232 640.801L332.731 642.44L321.124 643.605L309.432 644.29L297.677 644.492L285.879 644.208L274.061 643.435L262.244 642.171L250.45 640.418L238.701 638.175L227.019 635.445L215.424 632.229L203.939 628.531L192.585 624.356L181.384 619.71L170.355 614.597L159.521 609.027L148.9 603.006L138.513 596.544L128.379 589.651L118.518 582.338L108.948 574.616L99.6866 566.497L90.7517 557.995L82.1599 549.123L73.9276 539.896L66.0702 530.33L58.6026 520.44L51.5389 510.243L44.8925 499.757L38.6759 488.999L32.901 477.987L27.5785 466.74L22.7187 455.278L18.3308 443.62L14.423 431.787L11.0028 419.798L8.07661 407.675L5.65008 395.439L3.72776 383.111L2.31331 370.712L1.40942 358.263L1.0178 345.788L1.1392 333.306L1.77337 320.841L2.91913 308.413L4.57429 296.045L6.73573 283.758L9.3993 271.572L12.56 259.51L16.2118 247.593L20.3478 235.84L24.9601 224.272L30.04 212.91L35.5779 201.772L41.5633 190.877L47.9847 180.246L54.8302 169.894L62.0868 159.84L69.7406 150.102L77.7773 140.694L86.1817 131.634L94.9379 122.935L104.029 114.612L113.439 106.68L123.149 99.1493L133.142 92.0335L143.398 85.3433L153.898 79.0891L164.622 73.2804L175.551 67.9258L186.664 63.033L197.94 58.6088L209.359 54.6591L220.898 51.1889L232.537 48.2023L244.254 45.7022L256.027 43.6909L267.834 42.1695L279.655 41.1383L291.466 40.5966L303.246 40.5426L314.974 40.9737L326.628 41.8864L338.187 43.2762L349.631 45.1377L360.937 47.4645L372.087 50.2493L383.06 53.4842L393.836 57.1601L404.396 61.2671L414.722 65.7947L424.795 70.7313L434.598 76.0648L444.114 81.7821L453.326 87.8696L462.219 94.3128L470.777 101.097L478.986 108.206L486.833 115.623L494.304 123.332L501.389 131.316L508.074 139.555L514.351 148.033L520.209 156.73L525.64 165.627L530.636 174.704L535.191 183.942L539.297 193.32L542.951 202.818L546.149 212.416L548.886 222.093L551.161 231.827L552.973 241.599L554.322 251.387L555.207 261.171L555.632 270.93L555.598 280.642L555.11 290.289L554.17 299.848L552.786 309.301L550.963 318.628L548.709 327.808L546.031 336.824L542.939 345.656L539.443 354.286L535.553 362.696L531.28 370.869L526.637 378.788L521.637 386.437L516.293 393.801L510.621 400.864L504.634 407.613L498.35 414.033L491.783 420.113L484.951 425.839L477.872 431.201L470.562 436.189L463.042 440.791L455.328 445.001L447.442 448.809L439.401 452.209L431.226 455.194L422.937 457.759L414.555 459.901L406.099 461.615L397.59 462.898L389.049 463.75L380.496 464.169L371.953 464.157L363.44 463.713L354.978 462.84L346.586 461.542L338.287 459.822L330.098 457.685L322.041 455.138L314.135 452.186L306.398 448.837L298.851 445.1L291.511 440.983L284.396 436.498L277.524 431.655L270.912 426.465L264.576 420.942L258.532 415.098L252.795 408.946L247.38 402.503L242.3 395.782L237.569 388.8L233.199 381.573L229.201 374.117L225.587 366.451L222.366 358.592L219.548 350.559L217.14 342.37L215.15 334.045L213.585 325.602L212.451 317.061L211.751 308.443L211.49 299.768L211.67 291.056L212.294 282.327L213.362 273.601L214.874 264.9L216.83 256.244L219.226 247.652L222.062 239.147L225.332 230.747L229.031 222.473L233.155 214.345L237.697 206.381L242.648 198.603L248.001 191.027L253.747 183.674L259.875 176.56L266.375 169.704L273.234 163.122L280.44 156.832L287.98 150.849L295.839 145.189L304.004 139.867L312.458 134.896L321.185 130.291L330.17 126.063L339.394 122.226L348.839 118.789L358.488 115.764L368.321 113.16L378.32 110.986L388.464 109.249L398.734 107.958L409.109 107.117L419.569 106.732L430.093 106.808L440.66 107.348L451.248 108.354L461.836 109.827L472.404 111.769L482.929 114.178L493.391 117.054L503.768 120.395L514.038 124.196L524.181 128.454L534.176 133.164L544.003 138.32L553.64 143.915L563.068 149.94L572.268 156.388L581.22 163.249L589.905 170.511L598.305 178.165L606.402 186.198L614.18 194.597L621.62 203.349L628.707 212.439L635.426 221.852L641.762 231.572L647.701 241.584L653.23 251.87L658.335 262.413L663.007 273.195L667.232 284.196L671.003 295.398L674.308 306.782L677.141 318.328L679.494 330.015L681.359 341.823L682.733 353.731L683.609 365.717L683.985 377.762L683.857 389.843L683.224 401.938L682.086 414.027L680.442 426.087L678.293 438.097L675.642 450.036L672.492 461.882L668.847 473.613L664.711 485.209L660.092 496.649L654.995 507.913L649.429 518.979L643.403 529.829L636.925 540.442L630.007 550.799L622.659 560.883L614.894 570.674L606.726 580.155L598.166 589.31L589.231 598.122L579.936 606.574L570.295 614.653L560.326 622.344L550.047 629.632L539.474 636.507L528.626 642.954L517.522 648.963L506.181 654.524L494.624 659.626L482.87 664.262L470.939 668.424L458.854 672.104L446.635 675.296L434.303 677.996L421.88 680.2L409.388 681.903L396.849 683.104L384.285 683.802L371.718 683.997L359.169 683.688L346.661 682.878L334.216 681.569L321.856 679.765L309.601 677.47L297.474 674.689L285.495 671.43L273.684 667.698L262.063 663.502L250.652 658.851L239.469 653.755L228.534 648.225L217.866 642.272L207.482 635.908L197.4 629.147L187.636 622.001L178.208 614.487L169.13 606.618L160.417 598.411L152.084 589.882L144.143 581.048L136.607 571.927L129.487 562.537L122.796 552.897L116.542 543.025L110.734 532.941L105.382 522.665L100.491 512.217L96.0694 501.618L92.1217 490.887L88.6525 480.047L85.6654 469.117L83.163 458.12L81.1469 447.076L79.6178 436.007L78.5754 424.934L78.0184 413.878L77.9446 402.86L78.3508 391.901L79.2329 381.023L80.5859 370.245L82.4037 359.588L84.6795 349.072L87.4054 338.716L90.5728 328.541L94.1721 318.564L98.1929 308.804L102.624 299.279L107.454 290.007L112.669 281.005L118.256 272.287L124.201 263.871L130.488 255.771L137.103 248.001L144.029 240.575L151.25 233.506L158.747 226.805L166.504 220.484L174.501 214.553L182.72 209.022L191.143 203.9L199.748 199.193L208.517 194.91L217.428 191.057L226.463 187.638L235.6 184.657L244.818 182.118L254.097 180.024L263.416 178.375L272.753 177.173L282.088 176.416L291.399 176.104L300.667 176.233L309.87 176.802L318.987 177.804L328 179.236L336.887 181.092L345.629 183.364L354.206 186.045L362.601 189.126L370.793 192.597L378.766 196.449L386.502 200.67L393.983 205.249L401.194 210.173L408.118 215.428L414.741 221.001L421.048 226.877L427.024 233.04L432.658 239.476L437.937 246.166L442.849 253.095L447.383 260.245L451.531 267.597L455.281 275.134L458.628 282.837L461.563 290.686L464.079 298.663L466.172 306.747L467.837 314.919L469.07 323.159L469.869 331.446L470.231 339.76L470.156 348.081L469.645 356.388L468.698 364.661L467.317 372.88L465.505 381.024L463.267 389.074L460.607 397.009L457.531 404.811L454.046 412.459L450.158 419.935L445.878 427.22L441.213 434.297L436.175 441.146L430.774 447.751L425.021 454.096L418.93 460.163L412.514 465.937L405.787 471.403L398.763 476.546L391.458 481.354L383.888 485.812L376.069 489.908L368.019 493.631L359.756 496.971L351.297 499.916L342.661 502.458L333.867 504.589L324.935 506.3L315.884 507.586L306.735 508.441L297.508 508.86L288.223 508.839L278.901 508.375L269.563 507.466L260.23 506.111L250.923 504.31L241.662 502.064L232.47 499.374L223.365 496.244L214.37 492.676L205.505 488.675L196.79 484.246L188.245 479.397L179.89 474.134L171.744 468.466L163.827 462.401L156.157 455.949L148.752 449.121L141.63 441.928L134.808 434.383L128.303 426.499L122.131 418.289L116.307 409.769L110.845 400.952L105.76 391.855L101.065 382.495L96.773 372.888L92.895 363.052L89.442 353.006L86.4244 342.766L83.8513 332.354L81.7311 321.787L80.0713 311.087L78.8785 300.272L78.1583 289.364L77.9156 278.383L78.1541 267.35L78.8767 256.285L80.0852 245.211L81.7806 234.148L83.9629 223.118L86.6311 212.141L89.7832 201.24L93.4163 190.435L97.5264 179.746L102.109 169.196L107.158 158.805L112.667 148.592L118.628 138.579L125.032 128.784L131.871 119.227L139.134 109.926L146.81 100.902L154.886 92.1701L163.351 83.7492L172.19 75.6558L181.389 67.9062L190.934 60.516L200.808 53.5002L210.995 46.873L221.478 40.648L232.239 34.8378L243.261 29.4547L254.524 24.5098L266.009 20.0133L277.697 15.975L289.568 12.4035L301.6 9.30656L313.773 6.69109L326.066 4.56306L338.458 2.92757L350.927 1.78871L363.451 1.14968L376.008 1.01271L388.577 1.37907L401.135 2.2491L413.66 3.62212L426.131 5.49657L438.525 7.86987L450.821 10.7385L462.997 14.0981L475.032 17.9432L486.904 22.2675L498.594 27.0637L510.079 32.3239L521.341 38.0389L532.36 44.1989L543.116 50.7933L553.591 57.8103L563.766 65.2377L573.625 73.0625L583.15 81.2707L592.324 89.8477L601.132 98.7783L609.56 108.046L617.592 117.636L625.216 127.529L632.418 137.708L639.187 148.155L645.512 158.851L651.382 169.776L656.789 180.912L661.724 192.238L666.178 203.734L670.147 215.379L673.624 227.151L676.604 239.031L679.083 250.997L681.06 263.027L682.531 275.099L683.497 287.192L683.957 299.285L683.913 311.356L683.366 323.383L682.319 335.345L680.777 347.222L678.745 358.99L676.228 370.631L673.232 382.124L669.767 393.448L665.84 404.584L661.461 415.513L656.64 426.215L651.388 436.672L645.718 446.866L639.642 456.78L633.174 466.398L626.327 475.702L619.118 484.678L611.561 493.311L603.672 501.587L595.47 509.491L586.97 517.013L578.192 524.14L569.153 530.86L559.873 537.165L550.371 543.044L540.667 548.49L530.781 553.494L520.733 558.05L510.544 562.153L500.235 565.798L489.827 568.98L479.341 571.697L468.799 573.947L458.222 575.729L447.631 577.042L437.048 577.888L426.493 578.269L415.989 578.187L405.556 577.647L395.214 576.651L384.985 575.207L374.888 573.32L364.944 570.998L355.171 568.25L345.59 565.083L336.218 561.508L327.074 557.536L318.175 553.178L309.539 548.446L301.182 543.354L293.12 537.915L285.368 532.143L277.941 526.053L270.852 519.662L264.114 512.985L257.74 506.039L251.742 498.841L246.129 491.409L240.912 483.762L236.099 475.919L231.7 467.897L227.72 459.717L224.166 451.397L221.044 442.959L218.358 434.422L216.112 425.806L214.308 417.132L212.947 408.421L212.031 399.692L211.559 390.966L211.53 382.264L211.941 373.606L212.79 365.012L214.072 356.503L215.782 348.098L217.916 339.817L220.464 331.679L223.421 323.703L226.778 315.908L230.524 308.312L234.65 300.933L239.145 293.787L243.996 286.892L249.192 280.264L254.719 273.919L260.562 267.871L266.708 262.135L273.14 256.724L279.843 251.651L286.799 246.929L293.993 242.569L301.406 238.581L309.02 234.975L316.816 231.761L324.776 228.946L332.881 226.538L341.109 224.543L349.443 222.967L357.861 221.813L366.343 221.087L374.868 220.79L383.417 220.925L391.968 221.492L400.5 222.491L408.993 223.922L417.427 225.782L425.78 228.069L434.032 230.778L442.163 233.906L450.153 237.446L457.983 241.392L465.633 245.737L473.083 250.472L480.316 255.588L487.313 261.076L494.056 266.924L500.528 273.121L506.713 279.655L512.594 286.513L518.156 293.68L523.384 301.143L528.263 308.887L532.781 316.894L536.925 325.15L540.682 333.637L544.041 342.338L546.993 351.235L549.527 360.309L551.635 369.541L553.308 378.913L554.541 388.405L555.327 397.996L555.661 407.668L555.539 417.398L554.957 427.168L553.913 436.955L552.406 446.74L550.436 456.502L548.003 466.219L545.108 475.871L541.755 485.437L537.946 494.897L533.686 504.229L528.98 513.414L523.834 522.432L518.256 531.263L512.254 539.887L505.837 548.286L499.014 556.44L491.796 564.332L484.195 571.944L476.223 579.257L467.893 586.257L459.219 592.926L450.215 599.25L440.898 605.212L431.282 610.8L421.385 616L411.223 620.798L400.815 625.183L390.179 629.144L379.334 632.67L368.298 635.752L357.093 638.382L345.737 640.55L334.252 642.251L322.658 643.479L310.976 644.228L299.228 644.493L287.435 644.273L275.618 643.564L263.8 642.366L252.001 640.677L240.245 638.499L228.553 635.832L216.945 632.68L205.445 629.046L194.072 624.933L182.85 620.348L171.797 615.297L160.936 609.786L150.286 603.824L139.867 597.42L129.699 590.584L119.801 583.325L110.191 575.656L100.888 567.588L91.9092 559.136L83.2713 550.312L74.9907 541.131L67.0831 531.609L59.5633 521.761L52.4457 511.603L45.7436 501.154L39.4697 490.431L33.6359 479.451L28.2533 468.234L23.332 456.799L18.8814 445.166L14.9099 433.355L11.4251 421.385L8.43354 409.279L5.94091 397.056L3.95197 384.739L2.47045 372.348L1.4992 359.905L1.04005 347.432L1.09387 334.95L1.66056 322.481L2.73906 310.047L4.32729 297.67L6.42226 285.37L9.01997 273.171L12.1155 261.091L15.703 249.153L19.7757 237.378L24.3257 225.784L29.3446 214.394L34.8227 203.225L40.7498 192.298L47.1145 181.63L53.9049 171.241L61.108 161.147L68.7104 151.366L76.6975 141.914L85.0544 132.807L93.7652 124.059L102.813 115.687L112.182 107.702L121.854 100.118L131.81 92.9465L142.032 86.1997L152.501 79.8875L163.198 74.0196L174.101 68.6047L185.191 63.6507L196.447 59.1644L207.848 55.152L219.372 51.6183L230.999 48.5678L242.707 46.0036L254.474 43.9278L266.278 42.3419L278.098 41.2461L289.911 40.64L301.697 40.5219L313.433 40.8893L325.098 41.7388L336.671 43.0661L348.131 44.8658L359.457 47.1317L370.628 49.8567L381.626 53.0327L392.429 56.6511L403.018 60.7019L413.376 65.1747L423.484 70.0582L433.323 75.3401L442.878 81.0077L452.131 87.0472L461.066 93.4445L469.669 100.184L477.925 107.251L485.821 114.629L493.342 122.301L500.478 130.249L507.217 138.456L513.548 146.904L519.462 155.573L524.95 164.444L530.003 173.499L534.616 182.717L538.782 192.078L542.496 201.561L545.754 211.147L548.552 220.815L550.888 230.543L552.761 240.311L554.171 250.098L555.117 259.884L555.602 269.647L555.629 279.367L555.2 289.023L554.32 298.595L552.994 308.063L551.228 317.407L549.03 326.608L546.408 335.647L543.37 344.504L539.926 353.161L536.087 361.601L531.864 369.807L527.269 377.76L522.315 385.446L517.016 392.848L511.386 399.952L505.44 406.743L499.194 413.207L492.663 419.332L485.865 425.106L478.817 430.516L471.537 435.553L464.044 440.207L456.355 444.469L448.49 448.33L440.468 451.784L432.31 454.825L424.035 457.446L415.663 459.643L407.216 461.413L398.713 462.754L390.175 463.662L381.623 464.139L373.077 464.183L364.559 463.796L356.089 462.98L347.687 461.737L339.374 460.073L331.169 457.99L323.094 455.497L315.166 452.597L307.407 449.3L299.833 445.614L292.465 441.547L285.32 437.11L278.415 432.313L271.767 427.168L265.394 421.688L259.311 415.885L253.533 409.774L248.074 403.368L242.95 396.683L238.172 389.734L233.754 382.538L229.706 375.112L226.041 367.472L222.768 359.638L219.896 351.626L217.433 343.457L215.388 335.148L213.767 326.72L212.575 318.191L211.818 309.582L211.499 300.913L211.621 292.205L212.186 283.476L213.196 274.749L214.65 266.044L216.547 257.38L218.886 248.779L221.663 240.261L224.876 231.846L228.52 223.555L232.588 215.406L237.075 207.42L241.973 199.616L247.274 192.013L252.968 184.629L259.047 177.483L265.498 170.591L272.31 163.973L279.471 157.643L286.968 151.619L294.786 145.916L302.912 140.548L311.328 135.53L320.021 130.876L328.972 126.598L338.166 122.708L347.583 119.218L357.206 116.138L367.016 113.479L376.994 111.247L387.12 109.453L397.375 108.102L407.738 107.202L418.188 106.757L428.704 106.772L439.266 107.25L449.853 108.194L460.443 109.606L471.014 111.486L481.546 113.834L492.018 116.649L502.407 119.928L512.692 123.669L522.853 127.868L532.869 132.519L542.719 137.616L552.382 143.153L561.839 149.122L571.07 155.515L580.056 162.322L588.777 169.532L597.216 177.135L605.354 185.119L613.174 193.471L620.66 202.177L627.794 211.223L634.563 220.594L640.95 230.275L646.942 240.25L652.525 250.501L657.687 261.011L662.417 271.762L666.702 282.735L670.533 293.912L673.9 305.273L676.795 316.799L679.212 328.468L681.142 340.262L682.58 352.157L683.522 364.135L683.964 376.173L683.903 388.25L683.337 400.345L682.265 412.436L680.687 424.501L678.605 436.519L676.02 448.469L672.935 460.328L669.355 472.075L665.284 483.691L660.728 495.153L655.694 506.44L650.189 517.534L644.222 528.413L637.803 539.058L630.942 549.45L623.651 559.571L615.94 569.402L607.824 578.925L599.315 588.124L590.429 596.981L581.18 605.482L571.584 613.611L561.657 621.354L551.418 628.696L540.882 635.625L530.069 642.13L518.998 648.197L507.687 653.817L496.157 658.981L484.428 663.679L472.52 667.903L460.454 671.647L448.251 674.904L435.932 677.669L423.52 679.938L411.036 681.707L398.502 682.975L385.94 683.739L373.372 684L360.82 683.758L348.306 683.013L335.851 681.77L323.478 680.031L311.208 677.8L299.063 675.083L287.063 671.886L275.229 668.216L263.582 664.081L252.142 659.489L240.928 654.452L229.959 648.978L219.255 643.08L208.832 636.769L198.71 630.059L188.903 622.964L179.43 615.497L170.305 607.674L161.543 599.51L153.159 591.023L145.166 582.228L137.576 573.144L130.401 563.789L123.652 554.18L117.34 544.338L111.473 534.281L106.06 524.029L101.109 513.602L96.6248 503.022L92.6144 492.307L89.0819 481.48L86.0311 470.561L83.4648 459.572L81.3846 448.533L79.7913 437.466L78.6848 426.392L78.064 415.332L77.9268 404.308L78.27 393.341L79.0897 382.45L80.381 371.658L82.138 360.984L84.3538 350.448L87.0209 340.07L90.1307 329.87L93.6737 319.866L97.6396 310.076L102.017 300.52L106.795 291.213L111.96 282.174L117.499 273.418L123.398 264.962L129.641 256.819L136.214 249.005L143.1 241.533L150.283 234.416L157.745 227.666L165.468 221.294L173.435 215.312L181.626 209.727L190.022 204.551L198.605 199.789L207.353 195.45L216.247 191.54L225.267 188.063L234.392 185.024L243.6 182.427L252.872 180.274L262.187 178.567L271.523 177.306L280.859 176.491L290.175 176.12L299.449 176.191L308.662 176.702L317.792 177.648L326.819 179.023L335.724 180.824L344.486 183.041L353.087 185.669L361.506 188.697L369.727 192.118L377.729 195.92L385.497 200.094L393.013 204.626L400.26 209.505L407.223 214.718L413.887 220.249L420.236 226.086L426.257 232.213L431.936 238.613L437.262 245.271L442.223 252.169L446.808 259.291L451.007 266.618L454.81 274.132L458.211 281.814L461.2 289.645L463.772 297.606L465.921 305.677L467.642 313.839L468.932 322.071L469.788 330.352L470.208 338.664L470.191 346.985L469.737 355.295L468.847 363.574L467.523 371.801L465.768 379.956L463.586 388.02L460.981 395.971L457.96 403.792L454.528 411.461L450.693 418.961L446.464 426.273L441.849 433.377L436.859 440.258L431.505 446.896L425.798 453.276L419.751 459.38L413.377 465.193L406.69 470.701L399.705 475.888L392.436 480.74L384.9 485.245L377.113 489.39L369.092 493.163L360.856 496.553L352.421 499.551L343.808 502.147L335.034 504.332L326.119 506.099L317.083 507.442L307.945 508.354L298.727 508.83L289.449 508.867L280.13 508.462L270.793 507.611L261.458 506.315L252.147 504.573L242.879 502.385L233.676 499.754L224.559 496.681L215.548 493.17L206.664 489.226L197.928 484.854L189.36 480.06L180.979 474.851L172.804 469.235L164.856 463.222L157.152 456.82L149.712 450.041L142.551 442.896L135.689 435.397L129.141 427.556L122.924 419.389L117.053 410.908L111.543 402.13L106.408 393.069L101.661 383.742L97.3149 374.167L93.3816 364.36L89.8721 354.34L86.7966 344.125L84.1644 333.734L81.9841 323.187L80.2633 312.503L79.0086 301.702L78.226 290.805L77.9201 279.832L78.0951 268.805L78.7538 257.743L79.8982 246.669L81.5295 235.604L83.6477 224.568L86.252 213.583L89.3405 202.67L92.9104 191.851L96.958 181.147L101.479 170.577L106.466 160.164L111.915 149.926L117.817 139.885L124.164 130.06L130.946 120.471L138.154 111.136L145.775 102.074L153.8 93.3026L162.214 84.8399L171.005 76.7024L180.157 68.9066L189.657 61.4682L199.489 54.4023L209.636 47.7231L220.081 41.4443L230.807 35.5789L241.795 30.1389L253.028 25.1356L264.485 20.5795L276.147 16.4804L287.994 12.8469L300.006 9.68705L312.162 7.00779L324.441 4.81527L336.821 3.11464L349.281 1.91017L361.799 1.20517L374.353 1.00198L386.922 1.30202L399.482 2.10573L412.013 3.41257L424.493 5.22111L436.898 7.5289L449.208 10.3325L461.401 13.6277L473.456 17.4092L485.351 21.6708L497.065 26.4054L508.579 31.6049L519.872 37.2606L530.923 43.3626L541.715 49.9003L552.228 56.8624L562.444 64.2365L572.345 72.0098L581.915 80.1683L591.136 88.6976L599.994 97.5825L608.472 106.807L616.557 116.355L624.235 126.209L631.494 136.351L638.321 146.764L644.705 157.428L650.636 168.325L656.104 179.434L661.101 190.736L665.619 202.211L669.652 213.837L673.194 225.594L676.24 237.461L678.786 249.417L680.829 261.439L682.367 273.507L683.399 285.599L683.926 297.694L683.947 309.768L683.467 321.803L682.486 333.774L681.009 345.663L679.04 357.447L676.587 369.106L673.654 380.62L670.25 391.967L666.383 403.129L662.063 414.086L657.3 424.819L652.104 435.309L646.489 445.539L640.465 455.491L634.048 465.149L627.25 474.495L620.088 483.515L612.575 492.194L604.73 500.518L596.567 508.472L588.106 516.045L579.364 523.224L570.358 529.999L561.109 536.359L551.635 542.295L541.956 547.798L532.093 552.861L522.065 557.476L511.893 561.639L501.599 565.344L491.203 568.587L480.726 571.366L470.19 573.677L459.616 575.521L449.026 576.896L438.44 577.804L427.881 578.246L417.369 578.225L406.925 577.744L396.57 576.808L386.325 575.423L376.209 573.594L366.244 571.329L356.448 568.636L346.84 565.524L337.439 562.002L328.264 558.081L319.333 553.774L310.661 549.09L302.266 544.045L294.164 538.65L286.371 532.921L278.9 526.873L271.765 520.52L264.981 513.88L258.558 506.968L252.51 499.803L246.846 492.401L241.576 484.781L236.71 476.962L232.255 468.963L228.22 460.802L224.61 452.5L221.431 444.077L218.687 435.551L216.383 426.945L214.52 418.277L213.101 409.569L212.126 400.842L211.596 392.114L211.508 383.408L211.862 374.743L212.653 366.14L213.878 357.618L215.533 349.198L217.611 340.9L220.105 332.742L223.009 324.743L226.313 316.924L230.009 309.3L234.085 301.891L238.532 294.714L243.338 287.785L248.489 281.122L253.973 274.738L259.775 268.65L265.882 262.872L272.277 257.417L278.945 252.299L285.869 247.53L293.033 243.122L300.418 239.084L308.006 235.428L315.78 232.162L323.719 229.294L331.806 226.832L340.019 224.782L348.34 223.15L356.748 221.941L365.223 221.158L373.744 220.805L382.291 220.883L390.842 221.393L399.378 222.335L407.878 223.709L416.32 225.513L424.685 227.743L432.952 230.397L441.1 233.47L449.11 236.956L456.962 240.849L464.636 245.142L472.114 249.826L479.376 254.893L486.405 260.332L493.183 266.133L499.692 272.285L505.915 278.776L511.837 285.592L517.442 292.719L522.715 300.144L527.641 307.851L532.207 315.825L536.401 324.049L540.209 332.507L543.622 341.181L546.628 350.053L549.217 359.104L551.382 368.317L553.113 377.672L554.404 387.149L555.25 396.728L555.643 406.39L555.581 416.114L555.06 425.88L554.077 435.666L552.631 445.453L550.722 455.218L548.35 464.943L545.516 474.604L542.222 484.183L538.473 493.658L534.272 503.008L529.625 512.214L524.537 521.255L519.015 530.111L513.069 538.764L506.705 547.193L499.935 555.381L492.769 563.308L485.217 570.958L477.293 578.312L469.01 585.354L460.38 592.067L451.419 598.437L442.142 604.448L432.565 610.086L422.704 615.337L412.576 620.189L402.199 624.63L391.592 628.647L380.773 632.231L369.762 635.372L358.578 638.062L347.241 640.291L335.771 642.054L324.19 643.344L312.519 644.157L300.778 644.486L288.989 644.33L277.175 643.686L265.355 642.552L253.553 640.927L241.79 638.813L230.088 636.211L218.468 633.123L206.952 629.552L195.562 625.502L184.318 620.979L173.242 615.989L162.355 610.538L151.675 604.635L141.225 598.289L131.023 591.508L121.088 584.305L111.44 576.689L102.095 568.673L93.0726 560.271L84.3888 551.495L76.0603 542.36L68.1026 532.882L60.531 523.076L53.3596 512.958L46.602 502.546L40.271 491.858L34.3786 480.911L28.936 469.724L23.9534 458.317L19.4403 446.709L15.4053 434.92L11.856 422.97L8.79912 410.881L6.24049 398.672L4.18497 386.366L2.63645 373.983L1.59786 361.546L1.0712 349.075L1.05745 336.593L1.55663 324.122L2.56781 311.682L4.08907 299.296L6.1175 286.985L8.64926 274.771L11.6796 262.674L15.2026 250.717L19.2118 238.918L23.6995 227.3L28.6571 215.882L34.0754 204.683L39.9439 193.722L46.2517 183.02L52.9867 172.592L60.1363 162.459L67.6868 152.635L75.6241 143.139L83.9332 133.986L92.5983 125.19L101.603 116.767L110.931 108.731L120.564 101.093L130.483 93.867L140.672 87.0636L151.109 80.6936L161.777 74.7667L172.654 69.2917L183.72 64.2765L194.955 59.7283L206.339 55.6531L217.848 52.0562L229.463 48.9418L241.161 46.3134L252.922 44.1732L264.722 42.5227L276.541 41.3624L288.357 40.6919L300.147 40.5096L311.891 40.8133L323.567 41.5995L335.153 42.8642L346.629 44.602L357.974 46.8068L369.167 49.4718L380.188 52.589L391.018 56.1496L401.637 60.1441L412.026 64.5619L422.167 69.392L432.043 74.6222L441.636 80.2397L450.93 86.2311L459.908 92.582L468.556 99.2776L476.858 106.302L484.802 113.64L492.373 121.274L499.561 129.187L506.353 137.361L512.738 145.778L518.707 154.419L524.252 163.265L529.363 172.297L534.034 181.494L538.259 190.837L542.033 200.306L545.351 209.88L548.21 219.537L550.607 229.259L552.541 239.023L554.011 248.809L555.019 258.596L555.565 268.363L555.652 278.09L555.282 287.755L554.461 297.34L553.194 306.823L551.486 316.185L549.344 325.405L546.777 334.466L543.793 343.348L540.403 352.033L536.615 360.503L532.442 368.74L527.895 376.728L522.988 384.45L517.733 391.89L512.146 399.034L506.241 405.867L500.033 412.375L493.539 418.545L486.775 424.366L479.759 429.825L472.509 434.912L465.042 439.617L457.378 443.93L449.535 447.845L441.533 451.353L433.391 454.448L425.131 457.125L416.771 459.378L408.332 461.205L399.835 462.602L391.3 463.568L382.749 464.101L374.202 464.202L365.679 463.871L357.201 463.112L348.789 461.925L340.463 460.316L332.243 458.288L324.149 455.848L316.201 453.002L308.418 449.757L300.819 446.121L293.423 442.104L286.247 437.715L279.31 432.965L272.628 427.865L266.217 422.429L260.095 416.667L254.276 410.596L248.774 404.228L243.605 397.578L238.781 390.663L234.314 383.499L230.218 376.102L226.501 368.49L223.176 360.68L220.251 352.691L217.734 344.541L215.634 336.25L213.956 327.836L212.708 319.319L211.893 310.72L211.516 302.058L211.58 293.353L212.087 284.626L213.037 275.898L214.433 267.188L216.272 258.518L218.552 249.908L221.273 241.378L224.428 232.948L228.015 224.639L232.028 216.47L236.46 208.462L241.305 200.633L246.553 193.002L252.196 185.588L258.225 178.409L264.627 171.484L271.393 164.828L278.509 158.46L285.962 152.395L293.739 146.648L301.824 141.235L310.204 136.171L318.861 131.468L327.779 127.139L336.942 123.198L346.331 119.655L355.928 116.52L365.714 113.804L375.671 111.516L385.779 109.664L396.018 108.255L406.367 107.295L416.807 106.789L427.316 106.743L437.873 107.161L448.458 108.043L459.049 109.393L469.624 111.212L480.162 113.498L490.643 116.252L501.044 119.47L511.344 123.15L521.523 127.289L531.559 131.88L541.432 136.919L551.121 142.399L560.606 148.312L569.868 154.649L578.887 161.402L587.644 168.56L596.121 176.112L604.3 184.046L612.163 192.35L619.694 201.01L626.875 210.012L633.693 219.342L640.131 228.983L646.176 238.92L651.814 249.135L657.032 259.612L661.819 270.333L666.163 281.278L670.054 292.429L673.483 303.767L676.441 315.272L678.921 326.924L680.916 338.702L682.419 350.586L683.427 362.554L683.934 374.585L683.94 386.658L683.44 398.752L682.435 410.845L680.924 422.914L678.908 434.94L676.389 446.899L673.37 458.772L669.855 470.535L665.848 482.169L661.355 493.652L656.384 504.964L650.941 516.084L645.034 526.993L638.674 537.67L631.871 548.097L624.635 558.254L616.979 568.124L608.916 577.689L600.458 586.931L591.62 595.835L582.418 604.384L572.867 612.562L562.983 620.356L552.783 627.752L542.286 634.737L531.509 641.298L520.47 647.423L509.19 653.103L497.688 658.327L485.983 663.087L474.098 667.374L462.051 671.182L449.865 674.503L437.561 677.333L425.16 679.668L412.684 681.503L400.155 682.837L387.595 683.667L375.027 683.994L362.471 683.818L349.951 683.14L337.487 681.962L325.102 680.288L312.818 678.122L300.655 675.469L288.634 672.334L276.778 668.726L265.105 664.652L253.636 660.12L242.391 655.14L231.389 649.723L220.649 643.88L210.188 637.623L200.025 630.965L190.176 623.92L180.658 616.501L171.486 608.724L162.676 600.604L154.241 592.159L146.196 583.404L138.552 574.357L131.322 565.036L124.516 555.459L118.146 545.647L112.22 535.617L106.747 525.39L101.734 514.985L97.1884 504.423L93.1153 493.725L89.5197 482.912L86.4053 472.004L83.775 461.022L81.6307 449.989L79.9733 438.924L78.8028 427.85L78.1181 416.787L77.9173 405.757L78.1975 394.781L78.9547 383.879L80.1842 373.073L81.8802 362.382L84.036 351.827L86.6442 341.427L89.6962 331.202L93.1826 321.171L97.0935 311.353L101.418 301.764L106.143 292.424L111.258 283.349L116.749 274.555L122.601 266.058L128.8 257.873L135.33 250.015L142.176 242.497L149.32 235.333L156.747 228.534L164.437 222.111L172.372 216.077L180.535 210.44L188.906 205.209L197.465 200.392L206.192 195.997L215.068 192.03L224.073 188.496L233.185 185.399L242.383 182.744L251.648 180.533L260.958 178.766L270.293 177.446L279.63 176.572L288.95 176.143L298.231 176.157L307.453 176.61L316.595 177.498L325.637 178.818L334.559 180.562L343.341 182.726L351.964 185.299L360.408 188.276L368.656 191.645L376.689 195.398L384.488 199.523L392.038 204.009L399.322 208.843L406.323 214.012L413.027 219.503L419.418 225.301L425.483 231.39L431.208 237.755L436.582 244.38L441.591 251.248L446.226 258.341L450.476 265.642L454.332 273.132L457.786 280.793L460.83 288.606L463.457 296.551L465.662 304.609L467.44 312.759L468.787 320.983L469.7 329.26L470.178 337.569L470.218 345.89L469.822 354.202L468.989 362.486L467.722 370.721L466.024 378.887L463.898 386.964L461.348 394.931L458.381 402.77L455.003 410.46L451.221 417.984L447.043 425.321L442.479 432.454L437.538 439.365L432.231 446.036L426.57 452.451L420.567 458.592L414.235 464.445L407.588 469.994L400.641 475.224L393.409 480.121L385.907 484.672L378.152 488.865L370.161 492.688L361.952 496.129L353.543 499.179L344.952 501.828L336.198 504.068L327.3 505.89L318.279 507.289L309.154 508.258L299.945 508.792L290.673 508.887L281.359 508.54L272.023 507.749L262.687 506.512L253.371 504.828L244.096 502.699L234.883 500.126L225.754 497.111L216.728 493.658L207.826 489.77L199.07 485.454L190.478 480.715L182.071 475.56L173.868 469.998L165.889 464.036L158.152 457.685L150.676 450.955L143.478 443.857L136.575 436.404L129.985 428.608L123.724 420.483L117.806 412.042L112.248 403.302L107.062 394.278L102.263 384.985L97.8639 375.442L93.8756 365.664L90.3097 355.671L87.1765 345.481L84.4854 335.112L82.2452 324.584L80.4634 313.917L79.147 303.131L78.3019 292.245L77.933 281.281L78.0444 270.26L78.6393 259.201L79.7197 248.128L81.2868 237.06L83.3409 226.019L85.8813 215.026L88.9061 204.103L92.4128 193.27L96.3978 182.549L100.856 171.961L105.783 161.525L111.171 151.264L117.014 141.196L123.303 131.341L130.028 121.72L137.18 112.35L144.748 103.251L152.72 94.4406L161.084 85.9362L169.826 77.7549L178.932 69.9132L188.387 62.4269L198.176 55.3111L208.282 48.5801L218.689 42.2479L229.379 36.3273L240.334 30.8306L251.535 25.7692L262.964 21.1536L274.6 16.9938L286.424 13.2985L298.416 10.0759L310.554 7.33295L322.818 5.07601L335.186 3.31033L347.636 2.04032L360.148 1.26937L372.699 1L385.266 1.23371L397.829 1.97109L410.366 3.21174L422.853 4.95431L435.269 7.19652L447.593 9.9351L459.803 13.1658L471.877 16.8836L483.794 21.0823L495.534 25.7551L507.075 30.8939L518.398 36.49L529.482 42.5338L540.309 49.0148L550.86 55.9217L561.116 63.2423L571.06 70.9637L580.674 79.0723L589.942 87.5536L598.849 96.3926L607.378 105.573L615.515 115.08L623.248 124.894L630.562 135L637.447 145.378L643.89 156.01L649.881 166.877L655.41 177.96L660.47 189.238L665.052 200.691L669.149 212.298L672.756 224.039L675.867 235.893L678.479 247.838L680.588 259.853L682.193 271.916L683.292 284.006L683.885 296.101L683.973 308.18L683.559 320.221L682.643 332.202L681.231 344.103L679.327 355.902L676.937 367.579L674.067 379.112L670.725 390.483L666.919 401.67L662.658 412.655L657.952 423.419L652.813 433.942L647.252 444.207L641.281 454.197L634.915 463.894L628.167 473.283L621.051 482.347L613.584 491.071L605.781 499.442L597.66 507.446L589.237 515.07L580.53 522.302L571.558 529.13L562.34 535.545L552.895 541.538L543.242 547.098L533.401 552.219L523.394 556.894L513.24 561.117L502.961 564.882L492.577 568.187L482.109 571.026L471.58 573.4L461.01 575.305L450.421 576.742L439.833 577.711L429.269 578.214L418.75 578.254L408.296 577.833L397.928 576.957L387.667 575.631L377.534 573.86L367.547 571.652L357.727 569.015L348.094 565.957L338.665 562.489L329.459 558.62L320.494 554.363L311.788 549.728L303.355 544.73L295.214 539.38L287.379 533.694L279.865 527.687L272.685 521.374L265.854 514.77L259.383 507.893L253.285 500.76L247.569 493.389L242.247 485.797L237.327 478.003L232.818 470.026L228.727 461.886L225.061 453.601L221.825 445.192L219.023 436.679L216.661 428.082L214.74 419.422L213.262 410.718L212.229 401.991L211.64 393.263L211.494 384.553L211.79 375.881L212.524 367.268L213.692 358.735L215.291 350.301L217.313 341.985L219.753 333.807L222.603 325.787L225.855 317.943L229.5 310.292L233.527 302.854L237.926 295.646L242.685 288.683L247.791 281.984L253.232 275.562L258.993 269.434L265.061 263.615L271.419 258.117L278.052 252.954L284.943 248.138L292.076 243.681L299.433 239.594L306.996 235.887L314.746 232.569L322.665 229.648L330.733 227.132L338.931 225.028L347.239 223.341L355.636 222.076L364.104 221.237L372.62 220.827L381.164 220.848L389.716 221.301L398.256 222.186L406.761 223.504L415.212 225.251L423.588 227.425L431.869 230.024L440.034 233.042L448.063 236.474L455.937 240.313L463.636 244.554L471.141 249.187L478.433 254.204L485.494 259.595L492.305 265.349L498.851 271.456L505.113 277.902L511.075 284.676L516.723 291.763L522.04 299.15L527.013 306.821L531.627 314.76L535.87 322.952L539.73 331.38L543.196 340.027L546.255 348.873L548.9 357.903L551.121 367.095L552.91 376.432L554.26 385.894L555.164 395.462L555.617 405.114L555.615 414.831L555.155 424.592L554.233 434.377L552.848 444.164L551 453.934L548.689 463.665L545.915 473.336L542.682 482.927L538.993 492.417L534.851 501.784L530.262 511.01L525.232 520.074L519.767 528.956L513.876 537.637L507.567 546.097L500.85 554.317L493.735 562.28L486.233 569.967L478.358 577.361L470.121 584.445L461.536 591.203L452.618 597.619L443.381 603.678L433.843 609.365L424.018 614.668L413.924 619.574L403.58 624.069L393.002 628.142L382.21 631.784L371.222 634.984L360.06 637.734L348.742 640.024L337.289 641.849L325.721 643.202L314.06 644.077L302.328 644.47L290.544 644.378L278.731 643.798L266.912 642.729L255.106 641.169L243.337 639.12L231.625 636.582L219.993 633.557L208.462 630.049L197.054 626.063L185.79 621.601L174.691 616.672L163.777 611.282L153.069 605.438L142.588 599.15L132.352 592.426L122.381 585.277L112.693 577.715L103.308 569.751L94.2418 561.399L85.5125 552.671L77.1363 543.583L69.1289 534.149L61.5056 524.385L54.2807 514.308L47.4678 503.934L41.08 493.281L35.1292 482.367L29.6267 471.211L24.583 459.831L20.0075 448.248L15.9091 436.482L12.2954 424.552L9.17332 412.48L6.54879 400.286L4.42676 387.991L2.81129 375.618L1.70541 363.186L1.11124 350.719L1.02993 338.237L1.46158 325.763L2.40542 313.318L3.85964 300.923L5.82148 288.601L8.28722 276.373L11.2522 264.26L14.7107 252.283L18.6563 240.462L23.0814 228.819L27.9777 217.373L33.3358 206.144L39.1457 195.151L45.3962 184.414L52.0757 173.949L59.1714 163.776L66.67 153.911L74.5572 144.371L82.8182 135.171L91.4373 126.328L100.398 117.855L109.684 109.766L119.278 102.076L129.161 94.7947L139.315 87.9351L149.721 81.5074L160.359 75.5216L171.21 69.9866L182.253 64.9105L193.467 60.3004L204.832 56.1626L216.326 52.5024L227.928 49.3243L239.617 46.6317L251.37 44.4271L263.166 42.712L274.984 41.4872L286.801 40.7522L298.597 40.5058L310.348 40.7456L322.034 41.4685L333.633 42.6704L345.125 44.3462L356.488 46.49L367.702 49.0948L378.747 52.1529L389.603 55.6556L400.251 59.5935L410.671 63.9563L420.847 68.7327L430.758 73.9109L440.39 79.4782L449.724 85.4211L458.744 91.7255L467.436 98.3767L475.785 105.359L483.777 112.656L491.398 120.252L498.637 128.13L505.481 136.27L511.921 144.656L517.945 153.269L523.546 162.089L528.715 171.097L533.444 180.274L537.729 189.599L541.562 199.053L544.94 208.613L547.859 218.261L550.317 227.976L552.313 237.735L553.844 247.519L554.913 257.307L555.519 267.078L555.666 276.812L555.357 286.487L554.595 296.083L553.386 305.58L551.735 314.959L549.651 324.2L547.139 333.283L544.21 342.189L540.872 350.901L537.136 359.4L533.013 367.669L528.515 375.691L523.654 383.448L518.445 390.927L512.9 398.11L507.036 404.985L500.867 411.537L494.41 417.752L487.681 423.62L480.697 429.127L473.476 434.264L466.037 439.019L458.398 443.385L450.577 447.353L442.595 450.915L434.471 454.064L426.225 456.796L417.877 459.106L409.447 460.989L400.957 462.442L392.426 463.465L383.876 464.055L375.326 464.213L366.799 463.94L358.314 463.236L349.892 462.106L341.554 460.552L333.319 458.579L325.207 456.193L317.239 453.4L309.433 450.207L301.809 446.622L294.385 442.654L287.179 438.314L280.209 433.611L273.492 428.556L267.045 423.163L260.884 417.444L255.024 411.413L249.48 405.083L244.266 398.47L239.396 391.589L234.882 384.456L230.736 377.089L226.969 369.504L223.591 361.719L220.613 353.753L218.042 345.623L215.886 337.349L214.153 328.95L212.847 320.446L211.975 311.856L211.54 303.201L211.546 294.501L211.994 285.776L212.887 277.047L214.224 268.334L216.004 259.657L218.227 251.038L220.889 242.496L223.988 234.052L227.518 225.726L231.476 217.538L235.853 209.507L240.643 201.653L245.839 193.995L251.431 186.551L257.409 179.341L263.763 172.381L270.481 165.689L277.552 159.282L284.962 153.176L292.697 147.386L300.742 141.929L309.084 136.817L317.705 132.066L326.59 127.688L335.722 123.695L345.082 120.098L354.652 116.909L364.415 114.138L374.351 111.793L384.44 109.883L394.663 108.415L404.999 107.395L415.428 106.83L425.929 106.723L436.481 107.079L447.063 107.9L457.654 109.189L468.233 110.946L478.777 113.17L489.267 115.862L499.679 119.02L509.994 122.639L520.19 126.718L530.246 131.25L540.142 136.23L549.856 141.652L559.37 147.509L568.662 153.791L577.714 160.489L586.507 167.594L595.022 175.095L603.241 182.98L611.146 191.236L618.721 199.85L625.95 208.808L632.816 218.095L639.305 227.696L645.403 237.595L651.095 247.775L656.369 258.218L661.214 268.907L665.617 279.824L669.568 290.95L673.058 302.264L676.079 313.748L678.622 325.382L680.681 337.144L682.249 349.015L683.322 360.973L683.896 372.998L683.968 385.067L683.535 397.159L682.596 409.253L681.152 421.327L679.202 433.359L676.749 445.329L673.796 457.214L670.346 468.993L666.404 480.645L661.975 492.149L657.066 503.485L651.684 514.632L645.838 525.569L639.537 536.278L632.792 546.739L625.613 556.933L618.011 566.841L610 576.447L601.594 585.733L592.806 594.682L583.65 603.278L574.144 611.507L564.303 619.352L554.144 626.802L543.685 633.841L532.943 640.458L521.938 646.642L510.689 652.381L499.215 657.666L487.536 662.487L475.673 666.837L463.646 670.708L451.477 674.094L439.187 676.989L426.798 679.389L414.33 681.29L401.807 682.69L389.251 683.587L376.682 683.98L364.123 683.87L351.597 683.258L339.125 682.146L326.728 680.537L314.429 678.435L302.249 675.846L290.209 672.774L278.329 669.228L266.631 665.215L255.134 660.742L243.859 655.821L232.824 650.461L222.048 644.674L211.549 638.471L201.346 631.865L191.455 624.869L181.892 617.499L172.674 609.768L163.815 601.693L155.33 593.289L147.232 584.574L139.535 575.564L132.25 566.278L125.388 556.735L118.96 546.952L112.975 536.949L107.442 526.747L102.368 516.365L97.7601 505.822L93.6245 495.141L89.9658 484.342L86.7878 473.445L84.0937 462.472L81.8853 451.444L80.1637 440.382L78.9291 429.308L78.1806 418.243L77.9162 407.207L78.1332 396.223L78.8278 385.31L79.9954 374.49L81.6304 363.783L83.7261 353.209L86.2751 342.787L89.2691 332.538L92.699 322.481L96.5546 312.633L100.825 303.013L105.499 293.64L110.563 284.528L116.005 275.696L121.81 267.159L127.964 258.933L134.452 251.031L141.257 243.467L148.363 236.256L155.753 229.408L163.409 222.935L171.314 216.849L179.448 211.159L187.792 205.874L196.327 201.003L205.034 196.552L213.892 192.528L222.88 188.936L231.979 185.782L241.168 183.068L250.425 180.798L259.731 178.974L269.063 177.595L278.401 176.662L287.724 176.174L297.012 176.13L306.243 176.525L315.396 177.357L324.453 178.62L333.392 180.309L342.193 182.417L350.838 184.937L359.307 187.861L367.582 191.179L375.644 194.882L383.475 198.959L391.059 203.398L398.378 208.187L405.418 213.313L412.161 218.762L418.595 224.52L424.703 230.572L430.474 236.902L435.894 243.493L440.953 250.33L445.637 257.394L449.939 264.669L453.847 272.135L457.355 279.775L460.453 287.569L463.135 295.497L465.396 303.542L467.231 311.681L468.635 319.897L469.605 328.167L470.14 336.473L470.238 344.794L469.899 353.109L469.124 361.398L467.914 369.64L466.272 377.816L464.202 385.906L461.708 393.889L458.796 401.746L455.471 409.457L451.742 417.003L447.616 424.366L443.102 431.527L438.21 438.468L432.95 445.172L427.335 451.621L421.377 457.8L415.087 463.691L408.481 469.281L401.573 474.553L394.377 479.495L386.91 484.093L379.187 488.334L371.226 492.206L363.045 495.698L354.661 498.8L346.093 501.502L337.359 503.797L328.479 505.675L319.473 507.13L310.361 508.155L301.162 508.747L291.897 508.9L282.588 508.611L273.253 507.879L263.916 506.7L254.596 505.075L245.314 503.005L236.092 500.49L226.951 497.533L217.91 494.137L208.991 490.307L200.214 486.047L191.599 481.363L183.167 476.263L174.936 470.753L166.927 464.844L159.157 458.543L151.645 451.863L144.409 444.813L137.467 437.405L130.835 429.654L124.529 421.571L118.565 413.171L112.959 404.47L107.723 395.482L102.873 386.224L98.4201 376.712L94.377 366.965L90.7548 356.999L87.5641 346.834L84.8143 336.487L82.5141 325.979L80.6716 315.329L79.2936 304.557L78.3861 293.684L77.9542 282.729L78.0022 271.714L78.5332 260.659L79.5496 249.586L81.0526 238.516L83.0426 227.471L85.5189 216.47L88.4801 205.537L91.9236 194.691L95.8458 183.954L100.242 173.347L105.108 162.89L110.436 152.605L116.219 142.51L122.449 132.626L129.118 122.973L136.214 113.569L143.728 104.433L151.648 95.5838L159.961 87.0381L168.654 78.8133L177.712 70.926L187.122 63.392L196.868 56.2265L206.933 49.4441L217.302 43.0586L227.955 37.0831L238.876 31.5298L250.046 26.4105L261.446 21.7356L273.056 17.5153L284.857 13.7583L296.828 10.473L308.948 7.66653L321.196 5.34526L333.552 3.51461L345.992 2.1791L358.497 1.34227L371.044 1.00673L383.611 1.17414L396.176 1.84517L408.717 3.0196L421.212 4.6962L433.639 6.87276L445.976 9.54619L458.202 12.7124L470.295 16.3663L482.234 20.5021L493.998 25.1128L505.567 30.1907L516.92 35.7271L528.037 41.7126L538.899 48.1366L549.487 54.9881L559.783 62.2549L569.769 69.9243L579.427 77.9827L588.742 86.4158L597.697 95.2086L606.276 104.345L614.467 113.81L622.253 123.585L629.623 133.653L636.565 143.996L643.067 154.596L649.118 165.433L654.709 176.489L659.831 187.742L664.476 199.173L668.638 210.761L672.309 222.486L675.486 234.326L678.164 246.26L680.339 258.267L682.011 270.325L683.176 282.413L683.836 294.509L683.991 306.591L683.642 318.638L682.792 330.628L681.445 342.541L679.606 354.355L677.28 366.049L674.472 377.602L671.192 388.995L667.446 400.208L663.244 411.221L658.597 422.015L653.514 432.571L648.008 442.871L642.091 452.898L635.776 462.635L629.077 472.065L622.009 481.172L614.587 489.942L606.828 498.361L598.747 506.413L590.363 514.088L581.693 521.372L572.755 528.254L563.568 534.724L554.151 540.773L544.524 546.391L534.707 551.57L524.721 556.304L514.585 560.587L504.321 564.413L493.95 567.778L483.492 570.679L472.97 573.114L462.404 575.081L451.816 576.579L441.227 577.61L430.658 578.174L420.132 578.275L409.668 577.915L399.288 577.098L389.012 575.831L378.86 574.118L368.853 571.967L359.01 569.386L349.351 566.383L339.894 562.969L330.658 559.152L321.661 554.945L312.919 550.36L304.45 545.408L296.269 540.104L288.393 534.462L280.836 528.496L273.611 522.222L266.733 515.656L260.214 508.814L254.066 501.714L248.3 494.372L242.925 486.808L237.952 479.04L233.388 471.086L229.242 462.966L225.519 454.7L222.226 446.306L219.367 437.806L216.947 429.219L214.968 420.565L213.432 411.866L212.34 403.141L211.692 394.412L211.488 385.698L211.726 377.02L212.402 368.399L213.514 359.854L215.056 351.405L217.023 343.073L219.408 334.876L222.205 326.834L225.404 318.965L228.998 311.288L232.975 303.821L237.326 296.581L242.038 289.585L247.099 282.85L252.497 276.391L258.217 270.224L264.245 264.363L270.565 258.822L277.163 253.614L284.021 248.752L291.124 244.247L298.452 240.111L305.989 236.354L313.715 232.984L321.613 230.01L329.663 227.44L337.845 225.282L346.139 223.539L354.526 222.218L362.985 221.323L371.496 220.856L380.038 220.82L388.59 221.216L397.133 222.045L405.644 223.305L414.103 224.996L422.49 227.115L430.785 229.658L438.966 232.62L447.014 235.998L454.91 239.785L462.633 243.973L470.164 248.555L477.485 253.521L484.578 258.864L491.423 264.571L498.005 270.632L504.305 277.034L510.308 283.765L515.997 290.812L521.359 298.16L526.378 305.795L531.04 313.7L535.333 321.86L539.244 330.257L542.762 338.876L545.876 347.697L548.576 356.704L550.853 365.876L552.7 375.195L554.107 384.642L555.071 394.196L555.584 403.838L555.642 413.548L555.242 423.305L554.381 433.088L553.057 442.876L551.27 452.649L549.02 462.386L546.307 472.067L543.134 481.669L539.505 491.173L535.422 500.558L530.892 509.804L525.919 518.891L520.511 527.798L514.676 536.506L508.421 544.996L501.757 553.249L494.694 561.247L487.243 568.971L479.416 576.404L471.226 583.53L462.686 590.332L453.811 596.794L444.616 602.901L435.116 608.638L425.328 613.992L415.269 618.951L404.956 623.501L394.408 627.63L383.643 631.33L372.68 634.588L361.539 637.398L350.24 639.749L338.804 641.636L327.25 643.051L315.601 643.989L303.876 644.446L292.098 644.418L280.288 643.903L268.468 642.898L256.659 641.403L244.884 639.418L233.163 636.944L221.52 633.983L209.974 630.539L198.549 626.615L187.265 622.216L176.142 617.348L165.203 612.018L154.467 606.233L143.954 600.003L133.685 593.336L123.678 586.242L113.952 578.734L104.526 570.823L95.4169 562.521L86.6423 553.842L78.2187 544.8L70.1618 535.411L62.4871 525.689L55.2089 515.652L48.3411 505.316L41.8965 494.699L35.8875 483.818L30.3254 472.693L25.2206 461.342L20.583 449.785L16.4213 438.041L12.7434 426.132L9.55618 414.077L6.86581 401.898L4.67735 389.616L2.99496 377.251L1.82183 364.826L1.16019 352.362L1.01129 339.881L1.37542 327.405L2.25189 314.954L3.63903 302.552L5.5342 290.219L7.93382 277.978L10.8333 265.848L14.2272 253.852L18.109 242.009L22.4715 230.342L27.3062 218.869L32.6041 207.61L38.3551 196.585L44.5483 185.813L51.172 175.311L58.2136 165.099L65.6599 155.192L73.4968 145.608L81.7094 136.363L90.2823 127.471L99.1992 118.949L108.443 110.809L117.998 103.065L127.844 95.7298L137.963 88.814L148.337 82.3289L158.946 76.2844L169.769 70.6895L180.788 65.5525L191.981 60.8806L203.327 56.6803L214.805 52.957L226.395 49.7151L238.073 46.9584L249.819 44.6894L261.611 42.9099L273.427 41.6205L285.246 40.821L297.045 40.5104L308.803 40.6863L320.499 41.3458L332.111 42.4849L343.618 44.0987L354.999 46.1811L366.234 48.7257L377.303 51.7245L388.185 55.1692L398.861 59.0504L409.313 63.3578L419.521 68.0804L429.469 73.2064L439.138 78.7232L448.512 84.6174L457.575 90.8751L466.311 97.4814L474.706 104.421L482.745 111.678L490.416 119.236L497.706 127.077L504.603 135.184L511.096 143.538L517.176 152.122L522.833 160.916L528.059 169.901L532.847 179.057L537.19 188.363L541.083 197.801L544.521 207.349L547.501 216.987L550.02 226.693L552.076 236.448L553.669 246.23L554.798 256.019L555.466 265.793L555.673 275.533L555.423 285.216L554.721 294.824L553.57 304.336L551.978 313.732L549.95 322.991L547.494 332.096L544.619 341.027L541.335 349.766L537.65 358.294L533.578 366.594L529.128 374.649L524.315 382.442L519.15 389.958L513.649 397.182L507.826 404.098L501.697 410.693L495.276 416.954L488.582 422.867L481.631 428.423L474.44 433.609L467.029 438.415L459.415 442.833L451.617 446.853L443.655 450.469L435.548 453.673L427.317 456.461L418.981 458.826L410.561 460.765L402.078 462.276L393.551 463.355L385.002 464.002L376.451 464.217L367.92 464L359.428 463.353L350.997 462.279L342.646 460.781L334.397 458.863L326.268 456.531L318.28 453.791L310.451 450.65L302.802 447.116L295.351 443.198L288.115 438.906L281.113 434.25L274.362 429.242L267.879 423.893L261.679 418.216L255.778 412.224L250.192 405.933L244.934 399.356L240.017 392.51L235.455 385.41L231.26 378.072L227.443 370.515L224.013 362.755L220.982 354.812L218.357 346.702L216.146 338.446L214.357 330.063L212.995 321.571L212.065 312.992L211.573 304.344L211.52 295.649L211.91 286.926L212.744 278.196L214.022 269.479L215.744 260.797L217.909 252.169L220.514 243.616L223.555 235.158L227.029 226.815L230.93 218.607L235.253 210.555L239.989 202.676L245.132 194.992L250.672 187.519L256.6 180.276L262.905 173.283L269.576 166.554L276.601 160.109L283.967 153.962L291.66 148.13L299.665 142.628L307.969 137.47L316.555 132.671L325.406 128.243L334.506 124.198L343.837 120.549L353.381 117.306L363.119 114.479L373.033 112.077L383.103 110.109L393.309 108.582L403.632 107.503L414.05 106.878L424.542 106.711L435.089 107.006L445.668 107.765L456.26 108.992L466.841 110.687L477.391 112.851L487.889 115.481L498.313 118.577L508.642 122.136L518.855 126.155L528.93 130.627L538.848 135.549L548.588 140.913L558.129 146.713L567.451 152.939L576.536 159.584L585.364 166.636L593.917 174.085L602.176 181.92L610.123 190.128L617.743 198.695L625.018 207.609L631.933 216.854L638.473 226.414L644.623 236.275L650.369 246.418L655.699 256.828L660.601 267.486L665.062 278.374L669.074 289.473L672.625 300.764L675.708 312.227L678.315 323.842L680.438 335.589L682.071 347.446L683.21 359.394L683.849 371.411L683.987 383.475L683.621 395.566L682.749 407.661L681.371 419.739L679.488 431.778L677.101 443.757L674.214 455.654L670.829 467.449L666.951 479.119L662.586 490.644L657.739 502.003L652.42 513.175L646.634 524.141L640.393 534.881L633.705 545.376L626.582 555.606L619.036 565.553L611.078 575.2L602.723 584.529L593.984 593.523L584.877 602.167L575.416 610.445L565.618 618.342L555.5 625.844L545.079 632.938L534.373 639.611L523.402 645.853L512.184 651.651L500.738 656.996L489.085 661.879L477.245 666.291L465.239 670.226L453.087 673.676L440.812 676.636L428.434 679.101L415.976 681.068L403.459 682.534L390.906 683.497L378.337 683.957L365.776 683.913L353.244 683.367L340.763 682.321L328.356 680.777L316.043 678.74L303.845 676.214L291.786 673.206L279.884 669.722L268.161 665.77L256.636 661.357L245.33 656.495L234.263 651.192L223.452 645.46L212.916 639.311L202.672 632.757L192.739 625.812L183.132 618.491L173.868 610.806L164.961 602.776L156.426 594.414L148.276 585.739L140.525 576.767L133.185 567.516L126.267 558.006L119.781 548.253L113.737 538.279L108.144 528.101L103.009 517.742L98.3401 507.219L94.142 496.555L90.4202 485.77L87.1787 474.885L84.4207 463.921L82.1483 452.899L80.3626 441.84L79.0639 430.767L78.2514 419.699L77.9234 408.658L78.0772 397.666L78.7092 386.742L79.8148 375.909L81.3885 365.186L83.424 354.593L85.9138 344.15L88.8497 333.878L92.2227 323.794L96.0228 313.917L100.239 304.267L104.86 294.859L109.874 285.713L115.267 276.843L121.025 268.266L127.134 259.998L133.579 252.052L140.343 244.444L147.411 237.185L154.764 230.288L162.387 223.766L170.259 217.628L178.364 211.886L186.682 206.547L195.193 201.62L203.878 197.114L212.717 193.033L221.69 189.384L230.775 186.172L239.953 183.401L249.203 181.072L258.503 179.188L267.833 177.751L277.172 176.759L286.498 176.213L295.791 176.11L305.031 176.448L314.196 177.222L323.266 178.429L332.222 180.062L341.043 182.116L349.709 184.582L358.203 187.453L366.504 190.72L374.595 194.373L382.457 198.401L390.075 202.793L397.43 207.537L404.507 212.619L411.291 218.026L417.766 223.745L423.918 229.758L429.734 236.053L435.201 242.611L440.308 249.416L445.042 256.452L449.395 263.7L453.355 271.142L456.916 278.76L460.068 286.534L462.806 294.446L465.123 302.476L467.014 310.605L468.474 318.811L469.502 327.076L470.094 335.378L470.25 343.698L469.969 352.015L469.251 360.308L468.098 368.558L466.513 376.744L464.499 384.846L462.061 392.844L459.203 400.719L455.932 408.45L452.256 416.019L448.181 423.407L443.718 430.596L438.875 437.567L433.664 444.303L428.095 450.787L422.18 457.002L415.934 462.932L409.369 468.562L402.499 473.878L395.34 478.864L387.908 483.507L380.218 487.796L372.288 491.717L364.135 495.26L355.776 498.414L347.231 501.17L338.518 503.518L329.657 505.451L320.666 506.962L311.566 508.045L302.378 508.694L293.12 508.905L283.815 508.675L274.483 508.001L265.145 506.881L255.822 505.315L246.534 503.303L237.303 500.847L228.149 497.948L219.094 494.609L210.158 490.836L201.361 486.632L192.724 482.004L184.266 476.958L176.008 471.502L167.968 465.645L160.166 459.395L152.619 452.764L145.346 445.762L138.364 438.401L131.69 430.694L125.34 422.654L119.331 414.295L113.676 405.633L108.391 396.681L103.489 387.458L98.9834 377.979L94.8856 368.261L91.2074 358.323L87.9593 348.183L85.1509 337.86L82.7911 327.372L80.8879 316.739L79.4483 305.982L78.4785 295.121L77.9837 284.175L77.9683 273.167L78.4356 262.116L79.3879 251.045L80.8268 239.973L82.7527 228.923L85.165 217.916L88.0625 206.972L91.4426 196.114L95.302 185.361L99.6363 174.736L104.44 164.258L109.708 153.949L115.431 143.828L121.603 133.915L128.215 124.23L135.256 114.793L142.715 105.621L150.582 96.7323L158.844 88.1456L167.487 79.8776L176.499 71.9449L185.863 64.3635L195.566 57.1486L205.59 50.315L215.92 43.8764L226.537 37.8461L237.423 32.2366L248.562 27.0595L259.932 22.3255L271.516 18.0448L283.293 14.2263L295.242 10.8785L307.344 8.00853L319.576 5.62302L331.919 3.72749L344.35 2.32654L356.848 1.42387L369.39 1.0222L381.956 1.12329L394.522 1.72801L407.067 2.83618L419.57 4.44674L432.007 6.55761L444.357 9.16582L456.599 12.2674L468.711 15.8574L480.671 19.9301L492.46 24.4787L504.055 29.4955L515.437 34.9721L526.587 40.899L537.484 47.2659L548.109 54.0617L558.444 61.2746L568.472 68.8917L578.175 76.8997L587.536 85.2843L596.539 94.0305L605.169 103.123L613.411 112.545L621.251 122.28L628.677 132.311L635.676 142.619L642.236 153.186L648.347 163.993L653.999 175.021L659.183 186.249L663.892 197.658L668.117 209.227L671.854 220.935L675.096 232.761L677.84 244.684L680.082 256.683L681.819 268.735L683.051 280.82L683.778 292.916L683.999 305.001L683.716 317.054L682.933 329.053L681.651 340.977L679.876 352.805L677.614 364.516L674.869 376.089L671.651 387.505L667.966 398.742L663.824 409.783L659.234 420.606L654.208 431.195L648.757 441.53L642.893 451.593L636.629 461.369L629.98 470.841L622.96 479.992L615.584 488.807L607.868 497.272L599.829 505.374L591.484 513.099L582.85 520.435L573.946 527.371L564.791 533.896L555.404 540.001L545.803 545.676L536.01 550.913L526.045 555.706L515.928 560.049L505.679 563.935L495.321 567.361L484.873 570.324L474.358 572.82L463.797 574.848L453.211 576.409L442.621 577.501L432.048 578.127L421.515 578.288L411.042 577.988L400.649 577.232L390.358 576.023L380.189 574.369L370.162 572.275L360.297 569.75L350.612 566.803L341.128 563.442L331.861 559.677L322.831 555.521L314.055 550.985L305.549 546.081L297.33 540.822L289.412 535.224L281.812 529.3L274.543 523.065L267.619 516.537L261.052 509.73L254.854 502.663L249.037 495.352L243.61 487.817L238.583 480.074L233.965 472.144L229.764 464.045L225.985 455.796L222.635 447.418L219.719 438.931L217.241 430.354L215.203 421.708L213.609 413.014L212.458 404.291L211.752 395.561L211.49 386.844L211.669 378.16L212.288 369.53L213.343 360.974L214.828 352.511L216.74 344.163L219.07 335.947L221.813 327.883L224.96 319.991L228.502 312.288L232.43 304.792L236.732 297.521L241.397 290.492L246.413 283.722L251.767 277.226L257.445 271.019L263.434 265.117L269.717 259.533L276.279 254.281L283.104 249.372L290.175 244.82L297.475 240.635L304.985 236.826L312.687 233.405L320.564 230.379L328.594 227.756L336.76 225.542L345.041 223.745L353.417 222.368L361.868 221.416L370.373 220.893L378.912 220.8L387.464 221.139L396.009 221.911L404.525 223.115L412.993 224.749L421.39 226.811L429.698 229.299L437.896 232.206L445.963 235.53L453.88 239.263L461.626 243.399L469.184 247.929L476.534 252.846L483.657 258.139L490.536 263.799L497.153 269.814L503.492 276.172L509.535 282.861L515.267 289.867L520.672 297.176L525.737 304.773L530.447 312.644L534.789 320.771L538.751 329.138L542.322 337.729L545.489 346.525L548.244 355.508L550.578 364.659L552.481 373.96L553.947 383.391L554.969 392.932L555.542 402.564L555.66 412.266L555.321 422.018L554.521 431.798L553.258 441.587L551.532 451.364L549.342 461.107L546.691 470.796L543.578 480.41L540.009 489.928L535.986 499.33L531.514 508.595L526.599 517.704L521.248 526.636L515.468 535.371L509.269 543.891L502.658 552.176L495.647 560.208L488.246 567.97L480.468 575.442L472.325 582.61L463.83 589.455L454.998 595.963L445.844 602.117L436.384 607.904L426.633 613.31L416.608 618.321L406.328 622.925L395.81 627.111L385.072 630.867L374.134 634.185L363.016 637.054L351.737 639.466L340.317 641.414L328.778 642.892L317.14 643.893L305.424 644.414L293.652 644.45L281.845 643.999L270.024 643.058L258.213 641.628L246.432 639.707L234.703 637.298L223.048 634.401L211.489 631.02L200.046 627.159L188.742 622.822L177.597 618.016L166.633 612.746L155.869 607.021L145.325 600.849L135.023 594.238L124.98 587.201L115.216 579.746L105.75 571.887L96.5978 563.636L87.7782 555.006L79.3074 546.011L71.2014 536.667L63.4755 526.988L56.1443 516.992L49.2216 506.694L42.7206 496.113L36.6536 485.266L31.032 474.172L25.8664 462.849L21.1668 451.318L16.9419 439.598L13.1998 427.709L9.94765 415.673L7.19154 403.508L4.93671 391.238L3.18747 378.883L1.94713 366.465L1.21803 354.005L1.00157 341.525L1.29815 329.047L2.10721 316.592L3.42722 304.182L5.25568 291.839L7.5891 279.584L10.4231 267.438L13.7522 255.423L17.5702 243.56L21.8697 231.868L26.6428 220.368L31.8802 209.08L37.5721 198.023L43.7077 187.216L50.2754 176.678L57.2628 166.426L64.6566 156.478L72.4428 146.851L80.6068 137.56L89.1332 128.622L98.0058 120.05L107.208 111.859L116.722 104.062L126.531 96.6721L136.615 89.7004L146.957 83.158L157.536 77.0549L168.332 71.4003L179.327 66.2026L190.498 61.4691L201.825 57.2063L213.287 53.4199L224.863 50.1144L236.531 47.2936L248.269 44.9603L260.056 43.1162L271.871 41.7623L283.69 40.8984L295.493 40.5234L307.258 40.6354L318.963 41.2315L330.587 42.3077L342.109 43.8592L353.508 45.8803L364.764 48.3644L375.855 51.3039L386.763 54.6904L397.467 58.5146L407.95 62.7665L418.191 67.4351L428.174 72.5087L437.881 77.9748L447.295 83.8201L456.399 90.0307L465.179 96.592L473.62 103.489L481.707 110.705L489.427 118.224L496.768 126.028L503.717 134.101L510.264 142.425L516.399 150.979L522.112 159.747L527.396 168.707L532.242 177.842L536.644 187.13L540.596 196.551L544.095 206.086L547.135 215.713L549.715 225.412L551.832 235.161L553.486 244.941L554.676 254.73L555.404 264.508L555.672 274.253L555.482 283.945L554.839 293.564L553.747 303.089L552.213 312.501L550.242 321.78L547.842 330.907L545.022 339.862L541.79 348.627L538.158 357.183L534.136 365.514L529.735 373.603L524.969 381.431L519.85 388.985L514.392 396.248L508.611 403.205L502.521 409.843L496.138 416.149L489.479 422.109L482.56 427.712L475.4 432.947L468.017 437.804L460.428 442.273L452.654 446.347L444.712 450.016L436.624 453.275L428.408 456.118L420.084 458.539L411.674 460.534L403.198 462.101L394.676 463.238L386.128 463.942L377.577 464.213L369.042 464.053L360.544 463.463L352.103 462.445L343.741 461.002L335.477 459.139L327.331 456.861L319.323 454.175L311.472 451.086L303.799 447.604L296.32 443.736L289.055 439.493L282.021 434.884L275.236 429.921L268.717 424.616L262.479 418.982L256.538 413.031L250.909 406.778L245.607 400.238L240.645 393.426L236.036 386.359L231.791 379.051L227.924 371.522L224.443 363.788L221.358 355.868L218.679 347.779L216.413 339.541L214.568 331.174L213.149 322.695L212.163 314.126L211.612 305.486L211.502 296.796L211.833 288.076L212.609 279.345L213.828 270.626L215.492 261.938L217.599 253.301L220.145 244.737L223.13 236.265L226.547 227.906L230.392 219.68L234.659 211.606L239.342 203.703L244.432 195.992L249.92 188.49L255.797 181.217L262.054 174.189L268.677 167.425L275.656 160.941L282.978 154.754L290.628 148.88L298.594 143.333L306.859 138.129L315.408 133.282L324.225 128.804L333.294 124.708L342.595 121.006L352.112 117.709L361.826 114.827L371.718 112.369L381.769 110.343L391.958 108.758L402.266 107.62L412.673 106.934L423.157 106.706L433.698 106.94L444.274 107.639L454.865 108.804L465.449 110.437L476.004 112.539L486.51 115.108L496.945 118.143L507.288 121.641L517.517 125.599L527.612 130.012L537.552 134.875L547.316 140.182L556.884 145.924L566.237 152.095L575.354 158.685L584.217 165.684L592.807 173.082L601.105 180.866L609.095 189.026L616.759 197.547L624.08 206.416L631.044 215.618L637.634 225.138L643.835 234.96L649.636 245.067L655.021 255.443L659.98 266.069L664.5 276.928L668.572 288L672.184 299.267L675.329 310.708L677.999 322.304L680.186 334.035L681.884 345.879L683.088 357.816L683.794 369.825L683.998 381.884L683.698 393.973L682.892 406.068L681.581 418.15L679.765 430.195L677.444 442.183L674.622 454.093L671.303 465.902L667.489 477.59L663.188 489.135L658.405 500.517L653.147 511.715L647.423 522.71L641.241 533.48L634.611 544.008L627.545 554.274L620.054 564.26L612.15 573.947L603.846 583.319L595.157 592.358L586.097 601.049L576.681 609.376L566.927 617.324L556.85 624.879L546.468 632.027L535.799 638.757L524.862 645.056L513.675 650.913L502.258 656.318L490.631 661.263L478.814 665.737L466.829 669.735L454.695 673.249L442.435 676.274L430.069 678.805L417.621 680.838L405.11 682.37L392.56 683.399L379.992 683.925L367.429 683.948L354.892 683.468L342.403 682.487L329.985 681.009L317.658 679.036L305.444 676.575L293.365 673.63L281.441 670.208L269.694 666.317L258.142 661.964L246.806 657.161L235.706 651.915L224.86 646.239L214.287 640.144L204.004 633.643L194.029 626.749L184.378 619.476L175.068 611.839L166.113 603.852L157.528 595.534L149.327 586.899L141.523 577.965L134.128 568.75L127.154 559.272L120.61 549.551L114.508 539.604L108.855 529.453L103.659 519.116L98.9282 508.614L94.6678 497.967L90.883 487.197L87.5781 476.324L84.7563 465.368L82.4198 454.353L80.5699 443.298L79.2071 432.225L78.3307 421.155L77.939 410.11L78.0295 399.11L78.5988 388.176L79.6423 377.33L81.1547 366.591L83.1298 355.98L85.5602 345.516L88.4378 335.22L91.7538 325.11L95.4983 315.206L99.6605 305.524L104.229 296.084L109.192 286.902L114.535 277.995L120.246 269.379L126.31 261.069L132.711 253.08L139.434 245.426L146.463 238.12L153.78 231.175L161.368 224.603L169.209 218.414L177.284 212.619L185.575 207.227L194.062 202.245L202.725 197.683L211.545 193.546L220.501 189.84L229.573 186.57L238.74 183.74L247.981 181.353L257.276 179.411L266.603 177.915L275.942 176.865L285.271 176.26L294.57 176.099L303.818 176.378L312.994 177.095L322.078 178.245L331.05 179.823L339.889 181.821L348.577 184.234L357.095 187.052L365.422 190.268L373.542 193.87L381.436 197.85L389.086 202.194L396.477 206.892L403.592 211.931L410.415 217.296L416.931 222.974L423.126 228.95L428.987 235.208L434.501 241.732L439.656 248.506L444.44 255.513L448.844 262.734L452.856 270.151L456.47 277.747L459.677 285.502L462.469 293.397L464.842 301.413L466.789 309.529L468.307 317.727L469.392 325.985L470.041 334.283L470.255 342.602L470.031 350.92L469.37 359.218L468.275 367.475L466.746 375.67L464.789 383.785L462.406 391.797L459.603 399.689L456.387 407.441L452.763 415.032L448.74 422.445L444.328 429.661L439.534 436.662L434.371 443.43L428.848 449.948L422.979 456.199L416.775 462.168L410.251 467.839L403.421 473.196L396.299 478.226L388.902 482.916L381.245 487.252L373.345 491.222L365.221 494.815L356.888 498.021L348.367 500.83L339.675 503.232L330.831 505.221L321.857 506.788L312.77 507.927L303.592 508.634L294.343 508.903L285.043 508.73L275.713 508.115L266.375 507.054L257.048 505.547L247.754 503.593L238.514 501.195L229.35 498.355L220.28 495.074L211.327 491.358L202.511 487.21L193.852 482.637L185.369 477.646L177.084 472.244L169.014 466.439L161.179 460.24L153.598 453.659L146.287 446.705L139.266 439.391L132.551 431.728L126.157 423.731L120.102 415.414L114.4 406.79L109.066 397.876L104.112 388.688L99.5537 379.241L95.4016 369.554L91.6675 359.644L88.3621 349.53L85.4953 339.229L83.0759 328.762L81.1122 318.147L79.6111 307.405L78.5791 296.557L78.0216 285.621L77.9428 274.62L78.3463 263.574L79.2347 252.503L80.6094 241.431L82.4712 230.376L84.8195 219.362L87.6533 208.409L90.97 197.538L94.7665 186.77L99.0385 176.127L103.781 165.629L108.988 155.296L114.652 145.149L120.765 135.208L127.319 125.492L134.304 116.021L141.709 106.813L149.523 97.886L157.734 89.2586L166.328 80.9477L175.292 72.9699L184.611 65.3413L194.269 58.0773L204.252 51.1926L214.542 44.7013L225.122 38.6166L235.975 32.9509L247.081 27.7162L258.422 22.9233L269.979 18.5823L281.731 14.7025L293.659 11.2922L305.742 8.35893L317.959 5.90929L330.288 3.94894L342.708 2.48263L355.199 1.51415L367.736 1.04638L380.3 1.08119L392.868 1.61957L405.417 2.66147L417.926 4.20596L430.373 6.25111L442.736 8.79401L454.994 11.8309L467.124 15.3569L479.106 19.3664L490.918 23.8527L502.54 28.8083L513.951 34.2249L525.132 40.093L536.064 46.4026L546.726 53.1426L557.1 60.3013L567.17 67.8659L576.916 75.8232L586.323 84.159L595.374 92.8585L604.054 101.906L612.348 111.286L620.242 120.981L627.723 130.974L634.779 141.246L641.398 151.78L647.568 162.557L653.281 173.557L658.528 184.76L663.299 196.146L667.589 207.695L671.39 219.386L674.697 231.197L677.507 243.109L679.815 255.099L681.619 267.146L682.918 279.228L683.711 291.323L683.999 303.411L683.782 315.469L683.065 327.477L681.848 339.412L680.138 351.254L677.939 362.981L675.258 374.574L672.101 386.011L668.477 397.273L664.395 408.341L659.864 419.194L654.894 429.814L649.499 440.184L643.688 450.284L637.477 460.099L630.878 469.611L623.905 478.805L616.575 487.666L608.903 496.178L600.906 504.328L592.6 512.104L584.003 519.492L575.134 526.481L566.011 533.061L556.652 539.221L547.079 544.953L537.31 550.249L527.367 555.101L517.268 559.503L507.036 563.45L496.691 566.936L486.254 569.96L475.746 572.518L465.19 574.608L454.606 576.23L444.015 577.384L433.439 578.071L422.899 578.293L412.417 578.054L402.013 577.358L391.707 576.208L381.521 574.612L371.474 572.576L361.586 570.107L351.877 567.215L342.365 563.907L333.069 560.196L324.006 556.091L315.196 551.603L306.653 546.747L298.395 541.535L290.437 535.98L282.794 530.098L275.481 523.904L268.511 517.413L261.896 510.642L255.649 503.608L249.781 496.328L244.302 488.821L239.222 481.105L234.55 473.198L230.293 465.12L226.458 456.89L223.051 448.528L220.078 440.054L217.542 431.488L215.446 422.85L213.793 414.161L212.584 405.441L211.82 396.71L211.499 387.99L211.621 379.301L212.182 370.663L213.179 362.096L214.608 353.62L216.464 345.255L218.74 337.021L221.429 328.936L224.523 321.02L228.014 313.291L231.891 305.767L236.144 298.465L240.762 291.404L245.733 284.598L251.043 278.065L256.68 271.82L262.628 265.876L268.873 260.25L275.399 254.953L282.191 249.999L289.23 245.399L296.501 241.164L303.984 237.306L311.663 233.833L319.517 230.754L327.529 228.078L335.678 225.81L343.945 223.957L352.309 222.525L360.751 221.517L369.25 220.937L377.786 220.788L386.338 221.07L394.885 221.785L403.406 222.932L411.881 224.509L420.289 226.515L428.61 228.947L436.823 231.8L444.909 235.069L452.846 238.748L460.616 242.831L468.2 247.31L475.578 252.176L482.733 257.421L489.645 263.033L496.298 269.001L502.674 275.315L508.756 281.961L514.53 288.926L519.979 296.196L525.09 303.757L529.847 311.592L534.239 319.687L538.252 328.023L541.874 336.585L545.096 345.355L547.906 354.315L550.295 363.445L552.255 372.727L553.779 382.142L554.86 391.67L555.492 401.291L555.671 410.985L555.392 420.731L554.653 430.509L553.451 440.298L551.786 450.078L549.657 459.826L547.066 469.524L544.014 479.149L540.505 488.681L536.541 498.099L532.128 507.384L527.271 516.514L521.977 525.47L516.254 534.232L510.109 542.782L503.552 551.099L496.593 559.166L489.243 566.964L481.513 574.475L473.418 581.684L464.968 588.572L456.18 595.125L447.068 601.327L437.647 607.163L427.933 612.62L417.943 617.684L407.696 622.342L397.208 626.584L386.498 630.398L375.586 633.773L364.49 636.702L353.231 639.174L341.829 641.184L330.304 642.724L318.677 643.789L306.97 644.373L295.204 644.473L283.401 644.086L271.581 643.21L259.767 641.844L247.981 639.988L236.244 637.643L224.578 634.81L213.005 631.493L201.546 627.695L190.222 623.42L179.055 618.675L168.066 613.466L157.274 607.801L146.701 601.687L136.365 595.134L126.287 588.152L116.486 580.751L106.979 572.945L97.7845 564.744L88.9202 556.163L80.4025 547.216L72.2476 537.917L64.4708 528.281L57.0868 518.326L50.1095 508.067L43.5523 497.522L37.4274 486.709L31.7465 475.646L26.5203 464.353L21.7588 452.848L17.4709 441.152L13.6648 429.284L10.3477 417.265L7.52596 405.117L5.20486 392.86L3.38881 380.515L2.08129 368.103L1.28475 355.648L1.00074 343.169L1.22976 330.689L1.9714 318.23L3.22424 305.813L4.9859 293.46L7.25307 281.192L10.0214 269.031L13.2856 256.997L17.0396 245.113L21.2762 233.397L25.9874 221.871L31.1642 210.554L36.7969 199.465L42.8747 188.625L49.3862 178.05L56.319 167.76L63.66 157.771L71.3954 148.1L79.5106 138.764L87.9901 129.778L96.8181 121.157L105.978 112.915L115.452 105.066L125.223 97.6217L135.272 90.5943L145.581 83.9947L156.13 77.8332L166.899 72.1191L177.868 66.8607L189.017 62.0657L200.325 57.7406L211.77 53.8912L223.332 50.5221L234.989 47.6373L246.72 45.2397L258.502 43.3311L270.314 41.9126L282.134 40.9841L293.94 40.5449L305.711 40.5929L317.426 41.1254L329.062 42.1386L340.598 43.6279L352.015 45.5875L363.29 48.011L374.404 50.891L385.337 54.2191L396.07 57.9863L406.582 62.1825L416.857 66.7968L426.875 71.8178L436.619 77.2329L446.072 83.029L455.219 89.1924L464.042 95.7083L472.528 102.562L480.663 109.737L488.432 117.217L495.823 124.985L502.825 133.024L509.425 141.315L515.615 149.84L521.384 158.581L526.725 167.517L531.629 176.63L536.09 185.899L540.102 195.304L543.66 204.824L546.761 214.44L549.402 224.131L551.58 233.875L553.294 243.652L554.546 253.441L555.335 263.221L555.663 272.972L555.533 282.672L554.95 292.302L553.917 301.841L552.44 311.269L550.526 320.567L548.182 329.714L545.417 338.693L542.239 347.484L538.659 356.069L534.687 364.431L530.336 372.552L525.617 380.416L520.544 388.006L515.13 395.308L509.39 402.307L503.34 408.988L496.995 415.338L490.371 421.344L483.486 426.995L476.357 432.279L469.001 437.186L461.439 441.707L453.688 445.833L445.767 449.556L437.697 452.869L429.496 455.767L421.186 458.244L412.786 460.296L404.317 461.92L395.8 463.113L387.255 463.874L378.703 464.202L370.164 464.099L361.66 463.565L353.211 462.603L344.837 461.216L336.559 459.408L328.396 457.185L320.369 454.552L312.497 451.516L304.799 448.085L297.293 444.267L289.999 440.073L282.934 435.511L276.115 430.595L269.559 425.334L263.283 419.742L257.303 413.832L251.632 407.618L246.286 401.115L241.278 394.338L236.622 387.303L232.329 380.027L228.411 372.526L224.879 364.818L221.741 356.921L219.008 348.853L216.688 340.634L214.787 332.282L213.312 323.817L212.268 315.259L211.66 306.628L211.491 297.943L211.764 289.225L212.481 280.495L213.642 271.773L215.248 263.079L217.296 254.435L219.785 245.86L222.712 237.375L226.072 229L229.861 220.755L234.074 212.66L238.702 204.734L243.738 196.996L249.175 189.466L255.001 182.161L261.208 175.1L267.784 168.3L274.717 161.778L281.994 155.551L289.602 149.635L297.527 144.044L305.754 138.795L314.267 133.899L323.05 129.372L332.086 125.225L341.357 121.471L350.847 118.12L360.536 115.182L370.406 112.668L380.437 110.585L390.609 108.941L400.903 107.744L411.297 106.998L421.772 106.71L432.307 106.883L442.88 107.52L453.47 108.624L464.056 110.196L474.616 112.235L485.13 114.743L495.576 117.717L505.932 121.154L516.177 125.052L526.291 129.405L536.252 134.209L546.041 139.458L555.636 145.143L565.018 151.258L574.167 157.793L583.065 164.739L591.692 172.085L600.03 179.82L608.061 187.93L615.769 196.404L623.136 205.228L630.148 214.387L636.788 223.866L643.041 233.649L648.895 243.72L654.336 254.061L659.352 264.656L663.93 275.485L668.061 286.53L671.735 297.772L674.942 309.192L677.675 320.769L679.926 332.483L681.688 344.313L682.958 356.24L683.729 368.24L684 380.294L683.766 392.38L683.027 404.476L681.783 416.56L680.033 428.612L677.778 440.609L675.023 452.53L671.768 464.353L668.02 476.058L663.782 487.623L659.062 499.028L653.866 510.251L648.203 521.274L642.081 532.075L635.51 542.636L628.5 552.938L621.064 562.962L613.214 572.689L604.962 582.103L596.323 591.188L587.31 599.925L577.941 608.301L568.23 616.299L558.195 623.907L547.852 631.109L537.22 637.895L526.317 644.251L515.161 650.167L503.774 655.633L492.173 660.638L480.38 665.175L468.416 669.236L456.301 672.814L444.056 675.904L431.703 678.5L419.264 680.598L406.761 682.197L394.214 683.293L381.648 683.885L369.083 683.974L356.541 683.56L344.045 682.645L331.616 681.232L319.275 679.324L307.046 676.927L294.948 674.045L283.002 670.686L271.23 666.856L259.651 662.564L248.286 657.819L237.154 652.631L226.273 647.011L215.663 640.971L205.341 634.522L195.324 627.679L185.63 620.455L176.274 612.865L167.271 604.924L158.637 596.648L150.385 588.053L142.528 579.158L135.078 569.979L128.048 560.535L121.447 550.844L115.286 540.926L109.573 530.801L104.317 520.487L99.5245 510.006L95.2018 499.377L91.3541 488.622L87.9858 477.761L85.1002 466.815L82.6997 455.806L80.7857 444.755L79.3588 433.684L78.4183 422.612L77.9629 411.563L77.9901 400.555L78.4966 389.612L79.4779 378.753L80.9289 367.998L82.8434 357.369L85.2143 346.885L88.0336 336.566L91.2924 326.43L94.981 316.498L99.0889 306.786L103.605 297.313L108.516 288.096L113.81 279.152L119.474 270.496L125.492 262.145L131.849 254.113L138.531 246.414L145.52 239.062L152.8 232.069L160.354 225.447L168.162 219.207L176.208 213.359L184.471 207.913L192.933 202.878L201.575 198.26L210.375 194.066L219.314 190.303L228.372 186.976L237.528 184.088L246.761 181.642L256.05 179.641L265.374 178.086L274.712 176.977L284.044 176.314L293.348 176.094L302.603 176.316L311.79 176.976L320.887 178.069L329.875 179.591L338.733 181.534L347.442 183.893L355.983 186.658L364.337 189.822L372.485 193.374L380.409 197.304L388.093 201.602L395.519 206.254L402.671 211.248L409.533 216.571L416.091 222.209L422.329 228.147L428.235 234.368L433.796 240.859L438.998 247.6L443.832 254.577L448.286 261.771L452.351 269.164L456.017 276.737L459.278 284.472L462.125 292.35L464.554 300.351L466.557 308.455L468.132 316.643L469.274 324.894L469.981 333.189L470.251 341.506L470.085 349.825L469.482 358.127L468.444 366.39L466.972 374.595L465.071 382.721L462.744 390.749L459.996 398.658L456.834 406.429L453.263 414.042L449.293 421.48L444.931 428.723L440.187 435.753L435.071 442.553L429.595 449.105L423.771 455.392L417.611 461.399L411.128 467.109L404.337 472.509L397.253 477.583L389.891 482.318L382.268 486.702L374.399 490.721L366.303 494.364L357.997 497.622L349.499 500.483L340.828 502.939L332.004 504.983L323.045 506.606L313.973 507.802L304.805 508.565L295.564 508.892L286.27 508.778L276.943 508.221L267.604 507.219L258.275 505.771L248.976 503.876L239.728 501.537L230.552 498.754L221.468 495.531L212.499 491.872L203.663 487.781L194.982 483.264L186.476 478.327L178.163 472.978L170.064 467.226L162.197 461.079L154.581 454.547L147.234 447.642L140.174 440.374L133.417 432.757L126.98 424.803L120.88 416.527L115.13 407.943L109.747 399.066L104.743 389.913L100.131 380.5L95.9248 370.843L92.135 360.962L88.7726 350.873L85.8474 340.596L83.3687 330.149L81.3445 319.553L79.7821 308.827L78.688 297.991L78.0677 287.066L77.9257 276.072L78.2655 265.03L79.0899 253.962L80.4005 242.888L82.1981 231.83L84.4825 220.81L87.2524 209.847L90.5056 198.964L94.2391 188.182L98.4488 177.521L103.13 167.002L108.276 156.647L113.88 146.474L119.935 136.505L126.431 126.758L133.36 117.254L140.71 108.01L148.471 99.0449L156.63 90.3771L165.174 82.0235L174.09 74.0009L183.363 66.3255L192.978 59.0126L202.919 52.0772L213.17 45.5332L223.713 39.3942L234.531 33.6727L245.605 28.3806L256.916 23.5289L268.445 19.1278L280.173 15.1868L292.079 11.7142L304.143 8.71773L316.343 6.20405L328.658 4.17897L341.068 2.64735L353.55 1.61313L366.083 1.07927L378.645 1.04783L391.213 1.51986L403.766 2.4955L416.282 3.97388L428.738 5.95323L441.114 8.43078L453.386 11.4028L465.534 14.8647L477.537 18.8109L489.373 23.2348L501.021 28.1291L512.461 33.4855L523.674 39.2947L534.639 45.5468L545.338 52.2307L555.751 59.3349L565.862 66.8469L575.651 74.7532L585.104 83.04L594.203 91.6925L602.932 100.695L611.278 110.032L619.226 119.687L626.762 129.641L633.874 139.878L640.551 150.379L646.782 161.124L652.555 172.096L657.864 183.273L662.698 194.636L667.052 206.165L670.917 217.839L674.29 229.636L677.166 241.535L679.54 253.516L681.411 265.557L682.776 277.635L683.636 289.73L683.99 301.82L683.84 313.884L683.188 325.899L682.037 337.845L680.391 349.7L678.257 361.444L675.639 373.056L672.544 384.514L668.981 395.801L664.958 406.895L660.486 417.777L655.574 428.429L650.233 438.833L644.477 448.97L638.317 458.823L631.768 468.376L624.844 477.613L617.561 486.518L609.933 495.077L601.977 503.276L593.711 511.102L585.151 518.541L576.317 525.584L567.226 532.218L557.898 538.434L548.352 544.223L538.607 549.577L528.686 554.487L518.606 558.949L508.39 562.956L498.059 566.504L487.633 569.588L477.133 572.208L466.582 574.359L456 576.043L445.409 577.258L434.83 578.007L424.285 578.29L413.793 578.112L403.378 577.475L393.058 576.385L382.855 574.848L372.788 572.869L362.878 570.457L353.145 567.62L343.605 564.366L334.28 560.707L325.186 556.653L316.341 552.216L307.762 547.407L299.466 542.241L291.468 536.731L283.782 530.891L276.425 524.737L269.409 518.284L262.746 511.549L256.45 504.549L250.532 497.301L245.001 489.822L239.868 482.133L235.142 474.25L230.83 466.193L226.939 457.982L223.475 449.636L220.445 441.176L217.851 432.62L215.697 423.991L213.986 415.307L212.718 406.59L211.895 397.86L211.516 389.138L211.579 380.443L212.083 371.797L213.023 363.219L214.395 354.73L216.195 346.35L218.416 338.097L221.051 329.991L224.093 322.052L227.532 314.297L231.359 306.745L235.563 299.413L240.134 292.319L245.058 285.479L250.325 278.909L255.919 272.625L261.827 266.641L268.034 260.972L274.524 255.631L281.282 250.631L288.289 245.984L295.531 241.701L302.987 237.792L310.641 234.268L318.473 231.137L326.465 228.407L334.597 226.085L342.85 224.177L351.203 222.689L359.636 221.626L368.129 220.989L376.661 220.783L385.211 221.008L393.76 221.666L402.286 222.756L410.768 224.277L419.186 226.227L427.52 228.602L435.748 231.4L443.852 234.614L451.81 238.24L459.603 242.271L467.213 246.698L474.619 251.514L481.804 256.709L488.749 262.273L495.437 268.195L501.85 274.464L507.973 281.067L513.788 287.991L519.281 295.222L524.437 302.745L529.242 310.545L533.682 318.606L537.745 326.912L541.42 335.446L544.695 344.189L547.559 353.124L550.005 362.233L552.022 371.497L553.604 380.895L554.744 390.41L555.435 400.02L555.673 409.705L555.455 419.445L554.776 429.22L553.636 439.009L552.032 448.791L549.964 458.545L547.434 468.25L544.443 477.886L540.993 487.431L537.089 496.866L532.735 506.169L527.936 515.321L522.699 524.301L517.032 533.09L510.942 541.669L504.438 550.018L497.532 558.118L490.233 565.953L482.553 573.503L474.504 580.753L466.101 587.684L457.357 594.282L448.286 600.531L438.904 606.416L429.228 611.924L419.274 617.04L409.06 621.752L398.602 626.05L387.921 629.92L377.034 633.354L365.961 636.342L354.722 638.875L343.338 640.946L331.828 642.548L320.214 643.676L308.516 644.323L296.757 644.488L284.957 644.165L273.138 643.353L261.322 642.052L249.531 640.261L237.786 637.98L226.11 635.211L214.523 631.957L203.048 628.222L191.705 624.01L180.516 619.327L169.502 614.179L158.683 608.573L148.08 602.517L137.712 596.021L127.599 589.095L117.76 581.75L108.213 573.996L98.9769 565.846L90.0681 557.315L81.5039 548.415L73.3003 539.161L65.4728 529.569L58.0363 519.655L51.0047 509.435L44.3914 498.926L38.2089 488.148L32.4689 477.117L27.1822 465.853L22.359 454.374L18.0082 442.702L14.1382 430.856L10.7564 418.856L7.86907 406.724L5.48175 394.479L3.59897 382.145L2.22432 369.741L1.36038 357.29L1.00881 344.813" stroke="#0085FF" stroke-width="1.20281"/>
</svg>
