<svg width="1000" height="792" viewBox="0 0 1000 792" fill="none" xmlns="http://www.w3.org/2000/svg">
    <path d="M880.803 386.479C876.472 395.786 867.936 402.917 855.562 407.94C843.185 412.965 827.003 415.863 807.455 416.718C768.361 418.429 715.915 411.963 653.784 398.123C529.532 370.443 366.652 313.293 194.605 233.227C22.5581 153.161 -126.054 65.3517 -227.244 -11.8842C-277.843 -50.5047 -316.563 -86.4649 -340.429 -117.476C-352.363 -132.982 -360.566 -147.228 -364.693 -159.933C-368.819 -172.635 -368.859 -183.757 -364.528 -193.064C-360.197 -202.37 -351.662 -209.502 -339.287 -214.525C-326.91 -219.549 -310.728 -222.448 -291.18 -223.303C-252.086 -225.014 -199.64 -218.548 -137.51 -204.707C-13.2567 -177.028 149.623 -119.878 321.67 -39.8117C493.717 40.2543 642.328 128.064 743.519 205.299C794.118 243.92 832.837 279.88 856.704 310.891C868.638 326.397 876.841 340.644 880.968 353.349C885.093 366.05 885.134 377.173 880.803 386.479Z" stroke="#D5D5D5"/>
    <path d="M849.101 454.61C844.77 463.917 836.234 471.049 823.86 476.072C811.483 481.096 795.301 483.994 775.753 484.85C736.659 486.56 684.213 480.094 622.082 466.254C497.829 438.574 334.95 381.424 162.903 301.358C-9.14404 221.292 -157.756 133.483 -258.946 56.247C-309.545 17.6265 -348.265 -18.3337 -372.132 -49.3445C-384.065 -64.8504 -392.268 -79.0972 -396.395 -91.802C-400.521 -104.504 -400.561 -115.626 -396.23 -124.933C-391.899 -134.239 -383.364 -141.371 -370.99 -146.394C-358.612 -151.418 -342.43 -154.317 -322.882 -155.172C-283.788 -156.882 -231.342 -150.417 -169.212 -136.576C-44.9588 -108.897 117.921 -51.7464 289.968 28.3196C462.015 108.385 610.626 196.195 711.817 273.431C762.416 312.051 801.135 348.011 825.002 379.022C836.936 394.528 845.139 408.775 849.266 421.48C853.391 434.181 853.432 445.304 849.101 454.61Z" stroke="#D5D5D5"/>
</svg>
