<svg width="288" height="266" viewBox="0 0 288 266" fill="none" xmlns="http://www.w3.org/2000/svg">
    <path d="M284.326 236.46C282.263 239.382 278.877 241.323 274.238 242.294C269.596 243.266 263.738 243.259 256.801 242.313C242.929 240.423 224.855 234.798 203.815 225.943C161.742 208.235 107.909 177.654 52.2981 138.392C-3.31318 99.1306 -50.149 58.6392 -80.9174 24.9201C-96.3044 8.05752 -107.654 -7.09105 -114.079 -19.5301C-117.292 -25.7503 -119.26 -31.2684 -119.898 -35.9682C-120.535 -40.6646 -119.84 -44.5046 -117.777 -47.4271C-115.713 -50.3496 -112.328 -52.29 -107.689 -53.2613C-103.047 -54.2334 -97.188 -54.2257 -90.2513 -53.2803C-76.3792 -51.3897 -58.3054 -45.765 -37.2652 -36.9098C4.80764 -19.2025 58.6403 11.3785 114.252 50.6404C169.863 89.9022 216.699 130.394 247.467 164.113C262.854 180.975 274.204 196.124 280.629 208.563C283.841 214.783 285.81 220.301 286.447 225.001C287.085 229.697 286.39 233.537 284.326 236.46Z" stroke="#131313" stroke-opacity="0.18"/>
    <path d="M268.777 258.488C266.714 261.41 263.328 263.351 258.689 264.322C254.047 265.294 248.188 265.286 241.251 264.341C227.379 262.45 209.305 256.826 188.265 247.97C146.192 230.263 92.3598 199.682 36.7485 160.42C-18.8627 121.158 -65.6986 80.667 -96.467 46.9479C-111.854 30.0853 -123.204 14.9368 -129.629 2.49769C-132.841 -3.72244 -134.81 -9.2406 -135.447 -13.9404C-136.085 -18.6367 -135.39 -22.4768 -133.326 -25.3993C-131.263 -28.3218 -127.877 -30.2621 -123.238 -31.2335C-118.596 -32.2056 -112.738 -32.1979 -105.801 -31.2525C-91.9287 -29.3618 -73.855 -23.7372 -52.8147 -14.8819C-10.7419 2.82533 43.0907 33.4064 98.702 72.6682C154.313 111.93 201.149 152.422 231.917 186.141C247.304 203.003 258.654 218.152 265.079 230.591C268.292 236.811 270.26 242.329 270.898 247.029C271.535 251.725 270.84 255.565 268.777 258.488Z" stroke="#131313" stroke-opacity="0.18"/>
</svg>
